<svg xmlns="http://www.w3.org/2000/svg" viewBox="0 0 379.07 171.44"><title>Chromis</title><g id="Layer_2" data-name="Layer 2"><g id="Inserted_Image_Image" data-name="Inserted Image Image"><path d="M327.8,86.72a4.9,4.9,0,0,0,2-.53c2.54-1,5.07-1.94,7.61-2.91,1.2-.46,2.38-1,3.6-1.33a16,16,0,0,1,3-.68,4.56,4.56,0,0,1,5.27,5,14.69,14.69,0,0,1-.71,3.51,28,28,0,0,1-4.55,8.66c-.33.45-.7.87-1,1.32-.49.65-.53.93,0,1.48,1.95,2.22,3.9,4.45,5.92,6.61a11.57,11.57,0,0,0,4,2.53,55.78,55.78,0,0,1,5.41,2.57,20.27,20.27,0,0,1,10.3,14.58c.1.55.24,1.1.32,1.65a11.78,11.78,0,0,1-.88,7.49,10.6,10.6,0,0,0-1,5.59,25.88,25.88,0,0,1-.28,6.21,10.52,10.52,0,0,1-4.24,6.72,17.59,17.59,0,0,1-4.95,2.4c-2,.64-3.94,1.3-5.93,1.91a12.76,12.76,0,0,0-6.77,4.71c-.14.19-.32.36-.46.56-2.72,3.72-6.54,5.48-11,6.16a34.11,34.11,0,0,1-9.08.29,28,28,0,0,1-14-5.92,46.74,46.74,0,0,1-4-3.46,18.92,18.92,0,0,0-7.26-4.53,18.21,18.21,0,0,1-4.46-2.32c-1.66-1.1-3.35-2.18-5.1-3.14a25.05,25.05,0,0,1-7.91-6.85c-1.27-1.65-2.43-3.38-3.68-5a32,32,0,0,0-2.28-2.77,5.44,5.44,0,0,0-2.86-1.65c-1.09-.24-2.11-.78-3.19-1-3.28-.72-6.58-1.32-9.86-2a24.59,24.59,0,0,0-9,.24,37.61,37.61,0,0,0-9.63,2.86c-.88.39-1.75.79-2.66,1.11a46.19,46.19,0,0,0-7.29,3.61c-2.14,1.25-4.33,2.42-6.58,3.46a19.76,19.76,0,0,1-12.13,1.83,54.52,54.52,0,0,0-10.76-.58,35.16,35.16,0,0,0-15.28,3.61,101.89,101.89,0,0,1-12.14,5.12,90.85,90.85,0,0,0-9,3.83,24.43,24.43,0,0,0-4.65,2.93,39.62,39.62,0,0,1-17.21,7.49,129,129,0,0,1-17.86,2c-8.79.5-17.59.35-26.39.54a153.35,153.35,0,0,1-22.26-1.21c-4.51-.57-9-1.56-13.42-2.54-5.93-1.29-11.83-2.76-17.74-4.15a92.21,92.21,0,0,0-13.54-1.85c-3.58-.28-7.18-.47-10.74-1a33.66,33.66,0,0,1-17.4-7.48A11.3,11.3,0,0,1,.3,147.27a5.35,5.35,0,0,1,1.11-5.37,7.09,7.09,0,0,1,2.49-1.84,14.92,14.92,0,0,1,5.81-1.27,56.92,56.92,0,0,1,8.85.63c2.78.31,5.54.77,8.32,1.11A28.89,28.89,0,0,0,43.24,138c2.23-1.07,4.38-2.31,6.56-3.49a11.46,11.46,0,0,0,1.07-.79c-.43-.55-.79-1.06-1.19-1.52a20.14,20.14,0,0,1-3.6-5.64A9.33,9.33,0,0,1,48,116.07a14.27,14.27,0,0,1,4-3c1.55-.81,3.13-1.6,4.75-2.28a52.8,52.8,0,0,0,11.18-6.48l4.63-3.43A188.39,188.39,0,0,1,88.29,90.34a75.23,75.23,0,0,0,12-9.09A101.84,101.84,0,0,1,112,72a36.39,36.39,0,0,0,6.92-5.9,9.66,9.66,0,0,1,.86-.83L121.18,64a22.53,22.53,0,0,0-.57-2.29,13.71,13.71,0,0,0-3.52-5.09c-1.78-1.72-3.64-3.37-5.38-5.13A44,44,0,0,1,99.56,28.75a28.73,28.73,0,0,1-.6-4.51,13.39,13.39,0,0,1,.39-3.79,3.17,3.17,0,0,1,5.6-1.4,12,12,0,0,1,1.62,2.36c.86,1.54,1.64,3.11,2.47,4.67a26.69,26.69,0,0,0,6.74,8.34c.25.19.51.36.74.53.51-.28.22-.58.1-.8-3-5.49-4.2-11.54-5.22-17.62,0-.16,0-.32-.06-.48a2.65,2.65,0,0,1,1.34-2.85,3,3,0,0,1,3.18.26,6.46,6.46,0,0,1,1,1c2.26,2.37,4.49,4.77,6.77,7.13A75.81,75.81,0,0,1,130.16,29a5.9,5.9,0,0,1,.37.55c.69-.27.48-.72.46-1.05a18.59,18.59,0,0,0-1.33-5.82c-1.17-3-2.42-5.92-3.52-8.92s-2-6.06-3-9.1A4,4,0,0,1,123,2.26,2.66,2.66,0,0,1,127.16.58a7.24,7.24,0,0,1,1.76,1.6c3.55,4.43,7.18,8.8,10.39,13.5a64.42,64.42,0,0,1,4.63,8.12,9.3,9.3,0,0,0,1.26,2.09c-.06-.45-.1-.91-.18-1.37s-.21-1.1-.36-1.63c-.46-1.54-.93-3.06-1.41-4.59a20.84,20.84,0,0,1,.24-13,16.06,16.06,0,0,1,1.39-3A5.57,5.57,0,0,1,146.3.69a3.1,3.1,0,0,1,4.72,1,6.8,6.8,0,0,1,.69,2c.34,1.73.58,3.47.89,5.2a37.32,37.32,0,0,0,3.06,9.32,8.12,8.12,0,0,0,.53.83,3.8,3.8,0,0,0,.58-.49c2.15-3.12,4.92-5.67,7.5-8.4a7.28,7.28,0,0,1,.7-.66,2.73,2.73,0,0,1,2.89-.63,3.07,3.07,0,0,1,2,2.77,6.74,6.74,0,0,1-.17,1.66c-.22,1.26-.49,2.51-.72,3.77a53.22,53.22,0,0,0-.24,14.59A46.83,46.83,0,0,1,166,53.37a7.21,7.21,0,0,0-.41,1.37c0,.17.16.41.31.58a.84.84,0,0,0,.42.21c3.3.81,6.23,2.46,9.22,4,1.42.73,2.85,1.45,4.29,2.14a26.56,26.56,0,0,0,12.29,2.77l13.43-.29c.72,0,1.44-.09,2.16,0,6.74.4,13.41-.42,20.1-1q8.25-.69,16.52-1.1a86.38,86.38,0,0,0,11.9-1.37A44.84,44.84,0,0,1,267,59.87a27.25,27.25,0,0,0,3.83-.13,27.46,27.46,0,0,1,8.34.58c3.67.8,7.3,1.79,10.92,2.78a23.52,23.52,0,0,1,6.51,3l7.88,5c.93.59,1,.6,1.79-.27a24.61,24.61,0,0,1,7.24-5.45,75.41,75.41,0,0,1,12.73-4.95c3.5-1.11,7-2.16,10.51-3.33a58.72,58.72,0,0,0,10.48-4.73A35.89,35.89,0,0,0,357,44.37c2.27-2.68,4.48-5.43,6.71-8.14,1-1.24,2-2.52,3.09-3.68a23.66,23.66,0,0,1,3-2.7,8.78,8.78,0,0,1,2.56-1.28,4.82,4.82,0,0,1,6.26,3.29,10.25,10.25,0,0,1,.37,4.51,32.92,32.92,0,0,1-2.4,8.76,77.66,77.66,0,0,1-9.29,15.64,52.1,52.1,0,0,1-12.32,12,37,37,0,0,1-10.52,5.14c-2.44.74-4.88,1.51-7.29,2.37a24.64,24.64,0,0,0-9.31,6.18S327.82,86.57,327.8,86.72ZM311,83.6c0-.35-.18-.46-.48-.49a2.76,2.76,0,0,0-1.92-1.43,2.78,2.78,0,0,0-1.84-1.52c-.85-.83-1.66-1.71-2.56-2.48-3.28-2.84-7.1-4.9-10.71-7.26a19.43,19.43,0,0,0-5.7-2.48c-3-.79-6-1.62-9.06-2.32a25.61,25.61,0,0,0-7.86-.56,39.51,39.51,0,0,1-4.07.11,44.73,44.73,0,0,0-10.26.83,73.3,73.3,0,0,1-10.23,1.26c-3.51.23-7,.34-10.54.55-2.63.16-5.26.35-7.89.61-6.85.68-13.69,1.37-20.58,1-.56,0-1.12,0-1.68,0-4.88.09-9.76.22-14.63.27a27.09,27.09,0,0,1-3.82-.32,35.34,35.34,0,0,1-11.53-3.89c-2.28-1.18-4.52-2.41-6.78-3.6A23.42,23.42,0,0,0,163.93,60c-1.72-.45-3.3-.5-4.68.82a1.72,1.72,0,0,1-.42.23,114.1,114.1,0,0,0-10.31,6.12,17.31,17.31,0,0,1-14.22,2.48c-1-.23-2-.57-3-.76-1.73-.33-3.46-.65-5.2-.85a4.3,4.3,0,0,0-3.85,1.54,52.46,52.46,0,0,1-7.53,6.67A130.9,130.9,0,0,0,104.12,85,86.85,86.85,0,0,1,89.93,95.56c-2.73,1.67-5.38,3.47-8.12,5.12a9.44,9.44,0,0,0-3.12,3.26,6.72,6.72,0,0,0-.51,5.77.92.92,0,0,0,1.12.66,11.4,11.4,0,0,0,1.81-.63c1.16-.54,2.3-1.12,3.44-1.71,6.54-3.36,13.07-6.76,19.63-10.07A230.19,230.19,0,0,1,128,87.69a44.69,44.69,0,0,1,23.11-2.33c5.76.92,11.49,2,17.2,3.21a40.06,40.06,0,0,0,9.76.88c3.76-.13,7.48-.56,11.22-1a176.12,176.12,0,0,0,20-3.61,176.11,176.11,0,0,1,19.36-3.38,45.7,45.7,0,0,1,15.25.66,51.05,51.05,0,0,1,14.15,5.12c2.37,1.32,4.8,2.54,7.24,3.75a80.61,80.61,0,0,1,14.35,9.12c6.61,5.3,13.23,10.6,19.91,15.82,3.15,2.46,6.42,4.77,9.68,7.07a16.7,16.7,0,0,0,6.14,2.64c3.05.67,6.1,1.34,9.18,1.79a11.15,11.15,0,0,0,8.77-2.4c2.77-2.22,3.25-4,2.27-7.39a25.75,25.75,0,0,0-4-7.84c-.6-.85-.73-.88-1.8-.41-2.13.92-4.23,1.91-6.38,2.77q-3.78,1.52-7.64,2.83a16.43,16.43,0,0,1-6.16.73,9.24,9.24,0,0,1-5.18-1.65c-1.29-.94-2.53-2-3.72-3-4.22-3.74-5-11.13-3.1-15.57a8,8,0,0,1,5.3-4.84,11.84,11.84,0,0,1,2.11-.45c1.43-.15,2.86-.21,4.3-.33a1.72,1.72,0,0,0,.55-.29,2.3,2.3,0,0,0-.35-.59,11.38,11.38,0,0,0-1-.73c-3.89-3-8-5.54-12.16-8.13a27.94,27.94,0,0,0-2.95-1.59c-3-1.39-5.94-2.79-9-4.1a30.57,30.57,0,0,0-16.9-2.13c-.24,0-.47.09-.71.11a2.77,2.77,0,0,1-3.22-2.2,2.68,2.68,0,0,1,2.28-2.92,22.15,22.15,0,0,1,3.78-.58,36.45,36.45,0,0,1,14.87,2.1,105.11,105.11,0,0,1,13.9,6.49c2.22,1.26,4.33,2.72,6.5,4.07.54.33,1.12.59,1.68.88a2.62,2.62,0,0,0,2,1.36,2.23,2.23,0,0,0,1.93,1.43c0,.36.16.47.47.49A2.41,2.41,0,0,0,312.94,85c.05.14.05.35.15.43,1.75,1.36,3.51,2.71,5.29,4,.11.08.39-.08.6-.13-.06-.14-.07-.32-.17-.4-1.67-1.21-3.33-2.43-5-3.62a3.3,3.3,0,0,0-.87-.29A2.26,2.26,0,0,0,311,83.6Zm-157.43-26c1.69-.31,3-1.38,4.48-2.16a6.11,6.11,0,0,0,2.82-3.38,41.58,41.58,0,0,0,2.61-19.52,88.35,88.35,0,0,1-.32-11.73c0-.54,0-1.08,0-1.86a9.45,9.45,0,0,0-2.54,2.8,6.22,6.22,0,0,0-.85,5.89,31.35,31.35,0,0,1,1,15.85,20.4,20.4,0,0,1-3.53,8.57q-1.49,2-2.9,4.11a10.53,10.53,0,0,0-.69,1.48l-.15.11ZM133.41,16.87a1,1,0,0,0-.08-.18s-.08,0-.13,0l.26.16c-.2,1.11.44,2,.8,3A23.44,23.44,0,0,1,136,27c.14,3.5.32,7,.29,10.51a53.22,53.22,0,0,0,.71,8.09,3.69,3.69,0,0,0,.38.84,2.8,2.8,0,0,0,.74-.42c.6-.65,1.08-1.4,1.72-2a7,7,0,0,0,2-4.66,21.67,21.67,0,0,0-1.3-10.1,53,53,0,0,0-6.39-11.73A4.63,4.63,0,0,0,133.41,16.87ZM106.05,31.75a.6.6,0,0,0-.08-.16s-.07,0-.11,0l.24.14a4.72,4.72,0,0,0,.63,2.76,37.43,37.43,0,0,0,8.11,12.62c2.89,3,5.88,5.81,8.92,8.81A3.73,3.73,0,0,0,124,55c-.06-1.44-.09-2.88-.27-4.3-.4-3.12-.74-3.84-3-6.07A29.84,29.84,0,0,0,117.6,42c-1.09-.81-2.26-1.52-3.38-2.27A28.23,28.23,0,0,1,107.14,33,15.85,15.85,0,0,0,106.05,31.75Zm84.49,109.42c.55-.08,1.1-.13,1.65-.23,1.26-.22,2.5-.56,3.76-.71a59.3,59.3,0,0,1,17.19.17,15,15,0,0,0,8.22-.93,50.5,50.5,0,0,0,7-3.54c2-1.18,4-2.28,6.12-3.27s4.12-1.74,6.2-2.56A44,44,0,0,1,258,126.94c.13,0,.26-.14.38-.21-1.3-1.89-1.3-1.88-3.35-1.9-1.12,0-2.23-.07-3.35-.12a33.06,33.06,0,0,0-11.81,1.56c-6,1.94-12,3.8-18,5.87a85.06,85.06,0,0,1-14.53,4A81.78,81.78,0,0,0,192,140.42c-.49.18-1.14.17-1.4.8a2,2,0,0,0-.43,0c-.06,0-.1.14-.14.22s.16,0,.21,0S190.43,141.26,190.54,141.17Zm-7.22,2.9c-.77.21-1.54.4-2.3.64a36.55,36.55,0,0,1-6.55,1.4c-4.09.5-8.15,0-12.21-.29-2.31-.15-4.62-.4-6.94-.48a29.86,29.86,0,0,0-6.92.56,77.29,77.29,0,0,0-9.7,2.66c-4.55,1.52-9.08,3.09-13.62,4.63-2.57.87-5.19,1.61-7.73,2.58-4.93,1.87-9.82,3.86-14.91,5.29A72.87,72.87,0,0,1,87.89,164l-5.28.4a99.34,99.34,0,0,0,16.52.93c4.64,0,9.28-.06,13.92-.18,5.36-.13,10.72-.26,16.06-.57a93.28,93.28,0,0,0,14-1.85,34.64,34.64,0,0,0,14.33-6.39,33.71,33.71,0,0,1,5.46-3.45,93.18,93.18,0,0,1,11.07-4.6c2.63-.93,5.18-2.1,7.75-3.21a10.07,10.07,0,0,0,1.53-1l.56-.16c-.05,0-.13-.07-.16-.05A2.27,2.27,0,0,0,183.32,144.07ZM64.73,113a3.83,3.83,0,0,0-.77.14c-2.47,1.14-4.94,2.27-7.39,3.44a26,26,0,0,0-2.93,1.62,10.55,10.55,0,0,0-2,1.73,3.71,3.71,0,0,0-.85,4,10.69,10.69,0,0,0,1,2.18C55,131,59.28,134.62,65,136.22a30.66,30.66,0,0,0,7.57,1.13,50.28,50.28,0,0,0,29.85-8.85c2.92-2,6-3.76,8.92-5.64,1.42-.9,2.85-1.77,4.22-2.74q3.82-2.7,7.56-5.51a31.32,31.32,0,0,1,8.85-4.72,59.31,59.31,0,0,1,31.22-2c7.3,1.44,14.56,3,22,3.79a50.2,50.2,0,0,0,15-.74,8.58,8.58,0,0,0,4.57-2.45c.68-.69,1.32-1.4,2.05-2a40.59,40.59,0,0,1,3.9-3.17,8,8,0,0,1,9-.18,11.07,11.07,0,0,1,3.49,3.25,25.82,25.82,0,0,0,4.63,4.83,4.7,4.7,0,0,0,3,1.18,15.79,15.79,0,0,0,7-1.2,26.59,26.59,0,0,1,6.2-1.81,10.6,10.6,0,0,1,9.45,3,29,29,0,0,1,2.38,2.69c1.82,2.24,3.61,4.48,5.38,6.75a18.73,18.73,0,0,0,8.21,6,61.14,61.14,0,0,1,6.28,3,16.89,16.89,0,0,1,6,5.4c1.7,2.43,3.49,4.79,5.18,7.21a8.52,8.52,0,0,0,2.35,2.36c1,.65,2.07,1.2,3.11,1.8,1.59.92,3.22,1.78,4.75,2.79a19.84,19.84,0,0,0,4.46,2.3,20,20,0,0,1,7.14,4.3c1.18,1.08,2.35,2.17,3.57,3.21a23.14,23.14,0,0,0,19.84,5.62,11.64,11.64,0,0,0,8.49-4.8,17.33,17.33,0,0,1,9.27-6.47c1.6-.51,3.21-1,4.79-1.55a36.65,36.65,0,0,0,3.57-1.39,5.54,5.54,0,0,0,3.32-4.66,19.41,19.41,0,0,0,.11-2.16c0-1.12,0-2.24-.06-3.35a11.9,11.9,0,0,1,1.29-6.27,7.76,7.76,0,0,0,.73-4.89,23.62,23.62,0,0,0-1.28-5.11,14,14,0,0,0-4.72-6.22,21.71,21.71,0,0,0-5.87-3.23,20.9,20.9,0,0,1-9.22-6.64c-1.18-1.42-2.39-2.81-3.61-4.18-.17-.2-.59-.43-.74-.35-.43.22-.11.54.07.78.74.94,1.49,1.88,2.25,2.81a36.35,36.35,0,0,1,5.62,9.71,29.15,29.15,0,0,1,2.2,11.46c-.13,5.84-2.61,10.3-7.88,13-1.41.73-2.94,1.25-4.39,1.91a15.88,15.88,0,0,1-8.22,1.14,53,53,0,0,1-15-3.89,70.19,70.19,0,0,1-17.83-10.7c-4.53-3.69-9-7.47-13.45-11.22-11.9-10-25.05-18-38.86-25a12.58,12.58,0,0,0-2.47-.9,17.76,17.76,0,0,0-9.7-.09,20.65,20.65,0,0,1-6.41.73c-1.12,0-2.24-.09-3.36,0a45.49,45.49,0,0,0-6,.51q-10.59,2.07-21.13,4.38a65.69,65.69,0,0,1-12.32,1.76,66.85,66.85,0,0,1-17.16-1.38c-3.89-.91-7.84-1.56-11.77-2.26A36.69,36.69,0,0,0,142,96.77c-1,.12-2.07.2-3.11.27a45.25,45.25,0,0,0-14.67,3.29c-4,1.71-8.17,3.25-12.24,4.9a60.06,60.06,0,0,0-9.86,4.92c-2.57,1.62-5.13,3.26-7.66,4.95a42.89,42.89,0,0,1-18,6.77,23,23,0,0,1-5.74.09c-4.63-.56-6.17-3.75-6-6.77C64.77,114.49,64.73,113.78,64.73,113Zm8-5.23c-.26,0-.46-.06-.57,0-1.19.81-2.38,1.61-3.53,2.47a3.42,3.42,0,0,0-.92,1.08,8.23,8.23,0,0,0-1,4.38,4,4,0,0,0,2.94,3.92,6.08,6.08,0,0,0,1.87.4A28.8,28.8,0,0,0,76,119.9,40.53,40.53,0,0,0,92.37,114c2.15-1.38,4.29-2.79,6.43-4.18a68.24,68.24,0,0,1,11.87-6.25q7.35-2.92,14.71-5.85a31.25,31.25,0,0,1,6.91-1.93,104.93,104.93,0,0,1,13.36-1.2,25.7,25.7,0,0,1,4.3.32c3.63.57,7.25,1.2,10.87,1.86,2.83.51,5.64,1.16,8.47,1.63a59.18,59.18,0,0,0,12.69.45,49.56,49.56,0,0,0,7.37-.87c6.74-1.33,13.45-2.8,20.18-4.21,4.3-.9,8.61-1.78,13.06-1.52a30.14,30.14,0,0,0,8.55-.86,19.09,19.09,0,0,1,13.9,2c2.53,1.38,5.05,2.78,7.59,4.12a179.42,179.42,0,0,1,31.67,21.56c2.5,2.12,5,4.28,7.49,6.37a102.72,102.72,0,0,0,12.91,9.55,58.9,58.9,0,0,0,22.37,8.17,20.27,20.27,0,0,0,14.29-3.65,11.61,11.61,0,0,0,5.06-9.13,25.42,25.42,0,0,0-1.61-10.83,36.56,36.56,0,0,0-6.75-11.53c-.59-.7-1-1.69-2-1.86-.38-.06-.12.62,1.14,2.58.17.27.36.53.52.81a30.61,30.61,0,0,1,3.42,8.4,9.78,9.78,0,0,1-2,8.58A16.11,16.11,0,0,1,325,132.74a82.11,82.11,0,0,1-8.73-1.5,27.42,27.42,0,0,1-10.81-4.38c-1.52-1-3.05-2.06-4.49-3.2-7.68-6-15.36-12-23-18.13a77.49,77.49,0,0,0-13.75-9.14c-2.58-1.28-5.16-2.57-7.66-4a49.28,49.28,0,0,0-14.11-5.19,39.17,39.17,0,0,0-12.16-.62,153.53,153.53,0,0,0-18.91,3.17C206.17,91,200.9,92,195.64,92.93c-2.75.5-5.54.76-8.32,1.13a85.76,85.76,0,0,1-13.4.65,21.34,21.34,0,0,1-3.56-.41c-3.07-.57-6.11-1.26-9.17-1.83a129.13,129.13,0,0,0-14.91-2.34,34.92,34.92,0,0,0-12.8,1.32,143.58,143.58,0,0,0-17.9,6.87q-12.4,5.75-24.47,12.18-3.81,2-7.69,3.92A14.83,14.83,0,0,1,80,115.6a5.58,5.58,0,0,1-6.4-3.47,17.14,17.14,0,0,1-.7-2.78C72.82,108.83,72.79,108.28,72.72,107.78Zm-16.41,52,7.75,1.81a1.55,1.55,0,0,0,.71,0c2.33-.52,4.75-.6,7-1.56a12.06,12.06,0,0,1,4.22-.79c3.12-.11,6.24-.19,9.35-.4a63.13,63.13,0,0,0,7.14-.8,96.7,96.7,0,0,0,17.93-5.25,139.4,139.4,0,0,1,14.48-5.06c2-.54,4-1.29,5.92-1.95,3.86-1.29,7.71-2.64,11.6-3.86a41,41,0,0,1,15.87-1.78c2.95.25,5.9.53,8.85.77a29.42,29.42,0,0,0,13.44-1.66c2-.79,4-1.62,6-2.42a98.7,98.7,0,0,1,20-5.93,75.15,75.15,0,0,0,12.27-3.24c6-2.09,12.12-4.09,18.21-6a37.64,37.64,0,0,1,14.9-1.85,4.64,4.64,0,0,0,.85-.12c-.49-.69-.91-1.25-1.31-1.83-2.23-3.18-5.16-4.06-8.81-2.74-1.5.54-3.05,1-4.6,1.36a11.88,11.88,0,0,0-3.32,1.32,11.24,11.24,0,0,1-2.43,1c-1,.34-2,.6-3,.91-3.73,1.19-7.44,2.45-11.2,3.54a44.82,44.82,0,0,1-5.87,1.17c-4.19.62-8.39,1.21-12.59,1.74-3.65.45-7.3,1-11,1.13-7.27.25-14.55.13-21.83.47-3.83.18-7.68.1-11.51.23a87.3,87.3,0,0,0-14.48,2c-4.46.93-8.92,1.84-13.37,2.8a21.3,21.3,0,0,0-3.69,1.05c-3.63,1.48-7.22,3-10.82,4.59a17.62,17.62,0,0,0-2.52,1.38,73,73,0,0,1-11.24,5.9c-1,.44-2,1-3,1.47a86.63,86.63,0,0,1-12.85,5.3c-1.52.48-3,1-4.55,1.53a102.26,102.26,0,0,1-11.51,3.33c-3,.61-6.13,1.12-9.2,1.68C57.5,159.1,56.82,159.05,56.31,159.79ZM225,115.87a2.43,2.43,0,0,0-2.55-.62,8.31,8.31,0,0,1-5.77-1.13,3.68,3.68,0,0,0-4.83.23c-.19.15-.4.27-.59.41a15.69,15.69,0,0,1-5.72,2.39c-2.65.58-5.29,1.24-7.95,1.78a27.22,27.22,0,0,1-4.73.67c-2.65.06-5.26.43-7.88.71a12.43,12.43,0,0,1-3.1.11,52.17,52.17,0,0,0-8.38-.32,27.21,27.21,0,0,1-6-.44c-2.89-.59-5.8-1.13-8.69-1.74a52.22,52.22,0,0,0-19.06-.72c-1.5.23-3,.48-4.51.65A33.15,33.15,0,0,0,121,123.08c-2.37,1.49-4.76,2.94-7.13,4.42-2.77,1.74-5.6,3.41-8.3,5.26A56.25,56.25,0,0,1,90.79,140a51,51,0,0,1-23.2,2.16,27.49,27.49,0,0,1-11.18-4.07c-1.86-1.21-1.8-1.06-3.34,0-.32.23-.66.45-1,.67A53.15,53.15,0,0,1,41,144.47a32.65,32.65,0,0,1-15.39,1.22c-.61-.08-1.4-.45-1.82.1s.11,1.34.46,1.93a5.4,5.4,0,0,0,.9,1.12c2.05,2,4.13,4,6.18,6a2.27,2.27,0,0,0,1.72.72,8.25,8.25,0,0,0,2.12-.17,4.68,4.68,0,0,1,2.82,0,13.57,13.57,0,0,0,5,.45c1.83-.16,3.67-.33,5.48-.61,3.4-.52,6.77-1.16,10.17-1.69a98,98,0,0,0,17.45-4.24c4.51-1.61,9.16-2.85,13.52-4.88,3.85-1.78,7.69-3.56,11.5-5.42,1.86-.91,3.67-2,5.44-3a49.38,49.38,0,0,1,6.35-3.36c2.51-1,5-2.18,7.52-3.15a41.06,41.06,0,0,1,5.71-1.79c5-1.12,10-2.08,15-3.16a87.21,87.21,0,0,1,16.64-2c8.88-.19,17.75-.33,26.63-.48a87.47,87.47,0,0,0,13.13-1c3.39-.56,6.79-1.18,10.2-1.47a89.06,89.06,0,0,0,16.18-3.34A11.37,11.37,0,0,0,225,115.87ZM373.78,35.63c0-.56,0-.72,0-.88a.6.6,0,0,0-1-.48,6.5,6.5,0,0,0-1.12.9c-1,1.11-2.07,2.22-3,3.39-2,2.41-3.87,4.9-5.88,7.28a48.07,48.07,0,0,1-10.32,9.61,64.33,64.33,0,0,1-14.47,6.91c-3.62,1.24-7.32,2.3-11,3.45a87.48,87.48,0,0,0-11.2,4.26A20.92,20.92,0,0,0,311.06,73c-2,1.72-2,1.94,0,3.55,3.07,2.44,6.16,4.84,9.25,7.25a5.79,5.79,0,0,0,1.2.79,1,1,0,0,0,.84-.08,5.69,5.69,0,0,0,.82-.87,31.65,31.65,0,0,1,13.51-8.82c2-.62,3.95-1.27,5.94-1.88a29.3,29.3,0,0,0,7.24-3.14,46.06,46.06,0,0,0,11.53-10,85,85,0,0,0,7.56-11.09A38.75,38.75,0,0,0,373,39.23C373.35,37.91,373.58,36.57,373.78,35.63ZM312.25,95.25c-1.52,0-3,0-4.56,0a22.94,22.94,0,0,0-2.61.31,3.23,3.23,0,0,0-2.89,2.8,18.57,18.57,0,0,0-.3,3.57c.05,3.69,1.8,6.59,6.27,8.1a11,11,0,0,0,9-.87c.78-.41,1.59-.76,2.39-1.12,3.49-1.58,7-3.1,10.48-4.75a27.42,27.42,0,0,0,7.9-5.78,22.77,22.77,0,0,0,5.77-9.83c.17-.61-.15-1-.73-.77-1.51.51-3,1-4.51,1.63-4.88,2-9.88,3.69-14.9,5.31A30.51,30.51,0,0,1,312.25,95.25ZM147.94,13.35a2.46,2.46,0,0,0-.15.69,11.89,11.89,0,0,0,.31,1.88c.38,1.39.77,2.78,1.23,4.14a27.66,27.66,0,0,1,1.38,10.87,25,25,0,0,1-5.83,15.16c-.83,1-1.67,1.94-2.49,2.92-1,1.16-2,2.32-2.9,3.51A16.41,16.41,0,0,0,136.42,59a41.8,41.8,0,0,1-1.28,4.36c-.32.87,0,1.15.78,1.31a13.32,13.32,0,0,0,7.54-.67,2.49,2.49,0,0,0,1.36-1.27,14.11,14.11,0,0,0,.68-1.54,26.51,26.51,0,0,1,2.84-5.53c1.42-2.13,2.88-4.23,4.35-6.32A14.86,14.86,0,0,0,155,44.83a27.43,27.43,0,0,0,.73-11.4,28.93,28.93,0,0,0-2.78-8.64,74.66,74.66,0,0,1-4.65-11C148.22,13.62,148.07,13.52,147.94,13.35ZM130,116.35l.17.29c2.68-.41,5.37-.74,8-1.24a50.09,50.09,0,0,1,15.74-.31c3.24.41,6.45,1.13,9.65,1.79a48.89,48.89,0,0,0,11.88,1.23c2.06-.08,4.14.2,6.21.28a19.49,19.49,0,0,0,2.86,0c3.1-.33,6.16-1,9.3-.8a5,5,0,0,0,.94-.1,14.39,14.39,0,0,0-2.36-.15c-2.15-.06-4.32-.05-6.46-.23a149.8,149.8,0,0,1-19.62-3.15,74.29,74.29,0,0,0-13-1.87,54.82,54.82,0,0,0-21.15,3.37C131.42,115.68,130.71,116,130,116.35ZM28.32,155a8.74,8.74,0,0,0-.77-1.05c-1.06-1.08-2.16-2.12-3.23-3.2a8.17,8.17,0,0,1-2.67-4.69,1.07,1.07,0,0,0-1.09-1c-2.61-.29-5.22-.64-7.84-.88a26.72,26.72,0,0,0-3.58,0,6.56,6.56,0,0,0-3.2.86.85.85,0,0,0-.33,1.22A8.69,8.69,0,0,0,8.19,149a27.47,27.47,0,0,0,6.43,3.66,36.41,36.41,0,0,0,12.59,2.49A8,8,0,0,0,28.32,155ZM118.49,24.1a7.9,7.9,0,0,0,.25,1.44c.74,1.85,1.41,3.74,2.3,5.52,1.38,2.79,2.93,5.5,4.38,8.25a30.85,30.85,0,0,1,3.65,16.17c-.08,1.75-.32,3.5-.4,5.25,0,.76-.47,1.57.16,2.29,1.1-.17,1.13-1.22,1.48-1.93a9,9,0,0,0,.65-2.54c.28-1.74.5-3.48.72-5.22a28.27,28.27,0,0,0-5.6-21,69.11,69.11,0,0,0-6.64-7.55A10.73,10.73,0,0,0,118.49,24.1Zm86.67,91a10.56,10.56,0,0,0,4.36-1.61l2-1.31A5,5,0,0,1,217,112a20.08,20.08,0,0,0,2.14,1,3.72,3.72,0,0,0,2.87.09c-.48-.55-.85-1-1.2-1.37s-.79-1-1.19-1.5-.68-.89-1-1.31a6.06,6.06,0,0,0-.85-.83c-1.53-1.19-2.78-1.3-4.36-.14a33.33,33.33,0,0,0-3.42,3,24.91,24.91,0,0,1-4.18,3.56C205.54,114.57,205.43,114.78,205.16,115.09Z"/></g></g></svg>