<svg xmlns="http://www.w3.org/2000/svg" viewBox="0 0 159.74 288.54"><title>Conus</title><g id="Layer_2" data-name="Layer 2"><g id="Inserted_Image_Image" data-name="Inserted Image Image"><path d="M159.74,71.05c-.06,7.53-.71,15-1.45,22.5-.9,9.15-2.15,18.26-3.57,27.34-1.92,12.4-4.22,24.74-6.79,37-3.57,17.06-7.61,34-12.3,50.8C131.93,222,128,235.12,123.06,248c-1.86,4.85-3.94,9.62-6,14.38-1,2.34-2.35,4.54-3.41,6.87-1.23,2.68-2.29,5.45-3.49,8.15-.9,2.05-1.8,4.1-2.87,6.06a22.63,22.63,0,0,1-2.66,3.68,4.35,4.35,0,0,1-3.19,1.39,14.58,14.58,0,0,1-9.7-2.83c-1.51-1.05-2.89-2.28-4.34-3.41s-2.76-2.18-4.22-3.15a12.47,12.47,0,0,0-4.88-1.91,9.81,9.81,0,0,0-4.72.46,3.58,3.58,0,0,0-2,1.62c-1,1.55-2,3.07-3.08,4.57A10.18,10.18,0,0,1,66,286.09a6.11,6.11,0,0,1-8-1.42,35.23,35.23,0,0,1-2.73-4.21c-3.52-6.73-6.62-13.67-9.53-20.69C39,243.51,33.37,226.87,28.28,210Q18.8,178.68,12.17,146.6c-2-9.78-3.91-19.59-5.6-29.44C5.18,109.05,4.09,100.89,3,92.72,2.16,86.15,1.47,79.55.81,73,.43,69.13.23,65.29,0,61.46a12.92,12.92,0,0,1,.27-2.61,47.11,47.11,0,0,1,.9-5.18,18.59,18.59,0,0,1,6-9.59,33.76,33.76,0,0,1,9.17-5.6,2.08,2.08,0,0,0,1.55-1.87A8.79,8.79,0,0,1,22.26,30a30.28,30.28,0,0,1,7.83-3.57,9.88,9.88,0,0,1,1.39-.38A3.19,3.19,0,0,0,34.15,24a10.81,10.81,0,0,1,5.45-5.19,27.87,27.87,0,0,1,5.87-2.07A3.46,3.46,0,0,0,47.85,15a13.17,13.17,0,0,1,6.44-5.54,7.14,7.14,0,0,0,2-1.27,19.75,19.75,0,0,1,8.05-4.58,4.24,4.24,0,0,0,2-1.24A13.36,13.36,0,0,1,68.17.85,4,4,0,0,1,72,.26,12.35,12.35,0,0,1,73.6.88c1,.54,1.87,1.24,2.88,1.68s2.17.54,3.18,1a17.34,17.34,0,0,1,4.68,3.3,2.81,2.81,0,0,0,1.17.74c3.21.79,5.46,2.94,7.48,5.35a3.24,3.24,0,0,0,2.18,1.24,19.08,19.08,0,0,1,2.35.45,11.64,11.64,0,0,1,7.22,5.92,2.47,2.47,0,0,0,2,1.45,30.48,30.48,0,0,1,7.51,2.41,7.59,7.59,0,0,1,3.93,3.7c.35.72.79,1.39,1.1,2.13A2.09,2.09,0,0,0,121,31.6c1.49.27,3,.61,4.44,1a10.59,10.59,0,0,1,6.07,3.6,2.23,2.23,0,0,0,1.63.86,4.91,4.91,0,0,1,3.63,2.49c.56.87,1.09,1.77,1.61,2.67a19.18,19.18,0,0,0,3.28,4.12c1.47,1.44,2.22,1.58,4.07.72A10.28,10.28,0,0,1,149.16,46a6.59,6.59,0,0,1,5.75,2.4,14.47,14.47,0,0,1,3.65,6.93,72.63,72.63,0,0,1,1,7.36C159.72,65.45,159.68,68.25,159.74,71.05ZM124.48,230.3c.52-.08.51-.55.62-.9q2.25-7.2,4.47-14.42c.07-.22.15-.52.05-.68a1.39,1.39,0,0,0-.7-.54.64.64,0,0,0-.56.28,7.2,7.2,0,0,0-.44,1.36c-.64,2.72-1.29,5.44-1.91,8.17-.51,2.25-1,4.51-1.48,6.77-.11.27-.23.53-.33.8,0,.05,0,.13,0,.2s.2-.1.2-.16C124.48,230.89,124.47,230.59,124.48,230.3ZM135.32,45a2.13,2.13,0,0,0-.21.56A137.46,137.46,0,0,1,133.53,62q-1.65,12.35-3.85,24.63c-2.72,15.26-6,30.4-9.65,45.48q-5.34,22.38-11.55,44.54c-5.47,19.47-11.27,38.82-18,57.9-4.44,12.59-9,25.12-14.87,37.15a2.72,2.72,0,0,0-.34.88.59.59,0,0,0,.31.52,3,3,0,0,0,1,0,15.16,15.16,0,0,1,8.86,2.49c1.48.94,2.86,2.05,4.24,3.13,1.14.88,2.21,1.85,3.33,2.75a13,13,0,0,0,4.18,2.3c2.93.91,5,.16,6.57-2.42a8.83,8.83,0,0,0,.56-1c.65-1.38,1.33-2.74,1.91-4.14,2.23-5.39,4.13-10.91,5.85-16.48,5.08-16.43,9.17-33.11,12.89-49.88,2.5-11.31,4.81-22.67,7.08-34,1.47-7.36,2.76-14.76,4.05-22.16q1.66-9.43,3.15-18.91c.94-6,1.78-12,2.63-18,.59-4.19,1.16-8.39,1.67-12.59.59-4.92,1.16-9.84,1.62-14.78s.76-10,1.17-15.06a145.32,145.32,0,0,0,.27-16.3c-.05-1.51-.29-3-.47-4.52s-.52-1.7-1.8-1.65a6.11,6.11,0,0,1-4-1.3,26.35,26.35,0,0,1-2.44-2.29,15.61,15.61,0,0,1-1.21-1.48C136.18,46.19,135.78,45.61,135.32,45ZM103.73,89.36c.38,0,.78-.07,1.18-.13,5.82-1,11.64-2,17.46-3.07a23.5,23.5,0,0,0,2.54-.72,1.36,1.36,0,0,0,1-1.2c.76-4.57,1.54-9.13,2.3-13.7.11-.63-.2-1-.78-.83-1,.21-2,.44-3,.68a69.38,69.38,0,0,1-8.92,1.79c-2.94.29-5.89.56-8.82.9q-9.28,1.07-18.57,2.2C81,76.15,74,77.06,66.92,77.91c-6.18.75-12.37,1.53-18.57,2.16C41.28,80.78,34.2,81.44,27.1,82c-6.37.47-12.76.7-19.14,1a9.62,9.62,0,0,0-1.43.12.7.7,0,0,0-.42.49,4.31,4.31,0,0,0,0,1.19C6.59,88.6,7,92.41,7.55,96.2c.32,2.3.23,2.26,2.52,2.09q8.13-.6,16.25-1.31c7.32-.65,14.64-1.36,22-2,1.24-.11,1.32-.09,1.58-1.31a3.3,3.3,0,0,1,2.93-2.76,14.8,14.8,0,0,1,4-.11,2.48,2.48,0,0,1,2.48,2.47c0,.66.49.73,1,.68l4.78-.4c2.55-.21,5.1-.39,7.64-.63,4.38-.4,8.75-.84,13.12-1.29,3-.31,6-.65,9.06-1a.94.94,0,0,0,1-.86,2.64,2.64,0,0,1,1.35-2.15,5.43,5.43,0,0,1,3.46-.68,2.15,2.15,0,0,1,2.06,1.71C102.86,89.19,103.1,89.51,103.73,89.36ZM42.27,129.94a19.3,19.3,0,0,1-.36-2.32,1.91,1.91,0,0,1,1.55-1.88,3.35,3.35,0,0,1,3.82,1.79,4.43,4.43,0,0,1,.38,1.13c.12.59.43.77,1,.7L61.07,128c.85-.09,1-.14,1-1a3.4,3.4,0,0,1,2.52-3.15,5.76,5.76,0,0,1,4-.15A2.49,2.49,0,0,1,70.67,126c0,.86.34.89,1.09.8,5.95-.74,11.91-1.4,17.84-2.23,3.48-.48,6.92-1.22,10.38-1.86.51-.1.9-.33.71-1a2.42,2.42,0,0,1,.56-2.24,5.87,5.87,0,0,1,5.26-2.33,2.49,2.49,0,0,1,2.59,2.06c.12.61.45.83,1,.65,2.72-.9,5.57-1.44,8.11-2.86a2.69,2.69,0,0,0,1.51-2c.89-4.3,1.83-8.59,2.75-12.89a2.77,2.77,0,0,0,.06-1,.62.62,0,0,0-.47-.37,2.72,2.72,0,0,0-.91.27,37.29,37.29,0,0,1-9.68,2.61c-7.75,1.18-15.47,2.43-23.22,3.59C84.15,108,80,108.45,75.9,109l-12.12,1.6c-5.38.72-10.76,1.47-16.15,2.17-4.59.59-9.19,1.17-13.8,1.67q-6.55.72-13.12,1.22c-3,.23-6.07.26-9.1.4a.77.77,0,0,0-.83.91,13.58,13.58,0,0,0,.15,1.43c.55,3.07,1.1,6.13,1.66,9.2.21,1.18.44,2.36.65,3.54a.91.91,0,0,0,1,.81c1,0,1.92,0,2.87,0,2.56-.13,5.11-.28,7.66-.43.38,0,.74-.1,1.22-.16-.22-.49-.42-.83-.55-1.2a1.86,1.86,0,0,1,1-2.36,2.81,2.81,0,0,1,2.72.45,1.65,1.65,0,0,1,.69,2.09c-.21.58.08.74.53.72C34.34,130.84,38.22,130.38,42.27,129.94Zm52.1,10.21,1.32-.31c5.12-1.28,10.06-3.14,15-4.9a20,20,0,0,0,2.84-1.27,5,5,0,0,0,2.77-3.64c.62-3.21,1.44-6.39,2.17-9.58a3,3,0,0,0,.13-.93.59.59,0,0,0-.46-.36,7.87,7.87,0,0,0-1.14.35c-4.2,1.29-8.37,2.68-12.61,3.83A130.29,130.29,0,0,1,87,126.63c-8.15,1.09-16.34,2-24.52,2.88-6.9.76-13.82,1.42-20.74,2.13-8.5.89-17,1.68-25.58,1.82-.48,0-1,0-1.43,0-.82.06-1,.28-.86,1.05q.7,3.65,1.45,7.28c.5,2.43,1,4.85,1.56,7.26.21,1,.35,1,1.3,1.08,4.41.16,8.78-.37,13.17-.64a.94.94,0,0,0,1-.83,2.56,2.56,0,0,1,2.06-2.1,8.86,8.86,0,0,1,2.35-.3c1,0,1.89.4,2,1.63.05.63.44.77,1,.73l.72-.07,15.71-1.88c1.34-.17,2.69-.34,4-.53a.71.71,0,0,0,.65-.81c0-2,.61-2.77,2.46-3.17a6.36,6.36,0,0,1,1.9-.12c1.51.1,2,.53,2.28,2.19.12.66.48.75,1,.69,1.27-.16,2.54-.31,3.8-.53L86.21,142c.84-.15,1.27-.48,1.22-1.41a2,2,0,0,1,1.26-1.89,8.29,8.29,0,0,1,2.24-.78,4.07,4.07,0,0,1,1.86.18c.67.19.93.8,1.09,1.46C93.94,139.78,94.22,140,94.37,140.15ZM82.13,106.53c4-.54,7.92-1,11.87-1.64,5.85-.89,11.68-1.86,17.52-2.77A38.75,38.75,0,0,0,122.05,99a2.2,2.2,0,0,0,1.43-1.74c.52-2.91,1.06-5.82,1.64-8.71.2-1,.13-1.37-1-1.12-2.66.56-5.31,1.14-8,1.63-7,1.29-14,2.32-21.1,3.16-3.33.39-6.67.73-10,1.07-4.06.42-8.11.87-12.17,1.22-4.77.42-9.56.76-14.34,1.14q-3.23.25-6.45.55L38.68,97.46c-4,.38-8,.77-11.94,1.13-2.94.28-5.88.56-8.83.77s-5.91.33-8.86.5c-.72,0-.87.19-.82.85,0,.31.07.63.12,1q.76,5.2,1.54,10.43c.34,2.27.35,2.34,2.73,2.25,3.92-.14,7.83-.29,11.73-.62,5.34-.46,10.66-1,16-1.66,4.6-.53,9.19-1.16,13.79-1.76,1.74-.23,3.48-.48,5.22-.76,1-.16,1-.19,1.2-1.31a1.86,1.86,0,0,1,.72-1.44A3.39,3.39,0,0,1,64,106.5,1.72,1.72,0,0,1,65.45,108c.08.46.28.72.79.66,2.77-.37,5.54-.76,8.31-1.1.69-.09.83-.47,1-1.07a3.45,3.45,0,0,1,4.61-1.6,1.26,1.26,0,0,1,.59.71A1,1,0,0,0,82.13,106.53ZM5,73.16H5c.21,2.31.4,4.62.63,6.93.12,1.21.3,1.38,1.47,1.39.95,0,1.91,0,2.87-.08,2.48-.12,5-.24,7.43-.39,3-.19,6.06-.42,9.09-.64.83-.06,1.46-.24,1.73-1.27s1.31-1.34,2.32-1.38A1.88,1.88,0,0,1,32.6,79c.23.67.73.76,1.33.71,3.19-.27,6.37-.52,9.56-.8,1.59-.14,3.18-.31,4.77-.49.67-.07,1.21-.3,1.35-1.11A1.8,1.8,0,0,1,50.87,76a6.53,6.53,0,0,1,4.23-.33c.48.15.95.35,1.07.85.17.79.53,1,1.34.87,6.19-.76,12.39-1.46,18.58-2.21,2.85-.34,5.7-.78,8.55-1.13.84-.11,1.49-.27,1.86-1.19a2.38,2.38,0,0,1,1.2-1.09,8,8,0,0,1,3.74-.69,1.84,1.84,0,0,1,1.78,1c.31.79.85.8,1.53.73,4-.45,7.94-.92,11.92-1.31,6-.59,11.94-1.09,17.74-2.78,1.07-.31,2.19-.47,3.28-.7a1.2,1.2,0,0,0,1.07-1.11c.32-2.46.66-4.92,1-7.38.08-.62-.21-.92-.81-.86-1.11.09-2.22.28-3.34.35q-8.37.55-16.75,1a2.12,2.12,0,0,0-1.94,1c-1.15,1.72-4.06,1.94-5.17.35a2,2,0,0,0-1.95-1c-3,.12-5.91.22-8.87.35-4.07.18-8.14.4-12.22.58-.7,0-1.19.16-1.42.95a2.8,2.8,0,0,1-2.32,1.87,10.33,10.33,0,0,1-2.61.16,1.82,1.82,0,0,1-1.89-1.54c-.14-.88-.66-1-1.35-.92q-4.67.33-9.33.69c-1.67.13-3.34.29-5,.44-.83.08-1.54.27-1.69,1.32a2.16,2.16,0,0,1-.83,1.13A6.09,6.09,0,0,1,47,66.75a2,2,0,0,1-1.55-1.34c-.5-1.17-.53-1.21-1.64-1.09-3.1.34-6.2.64-9.28,1.09-9.41,1.39-18.81,2.84-28.22,4.27-1.49.22-1.8.49-1.46,2A9.62,9.62,0,0,1,5,73.16Zm-.43-4.81c1-.12,1.72-.18,2.43-.29,6.31-1,12.62-2.07,19-3C33.87,64,41.78,62.85,49.72,62c7.15-.8,14.33-1.37,21.5-1.88,6.3-.44,12.61-.72,18.92-1,8.07-.29,16.15-.46,24.2-1.08,4.94-.37,9.88-.7,14.83-1a.92.92,0,0,0,1-.88c.22-2.47.44-4.94.6-7.41.05-.81-.27-1.09-1.16-1.22a59.45,59.45,0,0,0-9.33-.52,1.1,1.1,0,0,0-1.15.67c-.64,1.44-1.94,1.48-3.26,1.4a1.7,1.7,0,0,1-1.77-1.34,1.12,1.12,0,0,0-1.31-1.05c-.56,0-1.12,0-1.68,0-5.43.07-10.87.11-16.31.23s-10.87.31-16.3.48c-2.64.09-5.28.21-7.91.33a1.27,1.27,0,0,0-1.32.81A2.55,2.55,0,0,1,66.68,50c-1.14.06-2.27,0-2.89-1.21-.25-.52-.69-.57-1.2-.52-1.76.15-3.52.23-5.26.43-4.93.54-9.85,1.09-14.77,1.72-5.15.65-10.3,1.34-15.44,2.12Q17.42,54,7.73,55.68c-3.58.63-3.05-.11-3.62,4a3.37,3.37,0,0,0,0,.71C4.25,63,4.41,65.53,4.58,68.35ZM27.7,193.12c.21.88.36,1.65.58,2.4q1.62,5.65,3.26,11.28c.4,1.38.88,2.74,1.3,4.12a1,1,0,0,0,1,.77c1.35-.05,2.72-.06,4.06-.22,7.06-.84,14.1-1.78,21.07-3.21a144.68,144.68,0,0,0,31-9.74c2.69-1.21,5.27-2.67,7.91-4a3.42,3.42,0,0,0,1.82-2.36c1.3-4.62,2.65-9.21,4-13.82.06-.2-.06-.44-.12-.77-.51.2-1,.34-1.37.55a105.33,105.33,0,0,1-21.65,7.64,257.56,257.56,0,0,1-31.06,5.87A156.92,156.92,0,0,1,29,193C28.61,193,28.22,193.08,27.7,193.12ZM5.44,54.39a3.82,3.82,0,0,0,.68,0c3.07-.54,6.13-1.14,9.2-1.63,6.63-1,13.26-2.1,19.91-3,7.12-1,14.25-1.94,21.41-2.63,7-.67,14-1,21-1.42,5.1-.28,10.22-.37,15.34-.5a344.35,344.35,0,0,1,36.91.68c.58.05.88-.24.83-.86a10.54,10.54,0,0,0-1.88-5.6A6.38,6.38,0,0,0,125.68,37c-1.06-.34-2.13-.66-3.22-.94-.72-.18-.88,0-1.14.75-.45,1.35-.9,1.7-2.21,1.68a5.72,5.72,0,0,1-3.56-1.23c-.42-.33-1-.81-1-1.28-.15-1.16-.8-1.37-1.79-1.41-1.36,0-2.71-.26-4.06-.34-1.76-.1-3.52-.16-5.27-.21-.75,0-.83.11-1,1-.24,1.56-.75,2.17-2.16,2.43a7.4,7.4,0,0,1-4-.31,3.35,3.35,0,0,1-2.51-2.63.87.87,0,0,0-1-.8c-3.28,0-6.56,0-9.84.08-.94,0-1.1.16-.93,1.15a2.68,2.68,0,0,1-1.44,3,7,7,0,0,1-6.46.36,2.39,2.39,0,0,1-1.49-2.72c0-.43.47-.88,0-1.3-3.79-.08-12.09.63-13.72,1.16.17,2.26-.25,3.06-2.25,3.89a15,15,0,0,1-7.77,1,5.17,5.17,0,0,1-1.37-.42,2.74,2.74,0,0,1-1.64-1.93c-.37-1.39-.39-1.38-1.6-1.2-.63.09-1.27.14-1.9.25L34.11,38.4c-.45.08-.73.32-.7.8a2.62,2.62,0,0,1-1,2.31,4.8,4.8,0,0,1-2.57,1.18A2.45,2.45,0,0,1,27,41c-.46-1.14-.47-1.17-1.44-.92-2,.52-4,1.08-6,1.63a1.13,1.13,0,0,0-1,1.17,2.41,2.41,0,0,1-1.41,2.09,4.29,4.29,0,0,1-4.09.59,1.14,1.14,0,0,0-1.32.19c-1.15,1-2.35,1.92-3.43,3A11.69,11.69,0,0,0,5.44,54.39ZM112.1,147.2c-.95.39-1.47.58-2,.82A44.57,44.57,0,0,1,102.3,151c-5.7,1.53-11.4,3.11-17.14,4.5-4.66,1.12-9.37,2-14.06,2.95-1,.2-1.69.39-2.11,1.56a3.66,3.66,0,0,1-4.62,1.92,2.28,2.28,0,0,1-1.26-1c-.44-1-1.08-.89-1.94-.77q-6.77.91-13.55,1.71c-3.41.4-6.83.73-10.25,1.06-4.61.46-9.22.89-13.83,1.33-.56.06-1.12.09-1.67.16-1.46.19-1.52.26-1.2,1.62.66,2.72,1.39,5.42,2,8.15s.74,2.42,3.15,2.43c5.36,0,10.68-.62,16-1.12,6.75-.64,13.48-1.59,20.18-2.67A260.3,260.3,0,0,0,92.36,166a89.5,89.5,0,0,0,14.71-5.74,4.05,4.05,0,0,0,2.31-2.58C110.27,154.34,111.11,151,112.1,147.2ZM98.47,196.44a4.65,4.65,0,0,0-.77.16,127.83,127.83,0,0,1-19.39,8.27c-.92.31-2,.45-1.45,1.88.08.24-.13.62-.29.89-1.17,2-4.74,2.39-6.19.56a1.26,1.26,0,0,0-1.58-.53,167.77,167.77,0,0,1-17.59,3.62c-1,.14-1.61.5-1.6,1.63a1.7,1.7,0,0,1-.55,1,3.37,3.37,0,0,1-5.44-.61,1.23,1.23,0,0,0-1.32-.73c-2.54.22-5.09.42-7.64.63a.85.85,0,0,0-.45.14c-.16.14-.37.36-.37.54a4.7,4.7,0,0,0,.24,1.16c1.82,5.54,3.62,11.09,5.49,16.61,1,2.94.48,2.62,3.66,2,.85-.16,1.14-.49,1.23-1.4.16-1.57,1.35-2.52,3.16-2.72a5.24,5.24,0,0,1,1.88.21,1.76,1.76,0,0,1,1.18,1.4c.13.52.52.52.94.44l.46-.12c8.05-2.07,16-4.37,23.87-7.15a55.9,55.9,0,0,0,9.19-4.08c.84-.48.86-.5.46-1.44a2.94,2.94,0,0,1-.3-1.86,3.8,3.8,0,0,1,3-2.84c1.41-.39,2.71-.25,3.56,1.18.09.14.29.23.58.45C94.54,209.36,96.48,203,98.47,196.44ZM30.82,178.21c0,.27-.08.57-.1.87-.12,1.76-2.62,2.85-4.35,2.12A2,2,0,0,1,25,179.65c-.08-.39,0-.81-.14-1.18,0-.14-.4-.28-.58-.25s-.33.27-.43.45a.77.77,0,0,0,0,.47c1,3.7,2,7.41,3,11.11.3,1.11.45,1.17,1.71,1.21a129.91,129.91,0,0,0,14.36-.72c2.39-.19,4.76-.52,7.14-.78a1.2,1.2,0,0,0,1.06-.79,4,4,0,0,1,4-2.44c.75.06,1.53.3,1.73,1.07.26.93.7,1.13,1.57.91.69-.17,1.43-.18,2.13-.32,4.7-.94,9.41-1.85,14.09-2.85,2.65-.56,5.28-1.28,7.91-1.94a1.52,1.52,0,0,0,1.27-1.23c.32-1.47,1.61-1.86,2.86-2.22a1.59,1.59,0,0,1,1.94.53c.57,1,1.25.77,2,.5a110.09,110.09,0,0,0,12.57-5.32,2.51,2.51,0,0,0,1.44-1.5c.2-.6.52-1.16.7-1.76.42-1.38.84-2.75,1.16-4.15.5-2.16,1.46-4.21,1.51-6.47,0,0-.12-.15-.15-.14l-6.12,2.66c-.14.06-.23.21-.35.32.6,2,.24,3-1.39,4a5,5,0,0,1-3.69.64,2,2,0,0,1-1.47-1.1c-.2-.4,0-1.09-.59-1.17a4.09,4.09,0,0,0-1.38.28l-.93.25a212.87,212.87,0,0,1-23.76,5.6,2.66,2.66,0,0,0-.92.25,1,1,0,0,0-.46.69c.12,1.83-1,2.82-2.45,3.44a8.15,8.15,0,0,1-2.32.44,2.73,2.73,0,0,1-2.22-.69,2.66,2.66,0,0,1-.6-2c0-.13-.15-.26-.2-.35Zm84.06-43.14a6.87,6.87,0,0,0-.8.22,130.55,130.55,0,0,1-15.35,5.4,134,134,0,0,1-15,3.37c-4.64.8-9.28,1.67-13.93,2.37-5.37.82-10.76,1.52-16.14,2.22-3.33.43-6.66.8-10,1.17s-6.67.71-10,1.08a124,124,0,0,1-12.91.83c-.72,0-1.44,0-2.16,0-1,0-1.17.25-1,1.15.63,2.88,1.29,5.76,1.94,8.65.05.23.15.45.21.68a.89.89,0,0,0,1.06.73c1.51-.14,3-.26,4.53-.41,7-.73,14-1.53,21-2.19,6.61-.61,13.17-1.55,19.7-2.66a324.91,324.91,0,0,0,35-8.06,55.72,55.72,0,0,0,10.46-4.11,2.49,2.49,0,0,0,1.43-1.78c.58-2.49,1.23-5,1.83-7.44A9,9,0,0,0,114.88,135.07ZM85.62,235.75l-1.84,1.36A69.08,69.08,0,0,1,64.4,247.46a139.65,139.65,0,0,1-15,4.17c-.69.15-1.35.38-2.1.59.12.43.17.74.28,1,.71,1.78,1.41,3.57,2.15,5.33,3.09,7.38,6.35,14.68,10.11,21.75A10.3,10.3,0,0,0,61,282.16a2.09,2.09,0,0,0,3,.41,5.5,5.5,0,0,0,1.37-1.31,30.82,30.82,0,0,0,2.54-3.78c2-3.66,4-7.31,5.69-11.09,4.35-9.53,8.12-19.3,11.62-29.17C85.28,236.87,85.38,236.51,85.62,235.75Zm6-17.37c-1,.59-1.58.88-2.11,1.22a53.33,53.33,0,0,1-11.55,5.78c-3.77,1.31-7.55,2.62-11.37,3.78a245.37,245.37,0,0,1-23.87,6.22,13.36,13.36,0,0,0-1.56.49,6.18,6.18,0,0,0,.17.81Q43.64,243,46,249.26c.08.23.2.44.29.66a.83.83,0,0,0,.94.57,7.76,7.76,0,0,0,1.17-.21c3.17-.82,6.35-1.6,9.5-2.5a72.63,72.63,0,0,0,13-4.75c.41-.21.79-.48,1.22-.74-.19-.31-.33-.49-.43-.69a2.2,2.2,0,0,1,1-3.37,3.88,3.88,0,0,1,2.58-.25c.91.18,1.18,1,1.62,1.69a8.3,8.3,0,0,0,.86-.38,65.11,65.11,0,0,0,8.3-6.1,3.62,3.62,0,0,0,1.15-1.77c.63-1.9,1.3-3.78,1.94-5.67C89.9,223.49,90.65,221.22,91.6,218.38ZM22,36.23c.17.08.32.2.45.19a11.2,11.2,0,0,0,1.41-.23c5.44-1.31,10.94-2.3,16.47-3.09,6.17-.88,12.35-1.65,18.57-2.06,6.54-.44,13.07-1,19.61-1.23,11.74-.34,23.49-.46,35.21.78a4.05,4.05,0,0,0,.77-.09,2.59,2.59,0,0,0-1.66-2.15,24.46,24.46,0,0,0-5.38-2A68,68,0,0,0,93,24.59c-9-.23-17.89-.32-26.84.26-4.23.27-8.45.6-12.63,1.24-5.29.8-10.55,1.79-15.8,2.79A41.8,41.8,0,0,0,27.19,32a33.37,33.37,0,0,0-3.53,2A3.16,3.16,0,0,0,22,36.23Zm16.68-11.9c5.15-.83,10.08-1.64,15-2.4A134.7,134.7,0,0,1,69,20.56c5-.2,10.06-.46,15.1-.33s10.18.32,15.52.49a6.14,6.14,0,0,0-.72-.85,7.61,7.61,0,0,0-3.72-1.56,87.55,87.55,0,0,0-11-1c-4.16,0-8.32-.06-12.47.1-3.19.11-6.37.56-9.55.78a89.44,89.44,0,0,0-13.73,2.09,65.89,65.89,0,0,0-6.43,1.92A6.21,6.21,0,0,0,38.72,24.33Zm109.91,96.08h.9c.87,0,1.13-.2,1.27-1.07.52-3.47,1-6.93,1.51-10.4.23-1.66.41-3.33.59-5a.92.92,0,0,0-.73-1.07c-1.16-.31-2.31-.6-3.47-.88-.5-.13-.72.19-.84.61a5.73,5.73,0,0,0-.13.7q-1,7.47-1.94,14.93,0,.36-.06.72a.87.87,0,0,0,.73,1.05C147.31,120.18,148.17,120.33,148.63,120.41Zm6.21-33.26c0-2.37,0-2.37-2.3-3-.62-.16-1.23-.34-1.85-.49s-.87.09-1,.71c0,.16-.05.32-.06.48q-.53,5.48-1.06,11c-.1,1.11-.26,2.22-.38,3.33-.09.86.09,1.15.94,1.39s1.85.48,2.78.67,1.32.06,1.44-1C153.88,95.87,154.35,91.51,154.84,87.15Zm-4.55,35c-1.51-.22-2.91-.46-4.32-.63-.49,0-.66.35-.73.77l-2.16,14.42c0,.08-.06.18,0,.23.13.27.22.66.44.76a16.22,16.22,0,0,0,3.89,1.34C148.5,133.41,149.44,127.85,150.29,122.16Zm.57-54.7c-.1,1-.2,1.73-.24,2.52-.18,3-.34,6.06-.51,9.08,0,.64-.06,1.28-.08,1.92a1,1,0,0,0,.72,1.09c1.15.3,2.3.62,3.47.88.55.13.9-.17.93-.79.18-4.15.36-8.3.49-12.45,0-1-.18-1.17-1.23-1.41Zm-10.49,85.65c-.05,1,.13,1.31,1,1.56a18.26,18.26,0,0,0,2.33.52.69.69,0,0,0,.55-.32,6.37,6.37,0,0,0,.41-1.37c.61-3.05,1.26-6.1,1.79-9.17.2-1.16.71-2.29.46-3.51l-3.29-1.37a.88.88,0,0,0-.23-.07.57.57,0,0,0-.72.43,4.86,4.86,0,0,0-.23.93c-.49,2.91-1,5.83-1.46,8.74C140.74,150.74,140.54,152,140.37,153.11Zm15.21-88.18c-.12-1.47-.24-3-.36-4.49a30,30,0,0,0-1.45-6.75,6.3,6.3,0,0,0-1.83-2.75,5.79,5.79,0,0,0-1.41-.86.57.57,0,0,0-.81.69,28.94,28.94,0,0,1,.86,6.14c.08,2.39.23,4.77.26,7.16a2.05,2.05,0,0,0,1.51,2.15,10.8,10.8,0,0,0,1.37.41C155.4,67,155.64,66.74,155.58,64.93ZM53,15c.69-.05,1.13-.07,1.57-.12s1.11-.11,1.67-.19.94-.18,1.42-.24,1.11-.1,1.66-.15l1.43-.16c.56-.06,1.11-.13,1.67-.18s1-.06,1.44-.08,1.11,0,1.67-.1,1-.09,1.43-.14l1.67-.17c.47,0,1-.07,1.43-.09l1.44-.07,1.67-.08,1.44-.08,1.67,0,1.44,0,1.68,0h1.44c.56,0,1.11,0,1.67,0L84,13.1c.56,0,1.11.12,1.67.12.41,0,.92.26,1.27-.35a4.68,4.68,0,0,0-3-1.34,16,16,0,0,0-2.39-.15c-4.71,0-9.42.09-14.13.22a59.16,59.16,0,0,0-6,.53,48.84,48.84,0,0,0-4.95.88A5.85,5.85,0,0,0,53,15Zm90.64,143.11c.1-.94-.09-1.26-.77-1.45a20.74,20.74,0,0,0-2.33-.55c-.22,0-.54.22-.72.42a1.34,1.34,0,0,0-.23.67q-1,5.53-2,11.07a.85.85,0,0,0,.62,1.11c.69.2,1.37.4,2.07.56a.71.71,0,0,0,.89-.59c.29-1.16.54-2.33.8-3.5C142.58,163.18,143.15,160.53,143.68,158.09Zm-3.17,14.46a.85.85,0,0,0-.66-1.1c-.53-.18-1.06-.35-1.6-.49-.76-.2-1.06-.05-1.21.7-.56,2.81-1,5.65-1.67,8.45-.33,1.5.06,1.7,1.18,2.13.22.08.46.12.69.18.62.16.95,0,1.09-.55C139.07,178.77,139.79,175.66,140.51,172.55Zm-6.11,24.51c.24-.77.49-1.44.66-2.12.71-2.79,1.41-5.57,2.1-8.36.62-2.51.62-2.51-2-3.13-.07,0-.15,0-.34.07-.17.63-.4,1.3-.54,2-.56,2.73-1.1,5.47-1.65,8.21-.11.54-.25,1.09-.35,1.64a.87.87,0,0,0,.47,1C133.26,196.6,133.78,196.8,134.4,197.06Zm-2.47.76c-.16.49-.32.86-.4,1.24q-1.31,5.85-2.57,11.71a1.65,1.65,0,0,0,0,.93,1.38,1.38,0,0,0,.68.57.53.53,0,0,0,.77-.33,8.57,8.57,0,0,0,.33-.89l3-10.87c.06-.23.12-.47.2-.69a.88.88,0,0,0-.58-1.15C132.89,198.14,132.45,198,131.93,197.82ZM50.32,38.89c.85,0,1.17,0,1.49-.08a11.28,11.28,0,0,0,5-1.43c.51-.33.51-.75,0-1.14a2.58,2.58,0,0,0-2-.71c-2,.21-4,.38-5.93.61a2.45,2.45,0,0,0-1,.51,1,1,0,0,0,.18,1.72A16,16,0,0,0,50.32,38.89ZM77.55,34c-.48,0-1,0-1.43.08a2.42,2.42,0,0,0-1.73,1.14,1.06,1.06,0,0,0,.37,1.62,5,5,0,0,0,5.18-.46,1,1,0,0,0,.17-1.48A2.62,2.62,0,0,0,77.55,34ZM53.45,94.48a11.16,11.16,0,0,0,2-.18,6.62,6.62,0,0,0,1.69-.78.74.74,0,0,0,.31-.58.76.76,0,0,0-.46-.47,6.28,6.28,0,0,0-4.63.21A1.12,1.12,0,0,0,51.59,94c.23.56.77.44,1.22.48ZM104,121.79a11.27,11.27,0,0,0,2.07-.62,3.43,3.43,0,0,0,1.09-1.2.71.71,0,0,0-.54-1.07,4.11,4.11,0,0,0-4.19,1.64.64.64,0,0,0,.41,1.07C103.16,121.67,103.48,121.71,104,121.79ZM99.11,36a4.37,4.37,0,0,0,1-.16,1.27,1.27,0,0,0,.61-.62c.06-.14-.12-.47-.29-.6C99,33.45,97.34,33.58,95.69,34c-.34.08-.37.73-.08,1A4.81,4.81,0,0,0,99.11,36Zm-33.29,91.6a11.72,11.72,0,0,0,2.12-.55,2.46,2.46,0,0,0,.87-1.07c.15-.27-.4-.64-1-.81a4.29,4.29,0,0,0-2.81.22,4,4,0,0,0-1.12.86.53.53,0,0,0,.14.81C64.61,127.27,65.23,127.43,65.82,127.61Zm-3.85,49a3.44,3.44,0,0,0,2.81-1.16.74.74,0,0,0,.18-.64,1.36,1.36,0,0,0-.66-.57,2.4,2.4,0,0,0-.93-.05A3,3,0,0,0,61,175.6a.63.63,0,0,0,.34.94Zm28.22,39.41c-.14-.12-.28-.36-.48-.4A2.54,2.54,0,0,0,87,217,.8.8,0,0,0,87,218a1.43,1.43,0,0,0,1,.32,3.21,3.21,0,0,0,2.12-2C90.22,216.28,90.19,216.2,90.19,216.06ZM64.86,143.48c-.66.2-1.41.37-2.13.64-.45.17-.44.86-.07,1.19a1.42,1.42,0,0,0,1.75.2,4.18,4.18,0,0,0,1-.95.67.67,0,0,0,.13-.6C65.47,143.78,65.2,143.7,64.86,143.48ZM48,65.34a4.23,4.23,0,0,0,2.92-.89.77.77,0,0,0,.11-.59c0-.12-.23-.3-.33-.28-1,.14-2,.29-3,.49a.8.8,0,0,0-.43.51.63.63,0,0,0,.12.57A1.36,1.36,0,0,0,48,65.34ZM99,166c-.27,0-.5,0-.74,0a2.27,2.27,0,0,0-1.92,1.46c0,.08,0,.2,0,.23a2,2,0,0,0,2.22,0,4.82,4.82,0,0,0,1.24-1c.06-.07-.06-.44-.19-.54A1.72,1.72,0,0,0,99,166ZM31.73,39.44a1.62,1.62,0,0,0-.53-.34,2.43,2.43,0,0,0-2.41.59,1.07,1.07,0,0,0-.2.85.78.78,0,0,0,.9.6,2.68,2.68,0,0,0,2-1.09A2.86,2.86,0,0,0,31.73,39.44Zm67,50.74c.48-.17,1.22-.39,1.93-.68a.66.66,0,0,0,.23-.58.68.68,0,0,0-.46-.43,3.13,3.13,0,0,0-2.46.55.65.65,0,0,0-.22.58c0,.18.29.32.46.46A2.41,2.41,0,0,0,98.69,90.18Zm20.07-53.13a2.84,2.84,0,0,0,.77-.48c.07-.09-.1-.44-.24-.61a2.37,2.37,0,0,0-2.32-.77.69.69,0,0,0-.45.46.68.68,0,0,0,.29.57C117.43,36.53,118.08,36.77,118.76,37.05Zm-46,170.79a2.55,2.55,0,0,0,2.2-.76.71.71,0,0,0,.07-.63c-.08-.16-.39-.36-.53-.32-.75.18-1.48.44-2.22.68a.42.42,0,0,0-.18.14.84.84,0,0,0-.16.4.48.48,0,0,0,.24.33A2.45,2.45,0,0,0,72.73,207.84ZM45.21,129.28a.74.74,0,0,0,.56-1.07,1.85,1.85,0,0,0-1.58-.92.81.81,0,0,0-.61.27.82.82,0,0,0,0,.67A1.59,1.59,0,0,0,45.21,129.28Zm44.45,11.81c.8,0,1.53,0,2-.68a.9.9,0,0,0,.16-.63.64.64,0,0,0-.51-.34,9.11,9.11,0,0,0-1.79.57c-.2.1-.31.5-.35.78C89.16,140.87,89.52,141,89.66,141.09ZM73.25,62.92a11.09,11.09,0,0,0,1.43-.27c.22-.07.36-.4.54-.62-.18-.14-.34-.36-.55-.41a2.64,2.64,0,0,0-2.07.27.7.7,0,0,0-.28.57c0,.16.3.27.48.39A1.69,1.69,0,0,0,73.25,62.92ZM46,213.49a2.07,2.07,0,0,0,1.78-.6.53.53,0,0,0,.11-.42.46.46,0,0,0-.27-.33,2.47,2.47,0,0,0-2.22.34.56.56,0,0,0-.21.39.63.63,0,0,0,.24.38A3.2,3.2,0,0,0,46,213.49ZM34.85,149.17c.66-.08,1.4.05,1.92-.56a.6.6,0,0,0,.15-.41.43.43,0,0,0-.27-.3,2.64,2.64,0,0,0-2.38.57c-.08.07-.06.28-.05.41s.1.13.17.15A4.21,4.21,0,0,0,34.85,149.17Zm-5.93,29.94c-.05-.15-.07-.38-.15-.4a11.68,11.68,0,0,0-1.77-.3c-.28,0-.57.74-.34,1a1.73,1.73,0,0,0,1,.48A1.2,1.2,0,0,0,28.92,179.11Zm19.21,52.08a7.51,7.51,0,0,0-.86.11c-.75.18-1.15.53-1.1,1a.37.37,0,0,0,.09.2,1.17,1.17,0,0,0,1.49.07,3.08,3.08,0,0,0,.68-.62.5.5,0,0,0,.11-.42C48.5,231.38,48.31,231.32,48.13,231.19Zm19.06-71.55c-.07-.09-.16-.28-.23-.27-.69,0-1.38.13-2.06.24-.12,0-.31.25-.29.32s.2.46.36.52a2.09,2.09,0,0,0,2.14-.58S67.16,159.74,67.19,159.64Zm-14.3,29.61c0,.05.06.14.1.15a2.32,2.32,0,0,0,2.18-.54.22.22,0,0,0,0-.21c-.08-.11-.19-.29-.3-.3A2.37,2.37,0,0,0,53,189C52.91,189.08,52.91,189.18,52.89,189.25ZM74.78,239.8c-.12-.09-.28-.32-.42-.31a3.38,3.38,0,0,0-1.13.26c-.16.07-.38.45-.32.54a1.09,1.09,0,0,0,.65.55C74.15,240.92,74.53,240.57,74.78,239.8ZM88.09,73.29A6.37,6.37,0,0,0,91,73.2a.42.42,0,0,0,.22-.33.46.46,0,0,0-.33-.24A6.16,6.16,0,0,0,88.09,73.29ZM74.5,7.06V6.94H71.41v.12ZM54,77.43c-1.66-.37-3.1-.06-2.51.35C52.33,78.36,53.06,77.84,54,77.43Zm24.84,29.2c-.14-.24-.23-.47-.27-.46a9.12,9.12,0,0,0-1,.32s-.08.2-.07.21c.2.09.41.25.6.23A3.52,3.52,0,0,0,78.84,106.63ZM67,7.33v.1h1.39V7.26ZM86.79,182.27a1.19,1.19,0,0,0-.07-.27,1.84,1.84,0,0,0-.66,0c-.19.08-.33.3-.48.47,0,0,.11.17.14.16C86.08,182.52,86.44,182.39,86.79,182.27ZM15.94,43.19c-.26.16-.58.36-.89.57-.05,0-.1.14-.08.17s.13.14.18.13a9.52,9.52,0,0,0,1-.41c.06,0,.06-.22.05-.34S16.12,43.26,15.94,43.19Zm12,86.54c-.1-.2-.16-.43-.23-.43a2.15,2.15,0,0,0-.56.12c.06.13.11.34.2.37A1.82,1.82,0,0,0,28,129.73ZM66.3,48.43c.23,0,.39,0,.54-.06a.82.82,0,0,0,.2-.12s-.06-.13-.11-.15a1.15,1.15,0,0,0-.44-.09,3.84,3.84,0,0,0-.67.16Zm37.59,12.45a3.55,3.55,0,0,0,.47-.06.62.62,0,0,0,.19-.14c-.1-.09-.2-.26-.29-.26a7,7,0,0,0-.89.17s0,.14.08.16A3.19,3.19,0,0,0,103.89,60.88ZM30.33,79.28l-.28.51c.13.07.32.22.39.18a2.34,2.34,0,0,0,.37-.45Zm86.16-32.35-.42.36c.13.07.28.21.38.19a1.58,1.58,0,0,0,.49-.3ZM63.42,108c-.41,0-.67,0-.94.09-.06,0-.11.1-.16.16a7.1,7.1,0,0,0,.79.22S63.24,108.25,63.42,108Z"/></g></g></svg>