<svg xmlns="http://www.w3.org/2000/svg" viewBox="0 0 253.26 211.97"><title>Neomphaliones</title><g id="Layer_2" data-name="Layer 2"><g id="Inserted_Image_Image" data-name="Inserted Image Image"><path d="M121.94,0a108.57,108.57,0,0,1,27.21,3.38,95.52,95.52,0,0,1,9.74,3.32A131.2,131.2,0,0,1,198,29.64a156.37,156.37,0,0,1,47.2,67.67,134.67,134.67,0,0,1,7,28.6,118.82,118.82,0,0,1,1,20.82,95.86,95.86,0,0,1-1.39,13.11,18.7,18.7,0,0,1-5.9,10.22,7.23,7.23,0,0,1-4.84,1.82,22.36,22.36,0,0,1-11.63-2.25c-4.54-2.38-9-4.79-13.57-7.18a5.54,5.54,0,0,0-.62-.36c-.57-.24-1.09-1-1.71-.61-.82.48-.58,1.45-.41,2.18a15.15,15.15,0,0,0,1,2.93c.56,1.24,1.28,2.41,1.85,3.64a13.33,13.33,0,0,1,1,2.69c.56,2.59-1.22,4.38-3.86,4a12,12,0,0,1-1.85-.5c-.6-.19-1.19-.46-1.79-.67-1.12-.4-1.4-.31-1.77.83-.51,1.6-.94,3.22-1.41,4.83-.29,1-.56,2-.9,3a8.84,8.84,0,0,1-.9,2,3,3,0,0,1-4.89.78c-.55-.45-1-1-1.58-1.46a3.29,3.29,0,0,0-4-.68,14.51,14.51,0,0,0-4.88,2.94,4.8,4.8,0,0,1-3.69,1.47H184a1.29,1.29,0,0,0-1.19.67c-.34.55-.61,1.13-1,1.67a15.65,15.65,0,0,1-1.4,1.94,4.15,4.15,0,0,1-3.9,1.34,5.71,5.71,0,0,1-1.17-.28,2.61,2.61,0,0,0-3.19.92,12.13,12.13,0,0,1-1.55,1.49c-1.72,1.39-3.67,2.12-5.81,1.31s-3.67-.24-5.39.84a26.66,26.66,0,0,1-4.31,2.06,4.25,4.25,0,0,1-4.82-1.19,8.46,8.46,0,0,1-.8-.89,3.69,3.69,0,0,0-3.63-1.38,7.21,7.21,0,0,0-1.85.42c-1.19.48-2.36,1-3.49,1.59-2.21,1.12-4.37,2.36-6.61,3.41a53.44,53.44,0,0,1-5.36,2.07,14.64,14.64,0,0,1-7.81.58,7,7,0,0,0-4.84.8l-2.34,1.22a29.57,29.57,0,0,1-16.45,3.37,8,8,0,0,1-1.86-.43c-.76-.24-1.49-.56-2.24-.85a2.47,2.47,0,0,0-2.09.07c-.36.18-.73.33-1.09.51a7.78,7.78,0,0,1-4.19.79,19.65,19.65,0,0,0-5,.21c-1.1.17-2.22.22-3.34.31a12.31,12.31,0,0,1-5.88-.82,15.54,15.54,0,0,0-9.17-.86,35.7,35.7,0,0,1-5.47.55,11.68,11.68,0,0,1-7.5-2.1,10.19,10.19,0,0,0-6.79-1.83c-1,.05-2.08.06-3.12,0a7.38,7.38,0,0,1-5.11-1.74c-3-2.76-6.6-3.79-10.45-4.38-1.1-.16-2.22-.29-3.31-.53a15.25,15.25,0,0,1-2.75-.81,4.1,4.1,0,0,1-2.34-5.71c.39-1,1.07-1.78,1.52-2.72s1.68-1.53,1.44-2.83c-1-.41-2,.1-3.06.08a7.86,7.86,0,0,0-1.67.15,17.75,17.75,0,0,1-8.06-.63A6.73,6.73,0,0,1,4,187.19a3.6,3.6,0,0,1-1.94-3.1A7.5,7.5,0,0,1,3,180.41c.77-1.58,1.57-3.15,2.38-4.71a3,3,0,0,0,0-3.16A4.81,4.81,0,0,1,5,168.82c.18-.78.4-1.54.58-2.32.12-.52-.16-.81-.62-.65a6.67,6.67,0,0,0-1.11.46c-1.69.94-4.19-.88-3.75-3.16a9.43,9.43,0,0,1,.67-2.29c.6-1.3,1.32-2.55,2-3.81.35-.63.76-1.22,1.11-1.85a.72.72,0,0,0-.27-1,6.11,6.11,0,0,1-1-.71,3,3,0,0,1-.5-3.92,10.7,10.7,0,0,1,1.52-1.84,3.09,3.09,0,0,0,.94-2.83,14,14,0,0,1-.14-1.44,4.37,4.37,0,0,1,1.82-4c.57-.43,1.18-.82,1.78-1.22s1.08-.68,1.59-1.06c1.52-1.15,1.68-1.69,1.08-3.46-.07-.22-.2-.44-.26-.67a3.2,3.2,0,0,1,1.69-4,23.31,23.31,0,0,1,3.36-1.24c1.14-.37,2.32-.63,3.45-1a9.56,9.56,0,0,0,3.48-2.07,1.27,1.27,0,0,0,.37-1.51c-.59-1.49-1.22-3-1.77-4.46A80.61,80.61,0,0,1,16.42,98a65.62,65.62,0,0,1,4.47-30.32,92.5,92.5,0,0,1,4.89-9.88A114.88,114.88,0,0,1,46.94,30a105.85,105.85,0,0,1,53-27.88A101.74,101.74,0,0,1,121.94,0ZM62.69,179.62a1.69,1.69,0,0,0-.68,0A40.68,40.68,0,0,0,52.13,186a3.33,3.33,0,0,0-.5.76,6.33,6.33,0,0,1-4.87-.23,10.53,10.53,0,0,0-2-.65,1.39,1.39,0,0,0-1.08.28c-1,1-1.93,2.13-2.85,3.22a.88.88,0,0,0,.06,1.29,25,25,0,0,0,2,1.72c1,.77,1.3.74,2.3-.07q3.15-2.57,6.29-5.14a1.06,1.06,0,0,0,.21-.41c.16,0,.35,0,.47,0,3.15-1.74,6.29-3.47,9.42-5.24a2,2,0,0,0,1.12-1.95.53.53,0,0,0,.19,0s0-.09,0-.14ZM13.74,169.07c-1.17,0-1.73,1-2.53,1.62a1.48,1.48,0,0,0-.61,1.87,4.87,4.87,0,0,1-.23,3.5c-.43,1.12-.93,2.21-1.44,3.28s-1,2-1.52,3c-.13.28-.32.63,0,.85a1.22,1.22,0,0,0,.88.22,3.29,3.29,0,0,0,1.21-.68,56.35,56.35,0,0,1,6.37-5.06,3.47,3.47,0,0,0,.38-.29.6.6,0,0,0,.15-.84c-.53-.8-1.07-1.59-1.65-2.35A5.48,5.48,0,0,1,13.7,169a.67.67,0,0,0,.17-.08s0-.08,0-.13ZM92,173.87a3.13,3.13,0,0,0-.83.37q-4,3.58-8,7.2a3,3,0,0,0-.6.73c-1.12,2-2.26,4.05-3.3,6.11-2.26,4.47-2.64,3.62,2.48,4.61.31.06.63.05,1,.08a10.39,10.39,0,0,0,3.8-.33,4.45,4.45,0,0,0,2.69-1.86c.71-1.05,1.39-2.13,2.08-3.19-.19-.17-.28-.31-.41-.37-1.58-.76-1.74-1-1.51-2.49a36.36,36.36,0,0,1,2.55-10.2,2.57,2.57,0,0,0,.1-.7,1,1,0,0,0,.18-.08s0-.09,0-.14ZM219.48,59.41c-.24-.38-.43-.72-.67-1a152,152,0,0,0-16.9-19c-.23-.22-.47-.44-.72-.64-.53-.42-.84-.4-1.22.07-.2.25-.37.52-.55.78a29.66,29.66,0,0,1-8.26,7.92c-1.88,1.22-3.82,2.34-5.76,3.45q-8.52,4.91-17.06,9.78A27.15,27.15,0,0,0,157.51,72c-.74,1.41-1.44,2.85-2.14,4.29-1.91,4-3.78,7.94-5.75,11.87a64.84,64.84,0,0,1-7.05,11.12c-.69.88-1.41,1.73-2.14,2.58a1.39,1.39,0,0,0-.2,1.75,43.36,43.36,0,0,1,3.17,7.5c.2.65.51.78,1.06.49s1.26-.7,1.86-1.09c6.91-4.45,12.62-10,16.42-17.42.7-1.35,1.43-2.69,2.25-4,1.19-1.88,2.41-3.77,3.75-5.56a19.74,19.74,0,0,1,6.65-5.77A59.69,59.69,0,0,1,181.47,75a99.42,99.42,0,0,1,13.08-3.94c3.18-.77,6.37-1.51,9.52-2.4a38.84,38.84,0,0,0,9.83-4.37A19,19,0,0,0,219.48,59.41Zm-80.7,41.39a60.64,60.64,0,0,0,6.44-9c2.67-4.55,4.94-9.31,7.18-14.09,1.08-2.31,2.18-4.63,3.37-6.89a26.56,26.56,0,0,1,7.59-9.15,53.48,53.48,0,0,1,5.41-3.54c6.08-3.53,12.22-7,18.29-10.52A56.83,56.83,0,0,0,193,43.53a22.52,22.52,0,0,0,5.1-5.69c.72-1.11.69-1.26-.33-2.2l-.54-.48a141.78,141.78,0,0,0-15.7-11.8c-1.75-1.13-3.54-2.18-5.33-3.24-.6-.36-.82-.24-1.08.36a25.25,25.25,0,0,1-1.38,3,48.51,48.51,0,0,1-8.5,10.34,74.68,74.68,0,0,1-8.63,6.84c-2,1.37-3.94,2.74-5.87,4.16a16.21,16.21,0,0,0-6.38,9.57c-.51,2.18-1.05,4.35-1.4,6.56A102.43,102.43,0,0,1,136,84.88c-.94,2.2-1.91,4.4-2.92,6.57a1.47,1.47,0,0,0,.24,1.72c1.56,2.13,3.06,4.3,4.58,6.45C138.16,99.94,138.39,100.26,138.78,100.8Zm-7.6-10.12a17.32,17.32,0,0,0,.85-1.51,115.37,115.37,0,0,0,8.87-28.76,69.63,69.63,0,0,1,1.53-7,17.49,17.49,0,0,1,6.31-9.66c1.46-1.11,2.95-2.19,4.44-3.27,1.88-1.35,3.82-2.62,5.67-4a51.82,51.82,0,0,0,12.5-13.12,20.39,20.39,0,0,0,2-3.84c.21-.56.15-.9-.36-1.18l-1.9-1A122.64,122.64,0,0,0,143.73,7.05c-2.06-.54-2.21-.45-2.61,1.76a97,97,0,0,1-5.77,19.49,156.26,156.26,0,0,1-7,14.44c-1.06,2-2.14,3.93-3.14,5.93a11.92,11.92,0,0,0-.83,8.18c.19.86.43,1.71.69,2.55.53,1.75,1.06,3.51,1.63,5.26a32.23,32.23,0,0,1,.55,17.5c-.27,1.16-.56,2.33-.88,3.48a1.1,1.1,0,0,0,.31,1.29Zm89.73-29.22a5.12,5.12,0,0,0-.67.45,32.91,32.91,0,0,1-11.42,7.32,71,71,0,0,1-11.49,3.37,119.64,119.64,0,0,0-16.53,4.91A24.34,24.34,0,0,0,168.16,88c-1.38,2.33-2.81,4.65-4.1,7-4.17,7.78-10.44,13.45-17.93,17.89a12,12,0,0,1-1.06.56,1.29,1.29,0,0,0-.75,1.58c.18,1.1.32,2.21.49,3.32.05.36,0,.81.44,1a1.66,1.66,0,0,0,.48-.08c.51-.23,1-.49,1.5-.74a127.53,127.53,0,0,0,24-16.18c2.45-2,4.93-4.07,7.44-6a32,32,0,0,1,11.56-5.63,104.8,104.8,0,0,1,21-3.25c2.63-.16,5.27-.29,7.89-.58a28.83,28.83,0,0,0,10.95-3.27,21.13,21.13,0,0,0,2.53-1.8.84.84,0,0,0,.21-1.08c-.1-.22-.2-.43-.32-.64a151,151,0,0,0-10.71-17.6A11.48,11.48,0,0,0,220.91,61.46Zm-19.8,45.59c-5.59-.31-9.67.31-13.5,2.13-2.38,1.12-4.73,2.33-7,3.66-4.82,2.83-9.57,5.79-14.39,8.63a99.57,99.57,0,0,1-17.32,8.16c-1.19.43-2.52.45-3.58,1.27l-.84,4a.93.93,0,0,0,0,.47c0,.13.19.32.29.32a5,5,0,0,0,.94-.12,82.42,82.42,0,0,0,19.87-6.89c2.06-1.06,4.09-2.18,6.16-3.22,1.85-.94,3.72-1.85,5.62-2.69a31.12,31.12,0,0,1,10.89-2.64,56.84,56.84,0,0,1,14.54,1.13,125.58,125.58,0,0,1,15.45,4.33,108.21,108.21,0,0,0,12,3.36,48.59,48.59,0,0,0,10.68,1.29,15.64,15.64,0,0,0,5-.79c1.53-.52,1.73-.87,1.62-2.46,0-.47-.08-.95-.15-1.43a138.27,138.27,0,0,0-3.66-17.33c-.14-.46-.26-.93-.42-1.38-.22-.61-.5-.77-1.07-.64a5.56,5.56,0,0,0-.7.19,33.42,33.42,0,0,1-9.17,1.63,166.8,166.8,0,0,1-20.37-.17Zm46.62,24.15a4,4,0,0,0-.81.1,19.38,19.38,0,0,1-7.33,1,53.23,53.23,0,0,1-10.2-1.37,140.06,140.06,0,0,1-14.73-4.28,84.73,84.73,0,0,0-20.1-4.39A32.66,32.66,0,0,0,179,124.37a93,93,0,0,0-8.41,4.07,85.92,85.92,0,0,1-23.47,8.87c-1.08.23-2.46.08-3.13.94a9.25,9.25,0,0,0-1,3.16c-.21.76.06,1.09.8,1A95.22,95.22,0,0,0,163.12,139c3.07-.9,6.1-1.94,9.13-2.94a38.26,38.26,0,0,1,18.92-1.61,49.5,49.5,0,0,1,10.55,3.15q5.64,2.38,11.16,5a81.23,81.23,0,0,0,27.87,7.52,15.22,15.22,0,0,0,5.92-.64,2.2,2.2,0,0,0,1.69-2.31,116.92,116.92,0,0,0-.33-14.62A11,11,0,0,0,247.73,131.2ZM37.41,48.38a7.34,7.34,0,0,0,.7.74,77.8,77.8,0,0,1,14.64,16.1c1.5,2.17,3,4.33,4.47,6.53a8.88,8.88,0,0,0,6.41,4.19c2,.28,3.94.63,5.91.93,2.69.41,5.39.72,8.06,1.2A63.44,63.44,0,0,1,90.68,82a3.46,3.46,0,0,0,2.95,0c1.6-.71,3.3-1.19,5-1.8a9,9,0,0,0,1.09-.57c-.39-.48-.67-.87-1-1.21A42.46,42.46,0,0,0,85.84,68.8c-2.68-1.24-5.43-2.32-8.16-3.47-1-.4-1.94-.72-2.89-1.15a8,8,0,0,1-4.24-4.36,19.84,19.84,0,0,1-.84-2.5,46.6,46.6,0,0,1-1.31-7.79c-.21-2.23-.34-4.47-.69-6.68a65,65,0,0,0-3.42-12.46,36.45,36.45,0,0,0-2-4.35c-1-1.86-1-1.84-2.78-.53A106.73,106.73,0,0,0,38.35,47C38,47.4,37.75,47.88,37.41,48.38Zm186,57.7c1.84,0,3.68,0,5.52,0a50.89,50.89,0,0,0,9-.95,36.78,36.78,0,0,0,3.68-1.07.79.79,0,0,0,.5-1,13.5,13.5,0,0,0-.42-1.37,137,137,0,0,0-6.3-15.79c-.36-.76-.48-1.71-1.36-2.15-.6.39-1.19.79-1.8,1.15s-1.39.78-2.11,1.13a30.13,30.13,0,0,1-9.85,2.85c-3.34.37-6.68.69-10,.84a97.54,97.54,0,0,0-17.52,2.55,32.64,32.64,0,0,0-13.36,6.21c-2.13,1.69-4.24,3.4-6.31,5.16a120.58,120.58,0,0,1-25.26,16.86c-.57.28-1.13.59-1.7.88a1.52,1.52,0,0,0-.84,1.58c.07,1.51.08,3,.14,4.55a.7.7,0,0,0,.95.73,18.74,18.74,0,0,0,2.06-.62,86.92,86.92,0,0,0,13.27-6.08c4-2.29,8-4.67,12-7.06a136.23,136.23,0,0,1,12.54-7,28.68,28.68,0,0,1,14-2.66c2.07.12,4.14.31,6.21.48C212,105.78,217.7,106.14,223.38,106.08ZM108.13,78.57a21.25,21.25,0,0,0-3.46-6.52A54.25,54.25,0,0,0,94.79,62a25.48,25.48,0,0,1-4.24-3.87,8.57,8.57,0,0,1-2.12-5.72,27.34,27.34,0,0,1,.4-4.53c1.09-5.65,2.3-11.27,3.43-16.91a39.79,39.79,0,0,0,1-9.29A60,60,0,0,0,91.5,10.52a3.84,3.84,0,0,0-.11-.46c-.14-.43-.39-.7-.87-.57s-.93.25-1.39.4a96.26,96.26,0,0,0-18.57,8.3c-2.07,1.21-4.1,2.49-6.12,3.79-1.45.93-1.45,1-.63,2.41a36.68,36.68,0,0,1,3,6.55,64.13,64.13,0,0,1,3.66,17.54A44.8,44.8,0,0,0,71.79,57a7.6,7.6,0,0,0,5.35,5.91c1.68.53,3.3,1.23,4.94,1.86a46.7,46.7,0,0,1,18.57,12.82,8.24,8.24,0,0,0,1.17,1.19,1.72,1.72,0,0,0,1.08.35C104.57,79,106.23,78.78,108.13,78.57Zm9.18-69.93V7c0-2.12,0-2.12-2.15-2-.32,0-.64,0-1,.06a107.45,107.45,0,0,0-11.88,1.52C99.67,7,97,7.7,94.39,8.33c-.87.21-1,.53-.88,1.38.21,1.1.47,2.19.7,3.28a40.2,40.2,0,0,1,.56,15.94c-1.12,5.89-2.35,11.75-3.5,17.62-.31,1.57-.61,3.14-.77,4.72a7.37,7.37,0,0,0,2.41,6.26c.91.89,1.89,1.72,2.89,2.52a55,55,0,0,1,6.71,6.14,34.85,34.85,0,0,1,7,10.25c.31,2.22,1.84,3,3.82,3.18.77.1,1.13-.05,1.12-.78a47.62,47.62,0,0,0-.18-4.78,56.66,56.66,0,0,0-2.32-9.77c-1-3.45-2-6.9-2.86-10.39a18,18,0,0,1,.49-10.16c.73-2.11,1.49-4.21,2.31-6.29A81.39,81.39,0,0,0,117.31,8.64Zm7,76.43a12.08,12.08,0,0,0,.56-1.42,32.38,32.38,0,0,0,0-17.76c-.41-1.38-.85-2.74-1.27-4.12s-.79-2.6-1.15-3.91a14.16,14.16,0,0,1,1-10.49c.76-1.5,1.58-3,2.34-4.46,1.91-3.7,3.86-7.37,5.67-11.11a95.4,95.4,0,0,0,7.17-21.32c.24-1.09.42-2.2.6-3.3.09-.6-.12-.88-.71-1A7.83,7.83,0,0,0,137.6,6,112.65,112.65,0,0,0,121.82,4.8c-2.6,0-2.46,0-2.45,2.54a92.11,92.11,0,0,1-.7,12,82.14,82.14,0,0,1-5.22,19.9c-.67,1.71-1.28,3.44-1.88,5.18a15.5,15.5,0,0,0-.51,8.74c.56,2.42,1.19,4.81,1.85,7.2.74,2.7,1.63,5.36,2.31,8.07a29.42,29.42,0,0,1,1,11.39,1,1,0,0,0,.61,1.14l5.68,3.1C123.1,84.33,123.63,84.67,124.3,85.07Zm-17.86-1.36c.41.91.71,1.55,1,2.21a9.26,9.26,0,0,1,.7,4,5.65,5.65,0,0,1-.54,1.8.67.67,0,0,1-.6.26c-.27-.08-.65-.29-.71-.52a5.48,5.48,0,0,1-.06-1.41,8.4,8.4,0,0,0-1.78-5.35c-.22-.3-.62-.66-.92-.66a9.8,9.8,0,0,0-4.78,1.27,16,16,0,0,1,.81,2.1,8.92,8.92,0,0,1,.26,2.12.76.76,0,0,1-.75.79,1.53,1.53,0,0,1-1-.39,5.3,5.3,0,0,1-.54-1.31,23.49,23.49,0,0,0-1-2.17.87.87,0,0,0-.82-.28,13.2,13.2,0,0,0-3.5,2c.18.29.32.48.43.69a2.55,2.55,0,0,1,.42.84,1.11,1.11,0,0,1-.18.87,1.59,1.59,0,0,1-1.07.3,3.33,3.33,0,0,1-1-.6c-.73-.45-.87-.48-1.45.06a19.64,19.64,0,0,0-6,9.92,30.11,30.11,0,0,0-.68,7.15,11.07,11.07,0,0,0,2.11,6.51,20.93,20.93,0,0,0,5.6,5.54,12.58,12.58,0,0,0,10,2c4.41-1,7.44-3.53,8.42-8.15a14.1,14.1,0,0,0,.26-4.29,8.84,8.84,0,0,0-.56-2.32c-1.09-2.86-5.08-3.84-7.06-2.94a3.64,3.64,0,0,0-1.92,5.12,5.64,5.64,0,0,1,.39.87,1.86,1.86,0,0,1-.62,2,1.8,1.8,0,0,1-2,.47,3.93,3.93,0,0,1-2.58-3.2,8.51,8.51,0,0,1,6.49-10c6.25-1.2,11.39,2.6,12.36,8.14.18,1,.34,2,.52,3.15a8.63,8.63,0,0,0,1.19-.34c1.15-.55,2.31-1.1,3.43-1.71a11.71,11.71,0,0,1,7.18-1.36c1.67.19,3.34.32,5,.39,1.19,0,2.4,0,3.59-.1a5.1,5.1,0,0,0,1-.16.72.72,0,0,0,.51-1.1A34.6,34.6,0,0,0,131,97.77a2.6,2.6,0,0,0-.56-.3,13.14,13.14,0,0,1-5.14,2.83c-2,.68-4.1,1.33-6.16,2a1.43,1.43,0,0,1-.7.11,1.33,1.33,0,0,1-.79-.42.77.77,0,0,1,.25-1,3.23,3.23,0,0,1,.8-.52c.74-.3,1.49-.57,2.25-.83,1.51-.51,3.06-.93,4.54-1.53a17.66,17.66,0,0,0,2.91-1.62.74.74,0,0,0,.2-1.22,5.43,5.43,0,0,0-.62-.73,45.41,45.41,0,0,0-9.26-7.18c-.77-.46-1.09-.29-1.22.72a14,14,0,0,1-2.71,6.32,4.31,4.31,0,0,1-1.21,1.12,1,1,0,0,1-.87-.12,1,1,0,0,1-.26-.83,4.83,4.83,0,0,1,.57-1c.63-1.11,1.3-2.2,1.85-3.35a7.88,7.88,0,0,0,.69-3.5,1.32,1.32,0,0,0-.78-1.36A15.18,15.18,0,0,0,106.44,83.71Zm141.4,67.81c-.51.1-.89.15-1.26.25a19.85,19.85,0,0,1-7.16.37,80.29,80.29,0,0,1-24.95-6.53c-3.35-1.51-6.69-3.07-10-4.57a62.29,62.29,0,0,0-10.59-3.83,34.41,34.41,0,0,0-11.65-1.1,40.25,40.25,0,0,0-9.13,1.93c-1.59.54-3.17,1.09-4.77,1.62a88.36,88.36,0,0,1-17.73,4.07c-2.38.27-4.77.51-7.17.65a1.83,1.83,0,0,0-1.92,1.42c-.13.46-.3.9-.5,1.52a15.82,15.82,0,0,0,2,.12c3.91-.29,7.81-.58,11.71-.92,5.66-.49,11.28-1.28,16.87-2.29a32.15,32.15,0,0,1,9.79-.47,39.77,39.77,0,0,1,8.64,2c3.76,1.36,7.51,2.76,11.22,4.23a130.52,130.52,0,0,1,17,8.32c4.29,2.47,8.75,4.65,13.12,7a18,18,0,0,0,9.3,1.85,3.57,3.57,0,0,0,2.75-1.23,13.9,13.9,0,0,0,3.69-7.14c.25-1.74.55-3.47.78-5.22A16.19,16.19,0,0,0,247.84,151.52ZM24.73,71.32l1.62.59c2.64.92,5.31,1.77,7.93,2.75A40.67,40.67,0,0,1,49,83.94a30.59,30.59,0,0,0,2.73,2.34,4.93,4.93,0,0,0,3.35,1.1c.71,0,1.43,0,2.15-.13q4-.44,8.1-.93a49.33,49.33,0,0,1,12.9.47c1.74.24,3.46.63,5.18,1a2.37,2.37,0,0,0,2.39-.66c.91-.89,2-1.65,2.93-2.47.29-.25.55-.52.94-.9C89,83.47,88.5,83.22,88,83a77.55,77.55,0,0,0-16.33-3.76c-3-.38-6-.87-9-1.39a10,10,0,0,1-6.83-4.47c-.72-1.06-1.46-2.1-2.19-3.15C52.17,68.16,50.73,66,49.23,64a72.86,72.86,0,0,0-9.93-11c-.77-.7-1.57-1.37-2.38-2s-1-.5-1.55.27l-.27.4A111.37,111.37,0,0,0,25,70.11,11.11,11.11,0,0,0,24.73,71.32ZM83.1,90a4.15,4.15,0,0,0-.61-.38,60.17,60.17,0,0,0-20-.85c-2,.21-4,.44-6,.71a8.51,8.51,0,0,1-7.25-2.38c-1.06-1-2.12-2-3.2-2.91a31.7,31.7,0,0,0-6.38-4.65A71.87,71.87,0,0,0,26.35,74.1a9.26,9.26,0,0,0-1.86-.42c-.24,0-.54.24-.77.42a.84.84,0,0,0-.21.42A61.27,61.27,0,0,0,21.1,88a.7.7,0,0,0,.69.8,3.87,3.87,0,0,0,.48,0,28.7,28.7,0,0,1,9.62,1.78,52.13,52.13,0,0,1,11,5.29L49,99.59a9.6,9.6,0,0,0,7.63,1c1.63-.42,3.23-.94,4.82-1.48a77.52,77.52,0,0,1,10.15-2.83c2.43-.47,4.88-.86,7.33-1.25a2.13,2.13,0,0,0,1.7-1.13C81.42,92.6,82.25,91.33,83.1,90ZM80.61,116.4a8.06,8.06,0,0,0-.75.53,46,46,0,0,0-10.28,14A7.13,7.13,0,0,1,65,135.17c-.61.19-1.21.43-1.81.65-2.33.84-4.67,1.64-7,2.54A36.2,36.2,0,0,0,45,145.21c-.68.61-.68.95-.07,1.6.33.35.68.68,1,1a75.56,75.56,0,0,0,13.79,10.33c1,.61,2.1,1.16,3.16,1.72a.74.74,0,0,0,1-.34,2.14,2.14,0,0,0,.21-.43,32.57,32.57,0,0,1,7.42-10.8c1.44-1.5,2.81-3.07,4.26-4.55a6.68,6.68,0,0,0,2-5.2,24,24,0,0,1,2-10.28c1-2.44,2.09-4.84,3.19-7.23a1.58,1.58,0,0,0-.16-2C82.11,118.25,81.42,117.36,80.61,116.4Zm-54-9c-1,0-2.07-.12-3.11-.14a.66.66,0,0,0-.65.81c.06.39.14.78.23,1.17A75.27,75.27,0,0,0,28,123c.71,1.52,1.5,3,2.28,4.49.36.68.7.79,1.37.55.38-.14.74-.31,1.11-.46a50.47,50.47,0,0,1,18.18-3.85c1.92-.06,3.84-.21,5.75-.25a4.78,4.78,0,0,0,3.78-1.77c.31-.36.65-.7.93-1.09a41.91,41.91,0,0,1,10.51-9.72c1.65-1.13,3.3-2.26,5-3.35a2.09,2.09,0,0,0,1.08-2c0-.39,0-.79.06-1.19.06-1.65,0-1.74-1.52-1.27-1.29.42-2.58.86-3.85,1.33A69,69,0,0,0,58.18,112a9.9,9.9,0,0,1-8.67,1.41c-.54-.15-1.09-.27-1.62-.44-3.27-1.05-6.56-2-9.8-3.17A35.24,35.24,0,0,0,26.63,107.44Zm16,36.86a4.73,4.73,0,0,0,.48-.3,40,40,0,0,1,13.93-8.26c2.41-.84,4.8-1.78,7.22-2.59A5.5,5.5,0,0,0,67.71,130a46.84,46.84,0,0,1,2.88-5.25,50.07,50.07,0,0,1,6.89-8.28L79,115a1,1,0,0,0,.29-1.08c-.49-1.43-1-2.86-1.48-4.4a8.58,8.58,0,0,0-1.1.57c-2.28,1.63-4.57,3.23-6.81,4.91a32.86,32.86,0,0,0-6.42,6.43c-.53.7-1.1,1.37-1.69,2a6,6,0,0,1-3.94,2.08c-1.43.12-2.87.27-4.3.27a57.57,57.57,0,0,0-11,1,42.2,42.2,0,0,0-9.81,3.08c-.74.34-.82.61-.4,1.3A76.28,76.28,0,0,0,42.11,144,3.85,3.85,0,0,0,42.67,144.3ZM21,94.06l-.16,0c.37,3.17.72,6.34,1.12,9.51.19,1.5.31,1.56,1.8,1.61h.72a42.17,42.17,0,0,1,14.31,2.53q4.71,1.76,9.56,3.1c4.57,1.28,5.27,1.6,9.88-1.41a66,66,0,0,1,16.41-7.76c1-.31,2-.6,3-1a1.58,1.58,0,0,0,.88-.73A13.08,13.08,0,0,0,79,97.65a.63.63,0,0,0-.39-.48,4.71,4.71,0,0,0-1.18.07,95.68,95.68,0,0,0-15.07,3.84c-1.51.53-3,1-4.56,1.45a12.1,12.1,0,0,1-10.13-1.3c-.61-.38-1.23-.74-1.85-1.12-1.63-1-3.25-2-4.9-3a49.3,49.3,0,0,0-8.16-4,33,33,0,0,0-9.28-2.24C21,90.71,21,90.79,21,93.1Zm44.69,67c.45.26.84.53,1.26.73a59.89,59.89,0,0,0,9,3.31c1.69.46,3.41.85,5.12,1.25.72.16,1-.07,1.14-.83,0-.24.06-.48.09-.71a32.12,32.12,0,0,1,1.51-6.78,52.66,52.66,0,0,1,4.77-11,6.71,6.71,0,0,0,1-4.58c-.24-1.66-.44-3.33-.77-5a38.79,38.79,0,0,1-.61-10.75c.07-.94.15-1.89.23-2.84-.82-.64-1.62-1.29-2.45-1.92a7.51,7.51,0,0,0-1-.52c-.56,1.16-1.13,2.21-1.6,3.29-2,4.73-3.78,9.52-3.49,14.8a6.38,6.38,0,0,1-1.74,4.61c-1.21,1.38-2.47,2.72-3.71,4.09-1.55,1.72-3.14,3.41-4.63,5.18A23.53,23.53,0,0,0,65.66,161.1Zm27.53,6.66,8.44-.72a6.23,6.23,0,0,0,.94-.18c.76-.18.94-.49.7-1.17-.14-.37-.31-.74-.44-1.11a38.44,38.44,0,0,1-2.29-12.42,72.46,72.46,0,0,1,.54-8.84,7.51,7.51,0,0,0-1.26-5.22A34.59,34.59,0,0,1,96,129.86c-.37-1.13-.75-2.26-1.13-3.39-1.13-.38-2.28-.71-3.39-1.14-.82-.32-1.28-.19-1.35,1a36,36,0,0,0,.22,8.36c.49,2.83.86,5.67,1.3,8.51a6.25,6.25,0,0,1-.84,4.14c-.35.63-.72,1.25-1,1.88a52.54,52.54,0,0,0-5.26,14.59,15.39,15.39,0,0,0-.22,1.66c-.11,1.37,0,1.56,1.32,1.69C88.09,167.36,90.56,167.54,93.19,167.76Zm28.44-8.38a2.67,2.67,0,0,0,.71-.24,48,48,0,0,0,12.64-12c.41-.57.31-.87-.3-1.41a36.59,36.59,0,0,1-3.18-2.9c-2-2.28-4-4.59-5.8-7-3.69-5-3.68-5.08-9.33-7.46a23.67,23.67,0,0,1-6.9-4.26c-1.14-1-1.17-1-2.62-.15-.55.33-1.11.63-1.66,1-.81.48-.86.68-.36,1.53a33.4,33.4,0,0,0,6,7.41,16.11,16.11,0,0,1,4.75,8.44c.49,2.18.89,4.38,1.34,6.57a27.15,27.15,0,0,0,1.89,6.43,34.41,34.41,0,0,0,2.07,3.49C121.07,159,121.39,159.18,121.63,159.38Zm-2,1.28c-2.62-3.06-3.76-6.7-4.59-10.46-.42-1.95-.75-3.92-1.12-5.88a16.75,16.75,0,0,0-5.08-9.56,32.55,32.55,0,0,1-5.76-7.33,6.53,6.53,0,0,0-.64-1,.86.86,0,0,0-.59-.31c-1.36.11-2.7.25-4,.42a.54.54,0,0,0-.49.68,7.43,7.43,0,0,0,.23.93,34.74,34.74,0,0,0,4.18,9.12,8.38,8.38,0,0,1,1.43,5.91c-.16,1.27-.16,2.55-.32,3.82a36.42,36.42,0,0,0,1.54,15.62,21.75,21.75,0,0,0,1,2.67c.36.78.66.9,1.55.66a52.3,52.3,0,0,0,12-4.75A6.58,6.58,0,0,0,119.66,160.66Zm-9.75-38.88a18,18,0,0,0,5.69,4c1.39.61,2.79,1.18,4.2,1.75a12.87,12.87,0,0,1,5.45,4.16c.78,1,1.52,2.05,2.27,3.09a57.12,57.12,0,0,0,6.52,7.63,6.7,6.7,0,0,0,2.78,2c.25-.54.51-1,.7-1.53a61.65,61.65,0,0,0,2.86-12.58,30.42,30.42,0,0,0,.18-4.06c0-1.37-.13-1.54-1.46-1.62a16.13,16.13,0,0,1-5.07-1.3c-1.11-.44-2.2-1-3.28-1.45a28.51,28.51,0,0,0-7.76-2.34,72,72,0,0,1-9.9-1.64c-.46-.14-.73.16-1,.52C111.45,119.43,110.75,120.5,109.91,121.78ZM125,108.9a9.84,9.84,0,0,0-5.9,1.4,29.52,29.52,0,0,1-4.14,1.85,1.85,1.85,0,0,0-1.36,1.73c0,.4-.15.79-.21,1.18a.78.78,0,0,0,.7,1c2.2.37,4.4.81,6.61,1a33.55,33.55,0,0,1,11.5,3,48,48,0,0,0,5.12,2,8.69,8.69,0,0,0,2.11.33.73.73,0,0,0,.87-.85c-.12-1.35-.26-2.7-.44-4a30.47,30.47,0,0,0-1.88-7.4c-.47-1.17-.64-1.35-1.74-1.11a22.6,22.6,0,0,1-8.32.07C127.15,109,126.35,109,125,108.9Zm-35.6,63.55c-.57-.09-1-.19-1.51-.23a67.7,67.7,0,0,1-12-2.13,2.22,2.22,0,0,0-2.21.5,47.5,47.5,0,0,0-8.16,9,12.47,12.47,0,0,0-1.11,2.11.69.69,0,0,0,.53,1.07c2.26.51,4.51,1,6.78,1.47a6.69,6.69,0,0,0,4.64-.68A23.74,23.74,0,0,0,79,182a116.53,116.53,0,0,0,10.23-9S89.32,172.8,89.42,172.45Zm-50.56-10-2.77.65c-1.16.28-2.32.58-3.49.83a2.56,2.56,0,0,1-2.82-.86c-.83-1.26-1.72-1.14-2.79-.49l-.22.1c-1.85.69-3.61,1.77-5.73,1.3a.8.8,0,0,0-.62.27c-1.48,1.78-3,3.57-4.39,5.37a1.92,1.92,0,0,0-.08,2.45,38.66,38.66,0,0,0,2.37,3.29c1.27,1.5,1.56,1.52,3.23.53,1.44-.85,2.83-1.79,4.28-2.62a59.75,59.75,0,0,1,8.91-4.09,2,2,0,0,0,1.49-1.87,8.31,8.31,0,0,1,1.06-2.62A22.51,22.51,0,0,1,38.86,162.46Zm98.55-9.81c.61,0,1.13.12,1.65.12a20.94,20.94,0,0,1,5.68.74c.93.23,1.86.45,2.79.7a2,2,0,0,0,2-.35,4.13,4.13,0,0,1,4.08-.66c1.15.31,2.28.72,3.4,1.13a1.6,1.6,0,0,0,2.12-.47,2.79,2.79,0,0,1,3.23-.93c1.08.29,2.16.61,3.23.91a13.74,13.74,0,0,0,1.85.51,1.32,1.32,0,0,0,1.07-.26c1.07-1.34,2.4-1.4,3.9-1,1.08.28,2.17.54,3.26.79l2.22.5c.21-.2.39-.29.43-.42a3.15,3.15,0,0,1,3.33-2.22,30.61,30.61,0,0,1,3.83.07,3.33,3.33,0,0,0,3.17-1.23.71.71,0,0,0-.11-.17,1.9,1.9,0,0,0-.4-.25,29.59,29.59,0,0,0-13.93-1.49c-4.26.63-8.51,1.36-12.79,1.92a114.28,114.28,0,0,1-14.32,1.2l-7.43.05A2.5,2.5,0,0,0,137.41,152.65Zm16.83,4.27c-.05,0-.15.07-.15.11a24.19,24.19,0,0,1-.9,7.08,1.9,1.9,0,0,0,.35,1.57,29.4,29.4,0,0,1,2.86,8.58c.33,1.89.56,3.78.84,5.67.14.95.37,1.13,1.24.85a12.13,12.13,0,0,1,3.49-.73c1,0,1.28-.26,1.44-1.22.24-1.41.3-2.85.6-4.25a3,3,0,0,0-.21-2.07c-1.16-2.45-2.35-4.88-3.52-7.32-.73-1.49-1.92-2.76-2.22-4.47a.8.8,0,0,0-.24-.4q-1.56-1.65-3.15-3.27C154.58,157,154.38,157,154.24,156.92ZM58.47,163.1c-.51-.35-.88-.64-1.27-.89l-3.64-2.29L50,157.66c-1.35.69-2.71,1.34-4,2.08a19.55,19.55,0,0,0-5.59,4.43,19.5,19.5,0,0,0-1.92,3,1.32,1.32,0,0,0,0,1.13,5.65,5.65,0,0,0,2.63,2,2.49,2.49,0,0,0,2.27-.33,42.74,42.74,0,0,1,9.43-3.36C55,166.06,56.7,164.65,58.47,163.1ZM68,167.7a12,12,0,0,0-1.09-.64c-1.59-.75-3.23-1.38-4.76-2.23a2.23,2.23,0,0,0-2.82.27c-1,.85-2.1,1.7-3.21,2.47A31.91,31.91,0,0,0,50,173.22a9.41,9.41,0,0,0-.8,1.18.64.64,0,0,0,.25,1,7.23,7.23,0,0,0,6,.63,21.73,21.73,0,0,0,3.26-1.48,50.51,50.51,0,0,0,8.4-5.89A12.94,12.94,0,0,0,68,167.7ZM158.8,194c.63-.22.93-.3,1.22-.42a6.29,6.29,0,0,1,4.67-.15c.3.11.61.18.92.26a3.22,3.22,0,0,0,3.7-3c0-1.12,0-2.24-.15-3.34a34.55,34.55,0,0,0-1.42-7.26,2.75,2.75,0,0,0-1.83-2.17c-.22.79-.41,1.55-.66,2.29a2.52,2.52,0,0,1-2.47,1.9,13.86,13.86,0,0,0-1.43.08c-.69.09-.89.36-1,1.1-.23,2.3-.43,4.6-.73,6.89C159.51,191.35,159.15,192.49,158.8,194Zm-50.12,2.1c-1.13-.29-2-.49-2.81-.73a3.28,3.28,0,0,1-2.51-2c-.21-.62-.64-.53-1.15-.37a1.71,1.71,0,0,0-1.25,1.31c-.15.61-.35,1.22-.54,1.83-.57,1.83-1.15,3.65-2.66,5a4.44,4.44,0,0,0-.94,1.38c-.5,1-1.64,1.74-1.63,3a25.5,25.5,0,0,0,3.31,1.25,11.48,11.48,0,0,0,5.89-.49,1.47,1.47,0,0,0,.67-.64q1.25-1.91,2.42-3.84a1.32,1.32,0,0,0,.25-.89C107.35,199.3,107.9,197.81,108.68,196.11Zm-4.31-24.68v.09l-8.31.86a1.43,1.43,0,0,0-1.15.73c-.37.61-.76,1.22-1.08,1.85a27.24,27.24,0,0,0-2.26,8.49c-.13.87.26,1.13,1.16.73,2.4-1.07,4.79-2.15,7.16-3.28a11.56,11.56,0,0,0,3.7-3,3.15,3.15,0,0,0,.75-1.19c.39-1.54.7-3.1,1-4.66.07-.35-.15-.59-.52-.64A3.65,3.65,0,0,0,104.37,171.43ZM54.48,188.11a16.46,16.46,0,0,0-3.64,2.17c-2.22,1.55-4,3.69-6.32,5.07a2.7,2.7,0,0,0-.49.52l-5.17,5.3a.91.91,0,0,0-.27.6c0,.13.34.29.53.29,1.43,0,2.87,0,4.3,0a12.64,12.64,0,0,1,6,1.2,1.31,1.31,0,0,0,1.7-.32A46.71,46.71,0,0,0,55.46,198a5.08,5.08,0,0,0-.84-.52c-.51-.21-1.06-.33-1.58-.53-2.54-.93-2.9-1.93-1.53-4.33.6-1,1.31-2,2-3ZM162,163.41l-.28.24c.24.48.48,1,.75,1.45a61.55,61.55,0,0,1,4.1,8.88c.16.45.35.89.51,1.34a1.31,1.31,0,0,0,1.47.93c1.66-.08,3.34-.07,5-.14a5.12,5.12,0,0,0,1.37-.31c.19-.07.47-.3.48-.47.09-1.26.31-2.6-.51-3.69a14.88,14.88,0,0,1-1.84-3.86c-.45-1.19-.87-2.4-1.35-3.57a5.2,5.2,0,0,0-2.49-2.68c0,1,0,1.86-.15,2.7-.22,1.66-1.16,2.2-2.68,1.58a16.08,16.08,0,0,1-1.71-.86C163.82,164.45,162.94,163.92,162,163.41ZM20.18,195c.22.18.32.33.45.36,2,.35,3.93.73,5.91,1a3.63,3.63,0,0,0,1.83-.37,24.34,24.34,0,0,0,5.78-3.35c1.25-1,2.51-2,3.75-3a8.23,8.23,0,0,0,.84-.83c.95-1.09,1.88-2.18,2.82-3.27a4.32,4.32,0,0,0,.74-.93,1.23,1.23,0,0,0-.06-.86c0-.09-.45-.13-.61-.05a22.53,22.53,0,0,0-2.3,1.29c-1.53,1-3,2.09-4.53,3.14a4.82,4.82,0,0,1-2.6,1.11,8.21,8.21,0,0,1-5.07-1,1.11,1.11,0,0,0-1.31-.05A7.18,7.18,0,0,0,22.71,191c-.48.92-1.17,1.72-1.74,2.59C20.68,194.05,20.44,194.54,20.18,195Zm169.91-34.18c-1.25,1.4-1.25,1.4-.88,2.73.19.69.44,1.37.57,2.07.28,1.48.84,3,.45,4.49a3.25,3.25,0,0,0,.93,3.44c.45.45.8,1,1.21,1.48a23.47,23.47,0,0,0,8,6.36.51.51,0,0,0,.22.09c.15,0,.34,0,.44,0a.47.47,0,0,0,.18-.4c-.11-.54-.27-1.08-.41-1.61-1.45-5.36-3.55-10.38-7.4-14.51-.54-.58-1-1.23-1.51-1.85ZM128.6,174a5.83,5.83,0,0,0-.38.87c-.5,1.92-.94,3.86-1.5,5.77a4.35,4.35,0,0,0,.24,2.56.91.91,0,0,0,.69.54c1.43,0,2.86-.05,4.29-.14a2,2,0,0,0,1.52-1.05c.64-.91,1.27-1.83,1.88-2.76a18.86,18.86,0,0,0,3.28-11.27c0-.55.22-1.36-.31-1.53-.81-.26-.85.74-1.22,1.19s-.43.67-.66,1a19.26,19.26,0,0,1-4.16,4.57A2.87,2.87,0,0,1,128.6,174Zm26.19,4.65a8.73,8.73,0,0,0-2.07,3.41,16.53,16.53,0,0,1-2.05,4,3.31,3.31,0,0,0-.51,1.07c-.5,1.68-1,3.37-1.46,5-.15.53-.06,1,.49,1.17a9.24,9.24,0,0,1,4.06,2.85c.47.55.79.51,1.5.18a2.23,2.23,0,0,0,1.15-1.15,26.48,26.48,0,0,0,2.42-11.14.9.9,0,0,0-.83-1c-1.9-.45-2-.58-2.29-2.48C155.11,180.06,155,179.46,154.79,178.63Zm-134.69-29c.19.7.33,1.32.53,1.92.54,1.65.69,1.75,2.38,1.63,3-.23,6-.41,9-.73a23.52,23.52,0,0,0,5.83-1c3.94-1.51,3.95-.83,1-3.89-.27-.29-.56-.57-.82-.87a1.47,1.47,0,0,0-1.5-.42c-2.9.44-5.81.88-8.73,1.2a29.07,29.07,0,0,0-6.26,1.46A12.41,12.41,0,0,0,20.1,149.67Zm110.18,9.92a2.59,2.59,0,0,0-.68.21,61.57,61.57,0,0,1-7.92,5.37,2.5,2.5,0,0,0-1.17,1.45c-.62,1.81-1.29,3.61-1.81,5.45a42.16,42.16,0,0,0-.84,4.2.82.82,0,0,0,.16.65.66.66,0,0,0,.61,0c1.68-.92,3.34-1.88,5-2.82a7.08,7.08,0,0,0,2.69-2.66,32.81,32.81,0,0,0,3.25-7.44A12.62,12.62,0,0,0,130.28,159.59Zm-82-3.39c-1.55-1.34-3-2.5-4.29-3.74a1.85,1.85,0,0,0-2.15-.41,35.53,35.53,0,0,0-9.62,5.24A9.43,9.43,0,0,0,31,158.41a2.6,2.6,0,0,0,.45,3.21,1.64,1.64,0,0,0,.9.2,8.47,8.47,0,0,0,1.4-.28c1.39-.36,2.76-.84,4.16-1.07C41.56,159.87,44.81,158.23,48.25,156.2ZM118,167.25a7.17,7.17,0,0,0-.86.21,54.73,54.73,0,0,1-8.12,2.86,2,2,0,0,0-1.53,1.58,48.48,48.48,0,0,0-1.47,8.71,3.39,3.39,0,0,0,0,.71.6.6,0,0,0,.81.59,12.11,12.11,0,0,0,5.49-3.27c1-1.2,2.07-2.43,3-3.69a5.3,5.3,0,0,0,.86-1.69C116.87,171.36,117.39,169.44,118,167.25ZM48.42,184.91a2.63,2.63,0,0,0,2.69-.81,44.69,44.69,0,0,1,9.64-6.21c1.43-.71,2.88-1.38,4.3-2.12a7.51,7.51,0,0,0,1.76-1.2c1.67-1.59,3.3-3.23,4.94-4.87a.71.71,0,0,0,.18-.58,1.07,1.07,0,0,0-.56-.4,1.23,1.23,0,0,0-1.34.2l-1.45,1.25a51,51,0,0,1-8.6,6.08,32.83,32.83,0,0,1-3.9,1.81,7.42,7.42,0,0,1-5.17.17c-.75-.26-1.51-.5-2.25-.79a.86.86,0,0,0-1.08.21,21.66,21.66,0,0,0-3,5.17.87.87,0,0,0,.3.8C46.23,184.16,47.59,184.61,48.42,184.91Zm39.64,15.68c-2.8-1.56-2.93-1.83-2.51-4.67a1,1,0,0,0,0-.46c0-.13-.19-.31-.31-.32-1.2-.1-2.42-.23-3.07,1.16a4.63,4.63,0,0,1-.39.59,29.58,29.58,0,0,1-3.85,4.53,24.67,24.67,0,0,0-4.07,5.25,3.65,3.65,0,0,0,2.6.57c2.06-.21,4.11-.48,6.17-.71a2.05,2.05,0,0,0,1.44-.72A62.75,62.75,0,0,0,88.06,200.59ZM30.8,137.53c-.65.47-1,.95-1.79.93A21.71,21.71,0,0,0,21.33,140c-2,.7-2.23,1.3-1.55,3.22a6.87,6.87,0,0,0,.38.88,1.64,1.64,0,0,0,1.28.94,24.69,24.69,0,0,0,6.19.28l3.8-.4,4.44-.53C34.19,142,32.41,139.94,30.8,137.53Zm113.69,24.12c-.2.18-.39.27-.41.39a5.4,5.4,0,0,1-2.63,3.83,1.88,1.88,0,0,0-.84,1.84,57.55,57.55,0,0,1-1.45,11.62,5.85,5.85,0,0,0,0,1,8.8,8.8,0,0,0,1-.29,8.06,8.06,0,0,0,4.26-4.33c.28-.65.38-1.52,1.11-1.77,1-.34,1.08-1,1.07-1.87,0-1.28-.05-2.56,0-3.83.08-1.44-.65-2.82-.27-4.27.05-.18-.13-.47-.28-.64C145.56,162.78,145,162.22,144.49,161.65Zm-40.65,19.49a2.41,2.41,0,0,0-.71.21,27.57,27.57,0,0,1-5.44,3,20.05,20.05,0,0,0-2,.88A3.18,3.18,0,0,0,94,188.06c0,.87,0,1.75,0,2.62,0,1,.25,1.32,1.22,1.35a19,19,0,0,0,5.65-.75,5.1,5.1,0,0,0,1.67-.86,16.43,16.43,0,0,0,4-5.77,1.52,1.52,0,0,0-.46-.1,1.66,1.66,0,0,1-1.83-1.5C104,182.44,104,181.81,103.84,181.14ZM52.21,204.77a7,7,0,0,0,.8.54c2.22,1,4.52.75,6.83.45a1.9,1.9,0,0,0,1-.55c1.67-1.7,3.31-3.44,5-5.18a2,2,0,0,0,.39-2.39,3.19,3.19,0,0,1,.07-1.61,8.57,8.57,0,0,1,.41-1.31c-2.52-.35-2.52-.34-4.17,1.44-1,1.13-2.15,2.17-3.82,2.21a1.93,1.93,0,0,0-1.41.8Zm96.37-38.49c0,.61,0,1.07,0,1.53A40.43,40.43,0,0,1,146,184.68c-.17.45-.34.89-.48,1.35,0,.13,0,.39.07.42a1,1,0,0,0,.63.1c2.15-.68,3.28-2.44,4.13-4.3a43.9,43.9,0,0,1,2.49-4.88,14.62,14.62,0,0,0,1.21-2.84,2.29,2.29,0,0,0,.11-1.16,25.15,25.15,0,0,0-1.81-5.67c-.13-.25-.49-.61-.68-.58C150.55,167.32,149.7,166.62,148.58,166.28Zm-33.71,24.46c-.57-.23-.86-.33-1.15-.46-1.43-.66-1.79-1.35-1.37-2.83a23.58,23.58,0,0,1,.89-2.48c.75-1.85,1.54-3.68,2.29-5.53a.55.55,0,0,0-.13-.43c-.07-.07-.26,0-.39,0s-.13.09-.19.15a16.72,16.72,0,0,1-4,3.43,3.19,3.19,0,0,0-1,1c-1.3,2-2.59,4-3.82,6.08a6.38,6.38,0,0,0-.7,2c-.2,1,.11,1.52,1.11,1.76,1.16.29,2.36.44,3.51.75a3.29,3.29,0,0,0,3.89-1.6A20.64,20.64,0,0,0,114.87,190.74ZM126,175.28a87.4,87.4,0,0,0-8.23,4.75,2.52,2.52,0,0,0-1,1.31c-.7,1.78-1.38,3.57-2.06,5.36a3.58,3.58,0,0,0-.2.93.56.56,0,0,0,.51.67c2.85.25,5.41-.2,7.11-2.86A29.41,29.41,0,0,0,126,175.28Zm-97.19,11.3a4.56,4.56,0,0,0,5.12-.39,36.47,36.47,0,0,1,6.2-4.05,11.22,11.22,0,0,0,5.47-5c.15-.28.39-.51.54-.79s.54-.42.1-.87c-2.18,1.09-4.39,2.17-6.58,3.3a3.48,3.48,0,0,1-3.41.33,1,1,0,0,0-1.28.22c-1.6,1.67-3.23,3.31-4.79,5A4.45,4.45,0,0,0,28.78,186.58ZM76.6,188.7l-.31-.34c-.93.59-1.86,1.16-2.79,1.76a7.44,7.44,0,0,0-1.94,1.37c-1.15,1.52-2.16,3.16-3.18,4.77a.7.7,0,0,0,.45,1.13c2.29.68,4.6,1.34,6.91,2a1.91,1.91,0,0,0,2.12-.77c.78-1,1.54-2,2.27-3.08a.46.46,0,0,0-.31-.74c-.76-.2-1.56-.32-2.33-.52-2.34-.61-2.75-1.46-1.79-3.61C76,190,76.3,189.34,76.6,188.7Zm115.68-28.23a81.53,81.53,0,0,0,9.23,10.14c2.94,2.56,2.15,2.22,5-.14a4.61,4.61,0,0,0-.49-.78c-1-1.12-2-2.27-3.1-3.33a47.9,47.9,0,0,1-5.73-6.75c-.26-.36-.56-.69-.95-1.18C195.37,159.88,193.92,160,192.28,160.47Zm-180,23.24c1.79-.15,3.54-.38,5.29-.41a4.39,4.39,0,0,0,3-1.27,40.51,40.51,0,0,1,14.24-8.6,5.21,5.21,0,0,0,2.69-2.23.43.43,0,0,0,0-.41.52.52,0,0,0-.42-.14,3.54,3.54,0,0,0-.68.21,58.6,58.6,0,0,0-11.84,5.68l-1.61,1a5.41,5.41,0,0,1-3.82,1.08,2.05,2.05,0,0,0-1.35.3c-1.88,1.33-3.72,2.73-5.57,4.12a.5.5,0,0,0-.14.42C12,183.6,12.23,183.66,12.3,183.71ZM121,200.89a3.07,3.07,0,0,0,.51.26c2.87.66,5.53-.19,8.13-1.25a2.8,2.8,0,0,0,1.15-1.14c1.09-1.85,2.13-3.74,3.17-5.62a7,7,0,0,0,.55-1.33c.12-.36-.08-.59-.44-.67-1-.19-1.24-.14-1.7.84-1.08,2.3-3,3-5.31,2.8a3.37,3.37,0,0,1-.71-.09,1.8,1.8,0,0,0-2.31,1.1c-.74,1.4-1.66,2.71-2.5,4.07C121.33,200.19,121.17,200.55,121,200.89ZM120.2,190a9.23,9.23,0,0,1-1,.16,2.62,2.62,0,0,0-2.53,1.81,10.38,10.38,0,0,1-1.06,1.86,5.22,5.22,0,0,1-3.84,2.56,1.67,1.67,0,0,0-1.56,1.22c-.16.45-.34.89-.47,1.35a.82.82,0,0,0,.63,1.09c1.41.2,2.83.42,4.25.48a2.89,2.89,0,0,0,2.52-1.15c1.29-1.71,2.54-3.46,3.78-5.2a.73.73,0,0,0,.06-.65C120.15,192.49,120.32,191.25,120.2,190ZM25,128.23a19.3,19.3,0,0,1-8.35,4,2.39,2.39,0,0,0-.44.18.82.82,0,0,0-.51,1,12.87,12.87,0,0,0,.36,1.87.91.91,0,0,0,.64.55,17.15,17.15,0,0,0,2.15,0l8.1-.25h.95c1.16,0,1.31-.26.76-1.21-1-1.73-2-3.45-3-5.17A8.6,8.6,0,0,0,25,128.23Zm49.69,58.52a42,42,0,0,1-7.8-1.38c-2.78-.61-2.79-.6-4.47,1.74a15.75,15.75,0,0,0-1.24,2,1.09,1.09,0,0,0,.42,1.64c1,.57,2.14,1,3.23,1.47a2.54,2.54,0,0,0,2.66-.46c2-1.44,4-2.81,6.07-4.21ZM133.72,198c1.87-.88,3.17-1.62,4.47-2.35a18.82,18.82,0,0,1,6.42-2.49c2-.29,1.79-.66,2.28-1.94.2-.52.38-1.05.54-1.58.1-.36.31-.75-.1-1.08-.63.08-1.25.21-1.87.24-1.53.06-2-.37-2.3-2,0-.14-.06-.28-.12-.59-.58.78-1.09,1.48-1.63,2.15-.8,1-1.59,2.12-2.87,2.41a3.18,3.18,0,0,0-2.5,2.43A48.09,48.09,0,0,1,133.72,198Zm-42-7a29.08,29.08,0,0,1-2.64,2.68A5.74,5.74,0,0,0,87.31,197a1,1,0,0,0,.6,1.15,10.71,10.71,0,0,0,2.08.51c1.57.18,3.16.31,4.74.39,2.23.11,2.48-.09,3.26-2.27l.15-.45c.78-2.39.78-2.4-1.64-2.33-.32,0-.63,0-1,0C93,194,92.44,193.61,91.76,191.07Zm96.33-22.36c0-.37-.06-.93-.16-1.48a14.72,14.72,0,0,0-.42-1.86c-.91-3.09-.54-3.18-3.8-2.3-.15,0-.3.11-.45.15a2.48,2.48,0,0,1-2.26-.42c-.64-.48-1.26-1-1.91-1.44-.15-.1-.51-.15-.58-.06a.91.91,0,0,0-.15.66,4.62,4.62,0,0,0,.53,1.3c.7,1.07,1.48,2.07,2.17,3.14,1,1.54,1.93,3.12,2.89,4.68.25.42.52.85,1,.89,1.63.15,3-.28,3.1-2.36ZM125.2,184.82a12.25,12.25,0,0,0-2.9,5.75c-.2.94,0,1.38,1,1.56a28.51,28.51,0,0,0,4,.53c2.13.1,2.68-.28,3.43-2.2.4-1,.74-2.1,1.05-3.16.44-1.48.38-1.53-1.26-1.54C128.66,185.75,126.8,186.1,125.2,184.82Zm44.29-6.43a1.75,1.75,0,0,0,0,.53,41.07,41.07,0,0,1,1.86,9.87c.07,1.09.11,1.07,1.36.93.64-.07,1.28-.09,1.91-.13a.78.78,0,0,0,.82-.71,24,24,0,0,0-.67-9.73,1.1,1.1,0,0,0-1-.9A10.27,10.27,0,0,0,169.49,178.39Zm30.58-20.89-.82,0H199a.47.47,0,0,0-.32.72,13.27,13.27,0,0,0,1.07,1.58c1.19,1.4,2.35,2.83,3.64,4.13a52,52,0,0,1,5.49,6,4.37,4.37,0,0,0,1.09.9c.11.08.39.1.44,0a.7.7,0,0,0,.16-.55,39.47,39.47,0,0,1-1.94-4.63,17.36,17.36,0,0,0-2.4-5.18c-1.51-2.25-1.51-2.26-4.14-2.69C201.31,157.66,200.52,157.57,200.07,157.5ZM9.79,169.05c1.84-1.33,3.24-2.39,4.69-3.36A9.16,9.16,0,0,1,17.63,164,1.55,1.55,0,0,0,19,162.52a3.57,3.57,0,0,0-.93-1.87c-.34-.41-.87.07-1.32.2s-.76.23-1.15.32a3.64,3.64,0,0,1-3.82-1.37,5.85,5.85,0,0,1-1-1.9c-.26-.83-.33-1.72-.51-2.57,0-.2-.24-.54-.33-.53a1.43,1.43,0,0,0-.81.33,2.9,2.9,0,0,0-.43.84c-.46.93-.93,1.85-1.38,2.78-.15.32-.56.59-.24,1.07a9.12,9.12,0,0,1,1.15.17,3.74,3.74,0,0,1,2.95,4.49,13.74,13.74,0,0,1-.55,2.07C10.42,167.22,10.18,167.88,9.79,169.05Zm128.79-14.32c-.94.14-2.44.33-3.92.6a.85.85,0,0,0-.42.72,4,4,0,0,0,.5,1.31c1.3,2.2,2.62,4.38,3.93,6.56a.94.94,0,0,0,.29.38c.18.11.46.27.62.2a3.14,3.14,0,0,0,2.06-1.87c.46-1.78,1.35-3.63-.25-5.39a5.06,5.06,0,0,1-.7-1.75,1,1,0,0,0-1.07-.76ZM30.79,197c.05.18,0,.3.09.33l5.55,3.12a24.46,24.46,0,0,0,5.69-5.89c-1-.87-2-1.77-3-2.63-.38-.32-.74-.1-1.06.16A33.12,33.12,0,0,1,30.79,197Zm31.28-12.77a3.46,3.46,0,0,0-3,1.39c-1.72,2.38-3.49,4.74-5.23,7.11a8.07,8.07,0,0,0-.59,1,.72.72,0,0,0,.44,1.14c1.37.42,2.75.79,4.12,1.19a2.37,2.37,0,0,0,2.42-.65,14.18,14.18,0,0,0,1.27-1.41c.31-.38.18-.73-.21-1a11.85,11.85,0,0,1-1.33-1,2.69,2.69,0,0,1-.71-3.45,17.57,17.57,0,0,1,1.47-2.46C61.11,185.51,61.6,184.9,62.07,184.27Zm89.84-26v-1.2c0-.24,0-.48,0-.72-.1-1-.42-1.18-1.16-.65a4,4,0,0,1-3.86.51c-1.15-.36-2.31-.65-3.47-.94a.88.88,0,0,0-.59.23c-.06,0,0,.31.09.44A38.81,38.81,0,0,0,150,164.3c.45.42.79.28,1-.4A15.24,15.24,0,0,0,151.91,158.26Zm-19,.19a8.75,8.75,0,0,0-.37,1.33,26.36,26.36,0,0,1-2.64,9.41,2.74,2.74,0,0,0-.11,2.08c.33,1.2.75,1.4,1.6.64a18.93,18.93,0,0,0,4.79-6.51,2,2,0,0,0-.07-2c-.8-1.29-1.55-2.62-2.35-3.91A9.28,9.28,0,0,0,132.87,158.45Zm-111-2.72a3.93,3.93,0,0,1-3-2.64c-.64-2.1-.68-2.16-2.83-1.3-.59.23-1.18.46-1.77.71-1.81.76-2.11.8-2,3.24a5.23,5.23,0,0,0,.21,1.17c.64,2.25,1.77,2.82,3.91,1.79C18.15,157.88,19.79,156.89,21.9,155.73Zm155.52,33.39.36,0c.37-.61.73-1.22,1.09-1.84a5.11,5.11,0,0,1,5.14-2.78,6.13,6.13,0,0,0,1.42-.07c.18,0,.45-.28.46-.44.08-.95-1-2.38-1.94-2.3-2.07.16-3.26-1-4.2-2.59-.4-.68-.76-1.39-1.14-2.09L178,176a5,5,0,0,0-.94,4.38,18.32,18.32,0,0,1,.45,6.64C177.44,187.7,177.45,188.41,177.42,189.12Zm-157.63-42a2.3,2.3,0,0,0-2.39-1.16c-2.28.31-4.56.64-6.84.94a1.71,1.71,0,0,0-1.46,1,22.26,22.26,0,0,1-1.31,2.27.86.86,0,0,0,0,1.08c.23.32.47.64.7,1a.75.75,0,0,0,1,.22c2.47-1.07,5-2.13,7.43-3.21a4.65,4.65,0,0,0,1-.6C18.59,148.16,19.17,147.63,19.79,147.1Zm4.71,39.41c1-.64,2.12-.75,2.79-1.8A31.2,31.2,0,0,1,32,179.37c.62-.61,1.26-1.21,1.85-1.85a2.18,2.18,0,0,0,.43-.81.54.54,0,0,0-.1-.44.44.44,0,0,0-.38-.15,8.73,8.73,0,0,0-1.12.39,39,39,0,0,0-9.13,5.56c-.48.37-1.28.65-1.19,1.35.06.44.69.79,1,1.24S24.12,185.86,24.5,186.51Zm118.06-5.17c-.78.35-1.47.7-2.19.95a3.36,3.36,0,0,1-3.2,0c-.55-.38-.85-.06-1.18.32-1.42,1.63-1.71,3.71-2.27,5.68,0,.08-.05.18,0,.23s.23.49.39.53a15,15,0,0,0,1.64.21,4.06,4.06,0,0,0,3.73-1.69A16.86,16.86,0,0,0,142.56,181.34Zm14.79-24.63a7.34,7.34,0,0,0,.74,1.07,34.81,34.81,0,0,0,8,5.51c.54.28.82,0,.8-.68a12.5,12.5,0,0,0-1.71-5.4,3.78,3.78,0,0,0-3.18-2.16,1.45,1.45,0,0,0-1.49.48C159.8,156.55,158.73,156.73,157.35,156.71Zm20.25.12a4.54,4.54,0,0,0,.62,1.2,13.76,13.76,0,0,0,1.67,1.36,11.42,11.42,0,0,0,2.3,1.69c1,.41,2-.31,3-.52,2.29-.48,2.36-.71,1.12-2.78a4.85,4.85,0,0,0-.39-.61c-.74-.93-1.47-1.88-2.26-2.78a2,2,0,0,0-2.6-.3c-.66.49.17,1,.22,1.47s-.25,1-.75,1A5.44,5.44,0,0,0,177.6,156.83Zm-10.21-.09a12.72,12.72,0,0,0,.85,1q2.72,2.52,5.44,5a3.39,3.39,0,0,0,.56.44.84.84,0,0,0,1.08-.17,1.89,1.89,0,0,0,.51-.78,6.74,6.74,0,0,0,.06-3.31c-.57-3-1-3.39-3.93-3.8a1.77,1.77,0,0,0-1.92.6C169.47,156.54,168.54,156.55,167.39,156.74Zm-135.53-2a6.7,6.7,0,0,0-3.78.34c-2.2,1.12-4.41,2.2-6.62,3.3-.36.18-.7.38-1,.59a.74.74,0,0,0-.35,1,6.32,6.32,0,0,0,.69,1.25,1.76,1.76,0,0,0,2.29.7c1.49-.55,3-1.18,4.4-1.84a1.43,1.43,0,0,0,.68-.89A6.11,6.11,0,0,1,30.46,156C30.88,155.65,31.26,155.29,31.86,154.76Zm43.36,46.76-5.59-1.68a1.4,1.4,0,0,0-1.67.56c-1,1.32-2.15,2.58-3.21,3.87a2.93,2.93,0,0,0-.33.74,22.29,22.29,0,0,1,6.46.85,1.1,1.1,0,0,0,1.25-.47Zm104.9-32.47c-.5.62-.93,1.17-1.38,1.71a1.15,1.15,0,0,0-.12,1.33c.91,1.94,1.81,3.88,2.77,5.79a5.33,5.33,0,0,0,1,1.32,1.31,1.31,0,0,0,1.74.17,3.16,3.16,0,0,0,1.06-1.21,4.26,4.26,0,0,0-.08-3.25.83.83,0,0,0-.45-.5c-1.63-.49-2.27-1.88-3-3.19A6.4,6.4,0,0,0,180.12,169.05Zm-160-30.91a9.81,9.81,0,0,0-4.08-.26,1.48,1.48,0,0,0-1,.55,14.38,14.38,0,0,1-4.68,4,4.28,4.28,0,0,0-.75.58,1.41,1.41,0,0,0-.13,1.56c.24.43.65.37,1,.31l5.89-.91c1-.15,1.1-.24,1.06-1.41,0-.4,0-.8,0-1.19A2.63,2.63,0,0,1,18.71,139C19.16,138.66,19.64,138.41,20.11,138.14ZM50.24,169.5a24.59,24.59,0,0,0-5.27,2c-1.61.83-3.21,1.38-5,.65a.9.9,0,0,0-.82.23c-.86,1-1.67,2.13-2.47,3.21a.9.9,0,0,0,0,1.11,1.15,1.15,0,0,0,1.25.48,2.36,2.36,0,0,0,.67-.25c2.62-1.32,5.25-2.65,7.86-4A9.41,9.41,0,0,0,50.24,169.5Zm143.58,10.25c-.27-.37-.43-.63-.63-.86l-3.57-4.14a5.62,5.62,0,0,0-.77-.9,1,1,0,0,0-.82-.13,1,1,0,0,0-.59.65,13.45,13.45,0,0,0,.06,1.9,5.56,5.56,0,0,1-.63,3.45,1.59,1.59,0,0,0,.2,2c.53.8.74.87,1.53.5,1.16-.52,2.32-1,3.47-1.56C192.62,180.36,193.16,180.08,193.82,179.75ZM95.08,201.27c-1.4-.16-2.65-.33-3.91-.4a1.41,1.41,0,0,0-1,.46c-1.29,1.6-2.52,3.25-3.82,4.95,1.23.1,1.23.1,1.71-.12a10.19,10.19,0,0,1,4.06-1.26,1.26,1.26,0,0,0,.83-.38A11.26,11.26,0,0,0,95.08,201.27Zm91.57-46.88c1.15,1.93,3,2.76,4.73,3.67a2.72,2.72,0,0,0,2.31-.15,1,1,0,0,0,.24-1.45,3.74,3.74,0,0,0-.79-.49,21.33,21.33,0,0,1-3-1.46A2.93,2.93,0,0,0,186.65,154.39Zm14.72.78c-2.35-.95-4.72-1.87-7.05-2.85a2.94,2.94,0,0,0-3.18.31,3.81,3.81,0,0,0,2,1.19A20.08,20.08,0,0,0,201.37,155.17ZM174.56,166c.44,1.15.81,2.2,1.25,3.22.34.77.87.8,1.44.13,1.62-1.89,1.66-2.65.22-4.54-.08-.11-.26-.15-.42-.23ZM112.9,202.79a5.39,5.39,0,0,0-2.72-.65,1,1,0,0,0-.46.11,4.62,4.62,0,0,0-1.39,2.93c.87-.41,1.66-.76,2.43-1.16S112.09,203.26,112.9,202.79Zm89.29-25.85c1.19-2.5,1-3-1.12-3.26C201.41,174.67,201.73,175.62,202.19,176.94Zm5.65-18.84c-.2.07-.3.08-.32.12s-.16.31-.11.39a4.14,4.14,0,0,0,.65.94.67.67,0,0,0,.55.08c.14-.25.34-.69.24-.8A4.44,4.44,0,0,0,207.84,158.1Z"/></g></g></svg>