<svg xmlns="http://www.w3.org/2000/svg" viewBox="0 0 273.22 272.6"><title>Asset 5</title><g id="Layer_2" data-name="Layer 2"><g id="Inserted_Image_Image" data-name="Inserted Image Image"><path d="M197.7,272.6c-3-.17-6.06-.26-9.09-.53-3.5-.32-7-.8-10.48-1.18a114.65,114.65,0,0,1-24.07-5.37c-3.86-1.29-7.74-2.55-11.61-3.84a4.08,4.08,0,0,1-1.51-.68,6.3,6.3,0,0,0-2.77-1.32,82.33,82.33,0,0,1-18-7.24c-2.94-1.63-6-3.11-9-4.63a72.09,72.09,0,0,1-10.55-6.62c-3.14-2.34-6.35-4.58-9.42-7-3.38-2.68-6.65-5.5-9.92-8.32-1.51-1.31-2.89-2.77-4.35-4.14a53,53,0,0,1-7.13-8.4c-.87-1.25-1.74-2.49-2.58-3.76a112.79,112.79,0,0,0-13.21-16.11,68.17,68.17,0,0,1-6.47-7.72c-1.76-2.47-3.52-4.95-5.22-7.47a34.74,34.74,0,0,0-5.63-6.52c-2.08-1.88-4.16-3.76-6.25-5.62a65.63,65.63,0,0,1-8.59-9.35c-1.89-2.49-3.68-5-5.68-7.44a15.26,15.26,0,0,1-3.06-6.16,17.53,17.53,0,0,0-4.2-7.7,8,8,0,0,1-2.24-6.13c0-.24,0-.48,0-.72A7,7,0,0,0,5,122.84a11.3,11.3,0,0,1-.69-1,6.78,6.78,0,0,1-1.43-5.19,11.45,11.45,0,0,0-1.32-7.38,8,8,0,0,1-.24-7.41,5.34,5.34,0,0,0,0-4.41c-.25-.67-.52-1.34-.75-2a9.91,9.91,0,0,1,.65-8.36C2.92,84.24,3,83.33,2.64,80a10.71,10.71,0,0,1,1.75-7.32c.48-.73.94-1.48,1.38-2.24A10.66,10.66,0,0,0,7.34,65a21,21,0,0,1,.12-2.63A10.41,10.41,0,0,1,13,54.16a19.48,19.48,0,0,1,2.17-1,2.58,2.58,0,0,0,1.59-2.22c.16-1.11.29-2.22.54-3.31a16.47,16.47,0,0,1,.93-2.72,7,7,0,0,1,5.47-4.56,7.79,7.79,0,0,0,5.82-4c2.28-3.62,5.89-5.55,10-6.53a23.05,23.05,0,0,1,3.79-.53,7.12,7.12,0,0,0,4.6-1.77,14.37,14.37,0,0,1,6.55-3.34,11.89,11.89,0,0,0,2.67-1,17.67,17.67,0,0,1,4.74-1.65,33.51,33.51,0,0,0,4-.94,8.8,8.8,0,0,0,5-3.51,10.67,10.67,0,0,1,7.2-4.76l1.89-.35a6.94,6.94,0,0,0,4-2A21.47,21.47,0,0,1,97.47,3.37,15.62,15.62,0,0,0,102,1.85,25.17,25.17,0,0,1,105.33.51a14.23,14.23,0,0,1,9.39.67,27.86,27.86,0,0,1,3.86,1.94,156.33,156.33,0,0,1,16,11,43.58,43.58,0,0,0,4.11,2.91,79,79,0,0,1,11.45,9.07,25.31,25.31,0,0,1,4.94,6.75c1.27,2.32,2.56,4.62,3.75,7a14.28,14.28,0,0,0,6.07,6.28,33.47,33.47,0,0,1,9.76,8,44.85,44.85,0,0,0,9.23,8.33,37.48,37.48,0,0,1,6.95,6.24c.95,1.08,1.93,2.14,2.92,3.19a14.47,14.47,0,0,0,4,3,26.09,26.09,0,0,1,7.53,5.87,42.19,42.19,0,0,0,10.26,8.2,29.9,29.9,0,0,1,11.76,12.3c2.55,4.82,5.58,9.34,8.59,13.87a44.2,44.2,0,0,0,5.68,7.11c.63.61,1.19,1.3,1.81,1.92a32.91,32.91,0,0,1,7.4,12.22,115,115,0,0,1,3.84,12.85c.28,1.17.59,2.33,1,3.46a10.64,10.64,0,0,0,2.5,4.32,21.05,21.05,0,0,1,5.17,8.81c.34,1.06.7,2.13,1.12,3.16a96.3,96.3,0,0,1,4.85,16.55,52.31,52.31,0,0,0,1.33,5.1c2.64,8.13,3,16.45,2.43,24.91a65.49,65.49,0,0,1-3.9,17.49c-.49,1.36-1,2.7-1.47,4.06a41.19,41.19,0,0,1-7,12.25,15,15,0,0,1-2,2c-1.44,1.25-2.92,2.48-4.42,3.68a82.13,82.13,0,0,1-27.41,14.45,41.5,41.5,0,0,1-9,1.54C211.12,271.69,204.42,272.12,197.7,272.6Zm23.22-131.89,0-.09.09,0c.25.66.45,1.35.76,2a29.48,29.48,0,0,1,2.09,5.6c.59,2.32,1.21,4.64,1.77,7a27.94,27.94,0,0,1,.8,8.79,59.05,59.05,0,0,1-3.2,14.48,47.14,47.14,0,0,1-9.28,16.11q-3.83,4.3-7.74,8.53a56.69,56.69,0,0,1-16.79,12.59,47,47,0,0,1-23.88,5.08,58,58,0,0,1-22.35-5.9,36.78,36.78,0,0,1-6.7-4.17,21.64,21.64,0,0,1-7.84-12.3,26.84,26.84,0,0,1-.09-11.18,43,43,0,0,1,6.66-15.81c2-3.06,4.27-6,6.5-8.91a53.92,53.92,0,0,1,15.65-13.62c3.16-1.87,6.26-3.86,9.34-5.87a66.57,66.57,0,0,0,10-8.16,26.16,26.16,0,0,0,4.08-5,13.5,13.5,0,0,0,1.32-2.8,5.19,5.19,0,0,0-3.21-6.57l-1.35-.5c-9.55-3.67-19.12-7.28-28.65-11a117.54,117.54,0,0,1-23.34-12.19c-.43-.29-.88-.92-1.42-.53-.25.19-.18.89-.15,1.35,0,.88.2,1.75.25,2.63a21.54,21.54,0,0,1,.06,3.59,77.61,77.61,0,0,1-4.69,19,17.66,17.66,0,0,1-7.18,8.73c-4,2.54-7.91,5.15-11.85,7.74-2.14,1.4-4.29,2.79-6.39,4.25a61.48,61.48,0,0,0-10.73,9.19c-1.66,1.84-3.37,3.64-5.06,5.44-2.69,2.87-5.3,5.78-6.61,9.6-.75,2.18-2,4.16-2.39,6.49a56.29,56.29,0,0,0,.13,17.43,43.25,43.25,0,0,0,2.55,8.49,48.19,48.19,0,0,0,7.43,13.35,160.66,160.66,0,0,0,19.91,20.74,71.1,71.1,0,0,0,14.93,10c2.86,1.41,5.71,2.87,8.52,4.39a68.76,68.76,0,0,0,14.84,6.09c6.25,1.68,12.5,3.37,18.81,4.78a95.07,95.07,0,0,0,25,2.44c3.35-.15,6.71-.3,10.06-.52,2.23-.15,4.46-.39,6.68-.65,3.25-.37,6.51-.73,9.76-1.19,4-.57,8.07-1.16,12.07-1.89a38.16,38.16,0,0,0,15.14-6.38,78.87,78.87,0,0,0,10.68-8.88A31.2,31.2,0,0,0,253,232c1.07-2.67,2.06-5.38,3-8.1a41.48,41.48,0,0,0,2-15.13,70.49,70.49,0,0,0-2-13,86.93,86.93,0,0,0-10.42-25.66,174.83,174.83,0,0,0-10.86-15.81,77.38,77.38,0,0,0-11.19-11.83C222.65,141.83,221.76,141.3,220.92,140.71ZM67.77,202.6l.08.07-.13,0a5.22,5.22,0,0,0-.64-2.77,43,43,0,0,1-2.28-8.8,67,67,0,0,1-.31-14.36,24.65,24.65,0,0,1,3.84-12,9,9,0,0,0,.58-1,31.91,31.91,0,0,1,5.5-7.82c2-2.13,3.94-4.21,5.88-6.33a59.36,59.36,0,0,1,9.52-8.4c2.68-1.89,5.41-3.7,8.15-5.51q6-4,12.05-7.87a13.24,13.24,0,0,0,5.35-6.56,77.49,77.49,0,0,0,3.83-13.85,27.45,27.45,0,0,0,.41-7.4,36,36,0,0,0-.55-4.52c-.57-2.76-1.38-5.42-3.84-7.21a21.67,21.67,0,0,1-2.1-2,6.79,6.79,0,0,1-.82-.88,2,2,0,0,1,0-2.44,1.87,1.87,0,0,1,2.57-.44,16.06,16.06,0,0,1,2.24,1.8,95.42,95.42,0,0,0,24,16.22c4.61,2.2,9.31,4.25,14.07,6.1,10.06,3.92,20.18,7.66,30.28,11.47,8.46,3.18,16.84,6.52,25,10.52a76.72,76.72,0,0,1,24.69,19.08,155.05,155.05,0,0,1,14.08,19.7,93.32,93.32,0,0,1,13.24,39.2,43.89,43.89,0,0,1-1,14.76,76.93,76.93,0,0,1-4.59,13.36,34.84,34.84,0,0,1-7,10.28,82,82,0,0,1-10.71,9.23,45.36,45.36,0,0,1-20.39,8.46c-3.56.56-7.12,1-10.68,1.55a224.61,224.61,0,0,1-23.87,2.26c-.54,0-1.08.08-1.63.12a75.07,75.07,0,0,0,16.23,1.27c6.39-.34,12.76-.93,19.14-1.35a42.78,42.78,0,0,0,13.23-3.2,91.87,91.87,0,0,0,14.67-7.61A39.86,39.86,0,0,0,257.62,245c.28-.4.6-.76.89-1.14a33,33,0,0,0,3.64-5.91A64.12,64.12,0,0,0,268.54,213c.26-7.66-.25-15.18-2.8-22.47a25.74,25.74,0,0,1-1-3.95c-1.28-7.29-3.94-14.15-6.48-21.05a13.76,13.76,0,0,0-2.89-4.66,18.86,18.86,0,0,1-2.15-2.58,12.65,12.65,0,0,1-2.52-5.62,23.32,23.32,0,0,0-.82-4.22c-1-3.29-2.1-6.55-3.17-9.81a29.3,29.3,0,0,0-7.64-12.31,17.34,17.34,0,0,1-1.32-1.39c-1.44-1.72-3-3.37-4.25-5.2a168.15,168.15,0,0,1-9.4-14.76c-.92-1.68-1.93-3.32-3-4.94a17.57,17.57,0,0,0-5.78-5.66c-1-.59-1.9-1.18-2.84-1.78a38.32,38.32,0,0,1-6.78-5.32c-1.18-1.2-2.42-2.34-3.63-3.5A28.42,28.42,0,0,0,195.53,79a17.69,17.69,0,0,1-4.6-3.41c-.9-.91-1.79-1.84-2.64-2.79a44.94,44.94,0,0,0-8.37-7.51,40.94,40.94,0,0,1-7.82-7.06c-1.41-1.62-2.94-3.16-4.5-4.64a25.33,25.33,0,0,0-2.87-2.16,1,1,0,0,0-1.11,0c-1.71.86-3.4,1.77-5.17,2.5a173.63,173.63,0,0,1-17.46,6,134.34,134.34,0,0,1-21.54,4.62c-3.26.4-6.5.87-9.76,1.24s-6.67.81-10,1c-4.71.26-9.43.3-14.14.47q-4.08.14-8.15.39c-3.11.18-6.22.49-9.33.62q-10.78.47-21.58.8c-11.28.35-22.55.38-33.72-1.6a.76.76,0,0,0-.94.52,27.44,27.44,0,0,1-3.26,6.12,8.8,8.8,0,0,0-1.19,7.11.91.91,0,0,0,.78.79c.39.08.79.11,1.19.16a78.75,78.75,0,0,0,9.34.48c8.4,0,16.79,0,25.19-.32C53.93,81.94,64,81.69,74,80.69c4.77-.48,9.53-1.08,14.29-1.73s9.32-1.43,14-2.09A96.68,96.68,0,0,0,118,73.64a4.22,4.22,0,0,1,.94-.18.77.77,0,0,1,.89.62,1.1,1.1,0,0,1-.31.82,2.77,2.77,0,0,1-1.05.54c-1.07.34-2.14.67-3.22.94A135.07,135.07,0,0,1,100.88,79c-6.57.9-13.13,1.92-19.7,2.85s-13.36,1.38-20.07,1.72c-5.75.28-11.5.47-17.26.6-7.51.18-15,.27-22.55.38a93,93,0,0,1-12.92-.74c-.54-.07-1,0-1.05.65a11.25,11.25,0,0,1-1.64,4,6.84,6.84,0,0,0-.31,6.87,1.34,1.34,0,0,0,1.24.94c1.27,0,2.55.13,3.83.13,13.84.05,27.67,0,41.5-.74,1.44-.07,2.88-.08,4.31-.21a121.36,121.36,0,0,0,15.17-2.22c6.1-1.31,12.22-2.52,18.31-3.85,2-.44,4-1.14,6-1.67a9.88,9.88,0,0,1,2.1-.25c.16,0,.42.26.48.44a.75.75,0,0,1-.13.65,3.86,3.86,0,0,1-1.22.71c-2.45.73-4.89,1.53-7.38,2.09-5.46,1.21-11,2.26-16.43,3.43a101,101,0,0,1-13.48,2.22c-6.13.48-12.29.87-18.44,1-10.87.18-21.75.11-32.63.15-.4,0-.8,0-1.2,0-.81,0-1,.19-1,1a9.27,9.27,0,0,1-.83,4.44,5.12,5.12,0,0,0,.27,4.39A1.67,1.67,0,0,0,7.49,109c2.95.1,5.91.39,8.86.36,6.32-.06,12.63-.18,18.93-.77a121.41,121.41,0,0,0,14.72-2c4.45-1,8.94-1.8,13.07-3.88a1.56,1.56,0,0,1,.9-.22,1.2,1.2,0,0,1,.71.53.64.64,0,0,1-.06.64,4.45,4.45,0,0,1-1.11.87,34.34,34.34,0,0,1-7.45,2.62A131.12,131.12,0,0,1,30,110.85a191.66,191.66,0,0,1-20.62.05,19.57,19.57,0,0,0-2.14.09,8.11,8.11,0,0,1,.21,5.11,4.15,4.15,0,0,0,.91,3.59,6.82,6.82,0,0,1,.87,1.15A2.21,2.21,0,0,0,11.61,122c6.78-.45,13.57-.86,20.1-3a3.71,3.71,0,0,1,.93-.22.79.79,0,0,1,.89.63,1,1,0,0,1-.31.82,3.78,3.78,0,0,1-1.27.63c-2.16.57-4.32,1.2-6.51,1.6a71.23,71.23,0,0,1-9.77,1.09c-1.27,0-2.55.19-3.82.31a.7.7,0,0,0-.7.78c0,1.68.08,3.36.1,5a4.17,4.17,0,0,0,1,2.63q1.35,1.68,2.67,3.39a1,1,0,0,0,1.25.36c1-.36,2-.65,2.94-1,1.34-.53,2.65-1.13,4-1.67a2.77,2.77,0,0,1,1.14-.28,1,1,0,0,1,.71.5.94.94,0,0,1-.18.84,4.21,4.21,0,0,1-1.22.73c-1.85.76-3.72,1.48-5.57,2.21-.37.15-.76.27-1.12.43a.59.59,0,0,0-.34.79c.77,1.83.88,3.91,2.13,5.57a2.56,2.56,0,0,1,.53,1.31,4.1,4.1,0,0,0,1.21,2.29c2.23,2.73,4.48,5.43,6.67,8.18a61.41,61.41,0,0,0,7,7.26c1.84,1.65,3.67,3.33,5.54,5a39.44,39.44,0,0,1,6.61,7.57c1.66,2.45,3.29,4.92,5.08,7.28a78.69,78.69,0,0,0,5.67,6.81A117,117,0,0,1,67.77,202.6Zm118.75-79.23a13,13,0,0,1-2.16,9.28,32.87,32.87,0,0,1-6.09,7.06,81.2,81.2,0,0,1-10.44,8c-3.24,2.07-6.52,4.07-9.77,6.09a45.56,45.56,0,0,0-10.32,8.54,104.26,104.26,0,0,0-8.06,10.43A47.9,47.9,0,0,0,134.4,183a27,27,0,0,0-1.78,11.52,17,17,0,0,0,6,12.12,29.25,29.25,0,0,0,5.37,3.59,55.16,55.16,0,0,0,16.79,5.48A41.62,41.62,0,0,0,180,214.53,50.82,50.82,0,0,0,202.83,200c2.39-2.58,4.75-5.19,7.11-7.8a43.63,43.63,0,0,0,5.81-8.2,53.94,53.94,0,0,0,6-19.35,19.4,19.4,0,0,0-.38-7.39c-.72-2.87-1.39-5.75-2.2-8.59a34.37,34.37,0,0,0-1.55-4c-1.5-3.48-3.8-6.47-6-9.51a7.59,7.59,0,0,0-3-2.34,192.55,192.55,0,0,0-18.22-8ZM45.2,67.17l10.19-.41c5.51-.22,11-.29,16.53-.68,6.3-.45,12.6-.88,18.92-.86,1.68,0,3.36,0,5-.12,4.63-.25,9.25-.65,13.85-1.26,5.06-.68,10.16-1.18,15.19-2.07a171.94,171.94,0,0,0,33.52-9.88c1-.38,1.9-.83,2.83-1.29.74-.37.8-.81.15-1.22a16.54,16.54,0,0,1-5-4.71,1,1,0,0,0-1.27-.29c-1.88.69-3.77,1.34-5.64,2a137.48,137.48,0,0,1-32.88,7.44c-4.69.51-9.37,1.1-14.06,1.6-4.13.44-8.26.89-12.41,1.17-4.62.31-9.26.51-13.89.6a267.15,267.15,0,0,1-31.63-.87C37,55.6,29.47,54.93,22,53.59c-.63-.11-1.08-.07-1.38.57a6.64,6.64,0,0,1-3.51,3.11c-.58.27-1.17.52-1.73.82a5.87,5.87,0,0,0-3.24,6.59,1.07,1.07,0,0,0,.91,1,25,25,0,0,0,3.07.55c4.46.36,8.92.8,13.39.94C34.93,67.3,40.37,67.17,45.2,67.17Zm25-11.53c6.41-.3,14.16-.6,21.91-1,3.51-.2,7-.63,10.5-1,5-.55,10-1.15,15-1.75,4.6-.56,9.19-1.25,13.73-2.18a159.09,159.09,0,0,0,22-6.62,5.7,5.7,0,0,0,.88-.38.69.69,0,0,0,.37-1q-1.51-2.86-3.07-5.7a.72.72,0,0,0-1-.27l-.64.32a54.35,54.35,0,0,1-15.08,5.39,208.39,208.39,0,0,1-25.35,3.82c-2.63.25-5.26.49-7.89.64-4.23.23-8.47.44-12.7.53-2.47.05-4.95-.16-7.43-.25-7.19-.28-14.38-.58-21.58-.84C53.9,45.1,48,45,42.07,44.71A52.56,52.56,0,0,1,30.9,43.37a2.31,2.31,0,0,0-1.4,0,23.25,23.25,0,0,1-4.6,1.33A3.44,3.44,0,0,0,22.32,47a10.8,10.8,0,0,0-.58,1.83c-.72,3.46-.63,2.74,2.15,3.34a7.52,7.52,0,0,0,.95.15c7,.79,14,1.68,21,2.33C53.46,55.31,61.14,55.46,70.16,55.64Zm-38.56-14a26,26,0,0,0,6.56,1c7.34.36,14.69.64,22,.92,6,.23,12,.41,18,.61,1.83.06,3.67.14,5.51.18,2.95.07,5.92.27,8.86.15,5.19-.21,10.37-.61,15.55-1,1.67-.11,3.35-.27,5-.5q7.59-1.06,15.17-2.21a83.16,83.16,0,0,0,14.17-3.52,39.12,39.12,0,0,0,6.75-3.08c.82-.46.9-.79.42-1.53a22.13,22.13,0,0,0-4.3-4.81,1.32,1.32,0,0,0-1.54-.14c-2,.8-4,1.55-6.05,2.29a89.11,89.11,0,0,1-19,4.74c-3.16.42-6.36.63-9.53,1a125.4,125.4,0,0,1-14.37.61c-3.43,0-6.87-.19-10.3-.36-4.86-.25-9.73-.55-14.59-.84-3.19-.19-6.39-.33-9.57-.64a39.8,39.8,0,0,1-10.57-2,1.57,1.57,0,0,0-1.12.12,13.61,13.61,0,0,1-4.86,1.15,23.41,23.41,0,0,0-4.24.76A12.28,12.28,0,0,0,31.6,41.68ZM51.15,31a12.27,12.27,0,0,0,4.71,1.13q6.2.59,12.42,1c3.51.24,7,.4,10.54.59,4.71.25,9.41.53,14.13.71a157.42,157.42,0,0,0,20.82-1q3.95-.37,7.85-1.05a104.19,104.19,0,0,0,18.87-5.39c.6-.23,1.19-.47,1.77-.73a.47.47,0,0,0,.11-.79c-1.42-1.16-2.81-2.38-4.32-3.43-2.35-1.63-2.06-1.27-4.1-.28a34.61,34.61,0,0,1-11.47,3.27c-1.67.18-3.34.34-5,.56a122.69,122.69,0,0,1-17.24.85C95.6,26.44,91,26,86.36,25.61c-5.1-.43-10.18-1-15.22-1.84a4.94,4.94,0,0,0-2.58.24c-1.72.62-3.5,1.09-5.25,1.63a15.45,15.45,0,0,0-3,1,23.79,23.79,0,0,1-6,2.36A5.33,5.33,0,0,0,51.15,31Zm82.74-11.43a52.94,52.94,0,0,0-5.5-4.33,1.63,1.63,0,0,0-1.12-.06c-1.62.39-3.22,1-4.87,1.21a68.74,68.74,0,0,1-8.09.76c-3.35.07-6.71-.06-10-.25s-6.68-.52-10-.88c-2.46-.26-4.9-.66-7.35-1a4.73,4.73,0,0,0-2.79.32,20.7,20.7,0,0,1-3.41,1c-.85.23-1.72.36-2.57.58a5.21,5.21,0,0,0-2.8,1.75c-.75.93-1.43,1.92-2.12,2.89a.49.49,0,0,0,.3.75c.39.08.78.15,1.18.2,4.37.45,8.73.92,13.1,1.34,2.54.24,5.09.44,7.65.55A136,136,0,0,0,116,24c2.69-.3,5.39-.59,8.08-1A28.84,28.84,0,0,0,133,20.19,8.53,8.53,0,0,0,133.89,19.59Zm-23.06-4.31c1.83,0,3.68.08,5.51,0a37,37,0,0,0,8.74-1.34c.2-.07.48-.23.52-.39a.74.74,0,0,0-.3-.56c-1.92-1.31-3.85-2.59-5.77-3.89a1.84,1.84,0,0,0-1.81-.24A23.62,23.62,0,0,1,109,9.91,60.2,60.2,0,0,1,97.3,8.69a7.4,7.4,0,0,0-4.63.55,15.35,15.35,0,0,0-4.56,3,3.44,3.44,0,0,0-.47.79,2.57,2.57,0,0,0,.75.39c3.09.38,6.18.75,9.28,1.09A111.27,111.27,0,0,0,110.83,15.28Zm-9.61-7.75c1.94.19,3.67.44,5.41.52a35.27,35.27,0,0,0,8.08-.35,7.21,7.21,0,0,0,.92-.21.6.6,0,0,0,.31-.32.42.42,0,0,0-.15-.37A34.66,34.66,0,0,0,111.9,5,9.43,9.43,0,0,0,106.26,5c-.23.07-.45.15-.67.24-1.31.59-2.61,1.17-3.91,1.77C101.56,7,101.49,7.2,101.22,7.53Z"/></g></g></svg>