<svg xmlns="http://www.w3.org/2000/svg" viewBox="0 0 232.3 236.54"><title>Patella</title><g id="Layer_2" data-name="Layer 2"><g id="Inserted_Image_Image" data-name="Inserted Image Image"><path d="M26.49,204.37c.31-3.79,1.34-7.42,2-11.12a32.53,32.53,0,0,0,.37-3.56,1.23,1.23,0,0,0-.87-1.3c-.82-.3-1.67-.55-2.47-.92a35.5,35.5,0,0,1-4.51-2.2c-2.52-1.59-3.26-3.73-2.48-6.63.35-1.31.82-2.59,1.28-3.87A21.07,21.07,0,0,0,21,168.2c0-1.46-.29-1.86-1.71-2.14a17.49,17.49,0,0,0-2.62-.26,36.59,36.59,0,0,1-7.36-1,18.27,18.27,0,0,1-5.94-2.49,7.12,7.12,0,0,1-3.24-7.67,13.7,13.7,0,0,1,3.21-6.87c1.26-1.44,2.59-2.83,3.88-4.25,1.61-1.78,3.22-3.56,4.8-5.36a19,19,0,0,0,3.22-6.39,4.28,4.28,0,0,0-.14-2.82,15.19,15.19,0,0,1-.73-2.78c-.56-4.64-.07-9.11,2.51-13.14a9.44,9.44,0,0,0,1.46-5.46,51.24,51.24,0,0,0-.87-7.62,16.38,16.38,0,0,1,.18-6.43,10,10,0,0,1,2.86-5.17c.93-.88,1.89-1.72,2.85-2.57a22.29,22.29,0,0,0,4.38-5.06,7.55,7.55,0,0,0,.92-6.65c-.24-.68-.45-1.37-.65-2.06-.31-1.07-.64-2.14-.91-3.22-1.16-4.56.6-7.52,4.49-9.46a25.61,25.61,0,0,1,4.77-1.56c1.92-.54,3.88-.94,5.82-1.43a14.8,14.8,0,0,0,2-.71A4.3,4.3,0,0,0,47,51.57c0-.88,0-1.77,0-2.64a11,11,0,0,1,.32-2.37,5.6,5.6,0,0,1,4-4.31,5.51,5.51,0,0,0,3.68-3.2c.57-1.23,1-2.53,1.5-3.79s1.12-2.82,1.78-4.18A12.19,12.19,0,0,1,61.7,27a11.45,11.45,0,0,1,8.73-2.55,35.34,35.34,0,0,1,7.64,2,12.32,12.32,0,0,0,3.51.72,6.42,6.42,0,0,0,3.66-.92,12.31,12.31,0,0,0,3.46-2.92c.7-.88,1.33-1.8,2-2.7,1-1.28,1.86-2.61,2.88-3.84A9.78,9.78,0,0,1,103,13.23l2.85.39a9.75,9.75,0,0,0,6-1.32A15.72,15.72,0,0,0,116,9c1.17-1.31,2.3-2.65,3.48-4a8.66,8.66,0,0,1,9.14-2.68,18.37,18.37,0,0,1,3.1,1.27c.94.43,1.85.93,2.77,1.42a9.16,9.16,0,0,0,7.44.44,13.61,13.61,0,0,0,5.22-2.85c.18-.17.38-.3.57-.45a7.31,7.31,0,0,1,8.52-.7,24.38,24.38,0,0,1,2.61,1.71c.52.36,1,.77,1.53,1.15a2.79,2.79,0,0,0,3.36.08c.54-.34,1-.75,1.56-1.11.92-.65,1.8-1.36,2.77-1.91A9.11,9.11,0,0,1,179.65,3a18.29,18.29,0,0,1,3.65,5.31c.56,1.15,1,2.34,1.6,3.49a9.94,9.94,0,0,0,2.56,3.44,2.84,2.84,0,0,0,2.17.84,5.24,5.24,0,0,1,3.78,1.25,18.08,18.08,0,0,1,2.31,2.07,19.41,19.41,0,0,1,1.52,1.85,6.13,6.13,0,0,0,4.94,2.53c1,0,1.92,0,2.88.05a33.1,33.1,0,0,1,6.66.78,13.75,13.75,0,0,1,1.82.57,5.88,5.88,0,0,1,3.67,7.59A18.63,18.63,0,0,1,215.74,36c-.44.85-1.05,1.62-1.51,2.45-1.71,3.11-.16,8.42,2.93,10.1,1.27.69,2.61,1.25,3.81,2A14,14,0,0,1,227.25,59a8,8,0,0,1-2.74,8.62A25.25,25.25,0,0,1,222,69.43c-.47.31-1,.58-1.43.89a.79.79,0,0,0-.33,1c.14.37.29.74.43,1.12a12.67,12.67,0,0,1,.34,8c-.26,1-.56,2-.82,3-.22.85-.07,1.14.75,1.47,1.26.51,2.58.9,3.79,1.51A13.6,13.6,0,0,1,232,95.73a7.28,7.28,0,0,1-2.6,7.75,18,18,0,0,1-5.51,3.32,11,11,0,0,0-4.58,3,3.77,3.77,0,0,0-1,3.31c.11.7.31,1.4.47,2.1.3,1.32.64,2.64.88,4a11.21,11.21,0,0,1-.23,4.75,8.72,8.72,0,0,1-4.05,5.71c-.75.44-1.54.84-2.28,1.31a25.28,25.28,0,0,0-2.18,1.48,3.08,3.08,0,0,0-1.3,2.71,9.33,9.33,0,0,0,.54,3,26.64,26.64,0,0,0,2.17,4c.84,1.35,1.85,2.6,2.72,4,2.49,3.83,2.46,7.86.67,11.9a11.12,11.12,0,0,1-6.5,5.73,29.35,29.35,0,0,1-4.16,1.13c-1,.23-2.05.33-3.07.53a13.11,13.11,0,0,0-4.86,2,4.08,4.08,0,0,0-2,3.11c-.09,1-.17,2.07-.24,3.11a13.54,13.54,0,0,1-3.21,8.34,8.26,8.26,0,0,1-9.51,2.64c-.84-.27-1.65-.6-2.49-.86a.49.49,0,0,0-.65.49,34.2,34.2,0,0,0,.17,4.3c.72,5-.68,9.69-2.6,14.21a8.22,8.22,0,0,1-5.72,5.05,7.4,7.4,0,0,1-3.56.07c-1.24-.29-2.48-.64-3.69-1s-2.11-.74-3.16-1.14a12.79,12.79,0,0,0-7.06-.69c-1.33.24-2.71.2-4.07.32-.57,0-.83.34-.87.93a5.61,5.61,0,0,0,0,.71,14,14,0,0,1-3.09,8.89,9,9,0,0,1-3.91,3.08,22.72,22.72,0,0,1-6.5,1.57,9,9,0,0,1-4.89-.92c-1.07-.53-2.13-1.1-3.22-1.59s-1.6-.27-2,.83c-.63,1.64-1.25,3.28-1.91,4.91a16.56,16.56,0,0,1-1.07,2.15,5.11,5.11,0,0,1-3.19,2.36l-.47.09c-3.68.79-3.23.54-5.78,3.75a21.7,21.7,0,0,1-2.38,2.68c-3.28,3-8.4,2-10.71-.51a30,30,0,0,1-5.25-7.12c-1.09-2.22-2.32-4.38-3.51-6.56a18.31,18.31,0,0,0-1-1.64,1.55,1.55,0,0,0-2.26-.68c-.94.42-1.84.95-2.76,1.45a31.83,31.83,0,0,1-8.91,3.43,7,7,0,0,1-7.43-2.73c-1.06-1.39-1.88-3-2.8-4.45-.59-.95-1.12-1.95-1.78-2.85-.8-1.08-1.27-1.18-2.44-.5a21.16,21.16,0,0,1-8.87,2.69c-1.52.13-3,.21-4.55.35-2.62.23-5.25.45-7.87.75a13.29,13.29,0,0,1-9.15-2.08,9,9,0,0,1-3.83-5.87A33.71,33.71,0,0,1,26.49,204.37ZM105.61,85.58l.15.16-.2-.11a.87.87,0,0,0-1-.45,4.09,4.09,0,0,0-.68-.9c-1.27-1-2.57-1.91-3.88-2.82q-11.49-8.05-23-16.1T53.62,49.88c-.61-.37-1.23-.74-1.86-1.09a.48.48,0,0,0-.7.38c0,1,0,2.08-.06,3.11a7.63,7.63,0,0,1-4.7,7,27.23,27.23,0,0,1-3.83,1.36c-1.54.43-3.12.69-4.67,1.1-1.38.37-2.75.83-4.11,1.28-.16,0-.28.3-.34.48s.19.27.32.31c.38.12.77.19,1.16.28,4.68,1,9.38,2,14.05,3.09C63.45,70.55,77.75,74.89,92,79.56a52.43,52.43,0,0,1,10.51,4.64,17.53,17.53,0,0,0,2.17.94C104.82,85.59,105.22,85.57,105.61,85.58Zm31.12-5.78c.77.14,1.13-.49,1.58-.89q3.93-3.54,7.8-7.13a310.17,310.17,0,0,1,25.48-21.12c7.56-5.65,15.46-10.81,23.47-15.81a55.88,55.88,0,0,1,7.86-4.1c1.32-.57,2.62-1.2,3.91-1.82a6.83,6.83,0,0,0,.95-.78c-1.13-.06-1.9-.11-2.68-.13-1,0-1.92,0-2.88,0A10.55,10.55,0,0,1,194,23.77c-.15-.19-.29-.39-.44-.57-1.69-2.1-1.49-2.08-3.76-.5-.46.32-.91.66-1.35,1-2.47,2-4.95,4.05-7.41,6.1a131.79,131.79,0,0,0-15.41,14.75Q160,51.1,154.4,57.72q-6.83,8.2-13.56,16.5c-1.45,1.79-2.71,3.75-4.06,5.63a1.42,1.42,0,0,0-.13.12.4.4,0,0,0,0,.11Zm.52-4.31a10.31,10.31,0,0,0,1-1c.91-1.12,1.75-2.29,2.67-3.4,7.16-8.59,14.3-17.21,21.52-25.76a117.26,117.26,0,0,1,14.22-14.23c3.91-3.3,7.88-6.52,11.82-9.78l.78-.68c-.91-.49-1.72-.94-2.54-1.36a10.56,10.56,0,0,1-4.24-3.79c-.73-1.14-1.36-2.35-2-3.55s-1.11-2.31-1.76-3.4c-1.61-2.68-1.47-2.45-3.57-.21a4.79,4.79,0,0,0-.57.77c-2,3.09-4.07,6.12-5.91,9.3-5.4,9.34-10.65,18.77-16.07,28.09-5.22,9-10.22,18.09-14.72,27.46-.24.5-.41,1-.61,1.55l-.08.08ZM123.36,7.42c-.21.07-.49.08-.63.23q-1.7,1.86-3.34,3.77a19.75,19.75,0,0,1-6.19,4.85,13,13,0,0,1-8.36,1.43,20.88,20.88,0,0,0-2.38-.27,13.68,13.68,0,0,0-1.92,0c-1.45.08-1.7.39-1.43,1.76.32,1.57.61,3.14,1,4.68q3.57,12.95,7.2,25.87a241.61,241.61,0,0,0,8.39,23.22,128.56,128.56,0,0,0,6,13.09c.22.4.48.77,1,1.62,0-1,0-1.42,0-1.87-.25-6.47-.57-12.94-.73-19.41-.23-9.51-.35-19,.24-28.54.27-4.47.13-9,.29-13.43s.46-9.11.69-13.66c.06-1.11.08-2.23.13-3.34l.08-.12ZM107.53,102a22.07,22.07,0,0,0-2.3.57,200.29,200.29,0,0,0-20.58,9.18c-6.42,3.25-12.81,6.55-19.26,9.74-8.68,4.3-17.14,9-25.42,14-10.62,6.42-20.89,13.36-31,20.48-1,.69-1.92,1.44-2.86,2.18a.58.58,0,0,0,.08,1,12.2,12.2,0,0,0,4.45,1.72c2.36.45,4.74.69,7.11,1.08a20.16,20.16,0,0,1,3.95.87,4.47,4.47,0,0,1,3.2,4.55,29.5,29.5,0,0,1-1.16,8.52c-.34,1.13-.69,2.26-1,3.39a1.75,1.75,0,0,0,.88-.72,76.78,76.78,0,0,1,7.66-9.84c5.2-5.64,10.37-11.33,15.72-16.83a398.66,398.66,0,0,1,31.57-29.1,212.67,212.67,0,0,1,27.65-19.84,12.64,12.64,0,0,0,1.33-1l.13-.14Zm17.81-.69c-.35,4.74-.69,9.36-1,14-.22,3.19-.43,6.38-.58,9.57-.28,5.75-.56,11.49-.74,17.24-.16,5,0,10.07.35,15.1.15,2.47.29,4.95.64,7.4,1.14,8,2.37,16,4.22,23.82a98.61,98.61,0,0,0,3.91,13.83c1.57,4,3.32,8,5,11.92.71,1.66.85,1.67,2.49,1a5.51,5.51,0,0,0,2.43-1.87,10.61,10.61,0,0,0,2.29-6.91,18.34,18.34,0,0,1,0-2.87,2.91,2.91,0,0,1,2.83-2.74c.87-.08,1.76,0,2.63-.15a14.53,14.53,0,0,1,4.06,0,11.15,11.15,0,0,0,1.91.13,17.9,17.9,0,0,1,6.56,1.2l4.07,1.43a7,7,0,0,0,3.55.29c.45-.07.93-.18,1-.55-1.89-3-3.81-5.72-5.47-8.62-3.39-5.89-6.63-11.86-9.94-17.79a132.84,132.84,0,0,1-6.3-13.19c-1.39-3.31-2.77-6.63-4.22-9.92-2.35-5.34-4.55-10.74-6.42-16.27s-3.77-11.21-5.75-16.77c-2.06-5.8-4.23-11.56-6.39-17.32C126.27,102.59,126.19,101.81,125.34,101.31Zm-7.42,2.38c-.81.68-1.31,1-1.74,1.46-2.64,2.67-5.37,5.27-7.86,8.07-4.74,5.31-9.38,10.71-14,16.14-6.09,7.21-12.22,14.39-18.1,21.77-6.42,8.07-12.62,16.32-18.82,24.56Q49.85,185.76,42.54,196c-2.59,3.65-4.88,7.51-7.27,11.3a33.06,33.06,0,0,0-1.64,3.19.69.69,0,0,0,.39,1,8.17,8.17,0,0,0,2,.64,23.56,23.56,0,0,0,6.22,0,69.29,69.29,0,0,1,6.9-.75,23,23,0,0,0,10.57-2.69c2.42-1.4,4.59-1,6.49,1.13a23.49,23.49,0,0,1,2.34,3.31c.81,1.29,1.5,2.64,2.28,3.95a5,5,0,0,0,.87.8c.5-2.94.89-5.71,1.46-8.44a174.6,174.6,0,0,1,6.73-23.75c3-8.27,6.12-16.48,9.3-24.68A275.36,275.36,0,0,1,107,123.25q4.83-8.41,9.69-16.84A9.67,9.67,0,0,0,117.92,103.69Zm1,3.06-.33-.07c-1.67,2.91-3.32,5.83-5,8.73a315,315,0,0,0-15.51,29.22c-3.89,8.6-7.36,17.37-10.73,26.17-3,7.84-6,15.67-8.41,23.73-2.17,7.36-4.24,14.74-5.17,22.39-.26,2.15-.28,2.45,2,1.89.54-.13,1.08-.31,1.61-.48a30.33,30.33,0,0,0,5.45-2.46A26.59,26.59,0,0,1,86.73,214a4.82,4.82,0,0,1,6,2.28c1.72,3.07,3.39,6.16,5.18,9.19a42.22,42.22,0,0,0,2.77,3.89c.2.26.44.67,1,.42-.14-1.43-.34-2.85-.41-4.28a215.78,215.78,0,0,1,.42-30.19c.58-6.13,1.21-12.25,2.14-18.34,1.85-12.09,4.19-24.09,6.89-36,2.23-9.9,4.77-19.73,7.18-29.58C118.19,109.83,118.57,108.29,119,106.75Zm-88,100.11c.4-.63.67-1,.89-1.4a120.79,120.79,0,0,1,8-12.81c4.31-6,8.62-11.92,13.05-17.79,6.59-8.74,13.14-17.53,20-26.08s14-16.85,21-25.25a252.88,252.88,0,0,1,20.39-22.28c.12-.1.15-.31.36-.8-1.33.67-2.33,1.14-3.3,1.68a168.89,168.89,0,0,0-18,11.46,365.82,365.82,0,0,0-45,39.53c-5.37,5.48-10.53,11.16-15.74,16.8A74.45,74.45,0,0,0,25,179.49a20.39,20.39,0,0,0-1.18,2.09.65.65,0,0,0,.18.6,5.45,5.45,0,0,0,1.25.69c1.48.59,3,1.14,4.48,1.7a4.84,4.84,0,0,1,3.39,5,16,16,0,0,1-.23,2.86c-.44,2.44-1,4.86-1.42,7.29A21,21,0,0,0,30.91,206.86Zm91.83-97.59c-.33,1-.54,1.65-.7,2.26-2.76,11.17-5.75,22.29-8.06,33.57-1.37,6.66-2.77,13.31-4,20-1.46,8-2.8,16.06-3.6,24.19-.57,5.89-1.25,11.76-1.26,17.69,0,4.72.05,9.44,0,14.16a55.13,55.13,0,0,0,1.12,10.61,5.69,5.69,0,0,0,.82-.58,29.51,29.51,0,0,0,2.28-2.47,10.64,10.64,0,0,1,7.22-4.3,2.64,2.64,0,0,0,2.31-1.8c.2-.52.44-1,.63-1.56.51-1.34,1-2.7,1.51-4a5.06,5.06,0,0,1,4.22-3.46,5.27,5.27,0,0,1,3,.52c1.17.53,2.31,1.11,3.46,1.67a5,5,0,0,0,4,.25,6.71,6.71,0,0,0-.25-.94c-1.24-2.95-2.55-5.87-3.72-8.85-1.09-2.75-2.17-5.51-3-8.33-1-3.29-1.75-6.65-2.54-10-1.43-6-2.4-12.07-3.31-18.15a117.71,117.71,0,0,1-1.4-12.39,318.91,318.91,0,0,1,.49-35.25c.22-3.27.51-6.54.73-9.81C122.79,111.42,122.74,110.57,122.74,109.27Zm11.64-18.15c8.26.2,16,.38,23.76.58q9.72.24,19.42.51c4.8.14,9.59.35,14.38.5,6.07.2,12.15.37,18.22.55,4.79.14,9.58.37,14.35.95.76.09,1.53.15,2.4.23-1.45-2.72-2.4-3.62-4.81-4.6-1.26-.51-2.56-.93-3.79-1.51a3.94,3.94,0,0,1-2.44-4.26,18.55,18.55,0,0,1,.44-2.34c.2-.86.44-1.71.69-2.55a7.82,7.82,0,0,0-.33-5.39c-.21-.52-.44-1-.6-1.56a4.09,4.09,0,0,1,1.66-5c.64-.47,1.36-.83,2-1.27s1.48-1,2.16-1.51A3.82,3.82,0,0,0,223.31,62c.14-.91-.16-1.17-1.16-1a4.36,4.36,0,0,1-.94.14,33.79,33.79,0,0,0-10.11,1.83c-11.35,3.3-22.69,6.65-33.84,10.61-6,2.14-12.1,4.17-18,6.59-8,3.26-15.84,6.84-23.75,10.29A12.55,12.55,0,0,0,134.38,91.12Zm.28,10.15.77,1.15c1.23,1.77,2.5,3.52,3.68,5.32,5,7.7,10.3,15.23,15.72,22.66,4.16,5.67,8.23,11.41,12.48,17,4.79,6.31,9.73,12.49,14.62,18.71a72.56,72.56,0,0,0,7.52,8.06c.26.25.5.63,1.11.35.12-1.28.31-2.62.38-4a8.2,8.2,0,0,1,4-6.73,16.46,16.46,0,0,1,5.72-2.39c1.64-.33,3.31-.57,4.94-.94a14.19,14.19,0,0,0,2.71-.92c1.8-.82,1.88-1.23.54-2.8a27.88,27.88,0,0,0-2.33-2.41c-3-2.84-6.07-5.68-9.17-8.45a375.37,375.37,0,0,0-35.6-28.39,298,298,0,0,0-25.46-15.8C135.83,101.48,135.44,101,134.66,101.27ZM4.78,154a4.84,4.84,0,0,0,.7-.33,344.65,344.65,0,0,1,29.15-19.78q14.46-9,29.74-16.55c5.87-2.89,11.7-5.89,17.55-8.85s11.73-5.85,17.84-8.23c4.39-1.71,8.83-3.29,13.26-4.92.59-.22,1.2-.42,1.79-.66.12-.05.27-.3.23-.36s-.26-.43-.44-.46a4.29,4.29,0,0,0-1.19,0c-1.75.14-3.51.24-5.25.45-3.09.36-6.21.61-9.26,1.22C87.14,97.82,75.52,100.71,64,104a201.58,201.58,0,0,0-39.08,15.67c-1.84,1-3.62,2.06-5.47,3A1.86,1.86,0,0,0,18.37,125q.45,1.86,1,3.69a5.63,5.63,0,0,1,.08,3.3A24,24,0,0,1,14,142.3c-1.93,2-3.82,4.09-5.71,6.16-.8.88-1.61,1.77-2.34,2.72A4.85,4.85,0,0,0,4.78,154ZM221.44,56.65a7.67,7.67,0,0,0-3-2.76c-1.11-.63-2.25-1.21-3.4-1.78a8.38,8.38,0,0,1-4.25-4.68,38.21,38.21,0,0,1-1.34-4.34,8.17,8.17,0,0,1,.81-6c.59-1,1.27-2,1.85-3.09a21.09,21.09,0,0,0,1-2.17c.11-.27-.26-.69-.54-.62a16.11,16.11,0,0,0-2.27.7c-2.7,1.22-5.39,2.45-8,3.75-1.64.81-3.24,1.73-4.82,2.67s-3.1,2-4.66,3a273,273,0,0,0-32.92,24c-7,5.88-13.59,12.15-20.36,18.26a4.5,4.5,0,0,0-.49.76c.66-.24,1-.35,1.37-.5l5.25-2.35c6.22-2.73,12.42-5.52,18.82-7.81,12.8-4.56,25.67-8.93,38.73-12.68,4.07-1.16,8.15-2.31,12.26-3.33C217.34,57.13,219.34,57,221.44,56.65Zm-111,35.42c-1.72-.26-2.89-.47-4.07-.6-5.09-.56-10.18-1-15.25-1.66C84.24,89,77.3,88.48,70.36,88.2a154.85,154.85,0,0,0-17.5.2,109.29,109.29,0,0,0-15.18,2.09,97.93,97.93,0,0,0-12.48,3.4c-1,.35-1.91.8-2.86,1.22a1.34,1.34,0,0,0-.84,1.34c.06,1.36.11,2.72.26,4.06s.45,2.84.63,4.27c.49,3.83.13,7.49-2.17,10.78a9,9,0,0,0-1.52,4.25c0,.35-.21.79.37,1,.25-.12.54-.23.82-.39a190.34,190.34,0,0,1,36.59-16c9.43-3.09,19.05-5.43,28.68-7.77,5.67-1.38,11.35-2.73,17.13-3.56C104.81,92.69,107.36,92.44,110.47,92.07Zm21.43,12.5-.28.28c.27.74.53,1.49.8,2.24,3,8.35,6,16.69,8.86,25.08,2.15,6.27,4.41,12.5,7.08,18.58,2,4.61,3.93,9.26,5.94,13.88,1,2.27,2,4.55,3.16,6.72q6.27,11.46,12.68,22.85a45.08,45.08,0,0,0,2.53,3.77,6.3,6.3,0,0,0,.81.83,5.81,5.81,0,0,0,.33-.5,4.93,4.93,0,0,0,.27-.67,22.14,22.14,0,0,0,.92-9.93,28.89,28.89,0,0,1-.26-3.34,7.72,7.72,0,0,1,.3-2.13,3.79,3.79,0,0,1,4.56-2.89,20.71,20.71,0,0,1,2.28.71c.84.27,1.67.55,2.51.81a3.44,3.44,0,0,0,2.55-.36,3.07,3.07,0,0,0,1.59-1.52c-1.13-1-2.17-1.91-3.12-2.87a87.19,87.19,0,0,1-8.24-9.35c-1.47-2-3-3.91-4.55-5.87-4.74-6.14-9.59-12.19-14.17-18.44-8.22-11.22-16.41-22.46-24-34.14C133.66,107,132.76,105.82,131.9,104.57ZM97.21,19c-.5.56-.85.89-1.13,1.26-.85,1.16-1.68,2.33-2.53,3.5a19,19,0,0,1-3.91,4.19c-3.92,2.93-8.14,4.35-13,2.42-1-.42-2.12-.72-3.19-1a13.81,13.81,0,0,0-2.32-.58,21.44,21.44,0,0,0-3.1-.13c-.76,0-1,.53-.57,1.12.92,1.21,1.84,2.41,2.82,3.58C76.05,40.16,81.84,47,87.59,53.85A309.27,309.27,0,0,0,112,80.21c2.21,2.08,4.58,4,6.88,6,.22.18.49.45.78,0C109.28,64.91,102.68,42.32,97.21,19Zm41.08,78.63-.13.35c.68.4,1.37.79,2.06,1.18a301.49,301.49,0,0,1,30.39,19.62c8.44,6.2,16.58,12.78,24.49,19.64,5.68,4.92,11.26,10,16.59,15.25a4.12,4.12,0,0,0,.8.47,7.17,7.17,0,0,0-1.11-6.07c-.86-1.25-1.76-2.47-2.62-3.73a20,20,0,0,1-3-6c-1.17-4.25,0-7.48,3.62-10,.79-.55,1.64-1,2.46-1.49a13.47,13.47,0,0,0,1.63-1,6.81,6.81,0,0,0,1.3-1.38,1.11,1.11,0,0,0-.44-1.8,44.42,44.42,0,0,0-4.92-2.48q-5.24-2.06-10.57-3.85c-4.92-1.66-9.89-3.18-14.82-4.81-7.43-2.46-14.82-5-22.26-7.44-7.22-2.34-14.49-4.53-21.89-6.21C139.37,97.77,138.82,97.71,138.29,97.62Zm-.35-2.2c1,.32,1.6.55,2.21.68A203.5,203.5,0,0,1,160,101.62c14.13,4.57,28.24,9.25,42.33,13.94a69.37,69.37,0,0,1,12.38,5.14,2.86,2.86,0,0,0,.74.14,7.31,7.31,0,0,0-.26-2.89c-.34-1.23-.69-2.46-1-3.71a7.21,7.21,0,0,1,1.5-6.53,19,19,0,0,1,3-2.79,14.47,14.47,0,0,1,4.92-2.41,6.75,6.75,0,0,0,2.7-1.49,12.57,12.57,0,0,0,1.17-1.45c-.34-.79-1.09-.87-1.77-.95-2.86-.33-5.71-.73-8.58-.88-5.59-.28-11.18-.4-16.78-.58-1.75-.06-3.51-.06-5.27-.14-5.27-.22-10.54-.54-15.81-.69-8.95-.26-17.9-.42-26.85-.63-2.71-.07-5.43-.21-8.14-.27C142.3,95.39,140.34,95.42,137.94,95.42Zm-9.23-13c.51-.85.81-1.3,1.06-1.78,1.9-3.7,3.86-7.37,5.68-11.11,3.9-8,8.18-15.75,12.61-23.44,5.72-9.9,11.36-19.84,17-29.78a111.46,111.46,0,0,1,6.35-9.89c.5-.69,1-1.37,1.68-2.23a6,6,0,0,0-3.54,1.16c-.92.63-1.79,1.33-2.7,2-3.5,2.53-6.51,2.44-9.65-.07-.81-.64-1.66-1.25-2.52-1.83-.66-.44-.93-.37-1.37.29a41.47,41.47,0,0,0-4,7.63c-.87,2.15-1.74,4.3-2.65,6.43a273.38,273.38,0,0,0-11.59,32.76c-2.66,9.3-4.49,18.81-6.35,28.3A10.71,10.71,0,0,0,128.71,82.41ZM103,86.9a3.94,3.94,0,0,0-.63-.65,51.77,51.77,0,0,0-9.53-4.47c-8.65-2.86-17.33-5.59-26.09-8.11C56.42,70.72,46,68.32,35.54,66c-1.24-.28-2.49-.57-3.74-.83a.67.67,0,0,0-.83.63,17.83,17.83,0,0,0,.38,2.83c.41,1.62,1,3.21,1.42,4.83a10.89,10.89,0,0,1-1,8.57,21.94,21.94,0,0,1-3.86,5.17l-1.86,1.88c.6.37,1,0,1.43-.14,1.54-.43,3.05-1,4.59-1.39,10.9-2.93,22-3.79,33.26-3.64,3,0,5.91.15,8.86.3s6.07.32,9.09.61c5.25.51,10.49,1.13,15.73,1.69C100.28,86.64,101.53,86.76,103,86.9Zm23.79-6.2c1.71-7.81,3.22-15.16,4.92-22.46a229.93,229.93,0,0,1,9.12-28.77c2.35-6.2,4.95-12.3,7.52-18.41C149.06,9.3,150.1,7.67,151,6c.13-.25.46-.48.1-1a14,14,0,0,0-1.5,1,18.86,18.86,0,0,1-6.73,3.58,12.7,12.7,0,0,1-9.14-.26c-.88-.38-1.73-.83-2.58-1.26-.65-.32-1.27-.68-1.92-1s-.83-.1-1.15.47a8.7,8.7,0,0,0-.79,3.72c-.34,4.62-.61,9.25-.59,13.89,0,3.36,0,6.72-.19,10.07-.37,7.74-.76,15.49-.56,23.25.18,6.87.44,13.74.67,20.61C126.62,79.48,126.68,79.87,126.76,80.7Zm-12.44,7.6c0-.13,0-.22,0-.26-.33-.34-.65-.69-1-1A212.72,212.72,0,0,1,95.85,69.6c-7.4-8.39-14.59-17-21.84-25.48C70.49,40,67,35.8,63.89,31.36c-.07-.1-.26-.12-.47-.21A11.14,11.14,0,0,0,61.11,35c-.71,1.69-1.32,3.43-2.08,5.1a10.12,10.12,0,0,1-5.91,5.63,2.41,2.41,0,0,0-.45.16c-.26.16-.5.36-.74.54a5.39,5.39,0,0,0,.72.85c.38.29.82.5,1.22.75,4.33,2.72,8.76,5.3,13,8.19,12.5,8.6,24.93,17.33,37.38,26,2.36,1.65,4.7,3.31,7,5A4.86,4.86,0,0,0,114.32,88.3Z"/></g></g></svg>