<svg xmlns="http://www.w3.org/2000/svg" viewBox="0 0 89.6 74.15"><title>Acartia</title><g id="Layer_2" data-name="Layer 2"><g id="Acartia"><path d="M48.49,63.49c0,.4.26.66.44,1a24.34,24.34,0,0,1,2.8,6.6,5.45,5.45,0,0,1,.14.58c0,.19,0,.43-.22.47s-.34-.18-.39-.37a21.81,21.81,0,0,0-1.39-4.08A23.7,23.7,0,0,0,48,64.18c-.11-.16-.17-.38-.42-.38-.26.23,0,.43,0,.63l2.23,5.31a10.14,10.14,0,0,1,.79,3.84.51.51,0,0,1-.3.57c-.63-1-.31-2.3-.78-3.36s-.93-2.3-1.44-3.42-.61-2.29-1.59-3.09a16.57,16.57,0,0,0,2.36,8c.13.2.26.4.38.6s.3.45,0,.64-.43-.06-.55-.26c-.26-.41-.53-.81-.76-1.22a15.26,15.26,0,0,1-1.94-5.86c-.06-.5-.38-.94-.31-1.47a9.86,9.86,0,0,0,.26,3,16.69,16.69,0,0,0,.33,2.73.94.94,0,0,1,0,.47c0,.11-.06.26-.2.24a.53.53,0,0,1-.3-.14.67.67,0,0,1-.15-.32c-.12-2.63-.94-5.21-.7-7.86.23-2.44.15-4.87.21-7.3a9.06,9.06,0,0,0-.39-2.42,8,8,0,0,0-.4,2.61c0,2.35,0,4.7.21,7A25.68,25.68,0,0,1,44,68.94a17.3,17.3,0,0,1-.17,1.78c0,.22-.15.51-.46.42s-.22-.31-.2-.5c.15-1.35.26-2.7.5-4a8.48,8.48,0,0,0,.1-1.88A18.43,18.43,0,0,1,41,73c-.09.13-.16.28-.25.41s-.27.32-.48.17-.15-.35,0-.53A20.56,20.56,0,0,0,42,69.8a20.42,20.42,0,0,0,1.09-5.49c-.94.79-1.11,2-1.57,3s-.93,2.21-1.4,3.31-.31,2.36-.71,3.46c-.47,0-.44-.27-.43-.49a11.41,11.41,0,0,1,1-4.3c.7-1.61,1.37-3.24,2.05-4.86.08-.2.3-.4,0-.66-.4.08-.5.48-.67.76a24.65,24.65,0,0,0-2.92,6.67c-.06.23-.11.47-.19.69a.29.29,0,0,1-.39.18.35.35,0,0,1-.15-.29,5.58,5.58,0,0,1,.13-.69,24.57,24.57,0,0,1,2.91-6.81c.2-.34.52-.62.54-1.05.2-.1.4-.2.37-.49a.47.47,0,0,0-.35.51,9.35,9.35,0,0,0-2,2.9c-.15.28-.27.58-.4.87s-.19.5-.49.35-.18-.39-.08-.62a18.73,18.73,0,0,1,3.33-5.09,3.86,3.86,0,0,0,.74-1.42c.48-1.37-.07-2.78.37-4.11a6.34,6.34,0,0,1,0-3.06,2.63,2.63,0,0,1,.06-.48,5,5,0,0,0,.31-1,7.47,7.47,0,0,0-.24-1.4c-1.09.39-1.62-.4-2.19-1.09a5.19,5.19,0,0,1-1.29-2.91,10.89,10.89,0,0,0-.63-1.93,9.34,9.34,0,0,1-.48-2.58,2.14,2.14,0,0,0-.22-.91,3.31,3.31,0,0,1-.24-1.41,7.44,7.44,0,0,0-.15-3.08.64.64,0,0,1,0-.24c.41-2.62.25-5.3.79-7.92A20.35,20.35,0,0,0,39,23.26a3.35,3.35,0,0,1,.13-1.19c.75-1.93.76-4.05,1.52-6,.24-.61-.2-1.31,0-2,.08-.22-.3-.32-.5-.44a6.83,6.83,0,0,0-2.44-.55,5.32,5.32,0,0,0-4.34.73,5.24,5.24,0,0,1-1.43.55c-1.12.39-2.18,1-3.26,1.46-.48.23-.48.69-.54,1.13,0,.19-.2.49-.34.32-.6-.7-.63,0-.76.29A31,31,0,0,0,25.51,22a1.61,1.61,0,0,1-.45,1c-.44-.32-.28-.71-.18-1.08a37.83,37.83,0,0,1,1.56-4.53l.38-.87a12.79,12.79,0,0,1-2.08.31,5.51,5.51,0,0,0-2,.11,1.32,1.32,0,0,1-.59,0c-2.26-.3-4.54-.27-6.8-.4-.2,0-.4,0-.6,0a.76.76,0,0,0-.78.73,5.43,5.43,0,0,1-.36,2c-.57-.62-.34-1.26-.3-1.84.07-.89.11-.89-.8-.93h-.12c-2-.07-2.25.05-3.06,1.9A29.05,29.05,0,0,0,7.7,22.91a10.31,10.31,0,0,0-.19,1.91c0,.23,0,.53-.33.51s-.34-.3-.35-.54a7.46,7.46,0,0,1,.31-2.25,26.29,26.29,0,0,1,1.5-4.29l.45-1.06c-.26-.36-.54-.18-.78-.1-.91.29-1.81.62-2.72.9a9.32,9.32,0,0,0-3.38,1.75,7.77,7.77,0,0,1-.69.48c-.18.11-.42.15-.53,0s.06-.35.22-.48a23.2,23.2,0,0,1,3.1-2l.06-.07,0,.09a15.59,15.59,0,0,0-3.79.38c-.25.05-.51.06-.54-.27s.19-.34.4-.37c.74-.12,1.49-.22,2.39-.35-.42-.41-.85-.26-1.23-.31s-.79.05-.76-.36.53-.37.87-.33l3.9.56a3.81,3.81,0,0,0,2.55-.31c.1-.36-.2-.51-.36-.72a19.94,19.94,0,0,1-2.87-5.9,2.8,2.8,0,0,1-.11-.59c0-.2,0-.43.22-.48s.28.21.34.39A27.53,27.53,0,0,0,7,13.15a14.74,14.74,0,0,0,1.5,2.31A1.25,1.25,0,0,0,9.7,16c1.29-.29,2.61-.32,3.92-.5.8-.11.81-.14.63-.9-.57-2.36-.29-4.77-.33-7.16a.74.74,0,0,1,.15-.31s.07,0,.16,0c.31.19.18.54.19.82a43.85,43.85,0,0,0,.23,5.38c0,.16,0,.33,0,.48.25,1.51.37,1.6,1.9,1.62,2,0,3.91-.27,5.87-.27,1.25,0,2.5-.39,3.78-.43.79,0,1.4-.74,2.11-1.1s1.22-.74,2.16-1.14a14,14,0,0,0-2.76,0A9.66,9.66,0,0,1,25,12.16a22.57,22.57,0,0,0-2.71-.36,1.23,1.23,0,0,1,1.5-.56c.81.2,1.64.32,2.46.5a5,5,0,0,0,2,.09,22.05,22.05,0,0,1,4.06-.18,1.74,1.74,0,0,0,.42-.08c.2-.46-.64-.55-.31-.91s.66,0,1,.19a1.89,1.89,0,0,0,1.68-.08A15.1,15.1,0,0,0,33.71,9c-.43-.58-.87-1.15-1.27-1.74-.14-.21-.43-.51-.1-.73s.45.16.59.38a20.87,20.87,0,0,0,2.4,3c.2.2.35.45.75.5,0-1.3.12-2.56-.82-3.68a7.49,7.49,0,0,1-1.49-2.85,1.29,1.29,0,0,1,.11-1.3c.54.62.48,1.4.82,2a10.55,10.55,0,0,0,1.19,1.86,7.58,7.58,0,0,0-.09-2.18A22,22,0,0,1,35.7.49c0-.23,0-.52.36-.49s.3.24.31.45,0,.4,0,.6a2.5,2.5,0,0,0,0,.72c.49,1.78.14,3.65.51,5.45a3.35,3.35,0,0,0,.84,1.68c.91.94,1.69,2,3.09,2.32a.71.71,0,0,1,.3.18c.45.4.83,1,1.33,1.15s1.12-.34,1.7-.43a4.26,4.26,0,0,1,2.47.3c.48.23.77.22,1.11-.24a5.54,5.54,0,0,1,1.83-1.28c1.55-1,3-2.06,3.26-4.12A17.87,17.87,0,0,0,53,4.05c0-1.2.45-2.35.29-3.56,0-.24,0-.51.37-.49s.3.25.3.46a22.35,22.35,0,0,1-.08,3.47c-.1.7-.14,1.41-.23,2.37a8,8,0,0,0,1.92-3.66c.43,0,.38.27.39.5a3.1,3.1,0,0,1-.36,1.37,7.84,7.84,0,0,1-.93,1.68,4.92,4.92,0,0,0-1.09,4.14c.31.09.45-.21.62-.39A17.53,17.53,0,0,0,56.5,7.07c.12-.16.21-.34.33-.5a.27.27,0,0,1,.41-.07.23.23,0,0,1,.09.31,6.11,6.11,0,0,1-.52.94c-.76,1-1.54,1.93-2.38,3a1.75,1.75,0,0,0,1.7.11l.42-.22c.23-.11.48-.2.63.06s-.13.33-.26.46a2.75,2.75,0,0,0-.22.26c.06.07.1.18.15.18,1.75.05,3.5.12,5.24.25a11.8,11.8,0,0,0,3.42-.54,1.47,1.47,0,0,1,1.75.46c-2.69.37-5.2,1-7.84.54l0,.25c1.22.71,2.43,1.42,3.66,2.12a1.13,1.13,0,0,0,.58.1,11.38,11.38,0,0,1,3.07.38,1.08,1.08,0,0,0,.35,0c2.17-.13,4.31.31,6.47.23.91,0,.93,0,1.16-.86a14.24,14.24,0,0,0,.42-3.32c0-1.07,0-2.15,0-3.23,0-.31-.07-.64.2-.87.38,0,.35.31.34.52-.11,2.39.3,4.8-.4,7.15-.15.51.11.64.53.69l2.74.31a1.31,1.31,0,0,1,.35,0c1.5.6,2.28-.25,3-1.39A20.73,20.73,0,0,0,84,9.54c.06-.19.13-.38.19-.57s.09-.43.37-.34.23.3.19.5-.16.7-.27,1a17.46,17.46,0,0,1-3.21,6,3.46,3.46,0,0,0,2.66.43c1.31-.17,2.61-.37,3.91-.55l.36,0c.24,0,.54.05.54.35s-.3.31-.54.35c-.45.07-.95-.1-1.5.31.9.13,1.67.23,2.43.36.24,0,.49.14.41.45s-.29.25-.49.21A33.65,33.65,0,0,0,85,17.56a17.78,17.78,0,0,1,3.24,2c.12.1.25.19.36.3a.21.21,0,0,1,0,.32.56.56,0,0,1-.21.09,1.06,1.06,0,0,1-.73-.37c-2-1.81-4.69-2.1-7.18-3.13A2.15,2.15,0,0,0,80.82,18a26.42,26.42,0,0,1,1.86,5.68,5.29,5.29,0,0,1,.07,1.19c0,.25-.11.49-.42.47s-.28-.25-.28-.44c0-2.65-1.16-4.94-2.08-7.32a1.53,1.53,0,0,0-1.48-1.11,10.69,10.69,0,0,0-2.33,0,4.84,4.84,0,0,1-.11,2.78,5.12,5.12,0,0,1-.42-2c-.11-.61-.39-.84-.94-.83-.88,0-1.76,0-2.64.08-1.51.11-3,.23-4.52.25a13.57,13.57,0,0,1-4.77-.39c.34.86.64,1.57.89,2.3.36,1,.67,2.05,1,3.07A1.31,1.31,0,0,1,64.61,23c-.45-.2-.45-.59-.54-.91a36.49,36.49,0,0,0-1.5-4.42c-.17-.42-.18-.42-.79-.32-.2,0-.34-.08-.33-.23,0-1.15-.85-1.35-1.63-1.78-1.47-.81-3.16-1.06-4.59-2A3.38,3.38,0,0,0,52.8,13a15,15,0,0,0-3.27.58.86.86,0,0,0-.58.9,9,9,0,0,0,.49,3.23,4.23,4.23,0,0,1,.26,1.65,2,2,0,0,0,.26,1,7.88,7.88,0,0,1,.66,3.25,52.43,52.43,0,0,0,.67,5.58,19.88,19.88,0,0,1,.35,5.22,1.11,1.11,0,0,0,.06.7,2.38,2.38,0,0,1,0,1.76,3.33,3.33,0,0,0-.08,1.54,3.17,3.17,0,0,1,.08,1.18c-.46,1.93-.47,4-1.36,5.8a2.07,2.07,0,0,0-.21.68,5.94,5.94,0,0,1-1.79,3.57c-.36.38-.73.77-1.35.52a.27.27,0,0,0-.41.25,6,6,0,0,0-.06,1.64,6.29,6.29,0,0,1,.28,3.74,1.25,1.25,0,0,0,.07.71,1.68,1.68,0,0,1,.11.82,7,7,0,0,0,.2,2.8A2.44,2.44,0,0,0,48,61.71a18.56,18.56,0,0,1,3.14,4.65,4.28,4.28,0,0,1,.23.55c.08.21.07.43-.15.51s-.35-.12-.43-.31a16.61,16.61,0,0,0-1.72-3c-.16-.23-.28-.49-.57-.59a.82.82,0,0,0-.59-.74C48,63.05,48.13,63.38,48.49,63.49Zm-4.4-50.62a3.28,3.28,0,0,0-1.87.65,1.54,1.54,0,0,0-1,1.73,3.54,3.54,0,0,1-.1,1.29c-.56,2.15-1.07,4.31-1.59,6.46a.49.49,0,0,0,0,.12A40.77,40.77,0,0,1,38.83,30c-.14,1,.06,1.39,1,1.74a6.74,6.74,0,0,0,2.56.53c1.6,0,3.19,0,4.79,0a6.73,6.73,0,0,0,2.56-.52c1-.37,1.19-.81,1-1.83A44.66,44.66,0,0,1,50,23.39a6.33,6.33,0,0,0-.66-2.77A3.49,3.49,0,0,1,49,19a4.66,4.66,0,0,0-.24-1.53,6.13,6.13,0,0,1-.46-2.78.71.71,0,0,0-.16-.56,4,4,0,0,0-2.62-1.27c.17.64.47,1.22-.18,1.68a.83.83,0,0,1-1,0C43.65,14.15,43.85,13.58,44.09,12.87ZM38.8,31.94c-1,2.05-.25,3.62,1.85,4a24.72,24.72,0,0,0,8.45,0c2-.34,2.21-2,2-3.34-.07-.43-.32-.61-.77-.38a5.28,5.28,0,0,1-2.88.67c-1.39-.14-2.76.11-4.15,0A9.8,9.8,0,0,1,38.8,31.94Zm.33,10.92A4.79,4.79,0,0,0,39.68,45a1.89,1.89,0,0,0,2.44,1.28,7.3,7.3,0,0,0,.93-.19,6.51,6.51,0,0,1,3.42,0c.46.12.94.17,1.4.31A1.16,1.16,0,0,0,49,46.09a4.7,4.7,0,0,0,1.51-3.18C46.64,42.78,42.93,42.85,39.13,42.86Zm11.92-6.93a19.53,19.53,0,0,1-12.59,0,2.84,2.84,0,0,0,.22,1.83,2,2,0,0,0,1.89,1.55c1.35.07,2.68.31,4,.28s2.53-.13,3.8-.22C50.46,39.19,51.39,38,51.05,35.93Zm0,3.07a4.42,4.42,0,0,1-1.63.83,27.82,27.82,0,0,1-8.3.13,3.59,3.59,0,0,1-2.67-1.15,4.38,4.38,0,0,0,.82,3.06.92.92,0,0,0,.85.34h9.22a1,1,0,0,0,1-.4A4.21,4.21,0,0,0,51.08,39ZM47.34,49.73a5.42,5.42,0,0,0,2-3,4.33,4.33,0,0,1-2.55,0,6.65,6.65,0,0,0-3.19-.19,7.48,7.48,0,0,1-3.54.23,5.31,5.31,0,0,0,2.2,2.89c.24-1.13,1.07-1.11,1.88-1.11.4,0,.8,0,1.19,0A1.7,1.7,0,0,1,47.34,49.73Zm4.24-37.6a.8.8,0,0,0-.87-.88,3.52,3.52,0,0,0-2.45,1.3c-.13.19-.35.37-.18.62a.47.47,0,0,0,.64.12,7.55,7.55,0,0,1,2.48-.78A.41.41,0,0,0,51.58,12.13ZM39,11.26A.81.81,0,0,0,38,12c-.11.45.22.52.56.57a6.79,6.79,0,0,1,2.16.67,1.22,1.22,0,0,0,.45.13.36.36,0,0,0,.32-.57A3.58,3.58,0,0,0,39,11.26Zm15.89.25a.49.49,0,0,0-.42.38.37.37,0,0,0,.18.51,21.18,21.18,0,0,1,2.25,1.09.47.47,0,0,0,.71-.21c.2-.39,0-.61-.31-.75-.73-.33-1.46-.64-2.19-1ZM35.15,12c-.11-.28-.22-.59-.66-.4-.72.31-1.45.61-2.16.94-.31.14-.54.35-.37.74s.45.36.78.21a12.24,12.24,0,0,1,2.13-1A.37.37,0,0,0,35.15,12Zm9.65,37.2h0c-.36,0-.72,0-1.08,0a.41.41,0,0,0-.39.22c-.1.22,0,.38.16.53a.7.7,0,0,0,.5.3h1.56a.82.82,0,0,0,.59-.37c.25-.33.15-.63-.26-.67A9.73,9.73,0,0,0,44.8,49.17Zm1.39,13a2.71,2.71,0,0,0,.24-2.67c-.14-.24-.4-.34-.57-.07A3.1,3.1,0,0,0,45.69,61,1,1,0,0,0,46.19,62.14Zm-2.31-1.75c0-.14,0-.5-.07-.85a.35.35,0,0,0-.34-.28.32.32,0,0,0-.35.25A3.8,3.8,0,0,0,42.93,61c.06.36,0,1,.46,1s.46-.61.49-1ZM31.36,13.63c-.06-.23-.13-.43-.33-.5a2.58,2.58,0,0,0-2,1.09c-.09.38.17.64.54.48.55-.23,1.07-.53,1.59-.81C31.28,13.84,31.32,13.71,31.36,13.63Zm27.47-.5c-.39-.08-.49.14-.59.36s0,.37.23.47c.42.23.83.46,1.26.66.24.11.54.29.71-.07a.59.59,0,0,0-.19-.75A4.81,4.81,0,0,0,58.83,13.13ZM44.93,50.81c-.19,0-.38,0-.58,0s-.59-.08-.62.34a.68.68,0,0,0,.44.64A1.21,1.21,0,0,0,45,52c.54-.06.94-.41.85-.78S45.24,50.93,44.93,50.81ZM43.55,52.4a17.77,17.77,0,0,1-.47,2.35.43.43,0,0,0,.31.56c.32.07.4-.2.44-.43.1-.63.18-1.25.26-1.88C44.13,52.69,44.05,52.45,43.55,52.4Zm2.41,0c-.33.08-.54.21-.48.57.1.66.19,1.33.3,2,0,.19.11.41.36.38a.38.38,0,0,0,.34-.51C46.32,54,46.14,53.2,46,52.37ZM36.84,11.09c-.27.27-1-.15-1.06.57-.06.43.29.67.9.68s.76-.23.76-.8C37.44,11.17,37.24,11.07,36.84,11.09Zm15.91,0c-.34,0-.61,0-.63.37a.73.73,0,0,0,.7.87c.59,0,1-.19,1-.62C53.75,11,53.05,11.33,52.75,11.1ZM26.19,15.65a2.16,2.16,0,0,0,2.1-.35.41.41,0,0,0,.11-.62.37.37,0,0,0-.53-.06ZM43.86,57.17c-.24-.23.36-1-.32-1-.46,0-.23.74-.37,1.13a.4.4,0,0,0,0,.24c.08.29,0,.77.39.78s.23-.47.28-.74A2.14,2.14,0,0,0,43.86,57.17Zm19.5-41.52c-.67-.42-1.15-.74-1.65-1a.37.37,0,0,0-.59.15.38.38,0,0,0,.16.51A2.12,2.12,0,0,0,63.36,15.65ZM46,56a6.43,6.43,0,0,0-.25,2.09.27.27,0,0,0,.27.31.33.33,0,0,0,.27-.19A2.31,2.31,0,0,0,46,56Zm20.37-40.1a2.5,2.5,0,0,0-1.85-.41.28.28,0,0,0-.31.28c0,.17.13.26.28.33C65,16.37,65.57,16.09,66.32,15.91Zm-43,0a2.52,2.52,0,0,0,1.77.22.38.38,0,0,0,.31-.32.29.29,0,0,0-.3-.3A2.19,2.19,0,0,0,23.31,15.9Zm-.73.17c-.5-.38-.85-.1-1.21,0A1.12,1.12,0,0,0,22.58,16.07Zm45.78,0c-.53-.16-.87-.41-1.38,0A1.52,1.52,0,0,0,68.36,16.1ZM37.57,9.88a1.07,1.07,0,0,0-.06.3c0,.2.11.37.35.33a.17.17,0,0,0,.13-.25A.55.55,0,0,0,37.57,9.88ZM52,10.16c0-.1,0-.26-.13-.24a.38.38,0,0,0-.3.33c0,.13,0,.26.16.25S52,10.36,52,10.16Z"/></g></g></svg>