<svg xmlns="http://www.w3.org/2000/svg" viewBox="0 0 38.91 45.88"><title>Aegina</title><g id="Layer_2" data-name="Layer 2"><g id="Aegina"><path d="M30.84,33.58c-.36,1.38-.66,2.65-1,3.89a24.83,24.83,0,0,1-3.57,7.62c-.47.64-1,.94-1.33.72s-.29-1.05.13-1.55A10,10,0,0,0,26.7,40.5,33.28,33.28,0,0,0,28,36a8.46,8.46,0,0,0,.29-2.73,18.8,18.8,0,0,1-8.78,2,18.54,18.54,0,0,1-8.87-2.1,13.9,13.9,0,0,0,.49,3.34,40.69,40.69,0,0,0,2.09,6.56,2.08,2.08,0,0,0,.48.81,1.67,1.67,0,0,1,.52.92c.06.3.17.7-.15.88a.76.76,0,0,1-1-.27,18.23,18.23,0,0,1-1.57-2.39,34.72,34.72,0,0,1-3-8.26,6.89,6.89,0,0,0-.37-1.14c-.3.56-.82.38-1.26.37a.81.81,0,0,0-.88.59,11,11,0,0,0-1.12,4.09A3.09,3.09,0,0,0,5.45,41a1.14,1.14,0,0,1,.23.27c.16.33.29.67,0,1a.63.63,0,0,1-1-.08,5.25,5.25,0,0,1-1.79-3.52,6.9,6.9,0,0,1,.72-3.46c.07-.15.15-.28.22-.43.51-1.11.51-1.11-.66-1.58-.25-.1-.52-.19-.77-.3A2.94,2.94,0,0,1,.25,30c0-1.56-.28-3.1-.25-4.66,0-1.8.34-3.57.54-5.35a30.2,30.2,0,0,1,1.18-5.59A10.86,10.86,0,0,1,4.48,9.55a5.42,5.42,0,0,0,1-1.31A27.59,27.59,0,0,1,9.3,3.62a10.49,10.49,0,0,1,3.82-2.17c.7-.3,1.43-.5,2.14-.74a12.72,12.72,0,0,1,8.31,0A24.86,24.86,0,0,1,28.2,2.58a7,7,0,0,1,1.95,1.56,33.49,33.49,0,0,1,3.69,4.7,1.27,1.27,0,0,0,.21.29A12.73,12.73,0,0,1,37.63,16,45.55,45.55,0,0,1,38.9,26.64c0,1.5-.2,3-.34,4.5,0,.42-.39.67-.7.93a7.53,7.53,0,0,1-2.54,1.29c-.58.18-.6.51-.4,1a15.55,15.55,0,0,1,1,2.43,5.4,5.4,0,0,1-1.26,5.09l-.17.17c-.34.27-.7.64-1.14.23s-.22-.81.1-1.16c1-1,.8-2.31.6-3.52a11.4,11.4,0,0,0-1-2.91.84.84,0,0,0-.88-.58C31.7,34.07,31.15,34.33,30.84,33.58ZM13.22,44.64s0,.24.16,0l-.19,0c0-.08.09-.21-.1-.16Zm20.89-3.39c.14,0,.2-.12.24-.24.21-.11.16-.33.21-.5.59-.21.69-.73.72-1.24a11.47,11.47,0,0,0,0-2.27,14,14,0,0,0-1.17-3,.18.18,0,0,0-.08-.09.38.38,0,0,0-.44,0,.2.2,0,0,0-.06.3,11.86,11.86,0,0,1,.5,1.08c.6,1.68,1.22,3.36.58,5.19l-.21.5a.3.3,0,0,0-.26.22l0,.05Zm-29.29,0,0,.05-.06,0A.28.28,0,0,0,4.57,41c-.07-.17-.15-.34-.22-.5a4.22,4.22,0,0,1-.26-1.76,12.08,12.08,0,0,1,1.17-4.2c.09-.19.5-.47,0-.67s-.47.21-.58.44c-.21.42-.35.88-.57,1.3a6.91,6.91,0,0,0-.42,3.86,1,1,0,0,0,.69,1c0,.18,0,.39.22.5A.3.3,0,0,0,4.82,41.26Zm24-34.82c0,.16.06.28.26.24-.09.22.07.54-.18.66s-.5-.15-.66-.36a6.71,6.71,0,0,1-.49-.81,4.47,4.47,0,0,0-3-2.08c.25.46.45.8.62,1.15A7.58,7.58,0,0,0,27.66,8.1a5.06,5.06,0,0,1,2.24,3,16,16,0,0,0,1,2.76A5.66,5.66,0,0,0,33,16.79a8.3,8.3,0,0,1,2.2,2.4c.12-.92-.47-1.69.09-2.5a1.83,1.83,0,0,1,.5,1.38,10.27,10.27,0,0,0,.59,3.38,4.85,4.85,0,0,1,.17,2.43,5.55,5.55,0,0,0,.28,3.94,2.14,2.14,0,0,1-.53,2.3c-.17.24-.56.29-.58.65.32.25.65.14,1,.16.87.06.88.05,1.07-.79A19.72,19.72,0,0,0,38,26.08a22.94,22.94,0,0,0-.12-3.71c-.28-2.09-.61-4.16-1.09-6.22A12.59,12.59,0,0,0,33.62,10a3,3,0,0,1-.47-.54A29.09,29.09,0,0,0,29.63,4.9,7.73,7.73,0,0,0,27.7,3.32,24.59,24.59,0,0,0,23,1.44,11.33,11.33,0,0,0,19.78,1a16.08,16.08,0,0,0-5.36,1A13.3,13.3,0,0,0,7.57,6.86,26.45,26.45,0,0,1,5.33,10a12.36,12.36,0,0,0-3.07,5.71c-.15.58-.19,1.18-.35,1.76A34.4,34.4,0,0,0,1,23a56.27,56.27,0,0,0,0,6.23,13.42,13.42,0,0,0,.25,1.41.39.39,0,0,0,.49.38c.49-.09,1,.11,1.5-.23-1.52-1.44-1.56-2.31-.82-3.92a2.77,2.77,0,0,0,.12-1.75,7.31,7.31,0,0,1-.17-2.8c.32-1.55.94-3,.82-4.67,0-.25,0-.75.54-.79.44.73-.13,1.46,0,2.32A14.47,14.47,0,0,1,7,15.88a1.2,1.2,0,0,0,.44-.67c.23-.68.53-1.33.82-2,.18-.4.53-.78.55-1.19A5.39,5.39,0,0,1,11.46,8c1.38-1,1.83-2.45,2.69-3.86a4.64,4.64,0,0,0-3.23,2.48,1.41,1.41,0,0,1-.25.41c-.17.2-.33.52-.66.36s-.1-.44-.18-.66c.19,0,.26-.07.26-.24.16,0,.22-.1.26-.23l.06,0,0,.07a.3.3,0,0,0-.25.23.34.34,0,0,0-.26.24,9.92,9.92,0,0,0-3.5,4.17A8,8,0,0,0,7.45,10c.12-.1.27-.2.42-.06a.34.34,0,0,1,.06.44,2.79,2.79,0,0,1-1,1,2.06,2.06,0,0,0-1.11,1.43,22.73,22.73,0,0,1-1.76,3.61c0,.1-.19.11-.36,0-.26-.77.2-1.36.62-1.92a5.33,5.33,0,0,0,1-2.64,3.73,3.73,0,0,1,.38-1.24C7.24,7.47,9.93,5.43,13,3.81a7.68,7.68,0,0,1,2.17-.54c.89-.17,1.66-.92,2.68-.54a3.75,3.75,0,0,1,3.24,0,.29.29,0,0,0,.22,0c.68-.42,1.21.1,1.8.26.34.1.61.39,1,.33a2.79,2.79,0,0,1,1.71.43,17.31,17.31,0,0,1,6.29,5,6.74,6.74,0,0,1,1.47,2.71A8.33,8.33,0,0,0,35,15.05,1.16,1.16,0,0,1,35,16.66c-.46-1.18-1.34-2-1.65-3.16a3.23,3.23,0,0,0-1.55-2.27,2.94,2.94,0,0,1-.82-.86.34.34,0,0,1,.06-.44c.16-.14.3,0,.42.06.35.31.68.63,1.09,1a9.51,9.51,0,0,0-3.5-4.28l-.26-.24c0-.14-.13-.2-.25-.24l0-.06.07,0C28.63,6.34,28.69,6.45,28.85,6.44ZM15.15,12c.31,0,.73.16.83-.35,0-.08-.13-.23-.22-.26-.53-.12-.47.36-.61.63l0,.06Zm8.64,0,0,.06-.06,0a4.93,4.93,0,0,0-.22-.53c-.07-.16-.2-.24-.36-.11a.48.48,0,0,0-.22.25c0,.18.09.29.24.32A5.42,5.42,0,0,0,23.79,12ZM5.32,31.22a4.76,4.76,0,0,0-2.5.84A3.14,3.14,0,0,1,5,32.61c-.1-.63.25-1,.26-1.41l.06-.07Zm28.3,0s-.07-.1,0,0a4.28,4.28,0,0,0,.47,1.4c.59-.66,1.31-.47,2-.58A6.07,6.07,0,0,0,33.62,31.21Zm-.22,1.64a.49.49,0,0,0,0,.11s0,0,.07,0l-.14-.11A7.46,7.46,0,0,0,32.43,30c0-.06.25,0,.07-.16l0,.18c-.48.09-.84.21-.39.79A.91.91,0,0,1,32,31.93c-.54-.31-.45-.88-.71-1.28A12.66,12.66,0,0,1,31,32.41c0,.23.05.58.37.36.64-.45.53.34.82.54,0-.44-.28-.86.06-1.08s.47.43.82.46A.84.84,0,0,1,33.4,32.85ZM6.48,30c0-.07.07-.23-.12-.14l.15.12a7.66,7.66,0,0,0-1,2.87l-.1.05a.1.1,0,0,0,0,.07l.1-.15a2,2,0,0,0,.75-.53c.25-.3.49-.2.51.21a7.81,7.81,0,0,1-.06.78c.3-.22.13-.95.8-.53.34.21.39-.12.37-.35a9.4,9.4,0,0,0-.2-.92c-.07-.27.09-.58-.15-.81a2.29,2.29,0,0,1-.65,1.22.86.86,0,0,1,0-1.1C7.32,30.22,7,30.11,6.48,30Zm5.78-15.4a2.64,2.64,0,0,0,1.17-.21c.88-.34,1.76-.69,2.67-1a15.52,15.52,0,0,1,4-.28,9.33,9.33,0,0,1,4.26.87,4.76,4.76,0,0,0,2.29.59.38.38,0,0,0,0,.1h.07c0-.07,0-.1-.12-.08,0-.46.12-1-.51-1.19a24.55,24.55,0,0,0-4.23-1.15,19.19,19.19,0,0,0-8.69,1c-.71.26-1.09.61-1,1.38-.09,0-.13,0-.12.08h.07A.38.38,0,0,0,12.26,14.62ZM33.13,28.53a2.2,2.2,0,0,1,.69.79c.25.42,1.09.88,1.43.76a1.46,1.46,0,0,0,1-1.24,2.2,2.2,0,0,0-.18-1.4,3.21,3.21,0,0,1-.31-1.73A6.66,6.66,0,0,1,36,23.84c-.18,0-.27,0-.32,0l-1.14.86c-.82.63-1.44.5-1.9-.42-.2-.39-.36-.81-.59-1.32a28.85,28.85,0,0,1-.25,3.57c-.2.87,0,1.06.89,1.5a1.06,1.06,0,0,1,.49.49c-.1.06-.11.09,0,.08S33.13,28.56,33.13,28.53Zm-27.32,0c0,.11,0,.14.07.08l-.09-.06A1,1,0,0,1,6.4,28a1,1,0,0,0,.79-1.25,24.5,24.5,0,0,1-.26-3.86c-.24.57-.38.94-.55,1.29-.48,1-1.1,1.17-2,.49a7.2,7.2,0,0,0-1.45-1,6.32,6.32,0,0,1-.24,4.15,1.51,1.51,0,0,0,0,.71,1.61,1.61,0,0,0,1,1.5,1.8,1.8,0,0,0,1.51-.86A2.06,2.06,0,0,1,5.81,28.53Zm6.45,14.66c.05.24.08.49.39.57-.05-.26-.06-.54-.41-.54a24.6,24.6,0,0,0-1.06-3.75c-.5-1.59-.77-3.23-1.16-4.84-.32-1.35-.41-2.73-.6-4.08-.16-1.13-.26-2.29-.37-3.43a32.11,32.11,0,0,1,0-6.79c.14-1.22.14-2.46.24-3.68s.2-1.61,1.58-1.81c.43-.05.71-.2.56-.68a.92.92,0,0,1,0-.57.79.79,0,0,0-.33-1,1.28,1.28,0,0,0-1.55,0,4,4,0,0,0-.89,1.26,12.48,12.48,0,0,0-1.19,5.26,49.58,49.58,0,0,0,.39,8.34A67.25,67.25,0,0,0,9.16,35,30.76,30.76,0,0,0,12.26,43.19ZM27.88,24a1.55,1.55,0,0,0-.28.2,1.73,1.73,0,0,1-2.42.52c-.43-.23-.54.06-.76.25-1.54,1.39-3.45.78-4-1.24a12.85,12.85,0,0,1-.25-3.44,7.51,7.51,0,0,0-.21-1.89c-.07-.29-.19-.4-.47-.4s-.39.11-.47.4a8,8,0,0,0-.21,2.49,9.1,9.1,0,0,1-.3,3.07,2.23,2.23,0,0,1-1.7,1.67A2.14,2.14,0,0,1,14.51,25c-.15-.17-.25-.54-.64-.3-1.15.7-2,.17-2.8-.68A1.17,1.17,0,0,0,11,23.9s0,0-.07,0l.14.11A16,16,0,0,1,10,26.34a1.32,1.32,0,0,0-.27,1.13,5.09,5.09,0,0,1,.21,1.65c0,.23,0,.5.28.6l2.37.82c.09,0,.08,0,.14-.09.59-.49.71-.5,1.27,0,.24.21.19,0,.23-.1s.25-.42.42-.3c.32.21.82-.05,1,.28.47.9.41-.53.74-.14,0,.05.17,0,.2.09.48,1,1.33.47,2.05.58,0-.12,0-.17,0-.2-.14-.21-.67-.14-.5-.52s.48-.05.72,0a.67.67,0,0,1,.39.23c.21.36.37.37.57,0a.5.5,0,0,1,.39-.23c.25-.05.56-.4.73,0s-.35.32-.49.53c0,0,0,.12,0,.24.67-.18,1.54.39,2-.61,0-.06.21-.07.32-.08.3,0,.12.5.43.4s.16-.51.47-.41.95-.63,1.15.26c0,.13.1.08.21,0,.61-.51.72-.51,1.27,0,.06.06.09.16.12.09.25-.46.76-.07,1-.25.46-.39,1.11-.31,1.48-.63s.15-1.06.26-1.6a.88.88,0,0,1,.07-.23,1.68,1.68,0,0,0-.23-1.59A13.3,13.3,0,0,1,27.85,24l.11,0s0,0,0-.07ZM27,17.53a2.43,2.43,0,0,1,.41,1.27,14.32,14.32,0,0,0,.54,2.92,4.78,4.78,0,0,0,.65,1.65c.14.22.29.41.57.31s.23-.3.22-.5c-.11-2.31-.21-4.63-.35-6.93,0-.61-.37-.82-1-.7a1.42,1.42,0,0,1-.58,0,15.09,15.09,0,0,1-2.74-.72,10.17,10.17,0,0,0-5.23-.92H19a8.68,8.68,0,0,0-4.4.8,11.29,11.29,0,0,1-3.43.85c-.31,0-.62-.28-1,.09a1.45,1.45,0,0,0-.27,1c-.05.91-.08,1.82-.21,2.74a32.54,32.54,0,0,0-.12,3.83c0,.19,0,.41.27.46a.41.41,0,0,0,.48-.26,6.27,6.27,0,0,0,.43-.86,15.38,15.38,0,0,0,.76-3.47A3.72,3.72,0,0,1,12,17.52,1.56,1.56,0,0,1,12.25,19a21.85,21.85,0,0,1-.71,3.13A1.86,1.86,0,0,0,12,24a1,1,0,0,0,1.26.31,1.89,1.89,0,0,0,1.15-1.42,8.07,8.07,0,0,0,.52-2.92,10.07,10.07,0,0,1,.22-2.26c0-.16.07-.34.25-.35s.28.22.28.42a15.78,15.78,0,0,1-.8,5.74,1.06,1.06,0,0,0,1,1.53c1.35,0,1.88-.5,2.14-1.85a20.74,20.74,0,0,0,.22-3.93,3.92,3.92,0,0,1,.27-1.4.86.86,0,0,1,.93-.58.92.92,0,0,1,1,.63,4.16,4.16,0,0,1,.24,1.4,19.21,19.21,0,0,0,.22,3.93c.26,1.28.65,1.68,2,1.76C24,25,24.39,24.4,24,23.32a16.13,16.13,0,0,1-.73-5.65c0-.16,0-.34.22-.36s.26.13.29.29a14,14,0,0,1,.25,2.5,6.86,6.86,0,0,0,.84,3.43c.44.72,1.12,1,1.66.75a1.78,1.78,0,0,0,.87-1.86c-.25-1.13-.52-2.25-.72-3.38A1.46,1.46,0,0,1,27,17.53Zm-.6,26.24a28.45,28.45,0,0,0,2.44-5.39,47.79,47.79,0,0,0,2-8.79c.2-2,.52-4,.62-6.05a30.44,30.44,0,0,0-.25-6.67,14.14,14.14,0,0,0-1.26-3.64,2.62,2.62,0,0,0-.63-.71c-.48-.46-1-.14-1.45,0s-.46.6-.36,1c0,.15.11.33.07.45-.24.75.2.78.75.82a1.31,1.31,0,0,1,1.36,1.56,3.78,3.78,0,0,0,0,1A29.83,29.83,0,0,1,30,22a42,42,0,0,1-.4,7.51c-.28,2-.46,4-.84,6A56.85,56.85,0,0,1,26.37,43.77ZM9.58,11.71a6,6,0,0,1,2.3.4c.27.09.41.08.41.37s0,.36.17.37a.53.53,0,0,0,.4-.22,2.93,2.93,0,0,0,.26-.66c.36-1,.9-1.69,2.06-1.66a.89.89,0,0,0,.53-.22c2.65-1.54,3-3.86,1.84-6.43-.22-.51-.49-.45-.93-.3A4.67,4.67,0,0,0,13.86,6a6.24,6.24,0,0,1-1.7,2.24C11.05,9.15,9.83,10.06,9.58,11.71Zm19.79,0A4.46,4.46,0,0,0,27.65,9a10,10,0,0,1-2.94-3.66,4,4,0,0,0-2.52-2.05c-.4-.14-.59-.06-.76.26a10.83,10.83,0,0,0-.61,2.28c-.46,1.61,1.27,4.15,2.86,4.4a2.56,2.56,0,0,1,2.23,2c.11.33.22.59.65.66.13-.36.09-.73.74-.87S28.69,11.78,29.37,11.69Zm-.6,19.49a52.65,52.65,0,0,1-9.32.51,49.79,49.79,0,0,1-9.25-.51c.09.35.12.58.2.79s.56.07.68.39c0,.09.08.19.26.12.84-.37,1.39.23,2,.61a5.76,5.76,0,0,0,3.54,1c.35,0,.82-.14,1.05,0,.48.36.59-.31.81-.23.56.21,1.28-.46,1.7.35.09.17.13,0,.22,0a4.63,4.63,0,0,1,1.74-.12A4.76,4.76,0,0,0,24,33.84a7.83,7.83,0,0,0,2.25-1.23c.32-.3.67-.22,1-.22C28,32.4,28.45,32.12,28.77,31.18Zm-6-20.52-.2-.19c-.07-.05-.14-.08-.2-.13C21,9.24,20,8,20.15,6.11a9.4,9.4,0,0,1,.47-2.3c.13-.43,0-.7-.49-.69-.27,0-.54-.12-.81-.1-1.07.07-1.1.13-.83,1.18a6.06,6.06,0,0,1,.2.92,4.5,4.5,0,0,1-.48,3.44,5.11,5.11,0,0,1-2.11,2.06,1.83,1.83,0,0,1,.27.35c.2.48.48.6,1.05.56a20.21,20.21,0,0,1,3.81,0A1.29,1.29,0,0,0,22.76,10.66ZM7,16.82a11.16,11.16,0,0,0-3.6,4.23,2.4,2.4,0,0,0-.25,1c0,.38,0,.83.34,1.08a13.4,13.4,0,0,1,1.38,1.11.51.51,0,0,0,.89-.18,7.16,7.16,0,0,0,1-2.51C6.72,20,7.06,18.51,7,16.82Zm25.07,0c-.24,1.17.26,2.19.15,3.2a7.86,7.86,0,0,0,.91,3.74c.3.79.6.84,1.22.32.21-.18.39-.4.61-.57,1-.76,1.22-1.25.66-2.38A9.91,9.91,0,0,0,32,16.85ZM24.28,11a1.62,1.62,0,0,0,.5,1.31.23.23,0,0,0,.32,0,.24.24,0,0,0,.06-.32A2.2,2.2,0,0,0,24.28,11Zm-9.56-.09a2.79,2.79,0,0,0-.94,1.13c0,.11-.06.24.06.32a.25.25,0,0,0,.32,0A2.14,2.14,0,0,0,14.72,10.92Zm-5,14.49c.16-.45.6-.64.34-1.09,0,0-.16,0-.23,0C9.39,24.57,9.58,24.92,9.71,25.41Zm19.57,0c0-.31.09-.47.1-.62s-.05-.4-.29-.45c-.08,0-.19,0-.23,0s0,.36.05.52A3.08,3.08,0,0,0,29.28,25.39ZM25.86,44.56q-.11-.15-.21-.06a.64.64,0,0,0-.11.2s0,.06.07.09Zm2.6-14.14.21-.06a.38.38,0,0,0-.17-.08c-.09,0-.2-.05-.23.09Zm-18,0,.21-.06a.7.7,0,0,0-.17-.09c-.08,0-.2,0-.24.09Zm21.29-.91c.1-.12.08-.18,0-.18a.22.22,0,0,0-.19.08c0,.05,0,.15,0,.22Zm-24.42.16c0-.09.07-.17,0-.23a.26.26,0,0,0-.17-.11s-.08.07-.12.11Zm0-1.16-.05-.1s-.06.05-.06.09,0,.15.08.11S7.39,28.54,7.4,28.51Zm24.21-.1a1.08,1.08,0,0,0-.08.19s0,0,.06.08.07-.05.07-.07S31.62,28.48,31.61,28.41ZM5.18,30.17l.05-.07H5.15Zm28.57,0,0-.07h-.08Zm-20.33.41s0-.07-.06-.07-.06,0-.08.06,0,.07.06.07S13.4,30.6,13.42,30.58Zm12.26,0s-.05-.07-.07-.07-.06,0-.08.06,0,.07.06.07S25.65,30.6,25.68,30.58ZM12.2,33l-.06,0V33Zm14.64,0-.06,0V33Z"/><path d="M21.5,30.12a.32.32,0,0,1,.37.32.24.24,0,0,1-.19.27.37.37,0,0,1-.46-.27C21.15,30.26,21.32,30.18,21.5,30.12Z"/><path d="M17.74,30.42c-.1.18-.23.34-.46.29a.26.26,0,0,1-.19-.36.3.3,0,0,1,.35-.23C17.6,30.15,17.74,30.23,17.74,30.42Z"/></g></g></svg>