<svg xmlns="http://www.w3.org/2000/svg" viewBox="0 0 122.45 82.01"><title>Aetideus</title><g id="Layer_2" data-name="Layer 2"><g id="Aetideus"><path d="M74.66,17.48c.78,0,1.51-.55,2.35-.17-.14.6-.73.41-1.07.6a3.89,3.89,0,0,1-1.15.29c-.21,0-.37.05-.26.35s-.13.38-.33.36c-1.33-.14-1.9.89-2.47,1.73a7.31,7.31,0,0,1-2.19,2.62.36.36,0,0,0-.15.42c.06.27.28.24.47.23a6.31,6.31,0,0,1,3.14.45c1.59.69,2.38,2.05,3.25,3.37a.79.79,0,0,1,.07.46c0,.1-.09.25-.17.27a.34.34,0,0,1-.3-.11c-.28-.31-.24-.86-.74-1,0,0,0-.27-.15-.13l.18.1c-.07.34.22.58.24.89s.37.64-.13.78-.33-.32-.44-.53c-.29-.54-.38-1.19-.89-1.6-.07,0,0-.26-.16-.12l.18.1c0,.53.3,1,.33,1.5,0,.23-.07.4-.3.42s-.25-.12-.31-.29c-.19-.6-.38-1.21-.63-1.8-.49-1.21-1.2-1.4-2.23-.6a3.43,3.43,0,0,1-.72.41c-.75.33-.74.42-.64,1.24.36,3,1.07,6,1.42,9.05a17.75,17.75,0,0,1,.2,4.41c-.33,2.33,0,4.7-.65,7-.23.78-.07,1.65-.27,2.48a6.74,6.74,0,0,1-.53,1.7,13.18,13.18,0,0,0-1.19,3.71,2.39,2.39,0,0,1-.12.46,12.33,12.33,0,0,0-.82,5.38,9.47,9.47,0,0,1,0,1.07.33.33,0,0,1-.31.31.37.37,0,0,1-.35-.29c-.11-.5-.18-1-.31-1.52a7.22,7.22,0,0,0-2.52-4.34l-.41-.26a2.23,2.23,0,0,0-.31-.12.84.84,0,0,0,.3,1.08,1.76,1.76,0,0,1,.56,1.84,3.1,3.1,0,0,1-.46,1.58,1.8,1.8,0,0,0-.23,1.38,15.91,15.91,0,0,1,.11,3.9,2.69,2.69,0,0,0,.28,1.14c.26.74.54,1.48.82,2.22a.84.84,0,0,0,.26.39c1.14.65,1.46,1.82,1.9,2.92a18.21,18.21,0,0,1,.8,2.36c.06.25.17.51-.11.62s-.45-.18-.51-.46-.06-.31-.24-.38.08-.41-.16-.65c0,.29-.05.49.19.63a5.34,5.34,0,0,0,.18,1.63A3.12,3.12,0,0,1,67,78c0,.2-.11.4-.35.37a.36.36,0,0,1-.28-.34c-.12-.89-.24-1.79-.35-2.69,0-.19,0-.4-.24-.48-.09-.25.12-.56-.14-.79a.69.69,0,0,0,.17.76A16.64,16.64,0,0,0,66,78.06a1,1,0,0,1,0,.24c0,.39,0,1-.39,1-.58,0-.31-.63-.29-1a22,22,0,0,0-.46-4c0,1.64,0,3.29,0,4.93,0,.81-.23,1.57-.28,2.37a.36.36,0,0,1-.48.37c-.25-.06-.2-.26-.17-.48a33.42,33.42,0,0,0,.33-6.94c-.42,1.1-.3,2.24-.61,3.31a1.79,1.79,0,0,0,0,.24c-.18.74-.53,1.19-.77,1-.42-.34,0-.73.08-1.07a19.48,19.48,0,0,0,.43-2.94,11.91,11.91,0,0,0,0-3.32,10.79,10.79,0,0,0-.52-1.7,1.81,1.81,0,0,0-1.65-1.18,1.77,1.77,0,0,0-1.64,1.19A7.24,7.24,0,0,0,59,74.27c.19.93.08,1.9.29,2.84.1.51.26,1,.37,1.5.05.2.15.4-.09.5s-.43-.07-.53-.32a6,6,0,0,1-.46-2,18.07,18.07,0,0,0-.39-2.22,20.66,20.66,0,0,0,.12,4.78c.16.73-.12,1.52.22,2.24a.26.26,0,0,1-.2.37c-.22,0-.43,0-.45-.27-.06-.75-.31-1.47-.3-2.24,0-1.72,0-3.43-.07-5.15a25.65,25.65,0,0,0-.36,4,5.7,5.7,0,0,1,0,.83.31.31,0,0,1-.15.17.23.23,0,0,1-.3-.12,1.91,1.91,0,0,1-.2-1.17,19.33,19.33,0,0,0,.19-3.22.8.8,0,0,0,.07-1l0,1a5.75,5.75,0,0,0-.48,2,3.59,3.59,0,0,1,0,.47c-.12.36.14,1.08-.46,1s-.32-.76-.24-1.14a8.44,8.44,0,0,0,.21-1.87c.2-.15.32-.31.07-.55l0,.57c-.06,0-.15.08-.18.14-.14.28,0,.86-.55.69s-.11-.54,0-.82a17.33,17.33,0,0,1,1.3-3.57A2.24,2.24,0,0,1,57,70.71c.93-.47,1-1.4,1.33-2.16a5.33,5.33,0,0,0,.54-2.48A12.81,12.81,0,0,1,59,62.86a2.17,2.17,0,0,0-.25-1.72,4.16,4.16,0,0,1-.44-2.32,1.31,1.31,0,0,1,.51-.9c.39-.41.38-.42.39-1.21a4.94,4.94,0,0,0-2.28,2.19,12.31,12.31,0,0,0-1.2,3.6c0,.16,0,.32-.07.47a.38.38,0,0,1-.34.29A.32.32,0,0,1,55,63a5.69,5.69,0,0,1,0-.83,12.75,12.75,0,0,0-.86-5.73,3.2,3.2,0,0,1-.24-.92,10.06,10.06,0,0,0-1-3.14A10.2,10.2,0,0,1,52,48.88c-.23-1.94-.37-3.87-.52-5.81a34.07,34.07,0,0,1,0-6.06c.23-2.58.87-5.09,1.21-7.65a2.83,2.83,0,0,0,.05-.71c-.06-.64.54-1.31.13-1.85s-1.08-.55-1.58-1a1.18,1.18,0,0,0-1.87.61c-.27.66-.49,1.34-.72,2-.06.17-.12.32-.3.3s-.32-.18-.31-.42c0-.52.38-1,.33-1.5l.09-.05s0,0,0-.05l-.09.13a4.15,4.15,0,0,0-.92,1.7c-.1.21-.08.51-.42.42s-.18-.41-.16-.66.35-.63.27-1c0-.06.28,0,.1-.17l-.07.2c-.5.15-.45.71-.74,1a.42.42,0,0,1-.3.12c-.11,0-.16-.14-.18-.27a1,1,0,0,1,.19-.68,7.43,7.43,0,0,1,3.46-3.32,7.32,7.32,0,0,1,2.7-.3c.22,0,.5.11.59-.22s-.15-.41-.35-.55A4.57,4.57,0,0,1,51,21c-.32-.81-1.09-1.25-1.6-1.9-.09-.13-.36-.13-.54-.2-.36-.12-1.07.29-.93-.62a2.84,2.84,0,0,0-1-.32,3.76,3.76,0,0,1-1.63-.57c.91-.56,1.67.12,2.44.06.1.05.2.11.3.15s.07-.06.06-.06-.25-.08-.38-.06c.07-.27-.17-.34-.32-.42-.39-.2-.8-.36-1.18-.56s-1-.22-.73-.7.71,0,1.06.16a17.93,17.93,0,0,1,2.92,1.59.93.93,0,0,0,.67.18c0-1.06,0-2.12,0-3.18,0-.69.27-1.32.3-2a.39.39,0,0,1,.51-.36c.23.07.22.32.14.51A2.52,2.52,0,0,0,51,14.21c.24-.46.45-.87.67-1.27.12-.23.34-.37.58-.22s.06.33,0,.5a4.92,4.92,0,0,0-.79,2.58c-.14,0-.28.1-.1.28l.08-.31c.52-.44.72-1.13,1.19-1.61.14-.14.25-.31.4-.44a.3.3,0,0,1,.43,0c.16.13.12.28,0,.41a16.56,16.56,0,0,0-1.67,2.48A2.16,2.16,0,0,0,51.77,19c.47.91,1.38,1.41,1.85,2.38a6,6,0,0,0,2.07-3.88,2.38,2.38,0,0,1,.49-1.2A.82.82,0,0,0,56,15.09a17.85,17.85,0,0,0-6.58-4.33,35.93,35.93,0,0,0-7.32-1.44C39.93,9,37.69,9,35.48,8.79c-2.06-.2-4.14,0-6.2-.36-1.33-.2-2.71,0-4.07-.08a73.07,73.07,0,0,1-8.08-.63c-.59-.1-1.33-.4-1.85.3-.12.17-.29.12-.41,0-.68-.62-1.55-.46-2.34-.61a.6.6,0,0,0-.76.57c0,.21-.12.39-.39.31s-.26-.25-.21-.47a2,2,0,0,0,0-.35c-.49-.09-1-.18-1.43-.25S8.54,7,8.36,8l-.42-.44c-.66-.75-1.37-.64-1.68.25-.1.26-.17.53-.25.79s-.18.48-.49.35-.21-.36-.1-.6.06-.31.11-.46c.27-1,.23-1-.8-1.15-.24,0-.48,0-.72,0s-.76-.41-1.15-.17A2.83,2.83,0,0,0,2,7.65,13.3,13.3,0,0,0,.69,10.57c0,.17-.17.41-.41.34S0,10.59,0,10.33A17.91,17.91,0,0,1,2.31,6c-.64,0-.95.39-1.32.69-.13.1-.27.22-.41.09a.38.38,0,0,1,0-.54,3.78,3.78,0,0,1,1.33-1C2,5,1.7,4.8,1.63,4.54s-.28-.46.08-.59.41.14.51.37a1.16,1.16,0,0,0,1.23.87c.92,0,.87,0,1.11-.89A10.12,10.12,0,0,1,6.4.46,2.73,2.73,0,0,1,6.84.07c.09-.06.23-.13.31,0s.1.24.06.33a3,3,0,0,1-.34.48,10.94,10.94,0,0,0-1.7,3.52c-.22.74-.12.78.63,1.05s1.74.06,2.56.39A4.24,4.24,0,0,0,8.19,4.3a.38.38,0,0,1,.3-.45c.24-.05.35.14.39.34s0,.32,0,.48c.14,1,.21,1.11,1.28,1.28.12,0,.23.06.35.08,1.16.23,1.16.23,1.66-.8.07,0,.19.06.19.1.07.66.38,1,1.08.85a7.81,7.81,0,0,1,1.29,0,10.15,10.15,0,0,1-.16-2.24c0-.22-.06-.55.25-.58s.3.32.28.53a8.12,8.12,0,0,0,.25,1.77c.09.59.51.49.9.51s.51-.26.5-.61a1.92,1.92,0,0,1,0-.24c0-.29-.1-.76.35-.73s.4.46.36.78c-.1.71.35.88.9,1l.36,0c1.15.11,1.18.1,1.69-1,.37,1.24,1.31,1.06,2.2,1.07.46,0,.63-.18.63-.64a11.15,11.15,0,0,1,.21-3.1c0-.11,0-.24.05-.35a.45.45,0,0,1,.23-.22c.21,0,.28.12.27.29a16.83,16.83,0,0,1-.12,2.75,4.58,4.58,0,0,0-.09.83.55.55,0,0,0,.12.32A6.17,6.17,0,0,0,26,6.56c.07-.07,0-.23.08-.33.11-.27.34-.27.43-.06.2.48.57.49,1,.48s.64,0,1,0,.54.07.83.11a1.42,1.42,0,0,0,.16-.33c.08-.24-.1-.67.25-.71s.3.38.31.62.19.51.53.47,1,.23,1.24-.4c.11-.29.11-.62.2-.92a.29.29,0,0,1,.36-.23.35.35,0,0,1,.26.35c0,.08,0,.15-.06.23-.15,1-.15,1,.79,1,.63,0,1.23.43,1.87.15.13-.5-.17-.86-.32-1.26s-.4-.86-.56-1.31c-.07-.21-.13-.53.15-.63s.35.25.44.44c.34.76.67,1.53,1,2.29a1,1,0,0,0,1.2.56c.33-.1.14-.3.12-.47a.37.37,0,0,1,.32-.43c.25,0,.34.16.37.37a1.94,1.94,0,0,1,0,.24c0,.34.32.3.55.3s.35-.24.36-.49c0-.51-.34-1-.06-1.53.07-.14.12-.31.31-.31s.25.17.25.33c0,.32,0,.64,0,1,.07.94.44,1.23,1.47,1.2.11-.19-.08-.35-.08-.54s0-.4.27-.54c.55.24.35,1.65,1.52,1.08,0-.12-.07-.26-.09-.39s0-.35.13-.43.3,0,.41.15.12.12.13.19c.08.44.33.67.75.54s.2-.54.23-.83c.06-.58-.47-1.13-.08-1.77.52.08.6.47.6.87A4.27,4.27,0,0,0,44.88,7c.07.2,0,.5.31.56s.64,0,.81-.32c.06-.14.1-.3.3-.34.36,0,.27.32.28.54,0,.47.32.61.72.6s.46-.38.43-.69A8.92,8.92,0,0,1,48.09,5a2,2,0,0,1,.3-.64.32.32,0,0,1,.42-.13.29.29,0,0,1,.11.41,11.59,11.59,0,0,0-.59,2.67c-.13.47,0,.73.54.81a9.14,9.14,0,0,0,1.05.14c.44,0,.81,0,.72-.59A.35.35,0,0,1,51,7.29a.44.44,0,0,1,.39.51c0,.47.06.82.6,1s1,.14,1.27-.55c.43.35.23.74.31,1.06a.52.52,0,0,0,.43.37c.19.05.26-.14.34-.27a13,13,0,0,0,1.59-3.57,3.9,3.9,0,0,1,.56-1.42,2.05,2.05,0,0,1,.06,1.64,15.07,15.07,0,0,1-1.4,3.28c-.12.2-.26.4-.36.61s.09.28.2.39.21,0,.28-.07a1.14,1.14,0,0,0,.21-.28c.12-.25.23-.61.58-.37s.16.51,0,.75-.28.63.27.73c.14-.39.27-.79.44-1.18a.28.28,0,0,1,.41-.1.35.35,0,0,1,.15.28,4.12,4.12,0,0,1-.15.58c-.23.9-.23.9.52,1.58.23,0,.14-.2.19-.31.1-.26.26-.4.54-.27s.14.32.09.52c-.19.69-.18.69.35,1.38a4.12,4.12,0,0,1,2.33-1,3.47,3.47,0,0,1,2.35,1c.57-.36.8-.78.44-1.39-.11-.17-.15-.4.1-.51s.44,0,.52.29l.11.35c.66-.39,1.06-.86.6-1.65-.07-.13-.07-.31-.13-.46a.27.27,0,0,1,.14-.39.31.31,0,0,1,.46.23c.07.35.37.63.24,1.2.33-.27.78-.17.52-.68-.11-.21-.31-.38-.26-.65a.53.53,0,0,1,.14-.31.3.3,0,0,1,.41.08c.2.24.24.86.64.61.6-.37-.07-.74-.24-1.06a17.73,17.73,0,0,1-1.32-3.19,2.54,2.54,0,0,1-.09-1.39c.37,0,.43.16.49.41a13.91,13.91,0,0,0,1.64,4.06c.13.22.18.61.53.55s.46-.38.43-.74A.63.63,0,0,1,69,8.37c.09,0,.26,0,.3.11.14.28.21.67.66.45s1-.08,1-.79a2.58,2.58,0,0,1,0-.48c0-.21.18-.39.39-.37a.36.36,0,0,1,.32.43c-.06.49.15.64.62.56a4.19,4.19,0,0,0,.71,0c1-.34,1.2,0,.9-1.3a9.93,9.93,0,0,0-.47-2.2c-.1-.19-.14-.43.09-.51s.45.1.54.34a8.68,8.68,0,0,1,.51,2.31c0,.16,0,.32,0,.48,0,.32,0,.68.46.68s.7-.14.69-.62c0-.19,0-.4.29-.55.33.21.48,1,1.11.67s.39-.89.51-1.36c.07-.31,0-.64.08-1s.15-.51.44-.48.26.35.25.57c0,.47-.31.91-.23,1.4,0,.22-.08.52.24.59s.57,0,.67-.32c0,0,0-.08,0-.12.13-.23.26-.59.58-.42s.11.5,0,.76c1.13.6,1-.65,1.55-1.08.43.34.24.7.11,1.06,1.06.16,1.47-.14,1.55-1.13,0-.36,0-.72,0-1.08,0-.1.07-.24.23-.22a.35.35,0,0,1,.27.19c.34.55,0,1.09,0,1.64,0,.25,0,.49.34.5s.5,0,.56-.29c0-.08,0-.16,0-.24s.12-.4.37-.38a.36.36,0,0,1,.32.42c0,.22-.19.52.23.48s.79.25,1-.32c.36-.93.79-1.83,1.18-2.74.07-.17.17-.29.34-.23s.18.22.19.39a3,3,0,0,1-.35,1A4.25,4.25,0,0,0,87.17,7c.89.14,1.73-.27,2.6-.19.15,0,.22-.21.2-.38A1.45,1.45,0,0,0,89.9,6c-.12-.28-.22-.6.15-.68s.39.26.46.54c.22,1,.23,1,1.1,1,.54,0,.85-.11.78-.72,0-.19,0-.43.3-.41s.21.21.22.37,0,.38.06.64a19.94,19.94,0,0,1,2.15-.09c.55,0,.58-.52.93-.61s.1.71.66.58,1-.13,1.53-.22.4-.48.33-.76A11.49,11.49,0,0,1,98.38,3a1.92,1.92,0,0,1,0-.24c0-.25-.17-.63.25-.65s.23.34.29.56a9.91,9.91,0,0,1,.21,3c0,.56.15.84.74.77a2.9,2.9,0,0,1,.72,0,1,1,0,0,0,1.16-.73.27.27,0,0,1,.27-.2c.2,0,.23.19.23.35,0,.39.14.59.56.56s.72,0,1.08,0c.83-.12.9-.21,1-1.11a1.71,1.71,0,0,1,.1-.46c.06-.14.17-.29.36-.22a.42.42,0,0,1,.21.26,3.81,3.81,0,0,1,0,.59c0,.35-.09.76.49.75s.83,0,.94-.63a13.36,13.36,0,0,0,.23-1.89c0-.16,0-.33.27-.31s.24.19.24.34a8.63,8.63,0,0,1-.16,2.38,2.48,2.48,0,0,0,1.18.1c1,0,1,0,1.27-.92.07,0,.2,0,.21,0,.4.93.46,1,1.45.79l.12,0c.42-.23,1,.13,1.33-.34a2.28,2.28,0,0,0,.33-1.37c0-.25.08-.52.39-.47s.36.32.3.56A5.58,5.58,0,0,0,114,5.87c.91-.3,1.84-.1,2.72-.41.59-.21.74-.34.57-.92A12.22,12.22,0,0,0,115.61,1c-.11-.16-.27-.29-.38-.46a.36.36,0,0,1,0-.44c.15-.2.3,0,.4,0a2.68,2.68,0,0,1,.49.52,9.08,9.08,0,0,1,1.73,4c0,.4.19.56.59.55.77,0,1.55,0,1.77-1a.34.34,0,0,1,.46-.26c.36.13.16.37.08.58s-.18.44-.31.74c.41.34,1,.46,1.33.9.16.21.25.45,0,.64s-.35,0-.49-.16A2,2,0,0,0,120.11,6a18.56,18.56,0,0,1,2,3.65c.14.36.72,1,0,1.21-.52.17-.47-.62-.62-1a22.54,22.54,0,0,0-1.55-3c-.27-.44-.6-.63-1.09-.39s-1,.09-1.41.17c-.77.13-.84.24-.62,1l.24.8a.31.31,0,0,1-.17.39c-.24.13-.38,0-.46-.22s-.19-.6-.29-.9c-.32-.91-1-1-1.68-.28l-.33.35c-.84-1.28-1.94-.31-2.88-.43a.67.67,0,0,0,0,.5.31.31,0,0,1-.22.37.25.25,0,0,1-.36-.19c-.14-.92-.84-.8-1.38-.63s-1.39-.06-1.85.6a.2.2,0,0,1-.31-.05c-.29-.59-.81-.34-1.26-.36a11.94,11.94,0,0,0-2.24.28c-1,.16-1.92.07-2.86.19-2.5.31-5,.1-7.53.29-1.31.1-2.63.08-3.93.19-2.66.25-5.34.19-8,.51a50.73,50.73,0,0,0-6.92,1.16A17.09,17.09,0,0,0,68,13.56c-.54.44-1,1-1.54,1.44a.93.93,0,0,0-.18,1.37,3.16,3.16,0,0,1,.42,1,6.63,6.63,0,0,0,2,3.93,14,14,0,0,0,2-2.4,2.09,2.09,0,0,0,0-2.16,25.27,25.27,0,0,0-1.56-2.4c-.13-.18-.43-.35-.15-.59s.51,0,.67.24c.46.6.9,1.2,1.35,1.8.09.06-.07.3.15.22,0,0-.07-.17-.18-.19a5.24,5.24,0,0,0-.79-2.58c-.08-.17-.27-.35,0-.5s.46,0,.58.22c.23.41.44.83.66,1.28a2.56,2.56,0,0,0-.13-1.53c-.07-.19-.06-.42.19-.48a.35.35,0,0,1,.44.29,16.85,16.85,0,0,1,.33,2c0,1.07,0,2.14,0,3.2.37.17.56-.05.78-.2A20.51,20.51,0,0,1,76,15.94a3.15,3.15,0,0,1,.67-.24.37.37,0,0,1,.31.12.26.26,0,0,1-.13.39c-.52.28-1.06.53-1.6.79-.23.11-.55.13-.54.51-.13,0-.28-.08-.38.06s0,.07.06.06Zm-24.73,1.2,0-.05.07,0c0,.07,0,.16.09.2s.15.21.24.1,0-.2-.13-.24Zm22.55,0a1.66,1.66,0,0,0-.22,0c-.11,0-.23.14-.14.24s.16-.05.24-.1.07-.12.11-.19l0,0ZM78,8.82l1.07,0c.26,0,.53-.11.54-.37s-.3-.28-.52-.3-.48,0-.72,0c-.6,0-.53.32-.36.71L78,8.89Zm-33.59,0,.06,0h-.08c.11-.3.31-.65-.24-.7a6.49,6.49,0,0,0-1.08,0,.37.37,0,0,0-.27.16.3.3,0,0,0,.19.39A4,4,0,0,0,44.41,8.82Zm25.9,31a27,27,0,0,0-.57-5.58,53,53,0,0,1-1.14-9.81,5.21,5.21,0,0,0-1.33-3.62A5,5,0,0,1,66,17.9a2.65,2.65,0,0,0-.78-1.7c-.81-.77-1.66-1.5-2.53-2.2a2,2,0,0,0-2.9,0c-.72.57-1.34,1.27-2.07,1.81A3,3,0,0,0,56.42,18a4.63,4.63,0,0,1-1.11,2.59,6.26,6.26,0,0,0-1.53,4.63A35.89,35.89,0,0,1,53,32.65a41.68,41.68,0,0,0-.87,8.77A2.24,2.24,0,0,0,54,43.82a15.66,15.66,0,0,0,2.69.48,8.1,8.1,0,0,0,2.25.2,10.08,10.08,0,0,1,3.33-.15,10.27,10.27,0,0,0,3.32,0,22.58,22.58,0,0,0,3.25-.67,2,2,0,0,0,1.5-2.06ZM52.4,44a10.86,10.86,0,0,0,.22,3.45A2,2,0,0,0,54,49.1a12.86,12.86,0,0,0,6.24.62,5.71,5.71,0,0,1,1.89,0,12.7,12.7,0,0,0,6.23-.62,1.84,1.84,0,0,0,1.29-1.3A10,10,0,0,0,70,44a14.05,14.05,0,0,1-4.33,1.08,9.36,9.36,0,0,1-3.08,0,4.47,4.47,0,0,0-1.5-.22,11.64,11.64,0,0,1-4.36.17A15,15,0,0,1,52.4,44Zm17.15,5.45a13.42,13.42,0,0,1-7.88.92,2.8,2.8,0,0,0-1.19,0,7.34,7.34,0,0,1-1.54.17,13.61,13.61,0,0,1-6.08-1.15,10.33,10.33,0,0,0,.69,2.72c.45,1,.72,1.15,1.76.94a6.81,6.81,0,0,1,2.5-.09,28,28,0,0,0,5.86.11,15.1,15.1,0,0,1,3.68,0c.79.16,1,0,1.41-.77A10.07,10.07,0,0,0,69.55,49.47ZM66.68,59.61c.32-2.07,1.18-3.72,1.33-5.56a9,9,0,0,0-3.45-.25c-1.9.33-3.81,0-5.71.15a.58.58,0,0,1-.23,0,9.67,9.67,0,0,0-4.25.12,16.06,16.06,0,0,0,.62,2.7c.26.86.5,1.73.79,2.71,1.1-2.65,2.94-4,5.77-3.86C64.07,55.72,65.64,57.09,66.68,59.61ZM61.22,61.4c1.55,0,2-.4,2.11-1.75A2.69,2.69,0,0,0,62.67,58c-.3-.47-.71-.17-1.07-.22s-.49,0-.71,0c-.86-.2-1.3.25-1.63,1a1.76,1.76,0,0,0,1.6,2.63Zm-.07,6.93a1.59,1.59,0,0,1,1.06.19c.28.22.59.51.95.24s0-.64,0-1a1.43,1.43,0,0,0-.06-.35.55.55,0,0,0-.8-.41,3.66,3.66,0,0,1-2.1,0c-.56-.16-.72.08-.84.51,0,.15,0,.32-.11.46s-.26.52,0,.75a.56.56,0,0,0,.76-.07A1.41,1.41,0,0,1,61.15,68.33Zm0-4.33h.47c1-.08,1.2-.34,1-1.33-.07-.39-.21-.54-.6-.53-.59,0-1.19,0-1.78,0a.46.46,0,0,0-.41.17A1,1,0,0,0,60.55,64,3.85,3.85,0,0,0,61.14,64Zm-1.47.56c-.19,1.73-.16,1.77,1.39,1.67a1.93,1.93,0,0,1,.24,0c1.66.06,1.67,0,1.4-1.63A3.93,3.93,0,0,1,59.67,64.56ZM57,15.25c1.88-1.25,1.35-1.11.33-2.3a.65.65,0,0,0-.18-.15.44.44,0,0,0-.44-.05,1,1,0,0,0-.44,1.59C56.49,14.62,56.71,14.9,57,15.25Zm8.4,0c.32-.39.61-.71.87-1.06A.87.87,0,0,0,66,13a.61.61,0,0,0-1,0c-1,1.18-1.34,1,.12,2.09A1.44,1.44,0,0,0,65.4,15.25ZM55.3,13.47a5,5,0,0,1,1-1.4l-.71-.51c-1.07-.74-1.07-.74-1.74.43,0,.06,0,.14-.09.28A12.25,12.25,0,0,1,55.3,13.47ZM66,12.1c.6.35.77.92,1.14,1.28a2.25,2.25,0,0,0,.86-.7c.19-.19.61-.21.57-.52a2.36,2.36,0,0,0-.43-.81c-.19-.3-.41-.45-.77-.17S66.52,11.75,66,12.1ZM53.92,10.63a1.69,1.69,0,0,0-.75-.61c-.87-.47-.9-.45-1.2.47-.11.35-.12.58.24.79a5.24,5.24,0,0,0,1,.56ZM69.2,11.91c.39-.25.67-.46,1-.63a.52.52,0,0,0,.3-.67c-.24-1-.42-1.07-1.34-.54a1.51,1.51,0,0,0-.65.56Zm-18-1.18a2.44,2.44,0,0,1,.21-.66c.36-.57,0-.77-.44-.94a3.85,3.85,0,0,0-.47-.08.57.57,0,0,0-.8.45c-.12.41,0,.68.43.8A10,10,0,0,1,51.22,10.73Zm20,0c.37-.15.73-.32,1.1-.43s.48-.35.4-.71A.6.6,0,0,0,72,9c-1,.09-1.19.38-.89,1.31Zm-2,12a8.86,8.86,0,0,0,1.36-1.31c.22-.26.09-.44-.08-.61s-.36-.09-.51.06a6.86,6.86,0,0,0-.74.79C69.06,21.9,68.83,22.27,69.25,22.66Zm-16.08,0a.57.57,0,0,0,.16-.65,3.64,3.64,0,0,0-1-1.2c-.16-.17-.33-.22-.51,0s-.27.37,0,.61A6.35,6.35,0,0,0,53.17,22.64ZM69.38,26c.68-.11,1.15-.31,1.35-.87.07-.22.13-.48-.17-.61a.81.81,0,0,0-1.17.71C69.37,25.42,69.38,25.65,69.38,26ZM53,26c0-.3,0-.5,0-.7,0-.71-.26-.87-1-.82-.4,0-.47.26-.39.57C51.83,25.64,52.34,25.84,53,26Zm20.23-17c0,.42.14.79.37.79A4.59,4.59,0,0,0,75,9.41c.15-.05.12-.28.09-.43a.31.31,0,0,0-.35-.26C74.25,8.76,73.78,8.84,73.25,8.91Zm-24.11,0-1.27-.18-.23,0a.33.33,0,0,0-.32.3c0,.11,0,.32,0,.34a4.81,4.81,0,0,0,1.35.35C49,9.72,49.15,9.32,49.14,8.92ZM61.22,56.35c-.36.1-1-.2-1,.27,0,.63.62.41,1,.41s1.05.22,1-.39S61.56,56.46,61.22,56.35ZM46.63,8.83c0-.06,0-.11-.08-.17-.3-.27-1.1-.4-1.31-.18a.3.3,0,0,0-.06.31,1.28,1.28,0,0,0,1.1.47.25.25,0,0,0,.21-.08A1.27,1.27,0,0,0,46.63,8.83Zm30.62-.12c0-.23-.12-.32-.3-.34a1.4,1.4,0,0,0-1.16.4c-.05.05,0,.36.14.41.44.24.81-.08,1.2-.22C77.2,8.94,77.22,8.77,77.25,8.71ZM85.61,8c.71.53,1.3.08,2.2-.13C86.87,7.53,86.25,8,85.61,8Zm-.84-.08c-.7.12-1.48-.29-2.12.28A2.52,2.52,0,0,0,84.77,7.92ZM36.8,8c-.64,0-1.26-.5-1.93-.11C35.5,8.06,36.09,8.52,36.8,8ZM58.89,69.28c-.73,1.17-.78,1.35-.57,2.18A4.23,4.23,0,0,0,58.89,69.28Zm5.29,2a2.07,2.07,0,0,0-.68-1.89A3.19,3.19,0,0,0,64.18,71.33ZM39.76,8.09a5.14,5.14,0,0,0-2.3-.15A2.49,2.49,0,0,0,39.76,8.09Zm48.62-.35c.45.42.92.3,1.37.3.19,0,.26-.15.21-.33s-.06-.21-.23-.18Zm-54.16.15c-.61-.35-1.1-.2-1.53-.36-.16-.06-.21.07-.24.17s0,.33.19.34A3.24,3.24,0,0,0,34.22,7.89Zm6.21.35a1.34,1.34,0,0,0,1.5.16s0-.19,0-.21c-.45-.23-.91-.45-1.4-.08A1.11,1.11,0,0,0,40.43,8.24Zm41.62-.08a1.42,1.42,0,0,0-1.54,0s-.07.19,0,.21a1.26,1.26,0,0,0,1.31,0C81.85,8.35,81.9,8.28,82.05,8.16ZM19.74,7.28A2,2,0,0,0,18.05,7C18.59,7.52,19.18,7.3,19.74,7.28ZM104.33,7c-1-.09-1-.09-1.64.35C103.22,7.23,103.84,7.58,104.33,7Zm-76,.53c.74.36.74.35,1.4,0A1.71,1.71,0,0,0,28.36,7.55ZM94,7.72c-.62-.44-.63-.44-1.28,0A1.63,1.63,0,0,0,94,7.72ZM23.72,7.51c-.53-.41-.53-.41-1.49-.06A2.4,2.4,0,0,0,23.72,7.51ZM100,7.29c-.42.06-.92-.39-1.36.21C99.16,7.62,99.59,7.68,100,7.29Zm-69.44.36c.37.17.75.38,1.16-.07A.94.94,0,0,0,30.54,7.65Zm60.15-.09a.85.85,0,0,0,1.28,0A1.35,1.35,0,0,0,90.69,7.56ZM71.38,19.23c-.27.27-.71.39-.46.91,0,.06.12.08.19.12.11-.29.23-.57.34-.85C71.46,19.38,71.42,19.34,71.38,19.23Zm-20.1,1.21c.5-.73.06-.92-.43-1.38ZM98,7.53c-.15-.52-.52-.37-.85-.28-.05,0-.11.15-.09.19.16.33.46.2.72.19C97.85,7.63,97.92,7.57,98,7.53Zm-73.23.12c.23,0,.53.08.57-.25s-.18-.22-.34-.22-.52-.06-.56.27S24.64,7.62,24.77,7.65Zm2.86-.14a4.14,4.14,0,0,0-1.73,0A3,3,0,0,0,27.63,7.51Zm68.66-.07H94.73A1.93,1.93,0,0,0,96.29,7.44ZM17.3,7a3.32,3.32,0,0,0-1.42,0A2.87,2.87,0,0,0,17.3,7Zm88.06,0,0,.09h1.2V7Zm-3.8.26c-.26,0-.53-.2-.79.13C101.07,7.35,101.33,7.42,101.56,7.22ZM50.08,24.81s.07,0,.11,0c.21,0,.45.15.62-.1,0,0,0-.09,0-.1-.23-.17-.41.08-.62.08C50.14,24.73,50.11,24.78,50.08,24.81ZM21.76,7.24a1.44,1.44,0,0,0-1.06.06A1.56,1.56,0,0,0,21.76,7.24ZM72.29,24.83s0-.09-.06-.1c-.21,0-.39-.23-.61-.09,0,0,0,.07,0,.1.15.28.39.1.6.12C72.22,24.87,72.26,24.84,72.29,24.83Zm-.59-9.94-.06-.19s-.06.06-.06.08a1.06,1.06,0,0,0,.06.19Zm-20.9,0a.14.14,0,0,0,0-.11c0-.1-.08-.08-.1,0s0,.07,0,.1Zm63-8.32-.07,0,0,0ZM8.68,6.57v0h-.1Zm108.94-.46c.12,0,.12,0,0-.08s-.06,0-.09,0ZM4.87,6.05H4.69s0,0,.08.06h.09S4.87,6.06,4.87,6.05ZM57,73.07s0,.08,0,.1.08,0,.08-.07Zm.77.05h0v.1Zm6.9,0,0,.11,0-.11Zm.74.09,0,0s0-.06,0-.09,0,0,0,0A.3.3,0,0,0,65.39,73.21ZM118.7,5.84s.06,0,.09,0,0-.07-.06-.07S118.71,5.82,118.7,5.84ZM3.59,5.84l.09,0s0,0,0-.05l-.09,0ZM50.71,18.28l.07,0v-.08Zm21,0-.07-.05v.09ZM47.59,26.7l.06,0v-.06Zm27.18,0,0,.06h.06ZM66.31,74l.06,0V74Z"/><path d="M61.7,16c0,.34,0,.68-.42.74s-.57-.18-.57-.56-.05-.65.41-.69S61.72,15.63,61.7,16Z"/></g></g></svg>