<svg xmlns="http://www.w3.org/2000/svg" viewBox="0 0 56.62 71.59"><title>Aglantha</title><g id="Layer_2" data-name="Layer 2"><g id="Aglantha"><path d="M43,50.86c2.21.69,3.19,2.55,4.25,4.32a39.12,39.12,0,0,1,2.65,6.34c.14.37.33.72.49,1.08a.7.7,0,0,0,.62.5c.77,0,1.29.59,1.93.89a2.62,2.62,0,0,1,1.22,1.43c.2.47,0,.66-.55.59-1-.12-1-.12-1-1.08-1.63-.11-2.44-1.23-3.08-2.54s-1-2.86-1.58-4.24a20.34,20.34,0,0,0-2.89-5.06,5.36,5.36,0,0,0-1.06-1c-.88-.64-1.19-.62-2.08.09,0,.07,0,.17.07.21,2.23,1.5,3.16,3.81,3.83,6.26a24,24,0,0,1,.49,3.78c.14,1.21.55,2,1.46,2.07s1.22.68,1.72,1.17a2.07,2.07,0,0,1,.37.61.45.45,0,0,1-.19.62c-.26.13-.59.16-.72-.17A3.71,3.71,0,0,0,47.08,65c-1.26-.75-1.46-2-1.5-3.31a13.56,13.56,0,0,0-2-6.66,6.26,6.26,0,0,0-2-2c-.5-.33-.51-.33-1.27,0,1.84,2.24,2.38,5,3,7.68a6,6,0,0,1,.18,1.76c-.08,1.17.65,2,.94,3a.79.79,0,0,0,.67.58,5.56,5.56,0,0,1,1.94,1.12,1.08,1.08,0,0,1,.35.47.38.38,0,0,1-.18.51.29.29,0,0,1-.42-.1c-.23-.46-.69-.43-1.07-.61a3.09,3.09,0,0,1-2-2c-.16-.62-.72-1.1-.78-1.82a26.07,26.07,0,0,0-.6-4.12,17.91,17.91,0,0,0-1.87-5c-.81-1.3-1-1.38-2.61-.8a14.38,14.38,0,0,1,2,4.75,33.78,33.78,0,0,1,.63,4,8.89,8.89,0,0,0,1.1,4.2,11.54,11.54,0,0,0,1.79,1.9c.28.27.68.14,1,.16a1.23,1.23,0,0,1,1,.5.38.38,0,0,1,0,.33c0,.08-.23.17-.29.14-.69-.36-1.52-.21-2.17-.49a4.21,4.21,0,0,1-1.54-1.54A8.61,8.61,0,0,1,40,63.15a21.15,21.15,0,0,0-1.4-7A12.72,12.72,0,0,0,38,55c-.7-1.25-.88-1.33-2.38-1.11.88,2.27,1.35,4.68,2.4,6.9a8.93,8.93,0,0,1,.58,3.74,5.28,5.28,0,0,0,.31,2.23,3.4,3.4,0,0,1,.12.34c.23.61-.82,1.19,0,1.83.53.42.28,1.23.8,1.68.12.11,0,.32-.12.4s-.37.08-.43-.06c-.39-.88-1.23-1.68-1.1-2.62a6,6,0,0,0-.23-2.53,5.36,5.36,0,0,1,0-1.79,7.37,7.37,0,0,0-.79-3.82,22.23,22.23,0,0,1-1.41-4,8.68,8.68,0,0,0-.5-1.46A.91.91,0,0,0,34,54.13c.19.65.44,1.29.58,2,.35,1.67.59,3.35.78,5a31.5,31.5,0,0,0,.8,5.89,1.16,1.16,0,0,1,0,.82,2.4,2.4,0,0,0,0,1.65,1.37,1.37,0,0,1-.2,1c0,.12-.2.11-.32.08s-.25-.13-.21-.23c.34-.81-.35-1.64.08-2.46a1.08,1.08,0,0,0,0-.71c-.7-2.59-.58-5.29-1-7.91a24.17,24.17,0,0,0-1-4.29c-.34-1-.33-1-1.63-.82.33,1.09.63,2.19,1,3.26A8.06,8.06,0,0,1,33,62.91,19.38,19.38,0,0,0,32.22,66a2.9,2.9,0,0,0,.22,2.1c.08.13.18.34.13.44-.4.82.08,1.35.58,1.89.13.14.28.32.09.51a.47.47,0,0,1-.66,0,2.55,2.55,0,0,1-.85-2.11c0-.11.14-.25.11-.33-.78-2.15,0-4.17.61-6.15a6.78,6.78,0,0,0,.13-3.86c-.34-1.22-.76-2.42-1.15-3.62-.06-.19-.16-.36-.22-.55-.16-.43-.52-.29-.82-.28s-.42.34-.37.61c.18,1,.41,2.09.59,3.14s.52,2,.6,3A10.43,10.43,0,0,1,30,66.24a4.58,4.58,0,0,0-.19,4c.11.26.23.51.33.77s.08.48-.22.58a.48.48,0,0,1-.61-.24,2.58,2.58,0,0,1-.22-.68,7,7,0,0,1,.5-5.15,7.63,7.63,0,0,0,.81-5.65,21.71,21.71,0,0,1-1-5.37.36.36,0,0,0-.32-.41,3.94,3.94,0,0,0-1.64,0,.42.42,0,0,0-.38.49c0,2.17-.77,4.21-1.09,6.32A4.61,4.61,0,0,0,26.12,63a26.61,26.61,0,0,0,1.23,3.33,3.87,3.87,0,0,1,.36,3c-.18.5,0,1-.27,1.52-.1.17-.1.39-.21.55a.47.47,0,0,1-.63.17.38.38,0,0,1-.18-.51,8.5,8.5,0,0,1,.46-1.22,4.11,4.11,0,0,0-.34-3.61,10.16,10.16,0,0,1-.86-7c.31-1.27.58-2.55.85-3.83a3.35,3.35,0,0,0,0-.71c0-.24,0-.51-.33-.53s-.56-.12-.78.15a.58.58,0,0,0-.1.21A31.84,31.84,0,0,0,23.77,60,4.36,4.36,0,0,0,24,62a17.88,17.88,0,0,1,1,4.4,4.71,4.71,0,0,1-.12,1.76c-.2.59.11,1.23-.2,1.81-.2.39-.32.83-.75,1a.5.5,0,0,1-.57,0c-.2-.18-.1-.38.05-.51a1.78,1.78,0,0,0,.62-2c-.12-.38.39-.82.4-1.34a11.27,11.27,0,0,0-.29-2.25,15.28,15.28,0,0,0-.59-2.18,8,8,0,0,1,0-4.92c.37-1.21.75-2.4,1.11-3.58a1.38,1.38,0,0,0-.88-.16c-.34,0-.44.16-.56.47a22.66,22.66,0,0,0-1.16,5.33c-.14,1.18-.33,2.36-.4,3.55s-.36,2.59-.5,3.89a15,15,0,0,0,0,2.92c0,.17,0,.32-.18.37a.31.31,0,0,1-.44-.25c0-.12-.14-.24-.11-.34.34-1.12-.31-2.27.1-3.39A12.27,12.27,0,0,0,21,63.78c.16-1.5.31-3,.48-4.51a24.51,24.51,0,0,1,1.15-5.11c-.69-.32-1,.09-1.29.62a10.33,10.33,0,0,0-.68,2.15,18.82,18.82,0,0,1-1.13,3.13,8,8,0,0,0-.86,3.8,5.61,5.61,0,0,1-.39,3,1.08,1.08,0,0,0,.07.92,1.37,1.37,0,0,1-.34,1.64.84.84,0,0,0-.29.74.94.94,0,0,1-.38.72.34.34,0,0,1-.52,0,.3.3,0,0,1,0-.43c.57-.48.28-1.42,1-1.85.27-.17.07-.42,0-.63a1.6,1.6,0,0,1,0-1.6,2.3,2.3,0,0,0,.2-1.28A12.23,12.23,0,0,1,19.33,59a16.23,16.23,0,0,0,1-3.06A6.21,6.21,0,0,1,21.06,54c-1.42-.46-1.63-.4-2.32.76a13.5,13.5,0,0,0-1.68,4.92c-.28,1.73-.45,3.47-.71,5.19A7.49,7.49,0,0,1,14.71,68c-.25.35-.76.45-.86,1,0,.16-.24.22-.39.22a4.26,4.26,0,0,0-2.08.4.24.24,0,0,1-.31-.1.36.36,0,0,1,0-.44,1.06,1.06,0,0,1,.84-.4,2.23,2.23,0,0,0,2-.94A6.67,6.67,0,0,0,15.85,64a29.3,29.3,0,0,1,1.38-7.47,17,17,0,0,1,1.39-2.76c-1.36-.72-1.73-.62-2.5.6a18.05,18.05,0,0,0-2.18,6.37,18.8,18.8,0,0,0-.3,2.36,4.1,4.1,0,0,1-.74,2.09c-.36.51-.47,1.2-1.05,1.64a2.4,2.4,0,0,1-1.34.7c-.45,0-.59.35-.83.6a.31.31,0,0,1-.43,0,.39.39,0,0,1-.14-.43A1.11,1.11,0,0,1,9.63,67a6,6,0,0,1,1.86-1c.17,0,.38-.06.4-.21.16-.9,1-1.5,1-2.46a22.37,22.37,0,0,1,.79-4.81,13.42,13.42,0,0,1,2.54-5.48A.92.92,0,0,0,15,53a8.24,8.24,0,0,0-3.13,4.39A14.83,14.83,0,0,0,11,61.92a3.38,3.38,0,0,1-2,3.4,2.38,2.38,0,0,0-1.32,1.32A.51.51,0,0,1,7,67c-.38-.18-.29-.5-.12-.81a3.15,3.15,0,0,1,1.61-1.53c1.45-.53,1.69-.81,1.85-2.35a20.21,20.21,0,0,1,.76-4.57,9.4,9.4,0,0,1,3.63-5.3c-.82-.89-1.14-.94-2.07-.28a9.82,9.82,0,0,0-2.73,3.43,38.76,38.76,0,0,0-2.45,5.93,7.49,7.49,0,0,1-.89,1.82,2.92,2.92,0,0,1-2.31,1.58c-.36,0-.17.25-.16.41a.66.66,0,0,1-.37.7,3,3,0,0,1-1.15.09c-.21,0-.22-.32-.17-.51a2.51,2.51,0,0,1,.86-1.26,4.85,4.85,0,0,1,2.07-1.13,1.39,1.39,0,0,0,1.09-1c.35-.84.7-1.69,1-2.56a22.85,22.85,0,0,1,3.3-6.56A4.51,4.51,0,0,1,13.74,51a1.65,1.65,0,0,0-1.68-.28,5.05,5.05,0,0,0-2.58,1.43,15.38,15.38,0,0,0-3.19,4.31,10.51,10.51,0,0,1-1.88,2.61,1.85,1.85,0,0,1-.75.56,2.44,2.44,0,0,0-1.57,1.23c-.27.47-1.12.62-1.72.88-.07,0-.23,0-.31-.11a.24.24,0,0,1,0-.32,1.79,1.79,0,0,1,1-.77c.33-.12.51-.21.61-.6a.86.86,0,0,1,.89-.66,1.86,1.86,0,0,0,1.34-.7,8.39,8.39,0,0,0,1.8-2.5,14.49,14.49,0,0,1,3.56-4.61,5.51,5.51,0,0,1,4.22-1.54A2.85,2.85,0,0,0,11,49.75a12.38,12.38,0,0,0-7.06,3.66,10.12,10.12,0,0,0-2.4,3.37A.46.46,0,0,1,1,57.1a3,3,0,0,1,1-2.46,2.63,2.63,0,0,0,.5-.5c1.6-2.56,4.16-3.74,6.86-4.67A9.77,9.77,0,0,1,13,49c.27,0,.59.08.63-.34s-.26-.55-.6-.56a10.22,10.22,0,0,0-3.44.24,1.83,1.83,0,0,0-.32.14,11,11,0,0,1-3.48,1.68.75.75,0,0,0-.48.51.77.77,0,0,1-.59.53c-.32.1-.68.14-.85-.18s.13-.51.38-.66a5.91,5.91,0,0,1,2.54-1.2,1.63,1.63,0,0,0,.84-.42c1.65-1.4,3.6-1.51,5.7-1.3.21-.15.06-.45.09-.71s-.15-.49-.54-.58a3.58,3.58,0,0,0-2.79.09c-.68.45-1.44.58-2.12.95A1.37,1.37,0,0,1,7,47.3a.48.48,0,0,1-.4-.39c0-.24.17-.27.35-.37a9.74,9.74,0,0,1,6.1-1.1c.12-.36.23-.73-.07-.91a1.13,1.13,0,0,0-1,0c-.32.14-.57.47-1,.35a.56.56,0,0,1-.41-.4c-.05-.26.16-.31.37-.35.39-.07.77-.18,1.16-.24.87-.15.91-.15.82-1.06-.14-1.26-.33-2.52-.51-3.78-.22-1.49-.46-3-.68-4.48-.19-1.26-.32-2.52-.58-3.77-.13-.64-.09-1.27-.16-1.9a38.58,38.58,0,0,1,0-6.45,15.79,15.79,0,0,1,2.08-6.91,29.67,29.67,0,0,1,2.68-4.09A28.67,28.67,0,0,1,19.71,7.6a35.46,35.46,0,0,0,4.75-5.2A6.73,6.73,0,0,1,26.88.34c1.49-.71,2.71-.2,3.9.61a4.11,4.11,0,0,1,1.1,1.1,40.1,40.1,0,0,0,2.8,3.42,16.34,16.34,0,0,0,1.88,1.84,36.67,36.67,0,0,1,4,3.82,23.88,23.88,0,0,1,4,6.73,15,15,0,0,1,1,5.35,8.74,8.74,0,0,0,.14,1.91,14.33,14.33,0,0,1-.1,2.62,45.08,45.08,0,0,1-.84,7.34c-.3,2.09-.6,4.17-.88,6.26a6,6,0,0,0-.19,2.4l1.95.41c.15,0,.33.05.35.25s-.14.36-.32.45a.61.61,0,0,1-.67-.06,1.66,1.66,0,0,0-.75-.34c-.68-.07-.78,0-.83.88a1.69,1.69,0,0,0,1,0,10.19,10.19,0,0,1,5.27,1.23.43.43,0,0,1,.23.23.38.38,0,0,1-.2.4.89.89,0,0,1-.81.07,5.64,5.64,0,0,1-2-.75c-1.13-1-2.3-.5-3.49-.38a.29.29,0,0,0-.28.31,1.76,1.76,0,0,0,.1,1,7.91,7.91,0,0,1,4.06.31,2.52,2.52,0,0,1,1,.46,5.47,5.47,0,0,0,2.43,1.18c.73.15,1.17.79,1.82,1.09a.39.39,0,0,1,.17.52c-.08.23-.33.2-.51.22a.79.79,0,0,1-.82-.39c-.32-.81-1-.93-1.73-1.08a2.3,2.3,0,0,1-1.24-.63,3.91,3.91,0,0,0-2.48-1,15.89,15.89,0,0,0-2.39,0c-.35,0-.64.12-.59.56s.38.34.64.34a14.13,14.13,0,0,1,8.52,3,5.5,5.5,0,0,1,1.2,1.16c.48.58.92,1.17,1.45,1.72a2.5,2.5,0,0,1,.69,2.6,18.91,18.91,0,0,0-3-4.28,11.28,11.28,0,0,0-4.34-2.67,7.45,7.45,0,0,0-4.94-.64,6.21,6.21,0,0,1,4.15,1.65,14.75,14.75,0,0,1,3.56,4.62,8.25,8.25,0,0,0,1.81,2.5,1.85,1.85,0,0,0,1.34.7c.25,0,.54.05.62.28.23.76.92,1,1.5,1.32a1.65,1.65,0,0,1,.4.43.22.22,0,0,1,0,.32c-.09.06-.28.14-.31.1-.59-.63-1.88-.28-2-1.51,0-.29-.41-.36-.69-.4a2.06,2.06,0,0,1-1.3-.77,11.1,11.1,0,0,1-1.88-2.62,13.74,13.74,0,0,0-3.19-4.29A4.05,4.05,0,0,0,43,50.86ZM35.74,11.79c0,.13.1.23.25.23a.73.73,0,0,0,.49.72c0,.19,0,.39.22.48a.28.28,0,0,0,.27.24c.06.16,0,.41.23.46,0,.19,0,.41.24.48.08.08-.07.3.15.27,0,0-.1-.17-.18-.24s0-.41-.24-.48a.53.53,0,0,0-.23-.46c0-.14-.09-.25-.26-.24,0-.19.09-.44-.23-.49A.56.56,0,0,0,36,12c0-.2-.06-.28-.26-.22.05-.21-.08-.24-.24-.25,0-.17-.1-.22-.24-.25L35,11.07,35,11l.06,0,.24.24a.33.33,0,0,0,.23.25A.34.34,0,0,0,35.74,11.79Zm-14.63-.25.23-.25.24-.24.06,0,0,.06-.24.24c-.13,0-.24.09-.23.25-.16,0-.3,0-.24.25-.58,0-.72.44-.74.94-.32.06-.21.3-.22.49-.17,0-.24.09-.27.24a.55.55,0,0,0-.23.46c-.26.07-.21.29-.24.48s-.31.1-.1.28l.07-.31c.26-.07.21-.29.24-.48.29-.05.17-.3.23-.46a.29.29,0,0,0,.27-.24c.21-.1.22-.29.23-.48.42-.18.51-.61.73-.94Zm9.6,40.09s0-.26-.16-.07l.18,0,0,.3s.12,0,.12,0A.2.2,0,0,0,30.71,51.63Zm-4.81,0a.2.2,0,0,0-.16.23s.08,0,.12,0l0-.3c.1,0,.22.06.14-.13Zm9.62-37.72a.47.47,0,0,1,.06.09s0,.07,0,.1,0,.08,0,0a.75.75,0,0,0-.1-.17c0-.18,0-.37-.23-.47,0-.18-.06-.36-.25-.45s0-.24-.14-.12l.17.09c.07.16-.1.45.25.45C35.27,13.64,35.23,13.85,35.52,13.91Zm-14.44,0c.31-.05.26-.27.23-.48.35,0,.19-.29.25-.45s.26,0,.11-.16l-.08.19c-.18.09-.21.27-.25.45-.2.09-.2.29-.24.47l-.09.23ZM38.13,45.83a1.89,1.89,0,0,0,1.46-2.11l0,0,0,.07c-1.28.28-1.3.3-1.42,1.53,0,.19,0,.39,0,.58l0,0ZM17,43.72l0,0,.05,0a1.88,1.88,0,0,0,1.43,2.13l0,.06,0,0C18.38,44.06,18.38,44.06,17,43.72Zm9.12-1.23s0,.07.05.1,0,0,.06,0l-.14-.1c0-.12,0-.29-.07-.34a9.58,9.58,0,0,1-2-1.86,15.71,15.71,0,0,0,.24,2.23.41.41,0,0,0,.19.28,5,5,0,0,1,1.69,1.88c.42-.71-.05-1-.35-1.45S25.48,42.51,26.15,42.49Zm4.31,0c.6.28.64.36.25.87s-.78.73-.16,1.33A3,3,0,0,1,31.94,43a.65.65,0,0,0,.4-.56c0-.67.33-1.3.19-2.09a9.59,9.59,0,0,1-2,1.83c-.07,0-.06.22-.09.33l-.1.05,0,.06ZM25.9,41.06l.06.07s0,0,0,0l-.12-.08a1.19,1.19,0,0,0-.1-.58,34.4,34.4,0,0,1-1.86-8c-.15-1.07-.05-2.16-.25-3.21-.42-2.08,0-4.14.12-6.19s.74-4.22,1.05-6.33a7.13,7.13,0,0,0,.27-2.56,7.38,7.38,0,0,0-.33.82,52.17,52.17,0,0,0-1.47,12.5c-.06,3.07.23,6.13.41,9.19A6,6,0,0,0,25.9,41.06Zm4.81,0c1.24-1.12,2.23-2.37,2.14-4.17a2.42,2.42,0,0,1,0-.6,38.84,38.84,0,0,0,.38-5.6,45.92,45.92,0,0,0-.11-6.09,53.86,53.86,0,0,0-.55-5.81,31.79,31.79,0,0,0-1.1-4.6,8.43,8.43,0,0,0,.28,2.65A8,8,0,0,0,32,18.71,15,15,0,0,1,32.66,22c.19,1.15.12,2.32.31,3.45a10.19,10.19,0,0,1,.1,2.86c-.24,2-.23,4-.64,6a36.84,36.84,0,0,1-1.27,5.3,4.7,4.7,0,0,0-.43,1.47l-.09,0s0,0,0,0Zm-.94,4.86a1,1,0,0,0-.32.09c-.09.06-.13.2-.21.28s-.24.25-.41.13a.33.33,0,0,1,0-.52,2.53,2.53,0,0,0,.69-2.61,3.11,3.11,0,0,1,.11-1,4,4,0,0,1-2.7,0,2.31,2.31,0,0,1,.2,1.74,1.27,1.27,0,0,0,.3,1.34c.24.29.83.65.37,1.07s-.42-.49-.8-.49h-.12s0-.08,0-.1.1-.21-.09-.2l.15.27a1.93,1.93,0,0,0,.49,1.06,2,2,0,0,1-.14,2.82c-.26.33-.54.64-.92,1.09a20.92,20.92,0,0,0,4-.09c-.36-.41-.63-.69-.87-1A2,2,0,0,1,29.26,47a2.15,2.15,0,0,0,.49-1.06,1.74,1.74,0,0,0,.11-.18c.06-.1,0-.14-.05-.11s0,.07,0,.1A1.55,1.55,0,0,1,29.77,45.91Zm10.89-1.54c.61-.15,1.18-.33,1.75-.44a.56.56,0,0,0,.49-.57c.25-1.93.45-3.87.77-5.79.22-1.38.32-2.76.6-4.13a26.26,26.26,0,0,0,.55-4.13q.16-3.06,0-6.12a16.57,16.57,0,0,0-1.15-5.33,24.94,24.94,0,0,0-7.26-9.64,27.2,27.2,0,0,1-4.92-5.36A5.24,5.24,0,0,0,29.14,1,1.79,1.79,0,0,0,27.75.84a4.48,4.48,0,0,0-2.41,1.68c-1.77,2.86-4.3,5-6.76,7.24A24.17,24.17,0,0,0,13.25,17c-1.47,2.9-1.51,6.06-1.58,9.22-.07,3.53.73,7,1.11,10.43.18,1.62.42,3.23.7,4.84a6.75,6.75,0,0,0,.34,2.1c.35.62,1.3.38,1.91.73,0,0,.14,0,.22,0,0-.73,0-.74-.54-.82-.32,0-.74,0-.73-.42s.47-.3.76-.35a2.08,2.08,0,0,0,.32-.12c-.57-2.21-1-4.43-1.37-6.66a30.4,30.4,0,0,1-.48-4,41.13,41.13,0,0,0-.35-4.17A19.83,19.83,0,0,1,14,21a19.09,19.09,0,0,1,3.47-7.89,9.88,9.88,0,0,1,4.28-3.5C23.44,9,25,8,26.87,7.81a14.09,14.09,0,0,1,4.36.28c1.8.36,3.29,1.52,5,2.17a1.76,1.76,0,0,1,.29.21,12.73,12.73,0,0,1,3.79,4.4,23.31,23.31,0,0,1,2.89,10.58,7.78,7.78,0,0,1,0,1.67c-.23,1.5-.32,3-.41,4.52-.06,1-.17,2.07-.33,3.08a74,74,0,0,1-1.56,7.87,1,1,0,0,0,.63.14c.2,0,.43.05.45.29s-.19.41-.44.45a2.17,2.17,0,0,1-.36,0C40.39,43.48,40.54,43.91,40.66,44.37Zm-14-17.1a62.2,62.2,0,0,0,.39,7.34c.16,2.18.52,4.33.79,6.5,0,.31.17.56.5.54s.38-.24.41-.51c.23-2,.66-4,.75-6,0-1.11.14-2.23.28-3.34a47.62,47.62,0,0,0,.09-8A11.69,11.69,0,0,1,29.94,20a1.67,1.67,0,0,0,0-.83,15.16,15.16,0,0,1-.41-3.78c0-1.13-.37-2.2-.3-3.32a.38.38,0,0,0-.41-.46h-1c-.28,0-.45.13-.44.43,0,.72-.23,1.42-.24,2.12a35.34,35.34,0,0,1-.5,5.33,1.19,1.19,0,0,0,.07.7,2.89,2.89,0,0,1,.15,1.3C26.9,23.47,26.44,25.45,26.67,27.27Zm7.12-14.44A6.09,6.09,0,0,0,33.35,15a16.22,16.22,0,0,0,1,5.11c1,3.43,1.87,6.87,1.4,10.53a18.72,18.72,0,0,1-1.5,6.21A13.45,13.45,0,0,0,33.16,41c-.12.84-.08.89.81,1,.28,0,.61,0,.58.41s-.35.41-.61.3c-.62-.28-.81,0-.82.56a1.83,1.83,0,0,0,.11,1.09,7.16,7.16,0,0,1,2.32-1.48,1,1,0,0,0,.67-1,10.3,10.3,0,0,1,.29-2.36,46.49,46.49,0,0,0,.84-8.05,49.47,49.47,0,0,0-.52-11.27,1.43,1.43,0,0,0-.23.27.68.68,0,0,1-.87.43c-.34-.1-.42-.42-.48-.75a5.77,5.77,0,0,1-.14-2.61C35.57,15.79,34.92,14.36,33.79,12.83ZM19.72,20.09c0,.53,0,.93-.08,1.32a36,36,0,0,0-.43,4.75,75.19,75.19,0,0,0,.48,10.5c.23,1.84.49,3.69.72,5.54,0,.32.25.44.51.59a10.48,10.48,0,0,1,2.59,1.64c0-.36,0-.55,0-.75,0-.94,0-.94-1-.93-.22,0-.4,0-.43-.29s.13-.41.41-.46c1.11-.2,1.12-.21.91-1.29a3.8,3.8,0,0,1-.13-1.06,3.49,3.49,0,0,0-.43-1.72,20.93,20.93,0,0,1-2-11.21,32,32,0,0,1,1.58-7.19,17.73,17.73,0,0,0,.79-3.11,5.53,5.53,0,0,0-.39-3.53c-1.06,1.41-1.73,2.8-1.31,4.5a6.3,6.3,0,0,1-.15,3c-.15.69-.69.78-1.22.24C20,20.48,19.91,20.34,19.72,20.09ZM17.9,43.17c0-.14,0-.26,0-.28-.62-.38-1-.79-.29-1.44.2-.19,0-.37-.08-.55a52.68,52.68,0,0,1-1-6.1c-.19-2.55-.26-5.1-.33-7.65a39.41,39.41,0,0,1,.37-5.84c.16-1.39.84-2.72.45-4.18a1.86,1.86,0,0,1,.09-1.06,1.56,1.56,0,0,0,0-1c-.13.19-.25.34-.35.51a19.5,19.5,0,0,0-2.38,9.47,37.56,37.56,0,0,0,.16,6.09c.14,1.14.17,2.31.36,3.44.4,2.45,1,4.88,1.55,7.31C16.72,42.85,17.17,43,17.9,43.17ZM39.41,15c-.08.95.32,1.64.17,2.36a6.85,6.85,0,0,0,.2,2.66,36.62,36.62,0,0,1,.6,7.83c-.09,1.76-.17,3.51-.25,5.26a49.38,49.38,0,0,1-.92,7.07c-.09.48-.62,1.06.08,1.6a.82.82,0,0,1-.33,1c-.18.08-.39.12-.21.38a1.27,1.27,0,0,0,1.36-1.27c.24-1.52.73-3,1-4.51a51.11,51.11,0,0,0,1-8.63A52.24,52.24,0,0,0,42,23,18.27,18.27,0,0,0,39.41,15Zm-2.84-.43A28.3,28.3,0,0,1,37,17.67c.26,1.44.57,2.86.71,4.33a49.52,49.52,0,0,1,.4,6.2,47.11,47.11,0,0,0-.2,4.9,17.52,17.52,0,0,1-.31,3.69c-.25,1.82-.6,3.64-.76,5.53.78-.15,1.34-.48,1.49-1.26a50.09,50.09,0,0,0,1-6.57c.07-1.39.07-2.8.27-4.17a34.23,34.23,0,0,0-.11-7.64c-.08-.9-.28-1.8-.44-2.7,0-.12.07-.29-.21-.32-1.1-.11-1.29-.94-1.23-1.81A5.36,5.36,0,0,0,36.57,14.53Zm-16.52-.07a2.64,2.64,0,0,0-.27.33A6.19,6.19,0,0,0,19,17.86c.08.86-.11,1.7-1.23,1.8-.19,0-.17.12-.19.21a47.35,47.35,0,0,0-.72,6.28c-.08,2.59.27,5.16.4,7.75a45.22,45.22,0,0,0,1,7.05c.21,1,.46,1.14,1.53,1.24a10.45,10.45,0,0,1-.27-2,34.67,34.67,0,0,1-.77-5.54c0-2.79-.34-5.58-.27-8.37,0-.88.22-1.74.23-2.62a15.59,15.59,0,0,1,.3-3.21C19.47,18.49,19.6,16.48,20.05,14.46Zm9.3,27,.24.06a17.47,17.47,0,0,0,1.71-4.86,41,41,0,0,0,.47-16.33c-.09.38-.22.79-.53.8-.84,0-.77.55-.76,1.12,0,1.24,0,2.48.17,3.71a13.49,13.49,0,0,1,0,3.59c-.24,1.62-.11,3.26-.39,4.88-.21,1.25-.28,2.52-.44,3.77C29.68,39.28,29.51,40.37,29.35,41.45ZM27,41.57c.36-.23.24-.42.21-.61a41.48,41.48,0,0,1-.65-4.47c-.07-1-.15-2-.26-3-.23-2-.39-4-.42-6.07,0-1.84.31-3.66.23-5.5,0-.42.05-.81-.58-.78-.44,0-.52-.46-.76-.75a43.22,43.22,0,0,0-.34,10.77A31.66,31.66,0,0,0,27,41.57Zm4.5,11.69c.86,0,1.62,0,2.37,0a.86.86,0,0,0,1-.83,23.61,23.61,0,0,0,.54-4.1c0-.46.37-1,0-1.34a4.08,4.08,0,0,0-1.46-.4h-.11c-1.12-.1-1.12-.1-1.35,1-.12.61-.27,1.19.36,1.72s.66,1.09-.24,1.49a1.08,1.08,0,0,0-.77,1A7.27,7.27,0,0,1,31.52,53.26Zm-6.48,0a8.38,8.38,0,0,0-.14-.85c-.2-.69-.26-1.41-1.18-1.72-.66-.22-.66-.77,0-1.28a1.29,1.29,0,0,0,.51-1.35A9.87,9.87,0,0,1,24,47c0-.38-.24-.45-.57-.42a5.63,5.63,0,0,0-.71,0,3.83,3.83,0,0,0-1.56.43c-.34.27.07.88,0,1.35a.59.59,0,0,0,0,.23c.18,1.29.34,2.59.56,3.87a.8.8,0,0,0,.95.78C23.43,53.21,24.23,53.26,25,53.26Zm8.62-17.19a20.77,20.77,0,0,0-.06-15.5,52.66,52.66,0,0,1,.26,7.74A61,61,0,0,1,33.66,36.07ZM22.94,20.59a21.9,21.9,0,0,0,0,15.68A132.29,132.29,0,0,1,22.94,20.59Zm13.38,26.5a14.9,14.9,0,0,0-.2,1.69c-.19,1.25-.3,2.5-.58,3.74a.39.39,0,0,0,.2.5,2.28,2.28,0,0,0,1.82-.75c.37-1.28.71-2.58,1-3.87.1-.42.06-.77-.52-.85A14.34,14.34,0,0,1,36.32,47.09Zm-16,.09c-.06,0-.1,0-.13,0l-1.37.37c-.87.25-.95.36-.73,1.21s.58,1.89.74,2.85.81,1.33,1.69,1.44c.52.07.68-.06.56-.58C20.67,50.69,20.53,48.92,20.29,47.18ZM39.64,48a38,38,0,0,0-.71,4.53,6.78,6.78,0,0,0,2.78-1.23,1.16,1.16,0,0,0,.06-1.93A6.8,6.8,0,0,0,39.64,48Zm-21.9,4.53c-.38-1.57-.25-3.08-.82-4.51a7,7,0,0,0-2,1.25c-.81.8-.78,1.47.12,2.17A7.32,7.32,0,0,0,17.74,52.54Zm13.13-31.9a4.68,4.68,0,0,0,.47-2.48,40,40,0,0,1-.66-5.56,2.08,2.08,0,0,0-.1-.7.45.45,0,0,0-.56-.32c-.27.06-.26.28-.24.47a4.51,4.51,0,0,0,.12.82,19,19,0,0,1,.61,5.31A11.14,11.14,0,0,0,30.87,20.64Zm-5.16-.28a8.25,8.25,0,0,0,.4-2.56,17.18,17.18,0,0,1,.19-2.86,19.13,19.13,0,0,0,.51-2.8c0-.22.08-.51-.26-.56s-.52.18-.6.46a1.94,1.94,0,0,0,0,.59,29,29,0,0,1-.57,5.09A5.05,5.05,0,0,0,25.71,20.36Zm6.17,28.31c0-.66,0-1.21,0-1.76s-.22-.52-.6-.55A1.27,1.27,0,0,0,30,47a2.84,2.84,0,0,0-.57,1.24A10,10,0,0,1,31.88,48.67Zm-7,0a8.48,8.48,0,0,1,2.35-.48,3.8,3.8,0,0,0-.89-1.55A1.25,1.25,0,0,0,25,46.43c-.41.09-.25.52-.26.81A3.58,3.58,0,0,0,24.87,48.68Zm-8.24-1.31c.23-.59-.11-.88-.1-1.23,0-.68-.4-1-1-1.18a5.88,5.88,0,0,0-.91-.26c-.21,0-.52-.15-.65.11a.74.74,0,0,0,.14.89C14.92,46.27,15.76,46.79,16.63,47.37Zm10.08,4.55c-.36.49-.91.68-1,1.28a13.6,13.6,0,0,0,2.65-.09,7.56,7.56,0,0,0,2.56,0,4.61,4.61,0,0,0-1-1.14.8.8,0,0,0-.12.21c0,.26,0,.59-.36.65s-.42-.13-.62-.28-.18-.64-.59-.67c-.31.4-.43,1-1.11.93C26.67,52.77,26.91,52.31,26.71,51.92ZM40,47.22a20.85,20.85,0,0,0,2.57-1.57.91.91,0,0,0,.11-.81c-.11-.29-.42-.17-.63-.14C40.45,44.9,39.94,45.53,40,47.22ZM30.53,10.66c.62-.1,1.17-.18,1.7-.29s1.09.17,1.51-.35a2.82,2.82,0,0,0-1.11-.78C31,8.45,30.64,8.71,30.53,10.66Zm-4.5,0c.22-.53-.08-1-.17-1.41a.57.57,0,0,0-.71-.42,4.44,4.44,0,0,0-2.46,1.45A20,20,0,0,1,26,10.65ZM17.9,18.81a1.42,1.42,0,0,0,.54-1.26c0-.64,0-1.27,0-1.91a3.2,3.2,0,0,1,.67-2.56.51.51,0,0,0,.11-.65C17.65,14.33,17.58,16.46,17.9,18.81Zm20.75,0c.5-2.45.14-5-1.35-6.3.06.15.06.27.13.35a4.55,4.55,0,0,1,.75,3.49,11.43,11.43,0,0,0,0,1.31A1.44,1.44,0,0,0,38.65,18.78Zm-6.11-3.66A10.73,10.73,0,0,1,32.63,14a7.79,7.79,0,0,1,.24-.92,1.46,1.46,0,0,0-1-1.92.54.54,0,0,0-.56,0c-.2.17-.1.36,0,.53A16.6,16.6,0,0,1,32.54,15.12Zm-8.47-.2a20.88,20.88,0,0,1,1.24-3.28c.14-.24.12-.49-.22-.53a1.58,1.58,0,0,0-1.43,1.72A7.75,7.75,0,0,1,24.07,14.92ZM29,10.21a7.94,7.94,0,0,0-.23-1.44c0-.25-.18-.32-.41-.32s-.49,0-.52.32a8.09,8.09,0,0,0-.23,1.76c0,.19,0,.39.22.49A.78.78,0,0,0,29,10.21ZM20.76,43.52c-.18.42-.21.79.22,1a5,5,0,0,1,1.17,1,.79.79,0,0,0,.73.29c.21,0,.5,0,.58-.27a.52.52,0,0,0-.22-.51A6.86,6.86,0,0,0,20.76,43.52Zm15.1,0a6.37,6.37,0,0,0-1.71.95c-.27.24-.55.45-.83.67a.44.44,0,0,0-.14.53c.06.17.24.17.39.19,1.06.13,1.32-1,2.11-1.33C36.1,44.34,36,43.93,35.86,43.49Zm-8.78,5.25a7.11,7.11,0,0,1-1.58.43c-.52.17-.62.43-.48.86.08.24.11.56.4.59.44-.4.86-.76,1.25-1.15A3.61,3.61,0,0,0,27.08,48.74Zm2.54.13a5.31,5.31,0,0,0,1.56,1.83c.72-1.22.62-1.44-.62-1.69ZM19.09,44.26c-.38.6.18,1.13.12,1.7,0,.24,0,.55.33.53a.57.57,0,0,0,.61-.57C20.23,44.94,20.15,44.79,19.09,44.26Zm18.44,0c-1,.58-1.18.86-1.06,1.76,0,.36.29.46.55.5s.39-.24.37-.47C37.34,45.43,37.85,44.9,37.53,44.22ZM20.76,16.87c-.73,1.37-.73,2.07,0,3.22Zm15.15,3.3a3,3,0,0,0-.09-3.39A13.81,13.81,0,0,0,35.91,20.17ZM24.49,43.8c0,.31,0,.58,0,.86,0,1,0,1,1.07.86C25.21,44.33,25.21,44.33,24.49,43.8ZM31,45.53c1.28.08,1.29.07,1.05-1.74C31.33,44.16,31.26,44.86,31,45.53Zm9.82,2.24c1.89.08,1.8-.17,1.47-1.19C41.82,47,41.23,47.16,40.79,47.77ZM14.25,46.48c-.05,1.33.21,1.51,1.5,1.19C15.38,47.16,14.8,47,14.25,46.48Zm15.54-35.9c.29-.67.07-1.25.35-1.74.06-.12-.09-.28-.27-.33s-.33,0-.32.2A3.25,3.25,0,0,0,29.79,10.58Zm-3,0a2.89,2.89,0,0,0,.29-1.75c0-.19,0-.42-.31-.36s-.4.19-.28.4C26.74,9.38,26.56,9.91,26.79,10.61ZM36.84,43.78c.3-.13.62-.25.92-.4s.12-.27.09-.42-.12-.14-.16-.13a2.67,2.67,0,0,0-.85.29C36.64,43.25,36.7,43.53,36.84,43.78Zm-17.06,0a1.23,1.23,0,0,0,.09-.24c.13-.72-.56-.47-.84-.7s-.28,0-.29.23c0,.47.43.36.64.54A1.61,1.61,0,0,0,19.78,43.78ZM34.9,46c.79.19.79.19.73-.54A1.15,1.15,0,0,0,34.9,46ZM21,45.44a.53.53,0,0,0,0,.73c.09.07.37-.06.56-.11s.14-.07-.07-.32A1,1,0,0,0,21,45.44Zm-3.42.75c-.08.39-.08.66.26.74.07,0,.26-.11.26-.17C18.11,46.45,17.83,46.36,17.59,46.19Zm21.42,0c-.24.23-.6.27-.49.62a.32.32,0,0,0,.29.12C39.13,46.79,39.11,46.53,39,46.18Zm-15.57-35a.34.34,0,0,0-.39-.31c-.12,0-.25.06-.19.2s.14.31.26.35S23.37,11.31,23.44,11.18Zm10.12-.31c-.2,0-.38.07-.37.31a.33.33,0,0,0,.22.24c.23,0,.29-.18.35-.35S33.67,10.9,33.56,10.87Zm-1,39.2c0-.15-.08-.25-.21-.25s-.18.12-.18.23,0,.25.14.22S32.49,50.13,32.57,50.07Zm-8.13,0c0-.08-.05-.23-.13-.28a.17.17,0,0,0-.24.16.46.46,0,0,0,.16.26C24.39,50.38,24.39,50.22,24.44,50.1Zm-6,2.25-.05-.09a1,1,0,0,0-.08.18s0,.05.06.08S18.39,52.41,18.41,52.35Zm19.9,0,0-.11a.33.33,0,0,0-.06.1.38.38,0,0,0,0,.1Zm-18-38.27,0-.07h-.07Zm16.08,0,0-.07h-.07ZM14.52,48.36l0,.06h.08Zm27.63,0-.07,0,0,.06ZM27.42,51.76l.06,0v-.07Zm1.68,0,.06,0v-.06Z"/></g></g></svg>