<svg xmlns="http://www.w3.org/2000/svg" viewBox="0 0 381.84 391.81"><defs><style>.cls-1{fill:#fff;}</style></defs><title>Asset 1</title><g id="Layer_2" data-name="Layer 2"><g id="Layer_1-2" data-name="Layer 1"><path d="M305.85,181.6A32.16,32.16,0,0,1,318,196c3.34,7.94,5.63,16.14,4.59,24.9a35.25,35.25,0,0,1-3.49,10.85c-6,12.73-14.37,23.84-23.82,34.18a61.68,61.68,0,0,0-8.66,12c-3.59,6.57-2.87,13.05.46,19.39,2.86,5.46,7.18,9.65,12.06,13.33,2.93,2.22,5.74,4.6,8.48,7.05,5,4.49,6.38,10.29,5.59,16.73a52.08,52.08,0,0,1-1.3,6.12,6.59,6.59,0,0,1-1,2.34c-.36.5-1.13,1.08-1.63,1-.95-.14-.93-1.05-.76-1.87.3-1.38.64-2.75.85-4.13A9.41,9.41,0,0,0,308,331a4.1,4.1,0,0,0-3.87-2.07c-.59,0-1.19,0-1.78,0a5.83,5.83,0,0,1-5-2.51,4.88,4.88,0,0,0-5.26-2c-.8.16-1.6.32-2.41.46-4.37.75-6.3-.4-7.46-4.17A43,43,0,0,1,276,320a12.83,12.83,0,0,1-3.7-2.17c-1-.66-1.84-1.47-2.76-2.21a3.43,3.43,0,0,1-1.35-3.85,5.1,5.1,0,0,0-2.15-5.95,23.92,23.92,0,0,1-2-1.43c-1.9-1.66-1.85-3.54,0-5.24a2.27,2.27,0,0,0,.77-1.55,38.87,38.87,0,0,0-.62-4.27c-.2-1.17-.42-2.34-.67-3.68-6.53-3.13-8.62-9.49-10.14-16.14-.46-2,.72-3.55,2.72-4.11,1.12-.32,2.28-.49,3.84-.81-1.21-1.41-2.23-2.64-3.31-3.82a11.55,11.55,0,0,0-1.45-1.24c-2.24-1.85-2.59-3.31-.72-5.56a56.15,56.15,0,0,1,5.72-5.61c.5-.45.84-.76.55-1.43-.68-1.62-1.09-3.43-2.09-4.82-3.3-4.54-.65-10.31,2.29-12.55a5.34,5.34,0,0,1,2.75-.94c.93-.06,1.4-.35,1.39-1.21,0-2,0-4-.22-6.06-.22-2.34-.38-4.67.71-6.81a7.87,7.87,0,0,1,2.26-2.61,1.52,1.52,0,0,0,.75-1.67c-.36-2.18-.73-4.36-1.08-6.39-4.22.85-8.59,2-13,2.56s-8.86.63-13.45.93c1,3.45-.67,6.61-1.61,9.9a8,8,0,0,0-.44,2.13,1.62,1.62,0,0,0,.69,1.24c3.2,1.46,4.05,2.92,3.51,6.4a18,18,0,0,1-.63,2.93,26.53,26.53,0,0,0-1.24,9.66c.16,3.87-1.27,5.15-5.15,5.07h-.74c.2,1.48.34,2.9.59,4.31a8.41,8.41,0,0,1-.89,5.28c-.42.85-.8,1.72-1.22,2.58-1.43,3-.61,5.75.93,8.39.91,1.57,2.48,2.17,4.16,2.59a52.66,52.66,0,0,1,5.1,1.4,6.2,6.2,0,0,1,4.25,5.36,36.72,36.72,0,0,1-.76,14.2,6.05,6.05,0,0,1-3,4.17,1.16,1.16,0,0,0-.48.93,11.07,11.07,0,0,1-1.08,5.55,24.5,24.5,0,0,0-1.14,3.21,3.91,3.91,0,0,0,1.85,4.78,4.57,4.57,0,0,1,2.12,5.08,8.77,8.77,0,0,0,1.16,7.51,6.43,6.43,0,0,1,.46,5.66,14.72,14.72,0,0,1-1.28,3c-1.42,2.38-2.47,4.74-2.08,7.69.18,1.38-.48,2.93-1,4.33a30,30,0,0,1-1.8,4,9.6,9.6,0,0,0-1.12,5.51,7.64,7.64,0,0,1-1.52,5.8c-2.57,3.12-3,6.78-3.39,10.56a18.73,18.73,0,0,0,.54,7.27,12.66,12.66,0,0,0,4.64,7c2.11,1.54,4.36,2.89,6.52,4.36.29.2.63.69.57.95-.11.42-.49,1-.83,1.08a16.86,16.86,0,0,1-5.06.44c-5.55-.94-10.21-3.82-14.23-7.6-10-9.38-16.13-20.84-17.73-34.53a112,112,0,0,1,1.66-34,62,62,0,0,0,1.18-9.28c.11-3.12-1.34-5.89-3.06-8.44a73.37,73.37,0,0,0-10.6-12.07c-6-5.69-11.41-11.84-14.78-19.53a5.83,5.83,0,0,0-.41-.64c-2.47,4.25-6.74,6.23-10.38,9a90.07,90.07,0,0,0-8.43,6.86c-4.86,4.67-6.35,10.54-5.21,17.1.29,1.7.84,3.34,1.19,5a1.75,1.75,0,0,1-.23,1.32,1.22,1.22,0,0,1-1.2,0c-5.76-4.68-11.2-9.57-11.18-17.88a12.27,12.27,0,0,1,2-7,12.54,12.54,0,0,0,2.18-8.11,9.85,9.85,0,0,1,2.76-7.42c.93-1.09,1.15-2.86,1.49-4.37a12.43,12.43,0,0,0,.05-3c-.1-3.88.89-7.22,4.35-9.06,0-2.35,0-4.5,0-6.64,0-1.06-.15-1.74-1.51-1.85s-2.2-1.31-2.52-2.68a4.23,4.23,0,0,1-.13-1.22c.19-3.41-1-6.33-2.68-9.25-1-1.7-1.06-3.92-1.59-6.08h-9.19a20.13,20.13,0,0,0,1,3.72,12.52,12.52,0,0,1-1.22,13.73,8.55,8.55,0,0,0-.69,1.17c-.8,1.67-.68,2.54.89,3.45a7.35,7.35,0,0,1,4.09,5.73c.44,3.88.3,7.66-2.16,10.94a7.55,7.55,0,0,1-4.73,2.75,1.41,1.41,0,0,0-1.33,1.51,10.47,10.47,0,0,1-1,3.33,8.13,8.13,0,0,0-.79,5.8A5.27,5.27,0,0,0,138.8,275c3.38,3.07,3.88,6.84,2.81,11-.47,1.84-1.21,3.61-1.82,5.41a3.19,3.19,0,0,0,.33,3,9.38,9.38,0,0,1,1.23,7.46,10.68,10.68,0,0,0,.29,5.9,6.84,6.84,0,0,1-1.73,7.4,9.3,9.3,0,0,0-2.72,4.72,42.94,42.94,0,0,1-2,5.48,3,3,0,0,0,.76,3.36,11.09,11.09,0,0,1,1.71,2.45,6.42,6.42,0,0,1-.52,7.63,25.69,25.69,0,0,0-2.32,3.19,3.15,3.15,0,0,0,.41,4.08c3.2,3.6,3,8.11-.5,11.91a2.32,2.32,0,0,0-.51,2.61,20.94,20.94,0,0,1,.78,5.33,13.38,13.38,0,0,0,1.51,6.89c2.56,4.6,1.42,9.15-1.14,13.42a14,14,0,0,1-2.2,2.76,1.74,1.74,0,0,1-1.55.4,1.68,1.68,0,0,1-.73-1.39,13.58,13.58,0,0,0-2.91-9.16c-2.35-3.29-4.82-6.51-7.4-9.61-4.64-5.58-7.92-11.83-8.63-19.07a107.37,107.37,0,0,1,0-14c.11-3.31.56-6.6.83-9.91.35-4.44-1.14-8.43-3.23-12.2-3.3-5.95-6.76-11.82-10.13-17.73a22.82,22.82,0,0,1-2.84-10.43c-.39-8.54-.45-17.1,1.62-25.47a94.78,94.78,0,0,1,7.76-19.89,50.53,50.53,0,0,0,4.84-14.69,21.12,21.12,0,0,0-1.89-12.2,2.88,2.88,0,0,0-1.44-1.11A52,52,0,0,1,92,202,18.48,18.48,0,0,1,87.48,195c-.13-.39-.3-.76-.45-1.14-1.58-4-3.68-5.11-7.88-4.17A75.78,75.78,0,0,1,62,191.35a73,73,0,0,1-31.66-7c-12.33-6-21.79-14.87-27-27.8-4.36-10.9-4.29-22-.8-33.1,3-9.61,8-18.31,13.24-26.79C41.59,55.14,78,27,124.05,11.19a206.25,206.25,0,0,1,45.56-9.92,215.8,215.8,0,0,1,45.31-.15,223.6,223.6,0,0,1,99.9,35.16,215,215,0,0,1,56.91,53.28c6.44,8.76,10.51,18.55,10.08,29.75a47,47,0,0,1-8.23,24.34c-6.81,10.3-16.14,17.73-26.9,23.53a73.42,73.42,0,0,1-22,7.73,38.08,38.08,0,0,1-6.64.63C313,175.55,309.16,177.75,305.85,181.6ZM108.06,151.92l-.28-.1a26.17,26.17,0,0,1-2.76,2.41,49,49,0,0,0-16.57,19,37.88,37.88,0,0,1-7.13,9.74c-.28.28-.81.3-1.23.44.1-.42,0-1,.32-1.25,3.55-3.48,6-7.72,8.38-12,3.14-5.67,7-10.69,12.39-14.43a30.64,30.64,0,0,0,9.14-9.21,46.62,46.62,0,0,1,4.14-6.06c6.44-7.64,12.21-15.79,18.13-23.82a47.93,47.93,0,0,1,3.77-4.3c.22-.23.75-.17,1.13-.24-.07.35-.12.72-.22,1.06,0,.12-.18.2-.27.31-2.52,3.14-5.09,6.26-7.56,9.45-3.86,5-7.54,10.1-11.5,15a60.5,60.5,0,0,0-9.14,15.36,83.23,83.23,0,0,1-4.11,9,78.25,78.25,0,0,0-6.52,15.48c-1.37,4.58-3,9.08-4.51,13.63-1,3.2-.45,5.75,2.19,8.27A52.13,52.13,0,0,0,118.9,212.2a103.61,103.61,0,0,0,22.21,3.14c5,.23,10,.22,15,0,4.07-.19,8.12-.94,12.19-1.29a57,57,0,0,0,27.29-9.72c2.86-1.93,5.61-4,8.52-5.88,2.75-1.76,5.83-2.52,9-1.38a50,50,0,0,1,7.78,3.53,33,33,0,0,0,11,4.45,84,84,0,0,0,30.59-.9,55.83,55.83,0,0,0,25.71-12.39c5.57-4.73,10.84-9.82,16.22-14.77,3.43-3.15,7.13-5.8,11.9-6.45,2.16-.3,4.33-.55,6.5-.7a47.08,47.08,0,0,0,19.74-5.71A115.84,115.84,0,0,0,365.14,148c4.25-3.93,5.44-8.85,5.26-14.29a22.29,22.29,0,0,0-2.84-9.32,46.23,46.23,0,0,0-11.95-14.68C348.12,103.53,341,96.87,333.26,91a238.49,238.49,0,0,0-83.67-41.24,15.15,15.15,0,0,0-8.13.18c-.45.13-.92.18-1.63.31.5-1.75,2.12-1.28,3.18-2.08a215.14,215.14,0,0,0-126.49,8.92c3.92-.37,7.6-.76,11.3-1,2-.15,4.08-.13,6.13-.11.3,0,.6.4.91.61a6.91,6.91,0,0,1-.9.66c-.18.09-.45,0-.68,0-4.7.28-9.44.29-14.1.92A49,49,0,0,0,107.34,61a193.86,193.86,0,0,0-29,15.11C55.47,90.28,35.66,108,18.11,128.43,13.87,133.36,10,138.3,8,144.54c-1,3.07-1.49,6.1-.41,9.2a28.67,28.67,0,0,0,2.13,5.14c8.1,13.86,19.85,22.93,35.63,26.24,11.19,2.35,22.53,1.73,33.8.39,6.45-.76,8.88.39,11.39,6.32.37.89.83,1.74,1.42,3a17.14,17.14,0,0,1,.36-2.56c1.19-3.89,2.53-7.73,3.63-11.65a97.93,97.93,0,0,1,9.15-21.86A69.82,69.82,0,0,0,108.06,151.92ZM3.65,146.43l.41.11c.26-.62.55-1.22.77-1.85A44.23,44.23,0,0,1,14,129.33c1-1,2-2,2.88-3.08A256.45,256.45,0,0,1,67.89,80c36.46-24.82,76.61-38.5,120.83-39.8a214.06,214.06,0,0,1,45.4,3.66A232.58,232.58,0,0,1,303.8,68.91a268.69,268.69,0,0,1,52.43,37.94,67.07,67.07,0,0,1,10.44,11.26,35.52,35.52,0,0,1,6,13.32c.41,2.09.51,4.25.78,6.61.31-.57.55-.93.74-1.33,4.73-9.82,6.35-19.87,2.64-30.47-1.67-4.77-3.38-9.46-6.42-13.58a216.94,216.94,0,0,0-58.27-54.57A220.5,220.5,0,0,0,214,4,214.47,214.47,0,0,0,170,4.17a209,209,0,0,0-44.9,9.76A201.77,201.77,0,0,0,54.29,55a189.23,189.23,0,0,0-37.95,46.48c-4,6.88-8.11,13.72-10.48,21.43a59.32,59.32,0,0,0-2.79,13.85A38.39,38.39,0,0,0,3.65,146.43ZM239.85,310c-.69-3,.47-5.44,1.34-8a16.43,16.43,0,0,0,.61-4,1.29,1.29,0,0,0-.71-1c-5.08-1.9-9.46-5-13.9-8a17,17,0,0,1-2.92-2.44c-.36-.38-.32-1.15-.46-1.74l1.79.24c.08,0,.13.12.2.17a70.15,70.15,0,0,0,14.67,9.1c2.81,1.34,4.15.66,4.94-2.32a32.55,32.55,0,0,0,.71-13.11,4.16,4.16,0,0,0-2.89-3.62c-1.11-.39-2.25-.72-3.39-1a13.15,13.15,0,0,1-2.77-.64c-4.46-2.32-8.93-4.64-13.28-7.17-3.12-1.83-5.1-4.87-7.15-7.76-.28-.39,0-1.18.05-1.79.59.17,1.37.17,1.72.55,1.05,1.13,1.93,2.42,2.89,3.63,2.78,3.5,6.58,5.59,10.58,7.57a7.9,7.9,0,0,1-.62-6.08c.48-1.78,1.31-3.47,1.85-5.24a19,19,0,0,0,.75-3.81,13,13,0,0,0-.27-2.83,3.82,3.82,0,0,0-2.33-3.46c-6.38-3-11.43-7.66-15.85-13a3.36,3.36,0,0,1-.79-1.56c-.06-.43.29-.93.46-1.4a3.74,3.74,0,0,1,1.33.64c.6.67,1,1.54,1.57,2.21a47.82,47.82,0,0,0,11.3,9.55,27.5,27.5,0,0,0,6.8,2.64c2.21.6,3-.23,3-2.52a27.48,27.48,0,0,1,0-4.35c.43-2.68,1.14-5.32,1.69-8,.73-3.52.23-4.42-3.26-4.88-6.25-.84-10.31-5-14.52-9.05-.06-.06-.15-.14-.15-.22,0-.46-.17-1.08.06-1.35s.89-.25,1.33-.18.59.4.86.64c1.63,1.45,3.23,2.93,4.87,4.36a13.79,13.79,0,0,0,6.58,3.2c.72-2.54,1.48-5,2.07-7.41a18.77,18.77,0,0,0,.43-3.89c0-1.23-.5-2.06-2-2a10,10,0,0,1-2.16-.25c-5.09-.78-10.12-1.75-14.45-4.83a47.81,47.81,0,0,0-4.74-3.18c-5.12-2.78-8.28-2.38-11.94.67a69,69,0,0,1-17.5,10.41,2.33,2.33,0,0,0-1.17,1.33,55.25,55.25,0,0,0-2.07,8c-.71,5.17-1.19,10.37-1.53,15.57a51.41,51.41,0,0,0,4,24.48A55.62,55.62,0,0,0,198,280.57c3.65,3.54,7.47,6.91,11,10.53a21.9,21.9,0,0,1,6.27,11.42c.76,4.07.06,8.06-.57,12-1.27,8-2.91,15.89-3.2,24-.44,12.44,2.2,24,9.29,34.36,4.16,6.09,9,11.43,15.76,14.69a64.72,64.72,0,0,0,6.29,2.32l.22-.49c-.4-.27-.78-.56-1.18-.82a20.38,20.38,0,0,1-6-5.44,18.8,18.8,0,0,1-2.67-14.09,10.11,10.11,0,0,0-2.16-8.69c-.73-.87-1.45-1.75-2.23-2.58-2.56-2.72-4.21-6-5.86-9.3-.36-.72-.63-1.59.27-2s1.44.3,1.75,1.05c2.24,5.53,6.64,9.57,9.94,14.44.71-1.12,1.43-2.22,2.1-3.35a6.21,6.21,0,0,0,.53-5.88,24.3,24.3,0,0,0-2.81-4.77,23.11,23.11,0,0,0-3.49-3.43,14.07,14.07,0,0,1-4-6.53,1.86,1.86,0,0,1,.48-1.7c.78-.47,1.3.21,1.62.94s.64,1.61,1,2.37a10.1,10.1,0,0,0,1.39,2.16c2.33,2.45,4.74,4.83,7.12,7.24.81-1.9,1.78-4,2.62-6.14a6,6,0,0,0-1.39-6.92,60.19,60.19,0,0,0-6.12-5.39,21.06,21.06,0,0,1-8.28-12.88,10,10,0,0,1-.41-2.26,1.49,1.49,0,0,1,.81-1.17,1.51,1.51,0,0,1,1.21.73,10.27,10.27,0,0,1,.62,2.22c.8,3.27,1.9,6.44,4.41,8.77,3.31,3.07,6.81,5.94,10.3,8.94.83-1.72,1.76-3.49,2.54-5.32a5,5,0,0,0-.45-5.07,9,9,0,0,1-1.28-7.66c.53-2.24-.11-3.5-2.3-4-7.51-1.74-12.16-6.91-16-13.09a1.26,1.26,0,0,1-.29-.74c.06-.41.16-1,.44-1.15a1.49,1.49,0,0,1,1.24.13,3.83,3.83,0,0,1,.86,1c1.62,2.13,3.14,4.35,4.9,6.37A17.21,17.21,0,0,0,239.85,310Zm71.31,21.82a14.63,14.63,0,0,0-3.21-10.4,44.83,44.83,0,0,0-9.3-8.36,44,44,0,0,1-14.52-16.33,19.82,19.82,0,0,1-2.25-12.5,31.35,31.35,0,0,1,6.72-14.69c3.68-4.57,7.44-9.07,11.06-13.67,3.23-4.11,6.56-8.16,9.38-12.53a114,114,0,0,0,7-13.08c4.07-8.62,4.87-17.5,1.37-26.55-1-2.54-1.94-5.1-3.07-7.58-2.05-4.51-4.88-8.4-9.32-10.88-.91-.51-1.66-.86-2.59.22-8.28,9.62-18.68,16.17-30.48,20.62a3,3,0,0,0-2.13,3.63c.31,1.77.72,3.53,1.12,5.46,1.37,0,2.77,0,4.17,0a20.45,20.45,0,0,0,12.9-4c1.57-1.15,3.14-2.31,4.73-3.46.65-.47,1.42-.92,2-.1s-.06,1.46-.69,1.92c-2.21,1.6-4.38,3.26-6.67,4.73a19.47,19.47,0,0,1-10.3,3.11c-1.91,0-3.82,0-5.72,0-2.64,0-3.82.87-4.24,3.46a31.63,31.63,0,0,0,0,4.87q0,3.16,0,6.33a6.44,6.44,0,0,1-.13.88c3.88.73,9.64-.54,13.24-2.93,1.74-1.16,3.38-2.46,5.16-3.56.43-.27,1.19,0,1.81,0-.16.59-.13,1.38-.51,1.72-1,.91-2.2,1.61-3.28,2.43-5.66,4.31-12,5.55-18.94,4.35a3.18,3.18,0,0,0-2.15.47,7.3,7.3,0,0,0-1.87,9.48,26.16,26.16,0,0,1,2.3,5.48c.29,1,.6,1.25,1.59,1.28A36.9,36.9,0,0,0,283.72,247a7.33,7.33,0,0,1,2-.77,1.14,1.14,0,0,1,1,.46,1.64,1.64,0,0,1-.17,1.23c-.15.28-.55.45-.86.63A38.42,38.42,0,0,1,265,253.89c-2.09-.08-3.94.16-5.26,2.08-.45.65-1.27,1-1.85,1.59a25.42,25.42,0,0,0-1.91,2.11,1.24,1.24,0,0,0,.31,2,18.68,18.68,0,0,1,5.62,6.64l2.12-.65a25.78,25.78,0,0,0,8.37-4.72c.61-.49,1.39-1,2-.13s0,1.41-.65,1.92a24.69,24.69,0,0,1-9,5c-2.4.66-4.85,1.13-7.28,1.66-1.7.37-2.26.91-1.73,2.54a57.6,57.6,0,0,0,3.3,8.47c2.79,5.46,7,6.8,12.61,4.44a1.33,1.33,0,0,1,1.26.24,1.43,1.43,0,0,1-.12,1.31,2.53,2.53,0,0,1-1.35.86c-1.4.34-2.83.61-4.26.81-1.26.17-1.58.61-1.25,1.87.46,1.74.89,3.49,1.36,5.37,2.68-1.34,5.66-2.51,7.11-5.68.38-.83.75-1.66,1.14-2.48s.73-1.39,1.64-1,.71,1.12.46,1.86a13.33,13.33,0,0,1-7.3,8.37,46.9,46.9,0,0,0-4.25,2.14c-1.65.95-1.7,1.66-.16,2.68a10,10,0,0,1,4.32,4.88c2.18-1.92,3.83-4,3.83-6.91a1.08,1.08,0,0,1,.15-.66c.35-.39.77-.72,1.16-1.08.33.46,1,.92.95,1.37a10,10,0,0,1-2.64,7.09,34.27,34.27,0,0,0-3.05,3.82,1.58,1.58,0,0,0,.48,2.45c1,.8,2,1.7,3,2.55a7.68,7.68,0,0,0,5.27,1.86c2.61-.05,2.89-.36,3.09-2.93,0-.18,0-.42.06-.54.35-.44.74-.85,1.12-1.27.33.47.9.91.93,1.4a26.82,26.82,0,0,1-.13,3.8c-.23,2.88.91,4.12,3.76,3.88,2.29-.19,4.57-.52,6.9-.79a20.66,20.66,0,0,0-3.21-7.29c-.24-.32-.6-.65-.65-1s0-1.17.26-1.31a2,2,0,0,1,1.46.08c.29.11.47.53.7.81,2,2.43,2.77,5.38,3.76,8.26,1.5,4.36,2.4,5,7,5a5.69,5.69,0,0,1,4.73,2.28C309.88,329.8,310.42,330.73,311.16,331.85Zm-171-93c.64-1,1.06-1.77,1.55-2.47a10.23,10.23,0,0,0,.87-10.94,11.71,11.71,0,0,1-1-3.89c-.09-1.08-.43-1.36-1.44-1.42A97,97,0,0,1,113.7,215a6.29,6.29,0,0,0-.77-.19c.36,2.87.89,5.69,1,8.53.23,5.54-1.47,10.66-3.86,15.58a133.28,133.28,0,0,0-7.43,17.39,68.91,68.91,0,0,0-2.6,30.42c.78,5.92,3.3,11.22,6.2,16.32,2.77,4.9,5.71,9.72,7.56,15.07a15.78,15.78,0,0,1,1.14,5.4c-.19,6.76-.73,13.51-1,20.27-.32,9,2.64,16.89,8.28,23.9,4.37,5.43,9.49,10.43,10.91,17.78a10.58,10.58,0,0,0,.95-12.32,70.16,70.16,0,0,0-4.82-6.21c-1.5-1.82-3.14-3.53-4.61-5.38-.26-.34,0-1.1,0-1.67a4.23,4.23,0,0,1,1.68.33,10.91,10.91,0,0,1,1.39,1.66c1.6,1.76,3.22,3.49,4.84,5.23l.39-.19a28.16,28.16,0,0,0-.17-3.19,14.94,14.94,0,0,0-5.18-8.89,16.83,16.83,0,0,1-4.68-6.43c-.19-.46.21-1.16.34-1.76.55.27,1.44.39,1.6.81,1.6,4,5.39,6.18,7.67,9.6,3.22-3,3.5-6.73.72-9.82-1.3-1.46-2.81-2.72-4.16-4.13-3.79-4-6.67-8.39-6.94-14.09,0-.8-.09-1.69.91-1.86s1.21.7,1.33,1.5a5.13,5.13,0,0,1,.09.67c.39,5.67,3.73,9.67,7.32,13.29,1.21-1.77,2.33-3.51,3.57-5.16a4.08,4.08,0,0,0,.24-5.17,34.29,34.29,0,0,0-4.09-4.9c-3.87-3.79-6.13-8.52-8.24-13.37-.06-.12-.16-.28-.12-.38.18-.5.4-1,.6-1.49a5.44,5.44,0,0,1,1.36.62,3.22,3.22,0,0,1,.57,1.07c1,2,1.8,4.09,2.94,6s2.62,3.7,4.07,5.72l1.44-4c1.61-4.52,1.67-5-1.49-8.2a35.25,35.25,0,0,1-8.1-12.64,50.07,50.07,0,0,1-1.8-6.13c-.11-.47.44-1.1.69-1.65a2.77,2.77,0,0,1,1.89,2.69,35.3,35.3,0,0,0,8,15.16c1.24,1.37,2.46,2.77,3.71,4.17,2.28-1.85,3.3-4.05,2.31-7.22a12.08,12.08,0,0,1-.29-5.76c.77-3.85-.67-6.81-3.17-9.37a38,38,0,0,0-5.18-4.18,21.7,21.7,0,0,1-8.59-11.93c-.25-.9-1-2.1.3-2.59s1.54.91,1.84,1.8c1.07,3.23,2.41,6.32,5.09,8.55s5.44,4.36,8.29,6.62c.56-1.58,1.15-3,1.59-4.55,1.5-5.13.13-8-3.33-10.65a62.57,62.57,0,0,1-7.85-7.51c-2.46-2.7-3.26-6.22-3.83-9.76-.12-.73-.1-1.66.89-1.63.45,0,1.06.73,1.27,1.25a17,17,0,0,1,.65,2.78c1.11,4.81,4.23,8.19,7.64,11.06a49.71,49.71,0,0,1,1.82-6.3,4.89,4.89,0,0,0-.44-5.24c-.57-.77-1.19-1.49-1.81-2.21a24.24,24.24,0,0,1-2.41-2.78,28.17,28.17,0,0,1-2.29-4.6,1.94,1.94,0,0,1,.47-1.82c.79-.47,1.27.3,1.59,1l.09.26a15.77,15.77,0,0,0,3.85,6c1,1.05,1.8,2.27,2.72,3.39.2.25.56.59.78.55,2.35-.45,4.46-1.29,5.45-3.75a12.85,12.85,0,0,0,.42-8.93,7.18,7.18,0,0,0-1.86-2.38c-1.26-1.29-2.72-2.39-3.85-3.77-2.15-2.61-2.73-5.9-3.44-9.09a1.71,1.71,0,0,1,.73-1.47c.76-.34,1.24.25,1.43,1s.41,1.67.67,2.5C139.11,235.69,139.6,237.13,140.15,238.83Zm40.92-23.21c-.26,0-.4,0-.52.06a126.43,126.43,0,0,1-24.49,4.46c-.31,0-.78.63-.84,1-.32,2.15.59,3.93,1.62,5.76a23.51,23.51,0,0,1,2.08,5.12,19.46,19.46,0,0,1,.23,3.53c.19,2,1,2.54,2.69,1.56a24.11,24.11,0,0,0,5.8-4.2A68.65,68.65,0,0,0,173,225.6c.47-.67,1.06-1.4,1.83-.77a2,2,0,0,1,.12,1.87c-2.73,5-6.18,9.41-11.34,12.21a1.39,1.39,0,0,0-.58,1c-.05,1.82,0,3.63,0,5.45a7.8,7.8,0,0,0,.28,1.47c3.14-1.64,5.8-3.46,7.13-6.7a21.61,21.61,0,0,1,1.43-3.08c.27-.43,1-.59,1.49-.87.19.55.67,1.2.52,1.62-1.19,3.26-2.5,6.5-5.52,8.56-1.72,1.17-3.55,2.19-5.36,3.22-1.66.94-3.36,2-3.67,4-.42,2.78-.5,5.62-.73,8.47,4.28-1.5,8.14-3.25,10.49-7.18.07-.12.16-.28.27-.3.56-.11,1.13-.19,1.7-.28,0,.54.27,1.24,0,1.59-1.87,2.71-3.94,5.21-7.16,6.48a40.66,40.66,0,0,0-5.74,2.81c-1.75,1-3.25,2.5-3.48,4.64a55.28,55.28,0,0,0,0,5.76,9.81,9.81,0,0,1,1.92-1.16c.4-.15,1.3,0,1.39.24a1.77,1.77,0,0,1-.24,1.53,8.2,8.2,0,0,1-1.84,1.38,10.85,10.85,0,0,0-5.13,7.25c-1.18,6.47,1.7,11.25,6.69,15.58-.12-2.82-.75-6-.26-8.94a23.92,23.92,0,0,1,7.4-14.11c3.22-2.91,7-5.22,10.43-7.87a64,64,0,0,0,5.49-4.66c1.31-1.27,2.07-2.86,1-4.75a7.4,7.4,0,0,1-.54-1.54c-3.36-11.18-2.95-22.52-1.47-33.9C179.92,221.64,180.53,218.71,181.07,215.62Z"/><path class="cls-1" d="M108.06,151.92a69.82,69.82,0,0,1-3,6.8A97.93,97.93,0,0,0,96,180.58c-1.1,3.92-2.44,7.76-3.63,11.65a17.14,17.14,0,0,0-.36,2.56c-.59-1.22-1-2.07-1.42-3-2.51-5.93-4.94-7.08-11.39-6.32-11.27,1.34-22.61,2-33.8-.39-15.78-3.31-27.53-12.38-35.63-26.24a28.67,28.67,0,0,1-2.13-5.14c-1.08-3.1-.59-6.13.41-9.2,2-6.24,5.87-11.18,10.11-16.11C35.66,108,55.47,90.28,78.38,76.07a193.86,193.86,0,0,1,29-15.11,49,49,0,0,1,11.84-2.8c4.66-.63,9.4-.64,14.1-.92.23,0,.5.06.68,0a6.91,6.91,0,0,0,.9-.66c-.31-.21-.61-.61-.91-.61-2,0-4.1,0-6.13.11-3.7.28-7.38.67-11.3,1A215.14,215.14,0,0,1,243,48.17c-1.06.8-2.68.33-3.18,2.08.71-.13,1.18-.18,1.63-.31a15.15,15.15,0,0,1,8.13-.18A238.49,238.49,0,0,1,333.26,91c7.72,5.87,14.86,12.53,22.35,18.72a46.23,46.23,0,0,1,11.95,14.68,22.29,22.29,0,0,1,2.84,9.32c.18,5.44-1,10.36-5.26,14.29a115.84,115.84,0,0,1-22.57,16.12,47.08,47.08,0,0,1-19.74,5.71c-2.17.15-4.34.4-6.5.7-4.77.65-8.47,3.3-11.9,6.45-5.38,4.95-10.65,10-16.22,14.77a55.83,55.83,0,0,1-25.71,12.39,84,84,0,0,1-30.59.9,33,33,0,0,1-11-4.45,50,50,0,0,0-7.78-3.53c-3.16-1.14-6.24-.38-9,1.38-2.91,1.86-5.66,4-8.52,5.88a57,57,0,0,1-27.29,9.72c-4.07.35-8.12,1.1-12.19,1.29-5,.22-10,.23-15,0a103.61,103.61,0,0,1-22.21-3.14,52.13,52.13,0,0,1-23.05-12.59c-2.64-2.52-3.23-5.07-2.19-8.27,1.48-4.55,3.14-9.05,4.51-13.63a78.25,78.25,0,0,1,6.52-15.48,83.23,83.23,0,0,0,4.11-9,60.5,60.5,0,0,1,9.14-15.36c4-4.9,7.64-10,11.5-15,2.47-3.19,5-6.31,7.56-9.45.09-.11.24-.19.27-.31.1-.34.15-.71.22-1.06-.38.07-.91,0-1.13.24a47.93,47.93,0,0,0-3.77,4.3c-5.92,8-11.69,16.18-18.13,23.82a46.62,46.62,0,0,0-4.14,6.06,30.64,30.64,0,0,1-9.14,9.21c-5.37,3.74-9.25,8.76-12.39,14.43-2.38,4.29-4.83,8.53-8.38,12-.27.26-.22.83-.32,1.25.42-.14,1-.16,1.23-.44a37.88,37.88,0,0,0,7.13-9.74,49,49,0,0,1,16.57-19,26.17,26.17,0,0,0,2.76-2.41Zm147.66-71-.18.65a5.73,5.73,0,0,0,1.1.5c2.07.47,4.18.79,6.21,1.4,2.54.77,5.38,1.25,7.43,2.76q13.86,10.23,27.29,21a50.34,50.34,0,0,1,13.32,15.68,49.34,49.34,0,0,0,10.75,13.26c7.77,7.06,14.81,14.73,20.18,23.82.25.44.81.7,1.23,1a4.93,4.93,0,0,0-.26-1.76,94,94,0,0,0-15.67-19.64c-3.26-3.1-6.48-6.24-9.6-9.47a33.41,33.41,0,0,1-5.68-8.21c4.92,2.69,9.8,5.47,14.77,8.07,9.12,4.75,17.05,10.87,23,19.34.89,1.26,1.68,2.58,2.58,3.84.2.27.64.36,1,.54,0-.4.07-.81.05-1.21,0-.16-.17-.31-.27-.46A59.22,59.22,0,0,0,332.47,132c-5-3-10.28-5.57-15.38-8.42-2.89-1.61-5.94-3.13-7.93-5.86A66.58,66.58,0,0,0,296.86,105c-6.39-5.15-13-10.09-19.46-15.12-1.17-.91-2.36-1.8-3.54-2.7a61.91,61.91,0,0,1,8.21,2.93c3.53,1.57,7,3.27,10.41,5.1a164.29,164.29,0,0,1,19.91,12q8.07,5.91,16.22,11.72a64.52,64.52,0,0,1,10.82,9.47c3.05,3.41,6.28,6.68,9.59,9.84,2.49,2.39,5.25,4.49,7.83,6.78,1.08,1,2,2.1,3,3.12.21.2.62.19.94.28a2.86,2.86,0,0,0,0-1.06,3,3,0,0,0-.78-.94,83.78,83.78,0,0,0-6.19-5.74c-6.31-4.88-11.58-10.78-17-16.9l.64.31c5.4,2.66,10.85,5.26,16.21,8,4.12,2.12,8.66,3.64,11.73,7.45.15.18.61.13.92.19,0-.37.06-.88-.14-1.07a21.31,21.31,0,0,0-4.07-3.56c-4.65-2.52-9.42-4.85-14.19-7.15-8.87-4.3-17.57-8.87-25.53-14.73-4.38-3.23-8.71-6.54-13.12-9.73-1.86-1.36-3.87-2.52-5.83-3.79,4.35,1.1,8.68,2.06,12.92,3.31s8.09,2.92,12.23,4.06a29.46,29.46,0,0,1,8.44,3.88,147.63,147.63,0,0,0,26,13.49,6.88,6.88,0,0,0,2.05.14,9.2,9.2,0,0,0-1.57-1.24c-6.74-3.32-13.52-6.54-20.23-9.93-2.3-1.16-4.42-2.69-6.62-4a4,4,0,0,1,1.44,0c4.33.72,8.74,1,12.86,2.7,1.09.45,2.19.86,3.31,1.21.31.1.7-.09,1.05-.15-.21-.34-.35-.89-.64-1-3.4-1.07-6.78-2.23-10.24-3-4.88-1.15-9.89-1.78-14.73-3.06-5.59-1.47-11-3.58-16.58-5.09a92.75,92.75,0,0,1-14.9-5c-5-2.3-9.95-4.6-15-6.72a133.28,133.28,0,0,0-23.94-7.84C258.15,81.15,256.92,81.07,255.72,80.92ZM119.71,88l.09.29c-1.31.57-2.62,1.15-3.93,1.71-7.22,3.1-14.2,6.68-19.57,12.53a183.94,183.94,0,0,0-11.82,14.58c-4.61,6.16-9.35,12.2-15.21,17.22-7.65,6.56-15.46,12.94-23.15,19.45a109.86,109.86,0,0,0-15.37,15.8,22.8,22.8,0,0,0-1.61,2.36c-.12.2,0,.55,0,.83a4.43,4.43,0,0,0,.9-.25c.18-.1.27-.36.42-.53,2.14-2.58,4.18-5.26,6.46-7.72,7.56-8.17,16.43-14.85,25-21.91,6-5,12-9.92,16.88-16,4.1-5.09,8-10.36,11.92-15.57,5.17-6.81,11.22-12.61,19-16.43a195,195,0,0,1,27.1-11.17c1.25-.39,2.52-.74,3.75-1.19.26-.1.36-.59.54-.9-.31-.09-.66-.31-.93-.24q-3.33.81-6.65,1.72c-6.62,1.83-13.19,3.85-19.86,5.49-10.52,2.58-20.22,6.8-28.26,14.14-4.92,4.5-9.5,9.39-14,14.27a266.67,266.67,0,0,1-31.1,28.71c-7.16,5.58-13.9,11.69-20.8,17.59a4.42,4.42,0,0,0-.73,1.4l1.46-.51a.43.43,0,0,0,.1-.09c6.15-5.24,12.28-10.51,18.47-15.7,5.88-4.93,12.14-9.46,17.67-14.75,8.11-7.74,15.81-15.92,23.52-24.07,8.65-9.15,18.77-15.78,31-19C113.82,89.34,116.77,88.68,119.71,88Zm106.34,14.57c1.64-.09,3.27-.12,4.89-.28a24.05,24.05,0,0,0,12.41-4.44c5.31-4,6.77-10.16,3.52-16a22.68,22.68,0,0,0-4.68-5.78C236.45,71,229.5,68.67,222,67.88a34.48,34.48,0,0,0-11.5.7c-.8.19-1.56.48-1.41,1.49s.95,1,1.78.91a49.56,49.56,0,0,1,5.14-.57,37.38,37.38,0,0,1,20.4,5.83,18.69,18.69,0,0,1,7.52,8.22,7.11,7.11,0,0,1-1.49,8.63,21,21,0,0,1-10.12,5.6c-4.83,1.19-9.55.42-14.26-.77-6.21-1.57-12.07-3.72-16.24-9-.26-.34-1.16-.18-1.76-.25,0,.61-.28,1.48,0,1.8a39.7,39.7,0,0,0,5.35,5.19C211.52,100.12,218.53,102.11,226.05,102.55Zm-67.71,5c-1.37-.29-4.1-.71-6.74-1.45a5.93,5.93,0,0,1-4.22-4.77,12.91,12.91,0,0,1,1-8.75A25.82,25.82,0,0,1,157,82.69,49.62,49.62,0,0,1,173,75.5c.49-.12.82-.87,1.22-1.32-.5-.35-1-.71-1.51-1-.12-.07-.35,0-.53.08a40.6,40.6,0,0,0-21.64,10.44A24.69,24.69,0,0,0,143.06,95c-2,6.78.91,12.51,7.52,15a21.63,21.63,0,0,0,9,1.22,39.69,39.69,0,0,0,20.82-7.67,30.56,30.56,0,0,0,10.31-11.76c.4-.84.67-1.74-.38-2.22s-1.46.28-1.83,1.1a19.06,19.06,0,0,1-5.42,7.25c-1.9,1.52-4,2.85-6,4.2C171.81,105.58,166,107.29,158.34,107.51ZM132.68,167.1c.62,2.07,1.19,4,1.8,6a39.92,39.92,0,0,1,1.61,17.06A91.2,91.2,0,0,0,135,200c-.08,4.26.27,8.52.5,12.78,0,.39.51.76.78,1.14a3.39,3.39,0,0,0,.36-1.25,72.09,72.09,0,0,1,.35-19.79,36.36,36.36,0,0,0-.11-14.73c-.87-3.55-1.93-7.06-2.87-10.59a6.31,6.31,0,0,1-.45-2.84c1.33-5.31,2.91-10.55,4.23-15.86A39.42,39.42,0,0,0,139,141.2a37,37,0,0,0-.69-5.78,2.55,2.55,0,0,1,.2-1.64c3.23-4.47,5.07-9.58,6.87-14.72a23.32,23.32,0,0,0,.76-2.46c.06-.27-.22-.62-.34-.93-.26.19-.62.33-.78.59a6,6,0,0,0-.45,1.27c-2.59,8.62-6.5,16.39-13.47,22.42a44.93,44.93,0,0,0-5.89,6.57c-2.56,3.3-3.89,7.25-5.3,11.12-1.9,5.18-4.08,10.3-5.46,15.62a21.66,21.66,0,0,1-5.55,9.76c-1.47,1.54-3,3-4.51,4.54A38,38,0,0,0,97.32,197a3.48,3.48,0,0,0,0,1.34c.3-.19.73-.3.88-.57a41.93,41.93,0,0,1,7.78-10.09c2.44-2.45,4.81-5,7.34-7.59-.28,2.12-.46,4.15-.85,6.14a57.38,57.38,0,0,1-6,16.67c-.19.33,0,.85-.06,1.28.34-.22.82-.37,1-.68A55.24,55.24,0,0,0,114,184.26c.68-5,1-10,2.74-14.76s3.52-9.21,5.21-13.84a34.71,34.71,0,0,1,9-13.9c2.09-1.92,4.11-3.92,6.18-5.9.18,1.34.41,2.72.57,4.11.33,3-.4,5.85-1.09,8.72-1.86,7.7-3.62,15.44-7.33,22.55a40.49,40.49,0,0,0-2.22,5.25,168.49,168.49,0,0,0-6,23c-.6,2.92-1,5.89-1.36,8.85,0,.36.33.77.51,1.15a3.93,3.93,0,0,0,.54-1.06c.17-1,.17-2,.38-3,1.41-6.5,2.76-13,4.32-19.47A75.33,75.33,0,0,1,132.68,167.1ZM234,142.31c.29.31.47.48.63.67a88.46,88.46,0,0,0,13.49,14.2,14,14,0,0,1,4.39,5.72,119,119,0,0,0,10.79,20.7c2.82,4.38,5.51,8.84,8.29,13.25.24.37.74.58,1.11.87,0-.48.16-1.06,0-1.43a73.86,73.86,0,0,0-3.73-6.47c-5.67-8.29-10.94-16.79-14.83-26.08-.2-.45-.36-.91-.65-1.65a4.83,4.83,0,0,1,.68.38c9.65,8.92,18.49,18.48,24.32,30.46.19.38.66.62,1,.92,0-.48.26-1,.08-1.42a62.35,62.35,0,0,0-3.15-6c-7.23-11.45-16.64-20.92-26.86-29.69-8.48-7.28-16.06-15.29-20.41-25.95-2.87-7-6.42-13.78-9.67-20.65a1.35,1.35,0,0,0-.27-.47.84.84,0,0,0-.57-.23.65.65,0,0,0-.37.5,2.89,2.89,0,0,0,.29,1c1.51,3.29,3,6.61,4.56,9.86,4.36,8.91,8.73,17.82,11.3,27.46s6,19.16,11.39,27.8c4.81,7.79,9.78,15.49,13.44,23.93.26.6.27,1.72,1.41,1.38a4.39,4.39,0,0,0-.28-1.85c-3.76-8.79-8.94-16.79-14-24.87C240.16,164.71,237.09,153.61,234,142.31ZM47.57,127.38l.19.17c-2,2.15-3.94,4.38-6.06,6.43-5,4.79-9.81,9.73-15.09,14.15-3.87,3.24-8.36,5.74-12.56,8.61-.33.23-.49.73-.73,1.1.43,0,.95.17,1.27,0,6.09-3.69,12.1-7.54,17.36-12.39A314.34,314.34,0,0,0,57.13,119,173.37,173.37,0,0,1,92.05,87.56c15-10.07,31.2-16.6,49.26-18.33.35,0,.66-.42,1-.64-.34-.15-.68-.45-1-.42-2,.15-4.08.28-6.09.59a99.27,99.27,0,0,0-30.1,9.71c-17.69,9-32.75,21.43-45.89,36.24a82.58,82.58,0,0,1-7.4,7.78A82.56,82.56,0,0,1,35.5,133c-7.3,3.76-14.58,7.55-21,12.8-1.61,1.32-3.23,2.65-4.79,4-.28.25-.32.75-.47,1.14.43-.08.86-.13,1.28-.24.16,0,.27-.24.41-.35,3.41-2.63,6.63-5.57,10.27-7.83C27,139,33.07,135.88,39,132.52,41.88,130.87,44.7,129.09,47.57,127.38ZM161.46,51.46l.07-.34c3.47.61,7,1,10.41,1.9,3.62,1,7.24,2.14,10,4.93a1.69,1.69,0,0,0,1.65.14c.32-.25.33-1.12.19-1.65a2.59,2.59,0,0,0-1-1.24,30.27,30.27,0,0,0-3.95-2.65,38.58,38.58,0,0,0-25-3.57,15.6,15.6,0,0,0-8.42,3.88c-2.64,2.54-3.06,6-.68,8.81a21.74,21.74,0,0,0,5.6,4.64c6.22,3.56,13.15,4.21,20.15,4.34a7.43,7.43,0,0,0,1.19-.25c.81-.14,1.43-.52,1.32-1.42s-.9-1.11-1.75-1.07a34.82,34.82,0,0,1-4.21.06,31.07,31.07,0,0,1-12.9-4.43,30.4,30.4,0,0,1-5.08-3.62,3.09,3.09,0,0,1-.1-4.72,8.26,8.26,0,0,1,1.73-1.32C154,51.91,157.69,51.45,161.46,51.46ZM182,133.33l.36-.06.12.49a118,118,0,0,0,7.11,20.35,124.34,124.34,0,0,1,9.5,30.22c.46,2.63.7,5.3,1.1,7.94.06.38.5.71.77,1.06.16-.41.5-.83.46-1.23-.21-2.2-.4-4.42-.79-6.6a125,125,0,0,0-9-29.67,134.33,134.33,0,0,1-9.84-30.67c-.92-4.84-2.08-9.63-3.17-14.44-.08-.36-.48-.65-.73-1-.12.43-.41.89-.33,1.28.7,3.4,1.37,6.83,2.25,10.19,1.44,5.45,1.29,10.94.89,16.47a109,109,0,0,0-.62,11.68c.18,5.26.9,10.5,1.3,15.76.3,3.79.59,7.6.66,11.4.14,7.35-.35,14.72,1.15,22,.52,2.53,1.1,5,1.72,7.55.08.35.53.61.81.91.16-.19.42-.37.45-.57a2.52,2.52,0,0,0-.15-.93,80.41,80.41,0,0,1-2.8-22.58c.07-4.48,0-8.95,0-13.22-.14-.17-.07-.12,0,0q4.44,10.42,8.87,20.86c1.47,3.45,3.23,6.8,3.46,10.66,0,.32.49.61.76.91.16-.38.53-.8.46-1.11a51.47,51.47,0,0,0-2.05-7.42c-2.56-6.14-5.41-12.16-8-18.27A61.54,61.54,0,0,1,181.37,151C181.35,145.11,181.77,139.22,182,133.33Zm34-84.76a18.07,18.07,0,0,1,3.53,0,66.58,66.58,0,0,1,8.4,2.11c2.18.75,2.58,2.42,1.34,4.38A10.8,10.8,0,0,1,227,57.61a22.34,22.34,0,0,1-9,4.7c-2.2.54-4.41,1-6.62,1.5-.81.18-1.56.47-1.45,1.46s.84,1.08,1.63,1l.54,0A50.17,50.17,0,0,0,224.52,63a22.43,22.43,0,0,0,8.29-5.35c3.09-3.43,2.54-7.18-1.36-9.65a11.94,11.94,0,0,0-1.82-.92A27.85,27.85,0,0,0,219,45.17a48,48,0,0,0-22.43,4.68,38.52,38.52,0,0,0-5.51,3.71,1.26,1.26,0,0,0-.33,2c.7.73,1.41.39,2-.22a17.37,17.37,0,0,1,6.35-3.86A46.82,46.82,0,0,1,216,48.57Zm27.12,71.29.26-.13c.29.33.6.65.87,1,5.63,7.09,10.16,14.9,14.57,22.78,4.57,8.16,9.27,16.23,15.42,23.35,5.55,6.44,10.83,13.08,14.95,20.55.07.12.11.28.21.35s.53.24.8.37a3.7,3.7,0,0,0,.21-.95,1.57,1.57,0,0,0-.34-.73c-3.24-4.75-6.13-9.81-9.83-14.18a178.13,178.13,0,0,1-21.08-30.67c-5.53-10.25-11.79-20-19.86-28.52q-2.72-2.86-5.51-5.66c-.25-.24-.74-.24-1.12-.35.12.39.22.79.35,1.18,0,.11.19.19.28.29,2.22,2.34,4.45,4.67,6.65,7a5.11,5.11,0,0,1,1.06,1.54c.62,1.75,1.13,3.53,1.69,5.3,2.95,9.28,6.12,18.48,11.25,26.86C258.8,157.18,265,164,271.1,170.92c5.07,5.79,9.94,11.71,12,19.37.1.35.63.57,1,.86.08-.4.33-.87.21-1.18a73.05,73.05,0,0,0-3.64-8.46c-3.22-5.73-7.77-10.48-12.09-15.38a128.33,128.33,0,0,1-13.39-17.33c-4.71-7.66-7.8-16-10.58-24.5C244.1,122.82,243.62,121.34,243.13,119.86Zm-28.25,18.7.17-.06c1.72,3.18,3.33,6.42,5.2,9.51,3.32,5.46,6.7,10.9,10.25,16.21,5.57,8.32,9.51,17.5,14.17,26.3,2.15,4.07,5,7.76,7.56,11.6.18.25.74.25,1.12.36a6.38,6.38,0,0,0-.13-1.08,2.64,2.64,0,0,0-.49-.65,69.64,69.64,0,0,1-8.44-13.61,200.68,200.68,0,0,0-14.69-26.63c-4-6-7.64-12.21-11.2-18.47a63.7,63.7,0,0,1-5.55-11.61,128.49,128.49,0,0,0-11.26-25.23c-.18-.31-.64-.46-1-.69,0,.41-.13.89,0,1.22.88,1.74,1.83,3.44,2.76,5.15,6.19,11.44,9.66,23.77,12,36.48a122.16,122.16,0,0,0,8.43,28c3.88,8.68,7.6,17.43,11.39,26.14.09.21.15.47.31.59a.85.85,0,0,0,.7.17.74.74,0,0,0,.3-.64,4.85,4.85,0,0,0-.38-1.15c-2-4.72-3.81-9.5-6-14.12-5.94-12.6-11.32-25.37-13.57-39.24C216.17,144.25,215.47,141.41,214.88,138.56ZM83.08,137a30.89,30.89,0,0,1-6.19,9.21,29.08,29.08,0,0,0-7.11,11.62,41.55,41.55,0,0,1-7.48,13.47c-3.16,3.75-6.46,7.38-9.66,11.09a3.43,3.43,0,0,0-.42,1.24c.4-.16.92-.21,1.19-.5,2.36-2.51,4.72-5,7-7.61a50.18,50.18,0,0,0,10.74-17.79,24.6,24.6,0,0,1,6-9.95,36.6,36.6,0,0,0,6.5-8.85,15.67,15.67,0,0,1,5.57-6.28c8.33-5.21,15.24-12.15,22.49-18.69,6.06-5.47,12.22-10.89,20.25-13.45.33-.1.53-.6.79-.91-.39-.09-.87-.36-1.18-.23a53.92,53.92,0,0,0-6.81,3,88.94,88.94,0,0,0-16.94,13.42,147.64,147.64,0,0,1-23.75,18.84A80.4,80.4,0,0,0,67.5,148.31,91.2,91.2,0,0,1,51.85,161.6a96.26,96.26,0,0,0-14.49,11.93,12.51,12.51,0,0,0-1.43,1.81c-.15.24,0,.64-.06,1a2.87,2.87,0,0,0,1-.38,26.88,26.88,0,0,1,1.8-2c3.92-3.29,7.75-6.73,11.87-9.75,6.65-4.86,13.26-9.7,18.78-15.9A60.91,60.91,0,0,1,83.08,137Zm187.65-27.71c.86.64,1.49,1.17,2.17,1.61,7.24,4.66,12.48,11,16.55,18.59A100.53,100.53,0,0,0,297.64,142c5.69,7.58,12.11,14.62,16.53,23.11.17.32.74.43,1.12.65,0-.45.09-1-.12-1.34-2.86-4.41-5.47-9-8.71-13.13-6.67-8.5-13.35-16.95-18.45-26.55A36.42,36.42,0,0,0,276.49,112,66.39,66.39,0,0,1,264,101.13c-2.3-2.68-4.78-5.22-7.22-7.78a5,5,0,0,0-1.35-.71l-.23.39a4.32,4.32,0,0,0,.46.78c3.5,3.8,6.91,7.71,10.58,11.36a14.35,14.35,0,0,1,4,6.9c2.15,8.69,5.91,16.49,12.46,22.83A42.44,42.44,0,0,1,292.07,149a105.06,105.06,0,0,0,12.67,22.74,7.42,7.42,0,0,0,1.54,1.21,6.54,6.54,0,0,0-.6-2,92.23,92.23,0,0,1-10.9-19.08A57.45,57.45,0,0,0,282,132.16C275.64,125.94,273,117.86,270.73,109.31ZM59.64,98.45l.16.31c-1.74,2.54-3.56,5-5.22,7.62A46.66,46.66,0,0,1,41,120.12c-5.24,3.49-10.67,6.71-15.87,10.26-3.89,2.66-7.57,5.63-11.3,8.5-.29.22-.3.8-.44,1.22a4.14,4.14,0,0,0,1.15-.42c1.29-1,2.46-2.17,3.81-3.07,6.59-4.41,13.19-8.83,19.87-13.1,6.92-4.42,13.21-9.49,17.53-16.61A61.08,61.08,0,0,1,76.41,86.41c12.55-7.74,25.32-15.06,39.16-20.3.8-.3,1.63-.56,2.41-.92.26-.12.4-.49.6-.76-.31-.12-.64-.39-.91-.33a15.89,15.89,0,0,0-2.18.72c-11.21,4.06-21.58,9.81-31.87,15.74-6.81,3.92-13.47,8-19.25,13.45-1,.89-1.84,2-3,2.49A97.73,97.73,0,0,0,41.7,106.84c-2.3,1.54-4.56,3.13-6.8,4.75-.27.19-.3.71-.44,1.08a6,6,0,0,0,1.06-.19,3.57,3.57,0,0,0,.67-.45c5.06-3.2,10.06-6.49,15.19-9.55C54,100.92,56.88,99.78,59.64,98.45Zm109.92,51c2.35,8.95,2.56,18.69,2.75,28.45.19,9.36.54,18.7.86,28.05a35,35,0,0,0,.54,4.31c0,.27.42.49.64.74.16-.28.44-.55.47-.84a7.48,7.48,0,0,0-.07-1.49c-.34-4.57-.85-9.13-1-13.7-.23-8-.12-16.09-.4-24.13a99,99,0,0,0-1.31-14.61,177.16,177.16,0,0,1-3-29.32c-.07-3.59-.12-7.18-.22-10.77a2.87,2.87,0,0,0-.45-1,4.43,4.43,0,0,0-.67,1,3,3,0,0,0,0,1.09q.25,9.25.5,18.52c.09,3.28.29,6.56.27,9.84a37,37,0,0,1-2.84,12.8c-4.37,11.6-6.39,23.5-5.08,35.88.6,5.63,1.28,11.25,2,16.87,0,.3.44.55.67.82.18-.28.5-.56.5-.83a34.67,34.67,0,0,0-.23-3.53c-.65-5.67-1.58-11.32-1.95-17a66.51,66.51,0,0,1,2.84-24.18Zm-75-6.75c-.53,1.8-.95,3.31-1.42,4.81-.3.95-.66,1.88-1,2.81a172.47,172.47,0,0,1-16.21,31c-.52.8-1.09,1.56-1.57,2.38-.14.25,0,.64-.05,1a4.55,4.55,0,0,0,.9-.31c.15-.07.23-.27.33-.42,8.3-12.34,15.49-25.24,19.88-39.55a10.58,10.58,0,0,1,3.16-5.08c4.09-3.53,8-7.3,12.11-10.77A126,126,0,0,0,130.41,108a3.5,3.5,0,0,0,.33-1.3c-.43.19-1,.27-1.27.6A135.79,135.79,0,0,1,108.21,129c-4.07,3.34-7.72,7.18-11.78,10.52a87.31,87.31,0,0,0-13.22,12.92c-5.43,6.85-9.87,14.34-14.27,21.85-1.7,2.9-3.45,5.76-5.13,8.66-.17.27-.06.71-.07,1.07.32-.14.76-.2,1-.45A22.92,22.92,0,0,0,66,181.58c5.06-8.11,10-16.32,15.23-24.31A62,62,0,0,1,94.6,142.65Zm56.5,19.77c0,2-.11,4.09,0,6.12.4,6.15.68,12.32,1.39,18.45,1,8.35,1.85,16.68,1.15,25.1,0,.36.3.75.47,1.13.24-.35.68-.69.71-1.07.76-7.86,0-15.67-.86-23.48-.59-5.36-1.16-10.72-1.49-16.1a89.93,89.93,0,0,1,1-18.32c1-6.85,2-13.71,2.82-20.59.6-4.85,1-9.73,1.49-14.6,0-.32-.29-.68-.45-1l-.38.06a10.11,10.11,0,0,0-.41,1.5c-.67,6-1.17,12-2,18s-1.8,11.78-3,17.63c-.83,4.2-2,8.35-3.16,12.49a122,122,0,0,0-4.69,27.94c-.2,4.95-.23,9.9-.36,14.85,0,.95-.18,1.9-.2,2.85,0,.24.31.48.47.72.22-.18.52-.33.64-.56a2.21,2.21,0,0,0,.2-.92c.1-2.36.16-4.72.29-7.08.35-6.47.53-13,1.12-19.42C146.64,178,149.07,170.22,151.1,162.42Zm50.66-12.27.2-.09c1,1.5,1.92,3,3,4.49A62.33,62.33,0,0,1,216.28,182a46.15,46.15,0,0,0,5.43,16.56,5,5,0,0,0,.55.92c.15.16.59.32.67.24a1,1,0,0,0,.33-.77,4.54,4.54,0,0,0-.56-1.23,45.25,45.25,0,0,1-5.12-15.65,61.45,61.45,0,0,0-10.52-26.51c-3.68-5.15-7.06-10.46-8.47-16.84-2-8.83-4.33-17.56-6.41-26.36-.62-2.63-.82-5.36-1.27-8,0-.28-.45-.5-.69-.75-.14.3-.42.61-.39.89.24,2.16.47,4.32.84,6.46a228.32,228.32,0,0,0,6.65,27.7,164.55,164.55,0,0,1,6.34,30.82q1,9.39,2.23,18.75a54.59,54.59,0,0,0,1.62,6.59c.09.34.53.59.81.89.11-.42.24-.83.33-1.25a1,1,0,0,0-.07-.4c-2.18-7.11-2.73-14.48-3.52-21.82-.52-4.9-1.17-9.79-1.87-14.68C202.84,155.07,202.25,152.62,201.76,150.15Zm102.45-18.3c3.09,2.8,6.17,5.69,9.36,8.44,4.67,4.05,9.48,8,13.19,13,2,2.64,3.45,5.62,5.2,8.42.21.35.69.53,1.05.79,0-.45.06-.9,0-1.34,0-.17-.16-.32-.23-.49-3.15-7.06-8.29-12.57-14.07-17.45A153,153,0,0,1,296,120a104.08,104.08,0,0,0-31.68-27.67c-1.42-.79-2.85-1.58-4.31-2.3-.28-.13-.71,0-1.07.08a3.89,3.89,0,0,0,.58.92,7.66,7.66,0,0,0,1.06.59c3.78,2.31,7.64,4.52,11.33,7,9,6.05,16.45,13.82,23.2,22.27,3.08,3.85,6.7,7.32,8.29,12.18.21.64.55,1.24.81,1.86,2.84,6.71,7.27,12.42,11.44,18.3a46,46,0,0,1,7.27,14.49,6.65,6.65,0,0,0,1,1.63,6.88,6.88,0,0,0,.09-2c-1.47-6-4.65-11.17-8.23-16.1C311.35,145.13,306.9,139,304.21,131.85Zm-36.32,8.37c3.68,3.32,7.52,6.65,11.2,10.15,7.8,7.43,15.3,15.14,21.15,24.28.26.41.84.6,1.27.88-.08-.51-.15-1-.24-1.55a.78.78,0,0,0-.15-.22,123,123,0,0,0-22.61-25.51c-6.54-5.7-12.38-11.84-16.61-19.46a119,119,0,0,0-14.14-20.62c-1.43-1.65-2.92-3.24-4.44-4.8-.26-.27-.82-.27-1.23-.4a3.49,3.49,0,0,0,.4,1.11c.5.64,1.11,1.2,1.67,1.8a118.54,118.54,0,0,1,15.62,21.73c2.7,4.7,5.87,9.12,7.48,14.43a60.33,60.33,0,0,0,15,24.9c4.19,4.3,8.7,8.45,10.67,14.44.08.24.62.32.95.47.05-.31.26-.7.14-.93-1.15-2.25-2-4.72-3.6-6.65-3.19-4-6.72-7.63-10.14-11.39C274.29,156.28,270.46,148.5,267.89,140.22Zm34.55-54c2.71,0,5.61,0,8.5,0a43,43,0,0,1,5.57.17c2.91.42,5.77,1.12,8.67,1.64a4.11,4.11,0,0,0,1.45-.29c-.38-.3-.72-.78-1.16-.89A41.7,41.7,0,0,0,312.35,85a53.83,53.83,0,0,1-18.93-2.26c-8.06-2.53-16-5.62-24.4-6.78A81,81,0,0,0,254.1,75a14.29,14.29,0,0,0-2.79.53c-.27.07-.47.42-.7.65.33.14.67.42,1,.39,1.08-.09,2.14-.41,3.22-.45a75.53,75.53,0,0,1,16.63,1.48c9.26,1.7,18,5,26.83,8.23,5.44,2,10.64,4.59,16,6.82,7,2.93,14.43,4.49,21.8,6.16.71.16,1.59,1,2.29-.12a9,9,0,0,0-2-1c-8.39-1.91-16.75-3.89-24.65-7.4C308.53,88.86,305.36,87.48,302.44,86.21ZM265.61,66.5c4.77-1,9.23-2,13.67-3,.44-.1.8-.53,1.2-.81-.46-.14-1-.47-1.38-.38-3.22.68-6.41,1.5-9.64,2.15a73,73,0,0,1-8.66,1.4c-2.05.16-4.14-.44-6.22-.41-3.2,0-6.41.31-9.61.54-.36,0-.7.44-1.05.67l.22.44,1.31-.07c3.53-.15,7.07-.55,10.57-.38,6.58.34,13,1.91,19.33,3.58,7.08,1.86,14.08,4.21,21.55,4a6.08,6.08,0,0,0,1.49-.46,5.94,5.94,0,0,0-1.52-.66c-3.49-.46-7.06-.56-10.48-1.33C279.56,70.23,272.81,68.35,265.61,66.5Zm-22.75-8.4.21.53a10.34,10.34,0,0,0,1.39-.19,51.66,51.66,0,0,1,16-2,8.08,8.08,0,0,0,1.63,0,3.68,3.68,0,0,0,1.06-.61,6.92,6.92,0,0,0-1.06-.66,2.72,2.72,0,0,0-.95,0,63.73,63.73,0,0,0-6.78.3c-3.44.51-6.83,1.29-10.23,2A4.72,4.72,0,0,0,242.86,58.1Z"/><path class="cls-1" d="M3.65,146.43a38.39,38.39,0,0,1-.58-9.69,59.32,59.32,0,0,1,2.79-13.85c2.37-7.71,6.51-14.55,10.48-21.43A189.23,189.23,0,0,1,54.29,55a201.77,201.77,0,0,1,70.83-41A209,209,0,0,1,170,4.17,214.47,214.47,0,0,1,214,4a220.5,220.5,0,0,1,98.16,34.06A216.94,216.94,0,0,1,370.4,92.66c3,4.12,4.75,8.81,6.42,13.58,3.71,10.6,2.09,20.65-2.64,30.47-.19.4-.43.76-.74,1.33-.27-2.36-.37-4.52-.78-6.61a35.52,35.52,0,0,0-6-13.32,67.07,67.07,0,0,0-10.44-11.26A268.69,268.69,0,0,0,303.8,68.91a232.58,232.58,0,0,0-69.68-25.09,214.06,214.06,0,0,0-45.4-3.66c-44.22,1.3-84.37,15-120.83,39.8a256.45,256.45,0,0,0-51.06,46.29c-.91,1.07-1.93,2-2.88,3.08a44.23,44.23,0,0,0-9.12,15.36c-.22.63-.51,1.23-.77,1.85Z"/><path class="cls-1" d="M239.85,310a17.21,17.21,0,0,1-7.5-4.6c-1.76-2-3.28-4.24-4.9-6.37a3.83,3.83,0,0,0-.86-1,1.49,1.49,0,0,0-1.24-.13c-.28.17-.38.74-.44,1.15a1.26,1.26,0,0,0,.29.74c3.83,6.18,8.48,11.35,16,13.09,2.19.5,2.83,1.76,2.3,4a9,9,0,0,0,1.28,7.66,5,5,0,0,1,.45,5.07c-.78,1.83-1.71,3.6-2.54,5.32-3.49-3-7-5.87-10.3-8.94-2.51-2.33-3.61-5.5-4.41-8.77a10.27,10.27,0,0,0-.62-2.22,1.51,1.51,0,0,0-1.21-.73,1.49,1.49,0,0,0-.81,1.17,10,10,0,0,0,.41,2.26A21.06,21.06,0,0,0,234,330.58a60.19,60.19,0,0,1,6.12,5.39,6,6,0,0,1,1.39,6.92c-.84,2.14-1.81,4.24-2.62,6.14-2.38-2.41-4.79-4.79-7.12-7.24a10.1,10.1,0,0,1-1.39-2.16c-.4-.76-.7-1.58-1-2.37s-.84-1.41-1.62-.94a1.86,1.86,0,0,0-.48,1.7,14.07,14.07,0,0,0,4,6.53,23.11,23.11,0,0,1,3.49,3.43,24.3,24.3,0,0,1,2.81,4.77,6.21,6.21,0,0,1-.53,5.88c-.67,1.13-1.39,2.23-2.1,3.35-3.3-4.87-7.7-8.91-9.94-14.44-.31-.75-.84-1.49-1.75-1.05s-.63,1.32-.27,2c1.65,3.29,3.3,6.58,5.86,9.3.78.83,1.5,1.71,2.23,2.58a10.11,10.11,0,0,1,2.16,8.69,18.8,18.8,0,0,0,2.67,14.09,20.38,20.38,0,0,0,6,5.44c.4.26.78.55,1.18.82l-.22.49a64.72,64.72,0,0,1-6.29-2.32c-6.75-3.26-11.6-8.6-15.76-14.69-7.09-10.39-9.73-21.92-9.29-34.36.29-8.12,1.93-16,3.2-24,.63-4,1.33-8,.57-12a21.9,21.9,0,0,0-6.27-11.42c-3.57-3.62-7.39-7-11-10.53A55.62,55.62,0,0,1,185.56,263a51.41,51.41,0,0,1-4-24.48c.34-5.2.82-10.4,1.53-15.57a55.25,55.25,0,0,1,2.07-8,2.33,2.33,0,0,1,1.17-1.33,69,69,0,0,0,17.5-10.41c3.66-3,6.82-3.45,11.94-.67a47.81,47.81,0,0,1,4.74,3.18c4.33,3.08,9.36,4,14.45,4.83a10,10,0,0,0,2.16.25c1.47-.1,2,.73,2,2a18.77,18.77,0,0,1-.43,3.89c-.59,2.46-1.35,4.87-2.07,7.41a13.79,13.79,0,0,1-6.58-3.2c-1.64-1.43-3.24-2.91-4.87-4.36-.27-.24-.55-.58-.86-.64s-1.1-.08-1.33.18-.07.89-.06,1.35c0,.08.09.16.15.22,4.21,4,8.27,8.21,14.52,9.05,3.49.46,4,1.36,3.26,4.88-.55,2.66-1.26,5.3-1.69,8a27.48,27.48,0,0,0,0,4.35c0,2.29-.82,3.12-3,2.52a27.5,27.5,0,0,1-6.8-2.64,47.82,47.82,0,0,1-11.3-9.55c-.6-.67-1-1.54-1.57-2.21a3.74,3.74,0,0,0-1.33-.64c-.17.47-.52,1-.46,1.4a3.36,3.36,0,0,0,.79,1.56c4.42,5.38,9.47,10.07,15.85,13a3.82,3.82,0,0,1,2.33,3.46,13,13,0,0,1,.27,2.83,19,19,0,0,1-.75,3.81c-.54,1.77-1.37,3.46-1.85,5.24a7.9,7.9,0,0,0,.62,6.08c-4-2-7.8-4.07-10.58-7.57-1-1.21-1.84-2.5-2.89-3.63-.35-.38-1.13-.38-1.72-.55,0,.61-.33,1.4-.05,1.79,2.05,2.89,4,5.93,7.15,7.76,4.35,2.53,8.82,4.85,13.28,7.17a13.15,13.15,0,0,0,2.77.64c1.14.3,2.28.63,3.39,1a4.16,4.16,0,0,1,2.89,3.62,32.55,32.55,0,0,1-.71,13.11c-.79,3-2.13,3.66-4.94,2.32a70.15,70.15,0,0,1-14.67-9.1c-.07,0-.12-.16-.2-.17l-1.79-.24c.14.59.1,1.36.46,1.74a17,17,0,0,0,2.92,2.44c4.44,3,8.82,6.1,13.9,8a1.29,1.29,0,0,1,.71,1,16.43,16.43,0,0,1-.61,4C240.32,304.59,239.16,307,239.85,310Z"/><path class="cls-1" d="M311.16,331.85c-.74-1.12-1.28-2.05-1.93-2.9a5.69,5.69,0,0,0-4.73-2.28c-4.59,0-5.49-.67-7-5-1-2.88-1.79-5.83-3.76-8.26-.23-.28-.41-.7-.7-.81a2,2,0,0,0-1.46-.08c-.26.14-.32.87-.26,1.31s.41.69.65,1a20.66,20.66,0,0,1,3.21,7.29c-2.33.27-4.61.6-6.9.79-2.85.24-4-1-3.76-3.88a26.82,26.82,0,0,0,.13-3.8c0-.49-.6-.93-.93-1.4-.38.42-.77.83-1.12,1.27-.09.12,0,.36-.06.54-.2,2.57-.48,2.88-3.09,2.93a7.68,7.68,0,0,1-5.27-1.86c-1-.85-2-1.75-3-2.55a1.58,1.58,0,0,1-.48-2.45,34.27,34.27,0,0,1,3.05-3.82,10,10,0,0,0,2.64-7.09c0-.45-.62-.91-.95-1.37-.39.36-.81.69-1.16,1.08a1.08,1.08,0,0,0-.15.66c0,3-1.65,5-3.83,6.91a10,10,0,0,0-4.32-4.88c-1.54-1-1.49-1.73.16-2.68a46.9,46.9,0,0,1,4.25-2.14,13.33,13.33,0,0,0,7.3-8.37c.25-.74.43-1.5-.46-1.86s-1.31.35-1.64,1-.76,1.65-1.14,2.48c-1.45,3.17-4.43,4.34-7.11,5.68-.47-1.88-.9-3.63-1.36-5.37-.33-1.26,0-1.7,1.25-1.87,1.43-.2,2.86-.47,4.26-.81a2.53,2.53,0,0,0,1.35-.86,1.43,1.43,0,0,0,.12-1.31,1.33,1.33,0,0,0-1.26-.24c-5.65,2.36-9.82,1-12.61-4.44a57.6,57.6,0,0,1-3.3-8.47c-.53-1.63,0-2.17,1.73-2.54,2.43-.53,4.88-1,7.28-1.66a24.69,24.69,0,0,0,9-5c.62-.51,1.28-1.08.65-1.92s-1.42-.36-2,.13a25.78,25.78,0,0,1-8.37,4.72l-2.12.65a18.68,18.68,0,0,0-5.62-6.64,1.24,1.24,0,0,1-.31-2,25.42,25.42,0,0,1,1.91-2.11c.58-.57,1.4-.94,1.85-1.59,1.32-1.92,3.17-2.16,5.26-2.08a38.42,38.42,0,0,0,20.71-5.31c.31-.18.71-.35.86-.63a1.64,1.64,0,0,0,.17-1.23,1.14,1.14,0,0,0-1-.46,7.33,7.33,0,0,0-2,.77,36.9,36.9,0,0,1-19.37,4.65c-1,0-1.3-.3-1.59-1.28a26.16,26.16,0,0,0-2.3-5.48,7.3,7.3,0,0,1,1.87-9.48,3.18,3.18,0,0,1,2.15-.47c6.94,1.2,13.28,0,18.94-4.35,1.08-.82,2.28-1.52,3.28-2.43.38-.34.35-1.13.51-1.72-.62,0-1.38-.28-1.81,0-1.78,1.1-3.42,2.4-5.16,3.56-3.6,2.39-9.36,3.66-13.24,2.93a6.44,6.44,0,0,0,.13-.88q0-3.16,0-6.33a31.63,31.63,0,0,1,0-4.87c.42-2.59,1.6-3.43,4.24-3.46,1.9,0,3.81,0,5.72,0a19.47,19.47,0,0,0,10.3-3.11c2.29-1.47,4.46-3.13,6.67-4.73.63-.46,1.32-1.08.69-1.92s-1.38-.37-2,.1c-1.59,1.15-3.16,2.31-4.73,3.46a20.45,20.45,0,0,1-12.9,4c-1.4,0-2.8,0-4.17,0-.4-1.93-.81-3.69-1.12-5.46a3,3,0,0,1,2.13-3.63c11.8-4.45,22.2-11,30.48-20.62.93-1.08,1.68-.73,2.59-.22,4.44,2.48,7.27,6.37,9.32,10.88,1.13,2.48,2.08,5,3.07,7.58,3.5,9,2.7,17.93-1.37,26.55a114,114,0,0,1-7,13.08c-2.82,4.37-6.15,8.42-9.38,12.53-3.62,4.6-7.38,9.1-11.06,13.67a31.35,31.35,0,0,0-6.72,14.69,19.82,19.82,0,0,0,2.25,12.5,44,44,0,0,0,14.52,16.33,44.83,44.83,0,0,1,9.3,8.36A14.63,14.63,0,0,1,311.16,331.85Z"/><path class="cls-1" d="M140.15,238.83c-.55-1.7-1-3.14-1.49-4.59-.26-.83-.46-1.67-.67-2.5s-.67-1.36-1.43-1a1.71,1.71,0,0,0-.73,1.47c.71,3.19,1.29,6.48,3.44,9.09,1.13,1.38,2.59,2.48,3.85,3.77a7.18,7.18,0,0,1,1.86,2.38,12.85,12.85,0,0,1-.42,8.93c-1,2.46-3.1,3.3-5.45,3.75-.22,0-.58-.3-.78-.55-.92-1.12-1.73-2.34-2.72-3.39a15.77,15.77,0,0,1-3.85-6l-.09-.26c-.32-.7-.8-1.47-1.59-1a1.94,1.94,0,0,0-.47,1.82,28.17,28.17,0,0,0,2.29,4.6,24.24,24.24,0,0,0,2.41,2.78c.62.72,1.24,1.44,1.81,2.21a4.89,4.89,0,0,1,.44,5.24,49.71,49.71,0,0,0-1.82,6.3c-3.41-2.87-6.53-6.25-7.64-11.06a17,17,0,0,0-.65-2.78c-.21-.52-.82-1.23-1.27-1.25-1,0-1,.9-.89,1.63.57,3.54,1.37,7.06,3.83,9.76a62.57,62.57,0,0,0,7.85,7.51c3.46,2.68,4.83,5.52,3.33,10.65-.44,1.51-1,3-1.59,4.55-2.85-2.26-5.62-4.38-8.29-6.62s-4-5.32-5.09-8.55c-.3-.89-.47-2.31-1.84-1.8s-.55,1.69-.3,2.59a21.7,21.7,0,0,0,8.59,11.93,38,38,0,0,1,5.18,4.18c2.5,2.56,3.94,5.52,3.17,9.37a12.08,12.08,0,0,0,.29,5.76c1,3.17,0,5.37-2.31,7.22-1.25-1.4-2.47-2.8-3.71-4.17a35.3,35.3,0,0,1-8-15.16,2.77,2.77,0,0,0-1.89-2.69c-.25.55-.8,1.18-.69,1.65a50.07,50.07,0,0,0,1.8,6.13,35.25,35.25,0,0,0,8.1,12.64c3.16,3.16,3.1,3.68,1.49,8.2l-1.44,4c-1.45-2-2.91-3.78-4.07-5.72s-2-4-2.94-6a3.22,3.22,0,0,0-.57-1.07,5.44,5.44,0,0,0-1.36-.62c-.2.49-.42,1-.6,1.49,0,.1.06.26.12.38,2.11,4.85,4.37,9.58,8.24,13.37a34.29,34.29,0,0,1,4.09,4.9,4.08,4.08,0,0,1-.24,5.17c-1.24,1.65-2.36,3.39-3.57,5.16C128.3,339,125,335,124.57,329.31a5.13,5.13,0,0,0-.09-.67c-.12-.8-.27-1.68-1.33-1.5s-1,1.06-.91,1.86c.27,5.7,3.15,10.13,6.94,14.09,1.35,1.41,2.86,2.67,4.16,4.13,2.78,3.09,2.5,6.85-.72,9.82-2.28-3.42-6.07-5.6-7.67-9.6-.16-.42-1-.54-1.6-.81-.13.6-.53,1.3-.34,1.76a16.83,16.83,0,0,0,4.68,6.43,14.94,14.94,0,0,1,5.18,8.89,28.16,28.16,0,0,1,.17,3.19l-.39.19c-1.62-1.74-3.24-3.47-4.84-5.23a10.91,10.91,0,0,0-1.39-1.66,4.23,4.23,0,0,0-1.68-.33c0,.57-.29,1.33,0,1.67,1.47,1.85,3.11,3.56,4.61,5.38a70.16,70.16,0,0,1,4.82,6.21,10.58,10.58,0,0,1-.95,12.32c-1.42-7.35-6.54-12.35-10.91-17.78-5.64-7-8.6-14.89-8.28-23.9.23-6.76.77-13.51,1-20.27a15.78,15.78,0,0,0-1.14-5.4C112,312.75,109,307.93,106.26,303c-2.9-5.1-5.42-10.4-6.2-16.32a68.91,68.91,0,0,1,2.6-30.42,133.28,133.28,0,0,1,7.43-17.39c2.39-4.92,4.09-10,3.86-15.58-.13-2.84-.66-5.66-1-8.53a6.29,6.29,0,0,1,.77.19,97,97,0,0,0,26.38,5.13c1,.06,1.35.34,1.44,1.42a11.71,11.71,0,0,0,1,3.89,10.23,10.23,0,0,1-.87,10.94C141.21,237.06,140.79,237.81,140.15,238.83Z"/><path class="cls-1" d="M181.07,215.62c-.54,3.09-1.15,6-1.54,9-1.48,11.38-1.89,22.72,1.47,33.9a7.4,7.4,0,0,0,.54,1.54c1.08,1.89.32,3.48-1,4.75a64,64,0,0,1-5.49,4.66c-3.46,2.65-7.21,5-10.43,7.87a23.92,23.92,0,0,0-7.4,14.11c-.49,3,.14,6.12.26,8.94-5-4.33-7.87-9.11-6.69-15.58a10.85,10.85,0,0,1,5.13-7.25,8.2,8.2,0,0,0,1.84-1.38,1.77,1.77,0,0,0,.24-1.53c-.09-.24-1-.39-1.39-.24a9.81,9.81,0,0,0-1.92,1.16,55.28,55.28,0,0,1,0-5.76c.23-2.14,1.73-3.6,3.48-4.64a40.66,40.66,0,0,1,5.74-2.81c3.22-1.27,5.29-3.77,7.16-6.48.24-.35,0-1.05,0-1.59-.57.09-1.14.17-1.7.28-.11,0-.2.18-.27.3-2.35,3.93-6.21,5.68-10.49,7.18.23-2.85.31-5.69.73-8.47.31-2,2-3,3.67-4,1.81-1,3.64-2,5.36-3.22,3-2.06,4.33-5.3,5.52-8.56.15-.42-.33-1.07-.52-1.62-.51.28-1.22.44-1.49.87a21.61,21.61,0,0,0-1.43,3.08c-1.33,3.24-4,5.06-7.13,6.7a7.8,7.8,0,0,1-.28-1.47c0-1.82-.05-3.63,0-5.45a1.39,1.39,0,0,1,.58-1c5.16-2.8,8.61-7.18,11.34-12.21a2,2,0,0,0-.12-1.87c-.77-.63-1.36.1-1.83.77a68.65,68.65,0,0,1-5.39,7.32,24.11,24.11,0,0,1-5.8,4.2c-1.72,1-2.5.4-2.69-1.56a19.46,19.46,0,0,0-.23-3.53,23.51,23.51,0,0,0-2.08-5.12c-1-1.83-1.94-3.61-1.62-5.76.06-.38.53-1,.84-1a126.43,126.43,0,0,0,24.49-4.46C180.67,215.65,180.81,215.65,181.07,215.62Z"/><path d="M255.72,80.92c1.2.15,2.43.23,3.61.49a133.28,133.28,0,0,1,23.94,7.84c5.05,2.12,10,4.42,15,6.72a92.75,92.75,0,0,0,14.9,5c5.57,1.51,11,3.62,16.58,5.09,4.84,1.28,9.85,1.91,14.73,3.06,3.46.81,6.84,2,10.24,3,.29.09.43.64.64,1-.35.06-.74.25-1.05.15-1.12-.35-2.22-.76-3.31-1.21-4.12-1.71-8.53-2-12.86-2.7a4,4,0,0,0-1.44,0c2.2,1.36,4.32,2.89,6.62,4,6.71,3.39,13.49,6.61,20.23,9.93a9.2,9.2,0,0,1,1.57,1.24,6.88,6.88,0,0,1-2.05-.14,147.63,147.63,0,0,1-26-13.49A29.46,29.46,0,0,0,328.6,107c-4.14-1.14-8.11-2.85-12.23-4.06s-8.57-2.21-12.92-3.31c2,1.27,4,2.43,5.83,3.79,4.41,3.19,8.74,6.5,13.12,9.73,8,5.86,16.66,10.43,25.53,14.73,4.77,2.3,9.54,4.63,14.19,7.15a21.31,21.31,0,0,1,4.07,3.56c.2.19.1.7.14,1.07-.31-.06-.77,0-.92-.19-3.07-3.81-7.61-5.33-11.73-7.45-5.36-2.75-10.81-5.35-16.21-8l-.64-.31c5.4,6.12,10.67,12,17,16.9a83.78,83.78,0,0,1,6.19,5.74,3,3,0,0,1,.78.94,2.86,2.86,0,0,1,0,1.06c-.32-.09-.73-.08-.94-.28-1-1-1.95-2.16-3-3.12-2.58-2.29-5.34-4.39-7.83-6.78-3.31-3.16-6.54-6.43-9.59-9.84a64.52,64.52,0,0,0-10.82-9.47q-8.14-5.81-16.22-11.72a164.29,164.29,0,0,0-19.91-12c-3.42-1.83-6.88-3.53-10.41-5.1a61.91,61.91,0,0,0-8.21-2.93c1.18.9,2.37,1.79,3.54,2.7,6.5,5,13.07,10,19.46,15.12a66.58,66.58,0,0,1,12.3,12.68c2,2.73,5,4.25,7.93,5.86,5.1,2.85,10.34,5.46,15.38,8.42A59.22,59.22,0,0,1,353,152.09c.1.15.26.3.27.46,0,.4,0,.81-.05,1.21-.33-.18-.77-.27-1-.54-.9-1.26-1.69-2.58-2.58-3.84-6-8.47-13.91-14.59-23-19.34-5-2.6-9.85-5.38-14.77-8.07a33.41,33.41,0,0,0,5.68,8.21c3.12,3.23,6.34,6.37,9.6,9.47a94,94,0,0,1,15.67,19.64,4.93,4.93,0,0,1,.26,1.76c-.42-.34-1-.6-1.23-1-5.37-9.09-12.41-16.76-20.18-23.82a49.34,49.34,0,0,1-10.75-13.26,50.34,50.34,0,0,0-13.32-15.68q-13.44-10.77-27.29-21c-2-1.51-4.89-2-7.43-2.76-2-.61-4.14-.93-6.21-1.4a5.73,5.73,0,0,1-1.1-.5Z"/><path d="M119.71,88c-2.94.7-5.89,1.36-8.81,2.12-12.26,3.17-22.38,9.8-31,19-7.71,8.15-15.41,16.33-23.52,24.07-5.53,5.29-11.79,9.82-17.67,14.75-6.19,5.19-12.32,10.46-18.47,15.7a.43.43,0,0,1-.1.09l-1.46.51a4.42,4.42,0,0,1,.73-1.4c6.9-5.9,13.64-12,20.8-17.59a266.67,266.67,0,0,0,31.1-28.71c4.55-4.88,9.13-9.77,14-14.27,8-7.34,17.74-11.56,28.26-14.14,6.67-1.64,13.24-3.66,19.86-5.49q3.31-.91,6.65-1.72c.27-.07.62.15.93.24-.18.31-.28.8-.54.9-1.23.45-2.5.8-3.75,1.19a195,195,0,0,0-27.1,11.17c-7.74,3.82-13.79,9.62-19,16.43-4,5.21-7.82,10.48-11.92,15.57-4.9,6.07-10.89,11-16.88,16-8.54,7.06-17.41,13.74-25,21.91-2.28,2.46-4.32,5.14-6.46,7.72-.15.17-.24.43-.42.53a4.43,4.43,0,0,1-.9.25c0-.28-.11-.63,0-.83a22.8,22.8,0,0,1,1.61-2.36,109.86,109.86,0,0,1,15.37-15.8c7.69-6.51,15.5-12.89,23.15-19.45,5.86-5,10.6-11.06,15.21-17.22A183.94,183.94,0,0,1,96.3,102.51c5.37-5.85,12.35-9.43,19.57-12.53,1.31-.56,2.62-1.14,3.93-1.71Z"/><path d="M226.05,102.55c-7.52-.44-14.53-2.43-20.65-6.9a39.7,39.7,0,0,1-5.35-5.19c-.3-.32,0-1.19,0-1.8.6.07,1.5-.09,1.76.25,4.17,5.29,10,7.44,16.24,9,4.71,1.19,9.43,2,14.26.77a21,21,0,0,0,10.12-5.6,7.11,7.11,0,0,0,1.49-8.63,18.69,18.69,0,0,0-7.52-8.22A37.38,37.38,0,0,0,216,70.41a49.56,49.56,0,0,0-5.14.57c-.83.11-1.63.14-1.78-.91s.61-1.3,1.41-1.49a34.48,34.48,0,0,1,11.5-.7c7.53.79,14.48,3.15,20.22,8.22a22.68,22.68,0,0,1,4.68,5.78c3.25,5.79,1.79,12-3.52,16a24.05,24.05,0,0,1-12.41,4.44C229.32,102.43,227.69,102.46,226.05,102.55Z"/><path d="M158.34,107.51c7.68-.22,13.47-1.93,18.72-5.41,2-1.35,4.1-2.68,6-4.2a19.06,19.06,0,0,0,5.42-7.25c.37-.82.85-1.56,1.83-1.1s.78,1.38.38,2.22a30.56,30.56,0,0,1-10.31,11.76,39.69,39.69,0,0,1-20.82,7.67,21.63,21.63,0,0,1-9-1.22c-6.61-2.46-9.48-8.19-7.52-15a24.69,24.69,0,0,1,7.51-11.33,40.6,40.6,0,0,1,21.64-10.44c.18,0,.41-.15.53-.08.52.31,1,.67,1.51,1-.4.45-.73,1.2-1.22,1.32A49.62,49.62,0,0,0,157,82.69a25.82,25.82,0,0,0-8.61,9.85,12.91,12.91,0,0,0-1,8.75,5.93,5.93,0,0,0,4.22,4.77C154.24,106.8,157,107.22,158.34,107.51Z"/><path d="M132.68,167.1A75.33,75.33,0,0,0,125.47,186c-1.56,6.46-2.91,13-4.32,19.47-.21,1-.21,2-.38,3a3.93,3.93,0,0,1-.54,1.06c-.18-.38-.56-.79-.51-1.15.4-3,.76-5.93,1.36-8.85a168.49,168.49,0,0,1,6-23,40.49,40.49,0,0,1,2.22-5.25c3.71-7.11,5.47-14.85,7.33-22.55.69-2.87,1.42-5.73,1.09-8.72-.16-1.39-.39-2.77-.57-4.11-2.07,2-4.09,4-6.18,5.9a34.71,34.71,0,0,0-9,13.9c-1.69,4.63-3.5,9.21-5.21,13.84s-2.06,9.79-2.74,14.76a55.24,55.24,0,0,1-6.62,19.27c-.18.31-.66.46-1,.68,0-.43-.13-1,.06-1.28a57.38,57.38,0,0,0,6-16.67c.39-2,.57-4,.85-6.14-2.53,2.62-4.9,5.14-7.34,7.59a41.93,41.93,0,0,0-7.78,10.09c-.15.27-.58.38-.88.57a3.48,3.48,0,0,1,0-1.34,38,38,0,0,1,7.05-9.47c1.49-1.52,3-3,4.51-4.54a21.66,21.66,0,0,0,5.55-9.76c1.38-5.32,3.56-10.44,5.46-15.62,1.41-3.87,2.74-7.82,5.3-11.12a44.93,44.93,0,0,1,5.89-6.57c7-6,10.88-13.8,13.47-22.42a6,6,0,0,1,.45-1.27c.16-.26.52-.4.78-.59.12.31.4.66.34.93a23.32,23.32,0,0,1-.76,2.46c-1.8,5.14-3.64,10.25-6.87,14.72a2.55,2.55,0,0,0-.2,1.64,37,37,0,0,1,.69,5.78,39.42,39.42,0,0,1-1.16,7.63c-1.32,5.31-2.9,10.55-4.23,15.86a6.31,6.31,0,0,0,.45,2.84c.94,3.53,2,7,2.87,10.59a36.36,36.36,0,0,1,.11,14.73,72.09,72.09,0,0,0-.35,19.79,3.39,3.39,0,0,1-.36,1.25c-.27-.38-.76-.75-.78-1.14-.23-4.26-.58-8.52-.5-12.78a91.2,91.2,0,0,1,1.06-9.85,39.92,39.92,0,0,0-1.61-17.06C133.87,171.12,133.3,169.17,132.68,167.1Z"/><path d="M234,142.31c3.12,11.3,6.19,22.4,12.38,32.36,5,8.08,10.2,16.08,14,24.87a4.39,4.39,0,0,1,.28,1.85c-1.14.34-1.15-.78-1.41-1.38-3.66-8.44-8.63-16.14-13.44-23.93-5.36-8.64-8.78-18-11.39-27.8s-6.94-18.55-11.3-27.46c-1.59-3.25-3.05-6.57-4.56-9.86a2.89,2.89,0,0,1-.29-1,.65.65,0,0,1,.37-.5.84.84,0,0,1,.57.23,1.35,1.35,0,0,1,.27.47c3.25,6.87,6.8,13.62,9.67,20.65,4.35,10.66,11.93,18.67,20.41,25.95,10.22,8.77,19.63,18.24,26.86,29.69a62.35,62.35,0,0,1,3.15,6c.18.37,0,.94-.08,1.42-.34-.3-.81-.54-1-.92-5.83-12-14.67-21.54-24.32-30.46a4.83,4.83,0,0,0-.68-.38c.29.74.45,1.2.65,1.65,3.89,9.29,9.16,17.79,14.83,26.08a73.86,73.86,0,0,1,3.73,6.47c.2.37,0,1,0,1.43-.37-.29-.87-.5-1.11-.87-2.78-4.41-5.47-8.87-8.29-13.25a119,119,0,0,1-10.79-20.7,14,14,0,0,0-4.39-5.72A88.46,88.46,0,0,1,234.6,143C234.44,142.79,234.26,142.62,234,142.31Z"/><path d="M47.57,127.38c-2.87,1.71-5.69,3.49-8.59,5.14-5.91,3.36-12,6.45-17.75,10-3.64,2.26-6.86,5.2-10.27,7.83-.14.11-.25.31-.41.35-.42.11-.85.16-1.28.24.15-.39.19-.89.47-1.14,1.56-1.38,3.18-2.71,4.79-4,6.39-5.25,13.67-9,21-12.8a82.56,82.56,0,0,0,16.33-10.51,82.58,82.58,0,0,0,7.4-7.78c13.14-14.81,28.2-27.22,45.89-36.24a99.27,99.27,0,0,1,30.1-9.71c2-.31,4.05-.44,6.09-.59.32,0,.66.27,1,.42-.34.22-.65.61-1,.64C123.25,71,107,77.49,92.05,87.56A173.37,173.37,0,0,0,57.13,119,314.34,314.34,0,0,1,32,145.43c-5.26,4.85-11.27,8.7-17.36,12.39-.32.19-.84,0-1.27,0,.24-.37.4-.87.73-1.1,4.2-2.87,8.69-5.37,12.56-8.61,5.28-4.42,10.13-9.36,15.09-14.15,2.12-2,4-4.28,6.06-6.43Z"/><path d="M161.46,51.46c-3.77,0-7.44.45-10.76,2.42A8.26,8.26,0,0,0,149,55.2a3.09,3.09,0,0,0,.1,4.72,30.4,30.4,0,0,0,5.08,3.62A31.07,31.07,0,0,0,167.05,68a34.82,34.82,0,0,0,4.21-.06c.85,0,1.62.08,1.75,1.07s-.51,1.28-1.32,1.42a7.43,7.43,0,0,1-1.19.25c-7-.13-13.93-.78-20.15-4.34a21.74,21.74,0,0,1-5.6-4.64c-2.38-2.78-2-6.27.68-8.81A15.6,15.6,0,0,1,153.85,49a38.58,38.58,0,0,1,25,3.57,30.27,30.27,0,0,1,3.95,2.65,2.59,2.59,0,0,1,1,1.24c.14.53.13,1.4-.19,1.65A1.69,1.69,0,0,1,182,58c-2.8-2.79-6.42-4-10-4.93-3.4-.91-6.94-1.29-10.41-1.9Z"/><path d="M182,133.33c-.22,5.89-.64,11.78-.62,17.67a61.54,61.54,0,0,0,5.32,24.25c2.63,6.11,5.48,12.13,8,18.27a51.47,51.47,0,0,1,2.05,7.42c.07.31-.3.73-.46,1.11-.27-.3-.75-.59-.76-.91-.23-3.86-2-7.21-3.46-10.66q-4.42-10.44-8.87-20.86c0-.07-.1-.12,0,0,0,4.27.06,8.74,0,13.22a80.41,80.41,0,0,0,2.8,22.58,2.52,2.52,0,0,1,.15.93c0,.2-.29.38-.45.57-.28-.3-.73-.56-.81-.91-.62-2.51-1.2-5-1.72-7.55-1.5-7.27-1-14.64-1.15-22-.07-3.8-.36-7.61-.66-11.4-.4-5.26-1.12-10.5-1.3-15.76a109,109,0,0,1,.62-11.68c.4-5.53.55-11-.89-16.47-.88-3.36-1.55-6.79-2.25-10.19-.08-.39.21-.85.33-1.28.25.33.65.62.73,1,1.09,4.81,2.25,9.6,3.17,14.44a134.33,134.33,0,0,0,9.84,30.67,125,125,0,0,1,9,29.67c.39,2.18.58,4.4.79,6.6,0,.4-.3.82-.46,1.23-.27-.35-.71-.68-.77-1.06-.4-2.64-.64-5.31-1.1-7.94a124.34,124.34,0,0,0-9.5-30.22,118,118,0,0,1-7.11-20.35l-.12-.49Z"/><path d="M216,48.57a46.82,46.82,0,0,0-16.93,2.91,17.37,17.37,0,0,0-6.35,3.86c-.6.61-1.31.95-2,.22a1.26,1.26,0,0,1,.33-2,38.52,38.52,0,0,1,5.51-3.71A48,48,0,0,1,219,45.17a27.85,27.85,0,0,1,10.64,1.95,11.94,11.94,0,0,1,1.82.92c3.9,2.47,4.45,6.22,1.36,9.65A22.43,22.43,0,0,1,224.52,63a50.17,50.17,0,0,1-12.35,3.22l-.54,0c-.79,0-1.53-.11-1.63-1s.64-1.28,1.45-1.46c2.21-.49,4.42-1,6.62-1.5a22.34,22.34,0,0,0,9-4.7,10.8,10.8,0,0,0,2.25-2.52c1.24-2,.84-3.63-1.34-4.38a66.58,66.58,0,0,0-8.4-2.11A18.07,18.07,0,0,0,216,48.57Z"/><path d="M243.13,119.86c.49,1.48,1,3,1.45,4.44,2.78,8.49,5.87,16.84,10.58,24.5a128.33,128.33,0,0,0,13.39,17.33c4.32,4.9,8.87,9.65,12.09,15.38a73.05,73.05,0,0,1,3.64,8.46c.12.31-.13.78-.21,1.18-.33-.29-.86-.51-1-.86-2.07-7.66-6.94-13.58-12-19.37C265,164,258.8,157.18,254,149.27c-5.13-8.38-8.3-17.58-11.25-26.86-.56-1.77-1.07-3.55-1.69-5.3a5.11,5.11,0,0,0-1.06-1.54c-2.2-2.36-4.43-4.69-6.65-7-.09-.1-.24-.18-.28-.29-.13-.39-.23-.79-.35-1.18.38.11.87.11,1.12.35q2.79,2.79,5.51,5.66c8.07,8.5,14.33,18.27,19.86,28.52a178.13,178.13,0,0,0,21.08,30.67c3.7,4.37,6.59,9.43,9.83,14.18a1.57,1.57,0,0,1,.34.73,3.7,3.7,0,0,1-.21.95c-.27-.13-.55-.23-.8-.37s-.14-.23-.21-.35c-4.12-7.47-9.4-14.11-14.95-20.55-6.15-7.12-10.85-15.19-15.42-23.35-4.41-7.88-8.94-15.69-14.57-22.78-.27-.35-.58-.67-.87-1Z"/><path d="M214.88,138.56c.59,2.85,1.29,5.69,1.75,8.57,2.25,13.87,7.63,26.64,13.57,39.24,2.17,4.62,4,9.4,6,14.12a4.85,4.85,0,0,1,.38,1.15.74.74,0,0,1-.3.64.85.85,0,0,1-.7-.17c-.16-.12-.22-.38-.31-.59-3.79-8.71-7.51-17.46-11.39-26.14a122.16,122.16,0,0,1-8.43-28c-2.35-12.71-5.82-25-12-36.48-.93-1.71-1.88-3.41-2.76-5.15-.17-.33,0-.81,0-1.22.33.23.79.38,1,.69a128.49,128.49,0,0,1,11.26,25.23A63.7,63.7,0,0,0,218.4,142c3.56,6.26,7.19,12.5,11.2,18.47a200.68,200.68,0,0,1,14.69,26.63,69.64,69.64,0,0,0,8.44,13.61,2.64,2.64,0,0,1,.49.65,6.38,6.38,0,0,1,.13,1.08c-.38-.11-.94-.11-1.12-.36-2.57-3.84-5.41-7.53-7.56-11.6-4.66-8.8-8.6-18-14.17-26.3-3.55-5.31-6.93-10.75-10.25-16.21-1.87-3.09-3.48-6.33-5.2-9.51Z"/><path d="M83.08,137A60.91,60.91,0,0,0,69.3,148.25c-5.52,6.2-12.13,11-18.78,15.9-4.12,3-8,6.46-11.87,9.75a26.88,26.88,0,0,0-1.8,2,2.87,2.87,0,0,1-1,.38c0-.33-.09-.73.06-1a12.51,12.51,0,0,1,1.43-1.81A96.26,96.26,0,0,1,51.85,161.6,91.2,91.2,0,0,0,67.5,148.31a80.4,80.4,0,0,1,16.56-13.65,147.64,147.64,0,0,0,23.75-18.84,88.94,88.94,0,0,1,16.94-13.42,53.92,53.92,0,0,1,6.81-3c.31-.13.79.14,1.18.23-.26.31-.46.81-.79.91-8,2.56-14.19,8-20.25,13.45-7.25,6.54-14.16,13.48-22.49,18.69A15.67,15.67,0,0,0,83.64,139a36.6,36.6,0,0,1-6.5,8.85,24.6,24.6,0,0,0-6,9.95,50.18,50.18,0,0,1-10.74,17.79c-2.3,2.58-4.66,5.1-7,7.61-.27.29-.79.34-1.19.5a3.43,3.43,0,0,1,.42-1.24c3.2-3.71,6.5-7.34,9.66-11.09a41.55,41.55,0,0,0,7.48-13.47,29.08,29.08,0,0,1,7.11-11.62A30.89,30.89,0,0,0,83.08,137Z"/><path d="M270.73,109.31c2.31,8.55,4.91,16.63,11.26,22.85a57.45,57.45,0,0,1,12.79,19.72A92.23,92.23,0,0,0,305.68,171a6.54,6.54,0,0,1,.6,2,7.42,7.42,0,0,1-1.54-1.21A105.06,105.06,0,0,1,292.07,149a42.44,42.44,0,0,0-9.33-14.09c-6.55-6.34-10.31-14.14-12.46-22.83a14.35,14.35,0,0,0-4-6.9c-3.67-3.65-7.08-7.56-10.58-11.36a4.32,4.32,0,0,1-.46-.78l.23-.39a5,5,0,0,1,1.35.71c2.44,2.56,4.92,5.1,7.22,7.78A66.39,66.39,0,0,0,276.49,112,36.42,36.42,0,0,1,288,124.74c5.1,9.6,11.78,18,18.45,26.55,3.24,4.12,5.85,8.72,8.71,13.13.21.34.09.89.12,1.34-.38-.22-1-.33-1.12-.65-4.42-8.49-10.84-15.53-16.53-23.11a100.53,100.53,0,0,1-8.19-12.49c-4.07-7.56-9.31-13.93-16.55-18.59C272.22,110.48,271.59,110,270.73,109.31Z"/><path d="M59.64,98.45c-2.76,1.33-5.63,2.47-8.26,4-5.13,3.06-10.13,6.35-15.19,9.55a3.57,3.57,0,0,1-.67.45,6,6,0,0,1-1.06.19c.14-.37.17-.89.44-1.08,2.24-1.62,4.5-3.21,6.8-4.75A97.73,97.73,0,0,1,61.38,96.5c1.15-.44,2-1.6,3-2.49,5.78-5.4,12.44-9.53,19.25-13.45,10.29-5.93,20.66-11.68,31.87-15.74a15.89,15.89,0,0,1,2.18-.72c.27-.06.6.21.91.33-.2.27-.34.64-.6.76-.78.36-1.61.62-2.41.92C101.73,71.35,89,78.67,76.41,86.41A61.08,61.08,0,0,0,55.72,106.9C51.4,114,45.11,119.09,38.19,123.51c-6.68,4.27-13.28,8.69-19.87,13.1-1.35.9-2.52,2.07-3.81,3.07a4.14,4.14,0,0,1-1.15.42c.14-.42.15-1,.44-1.22,3.73-2.87,7.41-5.84,11.3-8.5,5.2-3.55,10.63-6.77,15.87-10.26a46.66,46.66,0,0,0,13.61-13.74c1.66-2.59,3.48-5.08,5.22-7.62Z"/><path d="M169.56,149.4l-5.2,16.93a66.51,66.51,0,0,0-2.84,24.18c.37,5.69,1.3,11.34,1.95,17a34.67,34.67,0,0,1,.23,3.53c0,.27-.32.55-.5.83-.23-.27-.63-.52-.67-.82-.68-5.62-1.36-11.24-2-16.87-1.31-12.38.71-24.28,5.08-35.88a37,37,0,0,0,2.84-12.8c0-3.28-.18-6.56-.27-9.84q-.25-9.25-.5-18.52a3,3,0,0,1,0-1.09,4.43,4.43,0,0,1,.67-1,2.87,2.87,0,0,1,.45,1c.1,3.59.15,7.18.22,10.77a177.16,177.16,0,0,0,3,29.32,99,99,0,0,1,1.31,14.61c.28,8,.17,16.09.4,24.13.14,4.57.65,9.13,1,13.7a7.48,7.48,0,0,1,.07,1.49c0,.29-.31.56-.47.84-.22-.25-.59-.47-.64-.74a35,35,0,0,1-.54-4.31c-.32-9.35-.67-18.69-.86-28.05C172.12,168.09,171.91,158.35,169.56,149.4Z"/><path d="M94.6,142.65a62,62,0,0,0-13.42,14.62c-5.25,8-10.17,16.2-15.23,24.31a22.92,22.92,0,0,1-1.25,1.94c-.2.25-.64.31-1,.45,0-.36-.1-.8.07-1.07,1.68-2.9,3.43-5.76,5.13-8.66,4.4-7.51,8.84-15,14.27-21.85a87.31,87.31,0,0,1,13.22-12.92c4.06-3.34,7.71-7.18,11.78-10.52a135.79,135.79,0,0,0,21.26-21.61c.26-.33.84-.41,1.27-.6a3.5,3.5,0,0,1-.33,1.3,126,126,0,0,1-19.71,20.47c-4.14,3.47-8,7.24-12.11,10.77a10.58,10.58,0,0,0-3.16,5.08C91,158.67,83.85,171.57,75.55,183.91c-.1.15-.18.35-.33.42a4.55,4.55,0,0,1-.9.31c0-.32-.09-.71.05-1,.48-.82,1-1.58,1.57-2.38a172.47,172.47,0,0,0,16.21-31c.37-.93.73-1.86,1-2.81C93.65,146,94.07,144.45,94.6,142.65Z"/><path d="M151.1,162.42c-2,7.8-4.46,15.56-5.2,23.64-.59,6.46-.77,12.95-1.12,19.42-.13,2.36-.19,4.72-.29,7.08a2.21,2.21,0,0,1-.2.92c-.12.23-.42.38-.64.56-.16-.24-.47-.48-.47-.72,0-.95.17-1.9.2-2.85.13-4.95.16-9.9.36-14.85a122,122,0,0,1,4.69-27.94c1.16-4.14,2.33-8.29,3.16-12.49q1.75-8.77,3-17.63c.82-6,1.32-12,2-18a10.11,10.11,0,0,1,.41-1.5l.38-.06c.16.34.48.7.45,1-.47,4.87-.89,9.75-1.49,14.6-.86,6.88-1.83,13.74-2.82,20.59a89.93,89.93,0,0,0-1,18.32c.33,5.38.9,10.74,1.49,16.1.87,7.81,1.62,15.62.86,23.48,0,.38-.47.72-.71,1.07-.17-.38-.5-.77-.47-1.13.7-8.42-.19-16.75-1.15-25.1-.71-6.13-1-12.3-1.39-18.45C151,166.51,151.1,164.46,151.1,162.42Z"/><path d="M201.76,150.15c.49,2.47,1.08,4.92,1.43,7.41.7,4.89,1.35,9.78,1.87,14.68.79,7.34,1.34,14.71,3.52,21.82a1,1,0,0,1,.07.4c-.09.42-.22.83-.33,1.25-.28-.3-.72-.55-.81-.89a54.59,54.59,0,0,1-1.62-6.59q-1.26-9.34-2.23-18.75a164.55,164.55,0,0,0-6.34-30.82,228.32,228.32,0,0,1-6.65-27.7c-.37-2.14-.6-4.3-.84-6.46,0-.28.25-.59.39-.89.24.25.64.47.69.75.45,2.67.65,5.4,1.27,8,2.08,8.8,4.45,17.53,6.41,26.36,1.41,6.38,4.79,11.69,8.47,16.84a61.45,61.45,0,0,1,10.52,26.51,45.25,45.25,0,0,0,5.12,15.65,4.54,4.54,0,0,1,.56,1.23,1,1,0,0,1-.33.77c-.08.08-.52-.08-.67-.24a5,5,0,0,1-.55-.92A46.15,46.15,0,0,1,216.28,182a62.33,62.33,0,0,0-11.35-27.48c-1.05-1.46-2-3-3-4.49Z"/><path d="M304.21,131.85c2.69,7.16,7.14,13.28,11.59,19.42,3.58,4.93,6.76,10.09,8.23,16.1a6.88,6.88,0,0,1-.09,2,6.65,6.65,0,0,1-1-1.63,46,46,0,0,0-7.27-14.49c-4.17-5.88-8.6-11.59-11.44-18.3-.26-.62-.6-1.22-.81-1.86-1.59-4.86-5.21-8.33-8.29-12.18-6.75-8.45-14.16-16.22-23.2-22.27-3.69-2.46-7.55-4.67-11.33-7a7.66,7.66,0,0,1-1.06-.59,3.89,3.89,0,0,1-.58-.92c.36,0,.79-.21,1.07-.08,1.46.72,2.89,1.51,4.31,2.3A104.08,104.08,0,0,1,296,120a153,153,0,0,0,22.76,23.18c5.78,4.88,10.92,10.39,14.07,17.45.07.17.22.32.23.49,0,.44,0,.89,0,1.34-.36-.26-.84-.44-1.05-.79-1.75-2.8-3.24-5.78-5.2-8.42-3.71-5-8.52-8.91-13.19-13C310.38,137.54,307.3,134.65,304.21,131.85Z"/><path d="M267.89,140.22c2.57,8.28,6.4,16.06,12.41,22.66,3.42,3.76,6.95,7.44,10.14,11.39,1.56,1.93,2.45,4.4,3.6,6.65.12.23-.09.62-.14.93-.33-.15-.87-.23-.95-.47-2-6-6.48-10.14-10.67-14.44a60.33,60.33,0,0,1-15-24.9c-1.61-5.31-4.78-9.73-7.48-14.43a118.54,118.54,0,0,0-15.62-21.73c-.56-.6-1.17-1.16-1.67-1.8a3.49,3.49,0,0,1-.4-1.11c.41.13,1,.13,1.23.4,1.52,1.56,3,3.15,4.44,4.8a119,119,0,0,1,14.14,20.62c4.23,7.62,10.07,13.76,16.61,19.46a123,123,0,0,1,22.61,25.51.78.78,0,0,1,.15.22c.09.52.16,1,.24,1.55-.43-.28-1-.47-1.27-.88-5.85-9.14-13.35-16.85-21.15-24.28C275.41,146.87,271.57,143.54,267.89,140.22Z"/><path d="M302.44,86.21c2.92,1.27,6.09,2.65,9.26,4.05,7.9,3.51,16.26,5.49,24.65,7.4a9,9,0,0,1,2,1c-.7,1.12-1.58.28-2.29.12-7.37-1.67-14.79-3.23-21.8-6.16-5.34-2.23-10.54-4.85-16-6.82-8.8-3.18-17.57-6.53-26.83-8.23a75.53,75.53,0,0,0-16.63-1.48c-1.08,0-2.14.36-3.22.45-.31,0-.65-.25-1-.39.23-.23.43-.58.7-.65A14.29,14.29,0,0,1,254.1,75a81,81,0,0,1,14.92.92c8.44,1.16,16.34,4.25,24.4,6.78A53.83,53.83,0,0,0,312.35,85a41.7,41.7,0,0,1,13.12,1.87c.44.11.78.59,1.16.89a4.11,4.11,0,0,1-1.45.29c-2.9-.52-5.76-1.22-8.67-1.64a43,43,0,0,0-5.57-.17C308.05,86.19,305.15,86.21,302.44,86.21Z"/><path d="M265.61,66.5c7.2,1.85,13.95,3.73,20.78,5.26,3.42.77,7,.87,10.48,1.33a5.94,5.94,0,0,1,1.52.66,6.08,6.08,0,0,1-1.49.46c-7.47.23-14.47-2.12-21.55-4C269,68.56,262.6,67,256,66.65c-3.5-.17-7,.23-10.57.38l-1.31.07-.22-.44c.35-.23.69-.64,1.05-.67,3.2-.23,6.41-.5,9.61-.54,2.08,0,4.17.57,6.22.41a73,73,0,0,0,8.66-1.4c3.23-.65,6.42-1.47,9.64-2.15.42-.09.92.24,1.38.38-.4.28-.76.71-1.2.81C274.84,64.51,270.38,65.46,265.61,66.5Z"/><path d="M242.86,58.1a4.72,4.72,0,0,1,1.24-.71c3.4-.71,6.79-1.49,10.23-2a63.73,63.73,0,0,1,6.78-.3,2.72,2.72,0,0,1,.95,0,6.92,6.92,0,0,1,1.06.66,3.68,3.68,0,0,1-1.06.61,8.08,8.08,0,0,1-1.63,0,51.66,51.66,0,0,0-16,2,10.34,10.34,0,0,1-1.39.19Z"/></g></g></svg>