<svg xmlns="http://www.w3.org/2000/svg" viewBox="0 0 93.05 64.56"><title>Calanus</title><g id="Layer_2" data-name="Layer 2"><g id="Calanus"><path d="M51.57,57.58a23.61,23.61,0,0,0,.83,3.07c.25,1.09.31,2.2.6,3.27a.65.65,0,0,1,0,.24c0,.23-.12.39-.35.4a.32.32,0,0,1-.37-.37A7.58,7.58,0,0,0,52,62.07a11.18,11.18,0,0,0-1.42-4.45c-.08-.09.08-.29-.14-.3l.17.27c.29,1.14.58,2.28.86,3.42a2.32,2.32,0,0,1,.08.58.27.27,0,0,1-.28.31.35.35,0,0,1-.37-.23c-.06-.19,0-.4-.08-.59a17.72,17.72,0,0,0-1.43-4.44l0-.57c-.08.2-.27.44.08.54a9.18,9.18,0,0,0,.4,2.81c.1.51.11.51-.21,1.4-.74-1.59-.71-3.18-1.08-4.82a4.27,4.27,0,0,0,.13,2.18c.07.2.12.52-.21.58s-.45-.19-.48-.43a15.87,15.87,0,0,1-.27-3.44c.11-1.16-.59-2-1.21-3.06-.54,1.11-1.26,1.92-1.16,3.08a12.31,12.31,0,0,1-.24,3.2,1.21,1.21,0,0,1-.07.34c-.09.19-.22.37-.45.31a.33.33,0,0,1-.2-.48,4.72,4.72,0,0,0,.16-2.11c-.41,1.48-.36,3.08-1.11,4.65a1.49,1.49,0,0,1-.2-1.39,10,10,0,0,0,.4-2.82c.3-.11.26-.31.1-.57l-.08.6a18.18,18.18,0,0,0-1.42,4.43c0,.08,0,.16,0,.24,0,.29-.06.61-.43.58s-.33-.39-.28-.64c.1-.5.23-1,.36-1.49l.57-2.17a2.2,2.2,0,0,0,.17-.25s0-.05-.05-.07l-.09.35a7.16,7.16,0,0,0-1.16,3,13.86,13.86,0,0,0-.52,3.28c0,.27,0,.64-.37.62s-.41-.43-.35-.74a25.63,25.63,0,0,1,1.34-5.66,1.85,1.85,0,0,0,.07-.58c.3-.06.26-.28.22-.49.33,0,.2-.31.24-.48s.24,0,.13-.14l-.1.17a.62.62,0,0,0-.24.47c-.25.08-.23.29-.23.49a9.53,9.53,0,0,0-1.35,2.82c-.08.17-.08.39-.17.56a.33.33,0,0,1-.39.18.31.31,0,0,1-.23-.45c.38-1,.76-2,1.17-3a27.93,27.93,0,0,0,1.42-2.57l.1,0,0-.05-.1.13A6,6,0,0,0,40.48,57a8.12,8.12,0,0,1-.48.67.29.29,0,0,1-.31,0,.33.33,0,0,1-.12-.3,2.81,2.81,0,0,1,.33-.75A10.9,10.9,0,0,1,41,55.28c1.36-1.4,2.28-3.14,3.52-4.62a.86.86,0,0,0,.28-.63c-.1-.88,0-1.75,0-2.63a17.79,17.79,0,0,1,0-3.65,2.58,2.58,0,0,0-1-2.66,2.26,2.26,0,0,1-.79-1.81A3.83,3.83,0,0,0,42.5,38a26.13,26.13,0,0,1-1.22-3.34c-.31-1-1-2-.8-3.18-1-1.35-.47-3.1-1.12-4.56-.28-.63.16-1.33.17-2,0-.39.35-.91-.31-1.09s-.71.36-.93.71a20.19,20.19,0,0,1-1.17,2.39c-.55-.65.08-1.17,0-1.7.25-.08.18-.31.23-.48l.06,0,0,.06c-.22.09-.23.29-.22.48-.64.31-.68,1-1,1.52-.13.18-.24.48-.54.27s-.15-.35-.06-.54a1.43,1.43,0,0,1,.12-.21,5.91,5.91,0,0,0,.56-1.05c.12-.35-.5-.56-.29-1a.36.36,0,0,0,.26-.26l.07,0,0,.07-.26.25c-.26.38-.51.77-.79,1.14-.1.15-.24.34-.46.17a.35.35,0,0,1-.1-.51c.17-.26.31-.54.5-.79a3.21,3.21,0,0,0,.59-1A.3.3,0,0,0,36,23l.25-.24.07-.08,0,.11A.28.28,0,0,0,36,23a.25.25,0,0,0-.25.24c-.24,0-.54.08-.66-.16s.12-.44.29-.59c.54-.48,1.08-.94,1.62-1.41-.12-.33-.3,0-.43-.07s-.3-.15-.29-.33a.36.36,0,0,1,.2-.26c.5-.13,1-.25,1.5-.34a1.81,1.81,0,0,0,.76-.26,1.93,1.93,0,0,0,1.06-1.94,1.93,1.93,0,0,1,.14-.81c.07-.17.15-.41-.11-.51a.58.58,0,0,0-.56.11c-.34.31-.4.77-.62,1.14s-.22,1-.82.31c-.15-.17-.26.09-.33.18-.23.27-.41.58-.64.86s-.5,1.13-.93.86.18-.77.38-1.16a3.22,3.22,0,0,0,.14-.44c.16,0,.22-.11.26-.23l.23-.26.08,0s0,0,0-.06L37,18c-.15,0-.26.08-.24.25-.17,0-.26.05-.26.23-.82.39-1.23,1.21-1.86,1.8a3.77,3.77,0,0,0-.26.39c-.13.18-.29.28-.5.11a.34.34,0,0,1,0-.44c.41-.54.82-1.08,1.27-1.59s.92-1,1.38-1.47a.3.3,0,0,0,.23-.27l.1,0s0,0,0-.06l-.1.13c-.14,0-.29.05-.23.26-.45-.11-.72.24-1,.43s-.41.16-.55,0,0-.35.19-.47a14.33,14.33,0,0,1,3-1.72c.28-.13.65-.11.82-.48a1.11,1.11,0,0,0-1.36-.27c-.55.2-1.15.28-1.72.43-.15,0-.29.11-.46,0a.48.48,0,0,1-.32-.33.25.25,0,0,1,.29-.29,4.9,4.9,0,0,0,1.76-.43,9.45,9.45,0,0,1-2.48-.28,2.64,2.64,0,0,1-.56-.19.42.42,0,0,1-.19-.61c.14-.26.35-.11.5,0,.61.44,1.31.22,2,.34-.24-.48-.69-.49-1-.69a2.11,2.11,0,0,1-.75-.57.4.4,0,0,1,0-.32c0-.13.19-.14.3-.09.5.24,1,.52,1.49.74a4.54,4.54,0,0,0,2.54.6,1.46,1.46,0,0,0-1.05-1.26,12.27,12.27,0,0,1-1.95-1.12,1.27,1.27,0,0,1-.43-.4.34.34,0,0,1,.06-.44c.1-.09.21-.05.32,0,.27.13.45.49.84.36a.34.34,0,0,0,0,.1s0,0,0,0l-.08-.11-.84-1a.23.23,0,0,1,0-.31.28.28,0,0,1,.41-.09c.32.28.6.6.9.9a.32.32,0,0,0,.25.23.56.56,0,0,0,.05.08s0,0,0,0l-.12-.1c0-.14-.08-.25-.26-.21.06-.49-.32-.79-.49-1.18-.07-.16-.29-.35,0-.5a.39.39,0,0,1,.59.19c.18.32.39.6.56.92a7.25,7.25,0,0,0,3,3.1c.29-.08.25-.38.33-.58.64-1.51.61-1.65-.77-2.51a5.93,5.93,0,0,1-1.86-1.44,1.46,1.46,0,0,0-.73-.38,1.73,1.73,0,0,1-.84-.43,2.8,2.8,0,0,0-2.77-.62c-.66.1-1.31,0-2,0-2.66.24-5.24.84-7.85,1.34-1.63.32-3.27.63-4.92.82a23.37,23.37,0,0,0-2.9.63,9.32,9.32,0,0,1-2.33.35,1.52,1.52,0,0,0-.48,0c-.75.28-2-.17-1.73,1.37-.44,0-.48-.24-.49-.44,0-.36-.18-.52-.54-.41a27,27,0,0,0-3.15,1c-.36.15-.63.34-.53.8.32,1.6.26,3.23.61,4.84S8.54,20.3,9,22c.1.4.39,1.05-.05,1.17s-.48-.59-.58-1c-.63-2.34-1.07-4.71-1.48-7.1a17.46,17.46,0,0,1-.5-2.8c0-.34-.21-.49-.57-.34a1.23,1.23,0,0,0-.87.83,30.26,30.26,0,0,0-.89,4.29,16.24,16.24,0,0,0-.15,4.06.29.29,0,0,1-.23.36c-.28.06-.36-.14-.35-.35a27.24,27.24,0,0,1,.12-4.42c.24-1.31.46-2.63.81-4a6.37,6.37,0,0,0-1.54.81c-.24.14-.27.34-.35.57a13.91,13.91,0,0,0-.71,3.24c0,.16-.06.33-.27.32s-.24-.2-.24-.35a7.55,7.55,0,0,1,.05-1.43c.1-.47.35-.88-.18-1.29-.23-.17,0-.46.15-.62.45-.45.94-.87,1.45-1.33A37.32,37.32,0,0,1,.44,9.32C.26,9-.25,8.46.15,8.22c.56-.34.59.43.8.75.58.86,1.11,1.74,1.67,2.61.28.42.55.59,1,.2A21.17,21.17,0,0,1,8.33,9.15a.45.45,0,0,0,.33-.52c0-.51.2-.63.66-.29A1.11,1.11,0,0,0,11,7.66c0-.15,0-.32,0-.48A.23.23,0,0,1,11.26,7c.12,0,.24,0,.28.17s.16.44.23.63c.34.23.56-.11.82-.11.46,0,.51-.21.43-.6a.42.42,0,0,1,.32-.55c.24,0,.31.22.31.43,0,.46.25.53.63.39a4.92,4.92,0,0,1,1.6-.42c.64,0,.17-.71.62-.91.1,0,.19.1.32.2.46.37.56.32.62-.24,0-.15,0-.32,0-.47s.11-.23.25-.19a.32.32,0,0,1,.2.1c.18.29,0,.91.65.77s1.06-.35,1.15-1c0,0,0-.06.08-.08s.16,0,.22,0c.26.13.06.75.57.6s.93,0,1-.68c0-.2,0-.44.31-.4s.22.2.22.36.07.49.42.34.7.12.73-.4c0-.24,0-.48,0-.72s.06-.34.27-.31.23.19.24.35,0,.24,0,.36,0,.41.29.42a.38.38,0,0,0,.4-.35,1.3,1.3,0,0,1,.2-.43.29.29,0,0,1,.5,0c.62.71.62.71,1-.2.07-.17.17-.28.34-.27a.27.27,0,0,1,.23.35c-.08.44.2.47.49.42a2.72,2.72,0,0,0,.9-.29c.28-.16.15-.51.19-.78s.05-.31.26-.34a.31.31,0,0,1,.37.22c.06.87.59.75,1.18.61a1.94,1.94,0,0,1,.58.06,1.31,1.31,0,0,0,.06-.23c0-.34-.24-.82.22-.94s.43.39.49.71a.29.29,0,0,0,.34.24.3.3,0,0,0,.32-.28c0-.32,0-.64,0-1s.11-.53.35-.55.36.24.39.49-.09.73.14,1c.31.09.55-.18.82-.16.57,0,1-.08,1.12-.73.08-.32.41-.42.55,0,.07.25.11.46.44.41s.24-.27.27-.45a.37.37,0,0,1,.29-.33.13.13,0,0,1,.19.09c.2,1,.28,1,1.17,1,.36,0,.46-.19.57-.48.33-.85.69-1.68,1.05-2.52.08-.19.19-.41.42-.32s.22.35.16.52c-.29.74-.65,1.45-.89,2.2-.09.31-.51.71-.16,1,.61.47,1.12,1.18,2,1.18.37,0,.09-.64.63-.67.22.15.12.45.12.69a1,1,0,0,0,.3.75c.43.4.65.38,1-.14.1-.16.11-.4.4-.42.37.23.2.63.23,1,.06.87.37,1,1.1.58A3.18,3.18,0,0,1,46.61,6a3.49,3.49,0,0,1,1.73.74c.66.41,1,.23,1-.56,0-.32-.1-.65.12-.93a.31.31,0,0,1,.09-.07c.21-.06.26.11.34.24s.16.7.62.57a1,1,0,0,0,.74-.84c0-.29-.15-.64.15-.88.49,0,.27.54.54.7a3.87,3.87,0,0,0,1.56-.77.94.94,0,0,0,.38-1.37c-.24-.54-.48-1.09-.71-1.64A1.46,1.46,0,0,1,53,.35C53,.2,53,0,53.22,0a.39.39,0,0,1,.27.18c.37.83.72,1.68,1.07,2.52a1.22,1.22,0,0,0,1.54.58.38.38,0,0,0,.19-.4c0-.23-.06-.48.2-.62a.38.38,0,0,1,.36.41c0,.21.08.39.34.39s.33-.15.36-.37.42-.44.45-.22c.14,1.07,1.06.73,1.63,1a1.45,1.45,0,0,0,.35.07c.33-.25.17-.6.2-.89s0-.68.36-.67.4.41.39.74,0,.48,0,.72.17.33.4.33.26-.15.28-.31,0-.74.45-.66.31.48.29.79l0,.34c.28.15.54-.07.82,0,.51.17,1,.14,1-.59a.32.32,0,0,1,.34-.28c.26,0,.28.22.32.42a1.07,1.07,0,0,0,1.14,1c.26,0,.49,0,.44-.38s0-.41.29-.4a.35.35,0,0,1,.28.34c0,.32,0,.65.46.68s.41-.22.51-.5.39-.23.54,0,.13.37.23.54A.43.43,0,0,0,69,5c.17,0,.27-.1.32-.27s-.14-.82.24-.82c.54,0,.31.56.3.86,0,.6.42.43.73.54.47.16.4-.19.45-.44a1.46,1.46,0,0,1,.2-.34c.5.22.2,1,.91,1.12s.74-.34,1-.7c.38.4.34,1,1,1.14.5.08.87.25.92-.45,0-.17.08-.32.27-.32s.28.22.28.42a2.17,2.17,0,0,0,0,.36c0,.41.24.48.54.22.14-.13.22-.34.54-.27,0,.68.33,1,1.07,1a1.8,1.8,0,0,1,.89.29c.53.26.74.11.76-.45,0-.18.11-.34.29-.33s.29.23.34.43-.21.51.07.65a3.22,3.22,0,0,0,.9.27c.25.05.33-.16.38-.37s.08-.52.39-.5.3.34.28.55c0,.57.26.77.77.87.35.06.66.42,1-.13.19-.3.58-.11.56.24a.57.57,0,0,0,.43.69,20.23,20.23,0,0,1,4.55,2.58c.51.38.78.24,1-.2l1.71-2.72a6.21,6.21,0,0,1,.35-.62.35.35,0,0,1,.44-.07c.17.09.16.24.08.4a23.48,23.48,0,0,1-1.91,3.16l-.66.92c.46.42,1,.82,1.38,1.27.24.25.51.56.07.9s-.2.58-.09.88a4.87,4.87,0,0,1,.12,1.66c0,.15,0,.33-.24.35s-.26-.15-.27-.31a19,19,0,0,0-.55-2.8,2,2,0,0,0-1.22-1.46c-.25-.1-.47-.25-.81-.43.28,1.43.56,2.74.78,4.05a31.13,31.13,0,0,1,.13,4.42c0,.2-.07.41-.35.36a.31.31,0,0,1-.23-.37A16.63,16.63,0,0,0,89,17.12a21.8,21.8,0,0,0-.91-4.3c-.09-.25-.09-.48-.41-.65-.78-.39-.9-.32-1,.52-.58,3.31-1.15,6.63-2,9.88,0,.11-.11.22-.13.33s-.14.41-.38.33-.21-.29-.18-.5a7.78,7.78,0,0,1,.17-.81,73,73,0,0,0,1.51-7.46,16.44,16.44,0,0,1,.22-2.62.49.49,0,0,0-.33-.57A21.71,21.71,0,0,0,82,10.12c-.23-.07-.36.09-.39.32s0,.41-.24.52c0,0-.18,0-.18-.05a1.11,1.11,0,0,0-1.24-1.19,5.62,5.62,0,0,0-.7-.1A11.12,11.12,0,0,1,75.61,9c-1.66-.39-3.35-.61-5-.88S67,7.4,65.23,7.09a36.55,36.55,0,0,0-5.17-.73,22.94,22.94,0,0,0-2.87,0,.72.72,0,0,0-.51.2A6,6,0,0,1,54.87,7.7c-.63.3-1,1-1.64,1.32a7.83,7.83,0,0,0-1.45,1c-.32.22-.48.46-.22.89a11.72,11.72,0,0,1,.63,1.49A7.12,7.12,0,0,0,55,9.8c.26-.49.58-1,.87-1.43.18-.31.41-.33.69-.12,0,.6-.7,1-.63,1.61-.18,0-.23.07-.26.21l-.09,0,0,.05.09-.13a.3.3,0,0,0,.26-.21c.3-.31.58-.63.9-.91A.28.28,0,0,1,57.2,9a.23.23,0,0,1,0,.31l-.84,1-.08.07s0,0,0,.05l.06-.14c.39.13.57-.22.84-.35.11-.06.22-.1.32,0a.34.34,0,0,1,.06.44,1.37,1.37,0,0,1-.43.4,12.27,12.27,0,0,1-1.95,1.12,1.48,1.48,0,0,0-1,1.19c.57.33,1.12,0,1.64-.18A22.21,22.21,0,0,0,57.83,12c.2-.09.43-.38.62-.09s-.12.51-.34.65-.64.31-1,.49c-.16.09-.37.14-.44.39a3.22,3.22,0,0,0,2.09-.35c.14-.1.3-.13.4.06a.43.43,0,0,1,0,.45,1.09,1.09,0,0,1-.73.36,9.53,9.53,0,0,1-2.33.29,4,4,0,0,0,1.37.39c.23,0,.56,0,.51.31s-.32.41-.65.33a14.57,14.57,0,0,1-1.73-.43,1.29,1.29,0,0,0-1.44.16c0,.38.34.37.57.46A13.6,13.6,0,0,1,58,17.25c.15.12.36.26.19.47s-.36.11-.55,0-.6-.53-1.06-.42c.07-.21-.08-.23-.22-.27a.36.36,0,0,0,0-.09s0,0-.06,0l.13.1a.3.3,0,0,0,.22.27,31,31,0,0,1,2.3,2.57,4,4,0,0,1,.35.49c.08.18.1.41-.13.5a.32.32,0,0,1-.41-.17,18.27,18.27,0,0,0-1.62-1.9.58.58,0,0,0-.49-.29c0-.18-.09-.25-.26-.24,0-.17-.09-.22-.24-.24a.32.32,0,0,0,0-.09s0,0-.05,0l.11.1a.31.31,0,0,0,.24.24c0,.14.09.25.25.25,0,.46.4.67.54,1s.3.44,0,.61-.38-.05-.5-.21l-1-1.37c-.19-.28-.34-.61-.71-.11-.12.18-.36-.07-.44-.24-.18-.35-.31-.73-.49-1.08s-.26-.5-.6-.51-.47,0-.38.3c.2.62.12,1.26.26,1.88A2.25,2.25,0,0,0,55,20.09a13,13,0,0,1,1.5.33c.19,0,.39.19.28.42a.33.33,0,0,1-.5.15s-.14,0-.27,0c.59.52,1.15,1,1.7,1.5.17.16.42.34.29.59s-.44.14-.67.17a.24.24,0,0,0-.25-.25c0-.15-.11-.21-.23-.25l-.07-.07.1,0a.33.33,0,0,0,.23.25.29.29,0,0,0,.25.25,12.06,12.06,0,0,0,1,1.68c.12.23.2.45,0,.61s-.41-.09-.53-.26c-.25-.34-.49-.7-.73-1L56.82,24l0-.07.07,0a.36.36,0,0,0,.25.26c.22.43-.41.63-.29,1a8.83,8.83,0,0,0,.56,1.05,1.46,1.46,0,0,1,.18.43.31.31,0,0,1-.21.38.27.27,0,0,1-.3-.13,6.12,6.12,0,0,0-.47-.83c-.24-.29-.23-.79-.71-.89a.53.53,0,0,0-.22-.49l-.06-.07,0,0,.11.09c.07.16,0,.41.23.49,0,.54.53,1,.13,1.61-.49,0-.47-.49-.6-.78-.29-.65-.56-1.31-.91-1.94a.61.61,0,0,0-.7-.3c-.39,0-.39.36-.38.63a3.33,3.33,0,0,0,.13.94,3.4,3.4,0,0,1-.14,2.45A2.79,2.79,0,0,0,53.26,29a3.92,3.92,0,0,1-.54,2.17c-.06.1-.16.2-.16.31,0,2-1.25,3.63-1.59,5.54a2.91,2.91,0,0,1-.48,1.08,2.36,2.36,0,0,0-.37,1.1c-.1.86-.22,1.76-1.21,2.14a.28.28,0,0,0-.2.26c-.11.88-.65,1.66-.33,2.66a7.15,7.15,0,0,1-.06,3.05c-.11.92,0,1.83-.08,2.74,0,.33.19.5.37.72a25.36,25.36,0,0,1,1.82,2.65,15.59,15.59,0,0,0,1.86,2.14,9,9,0,0,1,1.13,1.68.38.38,0,0,1-.07.54c-.21.14-.37,0-.48-.2-.33-.5-.65-1-1-1.5a2,2,0,0,0-.8-.85.73.73,0,0,0,0-.09s0,0-.06,0l.13.1a2.32,2.32,0,0,0,.59,1.14,18.26,18.26,0,0,1,1.9,4.17c.09.26.28.56-.13.66s-.4-.22-.5-.5c-.29-.81-.61-1.62-1-2.41-.1-.24-.14-.54-.45-.64,0-.2,0-.41-.23-.49a.62.62,0,0,0-.24-.47c-.06,0,0-.25-.15-.09l.18.05c0,.18-.1.45.24.49C51.3,57.3,51.28,57.51,51.57,57.58Zm4.07-34.09,0,.06-.07,0,0-.09s0,0-.06,0Zm-18.24,0,.09,0a.08.08,0,0,0,0-.05l-.1.11,0,.05Zm17.28-1.43a.73.73,0,0,0,0,.09s0,0,.06,0l-.13-.11-.23-.25-.73-.43c.24.54.54.36.76.4A.26.26,0,0,0,54.68,22.05ZM38.35,22c.13,0,.23-.09.23-.24.23-.05.52.13.75-.41l-.72.44-.23.24-.1.05s0,0,0,.06Zm.49-1.19c.25-.15.56-.24.65-.71-.44.12-.66.3-.63.73l0,0Zm15.35,0,0,0-.06,0c0-.43-.18-.61-.61-.73C53.61,20.64,54,20.68,54.19,20.86Zm-1-8.15c-.25.24-.72.32-.67,1,.35-.34.72-.5.65-1l.06,0Zm-13.41,0,0,0,.07,0c.19.54.19.54.73.79A1.83,1.83,0,0,0,39.82,12.7ZM53,22.4h0c0-.12,0-.24,0-.36a56.21,56.21,0,0,0-1.27-8.47,11.53,11.53,0,0,0-3.42-5.92c-1.31-1.17-2.13-1.17-3.44,0l-.26.24a11.66,11.66,0,0,0-3.22,5.77,52.56,52.56,0,0,0-1.25,8.48c-.13,1.52,0,1.59,1.48,1.12a15.46,15.46,0,0,1,7.87-.5c.93.19,1.84.45,2.76.72.54.16.71,0,.75-.56C53,22.73,53,22.56,53,22.4Zm-6.09.82a16,16,0,0,0-5.88,1c-.22.09-.52.09-.57.36a5.37,5.37,0,0,0-.28,2.35c.12.59.27.66.9.5,1-.25,2-.51,3-.75a9.19,9.19,0,0,1,4.6-.07c1.15.32,2.32.54,3.46.88.5.15.65,0,.77-.42a4.47,4.47,0,0,0-.08-1.89c-.05-.64-.36-.86-.92-1.05A16.27,16.27,0,0,0,46.86,23.22Zm-6.32,6a3.87,3.87,0,0,0,.05.53c.18.93.37,1,1.3.77l.69-.2a14.08,14.08,0,0,1,4-.74,16.3,16.3,0,0,1,4.53.92c1,.29,1.2.2,1.37-.81,0-.23,0-.48,0-.72a.64.64,0,0,0-.54-.77,21.39,21.39,0,0,0-5.59-1.1A23.84,23.84,0,0,0,41,28.25C40.46,28.4,40.55,28.8,40.54,29.25Zm6,1.23c-1.7-.2-3.24.5-4.84.92a.54.54,0,0,0-.48.65c0,1.14.34,1.39,1.4,1A2.67,2.67,0,0,1,43,33a11,11,0,0,1,4.92-.44,18.68,18.68,0,0,1,2.86.71c.47.18.75,0,.88-.46a3.31,3.31,0,0,0,.11-.94.37.37,0,0,0-.33-.41C49.84,31,48.31,30.3,46.58,30.48Zm4.47,3.71a10.76,10.76,0,0,0-9,0,2.09,2.09,0,0,0,0,.42c.39,1,.39,1,1.49.69a9.35,9.35,0,0,1,6,0c1.08.35,1.07.35,1.49-.7A1.85,1.85,0,0,0,51.05,34.19Zm-4.7,1.38a10.74,10.74,0,0,0-2.78.54c-.94.35-1,.63-.43,1.45.32.45.65.31,1,.16a5.7,5.7,0,0,1,3.71-.3c.42.12.82.31,1.24.42s.7-.08,1-.88c.22-.54-.08-.58-.44-.74A9.51,9.51,0,0,0,46.35,35.57Zm-2.13,4.92c2-1.29,2.4-1.29,4.61,0a1.54,1.54,0,0,0,.52-1c.1-.42,0-.69-.5-.88a5.85,5.85,0,0,0-4-.24C43.36,38.77,43.29,39,44.22,40.49Zm2.33,2.44c1,0,1.39-.41,1.38-1.58,0-.7-.48-1-1.44-1s-1.4.35-1.39,1.07C45.13,42.58,45.47,42.94,46.55,42.93Zm-8.31-36a4.45,4.45,0,0,1,.57-1.26c.52-.88.44-1.12-.51-1.52-.18-.07-.38-.1-.57-.17a.57.57,0,0,0-.83.4C36.5,5.52,36.43,6.48,38.24,6.91Zm15.52-2a13,13,0,0,1,1.1,2.07c1.77-.73,1.54-1,1.43-2.1-.08-.88-.44-1-1.29-.78A2.58,2.58,0,0,0,53.76,4.87Zm-13.65.45a1.8,1.8,0,0,0-.22.06,2.8,2.8,0,0,0-1,1.7,1.79,1.79,0,0,0,1,1.24c.22.12.48.14.54-.2a2.88,2.88,0,0,1,.79-1.41c.16-.18.32-.37.14-.63A2.57,2.57,0,0,0,40.11,5.32ZM52.64,8.41a1.45,1.45,0,0,0,1.11-.64,1.6,1.6,0,0,0-.36-2.18c-.37-.37-.93-.26-1.55.26-.35.3-.37.57-.06.89A3,3,0,0,1,52.64,8.41Zm-9-1c-.39-.27-.67-.49-1-.66a.46.46,0,0,0-.56,0A3,3,0,0,0,41,8.53c-.11.68.49.91,1,1.38A22.51,22.51,0,0,1,43.66,7.4ZM51,9.88C52,9,52,9,52,8.71A2.53,2.53,0,0,0,51,6.78c-.59-.43-1,.27-1.42.54-.05,0-.06.14-.09.22A15.11,15.11,0,0,1,51,9.88ZM46.5,45.81c1.13,0,1.31-.2,1.18-1.34-.08-.7-.13-.74-.91-.74l-.83,0a.49.49,0,0,0-.48.28A1.14,1.14,0,0,0,46.5,45.81Zm1.18,5.33c0,.21-.49.15-.32.49A6.61,6.61,0,0,0,48.89,54a.52.52,0,0,0,.65.09c.21-.14.14-.38.07-.55A6.86,6.86,0,0,0,48,51.26S47.83,51.2,47.68,51.14Zm-3.76,3.08a1.67,1.67,0,0,0,.39-.34,7.69,7.69,0,0,0,1.35-2.23c.11-.19,0-.28-.15-.37s-.28-.18-.43,0a6.2,6.2,0,0,0-1.67,2.42C43.33,53.91,43.34,54.15,43.92,54.22Zm3.56-5.55a2.24,2.24,0,0,1-1.89.07c-.12.67-.22,1.33.23,1.75a1.22,1.22,0,0,0,1.36,0C47.69,50.12,47.52,49.45,47.48,48.67Zm-.93-2.07-.62,0c-.5,0-.61.21-.53.65.14.7.58.93,1.53.77a.88.88,0,0,0,.73-1c0-.6-.48-.37-.79-.41A1.1,1.1,0,0,0,46.55,46.6ZM68.67,7.09c.31-1.46.21-1.56-1.44-1.52-.06,1.24-.06,1.24,1.1,1.52A1.93,1.93,0,0,0,68.67,7.09Zm-44.32,0c1.57-.28,1.57-.28,1.39-1.61C24.11,5.62,24.09,5.64,24.35,7.1ZM56.79,3.91a7.24,7.24,0,0,0,.27,1.47.49.49,0,0,0,.53.34.54.54,0,0,0,.55-.37C58.59,4.35,58.14,3.83,56.79,3.91ZM36.2,3.84c-.24,0-.4,0-.56,0-.39,0-.73.07-.82.5A1.37,1.37,0,0,0,35,5.58.58.58,0,0,0,36,5.34,3.37,3.37,0,0,0,36.2,3.84ZM64.93,5.13a1.87,1.87,0,0,1,0,.67c-.23.53,0,.64.46.65a1.17,1.17,0,0,1,.46.08c.36.18.64.14.76-.26a.71.71,0,0,0-.28-.94A1.57,1.57,0,0,0,64.93,5.13Zm-36.79,0a1.57,1.57,0,0,0-1.34.14c-.48.2-.48.6-.35,1s.43.41.76.23.73.07,1-.31A1.76,1.76,0,0,1,28.14,5.15ZM34.24,5c0-.9,0-.95-.57-.93s-.83.22-.84.75.21.85.83.89S34.29,5.41,34.24,5Zm24.6-.86c0,.3,0,.62-.06.93s0,.64.47.64.8,0,.93-.53C60.38,4.36,60.06,4.09,58.84,4.16Zm5.41,1.33a.93.93,0,0,0-1-.9c-.59.09-.49.69-.54,1-.08.51.46.54.85.56S64.26,6,64.25,5.49Zm-33.78.19c-.32-.32-.1-.91-.58-1.08s-1.06.34-1.11.82.18.77.66.78A1,1,0,0,0,30.47,5.68Zm42.21,1.2c.08-.53-.24-.66-.71-.63s-.72.37-.71,1,.41.38.69.39C72.62,7.67,72.68,7.6,72.68,6.88Zm-51.55.73c.15-.05.63.23.64-.38s-.23-1-.72-1-.75.14-.69.68S20.36,7.77,21.13,7.61ZM69.65,5.77c-.08.4-.15.66-.19.93-.09.52.08.7.59.7s.61-.3.67-.67S70.81,6,70.26,6A2.52,2.52,0,0,1,69.65,5.77Zm-46.25,0c-.33.1-.56.15-.78.23-.55.2-.32.63-.23,1s.48.47.85.39.46-.36.33-.72S23.47,6.13,23.4,5.78ZM61,4.36l-.27,1.47c1,.15,1.23,0,1.32-.65S62.05,4.56,61,4.36ZM32.31,5.85a5.78,5.78,0,0,1-.23-1.22c0-.26-.2-.31-.42-.27A.76.76,0,0,0,31,5.47C31.25,6.06,31.7,6,32.31,5.85ZM17.64,7.2c-1.39.21-1.39.21-1.21,1.35l1.38-.3Zm57.58,1,1.37.33c.21-1.12.21-1.12-1.19-1.39C75.35,7.51,75.29,7.84,75.22,8.23Zm-.77-.16c.24-1.29.24-1.29-1-1.33l-.24,1A4.18,4.18,0,0,0,74.45,8.07Zm-55.87,0a4.51,4.51,0,0,0,1.35-.32c-.4-.31-.19-.77-.44-1.09C18.36,6.83,18.36,6.83,18.58,8.07Zm-2.92.66c0-.18-.09-.33-.11-.48s0-.62-.41-.54-.66.13-.72.48a.55.55,0,0,0,.52.64C15.19,8.84,15.47,8.94,15.66,8.73Zm61.71,0c.57.1,1.19.2,1.23-.51,0-.48-.52-.55-1-.57Zm-64.11.3c.24,0,.62.05.59-.46,0-.27-.11-.44-.41-.44s-.71.11-.72.57S13,9.07,13.26,9.08Zm66.49,0c.22,0,.57.1.57-.34s-.25-.55-.61-.57-.52.1-.53.47S79.43,9.06,79.75,9.08ZM40.31,14.69c-1-1-1-1-1.68-.63A4.34,4.34,0,0,0,40.31,14.69ZM54.45,14c-.87-.24-.87-.24-1.52.65A2.89,2.89,0,0,0,54.45,14ZM12.09,9c-.05-.4-.31-.35-.54-.34s-.56.17-.48.51.37.18.59.17S12.15,9.29,12.09,9Zm69.34.35c.23,0,.52.1.54-.23s-.24-.45-.54-.46S81,8.66,81,9,81.21,9.3,81.43,9.34ZM9.11,9.89a9.24,9.24,0,0,0,1-.19c.13,0,.32-.12.27-.32a.27.27,0,0,0-.37-.21C9.74,9.35,9.25,9.3,9.11,9.89ZM84,10c-.23-.62-.65-.6-.94-.78a.29.29,0,0,0-.4.16c-.12.2.07.31.2.35C83.16,9.78,83.5,9.84,84,10Zm-45.52,13c.32.23.59.45.81,0a.46.46,0,0,0-.07-.53A1.8,1.8,0,0,0,38.46,22.94Zm15.36-.51c-.11.26-.18.58.07.73a.41.41,0,0,0,.61-.27A1.53,1.53,0,0,0,53.82,22.43ZM8.5,10a1.08,1.08,0,0,0-1.08.5A1.3,1.3,0,0,0,8.5,10Zm77.06.45c-.16-.35-.54-.37-.81-.55,0,0-.16,0-.19.09a.17.17,0,0,0,.11.26C85,10.27,85.19,10.61,85.56,10.44ZM39.45,15.72a.68.68,0,0,0,.2.07c.19,0,.39,0,.46-.21,0,0-.07-.16-.08-.15a4.4,4.4,0,0,0-.5.21S39.47,15.69,39.45,15.72Zm14.17,0c-.07-.06-.09-.1-.13-.11a2.5,2.5,0,0,0-.52-.19c-.07,0-.1.09-.06.17a.42.42,0,0,0,.49.19A1.53,1.53,0,0,0,53.62,15.73ZM6.37,10.83l-.08.07a1.07,1.07,0,0,0,.19.07s0,0,.08-.07Zm80.39.08s-.06-.07-.08-.07l-.2.05s.06.07.08.07A.73.73,0,0,0,86.76,10.91Zm-80.95.23.06,0,0-.06Zm81.37,0,0,.06h.07ZM42.28,56l0,0V56Zm8.45,0,0,.06h.05Zm-.55.75.07,0v-.08Z"/></g></g></svg>