<svg xmlns="http://www.w3.org/2000/svg" viewBox="0 0 128.62 77.21"><title>Centropages</title><g id="Layer_2" data-name="Layer 2"><g id="Centropages"><path d="M77.28,16.62c0,.43-.21.57-.62.29-.91-.63-1.86-1.22-2.76-1.87-.49-.34-.83-.49-1,.27a.79.79,0,0,1-.39.44c-.94.55-.89,1.36-.64,2.24a15.31,15.31,0,0,1,.15,3.1c0,.28-.17.66.31.77s.64-.18.81-.51.36-.71.57-1.05c.09-.15.22-.36.46-.21a.31.31,0,0,1,.08.5.9.9,0,0,0-.09.34l0,.05,0-.07c.56-.25.73-.8,1-1.28a6.21,6.21,0,0,1,.35-.62.38.38,0,0,1,.4-.21c.19.05.2.22.21.38a4,4,0,0,1-1.15,3,7.21,7.21,0,0,1-3,2.08c-.45.17-.49.34-.43.77a12.5,12.5,0,0,1,.24,4.17c-.38,1.89,0,3.79-.31,5.68-.1.59.15,1.25.1,1.88a25.25,25.25,0,0,1-.87,4.65,9,9,0,0,0-.6,1.79,1,1,0,0,1-.31.63,2.61,2.61,0,0,0-.89,2.34c.06.43-.33.57-.74.3s-.77-.56-1.19-.88a3.61,3.61,0,0,0-.7,2.12c-.07,1.74-.25,3.48-.41,5.22a1.43,1.43,0,0,0,.17.79,4.61,4.61,0,0,1,.53,2.3,1.14,1.14,0,0,0,.22.78,1.51,1.51,0,0,1,.11.22,26.73,26.73,0,0,1,1.59,4A11.84,11.84,0,0,1,71,64.42a5.07,5.07,0,0,1,.5,1c.08.26.48.61.06.83s-.47-.25-.61-.51a12,12,0,0,0-1.49-2.38,47.83,47.83,0,0,1,1.5,6.2c.05.27.07.51-.22.57s-.39-.2-.44-.45c-.31-1.48-.52-3-1-4.41a8.57,8.57,0,0,0-.93-2.33,26.47,26.47,0,0,0,.52,3.22,40.46,40.46,0,0,1,.2,5.5,3.88,3.88,0,0,1-.07.83.38.38,0,0,1-.45.3c-.2,0-.22-.2-.22-.36a3.92,3.92,0,0,1,0-.84,12.88,12.88,0,0,0,0-3.92,22.08,22.08,0,0,0-.75-4c0,1.63,0,3.27,0,4.9a53.15,53.15,0,0,1-.71,8,2.77,2.77,0,0,1-.13.57.35.35,0,0,1-.28.15c-.17,0-.35-.17-.3-.31a7.49,7.49,0,0,0,.2-1.41,78.26,78.26,0,0,0,.69-9.17,8.88,8.88,0,0,0-.3-3.2c-1,2.31-.8,4.86-1.57,7.22a1.91,1.91,0,0,1-.22-1.65,41.64,41.64,0,0,1,1.12-5.83,4.4,4.4,0,0,0-.38-2.78,9.62,9.62,0,0,0-1.16-3c-.2-.27,0-.65-.33-.93a23.37,23.37,0,0,0-1.9,5.39,3,3,0,0,0,.09,1.64,38.51,38.51,0,0,1,1.09,5.84,2.71,2.71,0,0,1-.11,1.41,2.66,2.66,0,0,1-.64-1.78A24.08,24.08,0,0,0,61.76,63a18.46,18.46,0,0,0-.17,5.92,11.61,11.61,0,0,1,.1,1.44,44,44,0,0,0,.58,6.17c0,.3.17.61-.21.65s-.37-.3-.41-.59c-.15-1.1-.37-2.19-.46-3.3a81.11,81.11,0,0,1-.27-9.09,1.75,1.75,0,0,0-.06-.6A27,27,0,0,0,60,70.43a13.47,13.47,0,0,1,.21,1.9c0,.2,0,.43-.3.42a.44.44,0,0,1-.41-.38,5.53,5.53,0,0,1,0-.71c0-1,0-2.08,0-3.12a22.35,22.35,0,0,1,.67-5,.92.92,0,0,0,0-.49A9.67,9.67,0,0,0,59.07,66c-.29,1.11-.48,2.25-.72,3.37a2.31,2.31,0,0,1-.08.47c-.07.19-.21.35-.45.25a.32.32,0,0,1-.19-.39c.18-.89.37-1.78.55-2.67a33.49,33.49,0,0,1,1-3.66,11.08,11.08,0,0,0-1.47,2.32,4.35,4.35,0,0,1-.29.52.23.23,0,0,1-.32,0c-.08-.07-.2-.21-.18-.28a5.39,5.39,0,0,1,.43-1A12.23,12.23,0,0,1,60,61.22c.19-.15.15-.35.22-.53a38,38,0,0,1,1.64-3.83c0-.11.15-.21.15-.32a9,9,0,0,1,.76-3.22c.16-.37-.19-.93-.15-1.4.11-1.6-.46-3.15-.26-4.76.07-.56-.4-.93-.54-1.5a4.61,4.61,0,0,0-1.32.82c-.44.32-.81.16-.76-.38A2.28,2.28,0,0,0,59,44a.87.87,0,0,1-.3-.5c-.21-1.46-1-2.72-1.16-4.23a27.17,27.17,0,0,1-.31-4.33c0-.84-.11-1.74-.07-2.61a20.43,20.43,0,0,0-.24-2.93,17.24,17.24,0,0,1,.23-4.18c.07-.47.06-.69-.51-.94a6.74,6.74,0,0,1-3.85-3.56,3.7,3.7,0,0,1-.2-1.64c0-.11.05-.25.2-.25a.42.42,0,0,1,.31.11,4.63,4.63,0,0,1,.43.71,2.71,2.71,0,0,0,1,1.3l.05.05-.07,0a3.36,3.36,0,0,0-.14-.45c-.09-.19,0-.3.14-.4a.25.25,0,0,1,.39.11c.25.41.49.82.7,1.25a.62.62,0,0,0,.75.41c.43-.07.32-.4.32-.65a16.57,16.57,0,0,1,.31-4.28c.1-.36-.07-.49-.28-.69-.37-.34-.83-.62-1-1.15s-.41-.4-.73-.18l-2.46,1.66a3.38,3.38,0,0,1-.7.46c-.32.11-.39-.16-.42-.41l.25-.26c.15,0,.19-.13.24-.24l.06,0,0,.07c-.12,0-.22.09-.24.23l-.25.27c-.48,0-.67.38-1,.57-.14.08-.29.17-.41,0a.37.37,0,0,1,0-.45,2.38,2.38,0,0,1,.45-.38,21.24,21.24,0,0,1,4.15-2.62,8.49,8.49,0,0,0-2.67.83A37.09,37.09,0,0,0,48,16.79a5.33,5.33,0,0,1-.51.31c-.14.07-.31.13-.43,0a.3.3,0,0,1,.07-.43c.28-.26.58-.51.88-.77.14,0,.27-.06.23-.26A9.22,9.22,0,0,0,51.34,14a.41.41,0,0,0,.4-.07s0-.08-.07-.09-.28,0-.31.18a5.33,5.33,0,0,0-3.13,1.67.31.31,0,0,0-.23.26c-.23,0-.53.11-.65-.13a.6.6,0,0,1,.29-.81c.85-.51,1.54-1.22,2.34-1.79.15-.11.35-.19.4-.41.14,0,.25-.09.23-.26s.3.13.31-.13l-.28.16a.28.28,0,0,0-.24.26,13.62,13.62,0,0,0-3.24,1.93c-.07,0-.12.11-.18.15-.3.15-.61.7-.86.4-.4-.49.22-.77.53-1,.82-.61,1.69-1.16,2.55-1.73,0-.06.26,0,.07-.17l0,.19c-1,0-1.65.72-2.45,1.12-.29.14-.54.35-.81.5a.24.24,0,0,1-.32-.08.27.27,0,0,1,0-.33,2.6,2.6,0,0,1,.81-.7,22.26,22.26,0,0,1,6.46-2.66,4.57,4.57,0,0,1,.83-.06,10.58,10.58,0,0,1,5.12,1.2c.71.32.87.26,1-.52a7.12,7.12,0,0,1,.57-2.31c.12-.22,0-.36-.2-.49-2.07-1.67-4.15-3.34-6.83-3.95a15,15,0,0,0-6.26-.44,27.88,27.88,0,0,1-3,.23A27.24,27.24,0,0,0,40.22,5C36,6,31.68,6.76,27.45,7.78c-1.85.44-3.68,1-5.55,1.27a40.3,40.3,0,0,1-6.37.86,8.94,8.94,0,0,0-1.17.21q-2.73.29-5.46.51c-.78.07-1.53.11-1.8,1,0,.17-.18.41-.41.34s-.24-.36-.19-.58A4,4,0,0,1,6.65,11c-1.31-.19-1.34-.2-1.63,1a10.79,10.79,0,0,0,0,5c.06.27.16.53.22.8a.3.3,0,0,1-.1.2.26.26,0,0,1-.32,0,1.52,1.52,0,0,1-.52-1,10.87,10.87,0,0,1,.19-5.66c-1.33-.3-1.44-.26-2.43.85-.2-.46-.39-.9-1-.66-.34.11-1,.06-1-.5s.44-.62.82-.69c.93-.17,1.87-.29,2.81-.42.24,0,.47,0,.57-.34.19-.58.2-.58.61-.34a5.5,5.5,0,0,0,.5.34c.41.21.55.09.51-.45,0-.15-.1-.3.09-.4a.39.39,0,0,1,.45,0c.18.15.34.34.53.49a1.25,1.25,0,0,0,1.33-.07c.08-.07.1-.1.06-.2s-.35-.55.08-.67.54.24.63.47c.21.52.6.45,1,.39a9.13,9.13,0,0,0,1-.26c.18-.27-.41-.43-.07-.72s.43,0,.57.18a1.36,1.36,0,0,0,1.45.3,3.14,3.14,0,0,1,1.08-.19c-.07-.15-.11-.26-.17-.36a.32.32,0,0,1,0-.43c.14-.17.28-.08.41,0a2.1,2.1,0,0,0,3-.3.29.29,0,0,1,.42,0c.47.43,1,.18,1.49.1A13.12,13.12,0,0,1,22.06,7c.15-.21.1-.31,0-.4s-.66-.34-.32-.7.58,0,.71.22c.33.6.81.58,1.37.43a5.77,5.77,0,0,1,.86,0A3.66,3.66,0,0,1,24.48,6a.34.34,0,0,1,.11-.3.31.31,0,0,1,.31,0c.91,1.07,1.88.21,2.83.11.18,0,.11-.12.06-.23-.27-.64.23-.44.53-.47,0,.12.1.22.24.24s0,.25.15.1l-.18-.07a.27.27,0,0,0-.24-.24c0-.42.31-.72.56-.44.85,1,1.72.4,2.6.17l.24-.06c.1-.23-.19-.3-.2-.48s.24-.51.41-.28c.54.71,1.18.42,1.81.29s1-.3,1.49-.4,1-.17.38-.8a.23.23,0,0,1,0-.32.23.23,0,0,1,.32,0c1.08,1,2.19.38,3.33.08a5,5,0,0,1-.53-.49.28.28,0,0,1,.06-.42c.09-.07.2-.15.32,0,1.08,1.08,2.26.44,3.41.21l.94-.2c.07-.11,0-.2-.07-.29-.15-.24-.64-.43-.28-.74s.54.18.79.34.26.51.61.5.15-.21.07-.33S44.28,1,44.49.85s.39,0,.5.14a1.14,1.14,0,0,0,1.49.36.86.86,0,0,0,0-.23c-.07-.17-.26-.34,0-.52a.3.3,0,0,1,.43,0c.65.76,1.49.61,2.32.54.06-.13,0-.21-.1-.3s-.32-.32-.15-.5.44-.07.62.11a2.06,2.06,0,0,1,.26.25,1.23,1.23,0,0,0,1.38.45c.07-.12,0-.2-.07-.29C51,.65,50.44.45,50.73.15s.72.08,1,.37.45.83,1.07.83c.3,0,.59.24.81-.17.12-.21.32-.16.52,0s.09.25.33.11c.44-.26.47-.22.67.12.31.51.47,1.19,1.29,1.14a2.09,2.09,0,0,1-.08-1.23,1.36,1.36,0,0,1,.77,1,1.79,1.79,0,0,0,1.47,1.37l.05,0-.08,0c.12-.3-.15-.7.23-.93.61.16.37.87.78,1.14l.06.35s.12-.07.12-.1a.19.19,0,0,0-.2-.23c.07-.23-.15-.64.27-.68s.4.3.5.57c.21.6.17,1.38,1.06,1.61a1.07,1.07,0,0,0,0-.84.31.31,0,0,1,.2-.38c.19-.06.3,0,.37.2a2,2,0,0,1,.28,1,2.1,2.1,0,0,0,0,.71c.14.5.43.6,1,.35a2.75,2.75,0,0,1,2.18,0c.63.27,1,.08,1-.58a3.15,3.15,0,0,1,.28-1.51c.09-.14.19-.25.38-.19a.29.29,0,0,1,.19.38,1.24,1.24,0,0,0,0,.87c.48-.23.87-.46.89-1.07a2.6,2.6,0,0,1,.21-.69c.08-.23.21-.49.47-.45s.22.44.27.68a.19.19,0,0,0-.2.23s.07.06.12.1l0-.35c.4-.28.2-1,.78-1.14.36.24.13.63.23.93,0,0-.1.08,0,0a1.66,1.66,0,0,0,1.43-1.24,2,2,0,0,1,.76-1.14c.53.48-.14.83,0,1.27.7,0,.92-.53,1.22-1,.13-.24.27-1.16.8-.2.06.1.39-.45.64-.24.93.78,1.46.21,2-.51a.69.69,0,0,1,.16-.18c.23-.22.51-.55.8-.27s-.15.5-.29.74l-.18.31a1.19,1.19,0,0,0,1.4-.37,4.17,4.17,0,0,1,.43-.41.35.35,0,0,1,.44,0c.24.17.07.34,0,.5l-.26.36c.87,0,1.71.3,2.35-.5a.35.35,0,0,1,.53-.07c.19.19,0,.36-.08.53a.58.58,0,0,0,0,.22A1.18,1.18,0,0,0,83.65,1c.13-.15.31-.31.51-.1s0,.35-.11.51-.18.19,0,.32c.51,0,.59-.68,1-.83.15-.05.28-.15.43,0s.09.29,0,.42-.31.36-.5.57c.75.18,1.44.32,2.11.51a2.12,2.12,0,0,0,2.1-.28c.17-.14.37-.38.6-.12s0,.49-.25.65a3.76,3.76,0,0,1-.33.22l1.14.32a1.86,1.86,0,0,0,2-.23c.15-.14.41-.36.61-.08s-.1.41-.23.59a1.09,1.09,0,0,0-.13.23,25.36,25.36,0,0,0,3.17.9c.27.11.41-.17.6-.31s.3-.44.58-.22-.13.47-.14.75L98,5.07c.58.18,1.1.34,1.6-.28.3-.36.73-.32.76.32a.28.28,0,0,0-.25.24c0,.05-.24,0-.11.14l.09-.17a.31.31,0,0,0,.24-.24c.3,0,.81-.17.51.48-.13.27.09.21.2.24l1.73.45c.34.09.48-.21.69-.37s.36-.43.6-.23,0,.5-.16.81c.33,0,.62,0,.91.06a1.43,1.43,0,0,0,1.36-.44,1.93,1.93,0,0,1,.28-.22.4.4,0,0,1,.54.08c.09.14,0,.3-.14.41s-.28.25-.66.59c1.57,0,2.77.51,4.07.59a1,1,0,0,0,.65-.21c.13-.08.34-.13.42.06.4.92,1.36.43,2,.78.37.2.61-.29.92-.44.16-.08.3-.3.51-.08s0,.36,0,.53a.86.86,0,0,0-.06.23,7.62,7.62,0,0,1,.93.18,1.37,1.37,0,0,0,1.64-.35c.12-.14.26-.3.49-.09s-.15.4-.06.69c.22.07.49.19.78.26.53.12,1,.14,1.31-.47.09-.19.3-.44.56-.36s.13.36.11.59c0,.41.84.7,1.28.41a8,8,0,0,0,.62-.56.37.37,0,0,1,.45,0c.17.11.08.26.06.41-.05.52.12.64.54.42s.53-.36.81-.51.47,0,.39.21c-.25.67.22.61.6.66a22.55,22.55,0,0,1,2.47.33c.4.1,1.12.13,1,.79s-.73.58-1.17.46c-.59-.17-.78.1-.78,1-.71-1.15-1.46-1.52-2.5-1.18a19.36,19.36,0,0,1,.43,3.49c0,.8-.28,1.56-.33,2.36a1.82,1.82,0,0,1-.33.76.34.34,0,0,1-.39.2c-.25-.09-.24-.32-.16-.5a9.83,9.83,0,0,0,.44-4.24,4.39,4.39,0,0,0-.2-1.29c-.34-1.13-.32-1.13-1.52-1.06-.11,0-.13.08-.09.18.1.29.34.69,0,.86s-.5-.27-.6-.54c-.24-.65-.79-.73-1.35-.78-2.21-.23-4.42-.49-6.63-.69a65.63,65.63,0,0,1-10.55-1.76C99,7.21,95,6.59,91.07,5.59c-1.84-.48-3.73-.72-5.54-1.36A7.14,7.14,0,0,0,83.21,4c-1.28,0-2.52-.36-3.81-.29-3.74.2-7.21,1.1-10,3.82-.4.39-1.17.48-1.25,1s.28,1,.42,1.57a7.2,7.2,0,0,0,.24,1.28c.17.37.32.54.71.3a9.31,9.31,0,0,1,2.16-.94,8.08,8.08,0,0,1,4-.31,21.44,21.44,0,0,1,6.46,2.65,2.56,2.56,0,0,1,.8.7.27.27,0,0,1,0,.33.22.22,0,0,1-.31.08c-.25-.13-.47-.3-.71-.43a6,6,0,0,0-2.55-1.19c0-.11,0-.23-.14-.15l.17.13c.75.5,1.51,1,2.26,1.53.26.18.5.39.74.59s.3.42.1.63-.37,0-.5-.13a32.83,32.83,0,0,0-3-2c-.26-.16-.51-.41-.87-.33a.26.26,0,0,0-.23-.27c-.1,0-.15-.32-.31-.07l.34,0c0,.17.09.23.23.27l2.36,1.93c.15.13.34.21.48.34s.37.46.2.73-.43.14-.66.14a.3.3,0,0,0-.23-.27A5.33,5.33,0,0,0,77.27,14c0-.18-.16-.22-.32-.18s0,.06-.07.09a.46.46,0,0,0,.41.07,9.08,9.08,0,0,0,3.13,1.66c0,.19.09.24.23.27.3.26.6.5.89.77a.29.29,0,0,1,.07.42c-.13.15-.3.1-.44,0-.89-.52-1.76-1.08-2.65-1.58a13.27,13.27,0,0,0-4.14-1.7,29.63,29.63,0,0,1,3.83,2.55,3.23,3.23,0,0,1,.45.38.37.37,0,0,1,0,.45c-.12.19-.28.1-.41,0-.33-.19-.53-.62-1-.57L77,16.38c0-.14-.12-.19-.23-.24l0-.06.06,0c0,.12.09.22.23.25Zm-3.86,6,.06,0,0,.06-.1.05s0,0,0,.06Zm-18.22,0a.36.36,0,0,0,0,.11s0,0,.07,0l-.14-.11,0-.06Zm19-.47c.14,0,.19-.13.24-.25l.07-.07,0,.1c-.11,0-.22.09-.25.23l0,.05Zm-19.69,0,.06.05-.07,0c0-.14-.12-.2-.24-.24l-.07-.07.1,0Zm20.89-7c.08,0,.09,0,0,.07l0-.06,0,0Zm-22.08,0,0,0,0,.05c0,.08,0,.09-.07,0Zm-.72-1.68c.16-.09.4.1.54-.14a.4.4,0,0,0-.51.17l-.41.07s0,.07.06.08A.25.25,0,0,0,52.55,13.48Zm23.52,0a.64.64,0,0,0,.13.15c.1.06.2.06.26-.06l-.2-.05H76c-.15-.18-.3-.35-.55-.1ZM69.11,43a4,4,0,0,1-1.75-.3,11.29,11.29,0,0,0-5.17-.22,8.1,8.1,0,0,1-2.66.51l0,0,.06,0a.52.52,0,0,0,.17.54,4.08,4.08,0,0,1,1,1.54,8.78,8.78,0,0,1,7.1,0,4.26,4.26,0,0,1,1-1.52.57.57,0,0,0,.19-.54l0,0ZM64.33,25h1.2a14.4,14.4,0,0,0,4.33-.73c1-.33,1.12-.46,1.15-1.52,0-.48,0-1,.06-1.44a9.81,9.81,0,0,0-1.37-6.73c-.25-.37-.5-.72-.76-1.08a6.65,6.65,0,0,1-1.27-3.18C67.5,8.64,66.25,8,65,7.27c-1-.56-1.62.31-2.39.61a1.2,1.2,0,0,0-.31.18A3,3,0,0,0,61,10a7.34,7.34,0,0,1-1.7,4c-1.56,1.87-1.78,4.12-1.88,6.39,0,.75.2,1.5.2,2.26,0,1.16.08,1.27,1.18,1.62A15.21,15.21,0,0,0,64.33,25ZM71,28.71c0-1.1-.25-2-.23-2.91,0-.73-.11-.74-.87-.58a25.87,25.87,0,0,1-5.54.78,22.87,22.87,0,0,1-5.64-.82c-.52-.14-.82-.09-.81.44,0,1.12-.33,2.21-.25,3.33.09,1.28.38,1.49,1.63,1.26s2.57-.46,3.87-.62a21.92,21.92,0,0,1,6.15.58c1.36.23,1.51.32,1.69-1.28C71,28.78,71,28.65,71,28.71Zm-.23,4.17h0c0-.24,0-.48,0-.72,0-.55-.13-.8-.76-.95A22.69,22.69,0,0,0,60,31c-.68.15-1.63,0-1.94.59a5.81,5.81,0,0,0-.15,2.23v.12c0,.49.28.7.77.71a5.07,5.07,0,0,0,1.63-.36,11.59,11.59,0,0,1,3-.62,14.6,14.6,0,0,1,5.52.73c1.71.57,2,.35,2-1.38Zm0,4c0-.93-.2-1.14-1.08-1.34-.5-.12-1-.25-1.49-.42a10.06,10.06,0,0,0-3.4-.51,11.58,11.58,0,0,0-4.81.69c-.29.12-.63.12-.92.23s-.78-.15-.95.31a2.34,2.34,0,0,0-.2,1.17,5.47,5.47,0,0,0,.23,1c.24.73.47.84,1.23.6a16.19,16.19,0,0,1,9.86,0c.84.27,1.07.16,1.31-.64A2.68,2.68,0,0,0,70.74,36.89Zm-.58,3a16.65,16.65,0,0,0-11.7,0A9.07,9.07,0,0,0,58.71,41,1.31,1.31,0,0,0,60.43,42a5.82,5.82,0,0,0,.68-.2,12.31,12.31,0,0,1,6.12,0C69.44,42.34,69.77,42.1,70.16,39.85Zm-5.83,7.27c-1.17,0-1.28.13-1.09,1.33a3.38,3.38,0,0,1,.1.7c0,.61.22.84.84.82,1,0,1,0,1.11-1,0-.19.09-.39.12-.58C65.57,47.27,65.44,47.12,64.33,47.12Zm1.1,9.71c1-.79.35-1.61.11-2.39s-.71,0-1.07-.11-.51,0-.7-.09c-.45-.26-.65-.07-.78.33a9.21,9.21,0,0,0-.31,1,.93.93,0,0,0,.55,1.18c.45-.39.15-1.28,1-1.31S65,56.39,65.43,56.83Zm-2.92.36a21.86,21.86,0,0,0-1.68,3.9c-.23.68.06.95.76,1.11.23-1.62,1-3.06,1.22-4.66C62.82,57.46,62.67,57.37,62.51,57.19ZM78.12,1.85c.2,1.28.2,1.28,1.29,1.28.44,0,.88,0,1.32,0s.6-.12.49-.64a.81.81,0,0,0-.85-.69A9.41,9.41,0,0,0,78.12,1.85ZM47.34,3.13h2.48c.31,0,.56-.06.56-.44s.26-.5.06-.91c-.57,0-1.21,0-1.84,0C47.64,1.83,47.58,1.9,47.34,3.13Zm18.74,54c-.33.79.09,2.6,1.07,5,.56-.1.87-.37.66-1A18.62,18.62,0,0,0,66.08,57.16ZM77.08,13a5.62,5.62,0,0,0-2-1.27.69.69,0,0,0-.45-.09,9.5,9.5,0,0,0-3.12,1.59,2,2,0,0,0-.83,1.22c.7.17.91-.41,1.25-.79a3.11,3.11,0,0,1,2.48-1.17A22.85,22.85,0,0,1,77.08,13ZM51.52,13,53,12.64a3.27,3.27,0,0,1,3.79,1.21c.2.28.5.38.71.61a.24.24,0,0,0,.4,0c.09-.11,0-.2-.06-.3a5.41,5.41,0,0,0-2.9-2.1c-.46-.15-.84-.64-1.43-.33A6.5,6.5,0,0,0,51.52,13Zm2-9.4C54.09,2.25,54,2.1,52.65,2L51.57,2c-.3,0-.4.15-.44.43a.68.68,0,0,0,.57.87C52.31,3.45,53,3.31,53.54,3.63Zm21.5,0c.38-.08.68-.17,1-.21s.62,0,.93-.12c.51-.12.57-.44.53-.87S77.11,2,76.81,2,76.26,2,76,2C74.64,2.1,74.56,2.23,75,3.61Zm-4,.46c.67,0,.55.89,1.21.56a12.48,12.48,0,0,0,2.07-.9,3.63,3.63,0,0,1-.16-.46c-.13-.61-.42-.63-.94-.36A11,11,0,0,0,71.09,4.07ZM57.3,3.88a12.9,12.9,0,0,0-2.2-1.1c-.29-.13-.49-.07-.63.29-.26.66-.27.74.33,1,.33.13.68.21,1,.34C56.65,4.73,56.65,4.73,57.3,3.88Zm27-.49h.34c.35,0,.66-.09.69-.48s-.32-.38-.6-.43L82.44,2c-.29-.05-.58-.07-.58.36s-.12.8.46.76A8.55,8.55,0,0,1,84.34,3.39ZM46.63,2c-1,.17-2,.33-3,.51a.39.39,0,0,0-.35.41.43.43,0,0,0,.35.42,2.15,2.15,0,0,0,1.18,0,3,3,0,0,1,1.06-.14C46.82,3.17,46.82,3.15,46.63,2ZM69.29,6.57,71,5.4c.18-.12.31-.24.27-.47a.62.62,0,0,0-.43-.51,1.08,1.08,0,0,0-.91.13l-1.38.91ZM60.08,5.5a7.19,7.19,0,0,0-1.32-.94,1.12,1.12,0,0,0-.91-.14.6.6,0,0,0-.45.49.42.42,0,0,0,.25.48,13.1,13.1,0,0,0,1.74,1.15Zm3.57,45.35a6.39,6.39,0,0,0,0,1.95c0,.41.29.52.65.52s.73-.1.72-.57a4.68,4.68,0,0,0-.09-2C64.51,51,64.09,50.84,63.65,50.85ZM86.06,2.79c-.08.8-.09.85.31,1,.72.23,1.45.4,2.18.57.2,0,.42,0,.44-.26s.09-.49-.2-.61a3.4,3.4,0,0,0-.67-.25C87.44,3.06,86.75,2.93,86.06,2.79Zm-43.49,0c-.35.06-.7.09-1,.17-.53.13-1.06.32-1.59.45s-.34.4-.3.66.34.29.56.24c.66-.15,1.31-.32,2-.51S42.83,3.32,42.57,2.8ZM62.75,45.28c0,.67.3,1,1,.89a3.4,3.4,0,0,1,1.19,0c.66.1,1-.18.93-.9A13.31,13.31,0,0,0,62.75,45.28ZM32.48,6c.85-.19,1.74-.37,2.62-.58.19,0,.38-.19.31-.43s-.23-.43-.53-.36l-2.64.69a.33.33,0,0,0-.28.43C32,6.06,32.25,6,32.48,6ZM96.11,6c.18,0,.47.1.55-.22s-.25-.37-.5-.48C95.42,5,94.61,5,93.87,4.71c-.34-.12-.56,0-.65.31s.18.43.4.48C94.43,5.69,95.25,5.84,96.11,6Zm-60-.86a10.5,10.5,0,0,0,2.51-.55c.27-.07.44-.13.34-.46s-.16-.55-.55-.43c-.67.2-1.34.42-2,.61C35.88,4.48,36,4.81,36.1,5.16Zm53.54-.69a12.18,12.18,0,0,0,2.59.67c.17,0,.32.08.35-.13a.71.71,0,0,0,0-.46,1,1,0,0,0-.5-.28,13.53,13.53,0,0,1-1.57-.46C89.77,3.49,89.7,3.93,89.64,4.47ZM62,7.06a2.67,2.67,0,0,0-.72-.81c-.4-.34-.7-.22-1,.15a.65.65,0,0,0,0,1c.55.5.65.54,1.15.12C61.62,7.4,61.78,7.24,62,7.06Zm4.68,0c1,1,1.06,1,1.67.38.36-.38.34-.71,0-1.11S67.58,6,66.66,7Zm37.42,0c.39.36.2.82.62.92l2.2.48a.27.27,0,0,0,.34-.25.4.4,0,0,0-.16-.41,1.28,1.28,0,0,0-.55-.21A24.19,24.19,0,0,1,104.08,7ZM24.34,7c-.58.16-1.1.32-1.62.44-.31.08-.63.09-.94.16s-.44.2-.39.51.33.29.55.25c.54-.11,1.06-.32,1.61-.38S24.28,7.6,24.34,7Zm86.44,1.79c-.26-.48-.26-.48-2.69-1-.12.27-.16.68.12.71C109.06,8.67,109.89,9.11,110.78,8.83Zm-90.24-1L19.77,8c-.54.1-1.09.18-1.63.29-.18,0-.24.21-.27.36s.12.25.28.27a14,14,0,0,0,2.24-.31C20.69,8.59,20.64,8.18,20.54,7.85Zm7.53-1.43c.77.35.77.35,3.28-.28-.08-.33-.16-.58-.63-.43C29.9,6,29.06,6.16,28.07,6.42Zm72.36,0c-.87-.24-1.74-.47-2.6-.72-.32-.1-.45.08-.52.31s.2.24.36.29c.57.14,1.14.32,1.71.42C99.74,6.77,100.18,6.94,100.43,6.4ZM58,11.89c-.36,1-.36,1,.51,1.71l.68-.94C58.9,12.16,58.41,12.07,58,11.89Zm12.21,1.75c.85-.77.85-.77.43-1.74-.42.2-.93.26-1.14.78ZM100.91,6.7c.78.74,1.71.65,2.46,1,.13.05.23-.07.25-.18s.1-.36-.1-.4A5.68,5.68,0,0,0,100.91,6.7Zm-73.12,0a7.32,7.32,0,0,0-2.64.41c-.19,0-.19.22-.16.38s.09.26.21.22A6.51,6.51,0,0,0,27.79,6.66Zm86.12,2.67a4.12,4.12,0,0,0-2.32-.81c-.09,0-.19.1-.2.24s0,.35.21.37C112.37,9.21,113.14,9.26,113.91,9.33Zm-99.2-.07c.78,0,1.56-.11,2.33-.14.18,0,.21-.21.19-.38a.26.26,0,0,0-.33-.24A5.9,5.9,0,0,0,14.71,9.26Zm58.24,2c-1.34,0-1.51.11-1.26,1C72.49,12,72.48,12,73,11.21Zm-17.28.06a1.49,1.49,0,0,0,.83.81c.2.08.41.35.56,0s.16-.55-.17-.7S56.2,11,55.67,11.27Zm61.2-1.74c-.76.05-1.47-.53-2.39-.26A3.59,3.59,0,0,0,116.87,9.53Zm-105.11,0a3.17,3.17,0,0,0,2.31-.3C13.2,9.05,12.53,9.56,11.76,9.54Zm-1.25.19c-.43,0-.87,0-1.3,0a7.35,7.35,0,0,0-1.1.27C8.91,10.08,9.66,9.72,10.51,9.73Zm110,.3a4.31,4.31,0,0,0-2.41-.21C118.94,9.67,119.7,10.15,120.52,10ZM56.2,14.72a1.34,1.34,0,0,0,1,.9.44.44,0,0,0,.15-.26c0-.57-.56-.56-.9-.78C56.35,14.52,56.28,14.53,56.2,14.72Zm16.15-.18a3.19,3.19,0,0,0-.48.19c-.26.15-.62.22-.59.63,0,.12,0,.25.18.26.32,0,.47-.24.66-.43S72.52,14.91,72.35,14.54Zm-.47,9a1.54,1.54,0,0,0,.32-.17c.17-.2.36-.41.26-.71,0,0-.14-.07-.21-.06-.37,0-.41.31-.43.58A1.29,1.29,0,0,0,71.88,23.58Zm-15,.08c0-.47.08-.85-.37-1a.43.43,0,0,0-.31.07C56.13,23.1,56.3,23.37,56.83,23.66ZM122.7,10.21c.17.06.25.12.31.1s.25.11.2-.09C123.2,10.18,123,10.21,122.7,10.21ZM5.82,10.28c-.17-.16-.36-.07-.54,0A.61.61,0,0,0,5.82,10.28Zm-2.11.23a.19.19,0,0,0-.1,0s-.07,0-.11,0a.19.19,0,0,0,.1,0S3.67,10.52,3.71,10.51Zm121.24,0s.09,0,.11,0,.06-.07-.07-.07S125,10.49,125,10.51Zm-123,.25v0h-.1Zm124.76,0v0h.1ZM54.83,11l-.1.2s.06.05.08.08a.82.82,0,0,0,.09-.19S54.86,11,54.83,11Zm19,0s-.09.06-.08.07a.7.7,0,0,0,.08.2s.09,0,.08-.07A1.67,1.67,0,0,0,73.81,11Zm-24,1.24,0-.07h-.08Zm29.06,0,0-.08H78.8Zm-27.59.95,0-.07h-.09Zm26.19,0-.08-.05v.08Z"/><path d="M65,8.84c-.06.51-.37.62-.76.61s-.64-.11-.67-.5.33-.62.68-.65A.71.71,0,0,1,65,8.84Z"/></g></g></svg>