<svg xmlns="http://www.w3.org/2000/svg" viewBox="0 0 53.75 43.59"><title>CirripediaNauplii</title><g id="Layer_2" data-name="Layer 2"><g id="CirripediaNauplii"><path d="M11.77,8.47c-.62,0-.92.55-1.4.81-.19.11-.37.22-.53.06s0-.43.15-.58a6.25,6.25,0,0,0,1.62-1.4A6.73,6.73,0,0,0,9.7,7.2a.75.75,0,0,1-.47,0C8.05,6.5,7,7.15,6,7.54a8.67,8.67,0,0,0-1.35.77c-.17.1-.36.25-.51,0s0-.45.2-.59A8.74,8.74,0,0,1,6.86,6.5a2.38,2.38,0,0,0,.3-.18,14.45,14.45,0,0,0-5,1.34c-.29.14-.7.59-.92.17s.37-.62.69-.77c.77-.37,1.57-.69,2.36-1,.32-.09.66.08,1.12-.19-.49,0-.83-.12-1.09.22a8.3,8.3,0,0,0-2.38.19c-.24.09-.62.14-.68-.22s.26-.46.56-.47c1.23,0,2.44-.4,3.69-.33a18.33,18.33,0,0,1-1.82-.37c-.16,0-.32-.08-.3-.29s.21-.22.36-.23a3.92,3.92,0,0,1,.84,0,25,25,0,0,1,4.09.77,22.17,22.17,0,0,0,3.22.6c-.39-.52-.75-1-1.08-1.44-.14-.18-.34-.41,0-.59a.38.38,0,0,1,.51.17c.26.35.59.66.82,1C12.84,6,14,6,15.09,6a11.24,11.24,0,0,1,1.65-.14c.63.07.83-.27,1-.76.62-1.89.1-2.92-1.8-3.58-.37-.14-.74-.29-1.12-.41s-.44-.19-.42-.48a.53.53,0,0,1,.55-.53,6.48,6.48,0,0,1,3.73.53c.21.11.41.24.61.37a2.85,2.85,0,0,0,2.93.13A11.28,11.28,0,0,1,26.82,0a10.19,10.19,0,0,1,4.49,1A3.21,3.21,0,0,0,34.78.77,6,6,0,0,1,38.69,0c.36,0,.63.14.68.53s-.27.44-.53.52l-1.24.43c-1.78.6-2.28,2.11-1.37,4,.1.21.21.34.43.31,1.18-.15,2.33.41,3.54,0a2.28,2.28,0,0,0,1.28-.74c.34-.45.68-.89,1.05-1.31a.33.33,0,0,1,.52,0c.15.14.06.29,0,.42-.35.48-.71.95-1.14,1.52a25.64,25.64,0,0,0,3.9-.78,16.83,16.83,0,0,1,3.76-.57,2.57,2.57,0,0,1,.48,0c.15,0,.33,0,.36.23s-.13.26-.29.29a18.52,18.52,0,0,1-1.83.37,33,33,0,0,1,3.45.32,1.84,1.84,0,0,1,.47.06.4.4,0,0,1,.35.42.33.33,0,0,1-.46.25,10,10,0,0,0-2.61-.23.61.61,0,0,0-.89,0h.91a21.36,21.36,0,0,0,2,.87c.24.14.51.23.75.37s.45.31.29.56-.41.11-.62,0a14.91,14.91,0,0,0-4.73-1.49,1.27,1.27,0,0,0-.47,0A10.61,10.61,0,0,1,49,7.44c.13.09.26.18.4.26s.52.33.29.64-.42,0-.61-.1a8.23,8.23,0,0,0-3.16-1.31c-.19,0-.45-.16-.56-.08-.93.65-2,.1-3,.56-.08.31.21.43.42.58.37.29.78.55,1.15.84.15.12.28.33.07.51a.33.33,0,0,1-.44,0c-.32-.23-.65-.46-1-.7s-.32-.25-.54-.18c0-.2-.11-.23-.25-.24,0-.16-.1-.22-.24-.25a.35.35,0,0,0,0-.11l-.07,0,.13.1c0,.14.09.24.24.25s.08.25.24.25c.05.48.45.73.71,1.07.14.18.38.39.13.61s-.52,0-.67-.22a13.91,13.91,0,0,0-1.32-1.54c-.27-.3-.53-.45-.93-.22s-.94,0-1.39.26A9.62,9.62,0,0,1,37.25,9a13.68,13.68,0,0,0,1.59.91c.17.12.35.29.26.49s-.38.11-.59,0c-.41-.13-.71-.49-1.27-.49a4.32,4.32,0,0,1,.19,1.84c1.38-.52,2.57,0,3.77.11.58,0,1.14.18,1.73.2a6.06,6.06,0,0,1,2.8.91,2.78,2.78,0,0,0,.84.43c2,.47,3.24,1.94,4.64,3.2a24.86,24.86,0,0,1,2.25,2.64l.14.19c.15.21.24.44,0,.62s-.37,0-.5-.19c-.45-.55-.92-1.09-1.35-1.67a9.49,9.49,0,0,0-1.81-1.88l-.06-.08s0,0-.06,0l.14.07c.16.76.78,1.26,1.11,1.92.2.38.52.72.13,1.29-1-1.17-1.55-2.65-2.71-3.65,0,0,0-.07,0-.1s0,0-.07,0l.15.1c0,.38.26.66.31,1a.32.32,0,0,1-.17.39c-.18.09-.31,0-.38-.17-.36-.67-.68-1.35-1.06-2-.12-.22-.16-.52-.41-.65-.29.22-.14.38-.06.56.48,1.13.94,2.27,1.42,3.4.1.24.18.5-.11.62s-.44-.14-.55-.42c-.42-1.08-.87-2.13-1.29-3.2a1.81,1.81,0,0,0-1.73-1.37c.37.75.75,1.44,1.07,2.16.14.33.6.82.14,1.05s-.53-.42-.7-.73c-.38-.7-.72-1.42-1.11-2.12a1.4,1.4,0,0,0-1.45-.86c-1.24.25-2.43-.21-3.7-.05.09.28.4.31.6.41a20.5,20.5,0,0,1,4.51,3.26A16.07,16.07,0,0,1,46.69,21c.4.69.79,1.38,1.18,2.07.14.25.29.56,0,.72s-.43-.16-.54-.36A6,6,0,0,0,46.41,22a4,4,0,0,0,0,1.62,4.2,4.2,0,0,1,.11.71.4.4,0,0,1-.36.41c-.1,0-.25-.18-.32-.32a.89.89,0,0,1-.05-.46,9.73,9.73,0,0,0-.46-3v1.81a.39.39,0,0,1-.34.43.37.37,0,0,1-.37-.49,27.3,27.3,0,0,0,0-3c0-.35,0-.72-.4-.95a6,6,0,0,0,.06,1.69,2,2,0,0,1,0,.95c-.07.21,0,.53-.39.48s-.23-.3-.21-.48c.14-1.21-.28-2.38-.22-3.57,0-.15,0-.33-.34-.4a16,16,0,0,1,.11,2.66c0,.28,0,.56,0,.84s-.06.45-.31.42-.25-.27-.24-.46a9.21,9.21,0,0,0-.29-3.17,2,2,0,0,0-.37,1c0,.18-.12.3-.31.26s-.22-.2-.22-.36,0-.08,0-.12c.2-2.2-.14-1.85-1.91-2.64-.26-.11-.52-.2-.79-.29a1.78,1.78,0,0,0-1.74.55,15,15,0,0,0-.76,1.74c-.08.21.06.37.2.53,1.14,1.22,2.12,2.58,3.21,3.84a13.23,13.23,0,0,0,2.08,1.58,6.67,6.67,0,0,1,.79.72c.11.1.21.26.06.41a.35.35,0,0,1-.45,0c-.4-.32-.78-.67-1.24-1.06-.09.38.18.53.3.72A22.15,22.15,0,0,1,43,28.14a5.39,5.39,0,0,1,.22.68c.06.2,0,.42-.21.46s-.26-.12-.33-.28c-.41-.9-.82-1.8-1.27-2.69-.1-.2-.15-.46-.39-.57l-.25-.47c-.06,0,0-.24-.15-.1l.18.07c.09.15-.12.46.24.47a12.62,12.62,0,0,0,.6,2.64c.07.35.27.87-.09.95-.55.12-.48-.47-.57-.84a11,11,0,0,0-.58-1.83,16.4,16.4,0,0,1-.33,1.75A3,3,0,0,1,40,29c-.07.17-.18.39-.42.35s-.22-.28-.22-.47a1,1,0,0,1,0-.24,11,11,0,0,0,0-4.61A.79.79,0,0,0,39,23.4a25.67,25.67,0,0,1-2.76-2.26c.12.94.19,1.78.35,2.6A13.18,13.18,0,0,1,36,29.49a.77.77,0,0,1-.15.33c-.09.11-.21.26-.39.17a.31.31,0,0,1-.18-.39,18.88,18.88,0,0,0,.58-2.3,2.36,2.36,0,0,0,0-1.16c-.22.72-.41,1.35-.61,2a4.84,4.84,0,0,1-.28.66c-.11.23-.3.41-.56.26s-.08-.34,0-.52a14.63,14.63,0,0,0,1-3.42c.22-1.11.35-2.24-.86-3a14.76,14.76,0,0,1-3,3.38c-.65.63-.42,1.42-.26,2.13a12.43,12.43,0,0,0,.7,1.9c.08.19.15.39-.06.52a.42.42,0,0,1-.54-.1l-1.27-1.44L29.7,28a16.22,16.22,0,0,0-1.65,5.84c-.19,2.13-.5,4.26-.69,6.4a1.49,1.49,0,0,0,.45,1.4c.22.18.42.43.17.71s-.47-.19-.78-.12c0,.37,0,.76-.07,1.14a.23.23,0,0,1-.25.2.23.23,0,0,1-.25-.21c0-.35,0-.71-.06-1.08-.16-.16-.27,0-.38.08s-.28.16-.42,0a.34.34,0,0,1,0-.44c1.09-1,.64-2.26.47-3.46C26.09,37.65,26,36.81,26,36A20,20,0,0,0,24.08,28a8.45,8.45,0,0,0-1.39,1.41,5.93,5.93,0,0,1-.47.53.36.36,0,0,1-.45,0c-.16-.1-.15-.26-.09-.42l.63-1.67a2.35,2.35,0,0,0-.66-3A7.91,7.91,0,0,1,19.22,22c-1.26.84-1.09,2-.86,3.17a14.08,14.08,0,0,0,1,3.42c.07.14.15.3,0,.41a.34.34,0,0,1-.51-.14A10.79,10.79,0,0,1,17.86,26a8.63,8.63,0,0,0,.44,3.13c.05.29.4.65,0,.81s-.47-.29-.55-.6a13.13,13.13,0,0,1-.55-5.64,13.77,13.77,0,0,1,.52-2.66c-1.19.87-2.05,1.71-3,2.44-.49.37-.47,1.16-.48,1.77a10,10,0,0,0,.19,3.45c.07.19.13.52-.2.57s-.44-.25-.46-.45a13.91,13.91,0,0,1-.32-2.44,7.86,7.86,0,0,0-.67,2.05,1.78,1.78,0,0,1-.07.47c-.08.22-.18.49-.49.4S12,29,12,28.82c.16-.73.33-1.47.55-2.19a1.8,1.8,0,0,0,.14-.92c.36,0,.18-.3.25-.47s.23,0,.11-.14l-.09.17a.68.68,0,0,0-.25.46,13,13,0,0,0-1.41,2.72,6.44,6.44,0,0,1-.3.65.41.41,0,0,1-.28.19.27.27,0,0,1-.23-.35,4.7,4.7,0,0,1,.28-.9,34.29,34.29,0,0,1,2-4.07c-.37.32-.72.65-1.1,1a.4.4,0,0,1-.55,0c-.2-.2,0-.39.12-.5a9.46,9.46,0,0,1,1.38-1.15,8.55,8.55,0,0,0,2.67-2.65,19.14,19.14,0,0,1,1.88-2.16c.28-.3.39-.56.14-.94a6.61,6.61,0,0,1-.43-1,1.64,1.64,0,0,0-2-.94c-.61.18-1.17.49-1.77.69a1.11,1.11,0,0,0-.84,1.23l0,1.08c0,.16,0,.32-.21.36s-.28-.08-.33-.26c-.08-.34-.19-.67-.32-1.14a9.32,9.32,0,0,0-.33,3.3c0,.19,0,.44-.23.46s-.32-.21-.32-.42a24.75,24.75,0,0,1,.09-3.44c-.3-.08-.33.18-.32.34,0,1.19-.37,2.36-.23,3.56a.7.7,0,0,1-.05.35.28.28,0,0,1-.16.14.22.22,0,0,1-.28-.14,2.14,2.14,0,0,1-.14-1.17,6,6,0,0,0,.09-1.8.75.75,0,0,0-.41.82c.07,1-.2,2,0,3a.49.49,0,0,1,0,.12c0,.28-.1.5-.38.5a.39.39,0,0,1-.34-.42A15.48,15.48,0,0,0,8.32,21a11.71,11.71,0,0,0-.38,2.69,2.38,2.38,0,0,1-.06.71c0,.13-.22.33-.31.32a.4.4,0,0,1-.36-.41,3.47,3.47,0,0,1,.1-.71,4,4,0,0,0,0-1.62,7.61,7.61,0,0,0-.94,1.56c-.1.18-.27.37-.48.28s-.21-.4-.1-.62a33.91,33.91,0,0,1,2.92-4.65,15.19,15.19,0,0,1,3.6-3.23c.88-.61,1.77-1.18,2.77-1.75-.78,0-1.47,0-2.15,0a4.56,4.56,0,0,1-1.52,0,1.43,1.43,0,0,0-1.57.85c-.37.66-.7,1.34-1,2-.09.18-.14.38-.24.55s-.28.47-.54.32-.17-.43-.06-.65.22-.42.33-.64l1-1.93a1.67,1.67,0,0,0-1.68,1.24c-.4,1-.87,2-1.3,3.07a.86.86,0,0,0,0,.23c-.06.3-.18.57-.55.43s-.21-.38-.11-.61c.45-1.06.91-2.12,1.32-3.2.09-.21.44-.43,0-.77a16.92,16.92,0,0,0-1.19,2.12c-.12.2-.22.42-.35.62a.21.21,0,0,1-.31.08A.44.44,0,0,1,4.93,17c0-.4.35-.71.33-1.12l.11,0s0,0,0-.07l-.11.13a12.43,12.43,0,0,0-2,2.63c-.21.31-.31.72-.74,1-.36-.29-.22-.64,0-.92.32-.55.68-1.06,1-1.59.13-.19.3-.37.25-.64.15,0,.22-.11.26-.24l.07,0,0,.07-.27.24A17.69,17.69,0,0,0,1,19.57c-.2.25-.41.8-.78.53s.06-.68.27-1A21.29,21.29,0,0,1,5,14.58a3,3,0,0,1,1.77-.89.22.22,0,0,0,.11,0,11.68,11.68,0,0,1,5.68-1.72c1.21-.08,2.39-.62,3.67-.14a8.35,8.35,0,0,1,.36-1.95L15,10.57a.25.25,0,0,1-.32,0,.27.27,0,0,1,0-.42,4.6,4.6,0,0,1,.69-.46c.34-.19.7-.36,1.06-.55a6.5,6.5,0,0,0-2.89-1c-.34-.1-.51.12-.7.32a10.82,10.82,0,0,0-1.32,1.55c-.16.23-.38.48-.68.21s0-.43.13-.61c.26-.34.67-.59.71-1.07.16,0,.22-.11.25-.24A.28.28,0,0,0,12.24,8l.1,0s0,0,0-.07l-.1.14c-.14,0-.24.08-.24.24S11.74,8.27,11.77,8.47Zm29,7.19c.08,0,.09,0,0,.06l0-.06a.3.3,0,0,0-.23-.24c-1.62-1.11-1.87-1.21-2.66-1a8.62,8.62,0,0,0,2.69.93C40.57,15.54,40.67,15.61,40.79,15.66ZM13,15.64a.24.24,0,0,0,.22-.25,8.75,8.75,0,0,0,2.65-.9.54.54,0,0,0-.79-.17,11.63,11.63,0,0,0-1.83,1.09l-.24.24c0,.08,0,.09-.07,0Zm5.28,6.25a.94.94,0,0,0,.43-1,1,1,0,0,0-.41,1c-.14,0-.24,0-.13.16Zm17.28,0c0,.05,0,.29.16.09,0,0-.09-.11-.18-.07,0-.33.1-.7-.41-1A.93.93,0,0,0,35.52,21.89ZM23,28.12c1.06-1,1.08-1,2.24-.25a2.73,2.73,0,0,0,3.2,0c1.17-.74,1.19-.71,2.23.26l0,0-.06,0a1.45,1.45,0,0,0,0-.36,3,3,0,0,1,1.07-3.49,8.79,8.79,0,0,0,2.15-2.39c.57-1,.57-1.12-.56-1.44a8.72,8.72,0,0,1-3.76-2.22c-.24-.24-.86-.48-.41-.92s.65.16.86.4c1.48,1.71,3.55,2.18,5.6,2.7a1.88,1.88,0,0,0,.71,0c.59-.09.7-.42.29-.88a14,14,0,0,0-3-2.51c-.47-.3-.92-.62-1.37-.94a.31.31,0,0,1-.06-.43c.1-.18.28-.14.42-.07a3.39,3.39,0,0,1,.39.27c.86.56,1.72,1.12,2.54,1.67.43-.22.47-.62.61-.93s.08-.64-.43-.76-1.3-.31-2-.43a8.82,8.82,0,0,1-1.15-.3.41.41,0,0,1-.18-.27.23.23,0,0,1,.24-.22,3.31,3.31,0,0,1,.83,0c.89.18,1.78.39,2.67.59s1.13.15,1.23-.83a1.92,1.92,0,0,1,.36-1c.43-.6.43-.62-.14-.93a9,9,0,0,0-3.84-1.17c-.43,0-1.14,0-1.07-.46.1-.59.77-.28,1.2-.2.9.16,1.81.36,2.72.55.11-1.79.11-1.78-1.6-1.8a3.11,3.11,0,0,1-1.65-.19c-.14-.08-.28-.17-.25-.36s.21-.21.37-.21a.45.45,0,0,1,.23,0c1.7.66,3.08-.24,4.52-.89.45-.21.37-.56.35-.91s-.38-.33-.64-.38a4.78,4.78,0,0,0-1.07,0c-1.23,0-2.47,0-3.71,0a1.07,1.07,0,0,1-1-.5c1.12-.67,2.19.25,3.19-.11a2.69,2.69,0,0,0-.9-1.76A2.71,2.71,0,0,1,34,3.61c-.1-.16-.22-.32,0-.52s.35,0,.48.1.32.37.59.67c.2-1.9,1.36-2.73,3-3.21a1.5,1.5,0,0,0-1,0,7.48,7.48,0,0,0-2.31.89,3,3,0,0,1-3.34.24A10.77,10.77,0,0,0,28.87.89a5.8,5.8,0,0,0-2.7-.28,14.43,14.43,0,0,0-3.75,1.1,3.28,3.28,0,0,1-3.57-.24c-.17-.11-.33-.24-.5-.33A4.82,4.82,0,0,0,15.71.71a3.59,3.59,0,0,1,3,3.13c.25-.31.43-.52.61-.73s.26-.17.39,0,.16.16.1.31a2.11,2.11,0,0,1-.54.78,2.54,2.54,0,0,0-.9,1.75c1,.39,2.13-.63,3.18.14a1.19,1.19,0,0,1-1.13.47c-.72,0-1.44,0-2.16,0s-1.52-.08-2.27,0c-.31,0-.78-.13-.88.4a.85.85,0,0,0,.56,1c1.41.63,2.79,1.38,4.43.76a.32.32,0,0,1,.47.2c.05.24-.17.35-.34.42a4.66,4.66,0,0,1-1.78.13c-1.41,0-1.41,0-1.43,1.38a.58.58,0,0,0,.17.48A13.74,13.74,0,0,1,20,10.67c.38-.08,1-.32,1.09.23.06.4-.56.44-1,.45a9,9,0,0,0-3.85,1.12c-.69.35-.69.38-.24,1a1.82,1.82,0,0,1,.35,1c.09.93.27,1.06,1.12.87S19,15,19.79,14.78A11.17,11.17,0,0,1,21,14.61a.3.3,0,0,1,.35.25c0,.18-.11.28-.28.32l-2.44.51c-1.2.26-1.29.47-.71,1.58a2.07,2.07,0,0,0,.27.33c1-.66,1.92-1.31,2.87-1.94.16-.11.39-.2.53,0a.35.35,0,0,1-.14.51c-.49.34-1,.66-1.49,1a13.94,13.94,0,0,0-2.88,2.48c-.3.34-.19.67.24.78a1.35,1.35,0,0,0,.6,0c2-.46,4.05-.88,5.57-2.47a7.83,7.83,0,0,1,.81-.7.25.25,0,0,1,.33,0,.3.3,0,0,1,.07.42,4.85,4.85,0,0,1-.49.52,8.94,8.94,0,0,1-3.76,2.22c-1.13.33-1.15.42-.56,1.43,0,.07.1.13.14.2a12.1,12.1,0,0,0,2.43,2.62A3.7,3.7,0,0,1,23.17,26c.29.77-.16,1.41-.1,2.12C23.07,28.13,22.94,28.24,23,28.12Zm2.22.63c1.18,2.78,1.1,5.75,1.64,8.62.25-1.45.47-2.89.58-4.33a28.35,28.35,0,0,1,1.08-4.44A3.41,3.41,0,0,1,25.26,28.75ZM15,12.45a4.53,4.53,0,0,0-3.16.5A5.62,5.62,0,0,0,15,12.45Zm26.74.45a4.66,4.66,0,0,0-3.23-.48A5.66,5.66,0,0,0,41.72,12.9ZM9,6.23a9.5,9.5,0,0,0,3.33.32A6.2,6.2,0,0,0,9,6.23Zm32.63.48c1-.32,2.11,0,3.13-.36,0,0,0-.13,0-.24A5.19,5.19,0,0,0,41.62,6.71Zm-28-.16c-.46,0-.83.15-.82.34,0,.41.43.41.7.53a1.7,1.7,0,0,0,.46.06c.3,0,.43-.09.43-.39s0-.49-.32-.52Zm26.73,0h-.43c-.42,0-.55.17-.53.56s.31.35.58.35a1.67,1.67,0,0,0,.78-.25c.14-.07.27-.17.21-.35a.47.47,0,0,0-.23-.25A1.38,1.38,0,0,0,40.34,6.56Zm-2.81,14c-.48.47-.31.76.07,1,.13.08.3.12.41,0,.24-.33-.15-.45-.25-.67A1.62,1.62,0,0,0,37.53,20.53Zm-21,.39c-.06-.07-.12-.17-.19-.25s-.2,0-.27,0a2.92,2.92,0,0,0-.4.59.23.23,0,0,0,.28.29A.67.67,0,0,0,16.54,20.92Zm-5.4-8.09c-.34,0-.71-.15-1.18.2C10.46,12.94,10.81,13.09,11.14,12.83Zm32.64.07a3.22,3.22,0,0,0-1.41-.07A2,2,0,0,0,43.78,12.9ZM14.66,22.57c.48,0,.61-.2.62-.52C15,22.1,14.86,22.31,14.66,22.57Zm24.35,0a.73.73,0,0,0-.54-.52C38.52,22.41,38.65,22.59,39,22.54Zm5.8-9.15a.45.45,0,0,0,.11,0s0,0,0-.06l-.1,0S44.82,13.37,44.81,13.39Zm-36,0s.08,0,.1,0,.05-.07-.06-.07S8.82,13.37,8.81,13.39Z"/><path d="M31.93,10.8a9.33,9.33,0,0,1-.75,3c-.11.25-.28.71-.63.57s-.12-.57,0-.82a6.86,6.86,0,0,0,.65-3,7.09,7.09,0,0,0-1.05-4c-.17-.27-.32-.55-.48-.82s-.28-.47,0-.62.46.12.57.32c.64,1.17,1.48,2.26,1.48,3.69C31.72,9.7,32,10.23,31.93,10.8Z"/><path d="M23.24,14.42a1,1,0,0,1-.67-.67,8.1,8.1,0,0,1-.63-4.06,9.21,9.21,0,0,1,1.3-3.77,5.19,5.19,0,0,1,.31-.5c.14-.17.32-.44.57-.26s.06.42-.05.63a10.25,10.25,0,0,0-1.3,2.78,7.73,7.73,0,0,0,.39,4.89C23.29,13.73,23.5,14,23.24,14.42Z"/><path d="M26.86,3.43c-.63,0-1.18-.47-1.13-1a1.32,1.32,0,0,1,1.11-.93,1.31,1.31,0,0,1,1.2,1C28.06,3,27.5,3.44,26.86,3.43Z"/><path d="M23.87,15a.53.53,0,0,1,.1.06,4.33,4.33,0,0,1,1.72,2.58.33.33,0,0,1-.15.4.27.27,0,0,1-.37-.19,6.32,6.32,0,0,0-1.54-2.34.25.25,0,0,1,0-.4A.84.84,0,0,1,23.87,15Z"/><path d="M30.22,15.32a1.14,1.14,0,0,1-.15.29,5.45,5.45,0,0,0-1.43,2.17c-.06.2-.22.37-.45.25s-.15-.28-.12-.43a4.54,4.54,0,0,1,1.7-2.52c.12-.1.22-.05.32,0A.76.76,0,0,1,30.22,15.32Z"/><path d="M26.48,23.52a7.63,7.63,0,0,1-1-2.78.22.22,0,0,1,.22-.23c.07,0,.19,0,.21.07A3.7,3.7,0,0,1,26.48,23.52Z"/><path d="M27.3,23.29a3.49,3.49,0,0,1,.55-2.69.33.33,0,0,1,.31-.07c.08,0,.18.21.15.29A6.63,6.63,0,0,1,27.3,23.29Z"/></g></g></svg>