<svg xmlns="http://www.w3.org/2000/svg" viewBox="0 0 49.43 47.29"><title>Clausocalanus</title><g id="Layer_2" data-name="Layer 2"><g id="Clausocalanus"><path d="M16.08,14.2c-.31-.2-.66-.37-.28-.81a6.64,6.64,0,0,1,1.3-1.24.79.79,0,0,0,.39-.79c0-.84,0-1.68,0-2.54a1.14,1.14,0,0,0-.52.66c-1.41,2.93-2.87,5.85-4.22,8.8-1.18,2.6-2.22,5.26-3.2,7.94a52.42,52.42,0,0,1-3.41,7.33,2.16,2.16,0,0,0-.41,2.09A1.11,1.11,0,0,1,5.26,37c-.42-.3-.13-.77-.35-1.19-.73,1-1.37,2.09-2.15,3s-.36,2.33-1,3.43c-.72-.63-.07-1.48-.43-2.11-.4,0-.54.35-.85.42-.16,0-.33.06-.43-.1a.27.27,0,0,1,.1-.41,14.9,14.9,0,0,0,1.3-1.05,1.62,1.62,0,0,0,.61-.72c1.11-2.68,2.71-5.13,3.84-7.8.45-1.05.85-2.13,1.26-3.19-.12-.07-.19-.14-.24-.13-.25,0-.53.39-.73,0s.18-.52.46-.65a2.83,2.83,0,0,0,1.48-1.78Q8.52,23.7,9,22.6c.14-.34.3-.63-.14-.88-.15-.08-.1-.28,0-.42A1.49,1.49,0,0,1,9.08,21c1.38-1.2,1.68-3,2.4-4.5-.4-.34-.69.24-1,.06a.93.93,0,0,1-.27-.19c-.09-.13,0-.22.12-.3l.11-.05c1.39-.4,1.94-1.5,2.37-2.75a24.73,24.73,0,0,1,1.06-2.36c-.37-.12-.46.17-.64.29s-.41.53-.67.16.1-.49.31-.67a3.57,3.57,0,0,1,.37-.31,8.58,8.58,0,0,0,3-3.92l.63-1.37a5.71,5.71,0,0,0-1.94,1.66c-.5-.41-.14-.69,0-1l.23-.25.24-.23.11-.09-.08.11-.25.24a.23.23,0,0,0-.22.25c-.58-.08-.75.48-1.12.73-.16.1-.31.29-.5.09a.4.4,0,0,1,0-.53c.35-.52,1-.68,1.3-1.3.2,0,.39,0,.49-.23a.24.24,0,0,0,.1,0s0,0,0-.06l-.11.14c-.18,0-.41-.05-.49.22-.62,0-1.07.49-1.61.72a.37.37,0,0,1-.51-.15.33.33,0,0,1,.18-.4,16.42,16.42,0,0,1,4.9-2.08,2.9,2.9,0,0,0,1.7-.67A2.75,2.75,0,0,1,20,1.84a.49.49,0,0,0-.7-.28c-.52.23-1.11.08-1.62.36a.39.39,0,0,1-.6-.18c-.07-.24.19-.34.36-.4a4.5,4.5,0,0,1,3.25-.17A1.08,1.08,0,0,0,22,1a4.37,4.37,0,0,1,5.51,0,1,1,0,0,0,1.16.23,4.41,4.41,0,0,1,3.14,0c.24.06.64.16.56.49s-.48.27-.7.15c-.48-.26-1-.1-1.51-.33a.55.55,0,0,0-.71.25A7.28,7.28,0,0,0,32,3,13.56,13.56,0,0,1,36.73,5a.33.33,0,0,1,.19.39.37.37,0,0,1-.52.14c-.54-.22-1-.67-1.61-.7-.07-.28-.3-.21-.49-.23a.36.36,0,0,0,0-.11s0,0-.06,0l.13.11c.09.23.28.24.48.23.16.43.58.61.88.9a4.62,4.62,0,0,1,.49.5.33.33,0,0,1,0,.43c-.15.16-.3.08-.41,0s-.46-.42-.69-.64a.53.53,0,0,0-.53-.16.23.23,0,0,0-.22-.25l-.24-.24L34,5.22l.11.08.24.24.23.25c.15.3.48.58,0,1a5.49,5.49,0,0,0-1.92-1.65A20.66,20.66,0,0,0,34.7,9.07a9.34,9.34,0,0,0,1.69,1.49,4.1,4.1,0,0,1,.52.5.29.29,0,0,1-.07.42.4.4,0,0,1-.32,0c-.3-.16-.45-.54-.91-.57.55,1.31,1.07,2.58,1.63,3.83a1.92,1.92,0,0,0,1,1c.29.13.58.27.86.42.1,0,.21.15.14.28a.55.55,0,0,1-.27.2c-.33.13-.58-.22-1-.16a18.62,18.62,0,0,0,1.49,3.69c.18.39.72.69,1,1.09.12.16.29.35.08.52-.42.35-.21.68-.06,1.05.27.66.54,1.33.75,2a2.84,2.84,0,0,0,1.56,1.85c.27.12.58.27.42.59s-.47.1-.71,0c0,0-.14,0-.26.08a43.82,43.82,0,0,0,3.21,7.25,27.58,27.58,0,0,1,1.34,2.66A5.47,5.47,0,0,0,49,39.92c.2.12.5.27.36.54s-.47.17-.71,0a.92.92,0,0,0-.59-.29c-.31.63.15,1.45-.36,2.2a2.63,2.63,0,0,1-.47-1.68A2.48,2.48,0,0,0,46.75,39C46,38,45.3,37,44.58,35.93c-.25.09-.15.27-.17.4s.09.55-.19.62-.45-.28-.52-.54a1.41,1.41,0,0,1,0-1,1.14,1.14,0,0,0-.12-1.23,70,70,0,0,1-4.76-10.61,85.12,85.12,0,0,0-4-9C34,13,33.35,11.38,32.61,9.8a3,3,0,0,0-.67-.93V11.6c0,.29.22.39.39.55.44.4.87.82,1.29,1.25s0,.6-.28.8c0-.2-.1-.22-.24-.23a.42.42,0,0,0,0-.1s0,0-.06,0l.13.11c0,.14.07.24.23.24.06.66.86,1.05.68,1.91-1-.53-1.21-1.68-2.11-2.41.41,1.22,1.32,2.09,1.49,3.47-1-.53-1.06-1.53-1.63-2.07A22.16,22.16,0,0,0,31.43,20a3.34,3.34,0,0,1-.13.82,3,3,0,0,0-.12,1.61A3.55,3.55,0,0,1,31,24.15a29.39,29.39,0,0,1-1,3.72A7.25,7.25,0,0,0,29.2,32c.29,1.64.72,3.23,1.14,4.83a3.44,3.44,0,0,1,.17,1c0,.34-.28.32-.52.34l-.11-.53c-.11.24-.07.4.13.51-.19.38.23,1.17-.49,1.12-.49,0-.19-.74-.27-1.14a6.08,6.08,0,0,1,0-.61c-.25.07-.12.29-.19.42a.28.28,0,0,1-.27.18.21.21,0,0,1-.2-.24,4.68,4.68,0,0,1,.05-1.67A1.91,1.91,0,0,0,28.52,35c-.31-.85-.66-1.69-.9-2.56-.11-.39-.36-.47-.65-.57a.73.73,0,0,0,0,.69,2.37,2.37,0,0,1-.12,2c-.74,1.41-.26,2.89-.4,4.33,0,.44.34.79.48,1.21.35,1,.1,2,.43,2.93.19.56.26,1.16.4,1.74a1.15,1.15,0,0,1-.07,1.06c-.72-.22-.52-.88-.67-1.45-.3.71.13,1.28.11,1.88,0,.36.24,1-.25,1-.66.07-.44-.62-.47-1a4.74,4.74,0,0,0-.46-2.38c0,.83,0,1.59,0,2.35,0,.15-.05.32-.26.32s-.25-.17-.25-.32a12.42,12.42,0,0,1,.06-3,2.22,2.22,0,0,0-.34-1.63.43.43,0,0,0-.77-.12c-.25.48-.67.89-.47,1.61A11.11,11.11,0,0,1,24,46.3a.32.32,0,0,1-.21.24c-.21,0-.27-.14-.27-.29,0-.76,0-1.52,0-2.37A3.62,3.62,0,0,0,23.05,46c0,.24,0,.48-.05.71s0,.61-.42.59-.28-.34-.28-.56a2.76,2.76,0,0,1,.09-1.07,2.42,2.42,0,0,0,.08-1.34c-.23.58,0,1.19-.65,1.47-.34-.19-.28-.53-.21-.81a17.71,17.71,0,0,0,.71-4.09,2.18,2.18,0,0,1,.25-1c.8-1.39.29-2.89.41-4.34a.84.84,0,0,0-.14-.44,3.33,3.33,0,0,1-.33-2.75,1.52,1.52,0,0,0,0-.48.84.84,0,0,0-.71.54c-.4,1-.62,2-1,2.91a1.13,1.13,0,0,0,0,.81,4.86,4.86,0,0,1,.1,1.42c0,.23.09.56-.21.6s-.22-.42-.51-.7c0,.55,0,1,0,1.44,0,.2,0,.44-.25.47s-.4-.2-.44-.45,0-.47-.06-.71c.2-.11.24-.27.13-.51l-.1.53c-.24,0-.52,0-.52-.34a3,3,0,0,1,.11-.94,20.38,20.38,0,0,0,1-3.53c.16-1.3.62-2.59,0-4a13.49,13.49,0,0,1-.91-2.54c-.39-1.62-1.11-3.22-.72-5a.66.66,0,0,0,0-.46A6.51,6.51,0,0,1,18,18.28c.06-1.09-.33-2.12-.27-3.26A3.78,3.78,0,0,0,17,16.14c-.19.33-.43.63-.7,1-.2-.7-.2-.7,1.1-3.29-.79.57-1,1.65-1.86,2.2-.32-.25-.17-.48-.07-.74.16-.41.62-.65.61-1.14.15,0,.21-.1.23-.23a.53.53,0,0,0,.1-.06s0,0,0-.06l-.09.14C16.18,14,16.05,14,16.08,14.2ZM45.36,35.77a.36.36,0,0,0,0,.09l.06,0-.13-.11a.67.67,0,0,0-.21-.5l-.41-.86c0,.51.11.73.43.84C45.17,35.45,45.08,35.69,45.36,35.77Zm-41.3,0c.28-.07.19-.31.22-.49.31-.14.52-.32.36-.73l-.33.75a.67.67,0,0,0-.22.5L4,35.84s0,0,0,0Zm40.09-2.14s0,.07.05.1l.07,0-.15-.09c0-.2.05-.42-.22-.51,0-.18,0-.41-.24-.47,0-.2.05-.42-.24-.48a.4.4,0,0,0-.09-.39.44.44,0,0,0-.08.07c0,.16,0,.28.19.3,0,.2,0,.43.25.48,0,.2,0,.42.24.47C43.94,33.31,43.92,33.52,44.15,33.62Zm-38.88,0c.23-.09.21-.3.22-.49.29,0,.24-.27.25-.47.28-.06.24-.28.24-.48.19,0,.22-.14.19-.3a.25.25,0,0,0-.08-.07.4.4,0,0,0-.09.39c-.28.06-.23.28-.24.48-.28.06-.22.29-.24.48-.27.07-.22.3-.22.49a.35.35,0,0,0-.11,0s0,0,0,.07Zm15.62-.7c.39-.94.39-.94,0-1.3v1.31l-.06,0Zm7.64,0,0,0h-.07a4.76,4.76,0,0,0-.05-1.44C28.19,32.06,28.19,32.06,28.53,32.92ZM18.76,4.39a5.32,5.32,0,0,0,1.38-1.71l.05-.05,0,.07a2,2,0,0,0-1.49,1.61c-.06.05-.13.09-.16.16s-.21.15-.1.25.22,0,.27-.11A2,2,0,0,0,18.76,4.39Zm10.51-1.7,0-.06.05,0a5,5,0,0,0,1.38,1.72,1.87,1.87,0,0,0,.07.22c.06.11.17.2.27.11s-.06-.17-.1-.25-.1-.11-.16-.16A1.87,1.87,0,0,0,29.27,2.69Zm1.66,8.42V8a4.19,4.19,0,0,0-.78-2.58,34.51,34.51,0,0,0-2.73-3.31,3.85,3.85,0,0,0-5.44,0c-.94,1-1.82,2.11-2.67,3.22a3.73,3.73,0,0,0-.79,2.21c-.05,2.31-.11,4.63,0,6.94.12,1.86.42,3.72.43,5.59a1.37,1.37,0,0,0,1.4,1.56,35.26,35.26,0,0,0,8.71,0,1.36,1.36,0,0,0,1.36-1.48c0-.88,0-1.76.09-2.63A37.18,37.18,0,0,0,30.93,11.11Zm-2.3,11.46c-.77-.07-1.55.34-2.25.2-1.58-.33-3.16.2-4.74-.14a7.62,7.62,0,0,0-1.79,0c-.19,0-.45-.05-.54.15a2.17,2.17,0,0,0,0,1.4c.08.43.5.58.92.6a3,3,0,0,0,.71-.1,16.4,16.4,0,0,1,7.63,0c1.27.3,1.69-.05,1.71-1.32,0-.62-.25-.76-.77-.75ZM23.4,25a21.54,21.54,0,0,0-3.41.72c-.13,0-.24.07-.26.19-.09.48.22.83.43,1.21s.46.16.72.06a2.45,2.45,0,0,1,1.27-.29c.68.12,1.36-.05,2,0,1.53.13,3.11-.33,4.59.38a.34.34,0,0,0,.5-.17,6.09,6.09,0,0,0,.42-.85c.08-.23.08-.49-.27-.54-1.09-.18-2.12-.77-3.25-.68A6.75,6.75,0,0,1,23.4,25Zm4.08,6.07a3.35,3.35,0,0,0,1.13-1.88c.26-.71.1-1.05-.59-1.26a2.35,2.35,0,0,0-.7-.07H22.05a1.82,1.82,0,0,0-1.11.33c-.18.12-.33.3-.27.5A3.48,3.48,0,0,0,21.94,31a2.25,2.25,0,0,1,2.32-1.76C25.68,29.27,27,29.24,27.48,31.09Zm-4.17,2.19h0c0,.16,0,.31,0,.47a1.43,1.43,0,0,0,2.84,0,7.07,7.07,0,0,0,0-1.3c-.06-.43-.27-.75-.8-.58a2.37,2.37,0,0,1-1.06,0c-.68-.1-.83,0-.92.68A5.61,5.61,0,0,0,23.31,33.28Zm-.2,8.35c.74-1.45,2.11-1.86,3.24,0a6.81,6.81,0,0,0-.41-1.58c-.14-.32-.25-.41-.61-.27a2.27,2.27,0,0,1-1.62-.11A4,4,0,0,0,23.11,41.63Zm1.56-10.69H26a.31.31,0,0,0,.33-.27.41.41,0,0,0-.17-.29,4.24,4.24,0,0,0-2.77-.05.31.31,0,0,0-.09.07c-.05.1-.15.22-.13.3a.35.35,0,0,0,.24.22C23.81,31,24.24,30.94,24.67,30.94Zm.06,4.9h0c-.12,0-.23,0-.35,0s-.58-.08-.6.35a.66.66,0,0,0,.45.74,1.59,1.59,0,0,0,.58,0c.6,0,.85-.25.83-.75s-.49-.33-.79-.39ZM34.21,9.69c-.74.76-.74.76.28,2.2.39-.27.66-.54.3-1.05A10.3,10.3,0,0,1,34.21,9.69ZM24.8,38h-.39c-.27,0-.6,0-.58.39a.52.52,0,0,0,.53.52l.36,0c.4,0,.87,0,.86-.55S25.08,38,24.8,38ZM15,11.93c.19-.35.36-.71.56-1,.34-.55.22-.92-.41-1.13a9.21,9.21,0,0,1-.48.94A.74.74,0,0,0,15,11.93Zm2.49-4.54L18,5.71c0-.07.11-.16.09-.21a.59.59,0,0,0-.21-.26.22.22,0,0,0-.21,0,3.08,3.08,0,0,0-.82,1.4C16.78,6.94,17.15,7.17,17.51,7.39ZM32,7.43c.32-.32.73-.49.58-.84a2.7,2.7,0,0,0-.86-1.36c-.05,0-.15,0-.21,0a.23.23,0,0,0-.14.28C31.51,6.13,31.71,6.72,32,7.43ZM13.31,14.28c-.07,0-.19,0-.2.05-.19.6-.62,1.1-.61,1.76a.24.24,0,0,0,.12.19c.1,0,.26,0,.31-.08a4.33,4.33,0,0,0,.7-1.47C13.69,14.5,13.47,14.39,13.31,14.28Zm22.84,0c-.2.12-.45.26-.35.54a12.32,12.32,0,0,0,.59,1.28c.07.13.2.28.38.2a.29.29,0,0,0,.16-.39c-.18-.52-.38-1-.58-1.54C36.33,14.3,36.22,14.29,36.15,14.26ZM33.21,9.54c.44-.28.73-.52.37-1a6.33,6.33,0,0,1-.44-.7c-.09-.16-.12-.43-.38-.3s-.44.35-.24.67A4.29,4.29,0,0,1,33.21,9.54Zm-17,0a4.28,4.28,0,0,1,.68-1.29.44.44,0,0,0-.21-.68c-.26-.14-.3.13-.39.28a5.52,5.52,0,0,1-.44.7C15.49,9,15.75,9.25,16.21,9.54ZM14.1,12.09l-.56,1.14c-.12.24.08.38.19.52s.23.15.29.12c.35-.2.4-.59.54-.91S14.59,12.27,14.1,12.09ZM8.52,25.78A14.67,14.67,0,0,0,7.65,28c-.08.25-.15.44.18.53C8.75,26.58,8.79,26.42,8.52,25.78Zm33.17,2.67a4.71,4.71,0,0,0-.85-2.59C40.63,26.87,41.3,27.62,41.69,28.45ZM35.42,12.08c-.8.57-.8.63,0,1.86C36.41,13.26,35.41,12.72,35.42,12.08ZM9,25.19c.87-1.36,1.06-2,.81-2.66A6.5,6.5,0,0,0,9,25.19Zm30.59-2.54a4.2,4.2,0,0,0,.93,2.55A5.07,5.07,0,0,0,39.55,22.65Zm-27.41-5.8c-.25.56-.5,1.13-.76,1.68-.11.24,0,.37.2.43C12.35,17.7,12.38,17.61,12.14,16.85Zm-1,2.75c-.89,1.43-1,1.94-.68,2.31a7.13,7.13,0,0,0,.47-1.06C11,20.5,11.33,20.18,11.12,19.6Zm27.19.16a5,5,0,0,0,.79,2.33C39.22,21.26,39.09,20.89,38.31,19.76Zm-.39-.82a3.73,3.73,0,0,0-.83-2.27C36.89,17.74,37.56,18.28,37.92,18.94Zm4.79,11.69A3.8,3.8,0,0,0,42,29,2.63,2.63,0,0,0,42.71,30.63ZM7.33,29c-.3.71-.63,1.13-.57,1.7C7,30.2,7.49,29.84,7.33,29Zm13.12,5.09.05.09s.06,0,.07-.06,0-.13-.08-.12S20.46,34,20.45,34.05ZM28.86,34s0,.07,0,.1.09.08.12,0a.19.19,0,0,0,0-.09S28.89,34,28.86,34Zm-6.2,9.56s0,0,0-.07,0-.06,0-.09l-.05.07A.29.29,0,0,0,22.66,43.54Zm4.08,0s0,0,0-.07,0-.06,0-.09l-.05.07A.29.29,0,0,0,26.74,43.54Z"/></g></g></svg>