<svg xmlns="http://www.w3.org/2000/svg" viewBox="0 0 63.59 77.98"><title>Clione</title><g id="Layer_2" data-name="Layer 2"><g id="Clione"><path d="M42.21,20.83a14.54,14.54,0,0,1,7.48.58,21.63,21.63,0,0,0,8.26.88A4.58,4.58,0,0,0,60.86,21c.41-.38.78-.8,1.16-1.2.78-.83.91-.78,1.33.23a3.72,3.72,0,0,1,.16,2.13,16.26,16.26,0,0,0-.15,4.06c.27,3.2-1.42,5.28-3.81,7a24.61,24.61,0,0,1-3.3,1.91,8.91,8.91,0,0,1-2.28.68,10.13,10.13,0,0,0-5.35,2.69,16.61,16.61,0,0,1-1.92,1.62,2.12,2.12,0,0,1-2.65,0c-.66-.45-1.3-.93-1.95-1.39-.32-.23-.64-.46-1.13-.79a20.65,20.65,0,0,1,1,3.17,14,14,0,0,1-.85,8.07,27.18,27.18,0,0,1-1.75,3.65,58.16,58.16,0,0,1-5.22,8.27,14.7,14.7,0,0,1-3.56,3.35C28.79,65.59,27.16,67,25.3,68c-.56.3-1.11.61-1.68.88a17.76,17.76,0,0,0-7.7,7,13.28,13.28,0,0,1-1,1.49c-.29.38-.65.8-1.18.65a1.29,1.29,0,0,1-.84-1.22,15.4,15.4,0,0,1,0-3.11c.36-2.8,1.22-5.5,1.69-8.28A17,17,0,0,0,15,62.5a19.92,19.92,0,0,1,3.3-10.81A48.09,48.09,0,0,1,21,47.45a17.23,17.23,0,0,0,2.25-3.35,14.24,14.24,0,0,0,1.18-3.64,2,2,0,0,0-.9.71,3.6,3.6,0,0,1-4.26.84,5.39,5.39,0,0,1-1.66-.95,20.15,20.15,0,0,0-4.24-2.63,7.25,7.25,0,0,1-2.61-2.22,19,19,0,0,0-5.7-5.56,4.18,4.18,0,0,1-1.61-1.72,11.87,11.87,0,0,0-2-2.84A5.88,5.88,0,0,1,.11,24c-.22-.63-.13-.87.44-1.09a2,2,0,0,1,1.07-.06c.62.1,1.24.26,1.86.39A16.17,16.17,0,0,0,13,22.74c.88-.36,1.8-.63,2.68-1a10.63,10.63,0,0,1,3.83-.8,7.62,7.62,0,0,1,4.22,1.11c1.19.72,2.34,1.51,3.52,2.25a1.58,1.58,0,0,0,1.22.4c-.65-.52-1.08-.89-1.54-1.24a5.67,5.67,0,0,1-2.32-4.62c0-1.29.31-2.53.3-3.81a6,6,0,0,0-.71-2.86A11.84,11.84,0,0,1,22.62,7,8.62,8.62,0,0,1,24,1.53,3.69,3.69,0,0,1,24.6.91a.58.58,0,0,1,1,.27,4.6,4.6,0,0,1,.26,1.65,11.37,11.37,0,0,0,.23,3.44c.08.27.16.54.23.81a4.52,4.52,0,0,0,3.8,3.48c.12,0,.26,0,.35,0,2,1.12,3.27-.32,4.64-1.3a2.51,2.51,0,0,0,.73-2.08A9.74,9.74,0,0,0,35,2.8a5.51,5.51,0,0,1-.54-1.57c0-.39-.14-.82.26-1.1s.76,0,1.09.19a11,11,0,0,1,2.8,2.92,16.81,16.81,0,0,1,2,3.5,2.34,2.34,0,0,1,.29,1c0,1.25.36,2.46.26,3.7a1.66,1.66,0,0,0,.35,1.23C43.54,15.22,43.66,17.91,42.21,20.83Zm-7.49,38c.27-.08.27-.27.21-.49.18,0,.24-.07.29-.2a.52.52,0,0,0,.21-.5.29.29,0,0,0,.27-.22.56.56,0,0,0,.21-.5s.26,0,.1-.16l-.07.19c-.27.09-.26.29-.21.5-.21-.07-.24.07-.28.21-.26.1-.26.29-.2.51-.2-.08-.24.07-.29.2-.21.1-.21.3-.21.49a.34.34,0,0,0-.28.22,1,1,0,0,0-.45.75c-1,.76-1.78,1.69-2.78,2.43S29,64,27.84,64.87c-.16.12-.37.21-.51,0s0-.36.15-.51l2.54-2a15.74,15.74,0,0,0,4.53-4.7c.34-.63.77-1.2,1.17-1.8.11-.16.25-.36.48-.28s.23.37.23.6l-.1.06s0,0,0,.06l.1-.14a37,37,0,0,0,3.32-5.73c-.63.24-.82,0-.87-.35A.92.92,0,0,1,39.6,49c.34.28,0,.71.33.94a14,14,0,0,0,.91-2.46,12.37,12.37,0,0,0-1-9.81c-.75-1.4-1.87-2.61-2.12-4.28a2.86,2.86,0,0,0-1.29,1.36,5.58,5.58,0,0,1-1.18,1.63c-.8.69-1.28.58-1.5-.44a6.29,6.29,0,0,0-2.55-3.64,7.2,7.2,0,0,1-1.32-1.2,3.9,3.9,0,0,1-.53-4.93,1.39,1.39,0,0,1,.15-.19c.16-.21.26-.46,0-.64a.4.4,0,0,0-.67.11c-.26.4-.68.36-1.07.15s-.55-.32-.82-.49l-3.73-2.37a6.73,6.73,0,0,0-3.52-1,9.43,9.43,0,0,0-3.71.72c-.84.36-1.72.6-2.57.94a16.65,16.65,0,0,1-10.3.53A4.83,4.83,0,0,0,1,23.65a2.72,2.72,0,0,0,.88,1.66,11.11,11.11,0,0,1,2.09,2.9,3.8,3.8,0,0,0,1.16,1.5c.29.2.69.81,1-.06,0-.07.3-.09.44-.07.62.08,1.23.18,1.88.28-.29.59-.32,1.25-1.22,1.23A22.45,22.45,0,0,1,10,33.85a.33.33,0,0,0,.26.25c.23.37.38.91,1,.4a.37.37,0,0,1,.59.14c.09.31.49.39.46.74-.24.31-.58.13-.87.2a1.77,1.77,0,0,0,0-.23c0-.1,0-.23-.19-.22a.34.34,0,0,0-.1,0,1,1,0,0,0,.13.27.4.4,0,0,0,.19.11,4,4,0,0,0,2.28,2.14,24.63,24.63,0,0,1,4.45,2.76,4.84,4.84,0,0,0,1.9,1,2.39,2.39,0,0,0,2.37-.35c1.38-1.25,2.75-2.52,4.12-3.79a1.94,1.94,0,0,0,.21-.29,13.23,13.23,0,0,0,1.88-4c.11-.35,0-1,.57-.8s.29.72.18,1.05c-.73,2.2-1.56,4.36-3.65,5.7a1.4,1.4,0,0,0-.64,1.18A12.67,12.67,0,0,1,22,47.46a8.82,8.82,0,0,0-1.9,3c-.24,0-.27.24-.31.42-.33.5-.67,1-1,1.49a19.32,19.32,0,0,0-3,10.63,13.1,13.1,0,0,1-.36,2.34C14.94,68.21,14.05,71,13.71,74a8,8,0,0,0,.12,3.14,5,5,0,0,0,1.54-1.94,17.78,17.78,0,0,1,7.39-6.78,35.71,35.71,0,0,0,5.33-3.15,35.6,35.6,0,0,0,3.82-2.87A8.09,8.09,0,0,0,34,59.79c.29-.17.58-.34.45-.76C34.66,59.11,34.69,59,34.72,58.81Zm.5-37.41-.07-.06.09,0a1.85,1.85,0,0,0,.47,1.43,6.46,6.46,0,0,1,.62,5.61c-.13.46-.49.9-.32,1.45a5.93,5.93,0,0,0,1.34-4.45C37.18,23.76,36.73,22.31,35.22,21.4Zm-1,7.43,0,.05-.06-.05a20.3,20.3,0,0,1,.23-7.64C32.05,23.55,31.76,27.06,34.24,28.83Zm5.52,1.43a.52.52,0,0,0,.39-.41A15.72,15.72,0,0,0,40.47,27a4.82,4.82,0,0,0-2.95-4.19c.6,2.67.84,5.3-1.08,7.65A2.32,2.32,0,0,1,36,31a.58.58,0,0,0-.28.61c.2.92-.09,1.85.08,2.79.33-.8,1.07-1.18,1.58-1.77l0,0c.3-.09.61-.14.73-.5A2.5,2.5,0,0,0,39.76,30.26Zm-7.65,1.67a2.23,2.23,0,0,0,.9,1,9.49,9.49,0,0,1,1.43,2.82c.14-.14.22-.18.25-.24a5.8,5.8,0,0,0-1.15-6.38,5.09,5.09,0,0,1-1.71-4.27c0-.2,0-.4,0-.6l.06-.05,0,.06a11.59,11.59,0,0,0-1,.86,5,5,0,0,0-1.37,2.38A3.94,3.94,0,0,0,32.11,31.93ZM41.2,20.44a1.88,1.88,0,0,0,.91-1.33,6,6,0,0,0-.8-5.46,5.16,5.16,0,0,1-.89-3.11,9.79,9.79,0,0,0-.35-3.07A16,16,0,0,0,36,1.38c-.16-.16-.31-.39-.66-.3a4.27,4.27,0,0,0,.51,1.52A11.19,11.19,0,0,1,36.66,7a3.65,3.65,0,0,1-1.95,3.56,2.91,2.91,0,0,0-1.8,1.72c-1.37-.88-2.92-.93-4.34-1.42a3.62,3.62,0,0,1-2-1.53,11.6,11.6,0,0,1-1-2,13,13,0,0,1-.48-4.25c0-.36.17-.79-.24-1.08a3.22,3.22,0,0,0-.31.26,2.48,2.48,0,0,0-.26.4,9.15,9.15,0,0,0-.64,5.83A14,14,0,0,0,25,12a6.87,6.87,0,0,1,.62,4.53,14.34,14.34,0,0,0-.19,2.25,4.79,4.79,0,0,0,2,4c.6.47,1.18.95,1.75,1.45.73.63,1.35.7,1.93-.11.8-1.14,2.05-1.92,2.59-3.25.26-.64,1-.53,1.43-.9.24-.21.66.28.93.58a1.66,1.66,0,0,0,.34.23,4.41,4.41,0,0,1,1.73-2.66,4.06,4.06,0,0,0,1.45-2.78c0-.19,0-.41.29-.43.05,0,.1,0,.11.05a1,1,0,0,1,.13.32,3.64,3.64,0,0,1-1.37,3.17,6.11,6.11,0,0,0-1.94,2.82,6.4,6.4,0,0,0,2.11,1.27c.18.47.62.71.93,1.06A5.55,5.55,0,0,1,41,27.73a5.73,5.73,0,0,1-1.76,4.49c-.89.81-.87,1.18-.22,2.38l0,0c.16.91.91,1.47,1.29,2.26a.83.83,0,0,0,.5.29,7,7,0,0,1,2.24,1.34c.51.37,1,.73,1.56,1.1a1.31,1.31,0,0,0,1.55,0,7.77,7.77,0,0,0,1.66-1.36,9.58,9.58,0,0,1,5.44-3,14.77,14.77,0,0,0,6.42-3,6.32,6.32,0,0,0,2.89-5.7,18.67,18.67,0,0,1,.16-4.66,1.35,1.35,0,0,0-.13-1.12,2.77,2.77,0,0,0-.87.73,5.41,5.41,0,0,1-3.37,1.65,22.32,22.32,0,0,1-7-.38,46.28,46.28,0,0,0-4.61-1.14c-2.13-.33-4.32-.51-6,1.3-.26.28-.52.38-.79,0s-.74-.19-1.12-.25c-.41-.49-.22-.69.34-.76.93-.12,1.81-.35,2.08-1.44Zm-6.39,2.34a45.69,45.69,0,0,0-.06,5.07,2.5,2.5,0,0,0,.57,1.38C36.2,27.07,36.55,25,34.81,22.78ZM7,30.35a.94.94,0,0,0-.77,0C6.56,30.87,6.79,30.67,7,30.35Z"/><path d="M38.68,40a3,3,0,0,1,1.08,2.28,9,9,0,0,1,.06,4.14A1.58,1.58,0,0,0,40,47.66a.53.53,0,0,1-.28.79c-.27.14-.57.12-.61-.28a4.51,4.51,0,0,1,0-1.42,12.51,12.51,0,0,0-.2-5.14,9.42,9.42,0,0,1-3.19,4.62,4.68,4.68,0,0,1-1,.69c-.74.4-1.39.23-1.64-.55a4.84,4.84,0,0,0-2.21-2.7,3.67,3.67,0,0,1-1.51-1.94,6.6,6.6,0,0,0-.85-1.7.24.24,0,0,1,0-.32.27.27,0,0,1,.42,0,2.44,2.44,0,0,1,.74,1.19,4.67,4.67,0,0,0,2.39,2.83,3.7,3.7,0,0,1,1.45,2c.4.93.54,1,1.35.32A9.75,9.75,0,0,0,38.68,40Z"/><path d="M31.63,47.08a12.16,12.16,0,0,1-.56,2.31A33.71,33.71,0,0,1,29,53.9,65.74,65.74,0,0,1,25,60.7c-.6.85-1.26,1.65-1.92,2.44S21.63,64.63,21,65.47a5.47,5.47,0,0,1-.77.75.23.23,0,0,1-.32,0,.23.23,0,0,1,0-.32,9,9,0,0,1,.79-1.05,42.27,42.27,0,0,0,7.79-11.51c.65-1.27,1.31-2.54,1.84-3.87a6.53,6.53,0,0,0,.56-3c0-.19-.05-.45.19-.5s.35.24.42.45S31.58,46.84,31.63,47.08Z"/><path d="M4.76,25.74a11.94,11.94,0,0,0,1.37.42,21.28,21.28,0,0,0,7.34.3c2-.3,3.91-.65,5.87-.93a15.16,15.16,0,0,1,4.41,0,9.47,9.47,0,0,1,2.59.36c.18.08.41,0,.54.21a.52.52,0,0,1,.14.31c0,.2-.19.26-.34.24s-.45-.13-.68-.18a17.13,17.13,0,0,0-4.14-.42,24.86,24.86,0,0,0-4.61.47c-1.94.39-3.92.59-5.89.84a13.82,13.82,0,0,1-3.68-.32,7.6,7.6,0,0,1-2.21-.38c-.32-.15-.7-.19-.91-.52a.23.23,0,0,1,0-.32C4.63,25.78,4.71,25.77,4.76,25.74Z"/><path d="M19.36,67.69A22.08,22.08,0,0,0,22,67.26a2.37,2.37,0,0,0,1.25-.66,5.58,5.58,0,0,1,2.42-1.2c.17-.06.31-.08.39.1s.05.4-.1.43c-1.57.25-2.52,1.72-4.07,2.07-1.06.24-2.13.13-3.18.42A1.64,1.64,0,0,1,17,67.35a3,3,0,0,1-.28-1.63,21.71,21.71,0,0,0,0-6.78,5,5,0,0,1,.48-2.18.34.34,0,0,1,.46-.26c.21.1.23.28.12.5a5.68,5.68,0,0,0-.3,3.4c.18,1.11.11,2.22.19,3.33,0,.57-.26,1.08-.25,1.64,0,.24,0,.48,0,.72C17.5,67.39,17.81,67.7,19.36,67.69Z"/><path d="M29.28,44.91c.3.4.15.75.07,1.14a35.61,35.61,0,0,1-2.89,7.53,55.7,55.7,0,0,1-4.82,8.59L21.1,63c-.1.15-.25.23-.4.13a.33.33,0,0,1-.11-.43,6.58,6.58,0,0,1,.55-.92,68,68,0,0,0,6.71-13,20,20,0,0,0,.85-3A1.08,1.08,0,0,1,29.28,44.91Z"/><path d="M24.46,64.56a.28.28,0,0,1-.3-.31c0-.23.18-.32.33-.45A12.22,12.22,0,0,0,27.83,59c1.17-3,2.57-5.84,5-8,.33-.29.65-.59,1-.87.15-.12.35-.23.53-.06s0,.36-.09.5a5.57,5.57,0,0,1-.6.59c-2.71,2.23-4.17,5.27-5.39,8.43a12.46,12.46,0,0,1-3.57,4.84A1.4,1.4,0,0,1,24.46,64.56Z"/><path d="M37.15,47.67a26.1,26.1,0,0,1-1.09,4.09c-.94,2.83-2.72,5.18-4.35,7.62a10.68,10.68,0,0,1-2.41,2.29c-.16.13-.45.48-.72.19s.09-.5.29-.66c3.07-2.41,4.83-5.73,6.36-9.2a15.41,15.41,0,0,0,1.18-4.22,5,5,0,0,1,.23-.92.39.39,0,0,1,.22-.23c.2,0,.27.13.28.29A7.37,7.37,0,0,1,37.15,47.67Z"/><path d="M22.33,27.41a12.51,12.51,0,0,1,3.91.2,1.82,1.82,0,0,1,.35.06c.2.11.51.21.41.5s-.4.23-.62.17a12.42,12.42,0,0,0-4.84-.41,32.3,32.3,0,0,0-4.5.41h-.12c-1.84-.07-3.65.22-5.49.25-.3,0-.85.23-.89-.27s.5-.37.83-.4.79-.07,1.19-.08c2.23,0,4.45-.24,6.66-.42C20.25,27.34,21.3,27.41,22.33,27.41Z"/><path d="M19.83,56.38c.25-1,.5-2.14.88-3.23a16,16,0,0,1,3.11-5.31A32,32,0,0,0,26.27,44a6.26,6.26,0,0,1,1-1.18.29.29,0,0,1,.43,0c.14.15.06.3-.05.42a17,17,0,0,0-2,3.21,18.81,18.81,0,0,1-1.91,2.59,16.36,16.36,0,0,0-3.11,7,2.59,2.59,0,0,1-.12.58c-.07.16-.15.41-.42.33S19.84,56.67,19.83,56.38Z"/><path d="M23.45,24.27c.45.38,1.05.2,1.56.44a4.4,4.4,0,0,1,.65.26.43.43,0,0,1,.16.29c0,.2-.2.24-.35.22l-1.27-.24A19.73,19.73,0,0,0,17.92,25a58.21,58.21,0,0,1-7,.78c-.38,0-.79.14-1.2-.27A4.52,4.52,0,0,1,11.86,25c1.83-.07,3.62-.47,5.43-.67a15.67,15.67,0,0,1,3.56-.14c.87.11,1.75.08,2.63.11Z"/><path d="M28,44.9a11,11,0,0,1-.88,2.68,35.35,35.35,0,0,1-2.37,4.26,10.05,10.05,0,0,0-1.52,3.71,2.14,2.14,0,0,1-.06.35.37.37,0,0,1-.44.29.33.33,0,0,1-.24-.46,12.91,12.91,0,0,1,1.1-3.24c.71-1.15,1.41-2.3,2.06-3.48.5-.9.91-1.84,1.35-2.77a3.08,3.08,0,0,0,.29-1.38c0-.27.14-.47.44-.42S28,44.77,28,44.9Z"/><path d="M24.56,29.55a27.37,27.37,0,0,0-8.65,1.38c-.2.08-.43.12-.54-.07s.08-.48.29-.55a11.52,11.52,0,0,1,1.7-.53A44.79,44.79,0,0,1,22.53,29a16.92,16.92,0,0,1,3.56.05,3.8,3.8,0,0,1,.59.06.3.3,0,1,1-.09.6A11.49,11.49,0,0,0,24.56,29.55Z"/><path d="M25.5,30.28c.38,0,.7,0,1,0a.39.39,0,0,1,.38.39c0,.22-.19.31-.42.31H25.16a14.84,14.84,0,0,0-6.92,1.84,3.48,3.48,0,0,1-.43.22.25.25,0,0,1-.31-.11.33.33,0,0,1,0-.43,2.16,2.16,0,0,1,.4-.27,14.69,14.69,0,0,1,5.62-1.75A5.49,5.49,0,0,1,25.5,30.28Z"/><path d="M27,31.21c.22,0,.52-.05.56.29s-.26.43-.55.44a12.8,12.8,0,0,0-6.24,2.32c-.24.15-.56.56-.81.23s.21-.62.46-.79a16.16,16.16,0,0,1,6.22-2.47C26.73,31.21,26.85,31.22,27,31.21Z"/><path d="M21,56.77a2,2,0,0,1,0,1.43,10.74,10.74,0,0,1-.9,2.19,8.81,8.81,0,0,0-1.18,3.32.92.92,0,0,1-.17.44.35.35,0,0,1-.28.14.38.38,0,0,1-.24-.22,1.47,1.47,0,0,1,0-.59,12.42,12.42,0,0,1,.95-2.79,11.61,11.61,0,0,0,1.43-3.63C20.6,56.9,20.71,56.78,21,56.77Z"/><path d="M32.32,40.12a6.14,6.14,0,0,1-2.17-2,.94.94,0,0,1-.07-.22c-.36.11-.69,0-.6-.4a2.34,2.34,0,0,1,.57-1.27c.25-.25.57,0,.51.15-.19.48.54.45.38.83s.38.54.44.89a2,2,0,0,0,.68,1,1,1,0,0,1,.24,1.06Z"/><path d="M19.88,50.94a.42.42,0,0,0,.2-.52c.4,0,.55-.82.91-.53s-.15.75-.32,1.08c-.55,1.06-.68,2.27-1.29,3.3-.24.41-.44.84-.67,1.26-.1.17-.24.34-.47.22s-.14-.29-.09-.43a5.13,5.13,0,0,1,.33-.76A14.37,14.37,0,0,0,19.88,50.94Z"/><path d="M22,35.54A39.6,39.6,0,0,1,26,32.68c.18-.1.38-.25.55-.22s.72-.52.92,0-.42.45-.68.56A11.63,11.63,0,0,0,24.3,34.6a13.91,13.91,0,0,1-1.23.95C22.76,35.76,22.41,36,22,35.54Z"/><path d="M37.83,48.67a5,5,0,0,0-.17-1.83.5.5,0,0,1,0-.46.46.46,0,0,1,.37-.25c.2,0,.27.14.27.31.06,1.25.44,2.5,0,3.75-.05.15,0,.33-.11.45s-.18.29-.38.2-.28-.21-.21-.37A4.67,4.67,0,0,0,37.83,48.67Z"/><path d="M26.83,41.06c0,.23.13.54-.12.66s-.44-.14-.55-.34a2.46,2.46,0,0,1-.33-.88c-.08-.84,0-1,.92-1a1.37,1.37,0,0,0,.57,0c.28-.1.39.17.54.34s0,.22-.06.3c-.26.22-.41-.09-.63-.14-.22.29.13.48.13.74s-.25.35-.49.35l0-.1-.06,0Z"/><path d="M27.78,33.5c0,.06,0,.22-.08.28-.85.61-1.36,1.57-2.24,2.15a1.77,1.77,0,0,1-.5.32c-.24.08-.57.29-.74-.06s.24-.4.45-.52a10.47,10.47,0,0,0,1.94-1.76,3,3,0,0,1,.83-.68C27.62,33.17,27.74,33.25,27.78,33.5Z"/><path d="M23.48,24.3a7.5,7.5,0,0,0-3.05-.72c-.24,0-.48,0-.72,0s-.33-.05-.31-.27.2-.22.35-.23a9.41,9.41,0,0,1,3.76.46c.19.07.41.07.42.33s-.26.36-.48.43Z"/><path d="M32.38,34.68c-.08.12-.12.27-.21.3s-.23,0-.28-.13-.15-.36-.25-.53c-.39-.6-.5-.62-1.17-.2-.15.09-.29.14-.43,0a.3.3,0,0,1-.05-.42,3.44,3.44,0,0,1,.59-.73.5.5,0,0,1,.74,0A6.2,6.2,0,0,1,32.38,34.68Z"/><path d="M21.3,41.1a1.5,1.5,0,0,1-.31-.19.23.23,0,0,1,.06-.39,6,6,0,0,0,1.68-1.27c.08-.1.21-.07.31,0a.28.28,0,0,1,.08.41A4.49,4.49,0,0,1,21.3,41.1Z"/><path d="M36.64,36.67c.11-.57-.35-1.11.51-1.07.26,0,.17-.21.19-.33s0-.48,0-.72a.24.24,0,0,1,.16-.15.21.21,0,0,1,.27.15,2.46,2.46,0,0,1,0,1.42C37.68,36.46,37.13,36.28,36.64,36.67Z"/><path d="M21.28,39.58c0,.29,0,.44-.16.53-.37.22-.74.45-1.12.66-.22.12-.38,0-.5-.17s.05-.31.16-.39c.4-.25.82-.48,1.23-.72C21.14,39.34,21.23,39.5,21.28,39.58Z"/><path d="M32.3,40.15c.18,0,.29-.37.49-.19a7.92,7.92,0,0,1,1,1,.38.38,0,0,1-.12.53c-.14.07-.28,0-.39-.18a6.23,6.23,0,0,1-.92-1.24Z"/><path d="M28.78,43.93c-.12,0-.22,0-.28-.22s-.21-.58-.33-.87-.26-.34,0-.5.42-.06.58.15a2.92,2.92,0,0,1,.39,1.09C29.15,43.7,29,43.88,28.78,43.93Z"/><path d="M35.42,48.61a2.68,2.68,0,0,1,.07-.51c0-.13.15-.3.34-.22a.37.37,0,0,1,.17.26,3.86,3.86,0,0,1,0,.58c0,.18,0,.44-.24.45S35.44,48.89,35.42,48.61Z"/><path d="M17.21,38.91c.3-.07.55-.32.9-.24.18,0,.34.18.25.31a.91.91,0,0,1-.8.42c-.32,0-.39-.22-.35-.49Z"/><path d="M10.24,34.13c0-.15-.08-.25-.25-.25.12-.19.22-.43.47-.48s.69,0,.73.4-.35.3-.6.32Z"/><path d="M19.57,39.47a.6.6,0,0,1-.62.41c-.18,0-.32-.09-.28-.27a.52.52,0,0,1,.58-.44A.37.37,0,0,1,19.57,39.47Z"/><path d="M30.18,44.65a.48.48,0,0,1-.66-.32c-.09-.2-.09-.41.11-.52s.45,0,.52.28a2.31,2.31,0,0,1,0,.59Z"/><path d="M35.23,49.35c0,.16-.06.33-.24.32-.33,0-.28-.31-.27-.52s0-.33.26-.26S35.23,49.15,35.23,49.35Z"/><path d="M17.21,38.91l-.11,0c-.23,0-.49.08-.55-.25,0-.13.09-.21.21-.24.39-.08.5.12.45.46Z"/><path d="M30.16,44.68a1.29,1.29,0,0,1,.41.19.28.28,0,0,1,0,.42.23.23,0,0,1-.2.07c-.2,0-.22-.19-.21-.35s0-.24,0-.36Z"/><path d="M36.37,36.76c.1,0,.25.07.17.27a.36.36,0,0,1-.36.2.22.22,0,0,1-.22-.3C36,36.76,36.15,36.72,36.37,36.76Z"/><path d="M52.54,25.74c-1.92.18-3.93-.34-6-.28a11.55,11.55,0,0,0-3.66.37c-.22.08-.38.12-.47-.12a.35.35,0,0,1,.24-.47,8.33,8.33,0,0,1,2.79-.5,49.26,49.26,0,0,1,5.94.41,13.28,13.28,0,0,0,6.76-.95c.32-.14.76-.6,1,0,.17.42-.4.46-.7.61A11.49,11.49,0,0,1,52.54,25.74Z"/><path d="M42.23,26.77a.65.65,0,0,1,.66-.57,12.89,12.89,0,0,1,4-.11,23,23,0,0,0,4.37.5,38.32,38.32,0,0,0,4.27-.31c.46-.05,1.17-.33,1.25.14s-.65.43-1.09.52a22.3,22.3,0,0,1-4.16.24,15.87,15.87,0,0,1-3.44-.27,13.8,13.8,0,0,0-5.32,0,.89.89,0,0,1-.36,0C42.36,26.89,42.3,26.82,42.23,26.77Z"/><path d="M46.15,23.29a18,18,0,0,1,3.81.4,27,27,0,0,0,3,.1c.24,0,.48,0,.72,0s.53,0,.5.35-.25.39-.52.39a17.34,17.34,0,0,1-2.39-.05A48.15,48.15,0,0,0,46.16,24a7.26,7.26,0,0,0-4,.68.33.33,0,0,1-.51-.09c-.12-.22,0-.39.19-.49a6.57,6.57,0,0,1,2.84-.79C45.1,23.26,45.58,23.29,46.15,23.29Z"/><path d="M44.83,27.88c-.65.07-1.26-.11-1.82.2a.29.29,0,0,1-.4-.16.33.33,0,0,1,.22-.47,6.32,6.32,0,0,1,2-.24c1.65.22,3.28.44,4.9.82a10,10,0,0,0,3.69,0c.11,0,.22-.1.33-.12a.32.32,0,0,1,.41.31.31.31,0,0,1-.24.36,9.86,9.86,0,0,1-3.9.19c-1.31-.26-2.62-.57-3.93-.81A9.24,9.24,0,0,0,44.83,27.88Z"/><path d="M41.78,30.52c1.19.31,2.32.79,3.48,1.13.21.06.56.05.46.39s-.4.21-.62.17a7,7,0,0,1-1-.25A10.79,10.79,0,0,0,41,31.18c0-.5.52-.71.44-1.19,0-.19.29-.21.48-.22a5,5,0,0,1,2.34.27,5.27,5.27,0,0,0,2.06.52c.27,0,.66,0,.65.35s-.46.32-.74.34a5.41,5.41,0,0,1-2.05-.53A2.83,2.83,0,0,0,41.78,30.52Z"/><path d="M43,28.56a5.18,5.18,0,0,1,2.21.37,11.76,11.76,0,0,0,4.32.61,2.38,2.38,0,0,1,.59,0c.06,0,.13.08.16.14a.21.21,0,0,1-.13.29,2.71,2.71,0,0,1-1.28.24c-1-.18-2-.17-2.93-.42-1.27-.34-2.53-.94-3.92-.58a.27.27,0,0,1-.32-.27c0-.19.06-.34.23-.36C42.29,28.57,42.65,28.58,43,28.56Z"/><path d="M46.21,22.4c-.17.3-.47.21-.72.21-1.44,0-2.86.05-4,1.09a.25.25,0,0,1-.33,0,.3.3,0,0,1-.1-.41,1.55,1.55,0,0,1,.7-.62,7.22,7.22,0,0,1,4.15-.57c.11,0,.2.11.29.18S46.2,22.34,46.21,22.4Z"/><path d="M40.61,31.6a18.11,18.11,0,0,1,3.58,1.33.23.23,0,0,1,.14.29c0,.19-.21.2-.37.21a2,2,0,0,1-.9-.28,16.7,16.7,0,0,0-2.56-.94c-.22,0-.55,0-.46-.35S40.36,31.56,40.61,31.6Z"/><path d="M42.11,35.11a.65.65,0,0,1-.52-.23,3.69,3.69,0,0,0-2.06-1.29c-.22,0-.3-.25-.21-.46a.36.36,0,0,1,.5-.18,3.85,3.85,0,0,1,1.34.71c.36.36.76.69,1.13,1a.21.21,0,0,1,0,.31C42.26,35.06,42.18,35.07,42.11,35.11Z"/><path d="M52,34.88c0,.2,0,.41-.28.43s-.62-.37-.85.18c-.08.19-.36,0-.48-.15s-.14-.47.08-.47c.57,0,.37-.32.3-.61a.28.28,0,0,1,.19-.37c.18,0,.29.08.38.21s.28.58.6.71Z"/><path d="M39.05,34.6c.07-.36.25-.63.65-.44a2.55,2.55,0,0,1,1.21,1.11.32.32,0,0,1-.07.43c-.15.12-.29,0-.42-.06-.43-.41-.76-.94-1.39-1.07Z"/><path d="M43.56,37.25s.1,0,.12,0c.45.47.93.93,1.34,1.44.1.12-.16.25-.32.23a2,2,0,0,1-1.33-1.4A.28.28,0,0,1,43.56,37.25Z"/><path d="M61.51,25.75c.08.07.18.1.2.17a3.14,3.14,0,0,1,.35,1.34c0,.1-.13.19-.22.26s-.23,0-.29-.1A2.39,2.39,0,0,1,61.27,26C61.27,25.89,61.43,25.82,61.51,25.75Z"/><path d="M61.24,29.07c-.12,0-.26,0-.3-.12q-.15-.51-.27-1a.23.23,0,0,1,.17-.27.28.28,0,0,1,.22,0A1.26,1.26,0,0,1,61.43,29C61.4,29,61.31,29,61.24,29.07Z"/><path d="M60.18,30c0-.26-.12-.61.27-.68s.39.21.44.45-.11.51-.46.48l-.06-.05L60.15,30Z"/><path d="M59.69,31.45a.38.38,0,0,1-.52.25.33.33,0,0,1-.28-.43.28.28,0,0,1,.35-.23A.61.61,0,0,1,59.69,31.45Z"/><path d="M45.8,38c0,.33-.07.59-.45.39s-.58-.29-.44-.69a.24.24,0,0,1,.37-.12c.16.11.3.24.45.36Z"/><path d="M45.73,37.92c0-.66.39-.54.78-.34.1,0,.22.15.14.28a.48.48,0,0,1-.27.18A3.8,3.8,0,0,1,45.8,38Z"/><path d="M47.43,37.26c0,.18-.1.33-.28.32s-.38-.1-.39-.35.12-.2.23-.22S47.38,37,47.43,37.26Z"/><path d="M60.43,30.29c0,.25,0,.48-.37.45a.32.32,0,0,1-.32-.27.42.42,0,0,1,.44-.43l0,0,.22.22Z"/><path d="M52,34.81c0-.26,0-.53.36-.43s.47.23.3.52-.4.06-.6,0Z"/><path d="M29,18.28a1.5,1.5,0,0,1-1.91-.8c-1-2.25.31-5.37,2.89-5.76a1.06,1.06,0,0,1,.35,0,.36.36,0,0,1,.29.33.23.23,0,0,1-.21.24,2.33,2.33,0,0,0-1,.3,3,3,0,0,0-1.86,2.68c0,.28,0,.56,0,.84A1.71,1.71,0,0,0,28.64,18,2,2,0,0,1,29,18.28Z"/><path d="M35.53,10.81c1.29,0,3.73,1.26,4,3.18,0,.25.27.58-.17.67s-.31-.24-.39-.46a3.71,3.71,0,0,0-1.33-1.91,3.4,3.4,0,0,0-3-.62c-.27.08-.48.11-.56-.18s.14-.38.33-.4C34.81,11,35.15,10.77,35.53,10.81Z"/><path d="M31.15,22.72c-.15.45-.46.34-.65.48-1,.77-1.08.77-2,.15a3.17,3.17,0,0,1-1.14-1.19c-.14-.26-.19-.47-.53-.52s-.28-.27-.14-.45.32-.16.49,0,.5.4.7.64.42.76.9.27C29.44,22.63,30.35,22.38,31.15,22.72Z"/><path d="M41.23,20.41a1,1,0,0,0-.28.2,1.68,1.68,0,0,1-2.08.65c-.2-.05-.43,0-.44-.25s.26-.47.35-.42c.48.28.88-.91,1.38-.06a6,6,0,0,0,.46-.62c.16-.22.28-.56.62-.4s0,.46,0,.7c0,.07,0,.15,0,.23Z"/><path d="M30.17,19a3.72,3.72,0,0,1,2.58,1.76c.11.22.15.5-.09.63s-.37-.08-.46-.26a3.44,3.44,0,0,0-2.26-1.56c-.2-.07-.53-.05-.46-.39S29.78,19,30.17,19Z"/><path d="M33.74,15.53a1.63,1.63,0,0,1,2.39.47.26.26,0,0,1,0,.21.27.27,0,0,1-.41.07A4.85,4.85,0,0,0,33.74,15.53Z"/><path d="M30.43,13.94a1,1,0,0,1,.87-.72,3.53,3.53,0,0,1,1.41.06.31.31,0,0,1,.18.39c0,.1-.11.29-.21.23C32,13.45,31.25,14.14,30.43,13.94Z"/><path d="M36.19,14.35c0,.24-.17.37-.31.29a2.78,2.78,0,0,0-1.36-.21.29.29,0,0,1-.32-.27.36.36,0,0,1,.22-.37,1.77,1.77,0,0,1,1.65.29C36.15,14.15,36.16,14.28,36.19,14.35Z"/><path d="M32.05,14.3c.1,0,.26.1.28.33a.27.27,0,0,1-.3.29c-.56,0-1,.32-1.43.51a.29.29,0,0,1-.39-.17.38.38,0,0,1,.08-.32A2.71,2.71,0,0,1,32.05,14.3Z"/><path d="M35,12.71a2.42,2.42,0,0,1,.47.06c.1,0,.23.08.21.24s-.1.24-.21.23a3.51,3.51,0,0,0-1.58.45.3.3,0,0,1-.29-.11.32.32,0,0,1,0-.31A1.5,1.5,0,0,1,35,12.71Z"/><path d="M34.07,19.08c0,.28,0,.43-.2.45a.35.35,0,0,1-.29-.13,3.1,3.1,0,0,1-.42-1.32c0-.19.15-.28.31-.29a.36.36,0,0,1,.27.17C33.88,18.36,34,18.77,34.07,19.08Z"/><path d="M35.24,18.16a.32.32,0,0,1-.18.33c-.15.06-.28,0-.35-.21-.14-.37-.32-.73-.46-1.1a.34.34,0,0,1,.13-.3.37.37,0,0,1,.32.05A1.81,1.81,0,0,1,35.24,18.16Z"/><path d="M32.82,17.81a.76.76,0,0,1-.37.8.27.27,0,0,1-.21-.08c-.29-.3-.17-.64-.06-1a1,1,0,0,1,.1-.21c.06-.15.15-.28.34-.24s.19.22.2.37S32.82,17.62,32.82,17.81Z"/><path d="M31.22,17.05c-.06-.05-.16-.08-.18-.14-.1-.37.17-.58.38-.81a.47.47,0,0,1,.52-.19.29.29,0,0,1,.14.18C32.14,16.39,31.51,17.09,31.22,17.05Z"/><path d="M33.07,32.89c0-.61-.46-.83-1-.93-.35-.37-.55-.82-1.11-1.1a2,2,0,0,1-.84-2,.34.34,0,0,1,.19-.26.24.24,0,0,1,.32.24,2.55,2.55,0,0,0,.28.9c.1.26.21.52.57.3a.2.2,0,0,1,.31.07c.38.83,1.16,1.34,1.66,2.07C33.68,32.54,33.64,32.92,33.07,32.89Z"/><path d="M39.78,30.29a5.9,5.9,0,0,0-1.4,1.28c-.1.21-.19.42-.28.64-.18-.09-.43-.16-.44-.36a1.07,1.07,0,0,1,.38-.94.9.9,0,0,0,.52-.93s0-.1,0-.11c.9-.46.66-1.35.81-2.1,0-.15.14-.31.3-.28a.39.39,0,0,1,.31.33A7.36,7.36,0,0,1,39.78,30.29Z"/><path d="M37.38,32.66c-.29,0-.84.24-.58-.46a.34.34,0,0,1,.47-.22c.4.19.1.47.08.7Z"/></g></g></svg>