<svg xmlns="http://www.w3.org/2000/svg" viewBox="0 0 68.41 74.7"><title>Clio</title><g id="Layer_2" data-name="Layer 2"><g id="Clio"><path d="M34.29,6.07c.29-.4.54-.75.82-1.09A4.45,4.45,0,0,1,38.24,3.2a4.38,4.38,0,0,0,2.51-1C42.31.92,44.2.65,46.07.29A19,19,0,0,1,50.72,0a11.24,11.24,0,0,1,8.21,3.79,2.55,2.55,0,0,0,1.19,1c1.24.28,1.68,1.27,2.14,2.23a21.18,21.18,0,0,1,.93,2.32,7.82,7.82,0,0,0,3.3,4.12,2.36,2.36,0,0,1,1.25,1.65c.13,1,.61,1.91.65,2.91.07,2,.09,4.1-1.8,5.52a2.7,2.7,0,0,0-.89,1.38,6.47,6.47,0,0,1-5.2,4.41c-1.09.23-1.3.11-1.94-.89-.41-.64-.8-1.29-1.24-1.91a2.59,2.59,0,0,0-2.93-1.27,4.16,4.16,0,0,1-2.7,0,1.33,1.33,0,0,1-1-1.33c0-.56,0-1.13,0-1.68-.09-1.28-.74-1.81-2-1.52a21.92,21.92,0,0,0-3.37.62,2.47,2.47,0,0,1-2.23-.6,6.65,6.65,0,0,0-2.72-1.13A3.52,3.52,0,0,0,37,21.17c-.12.2-.17.4,0,.54.59.46,1,1.13,1.75,1.43a2.27,2.27,0,0,0,2.06.16,1.37,1.37,0,0,1,1.63.35,8.78,8.78,0,0,0,1,1A3.18,3.18,0,0,1,45,27.68c-.08,1.92,1,3.22,2.3,4.37a11,11,0,0,0,2.79,1.84c.73.31,1.54.38,2.27.71.26.12.54.16.57.51s-.2.41-.4.54c-4.59,2.92-7.37,7.34-9.87,12A68.29,68.29,0,0,0,36,66.31a33.23,33.23,0,0,0-.82,5.79c0,.64-.17,1.27-.21,1.9s-.27.7-.76.7-.7-.24-.75-.72c-.13-1.31-.25-2.62-.41-3.92a57.32,57.32,0,0,0-1.74-8.41,64.59,64.59,0,0,0-8-18.2,26.34,26.34,0,0,0-5.79-6.66c-.54-.42-1.12-.77-1.67-1.17s-.49-.71.16-1a25.44,25.44,0,0,0,3.22-1.19,12.31,12.31,0,0,0,3.46-3.08,3.67,3.67,0,0,0,.7-2c0-.28,0-.56,0-.84a3.16,3.16,0,0,1,1.46-2.83,9.61,9.61,0,0,0,1.05-1,1.42,1.42,0,0,1,1.62-.41c1.16.52,2.07,0,3-.71l.17-.17c1.09-1,1.11-1.1-.05-2a2.94,2.94,0,0,0-2.77-.68,7.28,7.28,0,0,0-2.38,1,3.34,3.34,0,0,1-3.38.45,13.29,13.29,0,0,0-3.16-.41c-.54-.07-.86.31-1.06.79a3.39,3.39,0,0,0-.15,1.78c.27,1.88-1,2.2-2.45,2.19A6.17,6.17,0,0,1,14,25.25a2.55,2.55,0,0,0-2.84,1.23c-.51.72-.95,1.47-1.41,2.22a1.33,1.33,0,0,1-1.51.68A6.52,6.52,0,0,1,2.8,25.1a4.35,4.35,0,0,0-1.25-1.84A4.88,4.88,0,0,1,.06,20.1c-.26-1.73.35-3.3.61-4.93a2.27,2.27,0,0,1,1.14-1.61A8.36,8.36,0,0,0,5.41,9,13.26,13.26,0,0,1,6.86,5.82,2.11,2.11,0,0,1,8,4.89a2.87,2.87,0,0,0,1.43-1A11.41,11.41,0,0,1,17.79,0a25.28,25.28,0,0,1,7.1.77,4.65,4.65,0,0,1,1.86.78A7.58,7.58,0,0,0,30.6,3.32,4.65,4.65,0,0,1,33.75,5.5C33.89,5.68,34,5.93,34.29,6.07Zm2.33,24.45a.19.19,0,0,0,.19-.22s-.08-.06-.12-.09l0,.33-.08.05a.1.1,0,0,0,0,.05Zm-4.8,0,.06.08,0,0-.12-.09-.05-.34s-.11.05-.12.08A.2.2,0,0,0,31.82,30.52Zm-1,3.38.06.08H31l-.14,0a.47.47,0,0,0,0-.43,1.86,1.86,0,0,0-.11-.19c0,.06-.11.11-.13.17A.3.3,0,0,0,30.85,33.9Zm6.74,0c.08-.07.2-.12.23-.21a.29.29,0,0,0-.14-.38,1.94,1.94,0,0,0-.13.3,1.28,1.28,0,0,0,.06.32l-.14,0h.06Zm-.24,3.35.33-.13a.42.42,0,0,0,.32-.54c0-.11-.09-.22-.24-.16s-.42.22-.41.51c0,.11,0,.23,0,.35Zm-6.26,0,.07,0-.1,0c.09-.38.06-.71-.37-.86-.15-.06-.22,0-.24.16C30.35,37.1,30.79,37.11,31.09,37.26ZM33.49,13c0-.13,0-.3-.13-.36s-.22.17-.21.22.24.09.37.11l.78.72c0-.42.46-.43.63-.72.12,0,.31,0,.34-.14s-.14-.15-.22-.23L35,13c-.12,0-.29,0-.33,0-.29-.4-.53-.46-.81,0C33.78,13.05,33.6,13,33.49,13Zm-.48.73c-.07-.07.08-.33-.15-.22-.08,0,.08.15.18.19.18.24.56.35.49.75-.2,0-.38,0-.43.22,0,0,.07.16.11.16.28,0,.24-.24.3-.41a4.89,4.89,0,0,0,1.43,0c.05.17,0,.41.29.41,0,0,.12-.12.11-.16,0-.25-.23-.25-.43-.22-.07-.41.32-.51.49-.75,0-.07.28,0,.1-.18l-.07.2c-.58-.27-.69.48-1.15.53S33.61,13.48,33,13.77Zm6,5a15.25,15.25,0,0,1,2,.14,9.93,9.93,0,0,0-1.91-2.09A5.05,5.05,0,0,0,37.43,16c-.62-.16-.82-.08-.94.54-.2,1-.52,2-.8,3a3.92,3.92,0,0,0,.16,3A3.79,3.79,0,0,1,37.08,20a.92.92,0,0,0,.5-.49A7.49,7.49,0,0,0,39,18.77Zm-8.13.69a.87.87,0,0,0,.49.49,4.44,4.44,0,0,1,1.28,2.5,4.41,4.41,0,0,0,0-3.31c-.23-.83-.51-1.66-.67-2.52s-.33-.84-1.08-.62c-1.52.46-2.49,1.58-3.56,3.05a5.79,5.79,0,0,1,2.1-.28l0,0A7.58,7.58,0,0,0,30.87,19.48ZM25.34,20c1.23-.85,1.89-2.23,3.17-3.24a2.55,2.55,0,0,1-1.42-.82,1.18,1.18,0,0,0-1.51-.25,1.73,1.73,0,0,1-1.71.06,4,4,0,0,0-.91-.25c-.35-.06-.67,0-.7.45,0,.66-.55,1-1.1,1.51a2.57,2.57,0,0,1,.56.37c.5.67,1.05,1.33.58,2.27-.18.35.14.55.4.57a2.43,2.43,0,0,0,2-.31c-.48-.2-.86.23-1.3.14-.23-.05-.52-.38-.41-.4.64-.14.54-1.09,1.26-1.06.28,0,.69,0,.71-.29,0-.87,1-.7,1.3-1.29.07-.15.37-.15.51.06s0,.39-.17.48c-.83.42-1,1.24-1.28,2l-.07,0ZM43.1,20l0,.07L43.08,20a3,3,0,0,0-1.27-2c-.17-.09-.33-.25-.18-.48a.32.32,0,0,1,.51-.06c.36.34,1.08.55,1.14.84.14.75.57.74,1.1.76.17,0,.38.11.35.26-.07.39.16.42.43.5s.3.24.28.33a.48.48,0,0,1-.43.35c-.44.08-.82-.33-1.3-.14a2.4,2.4,0,0,0,2,.32c.33,0,.59-.28.38-.69-.35-.68,0-1.22.32-1.78.2-.33.59-.52.69-.93a2.25,2.25,0,0,1-.91-1.09c-.27-.78-.29-.76-1.06-.57s-1.53.56-2.29.08a1.15,1.15,0,0,0-1.5.24,3.14,3.14,0,0,1-1.39.85C41.21,17.73,41.88,19.1,43.1,20ZM26.83,47.06a14.71,14.71,0,0,0-.94-1.91c-.91-2-1.89-4-1.78-6.33a1,1,0,0,0-.11-.58,15.21,15.21,0,0,0-1.92-3,2,2,0,0,0-1.47-.63,12.21,12.21,0,0,0-3.5.58,29.51,29.51,0,0,1,6.81,7.39c1,1.49,1.8,3.08,2.81,4.56a6.51,6.51,0,0,0,.31.77,69.82,69.82,0,0,1,6.52,19.25c.2,1.11.38,2.23.58,3.34.1,0,.17,0,.17,0,.11-.62.23-1.25.33-1.87a69.12,69.12,0,0,1,4.5-15.81c.79-1.91,1.77-3.74,2.58-5.65a6,6,0,0,0,.39-.59c2.41-4.29,5.12-8.34,9.2-11.32a7.56,7.56,0,0,0-2.17-.56c-1.88-.33-2.65.07-3.63,1.72-.26.44-.52.89-.8,1.32a2.42,2.42,0,0,0-.39,1.46,10.38,10.38,0,0,1-.86,3.91c-.53,1.36-1.27,2.63-1.84,4a11.85,11.85,0,0,0-1.51,2.66A46.72,46.72,0,0,0,35.89,61.3c-.24,1.1-.88,1.75-1.67,1.76a1.78,1.78,0,0,1-1.64-1.76A12.36,12.36,0,0,0,32,59.11,41.06,41.06,0,0,0,29.42,52,27.15,27.15,0,0,0,26.83,47.06ZM38.55,51.2c-.59-.26-.63-.42-.26-1.07.26-.46.3-.45.75.1a.19.19,0,0,0-.2.22s.07.06.11.09L39,50.2a54.47,54.47,0,0,0,4-7.78A4.2,4.2,0,0,0,43.49,40c-.94,1.52-1.64,3-2.38,4.52-.1.19-.19.53-.49.4s-.21-.41-.12-.64.26-.58.41-.87c.72-1.37,1.42-2.76,2.19-4.1.94-1.65.4-3.17-.22-5-.27.69-.42,1.11-.61,1.53a.33.33,0,0,1-.39.2c-.25-.07-.24-.28-.17-.48A13.75,13.75,0,0,1,42.23,34a.83.83,0,0,0-.17-1c-.61-.73-1.2-1.48-1.78-2.25-.4-.53-.77-1.09-1.15-1.64-.16-.23-.17-.48.07-.63s.4.06.45.24a5.46,5.46,0,0,0,1.14,1.66,7.06,7.06,0,0,0,1.81,2.05,1.1,1.1,0,0,0,0-1.59c-.53-.6-1-1.28-1.46-1.91a1.47,1.47,0,0,0-1.06-.72,4.34,4.34,0,0,1-1.93-.55c.15,1.66.39,3.2.4,4.73a60.83,60.83,0,0,1-.42,10.27c-.39,2.35-.8,4.69-1.16,7-.28,1.82-1,3.5-1.42,5.27-.13.53-.3,1.06-.48,1.58a.86.86,0,0,1-.89.66.88.88,0,0,1-.78-.65,14.66,14.66,0,0,1-.5-1.59c-.39-1.69-1.09-3.3-1.36-5-.34-2.12-.79-4.22-1.11-6.33a37.89,37.89,0,0,1-.51-4.75,89.23,89.23,0,0,1,.2-9.81c0-.43.42-.87.08-1.39-.39.22-.71.54-1.12.5a2.34,2.34,0,0,0-2.15,1.26c-.36.48-.68,1-1.08,1.44s-.38,1,0,1.62a6.45,6.45,0,0,0,.94-.95,20.15,20.15,0,0,0,2-2.81c.08-.18.24-.37.47-.22a.39.39,0,0,1,.11.53,3,3,0,0,1-.2.29,34.21,34.21,0,0,1-2.72,3.62.91.91,0,0,0-.18,1.17,9.34,9.34,0,0,1,.49,1.58.34.34,0,0,1-.11.31c-.14.12-.3,0-.41-.09-.34-.37-.29-.94-.63-1.4A3.1,3.1,0,0,0,25,36.17a4.5,4.5,0,0,0,.43,3.22c.83,1.35,1.53,2.79,2.26,4.21a1.64,1.64,0,0,1,.33,1c0,.1-.08.25-.16.28a.33.33,0,0,1-.31-.1c-.17-.27-.3-.56-.45-.84a36.86,36.86,0,0,0-2.15-4A2.79,2.79,0,0,0,25,41a18.66,18.66,0,0,0,2,4.8c.87,1.45,1.48,3.05,2.45,4.44l.06.34s.11-.06.12-.09a.2.2,0,0,0-.21-.22c.45-.55.5-.57.74-.1a1.23,1.23,0,0,1,.25.75c0,.33-.26.31-.49.32-.07,0,0-.26-.15-.12l.18.09c0,.12,0,.33,0,.34.69.12.83.45.5,1.07-.08.14.12.44.21.66a41.23,41.23,0,0,1,2.47,7.66,3.18,3.18,0,0,0,.46,1.22.72.72,0,0,0,1.22,0,3.17,3.17,0,0,0,.38-.86c.23-.72.32-1.47.53-2.19a42.54,42.54,0,0,1,2.13-6c.23-.47-.11-.74,0-1.12s.91-.06.71-.73a.24.24,0,0,0,.1-.05s0,0,0-.06Zm-16.83-36a.3.3,0,0,0,.25-.25,1.81,1.81,0,0,1,1.59,0,2.33,2.33,0,0,0,1.85.08,1.93,1.93,0,0,1,2.11.4c.11.11.26.19.38.29a1.29,1.29,0,0,0,1.74.14,2.63,2.63,0,0,1,1.22-.46c.76-.06,1.07-.55,1.16-1.25a4,4,0,0,1,1.35-2.58,1.61,1.61,0,0,0,.52-1.62,11.91,11.91,0,0,1-.16-1.79A4.07,4.07,0,0,0,30.19,4a7.77,7.77,0,0,1-3.35-1.41,6.65,6.65,0,0,0-2.49-1.1c-1-.2-2-.36-2.92-.53A14.53,14.53,0,0,0,16.78.87a10.24,10.24,0,0,0-6.7,3.55A2.81,2.81,0,0,1,8.7,5.52,2.72,2.72,0,0,0,6.9,7.3c-.36.79-.64,1.61-1,2.42a7.69,7.69,0,0,1-2.58,3.66c-1.13.8-2.23,1.59-2,3.21a5.92,5.92,0,0,0-.43,3.27A3.75,3.75,0,0,0,2.1,22.73,5.55,5.55,0,0,1,3.59,25a5.56,5.56,0,0,0,4.19,3.55c.84.22,1,.09,1.55-.64a25.13,25.13,0,0,1,1.54-2.27,3.23,3.23,0,0,1,3.19-1.14,4.59,4.59,0,0,0,1.76.26c.95-.18,1.3-.27,1.17-1.36a5.48,5.48,0,0,1,0-1.07,2.21,2.21,0,0,1,3-2.26,3.82,3.82,0,0,0,.94.14c.69,0,.93-.28.87-1A2.36,2.36,0,0,0,21.05,18c-.44-.55-.45-.84,0-1.34A2.15,2.15,0,0,0,21.72,15.17Zm24.75-.25a.3.3,0,0,0,.25.25,2.05,2.05,0,0,0,.64,1.48c.49.51.48.82,0,1.34a3.11,3.11,0,0,0-.64,1c-.25.8.11,1.25.94,1.21a9.87,9.87,0,0,0,1.06-.2,2.15,2.15,0,0,1,2.69,1.84,4.25,4.25,0,0,1,0,1.55c-.17,1.18.35,1.19,1.16,1.35a3.51,3.51,0,0,0,1.06-.11,5.1,5.1,0,0,1,2-.18,4.13,4.13,0,0,1,2.41,1.83c.35.53.69,1.07,1,1.61.5.76.7.87,1.54.66A5.56,5.56,0,0,0,64.85,25a5.18,5.18,0,0,1,1.49-2.25,3.21,3.21,0,0,0,1.17-2.16,6.91,6.91,0,0,0-.31-3.89,1.22,1.22,0,0,1-.12-.57A2.26,2.26,0,0,0,65.84,14a8.3,8.3,0,0,1-3.37-4.37c-.27-.79-.59-1.56-.93-2.32s-.63-1.38-1.35-1.6A4.86,4.86,0,0,1,58,4.07,10.48,10.48,0,0,0,50.47.8a20.35,20.35,0,0,0-4,.22A11,11,0,0,0,41.2,2.83,6,6,0,0,1,38.37,4,3.87,3.87,0,0,0,34.86,7.2c-.2,1.1-.25,2.22-.34,3.32a1,1,0,0,0,.38.85,4.74,4.74,0,0,1,1.61,3.11.93.93,0,0,0,.84.84A4.48,4.48,0,0,1,39,16a1.08,1.08,0,0,0,1.24-.06,4.6,4.6,0,0,0,.67-.49A1.93,1.93,0,0,1,43,15a2.33,2.33,0,0,0,1.85-.08A1.81,1.81,0,0,1,46.47,14.92ZM39.2,27.16a3,3,0,0,1,1.95.45.32.32,0,0,0,.51-.11,6.25,6.25,0,0,0,.69-2.14A1.07,1.07,0,0,0,41,24.27a1.77,1.77,0,0,1-.58.12.77.77,0,0,0-.94.92C39.52,25.94,39.14,26.44,39.2,27.16Zm-9.86,0A5.43,5.43,0,0,1,29,25.8a2.09,2.09,0,0,0-.16-1.12c-.27-.47-.82-.16-1.19-.37a.88.88,0,0,0-1.16.18,1.23,1.23,0,0,0-.34,1.31c.14.53.4,1,.58,1.55a.4.4,0,0,0,.66.23A3.06,3.06,0,0,1,29.34,27.18Zm-4-1.58a1.41,1.41,0,0,0-.95,1.56,7.25,7.25,0,0,1-.29,2.36c-.1.38-.31.73-.42,1.12-.06.21-.1.51.16.64a.52.52,0,0,0,.63-.23c.65-.86,1.29-1.72,1.9-2.61.13-.18.2-.5,0-.66C25.75,27.22,25.77,26.37,25.36,25.6Zm17.73,0c-.23.58-.41,1.14-.65,1.66-.5,1.05-.51,1.05.17,2,.3.43.59.86.9,1.27a4.14,4.14,0,0,0,.55.63.43.43,0,0,0,.53.13c.2-.12.17-.35.16-.55a.86.86,0,0,0-.09-.34A7.11,7.11,0,0,1,44,27,1.43,1.43,0,0,0,43.09,25.59Zm3.17,8.86a11.14,11.14,0,0,1-1.66-1.73,1.05,1.05,0,0,0-.64-.49c-.2,0-.45-.12-.53.11s-.47.74-.26,1.13A14.51,14.51,0,0,1,44.35,37,11,11,0,0,1,46.26,34.45ZM24.05,36.94c.37-.63.26-1.31.54-1.89s.45-1,.64-1.53c.12-.32-.12-1.23-.34-1.29a.93.93,0,0,0-1,.44,13.09,13.09,0,0,1-1.65,1.78A11.12,11.12,0,0,1,24.05,36.94ZM37,44.83a7.4,7.4,0,0,1-5.53,0c0,.78,0,.81.37,1a5.2,5.2,0,0,0,4.82,0A.66.66,0,0,0,37,44.83ZM34.2,43.24a5.87,5.87,0,0,0,3.07-.86.45.45,0,0,0,.25-.59c-.16-.36-.38-.06-.58,0l-.89.28a4.13,4.13,0,0,1-3,.22c-.59-.22-1.19-.41-1.78-.63-.11,0-.22-.09-.31,0a.36.36,0,0,0,0,.44,1.47,1.47,0,0,0,.46.36A5.56,5.56,0,0,0,34.2,43.24Zm-3-.05c-.18.39-.13.59.22.82a5.73,5.73,0,0,0,4.23.54,3.3,3.3,0,0,0,1.4-.6c.3-.2.27-.44.11-.77A6.75,6.75,0,0,1,31.24,43.19Zm.59-20.39c-.77.38-1.12,1.06-1.79,1.23s-.65.63-.6,1.1a5,5,0,0,0,.32,1.13c.06.17.15.39.4.37a.55.55,0,0,0,.44-.35,5.37,5.37,0,0,1,.72-1.34A2.46,2.46,0,0,0,31.83,22.8Zm4.79,0c0,.91-.13,1.6.5,2.15.17.15.23.41.37.6.28.39.23,1.2.88,1.09s.33-.9.6-1.33c.11-.17,0-.47,0-.7a.39.39,0,0,0-.24-.38C38,24,37.46,23.3,36.62,22.76ZM31.83,48.09c.13.42.13.75.48.91a4.54,4.54,0,0,0,2.2.43c1.39-.1,1.8-.39,2-1.3A11.48,11.48,0,0,1,31.83,48.09Zm5.92-8.16a8.74,8.74,0,0,0-2.4,1.22c-.93.67-1.33.65-2.3,0-.2-.14-.38-.29-.58-.42a6,6,0,0,0-1.82-.78c.36,1.1,2.08,1.91,3.71,1.85S37.51,41,37.75,39.93ZM34.42,37a6.82,6.82,0,0,0,1.39-.43c.55-.19.1-.52.15-.78s-.1-.24-.51-.09a3.42,3.42,0,0,1-2.44,0c-.43-.15-.54-.12-.53.08s-.35.7.25.84A5.22,5.22,0,0,0,34.42,37ZM37,46.58c-1,.11-1.81.53-2.67.54a10.83,10.83,0,0,1-2.75-.6c.48,1.31,1.57,1.17,2.42,1.22C35,47.82,36.18,47.86,37,46.58ZM34.36,35.33a3.66,3.66,0,0,0,1.2-.35c.21-.07.64-.1.5-.52s-.4-.23-.67-.12a3.12,3.12,0,0,1-2.29,0l-.21-.1a.33.33,0,0,0-.49.16c-.12.23,0,.36.22.44A4.52,4.52,0,0,0,34.36,35.33ZM32.29,49.76a.65.65,0,0,0,.54.85,8.73,8.73,0,0,0,2.84,0,.57.57,0,0,0,.46-.8A7.36,7.36,0,0,1,32.29,49.76Zm3.61,1.56H32.6C33.35,52.7,34.9,52.73,35.9,51.32Zm0-14a7.1,7.1,0,0,1-3.24,0C33.57,38.87,34.84,38.89,35.86,37.33Zm.3-4.52a11.57,11.57,0,0,1-2,.41c-.63,0-1.17-.34-1.85-.34.39.91,1.15,1,1.9,1A1.8,1.8,0,0,0,36.16,32.81Zm.09-1a7,7,0,0,0-2,.22c-.63,0-1.19-.49-1.85-.17A3,3,0,0,0,36.25,31.82Zm-.43-3.42,0-.28H32.89c-.14,0-.23,0-.25.15a.24.24,0,0,0,.14.29A3.13,3.13,0,0,0,35.82,28.4Zm-3.39,2.49c1.85.74,2,.74,3.47-.16C35,30.61,34,31,33.05,30.6,33,30.55,32.72,30.75,32.43,30.89Zm3.08-13.46c-.77.24-.88-.48-1.41-.87-.13.64-.63.81-1.22,1A1.9,1.9,0,0,0,35.51,17.43Zm-1.22,2.81c.31,0,.66,0,.67-.61s-.48-.53-.71-.79c-.07-.09-.77.53-.79.7C33.42,20,33.64,20.22,34.29,20.24ZM45.43,31.41c-.25.54-.25.54,0,.8,1.11,1.35,1.32,1.48,2.2,1.28C46.89,32.75,46,32.29,45.43,31.41ZM23,31.42c-.54.9-1.48,1.34-2.2,2.15,1.29.33,1.55-.82,2.21-1.31C23.27,32.06,23.45,31.79,23,31.42Zm13.12-6.71c-.26-.31-.37-.3-.55-.26a6.46,6.46,0,0,1-2.59,0c-.29,0-.44-.08-.59.28A6.76,6.76,0,0,0,36.11,24.71ZM35,22.77c0-.67-.26-.93-.9-.87s-.52,0-.62.9A4.57,4.57,0,0,0,35,22.77Zm-1.9-7.22c.92.68,1.42.67,2.16,0A2.21,2.21,0,0,0,33.12,15.55Zm1.07,38a2.14,2.14,0,0,0,.94-.08.37.37,0,0,0,.23-.38A.27.27,0,0,0,35,52.9c-.41.11-.8.35-1.25.09-.23-.13-.59-.29-.64.15s.3.42.61.42Zm1.39-30a3.54,3.54,0,0,0-2.49.05A3.62,3.62,0,0,0,35.58,23.56ZM33.37,39.11c.27.34.51.94.81,1,.54.06.47-.75.89-1A3.14,3.14,0,0,1,33.37,39.11Zm2-13.4a3.15,3.15,0,0,0-2.28.08A3.56,3.56,0,0,0,35.36,25.71ZM36.8,39.6c.8-.36,1.24-.78.87-1.65C37,38.24,37,38.88,36.8,39.6Zm-5.15,0c-.18-.69-.14-1.35-.89-1.64C30.41,38.8,30.83,39.23,31.65,39.6Zm3.79-10.34a2.72,2.72,0,0,1-2.42.07C33.85,30.33,34.64,30.32,35.44,29.26ZM34.18,54.75h.24c.18,0,.43,0,.46-.22s-.21-.39-.45-.4a2.7,2.7,0,0,0-.69.07.38.38,0,0,0-.19.26c0,.19.11.27.28.28ZM35,21.26c-.57-.6-1-.53-1.53,0A2.36,2.36,0,0,0,35,21.26Zm-2.26,6a9.34,9.34,0,0,0,3,0A11.39,11.39,0,0,0,32.71,27.3Zm1.9,28.31a.77.77,0,0,0-.8,0c.09.29.13.6.43.79A1.12,1.12,0,0,0,34.61,55.61ZM31,35.7c.09-.38.17-.77-.3-1,0,0-.16.05-.19.1C30.33,35.31,30.64,35.52,31,35.7Zm6.4,0c.36-.22.65-.42.53-.85a.2.2,0,0,0-.27-.14C37.29,34.94,37.33,35.28,37.42,35.73Zm-6.65-5.6a1.57,1.57,0,0,0,.21-.24.21.21,0,0,0-.1-.29c-.13-.09-.19,0-.2.11A.38.38,0,0,0,30.77,30.13Zm7-.25c-.07-.1.1-.33-.17-.3a.23.23,0,0,0-.15.15.28.28,0,0,0,.18.35C37.8,30.13,37.74,30,37.78,29.88Zm-5.61-.6c-.1-.08-.14-.14-.2-.16s-.21-.15-.3,0,0,.15.11.16Zm4.61-.15c0-.1-.09-.12-.18-.07l-.29.18a2,2,0,0,0,.34.05A.13.13,0,0,0,36.78,29.13Zm-4.9,7.93a3,3,0,0,0,0,.43c0,.13.08.13.13,0a.42.42,0,0,0,0-.22C32,37.23,32,37.19,31.88,37.06Zm4.63.51a.68.68,0,0,0,.07-.2c0-.07,0-.23-.13-.17s-.05.13,0,.2A.42.42,0,0,0,36.51,37.57Zm.21-6.22-.24.26.09.06c.14,0,.23,0,.24-.15S36.76,31.42,36.72,31.35Zm-4.94,0c-.09,0-.15,0-.15.1a.24.24,0,0,0,.1.19c.05,0,.14,0,.21-.05Zm3.51-13a1.64,1.64,0,0,0-.37,0c-.13,0-.14.09,0,.14a.6.6,0,0,0,.23,0S35.22,18.44,35.29,18.37Zm-1.67,0c-.13,0-.24,0-.34,0s-.06.07-.09.11a1.54,1.54,0,0,0,.3,0S33.56,18.43,33.62,18.36ZM32.46,39.44v-.1l-.06,0a.36.36,0,0,0,0,.1Zm-.71-6.7s0-.09,0-.12-.11-.08-.13,0a.36.36,0,0,0,0,.11Zm-.56-5.23c.08,0,.1,0,0-.15s-.06,0-.06,0S31.19,27.47,31.19,27.51Zm-.2,1s-.08.05-.08.08a.8.8,0,0,0,.07.2s.08-.06.07-.08A1.17,1.17,0,0,0,31,28.48Zm5.82,4.16-.07-.09s-.07.05-.07.08,0,.15.1.11S36.79,32.68,36.81,32.64Zm-6-.35-.08-.21s-.08.06-.07.09a1.72,1.72,0,0,0,.07.21Zm6.64-3.53a.8.8,0,0,0,.07-.2s0-.06-.07-.09a1.72,1.72,0,0,0-.07.21S37.44,28.73,37.46,28.76Zm-1.72-12s-.06,0-.09,0-.13.06,0,.1a.17.17,0,0,0,.1,0S35.74,16.73,35.74,16.71ZM30.82,31l-.07-.19s-.07,0-.07.08a1.48,1.48,0,0,0,0,.19Zm7,0-.06-.19s-.07,0-.07.06a.27.27,0,0,0,0,.18C37.69,31.16,37.74,31.14,37.78,31.05Zm0,1.25-.07-.22s-.08.06-.08.08a1.11,1.11,0,0,0,.07.22ZM32.9,16.74s0-.07-.07-.06a1.16,1.16,0,0,0-.18,0s0,.08.07.07A.61.61,0,0,0,32.9,16.74Zm4.37,10.74s0-.1,0-.11-.08,0,0,.14ZM36.06,39.41l0-.09a.22.22,0,0,0-.05.08.54.54,0,0,0,0,.1ZM32.25,25.62l0-.07s-.06,0-.07.06,0,0,.06.07Zm4-.06,0,.06h.06ZM32,28l-.08.07s.05.06.07.06,0,0,.08-.06A.23.23,0,0,1,32,28Zm4.58.07s0-.06-.07-.06,0,0-.07.06,0,.06.07.06S36.53,28.05,36.55,28Zm-4.84,6.18-.05.07h.07Zm5,0,0,.07h.07Zm-4.81,2,0-.06h-.07Zm4.56,0,0-.06h-.07Zm-.19,2.6-.06,0v.06Z"/><path d="M46.69,15.19a.28.28,0,0,0-.24-.24,1.78,1.78,0,0,0-2.24-1.09A5.28,5.28,0,0,1,43,14a9.61,9.61,0,0,0-3.82.76c-.26.09-.49.27-.79.2s-.34-.16-.2-.31c.65-.7,0-1-.44-1-.68-.06-.43-.8-.87-1,0,0,.19-.35.3-.29,1,.58,1.78-.18,2.72-.35A1.38,1.38,0,0,0,38,11.46c-.39.18-.82.28-1.22.46-.22.09-.38.12-.51-.08s.05-.39.21-.46c.5-.23,1-.42,1.66-.69-.76-.18-1.11-1.18-2-.46L35.62,9a3.55,3.55,0,0,0,2.27-.91c-.16-.37-.41-.36-.74-.17s-.44.5-.71.17.1-.42.23-.6-.06-.28-.09-.42l.08-.1.19-.18,0,0c.47.41.81,0,1.14-.2a36.7,36.7,0,0,1,5.17-2.86,21,21,0,0,1,4.51-1.43,1.38,1.38,0,0,1,1.41.2,5.54,5.54,0,0,1-2,.62c1,.65,1.79,1.29,3,.67a2.67,2.67,0,0,1-.45-.39.29.29,0,0,1,0-.31A.35.35,0,0,1,50,2.94a1.73,1.73,0,0,1,.54.23A3,3,0,0,0,53,3.53c1.25-.28,2.46.19,3.7.15a.84.84,0,0,1,.32.15c.15.09.25.23.18.39a.38.38,0,0,1-.28.16,1,1,0,0,1-.48,0c-1.25-.4-2.54-.15-4.11-.24a22.47,22.47,0,0,0,2.93,2,11.84,11.84,0,0,0,2.44.44,2.65,2.65,0,0,1,1.79.78c-1.1.5-2-.5-3-.2a16.62,16.62,0,0,1,2.44,2.6,1.42,1.42,0,0,0,.8.47c.86.31,1.69.68,2.53,1,.14.06.29.17.26.36a.34.34,0,0,1-.47.24,14.72,14.72,0,0,1-1.44-.55,18.63,18.63,0,0,0-4.08-1.16c.79.91,1.51,1.63,2.09,2.44a6.52,6.52,0,0,0,2.91,2.14,12,12,0,0,1,4,2.8L66,18c.11.12.19.27.05.41a.35.35,0,0,1-.53,0A7.23,7.23,0,0,0,64,17.06a10.91,10.91,0,0,0-3.14-1.89l-.08-.08s0,0-.06,0,.08.09.16,0c-.22.41.57.94.07,1.15s-.62-.54-.87-.88a3,3,0,0,0-1.51-1.25,10.69,10.69,0,0,0-2.53-.88l0-.06,0,0a29.32,29.32,0,0,0,2,2.82,2.45,2.45,0,0,0,.85.63,34.5,34.5,0,0,1,5.73,4.09c.22.2.66.42.41.74s-.63,0-.89-.25a31.51,31.51,0,0,0-4.88-3.56c0,.42.31.66.41,1s.21.39,0,.51-.41,0-.54-.25-.48-.74-.68-1.13a2.93,2.93,0,0,0-1.53-1.43,9.8,9.8,0,0,0-2.54-1c-.08,0-.08-.07,0-.06s0-.1,0,.05c.21.33.45.65.63,1A10.85,10.85,0,0,0,59,20.73a17.08,17.08,0,0,1,3.08,3,3.35,3.35,0,0,1,.45.7.36.36,0,0,1-.08.43c-.21.21-.4,0-.5-.1a15.36,15.36,0,0,0-1.61-1.91,17.85,17.85,0,0,0-2.81-2.39l0,0,.07,0c.06.81.62,1.45.77,2.23,0,.18.23.35.12.55a.72.72,0,0,1-.25.24c-.13.08-.23,0-.28-.12a2.26,2.26,0,0,1-.17-.43,7.94,7.94,0,0,1-.43-1.11c-.59-2.32-2.41-3.27-4.66-4.11,1.29,1.72,1.95,3.55,3,5.15.17.24.66.59.25.89s-.78-.11-1-.46c-1-2-2.91-3.11-4.58-4.43-.18-.15-.45-.34-.63.07,0,.11-.24.11-.3,0-.29-.55-.82-1-1-1.5A6.32,6.32,0,0,0,46.69,15.19Zm1.93,1c0-.07,0-.27-.15-.07,0,0,.09.1.16.05a2.33,2.33,0,0,0,1,1.48,23.18,23.18,0,0,1,3.07,2.24c.18.16.33.41.68.42a20.6,20.6,0,0,0-1.56-2.62,1.58,1.58,0,0,0-.67-.66A7.79,7.79,0,0,0,48.62,16.15ZM52,12.34l0,0a3.9,3.9,0,0,1,.52.65c.88,1.71,2.65,1.84,4.29,2.55C55.55,13.64,54.43,11.93,52,12.34Zm6,.7c0,.14.08.21.2.08L58,13c-.43-1-1.36-1.53-2-2.31a2.94,2.94,0,0,0-3.09-.93c.7.77,1.33,1.47,2,2.16a1,1,0,0,0,.48.32C56.26,12.42,57.05,12.93,58,13Zm-2.88,5h0c-.22-1.21-1.13-2-1.77-3C53.23,15,53.07,15,53,15a15.79,15.79,0,0,0-2.66-.47c.64.84,1,1.74,1.9,2.2S54.12,17.61,55.08,18.08ZM52.79,6.9C54.32,8.21,55.58,9.85,58,9.55c-.46-.46-.9-.85-1.28-1.3A3.55,3.55,0,0,0,52.79,6.9Zm1,4.92c-1.65-2.33-2.32-2.65-4.44-2.29.37.42.8.94,1.25,1.44a1.43,1.43,0,0,0,1,.55A9.93,9.93,0,0,1,53.77,11.82ZM52.4,14a4,4,0,0,0-4.34-2.13C48.92,13.79,50.62,14,52.4,14Zm-2.52-2.76c-2.42-2.36-2.18-1.9-4-1.46C46.74,11.48,48.25,11.41,49.88,11.26Zm.8-2.63c-.55-.51-1-.92-1.48-1.35a.61.61,0,0,0-.64-.21,20.44,20.44,0,0,0-2.11.49C47.49,9,49,8.8,50.68,8.63Zm3.21.17c-1.19-1-2-2.45-4-1.88C51,8,51.89,9.37,53.89,8.8Zm-10-2.67c1.31,1.33,2.71.67,4.22.29L46.9,5.51a.73.73,0,0,0-.68-.12A11.38,11.38,0,0,0,43.92,6.13Zm4.45,7.41c-.95-1.38-1.93-2.14-3.48-1.53C45.5,13.67,47.05,13.08,48.37,13.54Zm1.57-9a3.54,3.54,0,0,0,3.89,1.34C52.57,5.32,51.7,4,49.94,4.58Zm-7.22,5.65c.85,1.29,2.08,1.16,3.31,1C45.16,9.9,44.83,9.56,42.72,10.23Zm2.91-5.34c-1.48-1-2.17-.95-3.81.37C43.11,6.1,44.2,5.1,45.63,4.89Zm4.73,11c-.84-1.55-1.73-2.13-3.52-1.74.29.33.47.85.88.94C48.56,15.28,49.34,15.67,50.36,15.9Zm-5.48-2.66c-.86-1.5-2.07-1.25-3.31-.82.63.79.63.81,1.16.82C43.43,13.26,44.14,13.24,44.88,13.24Zm-1.94-1.71c-.93-1.4-2-1.13-3-.57C40.69,12.35,41.86,11.44,42.94,11.53ZM50.47,6.1c-1.34-1.35-1.83-1.51-2.71-.85C48.55,5.91,49.28,6.69,50.47,6.1Zm-3.7,2.76c-1.53-1.19-1.53-1.19-2.84-.66a2.89,2.89,0,0,0,1.12.85C45.63,9.26,46.18,8.76,46.77,8.86Zm-5.44,4.53c-.59-.88-.58-.86-1.46-.65a4.63,4.63,0,0,0-1.2.42c.54.78.54.78,1.33.57Zm2.5-4.1c-.95-1-1.39-1-2.71-.24C41.91,10.25,42.92,9.17,43.83,9.29Zm-2-2.38a1.7,1.7,0,0,0,2.33.3C43.42,6.64,42.7,6.26,41.86,6.91ZM39.55,8c.91.8,1.59.08,2.34-.13C41.08,7,40.36,7.42,39.55,8Zm-1,2c.88.54,1.58.07,2.4-.25C39.9,8.86,39.24,9.84,38.5,10.07Zm9.28-5.89c-.89-.13-1.48-1.13-2.58-.4C46.07,4.09,46.67,5,47.78,4.18ZM39.4,8.81a1.41,1.41,0,0,0-1.84.32c-.11.1-.24.22-.12.38a.35.35,0,0,0,.44.08C38.37,9.35,38.86,9.09,39.4,8.81Zm.84-2.75a1,1,0,0,0,1.5.08l-.44-.69A2.88,2.88,0,0,0,40.24,6.06Zm-.19.86c-.6-.69-1.06-.15-1.55.12-.1.06-.2.15-.15.28s.23.2.38.19A3.35,3.35,0,0,0,40.05,6.92Z"/><path d="M36.58,7.08c-.29.38-.56.76-.87,1.11a.31.31,0,0,1-.43,0,.22.22,0,0,1,0-.31,6.3,6.3,0,0,1,2.88-2.71.25.25,0,0,1,.32.06.26.26,0,0,1-.05.41c-.49.39-1,.76-1.5,1.14l0,0L36.66,7Z"/><path d="M37.33,14.92c-.27,0-.42-.22-.47-.52s0-.36.17-.38c.35,0,.46.26.54.52A.27.27,0,0,1,37.33,14.92Z"/><path d="M22,15a.28.28,0,0,0-.25.24,6.18,6.18,0,0,0-1.68,2.23c-.24.55-.78.95-1.06,1.51,0,0-.18.08-.2.05-.57-.62-.89,0-1.25.26a22.43,22.43,0,0,0-3.43,3,2.6,2.6,0,0,0-.51.8.9.9,0,0,1-.29.5c-.25.16-.52.51-.84.22s0-.53.19-.73c1.14-1.62,1.79-3.52,3.17-5.31a18,18,0,0,0-3.41,1.73,1.38,1.38,0,0,0-.46.68,13.9,13.9,0,0,0-1.29,3.05c0,.18-.17.4-.4.33S10,23.19,10,22.9c.23-.84.75-1.57.9-2.44l.05,0,0,0a17.44,17.44,0,0,0-4.23,4,3.27,3.27,0,0,1-.28.37c-.08.08-.19.17-.32.09a.33.33,0,0,1-.2-.39,3.53,3.53,0,0,1,.71-1.09,23.1,23.1,0,0,1,4.46-3.92,3.38,3.38,0,0,0,1.14-1.18c.6-1,1.23-1.94,1.85-2.91,0-.08,0-.08,0,0l0,0a9.28,9.28,0,0,0-3.38,1.43c-.37.22-.53.68-.75,1.05s-.46.66-.63,1-.29.4-.54.27-.14-.33,0-.52.3-.55.54-1a30.87,30.87,0,0,0-4.83,3.43,4.5,4.5,0,0,1-.64.53.35.35,0,0,1-.44-.09.3.3,0,0,1,.07-.42c.66-.58,1.31-1.18,2-1.71A34.93,34.93,0,0,1,9.72,16.6a1.83,1.83,0,0,0,.64-.52,34.25,34.25,0,0,0,2-2.81l.05,0,0,.06a10,10,0,0,0-3.17,1.18c-.69.35-.94,1.14-1.36,1.75-.1.13-.26.21-.4.1a.36.36,0,0,1-.12-.3,1.26,1.26,0,0,1,.17-.44.46.46,0,0,0,0-.44c.09,0,.14,0,.17,0s0,0-.07,0a.27.27,0,0,0-.07.08,13,13,0,0,0-4.31,2.92,3.11,3.11,0,0,0-.23.28.42.42,0,0,1-.63.06c-.19-.19,0-.36.13-.5a11.92,11.92,0,0,1,1.84-1.71,16.86,16.86,0,0,1,3.64-2,2.87,2.87,0,0,0,1.28-1c.78-1,1.66-1.93,2.62-3A15.47,15.47,0,0,0,8,11.22c-.48.18-.94.41-1.43.58-.21.07-.51.09-.58-.22s.18-.35.35-.42a24.11,24.11,0,0,1,2.43-1,1.7,1.7,0,0,0,.95-.66A14.74,14.74,0,0,1,12,7.13c-.73-.25-1.31.18-1.92.26-.35.05-.83.31-1,0s.39-.49.72-.58a9.88,9.88,0,0,1,2.57-.48,1.76,1.76,0,0,0,1-.26C14.22,5.46,15,4.88,16,4.19a14.27,14.27,0,0,0-3.79.15,2.41,2.41,0,0,1-.71,0,.35.35,0,0,1-.28-.16.31.31,0,0,1,.19-.39.77.77,0,0,1,.32-.15c1.2,0,2.38-.42,3.58-.17a3.35,3.35,0,0,0,2.74-.4A1.43,1.43,0,0,1,18.26,3c.19-.07.41-.13.54.06s0,.36-.17.49l-.27.23c1.06.52,1.92,0,2.85-.64-.6-.33-1.32-.22-1.91-.7a1.78,1.78,0,0,1,1.54-.15A24.36,24.36,0,0,1,28,5.1,19.76,19.76,0,0,1,30.7,6.76c.33.27.56.16.84,0l.06,0,.19.19.07.09c-.5.4.59.78.05,1.08-.37.21-.63-.45-1.06-.35-.11,0-.19.13-.32.23a2.62,2.62,0,0,0,2.28.87l-.4,1.27c-.92-.68-1.3.33-2.23.46.71.29,1.15.45,1.58.64.24.11.6.17.42.56s-.4.1-.61,0a9.88,9.88,0,0,1-1.12-.4,1.36,1.36,0,0,0-1.88.47,9.75,9.75,0,0,0,1.7.65c.38.17.58-.14.86-.2s.34.11.42.29c-.45.15-.2.89-.88.95-.46,0-1.05.28-.45,1,.22.28-.23.35-.42.3a18.92,18.92,0,0,1-1.8-.59A5.78,5.78,0,0,0,25.78,14a11.44,11.44,0,0,1-1.55-.13A1.78,1.78,0,0,0,22,15Zm-2.17,1.2c-2.49.38-3.83,1.56-4.7,4.2a27.19,27.19,0,0,1,3.75-2.79,2.08,2.08,0,0,0,.93-1.43c.1,0,.23,0,.11-.14Zm-3.34-3.81a5,5,0,0,0-.95,0c-.72.16-1.54.13-2.07.74s-1.17,1.52-1.81,2.36c2-.49,3.72-1.24,4.75-3l.06-.1,0-.06Zm-6,.7A6.66,6.66,0,0,0,15.4,9.78c-1.1-.15-1.74-.18-2.15.2a12.24,12.24,0,0,0-2.81,3c-.12,0-.24.07-.07.19S10.5,13.14,10.49,13Zm2.87,5a19.87,19.87,0,0,1,1.93-.9,5.52,5.52,0,0,0,2.83-2.69c-1.07.15-2.23,0-2.91.66a5.52,5.52,0,0,0-1.83,2.95h-.06Zm2.22-11.2c-.91.08-1.87-.37-2.7.37a18.67,18.67,0,0,0-2.31,2.31C12.92,9.89,14.13,8.16,15.58,6.86Zm3.71,2.58H17.38a.92.92,0,0,0-.77.23c-.64.67-1.3,1.32-2,2A4.71,4.71,0,0,0,19.29,9.44ZM16,14c1.79-.08,3.5-.24,4.36-2.17C18.54,11.76,17,12.19,16,14Zm2.62-2.8c2.9.06,2.29.43,3.92-1.5C20.43,9.39,20.43,9.39,18.65,11.24Zm-.82-2.6c1.59.14,3.11.37,4.15-1.06-2.22-.79-2.22-.79-4,.8A3.1,3.1,0,0,0,17.83,8.64Zm-3.26.15c2,.61,2.84-.76,4-1.87C16.57,6.36,15.73,7.82,14.57,8.79Zm5.82-2.34c1.45.35,2.86,1,4.15-.36C23.11,5.64,21.71,4.74,20.39,6.45Zm-.22,7a7.94,7.94,0,0,1,1.55-.2c1,.05,1.44-.54,1.87-1.27C22,11.46,21,12.14,20.17,13.46ZM18.56,4.58c-1.78-.56-2.68.7-4,1.36C16.69,6.16,16.69,6.16,18.56,4.58Zm7.16,5.65c-2.16-.68-2.41-.31-3.32,1C23.64,11.41,24.84,11.52,25.72,10.23ZM21.65,14c-2.42-.1-2.77.48-3.61,2.05C19.31,15.26,20.88,15.54,21.65,14ZM22.8,5c1.44.06,2.54,1.24,3.88.25-.34-.36-.88-.45-1.31-.73C24.53,3.94,23.76,4,22.8,5Zm.73,8.34c1.19-.3,2.54.56,3.37-.86C25.63,12,24.42,11.74,23.53,13.29Zm5-2.35c-2.29-.72-1.59-.78-3,.61C26.58,11.42,27.75,12.32,28.56,10.94ZM20.78,5.13c-1.35-.69-2,.32-2.93.93C19.19,6.66,19.94,5.92,20.78,5.13Zm3.73,3c-1.19-.68-2,0-2.88.72C22.74,9.1,23.83,9.34,24.51,8.11Zm5.26,5.06a3.92,3.92,0,0,0-1.2-.43c-.89-.21-.89-.23-1.44.66l1.26.32C29.22,14,29.22,14,29.77,13.17Zm-5.16-3.9c.31.23.71,0,1,.17A1.26,1.26,0,0,0,27.35,9C25.76,8.22,25.45,8.24,24.61,9.27Zm-.35-2A1.74,1.74,0,0,0,26.6,6.9C25.74,6.28,25,6.61,24.26,7.23ZM27.58,9.8c1.34.67,1.63.7,2.51.18C29.2,9.85,28.51,8.82,27.58,9.8ZM28.81,8c-1.16-.85-1.16-.85-2.28-.15C28.37,8.62,28.25,8.61,28.81,8ZM23.16,3.78c-.86-.45-.86-.45-2.33.52C21.78,5,22.38,4.12,23.16,3.78Zm5.93,5c1.29.74,1.29.74,1.95.67C30.27,8.45,30,8.36,29.09,8.8ZM27,5.42c.12.36-.3.42-.32.73.8.37.8.37,1.42-.14A2.68,2.68,0,0,0,27,5.42ZM28.39,6.9c1,.62,1,.62,1.71.4C29.22,6.47,29.22,6.47,28.39,6.9Z"/><path d="M31.54,6.75c-.5-.38-1-.75-1.5-1.14A.26.26,0,0,1,30,5.2a.25.25,0,0,1,.32-.06,6.3,6.3,0,0,1,2.88,2.71.22.22,0,0,1,0,.31.31.31,0,0,1-.43,0c-.31-.35-.58-.74-.87-1.11L31.79,7,31.6,6.8Z"/><path d="M31.17,14.92a.24.24,0,0,1-.29-.18.63.63,0,0,1,.45-.73c.14,0,.22.08.24.19A.59.59,0,0,1,31.17,14.92Z"/><path d="M28.63,46.85c.13.1.25.15.3.24a6.09,6.09,0,0,1,.74,1.74.32.32,0,0,1-.17.4.3.3,0,0,1-.38-.21c-.23-.55-.46-1.1-.68-1.65A.47.47,0,0,1,28.63,46.85Z"/><path d="M39.78,46.87c.33.19.26.44.18.66-.16.45-.35.89-.55,1.32-.09.2-.19.5-.5.36a.4.4,0,0,1-.11-.54C39.1,48.06,39.15,47.29,39.78,46.87Z"/><path d="M27.23,37.2a.22.22,0,0,1-.18.28c-.28.07-.43-.12-.53-.34s-.36-.45-.12-.74a.21.21,0,0,1,.3,0C27,36.56,27.1,36.92,27.23,37.2Z"/><path d="M42.15,36.59a1.47,1.47,0,0,1-.45.83.3.3,0,0,1-.42,0,.23.23,0,0,1,0-.31,5.92,5.92,0,0,1,.42-.68.34.34,0,0,1,.31-.08C42.05,36.38,42.1,36.52,42.15,36.59Z"/><path d="M28.72,46.16c-.09.17-.16.28-.3.25a.52.52,0,0,1-.31-.13c-.14-.22-.42-.4-.34-.71a.31.31,0,0,1,.29-.13A1.26,1.26,0,0,1,28.72,46.16Z"/><path d="M40.7,45.65c-.11.31-.24.65-.62.76a.22.22,0,0,1-.31-.24.9.9,0,0,1,.66-.74C40.57,45.39,40.64,45.5,40.7,45.65Z"/><path d="M27.08,37.82c.26,0,.37.22.42.45s0,.44-.19.49-.44-.24-.51-.49S26.87,37.91,27.08,37.82Z"/><path d="M41.22,38.78a.3.3,0,0,1-.28-.32.55.55,0,0,1,.37-.64c.16,0,.36.16.34.38A.57.57,0,0,1,41.22,38.78Z"/><path d="M40.82,39.77c-.15,0-.31-.09-.34-.28a.28.28,0,0,1,.25-.33c.21,0,.41,0,.4.28S41,39.7,40.82,39.77Z"/><path d="M27.6,39.15c.16,0,.32,0,.36.23a.31.31,0,0,1-.34.38.34.34,0,0,1-.3-.32C27.29,39.25,27.43,39.17,27.6,39.15Z"/><path d="M29.43,18.29a2.85,2.85,0,0,1-.65.24c-.23,0-.43-.15-.27-.35a3.12,3.12,0,0,1,2-1.4c.05.6-.51.68-.59,1l0,0a.3.3,0,0,0-.27.26l0,0-.27.26Z"/><path d="M29.89,17.83a1.32,1.32,0,0,1,.47-.06c.29.11.64.3.56.65a.6.6,0,0,1-.68.36c-.28,0-.55,0-.83,0l0,0v-.5l0,0,.27-.26,0,0,.27-.26Z"/><path d="M31.33,20c0-.34-.1-.54-.48-.48,0-.27-.15-.69.33-.72s.71.51.8.83S31.63,20,31.33,20Z"/><path d="M38.55,17.83c-.1-.35-.56-.44-.61-.83.17-.27.41-.2.6-.08a6.56,6.56,0,0,1,.92.73c.22.2.66.42.48.73s-.61-.1-.93-.09l0,0-.26-.26,0,0a.29.29,0,0,0-.26-.26Z"/><path d="M39,18.29v.5l0,0c-.28,0-.55,0-.83,0a.6.6,0,0,1-.68-.37c-.07-.34.27-.54.57-.64.13,0,.31,0,.46.06l0,0,.26.26,0,0,.26.26Z"/><path d="M37.6,19.51c-.38-.06-.51.14-.48.48-.31,0-.77,0-.66-.37s.27-.86.8-.83S37.55,19.24,37.6,19.51Z"/></g></g></svg>