<svg xmlns="http://www.w3.org/2000/svg" viewBox="0 0 56.39 58.75"><title>Clytia</title><g id="Layer_2" data-name="Layer 2"><g id="Clytia"><path d="M53.08,15A3.71,3.71,0,0,1,55.83,15c.16.05.32.11.32.29s-.12.28-.27.36a.52.52,0,0,1-.57,0c-.7-.7-1.31,0-2,.09a.46.46,0,0,0-.39.41c-.19.71-.34,1.43-.53,2.27a17.11,17.11,0,0,0,1.84-.25,1.68,1.68,0,0,1,1.62.41c-.12.34-.38.26-.6.26-.44,0-.88,0-1.32,0-1.43.06-1.8.34-2.22,1.67-.2.64-.41,1.28-.6,1.92,0,.07,0,.15.08.31a8.52,8.52,0,0,0,1.63-.5A2.58,2.58,0,0,1,54,22.08a.91.91,0,0,1,.61.33.36.36,0,0,1,0,.44c-.09.12-.25.26-.4.1-.47-.5-.94-.18-1.43-.05s-1.2.68-1.93.39c-.24-.09-.26.13-.31.24-.26.54-.49,1.09-.72,1.64s0,.78.48.8c.66,0,.94.55,1.33.93.12.11.21.28.1.41a.31.31,0,0,1-.52,0c-.51-.74-1.16-.69-1.89-.4-.31.13-.56.23-.67.6s-.33.55-.43.84-.57.54-.45.94.66.12.92.31a6.87,6.87,0,0,0,1.59.77c.19.08.35.25.22.47a.37.37,0,0,1-.52.12,4.7,4.7,0,0,1-1.18-.55,1.57,1.57,0,0,0-.87-.27c-.88-.2-1.22.31-1.55.93s-.28.92.42,1.25c.44.21.86.43,1.31.6a.87.87,0,0,1,.52.45.41.41,0,0,1,0,.45.26.26,0,0,1-.41,0,4.36,4.36,0,0,0-.69-.46,3.39,3.39,0,0,0-2.42-.28.68.68,0,0,0-.39.22,6.82,6.82,0,0,0-1.15,2.27,2.07,2.07,0,0,1,2.28.87c.11.17.25.31.22.53a.4.4,0,0,1-.09.21c-.09.11-.21.08-.31,0a1,1,0,0,1-.23-.27c-.59-1.13-1.65-.7-2.53-.72-.56,0-1.51,1.43-1.46,2,0,.36.4.53.61.78s.58.41.79.71a.31.31,0,0,1,0,.43.29.29,0,0,1-.43,0c-.33-.28-.64-.59-1-.88a.82.82,0,0,0-1.33,0c-.42.42-.79.88-1.23,1.38a3.2,3.2,0,0,1,1.1.89,1.12,1.12,0,0,1,.34.74c0,.17,0,.36-.15.42s-.3,0-.38-.19a2.92,2.92,0,0,0-.25-.54,1.36,1.36,0,0,0-1.89-.43c-.8.59-1.54,1.25-2.3,1.9-.06,0,0,.22,0,.39a3.68,3.68,0,0,1,1.92.54,2.07,2.07,0,0,1,.8,1,.26.26,0,0,1-.09.31.2.2,0,0,1-.3,0c-.12-.11-.24-.22-.35-.34a3.53,3.53,0,0,0-2.09-1c-1-.22-1.53.3-2.18.76a.77.77,0,0,0-.34.84c.09.4.43.31.68.29,1-.06,1.51.62,2.07,1.24.13.14,0,.3-.09.41a.23.23,0,0,1-.32,0c-.18-.16-.34-.33-.52-.5a1.7,1.7,0,0,0-1.27-.56,1.76,1.76,0,0,1-1.65-.67l-1.58,1a1.3,1.3,0,0,0-.6.56c-.11.26-.11.47.22.53s.4,0,.6,0A2,2,0,0,1,32,49.71c.05.2.06.41-.18.49s-.3-.05-.37-.22c-.22-.53-.52-1-1.15-1.09a5.33,5.33,0,0,1-2.07-.46c-.16-.09-.3,0-.43.1a9,9,0,0,0-1.57,1c.12.4.41.41.68.48a4.21,4.21,0,0,1,2,1.43c.1.12.2.27.08.42a.39.39,0,0,1-.54,0,1.24,1.24,0,0,1-.36-.32c-.61-1-1.79-.93-2.63-1.51-.25-.17-1.63.46-1.81.73s0,.37.15.51a4.81,4.81,0,0,1,1,1.3c.15.28.65.62.17.89s-.54-.31-.74-.58-.32-.55-.53-.79a1.88,1.88,0,0,0-2.21-.59,4.65,4.65,0,0,0-1.55.66c.21.45.63.54,1,.71A2.52,2.52,0,0,1,22.26,54a.36.36,0,0,1-.08.52.28.28,0,0,1-.41-.12c-.52-1-1.86-.88-2.43-1.84-.14-.24-.52-.11-.79,0-.53.15-1.06.32-1.6.49,0,.39.38.45.62.61a3.51,3.51,0,0,1,1.34,1.49c.06.15.12.3-.05.42s-.37.08-.42-.06c-.36-1-1.42-1.23-2.05-1.92-.26-.28-.42-.41-.79-.24s-.7.16-1,.27-.59,0-.61.44a.81.81,0,0,0,.43.8,3.06,3.06,0,0,1,1.34,1.15c.17.29.62.67.29.91-.48.35-.62-.27-.82-.56a1.87,1.87,0,0,0-.66-.68,3,3,0,0,1-1.27-1.22c-.15-.25-.35-.53-.64-.4s-1.13-.09-1.3.42.47.63.79.9a5.66,5.66,0,0,1,1.05,1.58.31.31,0,0,1-.11.42.23.23,0,0,1-.39,0A7,7,0,0,0,10.77,55a2.64,2.64,0,0,1-.35-.62c-.28.07-.54.15-.81.19-1.13.19-1.17.25-.46,1.2A4.2,4.2,0,0,1,9.8,57a1.16,1.16,0,0,1-.06,1.09c-.42,0-.45-.3-.47-.49-.08-1-.9-1.66-1.36-2.47a.6.6,0,0,0-.6-.33c-.37,0-.81-.17-1.11.24s.14.64.25.95c.16.49.38,1,.52,1.45.08.26.1.61-.29.66s-.4-.23-.41-.48A4.4,4.4,0,0,0,5.68,56a2,2,0,0,0-1.91-1.34A1.37,1.37,0,0,0,4,56.23a4.88,4.88,0,0,1,.78,2,.4.4,0,0,1-.31.55.37.37,0,0,1-.38-.37,3.82,3.82,0,0,0-.95-2.27,1.47,1.47,0,0,1-.25-1.25.72.72,0,0,0-.5-.94,3.3,3.3,0,0,1-2-2.74,17.4,17.4,0,0,1-.26-6.06c.18-1.14.15-2.3.28-3.45.18-1.54.39-3.08.59-4.62q.41-3.18,1.08-6.33A45.11,45.11,0,0,1,5.86,20a29.54,29.54,0,0,1,4.4-6.37,36.54,36.54,0,0,1,7-6.16,39.64,39.64,0,0,1,5-2.62,42.39,42.39,0,0,1,11.4-3.65C34.8,1,36,.73,37.23.6A47.06,47.06,0,0,1,42.68,0a12.73,12.73,0,0,1,9.38,4c.44.47.66.15,1,0s.39-.14.49.11a.37.37,0,0,1-.13.43c-.09.07-.22.09-.31.17s-.53.16-.4.49.42.41.79.28a3.51,3.51,0,0,1,2.45.08c.13,0,.22.13.23.24s-.14.27-.31.27H54.53a2.09,2.09,0,0,0-1.05.13c-.4.17-.73.34-.54.87a1.83,1.83,0,0,1,0,.47c.06.84.39,1.06,1.14.7A2.45,2.45,0,0,1,55.37,8a1.26,1.26,0,0,1,.57.14c.2.16.55.34.38.65s-.47.14-.68-.06-.56-.15-.88,0c-.49.16-.86.59-1.42.58-.28,0-.22.27-.25.45a4.9,4.9,0,0,0,.23,1.42c.14.72.19.75.92.4a1.7,1.7,0,0,1,2,.34c.12.1.24.23.12.39a.35.35,0,0,1-.44.09c-.39-.15-.71-.47-1.22-.29a1.64,1.64,0,0,0-1.35,1.81A2.65,2.65,0,0,1,53.08,15ZM51.37,4.4l.05,0-.07,0c0-.18,0-.25-.21-.25,0-.23-.18-.34-.31-.48a9.48,9.48,0,0,0-3.48-2.06A10.81,10.81,0,0,0,40.83.77c-.66.13-1.33.19-2,.29-1.77.24-3.55.44-5.3.75A46.58,46.58,0,0,0,19.72,6.76a34,34,0,0,0-8.41,6.65A33,33,0,0,0,3.92,26.48a71.61,71.61,0,0,0-2.7,14.46c-.11,1-.14,1.91-.29,2.85a35.52,35.52,0,0,0-.12,6.1,10.21,10.21,0,0,0,.43,1.84,1.88,1.88,0,0,0,1.29,1.34c.05-.16.11-.24.1-.3a18.92,18.92,0,0,1-.06-8.63,48.29,48.29,0,0,1,3.19-10,49.64,49.64,0,0,1,6.48-11.63c1.57-2,3.11-3.95,4.8-5.8a29.13,29.13,0,0,1,6.72-5.71,23.21,23.21,0,0,1,4.7-2.49A5.32,5.32,0,0,0,30.8,7a2.53,2.53,0,0,1,1.78-1,5.08,5.08,0,0,0,2.87-1,2.66,2.66,0,0,1,1-.37A12.71,12.71,0,0,0,40.38,3a2.8,2.8,0,0,1,1.54-.58c1.4-.09,2.77.27,4.16.27a.91.91,0,0,1,.54.21,1.39,1.39,0,0,0,1,.23,5.13,5.13,0,0,1,2.08.46,4.1,4.1,0,0,0,1.44.53C51.14,4.3,51.25,4.35,51.37,4.4ZM26.68,10.18a.78.78,0,0,0-.73.46,1.64,1.64,0,0,0-.45.1A33.13,33.13,0,0,0,20.81,14a55.26,55.26,0,0,0-6.66,7.19,43.41,43.41,0,0,0-5.4,8.14A73,73,0,0,0,4,41.14a21.34,21.34,0,0,0-1,4.87,25.41,25.41,0,0,0,0,5,3.19,3.19,0,0,0,.57,1.77A9.87,9.87,0,0,1,4.21,52a12.7,12.7,0,0,0,1.63-2.6,2.47,2.47,0,0,0,0-1.61,2.5,2.5,0,0,1,.17-2,1.94,1.94,0,0,0,.22-1.27,2.55,2.55,0,0,1,.12-1.06,6.26,6.26,0,0,0,.39-2.34A3.33,3.33,0,0,1,7,39.59a18.57,18.57,0,0,0,.72-2.38c.18-.59.17-1.37.71-1.72a3,3,0,0,0,1.14-2.22,14.28,14.28,0,0,1,.53-2.19,26.18,26.18,0,0,1,5.64-9.2c.34-.35.68-.66.57-1.23a1.43,1.43,0,0,1,.53-1.27c1-1,2-2,2.95-3.05a1.45,1.45,0,0,1,1.47-.58c.45.15.54-.09.73-.35.73-1,1.5-2,2.31-2.89a8.36,8.36,0,0,0,1.62-1.89.81.81,0,0,0,.71-.47l.08-.05s0,0,0,0Zm-10,11.88a2.22,2.22,0,0,0-.32.21,23.44,23.44,0,0,0-6.19,11.22,1.94,1.94,0,0,0,.1,1.63,2.6,2.6,0,0,1,.14,2.49q-.84,2.7-1.7,5.41a.37.37,0,0,0,0,.23c.35.75-.08,1.41-.31,2a2.76,2.76,0,0,0-.2,1.7,1.86,1.86,0,0,1-.27,1.49c-.4.54.19,1,.09,1.59,0,.09.23.2.4.17a2.78,2.78,0,0,0,.71-.12,50.3,50.3,0,0,0,6.82-3.08c.76-.44,1.44-1,2.2-1.43A45.51,45.51,0,0,0,24,41.92a46.63,46.63,0,0,0,5.29-4.82A71.5,71.5,0,0,0,34,31.51a24.14,24.14,0,0,0,2.73-4.26c-1.22-.55-2.34-1.09-3.48-1.55a17.71,17.71,0,0,1-2.32-1.34,11.75,11.75,0,0,1-2.17-2.11,3.3,3.3,0,0,0-1.42-1.08,8.76,8.76,0,0,1-1.64-.69c-.45-.24-.69-.28-1,.23-.26.36-.62.48-.48,1.11s-.41,1.09-1,1.3a1.34,1.34,0,0,0-.63.44c-.51.6-.9.59-1.27-.13-.28-.55-.74-.55-1.15-.8,0,.18-.1.28-.07.32a22.94,22.94,0,0,0,3.27,3.63,1.76,1.76,0,0,0,1.72.53,1.25,1.25,0,0,1,1.45.58,1.84,1.84,0,0,0,1.21.89c.91.21,1.33.89,1.81,1.6s1.44.86,1.76,1.72c0,.07,0,.16.07.22.23.33.13.56-.14.83-.63.63-.76.64-1.48,0a6.61,6.61,0,0,0-.86-.64c-1.09-.64-1.83-1.77-3.1-2.18-.12,0-.17-.25-.27-.37A7.3,7.3,0,0,0,24.11,28a22.1,22.1,0,0,1-4.56-4.55.8.8,0,0,0-.77-.37A2.21,2.21,0,0,1,16.68,22.06ZM4.44,52.69c-.62.88-.64,1.15-.07,1.25a8.7,8.7,0,0,0,3,.29q4.11-.63,8.16-1.61a42.79,42.79,0,0,0,11.66-4.53A58.78,58.78,0,0,0,35,42.87c1.56-1.28,3.17-2.51,4.61-3.93a58.85,58.85,0,0,0,3.64-4.63c.86-1,1.5-2.25,2.4-3.27.4-.46.9-.95.71-1.69a.34.34,0,0,1,.16-.29c1.37-.4,1.42-1.73,1.94-2.72.12-.23.21-.5.35-.74a28.11,28.11,0,0,0,2.5-5.9c.12-.41-.07-1,.15-1.28.92-1.17.67-2.63,1.06-3.93.16-.54.58-1.3-.08-1.91-.06-.05,0-.23,0-.34.45-1.83-.32-3.63-.15-5.46,0-.14-.11-.3-.13-.45-.06-.52-.3-.77-.86-.73a2.05,2.05,0,0,1-1.6-.32C49.4,5,49,5.35,49,5.76s.13.48.44.59a1.38,1.38,0,0,1,1,1.1c0,.2,0,.43-.19.52a.33.33,0,0,1-.47-.24c0-.53-.39-.74-.81-.88s-.53-.47-.82-.7A6.85,6.85,0,0,0,47,7.51c-.3.4-.19.73.27,1a3.41,3.41,0,0,0,.68.23,1.78,1.78,0,0,1,1,.81.23.23,0,0,1-.06.32c-.09.09-.24.13-.31,0-.62-.8-1.81-.46-2.35-1.33a6.6,6.6,0,0,0-1,1.62.5.5,0,0,0,0,.57.43.43,0,0,0,.55.09,2,2,0,0,1,1.16-.18,1,1,0,0,1,.9.82c0,.16,0,.36-.13.43a.29.29,0,0,1-.38-.18c-.25-.63-.67-.49-1.18-.35-.33.09-.7.4-1,.2-.6-.37-.68.11-.85.44a7.87,7.87,0,0,0-.4,1c-.1.28-.41.59-.21.86s.65.21,1,.15l.58-.15a1.07,1.07,0,0,1,1.34.82.41.41,0,0,1-.12.44.24.24,0,0,1-.39-.11c-.27-.56-.69-.59-1.19-.35a1.77,1.77,0,0,1-.82.1c-.93,0-.93,0-1.28.82-.14.33-.3.65-.42,1s0,.65.44.49a1.44,1.44,0,0,1,.92-.15c.32.09.85.14.78.58s-.53.14-.81.13c-1.56-.07-2.12.36-2.29,1.78a6.44,6.44,0,0,1,1.12-.2.44.44,0,0,1,.46.56c-.07.37-.29.25-.53.15-.52-.21-.91.36-1.47.26-.21,0-.32.56-.47.87s-.21.41-.31.59c.27.47.85.36,1.12.72.13.19.33.41.19.64s-.39.06-.59-.06c-.88-.52-1.05-.47-1.49.42a1.59,1.59,0,0,0-.32.87c.42.22,1-.09,1.35.34.15.16.41.31.18.59s-.36.07-.5-.05a1.46,1.46,0,0,0-1.26-.22c-.25,0-.49.29-.37.5s.3.72.76.86a6.7,6.7,0,0,1,3,2.53,1.14,1.14,0,0,1,.18.3,1.38,1.38,0,0,1-.41,1.52c-.43.37-.83.12-1.22,0a2.54,2.54,0,0,1-.85-.65,11.7,11.7,0,0,0-.95-.91c-.14-.12-.4-.35-.49-.19-.46.78-.68,0-1-.12s-.58-.39-.9.08c-.5.75-.53.76.32,1.18l.2.13c.15.08.28.2.23.37a.3.3,0,0,1-.38.2c-.46-.1-.91-.23-1.38-.35a6.13,6.13,0,0,0-.82,1.41,10.75,10.75,0,0,1,1,.45.34.34,0,0,1,.12.51c-.11.17-.29.12-.42,0-.31-.25-.72,0-1-.23a.4.4,0,0,0-.6.17,9.79,9.79,0,0,0-1.37,2c.32.42.89.36,1.25.66.1.09.26.22.14.41s-.19.25-.38.18A3.21,3.21,0,0,1,32.07,35c-.31.32-.57.56-.8.84-.44.56-.41.64.23,1.05a1.38,1.38,0,0,1,.73.75c0,.16.13.3,0,.44A.27.27,0,0,1,31.8,38c-.38-.49-1-.65-1.43-1.14l-1.51,1.8c.34.35.8.38,1,.75.07.14.18.26,0,.42a.35.35,0,0,1-.44.06c-.43-.26-.85-.54-1.31-.84l-1.3,1.51c.19.48,1.1.53.63,1.26-1.56-.77-1.74-.72-3,.78a1.66,1.66,0,0,1,1.12.83c.05.12.06.25,0,.32a.39.39,0,0,1-.32.07,1.7,1.7,0,0,1-.39-.27c-1.07-.74-1.07-.74-2,.11-.12.1-.24.22-.37.31-.48.31-.49.54.05.84.35.21.77.5.42,1.08-.41-.27-.93-.44-1.17-.8s-.54-.45-.93-.17-.86.34-1.16.75a8.79,8.79,0,0,1,.68.58c.13.14.25.35.1.53s-.39.09-.6-.07c-1.09-.82-1.1-.82-2.21,0-.2.15-.55.2-.53.56.18.36.58.44.82.7a.4.4,0,0,1,0,.54.29.29,0,0,1-.43,0c-.37-.33-.88-.49-1.13-1-.47.55-1.2.6-1.59,1.17a1.87,1.87,0,0,1,.89,1,.38.38,0,0,1-.12.32.23.23,0,0,1-.32,0c-.08-.08-.14-.19-.22-.28a1.63,1.63,0,0,0-2.19-.32c-.26.16-.6.18-.8.45,1,.85,1,.85.66,1.74a9.49,9.49,0,0,0-1.13-1.22c-.2-.21-.38-.32-.6-.18-.48.28-1.08.31-1.54.75a1.59,1.59,0,0,1,1.1,1,.4.4,0,0,1-.18.52c-.2.1-.27-.07-.34-.21-.23-.52-.79-.65-1.17-1s-1-.09-1.3.2-.17.6.16.88.32.59-.06,1c-.3-1-1.24-.74-1.81-1.18a.41.41,0,0,0-.63.06c-.22.3.08.39.28.49.58.28.62.69.3,1.42A3.59,3.59,0,0,0,4.44,52.69Zm45.1-48.4c-1.25-.44-2.35-1-3.53-.19a.9.9,0,0,1-.47.07,24.3,24.3,0,0,1-2.95.26,2.07,2.07,0,0,0-1.33.44,3.2,3.2,0,0,1-1,.41,7.34,7.34,0,0,0-3.37,1.4c-.13.11-.37.1-.56.16-.54.18-1.18.14-1.51.76-.12.22-.43.19-.67.19A19.89,19.89,0,0,1,31.08,8a1.56,1.56,0,0,0-1,.33,15.37,15.37,0,0,0-2.35,1.82,30.62,30.62,0,0,0-5,5.3,1.63,1.63,0,0,0-.15,2.17,6.44,6.44,0,0,0,2,1.77,18.43,18.43,0,0,0,3.31,1.28c1.41.32,2.9.39,4,1.57a4.25,4.25,0,0,1,2.45,1.08c.86.58,1.91.73,2.74,1.36.66.49.72.44,1.11-.34,1.52-3,2.84-6.11,4.09-9.25a40.65,40.65,0,0,1,2.55-5.63A13,13,0,0,1,49.54,4.29ZM23.21,19c-1-.27-1-.27-1.41-1.42-.05-.15-.12-.29-.18-.44-.32-.8-.88-1-1.37-.25-.76,1.09-1.91,1.8-2.69,2.86a1.93,1.93,0,0,0-.45,1.6,1.46,1.46,0,0,0,2.17.93c.4-.16.81-.56,1.21-.3s1.26.36,1.43,1.21c.27-.48.49-.76,1-.78s.63-.37.41-.83c-.38-.82-.38-.82.43-1.15-.61-.9-1.93-.57-2.76-1.42C21.86,18.5,22.52,19.28,23.21,19ZM6.64,51.59c.31-.85.75-1.52.51-2.3s.62-1.48.32-2.3a2,2,0,0,1,0-.6,1.54,1.54,0,0,1,0-.48c.29-1.09.58-2.19.82-3.3A20.12,20.12,0,0,1,9.5,38.3a12.26,12.26,0,0,0,.56-1.93.59.59,0,0,0-.33-.7A.63.63,0,0,0,9,35.9a1.67,1.67,0,0,0-.32.62C8.19,37.65,8.25,39,7.54,40c-.06.08,0,.23,0,.35A11.34,11.34,0,0,1,6.83,44a1.17,1.17,0,0,0,0,.59,3.05,3.05,0,0,1-.23,1.63,1.64,1.64,0,0,0,0,1.8.71.71,0,0,1,.07.79A3.7,3.7,0,0,0,6.64,51.59Zm22.47-29.8a8.09,8.09,0,0,0,1.71,1.66c.85.58,1.56,1.44,2.67,1.65.44.08.81.47,1.33.42.33,0,.58.22.82.44s.35.41.55.44c1.08.17,1.76,1,2.63,1.54a8,8,0,0,1,1.81,1.54,3.39,3.39,0,0,0,.56.44.41.41,0,0,0,.62-.08.4.4,0,0,0,.06-.53A6.31,6.31,0,0,0,39.38,27a2.82,2.82,0,0,1-1.15-.79,2.86,2.86,0,0,0-1-.67c-.75-.43-1.62-.62-2.33-1.06a10.06,10.06,0,0,0-3.26-1.58,1.93,1.93,0,0,1-1.06-.73A1.27,1.27,0,0,0,29.11,21.79Zm2.5-14.53c.36,0,.71,0,1.07,0,.81,0,1.69.17,2.26-.69a.7.7,0,0,1,.53-.24,2.9,2.9,0,0,0,1.94-.78,2.93,2.93,0,0,1,.85-.42A17.91,17.91,0,0,0,41.7,3.94a2.41,2.41,0,0,1,1.74-.21c.45.16.69-.07,1.08-.36A8.4,8.4,0,0,0,42,3.21a1.55,1.55,0,0,0-1.23.36A11.22,11.22,0,0,1,36.9,5.2a5,5,0,0,0-1.63.71,3.12,3.12,0,0,1-2.11.67A1.92,1.92,0,0,0,31.61,7.26Zm-.95,25.11c0-.1-.05-.23-.13-.3a29.22,29.22,0,0,0-2.86-2.71c-.65-.43-1.48-.57-1.85-1.38a.45.45,0,0,0-.71-.19c-.22.19-.07.46.09.64a4.75,4.75,0,0,0,1.88,1.73,3.64,3.64,0,0,1,1.21.93,22.46,22.46,0,0,0,2,1.48C30.48,32.71,30.55,32.5,30.66,32.37ZM50.77,5l-.2,0s0,0,.08.06a.2.2,0,0,0,.11,0S50.77,5,50.77,5Z"/></g></g></svg>