<svg xmlns="http://www.w3.org/2000/svg" viewBox="0 0 38.6 115.14"><title>Corycaeus</title><g id="Layer_2" data-name="Layer 2"><g id="Corycaeus"><path d="M4.05,8.14l-1.66.61a1.37,1.37,0,0,1-1.32-.09c.82-.7,2-.55,2.77-1.42C2.42,7.15,1.07,7.3,0,6.38c1.4-.26,2.77.64,4.19,0C3.75,5.8,2.53,6,2.67,4.76c.78.3,1.32.91,2.11,1,.11,0,.21.11.32.14a.36.36,0,0,0,.41-.17c.15-.26-.08-.34-.23-.43l-1-.61a5.39,5.39,0,0,1-.5-.33A.32.32,0,0,1,3.62,4,.31.31,0,0,1,4,3.84c.35.18.68.41,1,.58S5.83,5,6.47,5c-.56-.47-1-.86-1.5-1.27-.15-.13-.29-.31-.12-.51s.35,0,.51.08A4.86,4.86,0,0,0,7.61,4.53C7.38,4.07,7,4,6.71,3.74s-.41-.38-.59-.59-.53-.38-.19-.68.41.07.58.22c.43.35.86.71,1.32,1a1.3,1.3,0,0,0,1.41.17c-.42-.42-.81-.81-1.19-1.22-.18-.19-.5-.41-.16-.68s.49.08.68.27.58.67.9,1,.48.46.93.24C9.94,2.88,9.48,2.32,9,1.74a9.3,9.3,0,0,1-.59-.9.21.21,0,0,1,0-.31.32.32,0,0,1,.44,0,3.81,3.81,0,0,1,.57.75,12.64,12.64,0,0,0,2,2.16c.16-.83-.58-1.49-.08-2.27.85.57.34,1.94,1.52,2.36-.14-.86-.25-1.65-.4-2.43a1.55,1.55,0,0,1,0-.71c.06-.2.18-.38.41-.37s.28.25.27.45a7,7,0,0,0,.45,2.68c.11.3.17.63.63.63a1.72,1.72,0,0,0-.06-1.26,2.15,2.15,0,0,1,0-1.39c.68.39.56,1,.64,1.48A5.15,5.15,0,0,0,15.36,4a3.1,3.1,0,0,0,.15-1.7c0-.16-.12-.31-.12-.46,0-.32-.29-.82.25-.88s.46.46.43.78a22.84,22.84,0,0,0,.27,2.49c0,.58.24.71.83.57a8.25,8.25,0,0,1,4,0c.6.14.82,0,.83-.56a17.39,17.39,0,0,0,.27-2.49.48.48,0,0,1,0-.12c0-.31,0-.73.44-.68s.35.5.27.76A4,4,0,0,0,23,4a3.82,3.82,0,0,0,.52-1.76c0-.39.09-1,.44-1,.53.09.33.72.24,1.11a2.15,2.15,0,0,0-.08,1.37c.39,0,.5-.23.59-.5A7.66,7.66,0,0,0,25.17.57c0-.23-.06-.55.27-.56s.46.31.43.59c-.08.67-.21,1.33-.32,2-.05.27-.11.53-.18.89,1.24-.36.74-1.7,1.51-2.32.61.73-.14,1.38-.08,2.16a7.32,7.32,0,0,0,2-2c.19-.25.34-.54.55-.78a.36.36,0,0,1,.53,0c.17.13.06.28,0,.42a12.73,12.73,0,0,1-1.5,2l-.41.46c.3.25.51.11.75-.05a6.44,6.44,0,0,0,1-1c.19-.22.4-.66.75-.37s-.05.55-.24.76c-.34.39-.71.74-1.1,1.13a1.34,1.34,0,0,0,1.51-.22A6.56,6.56,0,0,0,31.92,2.6c.13-.16.31-.3.51-.13s0,.42-.11.59a7,7,0,0,1-1.68,1.38,1.78,1.78,0,0,0,1.49-.51q.46-.37,1-.72c.12-.09.27-.18.42,0a.3.3,0,0,1,0,.42,4.34,4.34,0,0,1-1.19,1,.42.42,0,0,0-.28.32c.32.17.53-.08.76-.21.45-.24.89-.52,1.34-.78.21-.13.49-.24.63,0s-.12.44-.31.56c-.44.28-.9.52-1.34.79-.15.09-.4.18-.24.42a.41.41,0,0,0,.52.14,6.93,6.93,0,0,0,1.53-.66c.24-.14.42-.37.81-.38.12,1.13-1.07.95-1.44,1.59,1.32.7,2.7-.35,4.34-.1-1.29,1-2.62.86-4.1.9.8.9,2,.74,2.79,1.45A1.37,1.37,0,0,1,36,8.75L34.3,8.14A.3.3,0,0,0,34,7.9a.36.36,0,0,0,0-.09l-.06,0,.13.08c0,.15.07.27.26.25a8.13,8.13,0,0,0,1.26,2.38,1.63,1.63,0,0,1,.23,1.55c-1-1.24-1.41-2.81-2.72-3.91,0,.74,0,1.33,0,1.93a.34.34,0,0,1-.28.34c-.26,0-.31-.19-.27-.4a8.09,8.09,0,0,0-.18-2.25.43.43,0,0,0-.36-.4c-.26.5.11,1.11-.32,1.68-.62-.59-.07-1.42-.54-2.07-.37.34,0,.86-.36,1.2-.5-.1-.43-.6-.56-.92s-.1-.56-.49-.53l0,0,0,0c-.18.38.54,1-.13,1.13s-.35-.59-.57-.89a1.27,1.27,0,0,0-.81-.63c-.23.2,0,.35,0,.53s-.09.38-.34.31a.89.89,0,0,1-.28-.21c-.85-.75-.85-.75-2.19-.6a14.71,14.71,0,0,1,2.75,1.81,12.07,12.07,0,0,1,3.45,6.29,48.2,48.2,0,0,1,1,6.22,68.25,68.25,0,0,1,.42,10.88,74.23,74.23,0,0,1-.85,9.63c-.3,1.67-.37,3.39-.77,5,0,.16,0,.32-.09.47-.25.76-.34.79-1,.35s-.77-.29-.8.39A3,3,0,0,0,29.75,49c.25.49.42,1,.64,1.53A6.73,6.73,0,0,1,31,53.73c-.05.88-.11.91-1,.4,0,1.3.32,2.56.25,3.84A17.16,17.16,0,0,1,29,63.62l-.06.11c-.23.3-.33.86-.79.78s-.28-.65-.3-1A6.45,6.45,0,0,0,26,59.81,2.83,2.83,0,0,0,25,58.87v2.8c-.83-.14-.67-.92-1.08-1.25s-.76-.7-1.2-1.12A2,2,0,0,0,23,61.15a17.67,17.67,0,0,1,2.6,6.72,12,12,0,0,1-.2,5.34,4.31,4.31,0,0,1-2.49,2.89c-.43.18-.65.44-.49.92.44,1.32,0,2.62-.16,3.91a14.73,14.73,0,0,0,0,1.75c-.05,2-.54,4-.34,6a25.68,25.68,0,0,0,1,5.13,3,3,0,0,0,2.56,2.17c.46.08.93.07,1.23.52-.44.5-.91.19-1.39.09a8.56,8.56,0,0,1-1.83-.66c-.49,1.43.15,2.54.93,3.61.42.57.91,1.1,1.38,1.64.16.2.34.4.1.62s-.46,0-.6-.17a15.41,15.41,0,0,1-2.3-3.19c0-.06-.12-.09-.25-.18a1,1,0,0,0,0,.75,15.73,15.73,0,0,0,1.63,3.19,6.11,6.11,0,0,1,.36.61s0,.15-.09.2-.17.18-.3.1a2.19,2.19,0,0,1-.71-.8,22,22,0,0,1-1.65-3.41,80.91,80.91,0,0,0,.18,8.29,77.16,77.16,0,0,0,1,8c-.6,0-.73-.27-.77-.59-.28-2-.56-3.93-.78-5.91-.4-3.62,0-7.27-.4-10.89a23.09,23.09,0,0,0-.58-2.42,35.47,35.47,0,0,1-.9-6.48c0-.12,0-.24,0-.36,0-.3-.18-.4-.47-.4s-.44.14-.43.43a25.29,25.29,0,0,1-.22,2.74,31.44,31.44,0,0,1-1.05,5.35,16.91,16.91,0,0,0-.38,3.68c-.07,1.71,0,3.43,0,5.15s-.26,3.42-.43,5.12c-.12,1.27-.35,2.52-.53,3.77,0,.37-.1.86-.51.79s-.25-.59-.18-.91a55.37,55.37,0,0,0,.92-7.92c.11-2.2.21-4.39.21-6.59v-1a20.62,20.62,0,0,1-1.38,2.92,6.18,6.18,0,0,1-.48.83c-.2.25-.39.76-.77.52s.06-.61.21-.87a16.2,16.2,0,0,0,1.56-3.08,1.11,1.11,0,0,0,.08-.8c-.38,0-.38.37-.49.59a23.24,23.24,0,0,1-2.18,2.84.32.32,0,0,1-.52.06c-.16-.18-.1-.36,0-.53.47-.55.94-1.09,1.39-1.65a3.92,3.92,0,0,0,1-3.68,13.76,13.76,0,0,1-2,.72,2.55,2.55,0,0,1-1.06.08.22.22,0,0,1-.2-.25c0-.07.05-.17.11-.2a3.52,3.52,0,0,1,1-.29,3,3,0,0,0,2.69-2.32A19,19,0,0,0,16.33,85a10.94,10.94,0,0,1-.14-2.74A14.45,14.45,0,0,0,16,79.83a7.61,7.61,0,0,1,0-3c.12-.38-.12-.58-.44-.73-2.09-.94-2.73-2.73-2.89-4.83a16.6,16.6,0,0,1,2.63-10,2.27,2.27,0,0,0,.43-1.94,4.9,4.9,0,0,0-2,2.43c-.61-1-.15-2-.44-3-1.45,1.44-2.72,2.87-2.72,5a1.25,1.25,0,0,1,0,.47.28.28,0,0,1-.47.15,2.45,2.45,0,0,1-.57-.75,13.17,13.17,0,0,1-1.11-3.51,14.15,14.15,0,0,1,0-5.23,4,4,0,0,0,0-.85c-.83.5-.88.47-1-.41a7.49,7.49,0,0,1,.82-3.8,4.83,4.83,0,0,0,.64-2.5c-.07-.7-.2-.77-.8-.4s-.83.43-1-.33A20.55,20.55,0,0,1,6.46,44c-.34-2.52-.63-5.05-.94-7.57a2.19,2.19,0,0,1,0-.36c0-2.84-.38-5.66-.25-8.5A69,69,0,0,1,6.69,14.44a11.92,11.92,0,0,1,3.44-6.29A15.22,15.22,0,0,1,13,6.3c-.94-.09-1.67-.21-2.19.55-.13.19-.31.44-.58.28s.1-.48,0-.82a.91.91,0,0,0-.8.53c-.11.25-.19.52-.29.78s-.17.28-.35.24a.3.3,0,0,1-.23-.45c.07-.22.19-.45-.1-.69-.41.39-.26,1.07-.7,1.43A1.9,1.9,0,0,1,7.3,7c-.36,0-.26.33-.29.53s0,.48,0,.71.1.66-.31.64-.22-.37-.23-.59V7.21A2.77,2.77,0,0,0,5.8,9a6.38,6.38,0,0,0,0,1.07c0,.17-.07.35-.26.33a.34.34,0,0,1-.3-.33v-2C4,9.26,3.52,10.72,2.64,12a.66.66,0,0,1-.14-1c.34-.62.72-1.23,1.07-1.85.19-.34.53-.62.46-1.06.18,0,.24-.1.26-.25a.32.32,0,0,0,.09,0s0,0,0,0l-.09.11A.31.31,0,0,0,4.05,8.14ZM8.31,12a7.25,7.25,0,0,0-.86,2.24,43.51,43.51,0,0,0-.82,4.56A47.47,47.47,0,0,0,6,24.33c-.06,3,0,5.92,0,8.88,0,.72.17,1.42.24,2.14a1.12,1.12,0,0,0,.37.73,5.27,5.27,0,0,0,1.86,1.27c1.13.36,2.27.69,3.42,1a30.65,30.65,0,0,0,5.31.7,8.09,8.09,0,0,0,2.24.16,19.91,19.91,0,0,1,3-.29,29.51,29.51,0,0,0,7-1.4,5.74,5.74,0,0,0,2.16-1.23,1.68,1.68,0,0,0,.62-1.1,15.35,15.35,0,0,0,.21-2c0-1.39,0-2.79,0-4.19A60,60,0,0,0,31.14,15.2,9,9,0,0,0,30,11.93a3.06,3.06,0,0,1-3,1.45,8.31,8.31,0,0,1-4.65-1.65,5.28,5.28,0,0,1-1.8-2.18,2,2,0,0,1,1.19-2.83,6.25,6.25,0,0,1,2.23-.32,11,11,0,0,0-9.59,0h1a3.08,3.08,0,0,1,1.49.37,2.07,2.07,0,0,1,.87,3.12,7.28,7.28,0,0,1-5.16,3.29A3.88,3.88,0,0,1,8.31,12Zm-2,24.84a.94.94,0,0,0-.09.72c.27,1.88.56,3.76.73,5.66.08.9.3,1.79.46,2.69.06.37.18.6.63.37a2.72,2.72,0,0,1,2.08,0,11.65,11.65,0,0,1,2.2.89,9.8,9.8,0,0,0,2.75,1.11,22.49,22.49,0,0,0,6,.32,14.66,14.66,0,0,0,5.29-1.65,9.21,9.21,0,0,1,1.77-.67,2.72,2.72,0,0,1,2.08,0c.45.24.57,0,.63-.37.11-.71.21-1.41.31-2.12q.45-3.3.89-6.59a1.85,1.85,0,0,0-.09-.44,7,7,0,0,1-3.42,1.69,31.81,31.81,0,0,1-3.33.84,38.75,38.75,0,0,1-5.68.56,29.52,29.52,0,0,1-7.44-.75C10.14,38.6,8,38.28,6.35,36.81ZM16.56,78.5h0v1.56c0,.41.19.6.59.51a8.67,8.67,0,0,1,4,0c.39.09.61-.08.61-.5,0-1,0-2.08,0-3.12,0-.36-.11-.61-.58-.52a1.39,1.39,0,0,1-1.27-.5.37.37,0,0,1,0-.45.24.24,0,0,1,.4,0,1.66,1.66,0,0,0,1.69.21,3.81,3.81,0,0,0,2.86-3.18,11.67,11.67,0,0,0-.1-5.19,19.7,19.7,0,0,0-2.29-5.71c-.21-.38-.34-.89-.66-1.1s-.81.09-1.22.22a2.13,2.13,0,0,1-.83.1,7.08,7.08,0,0,1-2.58-.3c-.44-.21-.77-.09-1,.45-.3.72-.76,1.39-1.12,2.09a15.84,15.84,0,0,0-1.83,7.56,6.32,6.32,0,0,0,1,3.62,3.36,3.36,0,0,0,1.89,1.37c.67.19,1.31.4,1.91-.14.13-.11.3-.14.4,0a.37.37,0,0,1,0,.45,1.38,1.38,0,0,1-1.27.5c-.45-.09-.57.13-.58.51ZM9.94,63.12a7.08,7.08,0,0,1,1.5-3.24c.72-.91,1.58-1.69,2.21-2.67a3.48,3.48,0,0,1,1.81-1.31,11.84,11.84,0,0,1,6-.4A4.89,4.89,0,0,1,25.29,58a4.24,4.24,0,0,0,.64.71C27,60,28.15,61.22,28.38,63a2.25,2.25,0,0,0,.39-.75,16.57,16.57,0,0,0,.51-8c-.05-.38.14-.89-.22-1.13a1.55,1.55,0,0,0-1.26-.27c-.78.23-1.6.07-2.36.25a7.81,7.81,0,0,1-4.66-.47,4.63,4.63,0,0,0-3.24,0,7.94,7.94,0,0,1-4.55.47,22.4,22.4,0,0,0-2.61-.26c-.87-.1-1.08.22-1.28,1.08a22.32,22.32,0,0,0-.22,4.76A11.08,11.08,0,0,0,9.94,63.12Zm5.77-14.21c.07.34.53.46.24.79s-.44,0-.64-.05a.88.88,0,0,1-.3-.2c-1.11-1.15-2.64-1.58-4-2.25a1.8,1.8,0,0,0-1.63-.29,3.73,3.73,0,0,1-.29,2.65c-.2.55-.48,1.08-.66,1.65a4.48,4.48,0,0,0-.41,2c1.24-1.22,2.7-1,4.12-.8A10.07,10.07,0,0,0,17.4,52,4.44,4.44,0,0,1,21,52a10.22,10.22,0,0,0,5.29.38c1.43-.18,2.88-.39,4.18.83a11.65,11.65,0,0,0-1-3.35,4.24,4.24,0,0,1-.45-3,3.25,3.25,0,0,0-2.08.48,13.66,13.66,0,0,0-3.77,2.22c-.16.15-.48.39-.74.09s.2-.44.23-.78a14.38,14.38,0,0,1-3.45.3A15,15,0,0,1,15.71,48.91ZM23.54,7.19c-.24,0-.48,0-.72,0-2,.1-2.07,1.58-1.43,2.62A4.7,4.7,0,0,0,22.52,11a8.28,8.28,0,0,0,3.67,1.59,3.82,3.82,0,0,0,2.11-.15c1.16-.49,1.42-1.19.77-2.23A6.13,6.13,0,0,0,23.54,7.19Zm-12.16,5.5a7.9,7.9,0,0,0,5-2.15,3.18,3.18,0,0,0,.76-1.07,1.53,1.53,0,0,0-1.29-2.26,8.47,8.47,0,0,0-1.67,0,6.17,6.17,0,0,0-5,3.26,1.24,1.24,0,0,0,.51,1.83A2.88,2.88,0,0,0,11.38,12.69Zm7.75,68.43h0c-.48,0-1,0-1.44,0-.83,0-.87.08-.89.89a32.3,32.3,0,0,0,.41,4.49c.08.75.41,1,1,.93a22.46,22.46,0,0,0,2.32-.05.57.57,0,0,0,.54-.5c.21-.86.12-1.75.32-2.59a13,13,0,0,0,.13-2.49.56.56,0,0,0-.63-.67ZM14,59.88a5.62,5.62,0,0,1,2.16-1.44,34.7,34.7,0,0,1,6,0,6.56,6.56,0,0,1,2.2,1.46,16.13,16.13,0,0,0-.09-1.62A2,2,0,0,0,23,56.66,8.23,8.23,0,0,0,20.47,56a8.94,8.94,0,0,0-5.54.9c-.28.15-.65.27-.7.61C14.13,58.28,13.7,59,14,59.88ZM22.48,97a2.19,2.19,0,0,1,.05-.68,2.28,2.28,0,0,0-.16-1.92,10.68,10.68,0,0,1-.83-3c-.11-1-.33-1.95-.45-2.93-.05-.37-.21-.47-.54-.44s-.41.33-.32.6a5.36,5.36,0,0,1,.17,1.54,30.24,30.24,0,0,0,1,5.83A1.08,1.08,0,0,0,22.48,97Zm-6.55,0c.82-.33.81-.34,1.08-1.23a43.27,43.27,0,0,0,1.15-7.25c0-.28-.05-.46-.37-.47s-.46,0-.51.34-.2.85-.23,1.29a15,15,0,0,1-1.25,5.15c-.15.36-.28.67-.08,1S15.74,96.68,15.93,97Zm3.29-38H17c-.21,0-.4.07-.38.33a.36.36,0,0,0,.26.35,5.63,5.63,0,0,0,4.6,0c.2-.08.35-.17.34-.4s-.22-.3-.42-.3ZM26.5,4.2c-.25-.19-.53-.1-.8-.12a1.08,1.08,0,0,0-.36,0,.89.89,0,0,0-.57,1c.08.38.24.64.73.59C26.29,5.62,26.41,5.49,26.5,4.2Zm-14.65,0A1.56,1.56,0,0,0,12,5.27c.19.54.72.44,1.12.4s.51-.5.45-.83-.21-.79-.74-.76A2.39,2.39,0,0,0,11.85,4.19Zm16.9.29a3.41,3.41,0,0,0-.57-.29c-.89-.29-1.12-.08-1.07.84a.6.6,0,0,0,.55.63c.34.07.65,0,.8-.31S28.63,4.84,28.75,4.48ZM9.61,4.43a8.7,8.7,0,0,0,.27.88.66.66,0,0,0,.31.33.8.8,0,0,0,.88-.15c.34-.34.21-.83.1-1.22s-.47-.21-.73-.16A4.47,4.47,0,0,0,9.61,4.43Zm19.89.18c-.25.15-.18.38-.28.54-.24.4-.16.66.3.78a.77.77,0,0,0,1.06-.56c0-.19,0-.27-.19-.34S29.77,4.74,29.5,4.61ZM7.74,5.13c.32.8.68,1,1.23.74.72-.41-.05-.82,0-1.33ZM16,5.05c-.66-.26-1.07-.72-1.59-.37-.31.22-.26.63-.09,1ZM32.56,6.61c0-.65-.67-.65-1-1-.07-.09-.24-.43-.39-.06-.09.21-.45.5,0,.69A2.2,2.2,0,0,0,32.56,6.61ZM5.73,6.54c.2.07.28.12.34.11.23-.06.45-.14.67-.22.67-.25.67-.25.24-1.06C6.68,5.85,6,5.9,5.73,6.54Zm16.8-1.43,1.62.56C24.1,4.32,23.93,4.26,22.53,5.11ZM5.33,6.84c-.43-.13-.47,0-.52.1a.3.3,0,0,0,.14.4c.16.06.3,0,.31-.23S5.24,6.81,5.33,6.84ZM33.55,7a.23.23,0,0,0-.31-.19.32.32,0,0,0-.13.41c0,.1.09.22.24.18S33.57,7.16,33.55,7Z"/><path d="M15.11,30.59c0,.12-.08.23-.22.21a2.49,2.49,0,0,1-.69-.17,6.86,6.86,0,0,1-2.93-2.69,2.64,2.64,0,0,1-.25-.66c0-.19,0-.41.2-.49s.28.11.34.25a5.93,5.93,0,0,0,3.24,3.14C15,30.27,15.15,30.34,15.11,30.59Z"/><path d="M23.51,30.8c-.16.05-.23-.07-.25-.18a.4.4,0,0,1,.07-.31,1.76,1.76,0,0,1,.41-.21,5.91,5.91,0,0,0,3-2.92c.09-.19.14-.52.48-.36s.17.36.12.54a6.19,6.19,0,0,1-3.7,3.42Z"/><path d="M31.93,32.15a10,10,0,0,1-.51,3.3c-.07.23-.18.48-.47.39s-.24-.32-.16-.58a13.3,13.3,0,0,0,.62-4.07c0-.22,0-.54.31-.49s.33.31.3.56S32,31.89,31.93,32.15Z"/><path d="M6.66,30.68a.29.29,0,0,1,.28.34,13.19,13.19,0,0,0,.69,4.4.33.33,0,0,1-.16.4c-.23.13-.39,0-.47-.2a9.54,9.54,0,0,1-.54-2.29,18.88,18.88,0,0,1-.13-2.13A.45.45,0,0,1,6.66,30.68Z"/><path d="M27.34,29.37a.87.87,0,0,1-.07.31,4.28,4.28,0,0,1-2.74,2.1.34.34,0,0,1-.41-.12c-.15-.23,0-.39.21-.45a4.6,4.6,0,0,0,2.47-1.93.29.29,0,0,1,.4-.13C27.26,29.19,27.28,29.28,27.34,29.37Z"/><path d="M11.32,29.1a1.15,1.15,0,0,1,.27.21A4.34,4.34,0,0,0,14,31.17c.18.06.39.19.31.42s-.25.24-.48.18a4.29,4.29,0,0,1-2.73-2.12.36.36,0,0,1,0-.44C11.15,29.16,11.24,29.14,11.32,29.1Z"/><path d="M29.35,36.72a1.17,1.17,0,0,1-.46,0c-.15-.08-.14-.27-.11-.43s.09-.3.21-.23c.83.47.62-.36.83-.66a1.34,1.34,0,0,0,.15-.69c0-.27.09-.61.46-.52s.31.42.22.71c-.15.48-.28,1-.47,1.45S29.81,36.94,29.35,36.72Z"/><path d="M8.94,36.74a.49.49,0,0,1-.66-.27,6.76,6.76,0,0,1-.61-1.91.36.36,0,0,1,.3-.44.34.34,0,0,1,.38.35A4.39,4.39,0,0,0,8.75,36s.05.46.35.16.43-.13.48.18-.06.45-.39.43A1.14,1.14,0,0,0,8.94,36.74Z"/><path d="M12.43,32.15c.07,0,.17,0,.22,0q.62.64,1.2,1.29a.22.22,0,0,1,0,.22.52.52,0,0,1-.31.12,2.58,2.58,0,0,1-1.31-1.42C12.22,32.26,12.31,32.2,12.43,32.15Z"/><path d="M25.88,32.14c.2,0,.31.19.24.32a2.56,2.56,0,0,1-1.26,1.35c-.09,0-.23,0-.32-.08a.23.23,0,0,1-.06-.2A5,5,0,0,1,25.88,32.14Z"/><path d="M24.23,37.8c-.09,0-.17,0-.19-.09s-.1-.28-.05-.33c.33-.38.7-.74,1.06-1.09a.25.25,0,0,1,.22,0,.53.53,0,0,1,.15.31A2,2,0,0,1,24.23,37.8Z"/><path d="M13.19,36.25c.36,0,.43.43.67.62s.78.44.45.8-.66-.17-.93-.4-.46-.35-.44-.67C12.94,36.44,13,36.28,13.19,36.25Z"/><path d="M13.86,35.27c0,.2-.19.24-.33.23a1.77,1.77,0,0,1-1.08-1.12c0-.17.08-.32.28-.28A2.66,2.66,0,0,1,13.86,35.27Z"/><path d="M25.69,34.1a.26.26,0,0,1,.22.34,1.81,1.81,0,0,1-1,1.05.27.27,0,0,1-.37-.18C24.45,35,25.37,34.1,25.69,34.1Z"/><path d="M15.8,46.26c-.05.24-.2.27-.36.28s-.36-.13-.51-.26a8.16,8.16,0,0,1-2-2.75c-.09-.21-.12-.4.08-.51s.36,0,.46.22A7.51,7.51,0,0,0,15.67,46C15.75,46,15.77,46.19,15.8,46.26Z"/><path d="M25.57,43.27a3.77,3.77,0,0,1-.21.57,9,9,0,0,1-1.92,2.42,1.25,1.25,0,0,1-.39.27.37.37,0,0,1-.43-.11.28.28,0,0,1,.05-.42A7.54,7.54,0,0,0,25,43.15c.08-.13.22-.26.4-.14A.79.79,0,0,1,25.57,43.27Z"/><path d="M8.6,44.83c0,.2.07.42-.17.52a.46.46,0,0,1-.53-.14.24.24,0,0,1-.06-.11,9.9,9.9,0,0,1-.67-3.67A1.3,1.3,0,0,1,7.9,42.7c0,.57.34,1,.32,1.63a.57.57,0,0,0,.41.53Z"/><path d="M29.73,44.86c.73-.5.48-1.36.68-2a4.49,4.49,0,0,1,.46-1.26c.3,0,.33.16.32.31a13.4,13.4,0,0,1-.55,3,.87.87,0,0,1-.18.31.45.45,0,0,1-.53.15c-.24-.1-.18-.32-.18-.51Z"/><path d="M25,45.33c.42.55,0,.87-.29,1.12-.68.59-1.23,1.47-2.45,1.25.34-.66,1-.74,1.46-1.15S24.58,45.75,25,45.33Z"/><path d="M13.31,45.39a14.27,14.27,0,0,0,2.81,2.16c-.76.51-1.24,0-1.63-.33C14,46.74,13.11,46.41,13.31,45.39Z"/><path d="M8.63,44.86c0-.46-.56-.88-.13-1.41.54.25.59.81.85,1.22.1.15.23.32,0,.5s-.34,0-.48-.13a2.92,2.92,0,0,1-.28-.21Z"/><path d="M29.75,44.84l-.46.35a.21.21,0,0,1-.3,0c-.08-.08-.17-.18-.09-.3.3-.47.4-1.08.92-1.44.49.55-.1,1-.09,1.43Z"/><path d="M15.8,42.7c0,.13-.1.22-.23.22-.4,0-.85-.68-.68-1a.24.24,0,0,1,.29-.13A1.77,1.77,0,0,1,15.8,42.7Z"/><path d="M22.86,42.93c-.23,0-.32-.13-.3-.3a1,1,0,0,1,.16-.3c.16-.25.23-.61.64-.54.06,0,.14.19.14.29A1,1,0,0,1,22.86,42.93Z"/><path d="M24.42,40.13a.56.56,0,0,1-.68.41c-.11,0-.25-.08-.2-.23a.62.62,0,0,1,.7-.47C24.35,39.85,24.46,39.93,24.42,40.13Z"/><path d="M14.17,39.81c.36,0,.75.4.65.59a.42.42,0,0,1-.3.15c-.35,0-.6-.18-.58-.57C13.94,39.91,14.11,39.86,14.17,39.81Z"/><path d="M10.53,45.23c-.06.08-.11.23-.2.26-.29.1-.41-.14-.51-.34a.21.21,0,0,1,.15-.28C10.24,44.82,10.41,45,10.53,45.23Z"/><path d="M28,45.57c0-.06-.14-.16-.15-.26-.05-.3.16-.41.41-.45a.21.21,0,0,1,.25.19C28.55,45.32,28.36,45.45,28,45.57Z"/><path d="M15.7,51.32c-.3-.26-.75-.46-1-.91-.09-.2.11-.31.26-.28A1.62,1.62,0,0,1,16,51C16.1,51.13,16,51.32,15.7,51.32Z"/><path d="M23.3,50.1a1,1,0,0,1,.27.11.19.19,0,0,1,0,.3,10.89,10.89,0,0,1-.88.78.2.2,0,0,1-.3-.07c0-.06-.08-.17-.05-.21A2.15,2.15,0,0,1,23.3,50.1Z"/></g></g></svg>