<svg xmlns="http://www.w3.org/2000/svg" viewBox="0 0 30.64 116.77"><title>CrabZoea</title><g id="Layer_2" data-name="Layer 2"><g id="CrabZoea"><path d="M10.67,81.67a1.72,1.72,0,0,1-1-.33c-1,1-1.15,2.47-1.86,3.79a1.29,1.29,0,0,1-.1-1.4,17.63,17.63,0,0,1,4.63-7.28,9,9,0,0,1,2.42-1.68,3.34,3.34,0,0,0,2-1.83,3.47,3.47,0,0,1,1.56-1.59c.9-.58,1.86-1.1,2.06-2.32.05-.3.36-.52.6-.73.43-.36.81-.77,1.23-1.14a3.15,3.15,0,0,0,1.13-1.91,2.41,2.41,0,0,1,.27-.78,8.27,8.27,0,0,0,.94-3c.16-1.21.2-2.44.31-3.75a3.61,3.61,0,0,0-1.34.79c-.16.12-.3.31-.48.35-1.35.37-1.69,1.43-2,2.62a12.59,12.59,0,0,1-2.77,4.37,8.93,8.93,0,0,0-1.93,3c-.15.47-.25,1-1,.92-.2,0-.33.21-.42.38s-.21.44-.4.37c-.54-.18-.78.2-1.1.47-.5.42-.51.41-.93-.28-.08-.12-.19-.23-.28-.34.38-.59,1-.83,1.43-1.33l0,0,0,.06c-.84-.15-.84-.15-.44-.65.05-.06.2-.1.19-.13-.18-1,.78-1.07,1.32-1.47.19-.14.44-.24.56-.43,1.1-1.66,2.69-3,3.06-5.34-.76.82-1.45,1.47-2,2.21a5.93,5.93,0,0,1-1.83,1.66,4.27,4.27,0,0,0-2.13,2.12,3.37,3.37,0,0,1-.49.81c-.12.16-.35.37-.49.19-.29-.38-.42-.25-.6.07a3,3,0,0,1-.46.55c-.27.26-.56.55-.78-.05a.16.16,0,0,0,0-.1c-.68-.45-.67-.44,0-.93.28-.22.64-.35.81-.68l.05,0,0,.06a.94.94,0,0,0-.34.08c-.25.15-.57.3-.74,0s.22-.48.43-.55c.41-.15.38-.46.39-.77.11-.06.26-.07.25-.24.21,0,.45,0,.46-.22a.67.67,0,0,1,.68-.67,3.27,3.27,0,0,0,1.73-1,.31.31,0,0,0,.26-.25.28.28,0,0,0,.25-.22.49.49,0,0,0,.2-.5l.1,0s0,0,0,0l-.11.1a.45.45,0,0,0-.21.5c-.18,0-.24.06-.24.22a.26.26,0,0,0-.26.25c-1-.35-1-.35-.51-1.47.32-.15.65-.29.78-.65A5.87,5.87,0,0,0,14,58.85a.22.22,0,0,0,.2-.25c0-.09-.11-.12-.12-.07a1.34,1.34,0,0,0,0,.35c-.37.41-.36,1-.69,1.42A4.76,4.76,0,0,0,12.59,62a1.35,1.35,0,0,1-.35,0c-.85-.24-.91-.27-.5-1s.26-1.32.53-1.93c.06-.14,0-.33-.17-.35a.34.34,0,0,0-.38.22,3.26,3.26,0,0,0-.06.7c0,.37.08.77-.18,1.1-.61-.2-.13-.85-.68-1.17a3.38,3.38,0,0,0,0,1.84,1.49,1.49,0,0,1,0,1.48,3.47,3.47,0,0,0-.55,2.47l-.25.26c-.48.08-.57-.23-.47-.58a3,3,0,0,0,.14-1.55C8.87,64,9.18,65,8.46,65.65c-.48-1,.23-1.85,0-2.77s-.16-1.79-.35-2.69c-.22.56-.85,1-.43,1.72,0,.08,0,.23,0,.34a6.19,6.19,0,0,0,.1,3.5c.13.39.13.39-.36.88-.15.15-.08.28,0,.43A6.36,6.36,0,0,1,8.08,69c-1-.45-1-1.34-1.39-2.06-.09.09-.24.18-.23.26a23.94,23.94,0,0,1-.65,4.21,44.28,44.28,0,0,0-.89,6.48,1.16,1.16,0,0,1-.2.8,1.31,1.31,0,0,0-.27.77c-.16,2-.3,4-.5,6s-.48,3.87-.66,5.8c-.1,1-.19,1.91-.26,2.86-.13,2-.4,4-.55,5.94-.19,2.41-.49,4.82-.72,7.24s-.54,4.74-.7,7.12c-.05.78-.22,1.54-.35,2.45a1.42,1.42,0,0,1-.63-1.17A43.34,43.34,0,0,1,.27,108a2.58,2.58,0,0,0,0-.48c-.09-2.72.25-5.42.29-8.14,0-1.71.22-3.42.38-5.12.12-1.27.27-2.54.33-3.81s.23-2.54.36-3.81.14-2.7.33-4,.33-2.45.4-3.68c.16-3.14.61-6.27.15-9.43a17.56,17.56,0,0,1-.32-3.33,19.7,19.7,0,0,0-.6-3.88C1.12,59.46.54,56.7.12,53.91A7.32,7.32,0,0,1,1.3,48.78a1.1,1.1,0,0,1,.49-.51c.36-.13.38-.42.47-.74A3.5,3.5,0,0,1,4,45.19a9,9,0,0,0,2.16-1.87,18.56,18.56,0,0,1,5-3.91,3.6,3.6,0,0,0,1.46-1.83A37.13,37.13,0,0,0,14.5,32c1-3.39,1.51-6.89,2.36-10.32A61.19,61.19,0,0,1,23.78,5.14,19.19,19.19,0,0,1,28,.31,1.93,1.93,0,0,1,28.3.09a.35.35,0,0,1,.53.06.31.31,0,0,1-.08.42,5.55,5.55,0,0,1-.42.42,14.66,14.66,0,0,0-3.62,5.28,80.51,80.51,0,0,0-4,11.18,42.62,42.62,0,0,0-1.41,7.94,53.24,53.24,0,0,0-.45,6.31,15.48,15.48,0,0,0,.56,3.52,3.69,3.69,0,0,0,2,2.25c.77.42,1.56.79,2.34,1.19a3.7,3.7,0,0,1,1.84,2,7.51,7.51,0,0,0,1.78,2.65A5.25,5.25,0,0,1,29,46.66a.89.89,0,0,0,.14.56,6,6,0,0,1,1.35,5.46,3.88,3.88,0,0,0-.05,1.66,12,12,0,0,1-.16,5.44,1.51,1.51,0,0,0-.12.58c.31,2-.91,3.74-1.22,5.64,0,.08,0,.19-.09.22-.92.51-1,1.59-1.51,2.34A12.59,12.59,0,0,0,25.75,71a1.14,1.14,0,0,1-1,.76c-.67,0-.9.33-1.14.8a4.87,4.87,0,0,1-1.55,1.64,29,29,0,0,1-3.89,2.69c-1.07.54-2,1.44-3.32,1.49a1.3,1.3,0,0,0-.88.57,18.7,18.7,0,0,0-3.34,5.46,3.5,3.5,0,0,0-.28,2.07c.07.33-.12.45-.37.48s-.3-.2-.31-.41A9.77,9.77,0,0,1,10.22,83c.13-.45.45-.84.42-1.35l.1,0a.33.33,0,0,0,0-.06Zm1.66-2.92a.29.29,0,0,0,.25-.24l.24-.24,0,0,0,.05-.23.25c-.13,0-.24.09-.25.24a.25.25,0,0,0-.26.23c-.19.12-.4.22-.58.36-.69.49-.68.49-.35,1.35-.19,0-.39-.06-.44.2a.27.27,0,0,0,.1.18c.28,0,.27-.23.32-.41a4.79,4.79,0,0,0,.93-1.7C12.25,79,12.31,78.89,12.33,78.75Zm-1.19,0c.14,0,.21-.1.24-.23a.26.26,0,0,0,.24-.23.24.24,0,0,0,.24-.24,9.19,9.19,0,0,0,1.33-.84c-.24-.08-.38-.43-.63-.15s-.7.51-.68,1c-.21,0-.24.09-.23.25-.17,0-.24.07-.24.23a.25.25,0,0,0-.25.23l-.07,0s0,0,0,0ZM25.06,67.47c.25-.09.29-.27.2-.5.55-.16.62-.6.72-1.17a2.76,2.76,0,0,0-.69,1.2c-.2.11-.2.3-.21.5l-.1,0s0,0,0,.07ZM12.83,59.8A2.28,2.28,0,0,0,13.28,58a4,4,0,0,0-.43,1.88l-.09,0a.1.1,0,0,0,0,0Zm13.69,4.83c.86-1.42,1.62-3.91,1.46-4.76-.17,0-.2.1-.25.2a5.93,5.93,0,0,0-.3,1.26c-.24,1.11-.76,2.14-.94,3.27a.19.19,0,0,0-.18.25s.08.07.12.11Zm-7.95-6.76c.47-.37.12-.89.24-1.33,0-.16.06-.32.27-.33s.27.15.26.31c-.05.57.28.68.74.62.19,0,.38-.09.58-.1a.29.29,0,0,1,.32.28.27.27,0,0,1-.27.32l-1.52.09c0,.22,0,.42,0,.62s-.15.45.06.69c.14,0,.29,0,.45,0,1.2,0,1.28-.11,1.48-1.29a7.16,7.16,0,0,1,1-2.45,2.17,2.17,0,0,1-.38,2.24.8.8,0,0,0,0,.89,17.42,17.42,0,0,0,2.55-1.75,1,1,0,0,0,.39-.94c0-1.66.2-3.34-.67-4.89a1.14,1.14,0,0,1-.05-.46.83.83,0,0,1,.8.57,4.68,4.68,0,0,1,.43,1.22.62.62,0,0,0,.71.62c.36,0,.76,0,.75.51a6.22,6.22,0,0,0-1.45.15,7,7,0,0,1,.33,1.81,6.69,6.69,0,0,0,1.09-2c.69-1.17.63-1.7-.32-2.59a2.87,2.87,0,0,0-.77-.56c-.15-.08-.14-.28-.07-.43s.24-.18.4-.1a3.81,3.81,0,0,1,1.64,1.46c.18-1,.4-2,.51-2.9a4.83,4.83,0,0,0-1.35-4.27,7.48,7.48,0,0,1-1.87-2.75,3.38,3.38,0,0,0-1.75-1.87c-.75-.37-1.51-.72-2.24-1.12a3.48,3.48,0,0,1-1.84-1.8,16.48,16.48,0,0,1-.82-7.73,13.91,13.91,0,0,0,.29-2.73,17,17,0,0,1,.32-3.2,48.15,48.15,0,0,1,2-8.19c.91-2.65,1.81-5.3,2.91-7.88a1.13,1.13,0,0,0-.3.36,64.84,64.84,0,0,0-5.58,13.48c-1.09,4-1.66,8.14-2.85,12.13a46.91,46.91,0,0,1-1.65,4.94,5.64,5.64,0,0,1-2.71,3.07,2.11,2.11,0,0,0-.95.69A12.27,12.27,0,0,0,7.1,43.58,12.63,12.63,0,0,1,4.29,46,2.63,2.63,0,0,0,3.1,47.56a14.25,14.25,0,0,0-.32,1.73,14.41,14.41,0,0,1,2.11-2.36A31.79,31.79,0,0,0,7.51,44.5a22.82,22.82,0,0,1,2.13-2.86c.06-.06,0-.23,0-.34a5.44,5.44,0,0,0,4.67-1.88c.44-.47.9-.91,1.35-1.36a.91.91,0,0,1,1.37-.1,8.46,8.46,0,0,0,2.45,1.2,4.84,4.84,0,0,1,3.1,2.92,2.33,2.33,0,0,0,2.26,1.6,2.61,2.61,0,0,1,1.81,1c.31.32.33.52,0,.9a9.17,9.17,0,0,0-2.2,4.16c0,.25-.28.47-.43.7s-.41.14-.51.28c-.51.73-1.25,1.24-1.79,1.92a2.67,2.67,0,0,1-3.37,1,3.37,3.37,0,0,0-.69-.19c-1.22-.21-2.35-.27-3.2.93a1.79,1.79,0,0,1-2.36.52c-.36-.16-.72-.34-1.09-.47-.65-.22-.86-.11-1.2.53a7.17,7.17,0,0,1-1.05,1.65,2.77,2.77,0,0,1,1.95,2.15,2.78,2.78,0,0,0,.54-1c.1-.25-.15-.78.36-.69s.19.53.21.83c0,.05.07.1.1.15.49-.2.56-.62.61-1.07,0-.18.15-.4.37-.37s.26.2.31.33,0,.5.36.51.42-.31.53-.55-.13-.79.53-1.27c-.25,1.3.82,1.44,1.48,2-.51.34-1,0-1.42.2a5,5,0,0,0,1.29.51c.46-.55.32-1.21.35-1.84,0-.16,0-.35.2-.38s.29.17.33.37c.16.87.16.89,1.07,1,.36,0,.62.11.59.55-.43,0-.86,0-1.3,0s-.39.2-.48.42.17.38.35.46C18.36,59.31,18.54,59.19,18.57,57.87ZM10.91,44.7l0,0c0,.83,0,.83-.69.68,0,.44,0,.87,0,1.3A1.89,1.89,0,0,1,9.68,48c-.14.16-.33.4-.59.17a.35.35,0,0,1,0-.53,1.86,1.86,0,0,0,.52-1.65,23.5,23.5,0,0,1-.3-2.8,15.87,15.87,0,0,1-3.64,3.93A7,7,0,0,0,3.44,49.8c-.15.38-.3.58-.76.12s-.86-.43-1.17.35a5.83,5.83,0,0,0-.6,3.12c.41,2.55.91,5.08,1.32,7.63A27.07,27.07,0,0,1,3,66.31a56.36,56.36,0,0,0,.43,5.8,6.17,6.17,0,0,1,0,1.55,17.43,17.43,0,0,0-.21,3.22c0,.28-.06.56-.09.84C3,79,2.88,80.24,2.77,81.51S2.65,83.82,2.45,85c-.26,1.5-.19,3-.37,4.52-.15,1.26-.23,2.54-.34,3.81a53.21,53.21,0,0,0-.42,6.31,5.3,5.3,0,0,1-.08,1.19,26,26,0,0,0-.08,5.07c.11-.68.14-1.35.21-2,.12-1.23.31-2.45.38-3.68s.24-2.21.32-3.33c.13-2,.48-4,.63-6s.4-4,.55-5.94c.21-2.73.6-5.45.89-8.18.21-1.94.58-3.85.92-5.76.2-1.21.48-2.4.74-3.73-.17.2-.25.29-.32.39-.2.3-.31.92-.81.57s.13-.62.28-.91a4.49,4.49,0,0,0,.88-2.06,15.36,15.36,0,0,0-.45-5.31c-.11-.31-.19-.42-.5-.52a4.18,4.18,0,0,1-2.83-2.67,6.41,6.41,0,0,1-.23-3.3,3.21,3.21,0,0,1,.7-1.63A11.9,11.9,0,0,1,6.3,48.86a2.48,2.48,0,0,1,2.87.45,2.76,2.76,0,0,1,.77,1.19,6.45,6.45,0,0,1,.47,2.32c0,.48.14.74.59.86.23.07.44.18.66.27,1.6.62,1.35,1,2.83-.53a2.42,2.42,0,0,1,2.37-.8,10.06,10.06,0,0,1,2.1.44,1.52,1.52,0,0,0,1.91-.46c.87-.93,1.8-1.82,2.71-2.71a.78.78,0,0,0,.28-.63l0,0A10.49,10.49,0,0,1,26,45.51c.33-.33.15-.58-.14-.78a3,3,0,0,0-1.46-.48,2.53,2.53,0,0,1-2.3-1.78A4.63,4.63,0,0,0,19,39.67a12.24,12.24,0,0,1-1.75-.74c-.94-.52-.93-.55-1.62.16-.23.23-.44.47-.68.68-1.14,1-2.28,2-3.91,2.09-.16,0-.32,0-.38.22-.16.49-.55.88-.63,1.41,0,.12,0,.34,0,.32C10.92,43.61,10.47,44.57,10.91,44.7ZM9.68,52.86a4.2,4.2,0,0,0-.63-2.57,1.74,1.74,0,0,0-2.43-.79,10.72,10.72,0,0,0-2.49,1.61,3.62,3.62,0,0,0-1.13,1,4.54,4.54,0,0,0,.19,5.25C4.1,58.82,5.29,59,6.66,58a9.12,9.12,0,0,0,2.7-3.58A2.58,2.58,0,0,0,9.68,52.86ZM22.05,70.45a2,2,0,0,0-2,.36,9.78,9.78,0,0,1-1.91,1.4,2.32,2.32,0,0,0-.85,1c-.21.36-.16.63.24.73a1.65,1.65,0,0,1,.91.53c.26.29.37.88.75.84s.73-.44,1.09-.68.74-.48,1.07-.76A5.1,5.1,0,0,0,23,72.17c.16-.33.7-.69.06-1.09s-.68.24-.9.47c-.7.75-1.35,1.56-2,2.34-.12.14-.31.29-.5.15s-.14-.36,0-.53A10.06,10.06,0,0,1,20.82,72,4.19,4.19,0,0,0,22.05,70.45Zm3.3-10.79a5.58,5.58,0,0,1,.91-.22c.87,0,1.12-.61,1.15-1.31.05-1,.11-2,.23-3a.91.91,0,0,0-.32-.84c-.28.41-.5.78-.76,1.12s-.6.74-.89,1.11a1.29,1.29,0,0,0-.32.87C25.36,58.14,25.35,58.86,25.35,59.66Zm-2.1,10.62c1.2,1.06,1.61,1,2.23-.25a8.19,8.19,0,0,1,.88-1.27,8.91,8.91,0,0,0,1.2-2.31c.08-.19.19-.39,0-.53a.57.57,0,0,0-.76.07,1.61,1.61,0,0,0-.27.52,8.79,8.79,0,0,1-1.25,1.88c-.37.52-.43,0-.57-.23Zm.67-5.14c.43,0,.78-.08,1.12-.07s.48-.19.6-.46a28.6,28.6,0,0,0,1.29-4.06.38.38,0,0,0-.12-.43c-.41-.26-1.69.29-1.7.78A8.79,8.79,0,0,1,23.92,65.14ZM14.75,77.36c.39.21.67.27,1,0a14.4,14.4,0,0,1,2-1c.76-.39.82-.86.22-1.47a1.37,1.37,0,0,0-1.82-.22,9.61,9.61,0,0,1-1.86,1,1.52,1.52,0,0,0-.87.84,2,2,0,0,0,1.75-.81.32.32,0,0,1,.43,0c.18.12.11.28,0,.41C15.34,76.51,15.07,76.9,14.75,77.36ZM6.13,59.77a5.41,5.41,0,0,0,0,.57c0,.27,0,.64.4.59s.73-.15.74-.63c0-.31,0-.63,0-.95a1.35,1.35,0,0,1,.35-.86.37.37,0,0,1,.44-.1c.17,0,.19.19.16.37-.1.53.13.81.67.78s1.3-.65,1.22-1a1.32,1.32,0,0,0-.86-1.06c-.38-.09-.83-.41-1.27.1a3.85,3.85,0,0,1-1.42,1.24C6.1,59,6,59.28,6.13,59.77Zm14.73,9.81a3.29,3.29,0,0,1,1.06.12c.58.29.88,0,1.18-.4A19.7,19.7,0,0,0,25,65.91a1.11,1.11,0,0,0-1.54.66,5.25,5.25,0,0,1-1.75,1.91A1.55,1.55,0,0,0,20.86,69.58Zm7.46-4a21.36,21.36,0,0,1,1-3,5.21,5.21,0,0,0,.26-2.35c0-.16,0-.32-.22-.36a.34.34,0,0,0-.45.26l-.21.67a23.71,23.71,0,0,1-1.22,3.59c-.27.56-.11.79.41,1C28,65.38,28.14,65.45,28.32,65.53ZM29,48.2a7,7,0,0,0-.31,2.55,6.24,6.24,0,0,0,1,2.36A5.13,5.13,0,0,0,29,48.2Zm.16,5.43c0,1.73,0,3.35,0,5,0,.44.22.54.57.57C30.16,56.52,30,54.47,29.15,53.63Zm-8.93,7.51C19,61,19,61,18.65,61.94a1.17,1.17,0,0,1-.11.33c-.21.31-.22.59.12.8a.62.62,0,0,0,.92-.23A2.69,2.69,0,0,0,20.22,61.14Zm8.22-7.51a3.42,3.42,0,0,0-.23,1.78c0,.63,0,1.27,0,1.9s-.56,1.15.07,1.84A15.37,15.37,0,0,0,28.44,53.63Zm-11.7,11.6a1.39,1.39,0,0,0,1.78-.85c.1-.16.33-.38,0-.57s-.48-.27-.71,0S17.14,64.71,16.74,65.23Zm-.68-4.87c-.21.56-.67.92-.75,1.49,1.22.14,1.22.14,1.76-.75Zm-2.52,3.69c1.2.2,1.55-.65,2.09-1.24-.82-.43-.82-.43-1.31.2ZM9.08,61.36c1-.34,1.14-.52,1-1.11,0-.25-.13-.41-.48-.29C9,60.19,9,60.18,9.08,61.36Zm6.23-1.09a5.92,5.92,0,0,1,.3-.62c.19-.3.27-.55-.15-.72s-.64-.12-.81.33S14.44,59.88,15.31,60.27Zm1.11-.72c1,1.15,1.17,1.18,1.74.29C17.56,59.94,17.11,59.51,16.42,59.55Zm.65,6.6c-.74-.31-.74-.32-1.08.2-.09.14-.39.34-.1.47s.65-.09.91-.34C16.88,66.4,17,66.3,17.07,66.15Zm-3-4.91a.36.36,0,0,0,.4.31c.35,0,.45-.32.46-.58s-.31-.27-.46-.27S14.09,61,14.05,61.24ZM19,60.15a1.58,1.58,0,0,0,1.73-.23A3.9,3.9,0,0,0,19,60.15ZM6.67,62.6c.37-.56.42-.73.31-.94a.19.19,0,0,0-.28-.08c-.28.24-.22.55-.15.86A.83.83,0,0,0,6.67,62.6ZM1,108.48a5,5,0,0,0,0-1.78A4.46,4.46,0,0,0,1,108.48ZM28.29,52c0,.31-.32.54-.08.79a.31.31,0,0,0,.31,0C28.74,52.48,28.59,52.25,28.29,52ZM12.43,65c.45.09.71,0,.8-.37,0,0-.06-.17-.11-.18-.33-.07-.44.22-.61.41A.75.75,0,0,0,12.43,65Zm-5.72-.7A1.07,1.07,0,0,0,6.79,64a1.8,1.8,0,0,0-.09-.45.32.32,0,0,0-.19,0,.44.44,0,0,0-.07.54C6.48,64.16,6.6,64.21,6.71,64.31Zm-6,46.37h0v-.52h0ZM10,61.8a.86.86,0,0,0,.05.82C10.18,62.34,10.3,62.1,10,61.8Zm-.93,1c.1-.27.16-.47,0-.68A.78.78,0,0,0,9.11,62.83ZM24,6.23l0-.07H24ZM10.07,44.5c-.09,0-.09.08,0,.13s.06,0,.06-.06S10.09,44.52,10.07,44.5Z"/><path d="M18.61,46.6c-.1.34-.55.29-.64.5s.11.53.12.8.18,1-.32,1-.39-.56-.4-.93c0-.7.07-1.45-.72-1.86l0,0c0-.22-.17-.49.06-.66s.42.08.6.2l.3.16.09.37s.06-.06.05-.07l-.16-.27c0-.2,0-.51.25-.43s.95-.26,1.14.39l.07.06c0,.19,0,.42.24.48l0,0c-.11.42-.29.63-.7.25l0,0Z"/><path d="M16.65,46.12a7.55,7.55,0,0,1,.27,4.21s0,.08,0,.12c-.06.2-.17.39-.39.35s-.3-.18-.22-.43a6.69,6.69,0,0,0,.1-1.79,2.53,2.53,0,0,0-.77-2.38.28.28,0,0,1-.07-.42A.33.33,0,0,1,16,45.7c.24.13.46.3.69.45Z"/><path d="M24.61,45.87c0,.2-.16.33-.3.25A10.4,10.4,0,0,1,21.72,44c-.09-.1,0-.3.13-.42a.28.28,0,0,1,.41,0c.75.74,1.63,1.33,2.31,2.13C24.59,45.79,24.59,45.83,24.61,45.87Z"/><path d="M19,45.84c0-.11,0-.3.1-.32a5.93,5.93,0,0,1,2-.07c.15,0,.23.2.24.36s-.16.36-.28.3c-.66-.36-1.14.41-1.75.25l0,0c-.06-.17,0-.4-.24-.48Z"/><path d="M22,48.68c-.55.64-1.27.56-1.86.8-.14.06-.3-.06-.35-.24s0-.38.15-.4C20.58,48.78,21.18,48.28,22,48.68Z"/><path d="M23.86,49.26c-.32-.16-.62-.34-.95-.47-.17-.08-.27-.18-.21-.35s.23-.18.39-.18c.63,0,.72.15.74,1Z"/><path d="M11.64,44.48c-.1.61-.13.62-.75.19l0,0c0-.23-.07-.46.2-.57s.31.12.43.25A.47.47,0,0,1,11.64,44.48Z"/><path d="M11.54,44.38c.08-.23,0-.62.36-.63.23,0,.31.27.32.45,0,.51-.33.27-.58.28A.47.47,0,0,0,11.54,44.38Z"/><path d="M27.29,49.9c-.4-.52-.68-.88-.95-1.25a.34.34,0,0,1,.13-.5c.16-.12.31,0,.38.12C27.1,48.71,27.67,49,27.29,49.9Z"/><path d="M27.25,45.67c.1,0,.22.09.18.24s-.11.22-.25.18a.2.2,0,0,1-.18-.25A.19.19,0,0,1,27.25,45.67Z"/><path d="M22,55c-.11,0-.31-.1-.23-.25s.11-.73.53-.82a.25.25,0,0,1,.25.32C22.41,54.54,22.59,55,22,55Z"/><path d="M4.94,57.67a1.63,1.63,0,0,1-1.79-1.26,2.89,2.89,0,0,1-.07-1.88,9.16,9.16,0,0,1,1.15-2.35A3.65,3.65,0,0,1,7.88,51a1.87,1.87,0,0,1,1.33,2.25A6.34,6.34,0,0,1,6,57.47,1.89,1.89,0,0,1,4.94,57.67Z"/></g></g></svg>