<svg xmlns="http://www.w3.org/2000/svg" viewBox="0 0 76.09 85.03"><title>Cyphocaris</title><g id="Layer_2" data-name="Layer 2"><g id="Cyphocaris"><path d="M43,58.81a15.09,15.09,0,0,0,.38,5.56c.07.23,0,.4-.22.46s-.36,0-.45-.28a18,18,0,0,1-.93-3.43,8.74,8.74,0,0,1-.3-2.6c.07-.72-.57-1-.95-1.39a11.49,11.49,0,0,1-2.72-4.41,8.46,8.46,0,0,1-.63-3.84,4.73,4.73,0,0,0-.32-1.63,3.22,3.22,0,0,1,0-2c.07-.19.17-.45-.08-.5-.59-.12-.57-.3-.13-.63a1.81,1.81,0,0,0,.51-1.41,17.47,17.47,0,0,1,1-4,17.44,17.44,0,0,0,.72-3.12l0,0,0,.07a9.43,9.43,0,0,0-3.22,1.44,1,1,0,0,0-.43.55c-.36,1-.79,1.91-1.08,2.89a9.83,9.83,0,0,1-.44,1.18,2.32,2.32,0,0,0-.26,1.84,4.25,4.25,0,0,1,.08,1.42,22.48,22.48,0,0,0,1.22,6.28,37.92,37.92,0,0,1,1,4.87c.08.39.22.76.32,1.15a.32.32,0,0,1-.2.38c-.25.1-.36-.06-.47-.24a20.06,20.06,0,0,1-1.34-2.66,30.57,30.57,0,0,1-1.71-5.79c-.28-1.36-.61-2.7-.9-4.06a7.17,7.17,0,0,1,0-1.67c0-2.36,1.05-4.39,2-6.45.08-.18.19-.35.28-.52.27-.46-.32-.93,0-1.33s.91-.25,1.18-.73.85-.72,1.06-1.25c.13,0,.28.05.37-.1s-.06-.06-.07-.05a2.46,2.46,0,0,0-.27.17,13.18,13.18,0,0,0-2.58.84,8.37,8.37,0,0,1-2,.62,5.23,5.23,0,0,1-3.87-1.22c-.2-.15-.35-.35-.21-.6s.37-.18.55-.12a6.66,6.66,0,0,1,.86.39,4.11,4.11,0,0,0,2.11.29,9.57,9.57,0,0,0,4.31-1.76,1.05,1.05,0,0,0-.82,0,5.13,5.13,0,0,1-2.72.05,2.86,2.86,0,0,0-1.59,0,6.87,6.87,0,0,1-3.4-.11,3.66,3.66,0,0,1-2.47-2.24c-.08-.16-.13-.3,0-.44a.39.39,0,0,1,.54-.05,4.14,4.14,0,0,1,.46.39,3.83,3.83,0,0,0,3.13,1.13c1.16-.13,2.38.08,3.5-.5-.18-.43-.63-.41-.92-.47a10.27,10.27,0,0,1-5.39-2.83,1.1,1.1,0,0,0-.71-.37,3.06,3.06,0,0,1-2.19-1.31c-.38-.51-.77-.6-1.26-.16a1.17,1.17,0,0,1-.31.17c-.24.1-.43.5-.71.27s-.12-.6.07-.86c.81-1.14,1.63-1.84,3.32-.78a3.63,3.63,0,0,1,.68.48c1,1.12,2.46,1.53,3.75,2.19.08,0,.09,0,0,.06l0-.06A47,47,0,0,1,25,22a2.58,2.58,0,0,0-1.18-.92c-.77-.3-1.57-.56-2.32-.92a.83.83,0,0,0-1,.11,2.39,2.39,0,0,0-1.11,2.2,55.84,55.84,0,0,0,1.15,6.43c.73,3.81,1.85,7.52,2.85,11.26.84,3.14,1.72,6.25,2.85,9.28,1,2.57,2.15,5,3.23,7.55,1.87,4.38,3.67,8.79,5.89,13a110.83,110.83,0,0,0,8.46,13.55,3.24,3.24,0,0,1,.6,1c0,.16,0,.34-.13.41s-.28,0-.38-.16c-.83-1.18-1.67-2.34-2.48-3.52A174.61,174.61,0,0,1,27.82,57a96.64,96.64,0,0,1-5.64-14.27c-.83-2.89-1.48-5.84-2.29-8.74a50,50,0,0,1-1.62-7.55c-.19-1.61-.47-3.22-.54-4.85a16.13,16.13,0,0,1,.89-6,2.64,2.64,0,0,0,.08-.7c.16.05.21,0,.13-.14l-.11.17c-1.33.27-1.72,1.44-2.08,2.45a31.64,31.64,0,0,0-1.75,6.77c-.05.45-.34.82-.41,1.24-.21,1.21-.34,2.44-.55,3.65a56.49,56.49,0,0,0-.32,8,39.43,39.43,0,0,0,.27,6.69c.16,1.06.2,2.14.27,3.21A44.68,44.68,0,0,0,15,52.74c.48,2.52,1.18,5,1.65,7.53a52.18,52.18,0,0,0,3,8.84,88.67,88.67,0,0,0,6.34,12.81c.16.27.64.61.2.89s-.57-.25-.75-.54a89.89,89.89,0,0,1-6.65-13.45,79.46,79.46,0,0,1-2.87-8.19c-.88-3.12-1.73-6.27-2.37-9.45a35,35,0,0,1-.84-5.89c0-1.33-.37-2.66-.5-4A53.57,53.57,0,0,1,12,34.45a54.7,54.7,0,0,1,.9-9c.39-2,.65-4,1.23-5.92.34-1.14.66-2.29,1.06-3.41a8.18,8.18,0,0,1,3-4,7.18,7.18,0,0,1,3.55-1.5c.91-.07,1.24-.48,1.25-1.35a2.31,2.31,0,0,0-1.7.19,10,10,0,0,1-3.68.88,9.05,9.05,0,0,0-3.19,1.25,41,41,0,0,0-5.17,3.84,34.86,34.86,0,0,0-4,3.79c-.91,1-1.75,2.07-2.63,3.1-.21.25-.44.76-.81.47s.11-.65.3-.88a51.3,51.3,0,0,1,10-9.95,45,45,0,0,1,6.8-4.49c-1.22-.43-2.07-.12-3.71.23a28.56,28.56,0,0,0-8.66,3.82A32.36,32.36,0,0,0,.93,15.83c-.15.13-.31.25-.47.37s-.23,0-.33-.05a.27.27,0,0,1-.06-.41A6.94,6.94,0,0,1,.82,15,43.77,43.77,0,0,1,13.73,6.72,43.23,43.23,0,0,1,22.35,4.2a13.32,13.32,0,0,1,4.23-.15c.52.08.54,0,.36-.52A.65.65,0,0,1,27,2.86,6.64,6.64,0,0,1,32.29,0a12.46,12.46,0,0,1,4.45.74,1.53,1.53,0,0,1,.32.13c1.5,1.12,3.42,1.47,4.86,2.71.94.81,2.22,1,3.22,1.75a10.45,10.45,0,0,0,2.31,1.17A8,8,0,0,1,49.87,8,5.79,5.79,0,0,0,51.6,9c1.32.52,2.86.85,3.78,1.95,1.38,1.61,3.21,2.55,4.85,3.76a7,7,0,0,1,2.18,2.6c.15.29.41.35.63.51a19.27,19.27,0,0,1,4.25,4,2.18,2.18,0,0,1,.64,1.62c-.05.36.18.59.38.84a22.74,22.74,0,0,1,2.89,4.65,12.93,12.93,0,0,0,2.26,3.37,1.83,1.83,0,0,1,.62,2c-.11.28,0,.47.12.67a38.89,38.89,0,0,1,1.45,7.1,27.72,27.72,0,0,0,.4,2.82A5.6,5.6,0,0,1,75.78,47a50.48,50.48,0,0,1-1.34,6.78c-.26.88-.64,1.7-1,2.54-.46,1.13-.62,1.14-1.59.26a.81.81,0,0,0-.19,1,10.9,10.9,0,0,1,.67,2.28c.29,1.69.28,1.86-.93,3.34a.89.89,0,0,0-.12.69,7.7,7.7,0,0,1-.86,3.56c-.08.21-.13.5-.43.51s-.36.21-.4.47a11.08,11.08,0,0,1-1.18,3.72,1.37,1.37,0,0,0-.21.56c-.21,3-1.39,5.68-2.44,8.41-.1.26-.19.52-.3.77s-.21.39-.43.37-.26-.33-.28-.55a1.83,1.83,0,0,0-.08-.28,9.28,9.28,0,0,1-.65,1c-.26.31-.26,1-1,.73-.28-.08-.39.54-.6.82s-.36,1-.81.85-.11-.75,0-1.15a9.3,9.3,0,0,0,.46-4,11.62,11.62,0,0,0-1,1.63c-.18.26-.35.54-.55.78a.39.39,0,0,1-.31.11c-.19,0-.2-.22-.21-.37a2.75,2.75,0,0,1,.31-1,3.08,3.08,0,0,0,.42-1.47c.14,0,.2-.06.19-.18s-.07-.08-.1-.12l-.08.32c-.55.24-.63.88-1,1.24-.17.14-.32.42-.58.29s-.17-.42-.09-.63c.3-.89.59-1.79,1-2.67A10.07,10.07,0,0,0,60.7,73a.7.7,0,0,0,0-1c-.21-.24-.7,0-.92-.46.13.25-.32.66.3.72a.62.62,0,0,1,.62.8l-.32.11c.18.37,0,.73,0,1.09s.24.51,0,.64-.49-.26-.72-.44c-.33.51.43.61.37,1s-.48.16-.72.26-.45,0-.5-.33a4.89,4.89,0,0,1-.21-1.29c.15-1.23-.1-2.47.15-3.69a5.34,5.34,0,0,0,.05-1.2,33.1,33.1,0,0,1,.63-6c0-.11.08-.22,0-.33a.36.36,0,0,0-.44-.09c-.5.15,0,.2.06.31,0,.31.13.6-.35.49-.19,0-.4-.17-.52.06a.43.43,0,0,0,.21.61,1,1,0,0,1,.23.27c.11.16.28.32.07.51s-.36.1-.53,0-.12-.36-.28-.09c-.06.11-.23.27,0,.41a1.59,1.59,0,0,1,.38.29c.17.25.13.44-.21.5-.11,0-.41,0-.23.21.64.79-.22.71-.52.9,0,.43.65.3.5.72s-.56,0-.68.37c.05.25.34.14.45.3s.27.19.17.39-.22.28-.38.21c-.46-.21-.47,0-.34.34a5.5,5.5,0,0,0,.34.5c.06.11,0,.21-.06.32s-.63-.3-.57.27c0,.3.39.22.53.42s.18.27.05.43a.25.25,0,0,1-.31.09c-.15-.06-.29-.16-.43,0-.08.36.32.26.45.44.46.63-.34.46-.38.63s.79.4.27.77-.56.36-.17.74.07.5-.24.67-.48.06-.6-.27a3.32,3.32,0,0,1-.21-1.17,48,48,0,0,1,.7-9.5,6,6,0,0,0,0-1c.14,0,.2-.06.21-.18s-.07-.09-.1-.13l-.09.33c-.25,0-.49,0-.49-.36A31.59,31.59,0,0,1,56,59.34a19.23,19.23,0,0,0,.16-2.26V51a1.32,1.32,0,0,0-.41,1.23c0,1.12-.13,2.22-.2,3.33-.09,1.39-.17,2.79-.27,4.19a.58.58,0,0,0,.18.42c.31.36.41.68-.1,1-.19.11-.08.28,0,.42s.09.45-.24.49c-.09,0-.31,0-.22.12.46.41.17.84.12,1.29-.06.63,0,.65-.65.52.55.9.55.9-.7,1.64a13.84,13.84,0,0,1-.3-4,26.56,26.56,0,0,0,.4-4.63c-.07-1.31.23-2.6.27-3.92.05-2.07-.52-4.11-.24-6.28-.35.32-.19.62-.22.88-.21,2.58-.26,5.17-.29,7.77,0,.81-.37,1.63,0,2.44-.44.69.32,1.64-.5,2.25.1,1.12-.86,1.9-1,3a.4.4,0,0,1-.41.37c-.34,0-.32-.29-.33-.52a22.69,22.69,0,0,1,.35-2.59c0-.32.11-.64.11-1-.05-2.51.29-5,.28-7.53,0-1.82.26-3.65.4-5.48a2.14,2.14,0,0,0-.07-.45,1.92,1.92,0,0,0-.81,1.71c.08,1,0,1.92,0,2.88a24.07,24.07,0,0,1-1.12,7.25c-.24.83-.6,1.64.1,2.46.19.24-.18.35-.44.34l0,0,.06,0c0,.23.12.55-.13.65s-.35.33-.24.64,0,.71-.52.5c-.31-.12-.37.17-.29.31.38.69-.4,1.16-.28,1.85a4.3,4.3,0,0,1-.1,2c-.19.61-.17,1.25-.32,1.88A2.47,2.47,0,0,0,48.19,70a4.09,4.09,0,0,1,.29,1c0,.25.18.63-.17.73s-.38-.36-.45-.57a30.46,30.46,0,0,1-1.34-5.89c-.2-1.85-.31-3.72-.51-5.57s-.33-3.48-.6-5.2a4.47,4.47,0,0,1,0-.82c0-.31.07-.73-.43-.87a.28.28,0,0,1-.08-.53,1,1,0,0,0,.36-1.25,18.51,18.51,0,0,0-.54-2.43c-.23,0-.31.21-.4.37a21.52,21.52,0,0,0-1.09,3,6,6,0,0,0,0,2.6,5.33,5.33,0,0,1,0,2.35c-.13.43-.18,1,.45,1.19a1,1,0,0,1,.29.21.5.5,0,0,1,.13.55c-.09.24-.31.21-.51.16s-.44-.14-.67-.22c0,0,0-.05-.07-.06h0ZM27.14,53.53c0,.14-.07.3.1.39a.32.32,0,0,0,.06-.08.3.3,0,0,0-.19-.28c-.05-.17.08-.44-.26-.45a1.46,1.46,0,0,0-.46-1.21c0-.19,0-.41-.24-.49,0-.19.06-.43-.26-.47,0-.26.07-.56-.21-.74a5.59,5.59,0,0,0-.11-.59c-.49-1.59-1.2-3.1-1.62-4.71-1.48-5.55-3.19-11-4.28-16.69a32.87,32.87,0,0,1-1-8.26c0-.33,0-.67,0-1a3.54,3.54,0,0,0-.35,2.54c.13,1.07.25,2.13.39,3.19.19,1.41.38,2.83.62,4.24C19.7,31,20.42,33,20.88,35c.6,2.66,1.52,5.23,2.1,7.9a37,37,0,0,0,2.15,6.17c.15.38.13.86.58,1.09,0,.27-.07.56.21.74,0,.18,0,.43.26.47,0,.19-.07.44.23.5a1.77,1.77,0,0,0,.47,1.21C26.92,53.26,26.83,53.52,27.14,53.53Zm1.64,3.91-.09-.36s-.06.06-.05.07l.16.27.25.48.1.27s.05-.08,0-.09a.81.81,0,0,0-.16-.16C28.93,57.77,29.06,57.5,28.78,57.44Zm5.54-24.77c.18,0,.42.07.47-.24.47.08.84-.19,1.31-.37a1.14,1.14,0,0,0-1.29.4c-.19,0-.41,0-.48.22l-.06,0ZM64.09,81c-.23.07-.21.27-.25.45s-.33.15-.07.32l0-.35c.31,0,.21-.27.25-.45.28-.06.25-.28.25-.48a6.33,6.33,0,0,0,1.13-3.69c-.24,1.27-.88,2.43-1.11,3.71C64,80.52,64.12,80.76,64.09,81ZM27.57,54.81c0-.14.07-.29-.09-.39,0,0-.07.06-.06.07s.12.2.17.29,0,.39.25.47c0,.19,0,.42.25.47.07.16-.08.44.26.45l.07.39s.07-.06.06-.07-.1-.2-.16-.3-.07-.35-.26-.44c0-.18.07-.44-.25-.47C27.8,55.08,27.9,54.83,27.57,54.81Zm33.17,11c-.25.13-.33.29-.06.56,0-.22,0-.41,0-.59.21-.15.33-.32,0-.59Zm-8.43-7.23c-.28.23-.2.49,0,.75v-.78c.1,0,.15,0,.16-.07h-.07Zm7.9,12c0-.19-.06-.25-.23-.25s-.08.06-.07.07c.05.17.21.11.33.15l.46.7C60.63,70.86,60.9,70.31,60.21,70.64ZM50,56a3.48,3.48,0,0,0,.32-2.45,7.58,7.58,0,0,0-.39,2.4,6,6,0,0,0-.65,2.51A6,6,0,0,0,50,56Zm13.14,17.7c.65-1.5.77-2.25.41-3a21,21,0,0,0-.38,3c-.29.28-.24.6-.13,1C63.18,74.35,63,74,63.09,73.69ZM48,62.19a5,5,0,0,0,1-2.79,6.19,6.19,0,0,0-1,2.81c-.14.06-.29.11-.11.29Zm-13.41-8.4a1.66,1.66,0,0,0,0,.22,1.83,1.83,0,0,0,.08.25,1,1,0,0,0,0-.3c0-.06-.1-.1-.16-.15a9.11,9.11,0,0,0-1-4A6.51,6.51,0,0,0,34.57,53.79Zm-8.66-28a.3.3,0,0,0,0-.1s0,0-.06,0l.13.1a1.16,1.16,0,0,0,.47.66,12.78,12.78,0,0,0,3.06,1.77c.6.31.83.06,1.06-.45a7.27,7.27,0,0,1-3.13-1.26A3.64,3.64,0,0,0,25.91,25.75Zm31,39.56c.16-.07.18-.22.22-.38a18.37,18.37,0,0,1,1.16-3.47c.53-1,.54-1,0-2.31a19.82,19.82,0,0,0-1.37,6.18c-.37.27-.24.6,0,.92ZM16.06,9.86c1.35-.24,2.71-.46,4.06-.75,1.08-.24,1.25-.56,1.07-1.83a17.34,17.34,0,0,0-5.1,2.61c0,.07-.27,0-.12.16Zm-.46-3.1a7.63,7.63,0,0,1,1.07,0c1.26.14,2.48-.26,3.77-.1S22,6.3,21.79,5.11c0-.07-.08-.12-.13-.17l-.57.16a27.46,27.46,0,0,0-5.47,1.68l-.61,0C15.28,7.05,15.45,7,15.6,6.76Zm36.7,9.62a7.16,7.16,0,0,0,1.25-2A4.61,4.61,0,0,1,55,12.68c.21-.14.54-.19.56-.6A12.52,12.52,0,0,0,51,9.64c-1-.42-1.67.14-2.34.69a2.89,2.89,0,0,0-.65,1.13c-.81,1.77-1,3.74-1.69,5.55a.55.55,0,0,0,.1.56,11.08,11.08,0,0,0,2.68,2.7.84.84,0,0,0,1.23-.15,9.12,9.12,0,0,0,2-3.76ZM72.71,56a30.49,30.49,0,0,0,2.2-10.75,5,5,0,0,0-3.62.27,1.68,1.68,0,0,0-.83.66,2.31,2.31,0,0,1-2,.92,3.43,3.43,0,0,1-2.81-1,3.47,3.47,0,0,1-1.92,1.67l-4.09,1.94A3.13,3.13,0,0,0,58,51.46a5.57,5.57,0,0,0,.36,4c.12.31.35.3.58.17s.68-.43,1-.6a2,2,0,0,1,1.26-.29c1.1.19,2.2.34,3.29.55a2.25,2.25,0,0,0,1.17.08c.55-.21.21-.77.31-1.15,0,0,0-.09,0-.12s.12-.22.2-.26.29.08.35.23a1.33,1.33,0,0,1,.13.46c0,.61.29.76.82.66a5.89,5.89,0,0,1,.82-.15C69.83,55,71.38,54.55,72.71,56ZM61,28.69c-2.18,1.9-4.66,3-7,4.36a9.9,9.9,0,0,0-3.1,3.11,5,5,0,0,0-.8,2.7,5.58,5.58,0,0,0,1.27,3.39,4.84,4.84,0,0,0,2.39,1.67.69.69,0,0,0,.77-.17,18.12,18.12,0,0,1,4.16-2.54c2.27-1.16,3.84-3,5.48-4.82a9,9,0,0,1-1.81-4.19A16,16,0,0,0,61,28.69ZM49.44,21.3a6.14,6.14,0,0,1-2.21-1.67c-.44-.46-.87-.93-1.33-1.38-.15-.16-.27-.4-.58-.32a2,2,0,0,1-2-.73A1.2,1.2,0,0,0,42,16.94c-1.3.36-2.59.73-3.87,1.14a6,6,0,0,0-3.25,2.49,1.86,1.86,0,0,0,.58,2.84,3.09,3.09,0,0,0,.85.43,3.29,3.29,0,0,1,2.1,2c.38.83.75,1.66,1.2,2.45a1.74,1.74,0,0,0,2.28.7A9.47,9.47,0,0,0,45,26.54a41.81,41.81,0,0,1,3.7-4.06A2.5,2.5,0,0,0,49.44,21.3ZM34,23a1.68,1.68,0,0,1-.21-1.39,5,5,0,0,1,1.64-2.69,9.21,9.21,0,0,1,3.83-1.84,26.34,26.34,0,0,0,3.4-1c-.16-.22-.29-.4-.52-.37a2.61,2.61,0,0,1-2.77-1.42c-.09-.17-.2-.27-.36-.21-1.37.48-2.28-.3-3.14-1.15a.68.68,0,0,0-.71-.26c-2.72.48-3.5.1-4.67-2.24a1,1,0,0,0-.13-.11A3.8,3.8,0,0,0,30,11,5.68,5.68,0,0,1,28.7,13.5a20.08,20.08,0,0,1-1.46,1.72,2.18,2.18,0,0,0-.6,1.51,10.25,10.25,0,0,0,.63,3.72A5.05,5.05,0,0,0,29,23.06c1,.76,2.13.45,3.18.69C32.82,23.89,33.34,23.29,34,23ZM75,44.18c-.07-.53-.12-1-.18-1.39A44.72,44.72,0,0,0,73.64,36c-.53-1.79-1-2-2.59-1.09-1,.58-2,1.2-2.92,1.85a2.53,2.53,0,0,1-2.28.55,22.76,22.76,0,0,0-.31,4.84,6.48,6.48,0,0,0,1,3.37,2.21,2.21,0,0,0,3.07.24,4.88,4.88,0,0,1,3.84-1.58C74,44.16,74.48,44.18,75,44.18Zm-1.91-10.9a13.47,13.47,0,0,1-2.69-3.93,25.81,25.81,0,0,0-3.24-5.13c-.39-.5-.65-.53-1.22-.21a5.12,5.12,0,0,0-1.54,1.31A10.36,10.36,0,0,1,62,27.64c-.37.23-.36.4-.18.76a15.83,15.83,0,0,1,1.44,3.89,10.13,10.13,0,0,0,.9,2.58,2.33,2.33,0,0,0,3.72,1l.1-.07c1.51-1,3-2.16,4.89-2.34C73,33.43,73,33.35,73.12,33.28Zm-8.43,3.65a1.28,1.28,0,0,0-.59.52A15.83,15.83,0,0,1,59,41.82c-1,.51-2,1.09-3,1.7s-2,1.4-1.66,2.75a5,5,0,0,0,2.83,3.61.77.77,0,0,0,1-.16,6.58,6.58,0,0,1,2.15-1.27c1.19-.52,2.37-1.09,3.55-1.65a3.49,3.49,0,0,0,1.34-1.33c.32-.47,0-.85-.13-1.24a11.75,11.75,0,0,1-.1-5.77A2.15,2.15,0,0,0,64.69,36.93Zm-3.95-8.78a4.71,4.71,0,0,1-2.28-1.89c-.31-.37-.59-.76-.9-1.12-.67-.75-1.05-.81-2-.37-1.77.81-3.42,1.84-5.11,2.81-.58.33-1.06.84-1.61,1.23-1.71,1.22-1.38,4-.4,5.26a6.7,6.7,0,0,0,2.06,1.54c.1-.15.19-.28.29-.41a9.84,9.84,0,0,1,3.44-3.07c.88-.47,1.77-.91,2.64-1.39A34.12,34.12,0,0,0,60.74,28.15ZM28.13,2.83a5.76,5.76,0,0,1,2.18,2.33,2.75,2.75,0,0,0,1.06,1.39.82.82,0,0,1,.34.73,3.43,3.43,0,0,1-.35,1.48A2.42,2.42,0,0,0,33.46,12a3,3,0,0,0,3.2-2.14,11.3,11.3,0,0,0,.53-4A4.46,4.46,0,0,1,37.84,3a.46.46,0,0,0-.09-.64,2.85,2.85,0,0,0-1.25-.89A14.39,14.39,0,0,0,34.33.89C32,.59,29.77.73,28.13,2.83ZM71.47,61.89a6.26,6.26,0,0,0-.26-3.11,3,3,0,0,1-.2-2.62c.11-.2,0-.4-.28-.39a18.29,18.29,0,0,0-3.38.35c-.37.09-.66.2-.63.7.07.87-.32,1.72-.23,2.61,0,.25-.08.57-.33.55s-.33-.36-.27-.67A17.22,17.22,0,0,0,66,56.93c0-.5-.12-.75-.66-.71a5.86,5.86,0,0,1-1.66-.17,17.18,17.18,0,0,0-2.48-.33A1.78,1.78,0,0,0,59.11,58a9.28,9.28,0,0,0,.52,2.32c.37.8.93,1.56,1.78,1.6A9.46,9.46,0,0,0,66,61.51a5.27,5.27,0,0,1,4.72.11A1.07,1.07,0,0,0,71.47,61.89ZM61.31,16.94a15.16,15.16,0,0,0-4.58-3.59,1.19,1.19,0,0,0-1.6.31,14.68,14.68,0,0,0-1.06,1.43c-1.13,1.64-1.48,3.71-2.85,5.22-.22.24-.07.44.17.57a10.64,10.64,0,0,1,1.84,1.51,5.75,5.75,0,0,0,2.17,1.22c.7.2,1.08.14,1.43-.45a13.58,13.58,0,0,0,1.29-2.29A7,7,0,0,1,61.31,16.94ZM46.75,35.62a8.23,8.23,0,0,0-1.56-4,2.2,2.2,0,0,0-1.06-.75,1.24,1.24,0,0,0-1.62.42,1.75,1.75,0,0,1-.76.54,2.41,2.41,0,0,0-1.41,2c0,.19,0,.47-.08.57a5,5,0,0,0-1,2.62c-.29,1.09-.19,1.2.92,1.33.84.1,1.12.4,1.11,1.22a1.78,1.78,0,0,1-.09.7c-.27.56,0,.81.47,1,.15,0,.28.14.43.2,1,.42,1.19.37,1.61-.64A8,8,0,0,1,45.57,38a5.71,5.71,0,0,0,.74-.93A2.1,2.1,0,0,0,46.75,35.62ZM57.33,23.84c.41.44.78.81,1.12,1.2a16.12,16.12,0,0,1,1.06,1.29,1.64,1.64,0,0,0,2.81.08c.49-.58,1.07-1.08,1.57-1.65a8.43,8.43,0,0,1,1.5-1.36c.45-.32,1.07-.28,1.53-.7a17.17,17.17,0,0,0-5-4.63.77.77,0,0,0-1,0,4.89,4.89,0,0,0-1.73,2.22A19.86,19.86,0,0,1,57.33,23.84Zm-2.47.51a14,14,0,0,1-3.3-2.41,3.68,3.68,0,0,0-.7-.46.54.54,0,0,0-.8.23c-1.4,2.09-3.42,3.64-5,5.62a13.37,13.37,0,0,1-3.52,2.58c.24.36.41.81.92.39A1.44,1.44,0,0,1,44,30.16a3.72,3.72,0,0,1,2.08,1.51A3.81,3.81,0,0,0,47,32.92c0-.51,0-.94,0-1.36a3.71,3.71,0,0,1,1.42-3.26,13.91,13.91,0,0,1,2.23-1.59C52,26,53.4,25.16,54.86,24.35Zm-13,31.71c-.64-2.37-.11-4.68,0-7S43,44.63,43.7,42.29a4,4,0,0,1-2.78-.61c-1.07,1.57-2.11,3.14-1.78,5.18a1.92,1.92,0,0,1,0,.24c0,2.54,0,5,1.42,7.3a6.17,6.17,0,0,1,.49,1.08A.88.88,0,0,0,41.81,56.06ZM49.5,8.86a8.71,8.71,0,0,0-3.57-2.14c-.61-.25-.86-.06-1.14.42a10.28,10.28,0,0,0-.72,2.13c-.58,1.78-.6,3.66-1.09,5.46A1.63,1.63,0,0,0,43.33,16c.36.64.86,1.31,1.61,1.23s.92-.91,1.09-1.56.28-1.57.53-2.31C47.15,11.61,47.49,9.72,49.5,8.86ZM47.91,47.74a1.79,1.79,0,0,0,1.45-2.46,12.82,12.82,0,0,1-.16-3.21c0-.67.24-1.33.21-2a7,7,0,0,1,.7-3.86L48,34.64c-.55,3.7-1.84,7.1-2.51,10.65C47.49,45.74,47.65,45.9,47.91,47.74ZM69.67,67a5.83,5.83,0,0,0,.7-4,1.07,1.07,0,0,0-.88-.95,4.59,4.59,0,0,0-2.6,0,9.9,9.9,0,0,1-5.26.68c-.33,0-.43.13-.52.34a1.59,1.59,0,0,0,.61,1.77,7.22,7.22,0,0,0,2.52.65c.44,0,.57-.17.53-.56A4.94,4.94,0,0,1,65,63.47c0-.16.11-.32.31-.28s.21.21.21.36c0,.48,0,1-.08,1.44-.07.71-.09.73.62.79A8.36,8.36,0,0,1,69.67,67ZM39,28.75l-1.16-2.56a2.91,2.91,0,0,0-1.92-1.79,4,4,0,0,1-.94-.49,1.4,1.4,0,0,0-2.06.89A4.24,4.24,0,0,0,33,26.57a7.77,7.77,0,0,0,2.82,4.37A3.52,3.52,0,0,1,39,28.75ZM39,2.73A8.28,8.28,0,0,1,38.36,4a10.44,10.44,0,0,0-.42,3.41,6.85,6.85,0,0,1-1.44,4.31c-.29.32-.23.53,0,.79.58.57,1.2,1.16,2.07.9s.85-1.14.93-1.89a8.49,8.49,0,0,1,.23-2.24c.14-.36-.08-.59-.4-.76s-.95-.36-1.21-.9c.76-.39,1.2.37,1.88.41a4,4,0,0,1,1.82-3.4A10.67,10.67,0,0,0,39,2.73ZM44.65,6c-.51-.29-.92-.55-1.34-.76-.24-.12-.62-.3-.78-.1-.45.55-1.27.76-1.45,1.53a21.8,21.8,0,0,0-.72,4.08,13.38,13.38,0,0,1-.31,2.36,1.57,1.57,0,0,0,1.07,1.82c.71.18,1.11-.14,1.3-1.15s.28-2.13.52-3.17C43.3,9,43.5,7.36,44.65,6Zm23.21,65.8a7.48,7.48,0,0,0,1-3.69,1.08,1.08,0,0,0-.77-1.13c-1.57-.73-3.28-.48-4.89-.84-.23,0-.35.19-.24.41a2.79,2.79,0,0,1,.16,1.4c0,2.12,0,2.12,2.1,2.6a.45.45,0,0,0,.11,0A3.1,3.1,0,0,1,67.86,71.76ZM19.55,20.09a2.27,2.27,0,0,1,2.33-1.34,15.27,15.27,0,0,1,2.68.51c.25.08.6.14.62.47s.25.48.54.44.51.33.79.27c-.3-1.59-.93-3.07-.4-4.73A2.5,2.5,0,0,1,24,15.66c-.28-.13-.59-.38-.89-.16-.63.46-1.51.18-2,.55s-.64,1.22-.94,1.85a2,2,0,0,1-.38.61C19.4,18.89,19.41,19.35,19.55,20.09ZM49.41,47.88c-1.4.69-1.41.69-1.39,2a22.91,22.91,0,0,1,.11,2.71c-.15,1.32,0,2.62-.1,3.92-.05.87,0,1.75,0,2.62a14.66,14.66,0,0,0,1.35-4.55C49.53,52.38,49.41,50.14,49.41,47.88Zm-1.94,3.89a15.23,15.23,0,0,1-.19-4,1.47,1.47,0,0,0-.93-1.47c-.73-.46-1.16-.2-1.19.68a2.35,2.35,0,0,0,.05,1,18.83,18.83,0,0,1,.86,4.77c0,.46.19.61.65.61s.77-.12.75-.65C47.46,52.45,47.47,52.25,47.47,51.77Zm-18-41a5.69,5.69,0,0,1-.73-.24,1.16,1.16,0,0,1-.6-1.59c.49-.78.7-1.7,1.21-2.42.38-.55.39-.86,0-1.3-.35.22-.85.36-1,.69s-.14.91-.28,1.35a3.73,3.73,0,0,1-.7,1.62,2.22,2.22,0,0,0-.49,2.35A3.59,3.59,0,0,1,27,13.65a.34.34,0,0,0,.16.49A6.9,6.9,0,0,0,29.48,10.75Zm32.1,54.88a6.77,6.77,0,0,0-.37,2.56c0,2,.41,4,.24,6.06a1,1,0,0,0,.06.35.44.44,0,0,0,.35.28.32.32,0,0,0,.36-.24,2.37,2.37,0,0,0,.15-.69,13.31,13.31,0,0,1,.39-2.45A1.66,1.66,0,0,0,62.57,70a1.43,1.43,0,0,1-.17-1.26,7.28,7.28,0,0,0,0-2.33C62.34,65.85,62.05,65.7,61.58,65.63Zm-20.87-26a.37.37,0,0,0-.28-.41c-.23-.07-.45-.15-.69-.2-.83-.18-1-.08-1.28.73a30.11,30.11,0,0,0-.89,4.3.61.61,0,0,0,.43.8c.48.2.68-.11.77-.48A7.91,7.91,0,0,1,40,41.93,7,7,0,0,0,40.71,39.62ZM12.87,41.39a3,3,0,0,0,.06-.43c0-3.51-.06-7,.23-10.53.09-1.07.26-2.13.38-3.19.13-1.27.56-2.47.79-3.71a38.88,38.88,0,0,1,2.27-7.84c.08-.2,0-.28-.1-.37s-.29-.12-.37.08-.12.3-.17.45c-.51,1.65-1.07,3.3-1.53,5-.38,1.34-.5,2.73-.8,4.08a83.23,83.23,0,0,0-1.11,9.7C12.29,36.87,12.9,39.12,12.87,41.39ZM41.73,31.24c-.23-.27-.37-.41-.48-.57a2.62,2.62,0,0,0-3.45-1c-.8.39-1.21,1.26-.25,1.95.7.5,1.44.95,2.19,1.45C40.29,32.37,40.52,31.37,41.73,31.24ZM26,11l-.3.13A2.81,2.81,0,0,0,23.61,14c0,.46.06.72.48,1a2.26,2.26,0,0,0,1.61.13.75.75,0,0,0,.65-.75C26.29,13.23,26.82,12.06,26,11ZM39.55,33.77a5,5,0,0,1-.47-.33,1.62,1.62,0,0,0-2.27-.1,7.15,7.15,0,0,0-2,2.11c-.31.42,0,.7.15.95s.47,0,.7-.1c.82-.42,1.64-.8,2.45-1.22C38.67,34.78,39.35,34.57,39.55,33.77ZM27.51,6a8.93,8.93,0,0,0-3,.22,1,1,0,0,0-.7,1c0,.87.08,1.08.95,1.34,1.43.44,2.23,0,2.59-1.39C27.4,6.78,27.44,6.38,27.51,6ZM44.82,44.82c-1.23-.18-1.21-.17-1.61.83-.68,1.73-.63,3.58-.94,5.38a.41.41,0,0,0,0,.11c.08.29.31.28.45.14a1.85,1.85,0,0,0,.46-1,7,7,0,0,1,.88-2.19,1.52,1.52,0,0,0,.29-.78A15.74,15.74,0,0,1,44.82,44.82ZM30.59,27.06c0-.67,0-.67-.12-.88a63.18,63.18,0,0,0-4.16-4.94,1,1,0,0,0-.26-.24c-.2-.1-.38-.33-.63-.11s-.1.45,0,.62a31.61,31.61,0,0,0,3.66,4.57A3.66,3.66,0,0,0,30.59,27.06ZM65,71.11c-.44-.08-.71.11-.64.64a2.6,2.6,0,0,1-.23.92c-.16.65-.35,1.3-.48,2a.74.74,0,0,0,.36.92.78.78,0,0,0,1-.21,1.73,1.73,0,0,0,.58-1.14,16.81,16.81,0,0,1,.26-2.12C66,71.22,65.89,71.12,65,71.11ZM47.15,60.26c.52-1.46.33-4.32.11-5.85-.06-.38-.24-.6-.63-.56s-.49.3-.54.66c-.1.82.3,1.57.24,2.37s.31,1.8.3,2.72A.62.62,0,0,0,47.15,60.26Zm-.6-22.09a3.66,3.66,0,0,0-1.81,2.3,32.42,32.42,0,0,1-.8,3.34c1.13.19,1.15.19,1.37-.72.06-.27.11-.54.19-.81C45.87,40.92,46.2,39.54,46.55,38.17ZM23,12.51c-.76.3-1.37.49-1.93.78a1,1,0,0,0-.5,1.5,1.08,1.08,0,0,0,1.31.54c.85-.23,1.09-.49,1.11-1.25C23,13.61,23,13.13,23,12.51Zm43.62,59c-.66,2.1-.27,4.1-.33,6.07a27.63,27.63,0,0,0,1.23-4.07A1.74,1.74,0,0,0,66.64,71.53ZM38.38,47.77c0-.64,0-1.16,0-1.68a.56.56,0,0,0-.56-.64c-.41,0-.52.3-.58.63a1.15,1.15,0,0,0,.12.57,7.42,7.42,0,0,1,.38,2.1,23.42,23.42,0,0,1,.2,2.37.57.57,0,0,0,.62.69c.5-.05.27-.47.22-.74A12.88,12.88,0,0,1,38.38,47.77Zm12.85-1.93c.33-2.22.15-2.82-1.27-4.27a20.24,20.24,0,0,0,0,3.21C50,45.66,50.19,45.81,51.23,45.84Zm13.5,30.63c-.64-.23-.88.11-1.1.52-.84,1.56-.77,3.27-.93,5A19.13,19.13,0,0,0,64.73,76.47ZM34.25,36.81c-.18.33-.33.68-.51,1A14.83,14.83,0,0,0,32.19,42c0,.18-.07.42.19.49s.41-.07.5-.34c.52-1.48,1.08-2.95,1.6-4.44C34.58,37.4,34.68,37.07,34.25,36.81ZM24.12,9.07a4.67,4.67,0,0,0-.72,1.65c-.07.2-.14.38.06.54a.48.48,0,0,0,.56,0c.64-.32,1.27-.67,1.89-1a.49.49,0,0,0,.22-.51c-.05-.35-.32-.29-.55-.29A1.78,1.78,0,0,1,24.12,9.07Zm-1.3,2.81c-.19-.38-.21-.85-.71-.74a20.19,20.19,0,0,0-2.16.57c-.45.14-.56.45-.32.93s.52.47.85.25C21.18,12.43,22,12.3,22.82,11.88ZM33.18,49.42a1.23,1.23,0,0,0,.12-1,25.56,25.56,0,0,1-.45-4.62,1.45,1.45,0,0,0,0-.36.4.4,0,0,0-.39-.37c-.21,0-.24.16-.32.29a.67.67,0,0,0-.11.68,5.85,5.85,0,0,1,.3,1.64C32.51,47,33.08,48.13,33.18,49.42Zm16.76-3a27.37,27.37,0,0,1,.23,3.78c0,.68,0,1.36,0,2,0,.22,0,.5.43.52V47C50.61,46.71,50.45,46.53,49.94,46.44Zm-31-28.06a4.47,4.47,0,0,0,1.15-1.65,1.26,1.26,0,0,0-.42-1.93A6.16,6.16,0,0,0,18.91,18.38Zm13.4,7.82a2.37,2.37,0,0,1,0-1.81,9.4,9.4,0,0,0-2.37,0C30.58,25.28,31,26.21,32.31,26.2ZM18.8,12.5c-.47.32-.86.58-1.23.87a2,2,0,0,0-.63.84c-.08.19-.17.37,0,.54a.44.44,0,0,0,.64,0c.32-.22.63-.47.94-.71C19.24,13.52,19.24,13.52,18.8,12.5ZM41.94,51.91c.32,1.77.19,3.44.68,5a28.16,28.16,0,0,0,0-4.5C42.53,52.1,42.35,52.1,41.94,51.91Zm-8.82-23.1a14.16,14.16,0,0,1-.58-1.59c-.1-.6-.71-.27-1-.47-.13-.08-.27.11-.24.29.06.5.47.29.74.36h.12a.3.3,0,0,1,.29.31.41.41,0,0,1-.24.37c-.28.18-.72-.15-1,.3C31.74,29,32.4,28.86,33.12,28.81Zm5.29,23.61a12,12,0,0,0,2.06,3.82C40.18,54.73,39.18,52.85,38.41,52.42ZM31.52,30.56a2.68,2.68,0,0,0,2.82,0C33.71,30,33.71,30,31.52,30.56ZM55,51.26c-.82,1-.13,2.14-.31,3.21C55.49,53.47,55.08,52.35,55,51.26Zm5.33,11.33a15.48,15.48,0,0,0-.71,4.48C59.74,65.55,60.76,64.2,60.31,62.59Zm-6-14.39a2.72,2.72,0,0,0,.46,2.12c.14.16.32.44.58.22s.48-.52.18-.81C55.05,49.3,54.78,48.73,54.29,48.2ZM24.9,20.34a3.76,3.76,0,0,0-3.09-.81C23.5,20.43,24.33,20.65,24.9,20.34ZM57.41,56c.09,1,.17,1.91.27,3,.25-.6.69-1,.63-1.59S57.63,56.5,57.41,56ZM23,7.47c-.13-.18.18-.65-.31-.7s-.62.28-.62.7c0,.16,0,.32,0,.47s0,.42.26.45.57,0,.64-.37C23,7.86,23,7.7,23,7.47Zm1.88,17.75a11.11,11.11,0,0,0-1.82-1.51c-.14-.08-.3-.18-.42,0s0,.29.13.4A2.54,2.54,0,0,0,24.91,25.22ZM23.15,5.77c.35,0,.67,0,.77-.39s-.47-.7-1-.71-.37.32-.4.59C22.53,5.71,22.79,5.81,23.15,5.77ZM47.58,66.88c0-.84.72-1.69,0-2.54C47.39,65.2,47.05,66,47.58,66.88ZM27.36,5c.7.3,1.16-.15,1.73-.26C28.3,3.78,28.21,3.79,27.36,5ZM52.2,45.37c.38,0,.65.05.92.05s.57,0,.6-.41-.16-.46-.46-.56-.5-.13-.66.18S52.39,45,52.2,45.37Zm.47,3.46c-.08,1.32-.05,2.6-.22,3.88A10.17,10.17,0,0,0,52.67,48.83ZM26.39,4.63H24.92c-.21,0-.39.05-.4.31s.12.34.35.35A1.5,1.5,0,0,0,26.39,4.63ZM54.55,58.37c.46-2.56.46-2.56,0-3.12A11.23,11.23,0,0,0,54.55,58.37Zm-7.72,4.71.11,0c.17-.56.35-1.11.52-1.67,0-.17,0-.33-.18-.37s-.43,0-.44.24C46.82,61.89,46.83,62.49,46.83,63.08Zm7.53-3.94c-.11.5-.24,1-.33,1.48a5.75,5.75,0,0,0,0,.83C54.23,60.68,54.84,60,54.36,59.14Zm2.35-8.58a12.52,12.52,0,0,0,0,2.45C57.16,50.82,57.16,50.82,56.71,50.56ZM52.5,53.78a8.88,8.88,0,0,0,0,3.17ZM57,54l-.28,0V56.7A19.42,19.42,0,0,1,57,54ZM61.94,77.8c.21-.54.63-1.1.34-1.77C62.16,76.64,62.05,77.22,61.94,77.8ZM59.13,61.28c-.24.73-.24.73.5.82C59.65,61.74,59.35,61.58,59.13,61.28ZM53,46.58h-.06V47.8H53ZM13.12,43.69V42.51A1.55,1.55,0,0,0,13.12,43.69ZM29.78,30.84a3.78,3.78,0,0,0-1.69.09A3.66,3.66,0,0,0,29.78,30.84Zm27,28.44c.06-.46.32-.82,0-1.25A1.85,1.85,0,0,0,56.77,59.28Zm3.77,9.21c0-.14,0-.35-.21-.32a.32.32,0,0,0-.23.35.36.36,0,0,0,.21.24C60.56,68.84,60.49,68.61,60.54,68.49ZM42.11,59.16a.86.86,0,0,0,.07-.77A.64.64,0,0,0,42.11,59.16Zm-.24-1.88a1.1,1.1,0,0,0-.45-.48s-.09.1-.09.15c0,.21.18.31.34.4S41.8,57.31,41.87,57.28ZM47.24,33.7a.2.2,0,0,0-.17.26c0,.07-.06.3.16.16s.12-.19.16-.3S47.29,33.74,47.24,33.7Zm16,42.53a.25.25,0,0,0,.07-.32.21.21,0,0,0-.06-.1c-.12,0-.12.17-.1.27S63.22,76.19,63.25,76.23Zm-3.54-3.11-.07-.18a.49.49,0,0,0-.07.19.73.73,0,0,0,.07.19ZM13.32,45.84a.49.49,0,0,0-.07.19,1.59,1.59,0,0,0,.07.2.76.76,0,0,0,.06-.2A.7.7,0,0,0,13.32,45.84ZM56.73,61.47a.75.75,0,0,0,0,.2c0,.12.07.13.11,0a.52.52,0,0,0,0-.21ZM31.28,33.79s0,0,0-.06a.18.18,0,0,0-.1,0c-.1,0-.09.08,0,.1Zm5.32-2.18a1.34,1.34,0,0,0-.07.18s0,.06.06.08.07-.05.07-.07A1.39,1.39,0,0,0,36.6,31.61Zm25.19,47,0-.16s0,0,0,0S61.78,78.56,61.79,78.63Zm-1-1.42a.38.38,0,0,0,0,.1c0,.12.06.13.11,0a.13.13,0,0,0,0-.1S60.83,77.22,60.81,77.21Zm.31-.56s0-.08,0-.11-.1-.08-.12,0a.61.61,0,0,0,0,.11Zm.27-.81-.06-.1a.84.84,0,0,0-.08.2s0,.06.06.09S61.36,75.9,61.39,75.84Zm-.85,2.09.07,0v-.09ZM64.92,81l0,.08H65ZM37.26,32.32l.06,0V32.3Zm-.42.19-.05.07h.08ZM54.56,63l.06,0V63Zm5.56,6.44,0,.06h.07Z"/><path d="M70.38,47.17A.83.83,0,0,1,71,48c0,2.08.29,4.18-.29,6.21-.47,0-.41-.28-.44-.5a20.59,20.59,0,0,1,.23-2.48,9.36,9.36,0,0,0-.19-3.07A1.09,1.09,0,0,1,70.38,47.17Z"/><path d="M66,49.17c-.08.3-.25.35-.46.27s-.16-.08-.17-.13c0-.37-.39-.69-.18-1.09a.21.21,0,0,1,.29-.1C65.91,48.36,65.76,48.88,66,49.17Z"/><path d="M66.4,51.62a.29.29,0,0,1-.25.34c-.37,0-.42-.24-.41-.53s0-.45.21-.47C66.4,50.94,66.27,51.39,66.4,51.62Z"/><path d="M60.48,35.07c0,.06,0,.15-.11.19a.22.22,0,0,1-.31,0,1.49,1.49,0,0,1-.28-.38c-.43-.8-.85-1.61-1.27-2.42-.11-.2-.28-.46,0-.62s.45.12.58.38c.38.74.78,1.47,1.17,2.2C60.37,34.61,60.55,34.8,60.48,35.07Z"/><path d="M61.92,37.94a.24.24,0,0,1-.2.24c-.28,0-.58-.45-.52-.9a.34.34,0,0,1,.19-.24C61.64,37,62,37.51,61.92,37.94Z"/><path d="M61.19,36.14c0,.25-.07.34-.18.36s-.56-.29-.54-.63c0-.14.08-.26.19-.26A.51.51,0,0,1,61.19,36.14Z"/><path d="M35.37,21.27c.07-.39.39-.44.61-.58a5.41,5.41,0,0,0,1.62-1.54A2.58,2.58,0,0,1,39.88,18c.15.21.15.3.07.34a6.51,6.51,0,0,0-2.52,2,3.91,3.91,0,0,1-1.22.95A.68.68,0,0,1,35.37,21.27Z"/><path d="M48,21.7a.27.27,0,0,1-.37.19,16.61,16.61,0,0,1-2.66-1.73.23.23,0,0,1,0-.32c0-.05.15-.12.19-.1a12.79,12.79,0,0,1,2.79,1.74A.51.51,0,0,1,48,21.7Z"/><path d="M41.59,18.51c-.3,0-.53,0-.55-.33s.21-.4.46-.38.85-.17.87.29S41.88,18.46,41.59,18.51Z"/><path d="M28,16.69a3.8,3.8,0,0,0,.27,2A3.47,3.47,0,0,0,29.9,21c.19.1.49.31.32.55s-.51.15-.74,0a5.13,5.13,0,0,1-1.34-1.37,6,6,0,0,1-.8-3.43c0-.29.06-.56.47-.52s.23-.4.44-.57a2.28,2.28,0,0,1,.83-.37c.25.19.28.49.4.73s0,.38-.15.37c-.69,0-.53.38-.44.75s.25.84.37,1.25a.31.31,0,0,1-.14.41.33.33,0,0,1-.41-.17c-.16-.4-.28-.82-.41-1.23C28.24,17.13,28.35,16.85,28,16.69Z"/><path d="M70.8,42.86c0,.35,0,.47,0,.59a.38.38,0,0,1-.38.38.35.35,0,0,1-.32-.31.93.93,0,0,1,0-.23,17.13,17.13,0,0,0-.81-5c-.06-.2-.14-.41.11-.5s.41,0,.5.32a14.05,14.05,0,0,1,.69,3.12C70.6,41.84,70.78,42.45,70.8,42.86Z"/><path d="M68.63,33.23c0,.28,0,.42-.2.49s-.29-.09-.38-.21a1.15,1.15,0,0,1-.14-.32A23.21,23.21,0,0,0,64.73,27c-.12-.15-.13-.27,0-.4s.28-.18.42-.07a1.34,1.34,0,0,1,.41.41,31.57,31.57,0,0,1,2.94,5.94C68.55,33,68.62,33.18,68.63,33.23Z"/><path d="M64.32,45.09c0,.21,0,.42-.27.48s-.37-.17-.4-.33a42.77,42.77,0,0,0-1.42-4.85c0-.2-.12-.4.14-.49a.34.34,0,0,1,.47.23c.4,1.65,1.13,3.19,1.47,4.84A.49.49,0,0,1,64.32,45.09Z"/><path d="M54.55,26.67a.79.79,0,0,1,.57.26c.76.65,1.23,1.55,1.94,2.24a.37.37,0,0,1,0,.54c-.2.19-.37,0-.49-.12-.44-.51-.9-1-1.29-1.55a3.07,3.07,0,0,0-.91-.92.31.31,0,0,1-.06-.3C54.35,26.73,54.49,26.7,54.55,26.67Z"/><path d="M34.32,5.53a6,6,0,0,1,2.17.7.29.29,0,0,1,.2.38.31.31,0,0,1-.4.16c-.38-.12-.74-.28-1.11-.41a8.57,8.57,0,0,0-.9-.28c-.21-.06-.55,0-.5-.33S34.16,5.58,34.32,5.53Z"/><path d="M32.41,5.78a.36.36,0,0,1-.33.4c-.12,0-.21-.1-.22-.22a.3.3,0,0,1,.31-.38C32.31,5.56,32.37,5.66,32.41,5.78Z"/><path d="M33.24,5.89c0,.11-.1.14-.21.16s-.33,0-.33-.19A.27.27,0,0,1,33,5.61C33.15,5.62,33.2,5.73,33.24,5.89Z"/><path d="M69.27,60.45c-.11-.34-.19-.46-.17-.56.19-.93.4-1.86.62-2.78,0-.17.12-.42.37-.39s.28.29.23.46A8,8,0,0,1,69.27,60.45Z"/><path d="M54.51,17.33a.82.82,0,0,1,.23,0,21.18,21.18,0,0,1,2.66,1.82c.14.13.3.3.09.5a.36.36,0,0,1-.45,0c-.89-.6-1.76-1.22-2.64-1.84a.28.28,0,0,1-.09-.41C54.35,17.38,54.44,17.37,54.51,17.33Z"/><path d="M52.33,16.36a.92.92,0,0,1-.88-.26,16.52,16.52,0,0,0-3-2.12c-.22-.11-.44-.28-.28-.55s.39-.15.61,0A24.83,24.83,0,0,1,52,15.67a.6.6,0,0,1,.31.71Z"/><path d="M63.14,24c-.07.13-.1.23-.15.26a.37.37,0,0,1-.43-.11l-1.82-1.9c-.28-.29-.58-.55-.86-.84-.11-.12-.16-.29,0-.4a.43.43,0,0,1,.33-.05,1.12,1.12,0,0,1,.4.25c.71.7,1.42,1.41,2.1,2.13A3.12,3.12,0,0,1,63.14,24Z"/><path d="M52.08,24.52c0,.21-.08.37-.27.35a1.06,1.06,0,0,1-.84-.72c0-.1.13-.34.29-.3A1.07,1.07,0,0,1,52.08,24.52Z"/><path d="M50.58,23.49a.4.4,0,0,1-.35.29c-.22,0-.33-.17-.32-.4a.25.25,0,0,1,.31-.26A.41.41,0,0,1,50.58,23.49Z"/><path d="M44.22,10.64c.46.38,1.13.49,1.53,1a.36.36,0,0,1,0,.32.33.33,0,0,1-.29.13,4.77,4.77,0,0,1-1.55-1c0-.05,0-.22.05-.32S44.11,10.7,44.22,10.64Z"/><path d="M68.36,65.09a.21.21,0,0,1-.21-.23,5.76,5.76,0,0,1,.6-2.14c0-.06.21-.09.31-.08s.25.12.22.24A9.14,9.14,0,0,1,68.56,65C68.54,65.06,68.43,65.07,68.36,65.09Z"/><path d="M41.38,9c.44.25.87.5,1.29.77,0,0,0,.23,0,.32s-.21.17-.27.14c-.45-.22-.89-.46-1.31-.72-.06,0-.06-.23,0-.32S41.26,9.08,41.38,9Z"/><path d="M65.34,68.12a.6.6,0,0,1,.41.62c0,.16-.12.34-.29.31a.55.55,0,0,1-.42-.61A.3.3,0,0,1,65.34,68.12Z"/></g></g></svg>