<svg xmlns="http://www.w3.org/2000/svg" viewBox="0 0 58.83 44.66"><title>Cyphonaut</title><g id="Layer_2" data-name="Layer 2"><g id="CirripediaCyphonaut"><path d="M45.08,31.9a4.08,4.08,0,0,0,1.44-.52c.29-.11.66-.43.84-.09s-.32.55-.59.7a9.47,9.47,0,0,1-3.12,1.11,40.47,40.47,0,0,1-8.29.75A15,15,0,0,1,30.14,33a3.15,3.15,0,0,0-2-.28,4,4,0,0,0,1.75,1.15,35.11,35.11,0,0,0,3.64,1,2,2,0,0,0,.59.07,43.41,43.41,0,0,0,10.43-1.67,13.75,13.75,0,0,0,3-1.37,2.84,2.84,0,0,1,.52-.27.25.25,0,0,1,.32.07c.13.16,0,.3-.05.42a3.61,3.61,0,0,1-1.08.73A21.47,21.47,0,0,1,41,34.81c-.19,0-.4,0-.5.24a5.36,5.36,0,0,0-1.62.15c.65,0,1.15.17,1.59-.18a19.25,19.25,0,0,0,8.12-2.09c.69-.35,1.47,0,2.1-.49,0,0,.19.12.25.21s-.06.31-.17.38c-.57.37-1.16.69-1.72,1.07-.22.14-.55.15-.65.45-.2,0-.42,0-.5.24-.11.06-.27,0-.34.12l.07.05a2.43,2.43,0,0,0,.25-.2c.19,0,.44.09.5-.23a5.73,5.73,0,0,0,2-.66,5.18,5.18,0,0,1,.89-.3c.33,0,.6.07.31.46-.08.12-.31.2-.21.36.3.48-.05.66-.37.81a44.48,44.48,0,0,1-7.93,3.17c-2.43.59-4.9.92-7.37,1.28-1.76.26-3.5.1-5.25.26a15.88,15.88,0,0,0,6.62-.06c1.92-.29,3.85-.5,5.75-.89a36,36,0,0,0,6.89-2.58c.84-.36,1.65-.79,2.48-1.17a3.32,3.32,0,0,1,.67-.23.33.33,0,0,1,.28.17.34.34,0,0,1-.07.32,6.23,6.23,0,0,1-.72.39c-.24.12-.47.18-.26.57s-.22.39-.42.48C48.54,38.31,45.45,40,42,40.66c-1.75.35-3.51.64-5.27.89a57.54,57.54,0,0,1-6.94.22.9.9,0,0,0-.59.2h4.26c1,0,2,0,3,0a33,33,0,0,0,12.33-2.82c1.16-.53,2.3-1.1,3.44-1.66.18-.08.36-.19.54-.26s.5-.08.6.2-.14.37-.31.44c-2.22,1-4.3,2.24-6.62,3-.6.19-1.32.17-1.8.7-.27,0-.56-.12-.8.12a.72.72,0,0,0,.78-.15,18.38,18.38,0,0,0,6.12-2.18c.31-.18.57-.46,1-.47A.41.41,0,0,1,52,39a.35.35,0,0,1-.05.32C51.19,39.78,50.8,40.6,50,41a27.15,27.15,0,0,1-9,3.08c-1.25.19-2.54.21-3.8.35a55.57,55.57,0,0,1-7.18.16,15.63,15.63,0,0,1-6.39-1.21l-.11,0a14.8,14.8,0,0,1-4.93-1.61,15.92,15.92,0,0,1-1.72-.82,6.4,6.4,0,0,0-3.22-1.1,2.57,2.57,0,0,1-2.24-1.55c-.32-.61-.53-1.29-1.31-1.58-.36-.13-.51-.59-.6-1a18.18,18.18,0,0,0-3-6.32A3.94,3.94,0,0,1,6.07,26c.23-.85.72-1.6,1-2.43A4.15,4.15,0,0,0,7.43,21,2.25,2.25,0,0,0,6,19.28a17.09,17.09,0,0,1-2.36-1.14A11.5,11.5,0,0,1,.86,16a3,3,0,0,1,0-4.19,11.23,11.23,0,0,1,2-1.72C5.12,8.41,7.35,6.67,9.65,5A35.85,35.85,0,0,1,19.72.49c2.58-.14,5.1-.71,7.73-.4a36.5,36.5,0,0,1,6.91,1.22,38.15,38.15,0,0,1,13,6.9,36.69,36.69,0,0,1,6.72,7.13,17.47,17.47,0,0,0,4.33,4.9c.48.32.53.85.22,1.51a7,7,0,0,1-1.8,2.51c-.5.4-1,.81-1.56,1.3a17.1,17.1,0,0,0,1.19,2.33A3.24,3.24,0,0,1,57.1,30c0,.36-.22.57-.52.43s-1,0-1-.74c.1,0,.23,0,.14-.14l-.12.16a1.32,1.32,0,0,1-.94-1.06c-.22-1-1.2-1.16-1.8-1.73-.16-.15-.36.07-.55.14l-2.55.85a2.33,2.33,0,0,0,1,1.86,3.73,3.73,0,0,1,.91,1.39c.06.14.12.29-.05.42a.35.35,0,0,1-.44,0c-.82-.67-1.89-.85-2.68-1.61a11.23,11.23,0,0,0-2.21-1.37,1.55,1.55,0,0,0-1.06,0,19.94,19.94,0,0,1-6.89-.17c-3.15-.63-6.31-1.21-9.47-1.82-.62-.12-1.24-.27-1.86-.4s-.73,0-.67.58a2.87,2.87,0,0,0,1.28,2.51,8.59,8.59,0,0,1,2.58,1.9c.13.18.37.12.54.19a16.85,16.85,0,0,1,2.71,1.21,1.73,1.73,0,0,0,.91.22,29.93,29.93,0,0,0,6.4-.61,21.52,21.52,0,0,0,3.46-.83,13,13,0,0,0,2.25-1.09,5.49,5.49,0,0,1,.63-.34.36.36,0,0,1,.43.13c.09.16,0,.3-.16.39-.5.32-1,.63-1.52.94-.26.17-.61.19-.78.49a1,1,0,0,0-.77.22l-.23,0c-.08,0-.21,0-.24.11a1.74,1.74,0,0,0,.32,0c.06,0,.09-.12.13-.18C44.57,32.05,44.89,32.22,45.08,31.9ZM49.62,35c-.15.09-.42,0-.47.25-.26,0-.54,0-.74.21a19.61,19.61,0,0,0-2.59.85c-4.85,1.7-9.77,2.92-15,2.3a22.86,22.86,0,0,1-4.15-.94c-.45-.14-.76-.62-1.3-.52l-.19-.12-.08,0,.3.07a8,8,0,0,0,3.55,2,15,15,0,0,0,4.77.12c1.53-.12,3.06-.42,4.59-.63A30.79,30.79,0,0,0,47.57,36c.3-.15.7-.17.81-.57.27,0,.56.08.74-.22A.57.57,0,0,0,49.6,35l.34-.09s0-.06-.06-.05ZM49.88,30c0,.15,0,.21.16.11L49.86,30c0-.21-.15-.25-.31-.28,0,0-.09.13-.07.16A.3.3,0,0,0,49.88,30ZM26.11,42c.14.38.48.18.72.25.35.38.81.18,1.22.22.46.5,1.05.16,1.57.26a26,26,0,0,0,6.05.1c-2.56.07-5.09-.25-7.64-.33-.35-.39-.81-.18-1.22-.22-.13-.41-.48-.18-.72-.25-.17-.3-.46-.22-.72-.24A2,2,0,0,0,23.56,41a2.91,2.91,0,0,0,1.83.78C25.53,42.11,25.87,41.91,26.11,42Zm15.37-5c.22-.09.5.07.73-.12a.48.48,0,0,0-.71.15c-.28.05-.58-.1-.88.1A.68.68,0,0,0,41.48,36.94ZM56.1,28.78l0,0-.06,0c0-.38-.12-.66-.67-.75A1.65,1.65,0,0,0,56.1,28.78ZM30.9,35a.35.35,0,0,0,.58.09l-.6-.06a2.09,2.09,0,0,0-1.24-.44C30.07,35.16,30.53,34.94,30.9,35Zm-4.55,7.92c.15.27.34.26.59.09L26.33,43a3.67,3.67,0,0,0-2.74-.56A5.13,5.13,0,0,0,26.35,42.93ZM39.8,17.51c.45.11.7.81,1.35.44.2-.11.32-.19.26-.41a.8.8,0,0,0-.86-.64c-.29,0-.85,0-.73.64-.09,0-.21-.08-.15.11Zm8.14,5.74a3.08,3.08,0,0,0,1.29-.46,1.09,1.09,0,0,0,.29-1.37c-.37-.41-.69,0-1,.15-.16.07-.28.17-.25.34.08.5-.33.88-.27,1.37a.5.5,0,0,0-.12,0,.15.15,0,0,0,0,.08Zm-2.63,19c-1.79.1-3.5.62-5.28.83s-3.46.45-5.19.55c-2,.12-3.91.06-5.87.07H27.8a16.11,16.11,0,0,0,3.71.29c2.3-.17,4.61,0,6.93-.27a40.59,40.59,0,0,0,5.15-.82,2.91,2.91,0,0,0,1.7-.67l.63,0C45.64,41.93,45.46,42,45.31,42.23Zm-24.48-5,0-.05.06,0a28.94,28.94,0,0,0,4.8,3.18l.11,0a20.54,20.54,0,0,0,5.28.82,41.32,41.32,0,0,0,6.18-.42c1.6-.2,3.16-.54,4.72-.89-.87.05-1.72.19-2.58.31-1.45.2-2.9.49-4.36.56a19.51,19.51,0,0,1-5-.21,17.64,17.64,0,0,1-4.66-1.31,29.84,29.84,0,0,1-3.73-1.81A1.08,1.08,0,0,0,20.83,37.2Zm23.51-1.93c-1.89.24-3.77.55-5.67.71a56.38,56.38,0,0,1-8.11-.27,6.22,6.22,0,0,1-2.1-.27c-1.06-.45-2.18-.71-3.21-1.24A1,1,0,0,0,24.13,34c.56.49,1,.92,1.51,1.35a1,1,0,0,0,.6.35,4.71,4.71,0,0,1,2.67,1.18,3.36,3.36,0,0,0,1.7.67A17,17,0,0,0,33,37.43a59.14,59.14,0,0,0,8.69-1.29,5,5,0,0,0,2.63-.9c.17-.08.41.11.56-.13A.43.43,0,0,0,44.34,35.27Zm12.24-12a4.34,4.34,0,0,0,1.32-1.79.48.48,0,0,0-.18-.72,15.81,15.81,0,0,1-3.81-4.26A39.83,39.83,0,0,0,45.64,7.9,37.75,37.75,0,0,0,40,4.5c-.29-.15-.57-.39-1-.28-1.37.37-2.56-.32-3.82-.64A.33.33,0,0,1,35,3.12c.08-.28.27-.17.47-.14.75.13,1.42.63,2.32.53A29.71,29.71,0,0,0,26.08.75a20.7,20.7,0,0,0-6.85.8,29.3,29.3,0,0,0-10.35,5c-1.09.87-2.22,1.69-3.33,2.54A39.56,39.56,0,0,0,1.76,12a1.48,1.48,0,0,0-.63,1.23l0,0c-.55,1.13-.51,1.53.33,2.39a11.31,11.31,0,0,0,4,2.7c2,.78,4.05,1.37,6,2.2A85,85,0,0,0,24.24,24.8,38.14,38.14,0,0,0,30,25.91l0,0c.1.07.19.18.29.2,2.66.44,5.29,1.05,7.95,1.53a30.5,30.5,0,0,0,5.47.44c.8,0,1.56-.28,2.37-.27a8.69,8.69,0,0,0,2.74-.51c-.39-1.22-1.88-1.79-1.81-3.23H46a1.07,1.07,0,0,1-1.08-.62c-.22-.56-.68-.77-1.09-1.12s-.55-.39-1-.2a1.4,1.4,0,0,1-2.08-1,1.62,1.62,0,0,0-.91-1,2.25,2.25,0,0,1-1.3-2.43,2.23,2.23,0,0,1,2.41-1.33,1.14,1.14,0,0,1,.87.56A2.4,2.4,0,0,1,42,19.24a6.32,6.32,0,0,1-.47.68,1.19,1.19,0,0,0,.24,1.55c.41.29,1,.09,1.41-.51s-.2-.78-.56-1c-.06-.05-.15-.06-.21-.11s-.27-.3-.14-.51a.29.29,0,0,1,.42-.09c.47.38.76.18,1-.25s.9-.15,1.18-.44.46-.79.89-1.06.76-.15,1.11-.32c-.17-.3-.43-.52-.4-.87s-.1-.63.29-.67.21.34.29.53a1.53,1.53,0,0,0,.26.4c.11.11.22.21.4.07a1,1,0,0,0,.45-.91c-.07-.4-.39-.32-.66-.32s-.39,0-.47-.22c1-.66,1.74-.37,1.87.8.05.46,0,.79.68.54a1.21,1.21,0,0,1,1.7.59A1.66,1.66,0,0,1,51,19.26a1.36,1.36,0,0,1-1.83.21.86.86,0,0,0-1.1-.15c.12.22.25.42.35.64s-.07.56.2.76c1.33-.19,2.06.44,1.73,1.56a1.76,1.76,0,0,1-1.12,1.31,7.42,7.42,0,0,0-1.1.44c-.46.26-.5.53-.18,1s.87,1.14,1.28,1.72a.67.67,0,0,0,.81.34,6.4,6.4,0,0,0,2.26-.93l0,0a5.33,5.33,0,0,0,2.4-1.22A5.33,5.33,0,0,0,56.58,23.25ZM17.43,24.33a2.57,2.57,0,0,1,.29,1.73,11.74,11.74,0,0,0,1.46,5.35c.61,1.13.65,1.16,1.81.43a1.52,1.52,0,0,0,.45-.38c.2-.28.36-.5.07-.93a12,12,0,0,1-1.81-5c0-.26-.05-.5.25-.57s.39.17.41.42a12.49,12.49,0,0,0,1.19,4,2.6,2.6,0,0,0,.76,1.06c.12.09.29.23.4.2.53-.16.8-.64,1.11-1s-.09-.53-.24-.72a6.76,6.76,0,0,1-1.08-2.38c-.06-.26-.07-.63.29-.68s.35.29.38.5a5.25,5.25,0,0,0,.93,2.17c.22.35.47.69,1,.45a.88.88,0,0,0,.53-1.08,7.36,7.36,0,0,1-.21-.93c-.12-1-.11-1-1-1.23a85.64,85.64,0,0,1-12.92-4.43c-1-.46-2.16-.79-3.44-1.25a2.9,2.9,0,0,1,.4,1.67,7.56,7.56,0,0,1-1,3.53,3.84,3.84,0,0,0,.33,4.25,15.27,15.27,0,0,1,2.58,5.22c.34,1.29.35,1.29,1.62,1,.07,0,.13-.08.24-.16a2.48,2.48,0,0,0-.41-.81c-.19-.3-.36-.61-.53-.93a16.17,16.17,0,0,1-1.68-9.14,4.56,4.56,0,0,1,.82-2.34c.12-.16.29-.33.5-.22s.14.34,0,.52A7.13,7.13,0,0,0,10,26a16.42,16.42,0,0,0,2,7.89,6,6,0,0,0,1,1.33.77.77,0,0,0,1.31,0,3.09,3.09,0,0,0-.14-.32A13.16,13.16,0,0,1,11.85,28c-.09-1.29.16-2.54.08-3.81a1.61,1.61,0,0,1,.37-1c.09-.13.24-.24.4-.13a.3.3,0,0,1,.13.4,11,11,0,0,0-.37,4.26,11.89,11.89,0,0,0,1.8,6.1c.94,1.47,1.15,1.5,2.46.41a.88.88,0,0,0,.12-.15,12.84,12.84,0,0,1-2.46-7.46,15.12,15.12,0,0,1,.46-2.56c0-.16.2-.38.44-.29a.33.33,0,0,1,.19.49,3.15,3.15,0,0,0-.37,1.12,12.59,12.59,0,0,0,1.56,7.24c.69,1.19.87,1.58,2.36.4a1.31,1.31,0,0,0,.23-.29A11,11,0,0,1,17.43,24.33ZM29,34.79a6.53,6.53,0,0,0-2.45-2.34A5.75,5.75,0,0,1,24.28,30c-.25.28-.48.55-.73.8-.67.66-.7,1-.05,1.67a2.17,2.17,0,0,0,.66.5A26,26,0,0,0,29,34.79Zm-11.52-.32a8.84,8.84,0,0,1-1.12.94c-.49.28-.4.65-.22,1a2.17,2.17,0,0,0,1.54,1.37,5.8,5.8,0,0,1,2.36,1,4.64,4.64,0,0,0,.75.34c.18.08.37.19.55,0s-.12-.4-.11-.62-.13-.2-.22-.26a13.32,13.32,0,0,1-2.07-2A5.34,5.34,0,0,1,17.51,34.47Zm4.73-2.82a9.82,9.82,0,0,1-1.11.89c-.9.5-.92.65-.22,1.44a8.19,8.19,0,0,0,1,.89A10,10,0,0,0,25,36.33c.2.08.42.23.66-.17C23.85,35.2,23.29,33.31,22.24,31.65Zm-4.08,2.81a4.16,4.16,0,0,0,2.2,1.75,22.31,22.31,0,0,1,2.87,1.39c.32.19.79.52,1.07.13s-.3-.66-.44-1c-.06-.15-.24-.19-.39-.24a6.78,6.78,0,0,1-3.72-3.08Zm-3,1.31c-.48,0-.8.51-1.31.49s-.47.34-.32.65a2.45,2.45,0,0,0,1.65,1.44,11.66,11.66,0,0,1,3,1.35,4.26,4.26,0,0,0,.75.35c.22.08.55.17.66-.07a.67.67,0,0,0-.23-.83,3.82,3.82,0,0,0-1.62-.72,3,3,0,0,1-2.2-1.82C15.41,36.33,15.38,36,15.13,35.77ZM29.9,32.08a1.48,1.48,0,0,0-.82-1,13.74,13.74,0,0,1-1.77-1.2A1.64,1.64,0,0,0,25,29.71a2.58,2.58,0,0,0,1.73,2A8.77,8.77,0,0,0,29.9,32.08ZM11.51,36.84a3.05,3.05,0,0,0,3.33,2.48,2.4,2.4,0,0,1,1.23.4c.6.32,1.18.67,1.77,1,.39.22.48.23,1.14.16a20.47,20.47,0,0,0-4.29-2,3,3,0,0,1-1.77-1.67c-.2-.37,0-.81-.21-1.25ZM46.05,21.32c-.25.4-.45.69-.61,1a.73.73,0,0,0,.46,1.12,1,1,0,0,0,1.18-.32,2.87,2.87,0,0,0,.57-1.22A2,2,0,0,1,46.05,21.32Zm3.36-3.16c0,.43-.07.94.56,1,.47,0,.87-.57.85-1.21s-.21-.87-.7-.87S49.4,17.35,49.41,18.16Zm-5.09,2.71c.27-.35.75-.48.84-1a.53.53,0,0,0-.09-.53.5.5,0,0,0-.64-.11.94.94,0,0,0-.53.86,2.41,2.41,0,0,0,.17,1.15c.13.27.09.68.48.71s.51-.32.67-.59c0,0,0-.13,0-.21C45,21,44.63,21.22,44.32,20.87Zm1.58-1.05a4.55,4.55,0,0,0,.46-.4,1.05,1.05,0,0,1,.62-.29c.26-.06.25-.29.2-.47a.85.85,0,0,0-1-.64.89.89,0,0,0-.49,1.13C45.76,19.36,45.83,19.58,45.9,19.82ZM40.06,37.27c-2,.13-4,.62-6,.78A22.67,22.67,0,0,0,40.06,37.27Zm7.26-8.86a1.85,1.85,0,0,0,1.31.81c.42.1.6-.3.63-.56s-.12-.65-.57-.56Zm-24.89,14a1.08,1.08,0,0,0-.72-.64A4.65,4.65,0,0,1,20.25,41c-.19-.14-.29-.18-.41.09s-.16.4.05.48A5.58,5.58,0,0,0,22.43,42.4ZM48.71,17.58a.34.34,0,0,0-.15-.5c-.35-.21-.57.18-.86.26a.34.34,0,0,0-.2.49c.14.31.21.74.65.76s.49-.42.51-.78A1.55,1.55,0,0,1,48.71,17.58Zm6,8.37c-.39.22-.78.3-1,.69a2.64,2.64,0,0,0,1.32.9A1.57,1.57,0,0,0,54.69,26ZM20.4,40a2.87,2.87,0,0,0,2.43,1.35C21,39.93,21,39.93,20.4,40ZM47.76,20.5c0-.4-.26-.83-.54-.77a.73.73,0,0,0-.68.68c0,.33.35.86.65.85C47.66,21.24,47.67,20.83,47.76,20.5ZM28.17,37.37c-.2-.54-.7-.62-1.1-.83a.31.31,0,0,0-.42.09.29.29,0,0,0,.16.39C27.25,37.14,27.65,37.46,28.17,37.37ZM24,40.24l-1.36-1a.22.22,0,0,0-.31,0c-.17.15-.06.27.05.39A3,3,0,0,0,24,40.24ZM26.75,39l-1.38-.88c-.18-.13-.28,0-.37.09s.05.24.14.28A3,3,0,0,0,26.75,39Zm4-6.64a3.85,3.85,0,0,0,2.14.76A5.43,5.43,0,0,0,30.77,32.32Zm7.77,10.2a3.17,3.17,0,0,0-1.44.16C37.7,42.61,38,42.76,38.54,42.52Zm4.08-.65a.48.48,0,0,0,.55,0A.48.48,0,0,0,42.62,41.87Zm-2.3.46c-.18,0-.37-.17-.53.06A.59.59,0,0,0,40.32,42.33Zm-12.39-.62.21-.07a.41.41,0,0,0-.19-.09c-.09,0-.22,0-.22.1S27.86,41.69,27.93,41.71Zm15-9.27-.1.05c.05,0,.1.08.15.08s.11,0,.16-.08ZM41.58,42l-.2.08c.07,0,.14.07.2.06a.58.58,0,0,0,.21-.07ZM43,39.7l-.18-.05s-.06,0-.09.05l.19.06S43,39.72,43,39.7Zm.85-.22s0,0,0,0h-.1s0,.06,0,.06ZM43,36.61s0,0,0-.06a.15.15,0,0,0-.09,0c-.09,0-.08.07,0,.09S42.94,36.62,43,36.61Zm2.14-.79-.1,0,.13,0ZM47,35.19l.1,0s-.06,0-.09,0-.07,0-.11,0Zm-.48,6.63-.11,0s0,.07,0,.07l.11,0ZM26.74,41.4s.08,0,.1,0,.05-.07-.07-.08S26.75,41.38,26.74,41.4Zm19.69-6-.06,0v.06Zm-1.93.72-.06,0v.06ZM40.88,18.78l-.05.06h.07ZM50.4,34.66l.08,0v-.07Zm-4.9.25s0-.06-.06-.06,0,0-.08,0,0,.06.07.06S45.47,34.93,45.5,34.91Z"/><path d="M19.53,21A2.5,2.5,0,0,1,17,19.09a.71.71,0,0,1,.06-.68.35.35,0,0,1,.41-.17.26.26,0,0,1,.2.26A1.94,1.94,0,0,0,18,19.73a1.2,1.2,0,0,0,1.66.45,1.26,1.26,0,0,0,.47-1.75s-.06-.06-.07-.09c-.06-.28-.6-.53-.19-.79s.62.2.8.51a1.74,1.74,0,0,1-.18,2.29,1.35,1.35,0,0,0,.66,2.29,2.24,2.24,0,0,0,1.84-.1,1.37,1.37,0,0,0,.84-1.06c.07-.43-.52-1.21-.95-1.43s-.54,0-.79.11-.44.17-.67.22-.34,0-.37-.19a.41.41,0,0,1,.12-.31c.62-.51,2.11-.86,2.66.1.33.58.86.61,1.36.76l.15-.18C25.79,20,26,19,27,19.21s2.24.5,2.65,1.74a2.5,2.5,0,0,1-.7,2.63,1.93,1.93,0,0,1-2.1.41,1.92,1.92,0,0,0-1.59,0,2.6,2.6,0,0,1-2.79-.42c-.17-.13-.26-.3-.57-.31C20.08,23.18,19.66,22.76,19.53,21Zm9.5.64a1.94,1.94,0,0,0-1.93-1.73c-.75,0-1.22.69-1.21,1.83a1.59,1.59,0,0,0,1.68,1.72A1.62,1.62,0,0,0,29,21.66Zm-5.71,1.61a2.11,2.11,0,0,0,2.15-.12c-.11-.52-.21-1-.3-1.45a.36.36,0,0,0-.41-.33.28.28,0,0,0-.3.29C24.46,22.45,23.81,22.76,23.32,23.27Z"/><path d="M15.93,13.86c-.27,0-.4-.14-.58-.24a1.43,1.43,0,0,0-1.67.13,1.43,1.43,0,0,0-.57,1.67,4.56,4.56,0,0,0,.26.79c.38.69,1,1.11,1.48,1a1.85,1.85,0,0,0,1.37-1.58c0-.39-.08-.95.31-1.09.66-.24,1.08-1,1.89-.89A2,2,0,0,1,20.12,16,2,2,0,0,1,17,17.41a.82.82,0,0,0-1.22,0,1.82,1.82,0,0,1-2.22.09.75.75,0,0,0-1,0,3.13,3.13,0,0,1-1.44.52,1.9,1.9,0,0,1-2-1,2.06,2.06,0,0,1-.06-2.36,6.71,6.71,0,0,1,.65-.84.42.42,0,0,1,.64,0c.16.19,0,.37-.18.49a1.88,1.88,0,0,0-.69,1.92,1.67,1.67,0,0,0,1.15,1.26,2.91,2.91,0,0,0,1.83-.72.79.79,0,0,0,0-.8,1.94,1.94,0,0,1-.15-1.06,2.17,2.17,0,0,1,3.33-1.76C16,13.27,16.13,13.48,15.93,13.86Zm1.66,2.44c.54-1.29.54-1.29,1.73-1.1-.55-.95-1.21-1.15-1.75-.4-.23.33-.87.18-.77.73S17.56,15.66,17.59,16.3Z"/><path d="M23.74,1.63a6.14,6.14,0,0,1,3,.55A2.49,2.49,0,0,1,28.1,3.46c.1.22.09.38-.09.51s-.31,0-.39-.14c-1.38-1.74-3.28-1.71-5.2-1.51-2.11.21-3.75,1.45-5.37,2.67a6.43,6.43,0,0,1-3.41,1.52,4.14,4.14,0,0,0-2.28,1.21,13.26,13.26,0,0,0-2.29,2.44A7.69,7.69,0,0,1,7.76,11.7a3.54,3.54,0,0,0-.86,4.11c.21.52.41,1,.63,1.54a1.37,1.37,0,0,1,.09.82.4.4,0,0,1-.18.26.21.21,0,0,1-.29-.13c-.34-1.5-1.41-2.78-1.24-4.43a3.34,3.34,0,0,1,1-2.24A18.17,18.17,0,0,0,9.13,9,10.59,10.59,0,0,1,11.76,6.6a5.29,5.29,0,0,1,2.34-.84,4.78,4.78,0,0,0,2.34-1.09,25.6,25.6,0,0,1,3-2A7.5,7.5,0,0,1,23.74,1.63Z"/><path d="M23.23,8.37A1.45,1.45,0,0,1,23.65,10a1.57,1.57,0,0,1-1.37,1,2,2,0,0,1-2.2-2,2.77,2.77,0,0,0-.34-1.89,1.08,1.08,0,0,1,.38-1.56c.27-.19.55-.34.65-.65.2-.62.74-.82,1.25-1a1.28,1.28,0,0,1,1.52.34,1.53,1.53,0,0,1-.05,1.58c-.09.13-.24.22-.34.34a.77.77,0,0,0-.06,1,.62.62,0,0,0,.76.2.68.68,0,0,0,.58-.78,1,1,0,0,1,0-.24c0-.24-.32-.6.09-.71s.5.33.6.6c.28.73-.18,1.4-1,1.72-.28.11-.81-.16-.82.45a1.79,1.79,0,0,1-1-.17c-.59-.34-1.52,0-1.58.55a1.27,1.27,0,0,0,.62,1.3c.38.23.8.6,1.28.21s.85-.67.52-1.28C22.93,8.73,23.15,8.58,23.23,8.37ZM23,5c-.26.07-.19.29-.23.47l-.24.26c-.13,0-.28,0-.37.12s0,.06.07.07.25-.06.27-.22.25-.09.24-.26c.3,0,.3-.24.24-.47l.14-.06s-.05,0-.06,0S23,5,23,5ZM22.2,6.59s-.13-.09-.3-.1c-.34,0-.71.06-1-.25-.12-.13-.3-.32-.49-.11a.58.58,0,0,0-.16.63,1.58,1.58,0,0,0,.67.79c.39.23.67-.07,1-.23A.64.64,0,0,0,22.2,6.59Z"/><path d="M30.38,11.39a10.37,10.37,0,0,0-.13-2.16,15.81,15.81,0,0,1-.05-4.18A3.27,3.27,0,0,1,31.69,2.7a3.92,3.92,0,0,1,2.91.16.37.37,0,0,1,.1.31.4.4,0,0,1-.27.17,1.41,1.41,0,0,1-.92-.18,1.62,1.62,0,0,0-2,.58,3.62,3.62,0,0,0-.79,2.08,6.6,6.6,0,0,0,0,2.62c.21.91.11,1.83.33,2.73a.8.8,0,0,1-.4,1c-.47.19-.84-.08-1.12-.47a3.85,3.85,0,0,1-.63-1.4,28.26,28.26,0,0,1-.49-3.06c-.06-.7-.23-1.4-.36-2.1-.06-.3-.27-.69.16-.79s.43.32.48.58c.18,1.06.34,2.12.5,3.17A8.3,8.3,0,0,0,29.92,11,.7.7,0,0,0,30.38,11.39Z"/><path d="M38,5.23c.27.43.09.75.12,1.06s.27.45.57.34A1,1,0,0,0,39.25,6c.12-.34-.08-.5-.42-.55a.24.24,0,0,1-.21-.34.41.41,0,0,1,.46-.3.37.37,0,0,1,.21.09c.58.67,1.64.81,2,1.76.1.26.34.31.54.42,1.05.62,1.17,1.36.37,2.32a1.25,1.25,0,0,1-2,.26A1.32,1.32,0,0,0,39,9.37a2.57,2.57,0,0,1-.83,0,1.3,1.3,0,0,1-.92-1.92,1.22,1.22,0,0,0,.18-1.06A1.08,1.08,0,0,1,38,5.23Zm2.18,2.92c0,.22.06.37.1.52.18.57.46.76.92.64a1.11,1.11,0,0,0,.72-1.11c-.11-.53-.52-.54-.93-.51a2.3,2.3,0,0,0-.58.12,1.06,1.06,0,0,1-1.37-.31c-.26-.35-.64,0-.95,0s-.4.29-.39.54a.84.84,0,0,0,.57.7,1.28,1.28,0,0,0,1-.05C39.61,8.58,39.72,8.21,40.19,8.15Zm-.27-.87c.18-.11.46-.16.53-.47s-.13-.34-.33-.35-.48.18-.52.47S39.7,7.21,39.92,7.28Z"/><path d="M1.13,13.21A32.57,32.57,0,0,1,3.7,10.94c.13-.08.23-.22.37-.3s.48-.2.64,0-.06.37-.22.49c-.31.25-.64.48-.94.73-.15.12-.42.31-.4.41.19.78-.56,1.06-.79,1.61a.24.24,0,0,0-.1.05.11.11,0,0,0,0,.06l.1-.14c.25,0,.49.13.46.42a1.59,1.59,0,0,0,.8,1.53c.29.21.31.52.12,1C2.54,15.77,1.21,15,1.16,13.17Z"/><path d="M39.67,23.55c-.3.67.18,1.22.27,1.82a6.31,6.31,0,0,1,.08,1.3c0,.14-.12.2-.23.24s-.31-.06-.38-.19a.83.83,0,0,1-.09-.46,5.33,5.33,0,0,0-.35-2,1.29,1.29,0,0,1,.05-.91c.23-.64.48-.78,1-.43a10.92,10.92,0,0,1,2.51,1.76c.58.64,1.43,1,1.92,1.72a.38.38,0,0,1-.63.13c-.38-.27-.76-.57-1.12-.88A9.9,9.9,0,0,0,39.67,23.55Z"/><path d="M30,25.91a4.33,4.33,0,0,1,.49-3.86,4.56,4.56,0,0,0,.6-1.4c0-.11-.08-.08-.18,0s-.46.5-.69.08.14-.58.42-.72c.68-.33,1-.08,1.06.68A2.25,2.25,0,0,1,31.23,22a4.63,4.63,0,0,0-.78,3.27c.06.41,0,.74-.53.63Z"/><path d="M56.6,23.28c-1,0-1.93-.61-3-.6.26.8,1,1.37,1,2.28-.15,0-.36,0-.44-.1a6.67,6.67,0,0,1-1.24-2c-.25-.66.06-.89.8-.84a18.38,18.38,0,0,1,2.19.53A.66.66,0,0,1,56.6,23.28Z"/><path d="M12.63,11.48c.73,0,1.19,0,1.45.54a.34.34,0,0,1-.08.43.38.38,0,0,1-.32,0,1.19,1.19,0,0,0-.83-.39c-1,.07-1.43.81-.89,1.74.11.2.38.39.07.59s-.45-.06-.62-.23A1.29,1.29,0,0,1,11,12.7a1.8,1.8,0,0,1,1.25-1.19A.84.84,0,0,1,12.63,11.48Z"/><path d="M52.28,26.13a6.51,6.51,0,0,1-2.52-1.88c-.13-.13.06-.28.24-.29a.67.67,0,0,1,.33.1,8.19,8.19,0,0,1,1.88,1.64c.08.09,0,.3,0,.46Z"/></g></g></svg>