<svg xmlns="http://www.w3.org/2000/svg" viewBox="0 0 41.85 132.36"><title>Dimophyes</title><g id="Layer_2" data-name="Layer 2"><g id="Dimophyes"><path d="M17.37,83.26a23.87,23.87,0,0,0,2,3.9,2.33,2.33,0,0,0,1.1.89A5.21,5.21,0,0,1,23,90.77a9.27,9.27,0,0,0,5.81,4.79,1.78,1.78,0,0,0,1.17.11,3.79,3.79,0,0,1,4.05,1,9.33,9.33,0,0,0,4.19,2.62.3.3,0,0,1,.24.44c-.09.25-.27.23-.49.17a6.75,6.75,0,0,1-2.77-1.31,4.41,4.41,0,0,0-2.16-1.12,29.64,29.64,0,0,1-3.19-.9,1,1,0,0,0-.81,0,1.64,1.64,0,0,1-1.69-.28,15.06,15.06,0,0,0-3.88-1.75,5.17,5.17,0,0,1-2.68-2.09A62.39,62.39,0,0,0,17,87.26c-.6-.68-1.09-1.48-2-1.74A16.61,16.61,0,0,0,12.15,83a1.45,1.45,0,0,0-.29-.19.39.39,0,0,0-.06-.11h-.06l.15.09a3.27,3.27,0,0,0,1.8,3A12.13,12.13,0,0,1,18,90.06c.47.69.86,1.43,1.27,2.16A7.54,7.54,0,0,0,22.07,95a50.19,50.19,0,0,1,4.59,2.56,1,1,0,0,0,.77.26,1.7,1.7,0,0,1,1.54.76,2,2,0,0,0,2.06.85,6.5,6.5,0,0,1,4.24,1.26,5.21,5.21,0,0,0,4,.94c.15,0,.3-.12.45-.14a.37.37,0,0,1,.42.34.46.46,0,0,1-.3.31,9,9,0,0,1-1.78.18,6.12,6.12,0,0,1-3.42-1.23,5,5,0,0,0-3.47-1.05,5,5,0,0,1-3.37-1c-1.92-1.35-4-2.39-6.07-3.54a8,8,0,0,1-3.2-3.29A18.23,18.23,0,0,0,15,87.48a4.5,4.5,0,0,0-1.68-1.1l-.06-.06.09,0c0,.52.34,1,.23,1.51-.06.27.13.45.34.59a1.12,1.12,0,0,0,.22.09c2.59,1.12,3.91,3.39,5.19,5.7a9.82,9.82,0,0,0,1,1.47,5,5,0,0,0,2.44,1.64,7,7,0,0,1,2.31,1.22,29,29,0,0,1,3.57,3c1.29,1.4,3,1.53,4.75,1.22.52-.09.88-.16,1.28.25s1,.33,1.48.35a10.65,10.65,0,0,1,3,.21c.23.08.64,0,.54.42s-.35.18-.58.18c-1.51,0-3-.1-4.53-.29s-2.77-.27-4.13-.53A4,4,0,0,1,28.09,102a26.16,26.16,0,0,0-3.55-3,6.24,6.24,0,0,0-2.12-1.07,6.06,6.06,0,0,1-3.32-2.77c-.53-.84-1-1.7-1.53-2.56a6.59,6.59,0,0,0-3.4-3.18A12,12,0,0,0,14.8,92a.46.46,0,0,0,.41.36,4.39,4.39,0,0,1,2.34,1.78c1.28,1.59,2.79,3,4,4.59a2.69,2.69,0,0,0,1.3.82A11.32,11.32,0,0,1,28,103a7,7,0,0,0,5.15,2.13c1.71.13,3.42.27,5.13.24a1,1,0,0,1,1.05.6c-1.88.44-3.68-.06-5.47-.11a12.45,12.45,0,0,1-5.15-1.2c-.31-.53-.85-.83-1.24-1.28a10.18,10.18,0,0,0-4.71-3.13,3.73,3.73,0,0,1-1.66-1.11c-1.15-1.32-2.31-2.64-3.49-3.94-.56-.62-1.16-1.21-1.75-1.8-.2-.2-.44-.36-.73-.15a10.89,10.89,0,0,1,.57,1.56,1.93,1.93,0,0,0,1.13,1.42A8.59,8.59,0,0,1,19,98c1.14,1.22,2.4,2.33,3.47,3.63,1.58,1.93,3.79,2.65,6.16,3a9.31,9.31,0,0,0,4,2.46,3,3,0,0,0,.57.15,26.11,26.11,0,0,0,6.43-.35,1.55,1.55,0,0,1,1.23,0c-.05.47-.42.52-.7.58a25.16,25.16,0,0,1-6.53.49,6.86,6.86,0,0,1-3.81-1.54,7.62,7.62,0,0,0-3.5-1.68,6.29,6.29,0,0,1-3.49-1.94C21.26,101.18,19.64,99.57,18,98A3,3,0,0,0,16.81,97c-.29.28,0,.5.09.73.38.72.84,1.41,1.15,2.17a1.53,1.53,0,0,0,.8.82,16.76,16.76,0,0,1,6.07,5.11,5,5,0,0,0,3,1.87,15,15,0,0,0,3.64.52,29.77,29.77,0,0,1,4.58.76,9,9,0,0,0,3.9,0,.93.93,0,0,1,.23,0c.17,0,.34,0,.4.18a.32.32,0,0,1-.2.39,4.84,4.84,0,0,1-1.72.43,31.63,31.63,0,0,1-4.36-.51c-1.12-.1-2.18-.46-3.3-.47a12.63,12.63,0,0,1-4.62-1A6.58,6.58,0,0,1,24,105.7a14.32,14.32,0,0,0-5.13-4.2l0,0,.06,0a1.87,1.87,0,0,0,.08.34c.27.5.27,1.1.48,1.57s.93.18,1.39.46a9.3,9.3,0,0,1,2.95,2.76,6.32,6.32,0,0,0,4.83,3.06,18.34,18.34,0,0,1,3.54.95,9.61,9.61,0,0,0,6.2-.06l3.06-.91a.36.36,0,0,1,.43.1c.13.22,0,.39-.19.49a3.81,3.81,0,0,1-.67.24,42.78,42.78,0,0,1-4.56,1.26,7.43,7.43,0,0,1-3.66-.22c-1.89-.61-3.8-1.08-5.72-1.54-.78-.19-1.43-.65-2.22-.78a.34.34,0,0,0,0-.1s0,0,0,0l.07.12c.37.42.74.85,1.12,1.25a5.37,5.37,0,0,0,3.22,1.63,17.89,17.89,0,0,0,3.34.2,10.14,10.14,0,0,1,2.91.55,4.21,4.21,0,0,0,2.89-.31c.58-.25,1.13-.57,1.7-.86.23-.11.49-.17.63.08s-.07.38-.25.48a6.66,6.66,0,0,1-5.53,1.17A11.85,11.85,0,0,0,31,113a7,7,0,0,1-6.17-2.84,11.93,11.93,0,0,0-3.3-2.91c-.19-.12-.39-.3-.69-.06,0,.4.48.58.58,1s.26.87-.13,1.21-.57-.28-.91-.27a1.27,1.27,0,0,0,.06.94,2.57,2.57,0,0,1,2.77-.07,6.79,6.79,0,0,1,2.36,2,12.6,12.6,0,0,0,2.74,2.47,4,4,0,0,0,3.06.6,33.17,33.17,0,0,1,6.37-.83,5.68,5.68,0,0,1,1.74.36.35.35,0,0,1,.21.49.34.34,0,0,1-.43.12,5.2,5.2,0,0,0-2-.21c-.16,0-.32,0-.48,0-.49-.06-.6.65-1.14.52a4.66,4.66,0,0,0-1.25-.3c-.76,0-1.49.27-2.23.38a7.22,7.22,0,0,1-3.3-.11,5.27,5.27,0,0,1-2-1.29c-.8-.72-1.54-1.5-2.28-2.29a5.23,5.23,0,0,0-2.6-1.67A2,2,0,0,0,23,112a12.78,12.78,0,0,1,3.55,3,4.39,4.39,0,0,0,4.64,1.71,7.72,7.72,0,0,1,4.47.35,3.23,3.23,0,0,1,.74.38c.12.09.26.22.16.4A.32.32,0,0,1,36,118a7.83,7.83,0,0,0-2.51-.7,4.76,4.76,0,0,0-1.41,0,19.11,19.11,0,0,1-2.51.15,4.51,4.51,0,0,1-3.45-1.87,16.17,16.17,0,0,0-3-2.7,1.21,1.21,0,0,0-1.68,0s-.09-.12,0,0a1.82,1.82,0,0,0,1.2,1.31,15.08,15.08,0,0,1,4,2.9,5,5,0,0,0,2,1.06,11.39,11.39,0,0,0,3.53.47c.52,0,1,0,1.56,0,.23,0,.56,0,.56.3s-.34.22-.55.25a12.83,12.83,0,0,1-4.86-.27A6.17,6.17,0,0,1,26,117.26a13.06,13.06,0,0,0-3.78-2.68c-.15-.06-.28-.16-.45-.1s-.12.12-.12.18c0,.51-.08,1.14.18,1.49s.91.39,1.38.58a8.73,8.73,0,0,1,1.48.78A11.37,11.37,0,0,0,30,119.6a6.77,6.77,0,0,0,2,0,2,2,0,0,1,.47-.08c.41,0,1.08-.24,1.13.28s-.64.45-1.06.44c-1.66,0-3.36.26-5-.47a23.16,23.16,0,0,0-2.15-1c-1.15-.39-2-1.4-3.16-1.71-.53-.13-.75-.11-.79.46a1.19,1.19,0,0,1-.12.57c-.2.32.1.52.12.79.05.52.43.11.64.19a9.66,9.66,0,0,1,2.19.76,16.71,16.71,0,0,0,3.23,1.51,8.06,8.06,0,0,0,4.81,0q.58-.15,1.17-.24a.31.31,0,0,1,.37.22c.09.26-.07.35-.29.4l-2.08.49a8.15,8.15,0,0,1-5.76-.84,3.7,3.7,0,0,0-1.77-.63c-.26,0-.42-.2-.58-.38a1.61,1.61,0,0,0-1.27-.53c-.34,0-.79-.12-.88.37s-.18,1,.38,1.26a5.78,5.78,0,0,0,1.1.45c1,.27,2.09.49,3.13.72a1.07,1.07,0,0,0,.82-.09.51.51,0,0,1,.64.08c1.22.89,2.66,1.38,3.95,2.15a2.65,2.65,0,0,0,2.53-.1c.22-.1.48-.18.59.13s-.12.39-.3.47a3.89,3.89,0,0,1-3.66-.18,12.59,12.59,0,0,0-3.55-1.64,32.32,32.32,0,0,0-3.36-.7,11.52,11.52,0,0,1-2.37-.77c-.34,1.58-.15,2,1.28,2.63a13.69,13.69,0,0,0,4.52.92,7,7,0,0,1,3.08.82,4.78,4.78,0,0,1,.59.41c.2.16.32.39.14.62s-.35,0-.51-.08a5.75,5.75,0,0,0-3.22-1,27.67,27.67,0,0,1-4.09-.74A5.86,5.86,0,0,1,20.46,124a3.73,3.73,0,0,0,2.7,2.67,4.54,4.54,0,0,1,2.87,3c0,.06,0,.16,0,.23s-.05.07-.12.16c-.46-.09-.62-.54-.82-.86a3.86,3.86,0,0,0-2.51-2,3.49,3.49,0,0,1-1.49-.89,1.5,1.5,0,0,0,.65,1.57,3.85,3.85,0,0,1,1.67,2.63c.14.62.7,1.16.36,1.9-.45-.15-.55-.49-.66-.83-.2-.6-.43-1.19-.63-1.79a2,2,0,0,0-.9-1.2,2.58,2.58,0,0,1-1.12-1.63,16.16,16.16,0,0,1-.68-5.73,24.71,24.71,0,0,0,.07-3c0-.37-.15-1.12.68-1.13v1.08c.29-.22.28-.51.35-.75s-.2-.26-.38-.3-.21-.28-.21-.42a24.87,24.87,0,0,0-.23-2.85,1.67,1.67,0,0,1,.27-1.35c.41-.53,0-1.15-.26-1.65a2.45,2.45,0,0,1-.32-1c0-.2,0-.47-.1-.58-.84-.81-.66-1.91-.81-2.89a13.13,13.13,0,0,0-.61-1.66,14.21,14.21,0,0,0-1.43-4,19.55,19.55,0,0,1-1.4-3.07,24.23,24.23,0,0,0-1.58-3,13.13,13.13,0,0,1-1.26-3,.42.42,0,0,0-.31-.32c-.66-.2-.7-.21-.61-.69A1.49,1.49,0,0,0,11.08,89c-.09-.07-.22-.16-.23-.26-.1-1.1-.95-2-.93-3.12A3,3,0,0,0,9.61,84a.9.9,0,0,1-.13-.45A10,10,0,0,0,8.85,80a.73.73,0,0,1,0-.46c.51-1.45.17-3,.54-4.47.13-.5.26-1,.4-1.48A10,10,0,0,0,10.48,71a4.42,4.42,0,0,1,.39-1.79,5.46,5.46,0,0,1,.32-.64c.06-.09.25-.16.25-.24,0-1.11.71-2,.86-3a5.25,5.25,0,0,1,1-3.1.68.68,0,0,0,.18-.43c-.11-.79.38-1.33.74-2a9.41,9.41,0,0,0,1.51-3.58A3.49,3.49,0,0,1,16.22,55a7.2,7.2,0,0,0,.93-2.17,1.54,1.54,0,0,1,.41-.72,15.1,15.1,0,0,0,2.16-3.78A6.28,6.28,0,0,0,20.43,45c-.5.21-.93.41-1.38.57-1.05.36-1.61.1-1.91-1-.21-.76-.35-1.55-.5-2.33a8.66,8.66,0,0,0-.77-2.37c-1.45-2.86-2.93-3-5.26-2.57-1.4.22-2.76.7-4.17.94a1.07,1.07,0,0,1-1.27-.53A15.3,15.3,0,0,1,3,32.84C2,29,1.25,25.1.59,21.18A54.76,54.76,0,0,1,.1,9.59a25.36,25.36,0,0,1,2-8.9c.33-.76.42-.78,1.28-.59A7.51,7.51,0,0,1,6.47,1.64a29.15,29.15,0,0,0,4.28,2.84A9.13,9.13,0,0,1,12.6,5.79c1.12,1,2.27,2,3.41,3a15.08,15.08,0,0,1,2.18,2.53A50.82,50.82,0,0,1,22.91,20a46.24,46.24,0,0,1,2.75,7.85c.68,2.73,1.82,5.33,2.39,8.1a15,15,0,0,1,.17,6.28c-.22,1-.48,1.08-1.42.72a8.6,8.6,0,0,1-1-.35,1.06,1.06,0,0,0-1,0c-.93.44-1.88.85-2.82,1.27-.18.08-.42.19-.35.4.36,1-.21,2-.15,3.06a4.06,4.06,0,0,0,2.58,4c1.5.61,3,1.3,4.51,1.85a5.36,5.36,0,0,1,3,3.09.34.34,0,0,1-.15.51c-.17.06-.31-.07-.4-.2s-.26-.49-.4-.72c-.26-.41-.43-.88-1.11-.79-.25,0-.73-.31-.7-.55.07-.62-.34-.65-.7-.81-.7-.29-1.38-.63-2.09-.87-.41-.15-.8-.5-1.33.06-.33.35-1,.06-1.28-.46-.46-1-1.43-1.55-2-2.59-.23.54-.59,1-.39,1.46a4,4,0,0,0,1.93,2.32l1.56.6c.48.2.93.45,1.42.61a5,5,0,0,1,2.73,2.39,10.25,10.25,0,0,0,1.69,2.3,4.3,4.3,0,0,0,1.28.86c.22.09.49.2.36.49s-.44.2-.7.08a5.55,5.55,0,0,1-1.31-.82,5.11,5.11,0,0,1-1.66-2.08c-.69-1.9-2.4-2.65-4.17-3.26-.28-.09-.45.08-.68.1s-.49.05-.55-.13c-.27-.79-1.15-1-1.57-1.57a.85.85,0,0,0-.16-.17c-.33-.35-.3-1.12-.73-1.13-.63,0-.17.8-.52,1.11-.15.13-.28.26-.47.44a13.08,13.08,0,0,1,2.34,2.85c.49.8,1.45,1.06,2.15,1.64a.85.85,0,0,0,.22.09c1.69.51,2.75,1.79,3.85,3,.56.63.94,1.51,2,1.55a.47.47,0,0,1,.31.33c.05,1.08.91,1.1,1.65,1.27.25,0,.54.13.5.38a.51.51,0,0,1-.67.36,4.6,4.6,0,0,1-1.7-.81,26.38,26.38,0,0,1-3.17-3.26,10,10,0,0,0-3.13-2.34,5.57,5.57,0,0,1-3-2.68,5.1,5.1,0,0,0-1.12-1.26,10.22,10.22,0,0,0-.81.75.84.84,0,0,0,.27,1.37,4.11,4.11,0,0,1,2.25,2c.3.59,1.18.48,1.23,1A2.15,2.15,0,0,0,23,61.14c.32.36.64.71,1,1,.13.14.38.38.46.34.88-.43,1.14.45,1.63.77s.65,1.13,1,1.69c1.08,2,2,4.12,4.38,5,.15.06.3.11.29.38-.41.34-.84.16-1.26-.07A7.2,7.2,0,0,1,28.07,68c-.31-.47-.61-.94-.87-1.43a11.59,11.59,0,0,0-3.1-3.44,14.83,14.83,0,0,1-3.21-3.84,4.83,4.83,0,0,0-1.62-1.71c-.66-.39-.69-.37-1.1.26s-1,1-.77,1.87a.65.65,0,0,0,.38.51,13.55,13.55,0,0,1,5.13,4.55A4.59,4.59,0,0,0,24.2,66,12.58,12.58,0,0,1,28,69.93a15.24,15.24,0,0,0,1.18,1.5,5.29,5.29,0,0,0,3.32,1.95c.36.05.86.12.78.51s-.57.22-.91.17a6.54,6.54,0,0,1-4.33-2.93c-.34-.49-.71-1-1-1.47a1.4,1.4,0,0,0-1.21-.8c-.75,0-.92-.81-1.21-1.35-.14-.26-.12-.62-.47-.76a5.7,5.7,0,0,1-2.19-2.14A4,4,0,0,0,20,63a1.22,1.22,0,0,1-.94-1c0-.31-.29-.43-.55-.57-.49-.27-1-.56-1.45-.85-.19.4-.35.79-.55,1.15-.38.71-.39.71.39,1.05a5.38,5.38,0,0,0,.55.24c2.39.76,3.6,2.63,4.5,4.78a7.47,7.47,0,0,1,.28,1c.41,1.9,1.76,2.91,3.39,3.73.48.24,1.05-.44,1.36.23a2.47,2.47,0,0,0,.76,1,18.1,18.1,0,0,1,2.92,2.47,16.63,16.63,0,0,1,1.07,1.43.32.32,0,0,1,0,.44c-.2.2-.37,0-.5-.1-.31-.36-.57-.77-.9-1.11A18.16,18.16,0,0,0,25.07,73a5.69,5.69,0,0,1-3.49-4.1,7.87,7.87,0,0,0-.5-1.46c-.13-.32-.24-.7-.71-.7-.24,0-.38-.14-.37-.37,0-1.43-1.14-1.89-2.09-2.48a11.86,11.86,0,0,0-1.8-.74c-.22,0-.27.32-.4.49-.46.62-.33.93.34,1.28a9.92,9.92,0,0,1,4.63,4.83,23.64,23.64,0,0,1,1.76,4.92,2.21,2.21,0,0,0,1.88,1.89c.43.08.84.23,1.26.35a9.34,9.34,0,0,1,4.28,2.73,15.05,15.05,0,0,1,1.86,2.19c.12.2.33.36.3.63,0,.11-.06.26-.14.3a.33.33,0,0,1-.32-.06c-.42-.48-.83-1-1.21-1.48a9.87,9.87,0,0,0-6.06-3.94,3.07,3.07,0,0,1-2.58-2.63A23.19,23.19,0,0,0,20,69.81c-.13-.31-.21-.61-.78-.66s-.94-.76-1-1.43c0-.14.14-.32,0-.44-.81-.69-1.47-1.59-2.61-1.8-.49-.09-.84,0-.87.63a8.22,8.22,0,0,1-.36,1.42c1.81.14,2.75,1.51,3.73,2.78A12.52,12.52,0,0,1,20,74.89a6.5,6.5,0,0,0,2.44,3.54,19.85,19.85,0,0,0,5.25,3,7.53,7.53,0,0,1,4.16,4.06c.27.57.57,1.13.84,1.71a.36.36,0,0,1-.18.5c-.23.12-.38-.07-.46-.24-.36-.71-.67-1.44-1.06-2.13a7,7,0,0,0-1.56-2.1c-.3-.25-.57-.6-1-.33-.25.14-.38,0-.47-.21a2.64,2.64,0,0,0-1.51-1.09,9.65,9.65,0,0,1-2.55-1.27.78.78,0,0,0-.32-.15c-1-.15-1-.15-1.53-1.18a.9.9,0,0,0-.34-.33,5.07,5.07,0,0,1-2.17-3.17,4.14,4.14,0,0,0-1.3-2.33c-.37-.29-.85-.75-.12-1.25.18-.12,0-.31,0-.41-.9-1.45-1.75-3-3.67-3.29-.23.27-.31.62-.55.9-.43.51-.42,1,.12,1.26a8.3,8.3,0,0,1,3.57,5.17,9,9,0,0,0,3.21,4.76,23.51,23.51,0,0,1,4.68,4.77,4.66,4.66,0,0,0,3,1.75,13.05,13.05,0,0,1,6,2.84,4.31,4.31,0,0,1,.69.66c.11.14.23.36,0,.54a.36.36,0,0,1-.53-.07,9.27,9.27,0,0,0-1.55-1.31A2.15,2.15,0,0,0,32,89l0,0a4.69,4.69,0,0,0-3-1.33,7.7,7.7,0,0,1-5.22-3.45,16.31,16.31,0,0,0-2.79-2.78c-.12-.1-.3-.3-.38-.26-.92.39-.93-.41-1.16-.88a1.66,1.66,0,0,0-.32-.49,9.4,9.4,0,0,1-2.33-4.23,7.79,7.79,0,0,0-2.5-4.11,4.71,4.71,0,0,0-.56-.44c-.29-.19-.48-.06-.62.23a1.54,1.54,0,0,0-.11.7c0,.27.08.61-.12.81-.55.55-.11.79.29,1.07a11,11,0,0,1,3.09,3.44c.62,1.07,1.3,2.1,1.92,3.17a6.8,6.8,0,0,0,2.57,2.59,9.37,9.37,0,0,1,3.28,3.25,20.12,20.12,0,0,0,1.57,2.1c1.27,1.51,3.05,2.11,4.81,2.73A15.88,15.88,0,0,1,34,92.85c.28.18.75.44.51.8s-.6,0-.88-.22a9.16,9.16,0,0,0-4.48-1.76c-.16,0-.37,0-.46-.1-.83-1-2.18-1.22-3.05-2.2a24.35,24.35,0,0,1-2.35-3,7.43,7.43,0,0,0-2.71-2.63,8.16,8.16,0,0,1-3.05-3.12c-.44-.76-1-1.47-1.36-2.25a12.46,12.46,0,0,0-3.44-4.09c-.05,0-.13.08-.14.13-.06.48-.85.67-.63,1.14.14.32.74.4,1.06.68a14.6,14.6,0,0,1,3.78,4.43,14.5,14.5,0,0,0,4.72,5.6,13,13,0,0,1,3.53,4,13.57,13.57,0,0,0,.8,1.18,6,6,0,0,0,3.21,2.1c1.28.39,2.6.67,3.92,1a6,6,0,0,1,2.95,2.12c.12.12.19.27.06.42s-.38.11-.51-.05c-1.33-1.72-3.31-2-5.26-2.44a7.73,7.73,0,0,1-4.08-1.81A6.53,6.53,0,0,1,25,91.39a15.94,15.94,0,0,0-4.63-5.24,19.93,19.93,0,0,1-3-2.91,15.78,15.78,0,0,0-5-6.63l-.41.65a.93.93,0,0,0,.2,1.38c.15.12.35.18.52.29a14.92,14.92,0,0,1,4,3.52C16.92,82.73,17,83.13,17.37,83.26ZM13,88.81,13,88.43s-.06.06,0,.07a2.54,2.54,0,0,0,.16.28l.07.33s.11-.06.11-.1S13.17,88.8,13,88.81Zm8.41-69.65a.44.44,0,0,0,.06.1s0,0,.07,0l-.16-.09c0-.19.08-.43-.22-.49a1.78,1.78,0,0,0-.06-.47c-1.59-3.51-3.43-6.86-6.39-9.43a26.77,26.77,0,0,0-4.11-3.47A29.11,29.11,0,0,1,6,2.23a2.83,2.83,0,0,0-1.22-.76C5.31,3.41,6.71,4.61,8,5.9c.2.2.51.36.28.67s-.5.13-.74,0a2.74,2.74,0,0,1-.36-.32A12.4,12.4,0,0,1,4.28,2.45,2.2,2.2,0,0,0,3,.92a3,3,0,0,0-.21.68,40.86,40.86,0,0,0,.11,5.75,5.51,5.51,0,0,1,0,2.25,2,2,0,0,0,.25,1.73,6.72,6.72,0,0,1,.56-2.91,1.91,1.91,0,0,1,2.73-1.1,12.3,12.3,0,0,1,2.67,2,22.75,22.75,0,0,1,4.69,7q1.77,4.37,3.51,8.73c.34.84.33.85,1.46.71-.18-.53-.34-1-.56-1.54s-.58-1-.32-1.58c.07-.16.5-.23,0-.34s-.67-.68-.71-1.13.44-.57.81-.72a2.12,2.12,0,0,1,.77,1.46c-.13,1,.93,1.72.43,2.72,0,0,.06.16.12.18a1,1,0,0,1,.56.85c0,.31.3.42.59.5a4,4,0,0,1,2.12,1.68,21.34,21.34,0,0,1,2.54,5.24c.13.4.51.93-.07,1.12s-.47-.51-.6-.83a23.61,23.61,0,0,0-2.48-5c-.42-.6-.79-1.32-1.72-1.24,0-.14,0-.2-.17-.21S20,27,19.94,27l.32.09a7.85,7.85,0,0,0,.59,2.68c.16.31,0,.54-.07.8A1.67,1.67,0,0,0,21.15,32a.68.68,0,0,1,.08.34,35.24,35.24,0,0,0,.55,4.81,1.18,1.18,0,0,1,0,.46,1.69,1.69,0,0,0,0,1.21A1.36,1.36,0,0,1,21.87,40a1.11,1.11,0,0,0,.21,1.17,6.26,6.26,0,0,1,.55-.31,10.47,10.47,0,0,1,1.44-.56c.73-.18,1.37-.41,1.51-1.28a.43.43,0,0,1,.41-.38c.14,0,.27.1.26.19a2.23,2.23,0,0,0,.57,1.52.31.31,0,0,1-.05.43.38.38,0,0,1-.44,0c-.24-.09-.31-.6-.65-.35-.69.53-1.61.49-2.31.92A48.66,48.66,0,0,1,18.42,44c-.07,0-.13.11-.2.14s-.39.13-.25.41a.49.49,0,0,0,.47.31,2.91,2.91,0,0,0,1.32-.5,38.4,38.4,0,0,1,4.11-2.17A2.88,2.88,0,0,1,26.6,42l.81.35a14.52,14.52,0,0,0-.6-7.6c-.07.72-.06,1.43-.07,2.15a.32.32,0,0,1-.28.34A.34.34,0,0,1,26,37a7.6,7.6,0,0,1,0-1.07A16.22,16.22,0,0,0,25.7,31a78.62,78.62,0,0,0-2.44-8.1c-.23-.58-.34-1.35-1.24-1.41-.12,0-.23-.3-.34-.47-1.21-1.78-2.44-3.54-3.61-5.34a16.84,16.84,0,0,0-5-4.92A22.74,22.74,0,0,1,10,8.34c-.21-.2-.39-.41-.59-.6s-.25-.36-.1-.53.43-.13.63,0l.26.25A30.79,30.79,0,0,0,14,10.42,15,15,0,0,1,17.81,14a47.45,47.45,0,0,1,2.94,4.22c.12.2.22.42.48.49A.44.44,0,0,0,21.45,19.16Zm-6,43.49a.18.18,0,0,0-.21.19s.07.07.1.1l.09-.31.16-.3-.06-.07Zm5.76-23.76H21a1.79,1.79,0,0,1-.48-1.4,3.39,3.39,0,0,0,0-1.42,13.35,13.35,0,0,1-.4-3.6,41,41,0,0,0-.87-5c-.19-.95,0-.95-1.31-.65.26.95.49,1.92.79,2.86a4.74,4.74,0,0,1-.13,4c-.13.22,0,.36,0,.54a11,11,0,0,1,.06,4.5,3.07,3.07,0,0,0,.1,1.89c.11.27.23.6-.1.73s-.47-.18-.63-.43a1.18,1.18,0,0,1-.18-.68,10.07,10.07,0,0,1,.1-1.91,8.41,8.41,0,0,0,.13-2.5c-.12-1.89-.38-2-2.24-1.68a16.19,16.19,0,0,1-4.05.22c-1.61-.14-1.55,0-1.1,1.29a1,1,0,0,1,0,.24.52.52,0,0,0,.57.49c.36,0,.72,0,1.08,0a3.55,3.55,0,0,1,2.73,1,7.31,7.31,0,0,1,1.86,2.89c.38,1,.51,2,.82,3.08l2.09-1c.18-.08.49-.15.44-.33-.24-.8.4-1.55.1-2.34-.2-.54-.14-1,.6-.92,0,.11,0,.22,0,.33s0,.21.12.21.06-.12.07-.19,0-.22,0-.33l0,0Zm-8,52.79-.1-.36s-.06.06,0,.07.11.18.17.27l.08.61C13.52,92,13.59,91.81,13.28,91.68Zm7.48-44.15a.59.59,0,0,0-.18.13c-.06.11-.08.29,0,.31s.09-.15.11-.23,0-.16,0-.24.26-.26.1-.48ZM12.34,72.45a.84.84,0,0,0,.15-.18c0-.07,0-.22,0-.22-.21-.07-.1.13-.13.2s0,.15,0,.23-.24-.08-.16.13Zm19.94,24c0,.15.06.2.18.21s.08-.07.12-.1l-.33-.08c-.19-.27-.41-.31-.76,0Zm-19.94-10a.24.24,0,0,0-.06-.08s0,0-.06,0l.15.07c0,.4-.09.82.38,1.09A1.1,1.1,0,0,0,12.34,86.37Zm5-31.95c.11,0,.23,0,.34,0,.33,0,.37-.2.44-.43s-.12-.24-.26-.25-.47,0-.48.34c0,.11,0,.23,0,.34s-.13.1-.05.09S17.35,54.46,17.36,54.42Zm-6.45,18c.91-.21,1-.94,1.18-1.81-.45.18-.89,0-.95.64-.05.38-.3.74-.26,1.15-.13,0-.23.06-.07.17S10.93,72.55,10.91,72.46Zm13.46,36a.34.34,0,0,0,0,.1s0,0,0,.06l-.07-.14c-.63-.8-1.25-1.62-1.91-2.4a5.39,5.39,0,0,0-2.37-1.7l-.14-.13s-.05,0-.08.07l.15.12a3.17,3.17,0,0,0,1.44,2c.76.66,1.69,1.13,2.42,1.84C24,108.35,24.15,108.49,24.37,108.41ZM11.46,33.75a18.8,18.8,0,0,0-1.17-3.83c-1.36-3.77-2.89-7.48-3.6-11.46a9.51,9.51,0,0,1,.11-4.94c.12-.34.26-.74.67-.73s.28.4.33.67.24.31.37.45a6.14,6.14,0,0,1,1,1.49,42.13,42.13,0,0,1,2.71,6.47,31.11,31.11,0,0,0,4.83,9.92,1.39,1.39,0,0,1,.15.19.41.41,0,0,1-.06.54.38.38,0,0,1-.54-.06,9.78,9.78,0,0,1-1.5-2,41.31,41.31,0,0,1-3.86-9,34.21,34.21,0,0,0-2.52-5.91c-.23-.42-.4-.93-1-1.18,0,.75-.13,1.4-.09,2.09a27.57,27.57,0,0,0,1.15,5.7c1,3.75,2.77,7.26,3.75,11,.09.34.3.47.71.42,1.35-.15,2.7-.28,4-.34,1.18,0,1,0,1.31-1.1a2,2,0,0,0,0-1.06,50.71,50.71,0,0,0-1.94-6.62c-.94-2.41-1.93-4.79-2.89-7.19a19,19,0,0,0-6.9-9c-.92-.62-1.57-.52-2,.47A5.35,5.35,0,0,0,4,10.86c.06,2.67-.49,5.39.56,8l.05.11a.43.43,0,0,1-.21.6c-.27.16-.36-.21-.58-.21a50.37,50.37,0,0,0,1.07,6.21c.45,2,.76,4.05,1.43,6.12.15-.21.22-.26.24-.33.1-.31-.38-.83.32-.91s.63.28.49.73c0,0,0,.08,0,.1a.62.62,0,0,1,.14.94c-.25.39-.54-.19-.84-.06l-.23.08c.47,1.18,1.44,1.58,2.75,1.81-.54-1.28-1-2.46-1.52-3.58C6.63,28.4,6.2,26.11,5.4,24a1,1,0,0,1,0-.35c0-.2,0-.42.27-.45a.37.37,0,0,1,.38.24,9.3,9.3,0,0,1,.73,2,44.44,44.44,0,0,0,2.6,6.9c.33.83.63,1.61,1.75,1.43A3.05,3.05,0,0,1,11.46,33.75ZM1.94,3.82A.82.82,0,0,0,1.83,4,19.73,19.73,0,0,0,.88,9.84a51,51,0,0,0,.48,11c.57,3.64,1.33,7.25,2.16,10.83a20.39,20.39,0,0,0,1.9,5A1.29,1.29,0,0,0,7,37.39c.73-.16,1.47-.32,2.2-.51.36-.09.8-.15.74-.73-.08-.76-.39-1.29-.88-1.35a4.08,4.08,0,0,1-3.72-3.46c-.52-2.07-.93-4.17-1.41-6.26A28.6,28.6,0,0,1,3,18a27.19,27.19,0,0,1,.16-3.82c.1-.63.21-1.5-.31-1.93-.9-.75-.72-1.68-.69-2.59a4.7,4.7,0,0,0,.09-1.06A42.46,42.46,0,0,1,1.94,3.82ZM11.62,82c.6,0,.91.43,1.29.76.54.48,1.07,1,1.65,1.39a21.3,21.3,0,0,1,3.73,3.68c.72.89,1.18,2,2.23,2.61a.52.52,0,0,1,.23.38,4.8,4.8,0,0,0,3.93,3.36,10.54,10.54,0,0,1-2.54-3.59A3.09,3.09,0,0,0,20.71,89a6,6,0,0,1-2.85-3.09A23.05,23.05,0,0,0,16,82.59c-.38-.55-1.05-.74-1.39-1.26a7.7,7.7,0,0,0-2.27-1.87c-.12-.09-.31-.27-.52-.09a.41.41,0,0,0-.1.53A2.65,2.65,0,0,1,11.62,82ZM11,75.43c-.18.51-1,.13-1.08.88,0,.45-.47.9,0,1.42A2.22,2.22,0,0,0,11,75.43Zm3.85-13.66a3,3,0,0,0-1.68,1.94C14.37,63.3,14.45,63.21,14.87,61.77ZM14,61.36c1.35-.27,1.35-.28,1.5-1.16,0-.15.13-.31-.07-.39a.41.41,0,0,0-.52.15C14.62,60.38,14.35,60.81,14,61.36ZM10.28,75c.88-.27,1-.95,1-1.77C10.28,73.71,10.2,73.85,10.28,75Zm1.92-6.77a2.26,2.26,0,0,0,1-1.07c.16-.28,0-.45-.2-.59s-.45,0-.54.23A1.64,1.64,0,0,0,12.2,68.22ZM14,64.41c-.38-.13-.72-.2-.84.06a1.62,1.62,0,0,0-.28,1c.08.33.36.27.55.13A2.06,2.06,0,0,0,14,64.41ZM10.22,84.05a1.34,1.34,0,0,0,.39-2C9.91,82.58,10.27,83.26,10.22,84.05Zm.5,1.73c.95-.63.95-.63.62-1.46C10.47,84.84,10.47,84.84,10.72,85.78ZM17.65,55.3c-1.07,0-1.27.27-1,1.49ZM11.5,86.23c-.57.35-.28.88-.33,1.32,0,.21,0,.54.35.42.2-.06.44-.19.34-.52S11.62,86.65,11.5,86.23Zm-.41-16c.56-.23.95-.36,1.16-.71a.45.45,0,0,0-.1-.63.35.35,0,0,0-.55.22C11.49,69.47,11.32,69.77,11.09,70.27Zm4.3-11.11a1.4,1.4,0,0,0,1.06-1.3c0-.16,0-.22-.15-.25s-.23-.06-.3.1ZM12.1,88.5a3.29,3.29,0,0,0,.64,2.17C12.92,89.76,12.31,89.18,12.1,88.5Zm8.28-39.64a3.8,3.8,0,0,0-1,1.63A1.72,1.72,0,0,0,20.38,48.86Zm-1.47,2.52A6,6,0,0,0,17.82,53C18.73,52.8,18.86,52.28,18.91,51.38Zm-4.63,42a4.62,4.62,0,0,0,.69,2A3,3,0,0,0,14.28,93.4Zm3.49-36.93c-.61.34-.64.86-.55,1.6C17.64,57.51,18,57.08,17.77,56.47Zm.19,45.1c0,.65,0,.65.56,1.64A1.77,1.77,0,0,0,18,101.57ZM9.45,79.74a1.76,1.76,0,0,0,.87-1.36C9.59,78.55,9.66,79.11,9.45,79.74ZM19,104.3c-.1.68-.1.68.48.9C19.33,104.86,19.37,104.49,19,104.3ZM9.87,81.58c.37-.39.63-.8.09-1.36A5.26,5.26,0,0,1,9.87,81.58Zm11,34.65a.73.73,0,0,0,.25-1A.88.88,0,0,0,20.84,116.23ZM11,81.28a1.81,1.81,0,0,0,0-1.46Zm9.48,25a1.42,1.42,0,0,0-.29-.35.31.31,0,0,0-.47,0A.75.75,0,0,0,20.45,106.27Zm-.62,2c.17-.46.45-.75.24-1.25C19.64,107.35,19.75,107.72,19.83,108.23Zm1,4.7a3.15,3.15,0,0,0,0,1.51A2.31,2.31,0,0,0,20.87,112.93ZM21,40.54c0,.31,0,.62,0,.93,0,0,0,.09.06.09s-.06,0,.08-.05A1.38,1.38,0,0,0,21,40.54ZM16.8,59.83a.92.92,0,0,0,0-.69c-.09,0-.22.08-.27.16C16.36,59.59,16.57,59.72,16.8,59.83Zm-3.44,8.7c.2-.21.38-.39.28-.75C13.39,68,13.15,68.16,13.36,68.53ZM11,78.17a1,1,0,0,0,.07.86A.7.7,0,0,0,11,78.17Zm9.18,42.25c.21.48-.06.75.32,1C20.41,121.15,20.58,120.89,20.17,120.42Zm.51-1-.05-.21a1.54,1.54,0,0,0-.08.19.12.12,0,0,0,0,.1S20.66,119.52,20.68,119.42ZM15.91,96.88l-.08-.21a.62.62,0,0,0-.1.2.6.6,0,0,0,.08.21A1.86,1.86,0,0,0,15.91,96.88ZM13,69.9l-.1-.19a.81.81,0,0,0-.07.22.47.47,0,0,0,.06.2C13.06,70.11,13,70,13,69.9Zm4.48,30.33a.56.56,0,0,0-.08.2.44.44,0,0,0,.07.21.88.88,0,0,0,.09-.2A.6.6,0,0,0,17.5,100.23ZM14.68,64.6l0-.18s-.07,0-.07.08a1.21,1.21,0,0,0,0,.18Zm7,47.18-.05-.1a.28.28,0,0,0-.07.09c0,.11,0,.15.08.11S21.63,111.82,21.64,111.78ZM16.78,99.2s-.07,0-.07.08a1.39,1.39,0,0,0,.06.19s.07,0,.07-.07A1.17,1.17,0,0,0,16.78,99.2Zm-.22-.67s-.06,0-.07,0a.21.21,0,0,0,0,.11c0,.1.09.09.11,0S16.57,98.56,16.56,98.53Zm-3.07-8.76-.06-.19s-.06,0-.06.06a.37.37,0,0,0,0,.18C13.4,89.89,13.46,89.86,13.49,89.77Zm7.67-40.34-.05-.1s-.06.05-.07.09,0,.15.09.11S21.15,49.47,21.16,49.43ZM16.3,98l0,.06h.06Zm3.78-47,.07,0v-.08Z"/><path d="M32,89c0,.65-.38.56-.77.45-.16,0-.21-.22-.18-.39s.21-.27.43-.19.37.11.55.17Z"/><path d="M13.51,12.74a1.14,1.14,0,0,1,.3.13A2.3,2.3,0,0,1,14.73,14c.61,1.94,1.83,3.56,2.69,5.37.12.25.31.48.11.77a.61.61,0,0,1-1.11-.19,14.79,14.79,0,0,1-.83-1.83c-.34-1.2-1.28-2.13-1.39-3.43,0-.49-.51-.88-.83-1.29C13.2,13.15,13.22,12.91,13.51,12.74Z"/><path d="M15.7,28.06c-.07-.25-.57-.24-.45-.45a8.28,8.28,0,0,0,.28-.95c.09-.21.37-.09.53,0s.32.29.15.48-.17.71-.54.89Z"/><path d="M7.84,11.74a.51.51,0,0,1,.39.5.21.21,0,0,1-.24.2c-.33,0-.63-.11-.66-.51C7.33,11.81,7.44,11.73,7.84,11.74Z"/><path d="M15.67,28c.05.05.09.13.16.16.33.16.53.41.24.71s-.43-.06-.58-.21c-.31-.32-.19-.54.21-.64Z"/><path d="M9.78,30.34c-.09.25-.19.38-.37.3s-.45-.22-.4-.5.21-.2.38-.18S9.72,30.2,9.78,30.34Z"/><path d="M6.54,30.22c-.17,0-.35,0-.38-.21s.19-.3.38-.32.44,0,.44.23S6.75,30.21,6.54,30.22Z"/><path d="M9.63,29.19a.21.21,0,0,1-.16.27c-.26.05-.56.17-.72-.17A.2.2,0,0,1,8.9,29C9.16,29,9.45,28.89,9.63,29.19Z"/><path d="M7.75,11c-.11.3-.37.25-.6.23s-.35-.07-.3-.27.36-.24.58-.23S7.75,10.83,7.75,11Z"/><path d="M7.68,10.22a.41.41,0,0,1-.45.32c-.21,0-.43,0-.37-.31s.29-.23.48-.22S7.65,10,7.68,10.22Z"/><path d="M9.43,28.54c-.07.25-.27.24-.46.23a.22.22,0,0,1-.22-.31.33.33,0,0,1,.38-.19C9.28,28.3,9.44,28.33,9.43,28.54Z"/><path d="M15.69,25.6a.24.24,0,0,1-.18.28.38.38,0,0,1-.45-.28c0-.12.08-.21.19-.24A.33.33,0,0,1,15.69,25.6Z"/></g></g></svg>