<svg xmlns="http://www.w3.org/2000/svg" viewBox="0 0 141.09 102.49"><title>Eucalanus</title><g id="Layer_2" data-name="Layer 2"><g id="Eucalanus"><path d="M81.55,23c.27.09.44-.11.64-.23A19.23,19.23,0,0,1,86,21a1.57,1.57,0,0,1,1.24,0c-.78.78-1.79.78-2.6,1.22s-1.62.82-2.42,1.34c.37.29.64-.12,1-.08a3.56,3.56,0,0,0,1.06-.14,7.76,7.76,0,0,1,3.32.15c.22.06.36.16.32.4s-.19.26-.43.23a13.91,13.91,0,0,0-5.2.23c1.26.21,2.41.4,3.55.57a1.2,1.2,0,0,1,.67.23.45.45,0,0,1,.16.29c0,.21-.2.25-.34.23-.63-.11-1.25-.21-1.87-.36a4.19,4.19,0,0,0-1.06-.1c-.25,0-.32.09-.3.36s-.19.33-.47.27c-1.8-.37-1.8-.36-2.26,1.35a2.59,2.59,0,0,0-.14.45c0,.23,0,.54.19.65a.58.58,0,0,0,.73-.25c.25-.36.49-.73.76-1.07.14-.18.32-.45.58-.3s0,.48,0,.8c.87-.18,1.65-.54,2.49-.65a3.25,3.25,0,0,1,2.48.09c-1.15.62-2.39.29-3.53.89,1.12,0,2.11,0,3.11,0a1.48,1.48,0,0,1,1,.26c.08.07.18.16.13.3a.27.27,0,0,1-.26.19,3,3,0,0,1-.94-.13,5.69,5.69,0,0,0-2.56.1A19.15,19.15,0,0,1,88.24,30a7.58,7.58,0,0,1,.92.53.34.34,0,0,1,.07.32.41.41,0,0,1-.3.14c-.3,0-.52-.18-.76-.3a12.37,12.37,0,0,0-3.94-1.31A25.64,25.64,0,0,1,86.69,31c.4.32.77.68,1.15,1,.14.14.27.32,0,.5a.31.31,0,0,1-.43,0l-.91-.78a13.47,13.47,0,0,0-2.38-1.58.89.89,0,0,0-.69-.13c0-.1,0-.23-.14-.14l.17.12c.37.41.75.82,1.1,1.25a.37.37,0,0,1,0,.54c-.22.19-.37,0-.5-.13a11.06,11.06,0,0,0-1.19-1.18c-.88-.74-.87-.75-1.91-.14a.58.58,0,0,0,0,.21,2.21,2.21,0,0,0,2,2.06,4.05,4.05,0,0,1,1.21.49c.45.23.42.33-.19.75-.06-.3-.3-.2-.49-.23a.43.43,0,0,0,0-.11s0,0-.07,0l.12.11a.44.44,0,0,0,.48.23c.25.52.77.78,1.15,1.17.22.22.45.44.65.68s.2.37,0,.52-.29,0-.41-.1l-.68-.67c-.29-.25-.51-.62-1-.6,0-.17-.09-.24-.24-.26s-.12-.2-.24-.24a.2.2,0,0,0,0-.08s0,0,0,0l.11.08c0,.12.1.22.24.24a.31.31,0,0,0,.24.27,9.47,9.47,0,0,0,1,1.4,3.37,3.37,0,0,1,.47.8.36.36,0,0,1-.08.31c-.13.14-.29.1-.4-.05s-.43-.55-.64-.83A3.45,3.45,0,0,0,83,35.29a.9.9,0,0,0-.46-.72l0,0,.07,0c0,.31.12.6.46.72-.11.41.59.92.11,1.13s-.57-.56-.86-.85a2,2,0,0,1-.21-.28l-.08,0,.11,0c0,.35,0,.71,0,1.06a2.27,2.27,0,0,0,1.12,2.14,6,6,0,0,1,1.26,1.06c.4.4.27.7-.27.83,0-.16-.1-.22-.24-.26l0,0,.06,0a.32.32,0,0,0,.24.27,18.52,18.52,0,0,0,1.18,2c.17.33.47.65.13,1.05-.47,0-.41-.67-.88-.62,0-.22.07-.44-.22-.52,0-.18,0-.39-.21-.48s-.09-.07,0-.06,0-.09,0,0,0,.37.23.46a.7.7,0,0,0,.21.53c.08.25.17.51.24.77a.27.27,0,0,1-.18.37.36.36,0,0,1-.41-.16c-.27-.37-.22-.9-.6-1.22-.09-.06.07-.3-.15-.22-.06,0,.09.14.18.19v.36c0,.16,0,.32-.23.36a.35.35,0,0,1-.39-.21c-.19-.34-.21-.76-.55-1.12,0,.87,0,1.65,0,2.44a2.06,2.06,0,0,1-.32,1.37c-.2.25-.13.49-.06.78A24.8,24.8,0,0,1,82.54,53a2.2,2.2,0,0,1-.28,1.15,3.23,3.23,0,0,0-.4,2.05A14.41,14.41,0,0,1,81,61.6a1.62,1.62,0,0,0-.08.69,9.82,9.82,0,0,1-1.27,4.91,3.84,3.84,0,0,0-.28.89A9.1,9.1,0,0,1,78.26,71c-.64,1-.87,1-2,.54L76,71.35l-.3.2a1.83,1.83,0,0,0-1.05,2.15A1.53,1.53,0,0,1,74.37,75a4.28,4.28,0,0,0-.7,2.71,15.67,15.67,0,0,1-.11,2.73,2.65,2.65,0,0,0,.3,1.61,26.43,26.43,0,0,0,1.76,2.93,18.84,18.84,0,0,0,3.06,3.12,14.77,14.77,0,0,1,3,4.4c.14.27.07.48-.18.58s-.34-.13-.43-.29-.18-.36-.27-.53a11.84,11.84,0,0,0-4.29-5,5.24,5.24,0,0,0,1,1.47,27.79,27.79,0,0,1,3.9,6.79,26.31,26.31,0,0,1,.75,3c.07.26.09.49-.19.58s-.39-.16-.44-.4c-.11-.55-.21-1.09-.34-1.63a16.81,16.81,0,0,0-2.14-4.89c-.71-1.15-1.51-2.24-2.28-3.36-.13-.18-.25-.41-.53-.42,0-.08.06-.21-.11-.13l.14.11c.6,1.51,1.46,2.9,2,4.43a37,37,0,0,1,1.8,7,5.35,5.35,0,0,1-.32,2.47c0,.08-.19.12-.42.26.28-5-1.34-9.41-3.7-13.6.79,2.93,1.12,6,2.32,8.8.09.23.23.47-.1.59s-.35-.13-.44-.29a12.47,12.47,0,0,1-1.18-3.6c-.44-1.93-1-3.83-1.31-5.78,0-.06-.12-.1-.27-.22a20.23,20.23,0,0,0,.13,4.13c.08,1.33.75,2.56.75,3.94-.62,0-.64-.47-.74-.78a17.37,17.37,0,0,1-.76-6.12c0-.8.1-1.58-.65-2.17a1.55,1.55,0,0,1-.5-.93,8.54,8.54,0,0,0-1.39-2.84,1.14,1.14,0,0,0-2,0,8.74,8.74,0,0,0-1.41,2.83,2,2,0,0,1-.56,1A2.17,2.17,0,0,0,67,89.39a17.17,17.17,0,0,1-.71,6.13,1.62,1.62,0,0,1-.58,1c-.33-.44-.16-.78,0-1.17a20.69,20.69,0,0,0,.8-6.36c0-.18.07-.39-.25-.58-.23,1-.44,1.91-.67,2.85-.46,1.88-.81,3.79-1.43,5.63a5,5,0,0,1-.55,1.19c-.1.15-.24.34-.47.15s-.13-.25-.06-.41a15.77,15.77,0,0,0,.87-2.59c.51-2.11,1-4.21,1.48-6.34-2.32,4.2-4,8.59-3.66,13.51a.49.49,0,0,1-.53-.38,7.53,7.53,0,0,1,.1-4.13,28.77,28.77,0,0,1,3.43-9.22,1,1,0,0,0,.08-.35s.23,0,.06-.15l0,.18c-.61.16-.78.76-1.09,1.19a21.75,21.75,0,0,0-3.81,7.35c-.14.58-.27,1.15-.39,1.73-.05.24-.09.52-.42.43s-.27-.32-.22-.58a17.23,17.23,0,0,1,1.7-5.18,36.8,36.8,0,0,1,3.77-5.65c.07-.09.18-.17.12-.3a7.67,7.67,0,0,0-3.14,3c-.47.69-.86,1.43-1.28,2.15-.14.25-.18.69-.6.47s-.12-.47,0-.72a17.76,17.76,0,0,1,1.8-3A11.5,11.5,0,0,1,64,86.78a1.66,1.66,0,0,0,.54-.47c.75-1.39,2-2.46,2.57-4a4.32,4.32,0,0,0,.37-2.51,11.84,11.84,0,0,1,0-2.15A4.22,4.22,0,0,0,66.73,75a1.57,1.57,0,0,1-.29-1.25,1.89,1.89,0,0,0-1.11-2.23,1.58,1.58,0,0,1-.23-.14c-.16.07-.33.17-.52.24-.87.37-1.19.29-1.69-.5A5.66,5.66,0,0,1,62,69.26c-.31-1.69-1.36-3.12-1.65-4.82,0-.11-.13-.22-.13-.33,0-2.94-1.38-5.73-1.06-8.71a.9.9,0,0,0-.08-.7,4.6,4.6,0,0,1-.62-2.87,20.9,20.9,0,0,1,.39-5.47c0-.15.14-.32,0-.46-.73-1-.34-2.16-.44-3.25,0-.24,0-.47,0-.73a1.35,1.35,0,0,0-.41.73c-.07.29-.2.59-.52.53s-.21-.45-.23-.71c.08-.07.3-.09.1-.27l-.07.3c-.39.32-.35.85-.62,1.23a.34.34,0,0,1-.4.15.28.28,0,0,1-.18-.37c.07-.27.15-.52.23-.78a.6.6,0,0,0,.21-.52l.26-.45c0-.08,0-.09.07,0l-.07,0c-.24.08-.15.31-.23.47-.28.08-.25.3-.21.52-.47,0-.41.66-.88.62-.33-.4,0-.73.14-1.06a14.36,14.36,0,0,0,1.16-2,.31.31,0,0,0,.25-.26l.06,0,0,.06a.27.27,0,0,0-.25.26c-.55-.14-.65-.45-.26-.83a6.67,6.67,0,0,1,1.45-1.21A1.59,1.59,0,0,0,58.9,37,6.11,6.11,0,0,0,59,35.25s.14-.1,0,0c-.2.32-.4.64-.61,1-.11.16-.26.32-.47.2s-.13-.26-.11-.42.32-.45.23-.75c.33-.13.39-.43.47-.71l.07,0-.05.06a.88.88,0,0,0-.47.71c-.74.36-1,1.14-1.57,1.69-.16.17-.25.61-.6.33s0-.52.11-.73c.43-.6.88-1.19,1.32-1.78a.33.33,0,0,0,.25-.26c.14,0,.19-.13.23-.25l.08,0s0,0,0,0l-.08.11a.29.29,0,0,0-.23.25c-.16,0-.26.08-.25.25-.75.09-1,.79-1.56,1.19-.15.12-.31.32-.5.18s-.1-.45.06-.62.57-.53.85-.81.7-.52.88-.94a.43.43,0,0,0,.48-.22l.1-.06s0,0,0-.06l-.09.14c-.19,0-.43-.07-.5.22-.6-.41-.63-.5-.18-.75a5.91,5.91,0,0,1,1.89-.7,1.17,1.17,0,0,0,1.07-1.05c.06-.31.18-.6.27-.91-1-.74-1-.73-2,.06a13.73,13.73,0,0,0-1.27,1.26c-.12.12-.26.18-.41,0a.34.34,0,0,1-.08-.44c.37-.46.77-.9,1.16-1.35,0-.05.27,0,.08-.16l0,.18c-1.23.12-2,1-3,1.64-.35.25-.67.56-1,.85a.31.31,0,0,1-.43,0c-.23-.18-.09-.35,0-.5a9,9,0,0,1,1.93-1.6c.56-.37,1.15-.69,1.9-1.14A12.91,12.91,0,0,0,53,30.61c-.28.13-.52.38-.86.36a.38.38,0,0,1-.3-.14.34.34,0,0,1,.07-.32,4.2,4.2,0,0,1,.81-.5,12.37,12.37,0,0,1,4.11-1.31,3.65,3.65,0,0,0-2.63-.27,2.71,2.71,0,0,1-.94.13.26.26,0,0,1-.25-.19c-.05-.15,0-.23.14-.3a1.41,1.41,0,0,1,1-.26c1,0,2,0,3.11,0-1.16-.6-2.39-.27-3.46-.85,1-.56,2-.44,4.79.52.18-.16,0-.27,0-.41a.46.46,0,0,1,0-.33c.11-.18.29-.11.41,0a6.62,6.62,0,0,1,.54.63,3.48,3.48,0,0,1,.4.6.57.57,0,0,0,.68.34c.4-.13.31-.51.27-.82a4,4,0,0,0-.17-.44c-.42-1.57-.49-1.63-2.08-1.25-.37.09-.65.23-.59-.33,0-.34-.25-.25-.4-.25a15.32,15.32,0,0,0-2.35.36c-.16,0-.31.09-.47.1s-.34,0-.35-.22a.45.45,0,0,1,.16-.29,1.15,1.15,0,0,1,.66-.24c1.13-.17,2.27-.36,3.42-.6-.56,0-1.05-.28-1.6-.31S56,24,55.47,24a6,6,0,0,0-1.79.11c-.23.08-.39.05-.43-.21s.09-.35.32-.41a7.38,7.38,0,0,1,3.2-.17,13.84,13.84,0,0,1,2.11.34,11,11,0,0,0-2.39-1.44,17.39,17.39,0,0,1-2.56-1.09A.86.86,0,0,1,55,21a19,19,0,0,1,3.88,1.81c.2.12.36.32.64.23a.34.34,0,0,0,0,.1s0,0,.06,0L59.5,23a9.92,9.92,0,0,0-2.09-1.95,6.54,6.54,0,0,1-.61-.57c-.14-.15-.28-.32-.06-.51s.29,0,.42.05a12.63,12.63,0,0,1,3.32,3.24,10.38,10.38,0,0,0,1.42,1.48,3.3,3.3,0,0,0,.35-3,1.9,1.9,0,0,1,.27-2.13c.31-.37.36-.65-.08-1.08a2.44,2.44,0,0,0-1.63-.77c-1-.1-1.89-.18-2.84-.22a1.76,1.76,0,0,0-1.84,1c-.11.22-.19.53-.56.61-.42-.47,0-.86.15-1.31a5.48,5.48,0,0,0-1.51-.08,13.67,13.67,0,0,1-2.85-.19,5.58,5.58,0,0,0-1.9.1,1,1,0,0,0-.75.53c-.14.2-.26.41-.4.6a.34.34,0,0,1-.42.15.37.37,0,0,1-.09-.53c.16-.27.36-.52.54-.78-.21-.19-.43-.34-.7-.07a.61.61,0,0,1-.55.19c-1.14-.2-1.77.51-2.36,1.31,0,.06-.06.16-.11.21s-.32.58-.64.29,0-.52.14-.74a3.71,3.71,0,0,0,.72-1.08l.06,0,0,.06a37.86,37.86,0,0,1-4.52.33,6.43,6.43,0,0,0-1.81.46c-.39.14-.38.58-.32.94a2.48,2.48,0,0,1,.17,1c0,.11-.08.25-.16.28s-.28,0-.38-.19a2.79,2.79,0,0,1-.2-1.51c0-.88-.14-.95-1-.68a7.68,7.68,0,0,1-1.49.35c-1.12.12-2.19.36-2.32,1.79a.31.31,0,0,1-.34.27.31.31,0,0,1-.33-.27c0-.23,0-.47-.06-.7q.14,0,.15-.06h-.07l-.06.08a14.47,14.47,0,0,1-2,.31,1.35,1.35,0,0,0-1.34,1.5c0,.88,0,1.76,0,2.64,0,.16,0,.33-.23.35s-.25-.14-.29-.3a6.39,6.39,0,0,1-.06-3.36.51.51,0,0,0-.6-.13,7.41,7.41,0,0,1-2.8.89c-.55.12-.59.37-.6.8a3.5,3.5,0,0,0,.24,1.28c.07.19.09.44-.12.53s-.43-.16-.49-.37a6.08,6.08,0,0,1-.35-1.38c0-.48-.19-.65-.66-.53-.65.18-1.3.32-1.94.53-1.49.47-1.64.69-1.71,2.28,0,.24.08.48-.18.71-.72-.48-.11-1.28-.47-1.89A4.86,4.86,0,0,0,16.35,25a.77.77,0,0,0-.27.63,11,11,0,0,0,.39,3.78c.59,1.59.82,3.32,1.94,4.69a.25.25,0,0,1,0,.33c-.13.17-.3.1-.41,0A3.53,3.53,0,0,1,17,33a21.1,21.1,0,0,1-1.63-6.68,1.65,1.65,0,0,0-.09-.33c-.9.52-.9.54-.78,1.36a16.21,16.21,0,0,0,1,4.51.3.3,0,0,1-.08.42c-.23.17-.37-.05-.45-.2a6.71,6.71,0,0,1-.5-1.21,15.64,15.64,0,0,1-.55-3.78,9.69,9.69,0,0,0-1.27,2.19c-.12.26-.24.51-.35.76a.33.33,0,0,1-.5.16c-.16-.08-.16-.25-.08-.41.3-.65.59-1.3.91-1.94a1.6,1.6,0,0,0,.25-.7c-2.3.82-4.69.84-7,1.15-.41.05-1.09.2-1.12-.33s.66-.36,1-.37a27,27,0,0,0,6.89-1.05c-2.13-.29-4.16-.52-6.16-.86A16.36,16.36,0,0,1,.65,23.49a3,3,0,0,1-.57-.44A.41.41,0,0,1,0,22.73a.27.27,0,0,1,.4-.13c.25.13.49.27.73.41a19.77,19.77,0,0,0,8,2.44,17,17,0,0,1,2.83.37,2.12,2.12,0,0,0,1.27,0,91.13,91.13,0,0,1-8.73-4A9.4,9.4,0,0,1,1.3,19.39c-.25-.29-.55-.6-.25-1,.33-.05.43.21.58.38a10.32,10.32,0,0,0,3.5,2.63c2.48,1.17,4.88,2.5,7.45,3.48a7.78,7.78,0,0,1,1.12.39c.54.32.81,0,1.08-.36-.07-.26-.32-.31-.5-.45a.36.36,0,0,1-.07-.53c.13-.18.3-.09.41,0,.65.59,1.19.36,1.72-.29-.28-.31-.6-.65-.89-1a.35.35,0,0,1,0-.53c.14-.12.29,0,.41.11.4.32.69,1,1.17.94a3.46,3.46,0,0,0,1.62-.94c-.53-.65-1.08-1.28-1.59-1.94-.16-.19-.45-.47-.17-.72s.49.1.65.28a13.74,13.74,0,0,0,1.41,1.63c.47.42.48.42,1.26.09A32.82,32.82,0,0,1,13.62,12l-.1-.21c-.12-.26-.26-.6.07-.73s.45.22.57.48a38.15,38.15,0,0,0,4,6.76,22.36,22.36,0,0,0,2.61,2.8.5.5,0,0,0,.63.11c.48-.18,1-.3,1.51-.45-.25-.29-.49-.55-.71-.83s-.28-.44-.08-.64.42,0,.57.18.23.32.36.48c.56.66.56.65,1.51.35,0,0,0-.07,0-.1-.14-.29-.68-.54-.32-.9s.64.17.83.39a.83.83,0,0,0,1.15.19l.77-.31c-.23-.56-.93-.88-.84-1.74.65.24.93.79,1.35,1.16a3,3,0,0,0,2,0c.16-.14.1-.26,0-.4l-.59-.9c-.13-.19-.17-.37.07-.49a.38.38,0,0,1,.5.19s0,.08.05.11c.28.33.37.9.8,1a3.86,3.86,0,0,0,1.27-.18c.09-.51-.36-.77-.54-1.15-.1-.22-.09-.37.11-.5a.27.27,0,0,1,.4.12c.6,1.45,1.66.87,2.62.59a10.73,10.73,0,0,0,1.23-.54,25.09,25.09,0,0,1-3-4.41,2.17,2.17,0,0,1-.26-.53.39.39,0,0,1,.11-.31.26.26,0,0,1,.41.07c.32.5.59,1,.92,1.52a14.84,14.84,0,0,0,2.16,3c.8.74,1,.77,2.07.15a19.29,19.29,0,0,1-2.35-6.07C35.28,9.53,35,8.78,34.8,8c-.06-.2,0-.43.16-.52a.34.34,0,0,1,.45.27c.29.91.59,1.81.82,2.73a19,19,0,0,0,1.61,4.58c.7,1.29,1.18,1.48,2.62,1.09l.76-.22a17,17,0,0,1-1-3.23c0-.12-.11-.22-.13-.34a.38.38,0,0,1,.27-.46.31.31,0,0,1,.42.29,9.81,9.81,0,0,0,.39,1.62,7.63,7.63,0,0,0,.34,1c.35.92.35.91,1.34.74.59-.1,1.18-.16,1.77-.24.1,0,.13.28.29.07l-.31-.05c-.19-.29-.37-.59-.57-.89a.28.28,0,0,1,0-.41c.14-.15.25-.11.4,0,.48.4.78,1.18,1.43,1.17s1.17-.14,1.77-.18A1.52,1.52,0,0,0,48,15a12.93,12.93,0,0,1-2.22-2.47,34.35,34.35,0,0,1-2.56-5.11c-.16-.31-.29-.65-.42-1s-.26-.68.1-.82.4.31.51.53c.66,1.45,1.3,2.9,1.94,4.35a11.43,11.43,0,0,0,2.87,3.78c.17.16.33.36.59.37,1.07,0,2.14.05,3.14,0,.19-.48-.09-.65-.25-.85a22,22,0,0,1-2-3c-.13-.22-.17-.49.1-.61s.36.12.46.29c.53.84,1,1.7,1.59,2.52,1,1.54,1.83,1.81,3.65,1.29.15,0,.3-.11.55-.2-1.36-1.08-1.89-2.65-2.68-4.06-.12-.22-.29-.48,0-.63s.49.13.63.36c.25.44.49.9.72,1.36a14.74,14.74,0,0,0,.88,1.55,2.29,2.29,0,0,0,2.8,1.21c-.09-.37-.46-.53-.65-.83s-.28-.44-.09-.65.41,0,.58.18a3,3,0,0,1,.24.26c1,1.17,1,1.17,2.62,1.07-.59-.92-1.18-1.81-1.73-2.72a62.4,62.4,0,0,1-4.31-8.37C54.73,2,54.33,1.25,54,.49a.34.34,0,0,1,.1-.43c.22-.14.39,0,.48.19.58,1.22,1.16,2.44,1.73,3.66a56,56,0,0,0,5.54,9.73,3,3,0,0,0,1.43,1c.45.16.72.06.88-.46a11.6,11.6,0,0,1,.36-2.12c0-.1,0-.24,0-.35.09-.3.14-.73.55-.63s.21.48.14.73a10.27,10.27,0,0,0-.42,2.33,1.3,1.3,0,0,0,.58,1.17,2.36,2.36,0,0,0,3.06.24,4.64,4.64,0,0,1,4.26,0,5.31,5.31,0,0,1,.76.35A1.12,1.12,0,0,0,75,15.71a1,1,0,0,1,.37-.29c1.07-.31,1-1.13.83-1.93-.09-.58-.27-1.15-.39-1.73,0-.25-.17-.63.21-.69s.47.32.48.58c0,.6.32,1.14.29,1.76,0,.45,0,1.06.5,1.23a1.64,1.64,0,0,0,1.57-.6,9.27,9.27,0,0,0,1.23-1.61A61.67,61.67,0,0,0,85.19,3c.38-.92.86-1.8,1.3-2.69.09-.19.25-.37.46-.28s.18.34.14.53a1.4,1.4,0,0,1-.15.33,77.36,77.36,0,0,1-6.75,12.59,3.58,3.58,0,0,0-.17.34,2.22,2.22,0,0,0,2.63-1.07c.17-.23.42-.68.72-.44s0,.64-.22.91-.32.34-.51.55a2.19,2.19,0,0,0,2.75-1,28.79,28.79,0,0,0,1.44-2.61c.2-.36.42-1.05.82-.83s-.09.74-.25,1.1A9,9,0,0,1,85,14a5.33,5.33,0,0,0,2.7.36c.37,0,.55-.31.76-.54a18.79,18.79,0,0,0,2-2.94c.18-.29.3-1,.76-.71s0,.72-.19,1A23.94,23.94,0,0,1,89,14.29c.24.4.59.31.9.32a4.31,4.31,0,0,1,.72,0c1.78.36,2.78-.71,3.77-1.93a26.17,26.17,0,0,0,2.81-5.37c.22-.47.41-1,.63-1.42.08-.16.14-.43.4-.35s.22.38.18.61a2.87,2.87,0,0,1-.22.55c-.63,1.41-1.23,2.84-1.92,4.23A11.19,11.19,0,0,1,93,15c.8.26,1.53,0,2.18.33.2.09.35-.14.49-.27s.57-.57.86-.84c.13-.13.25-.33.48-.11s0,.34,0,.52-.47.45-.51.79c-.07.09-.27-.08-.28.13l.25-.16a9.39,9.39,0,0,1,2,.33c.63.24.85-.08,1-.49.31-.81.54-1.66.8-2.49a.93.93,0,0,0,0-.24c0-.29.07-.61.44-.52s.3.38.21.68a16.69,16.69,0,0,1-1.1,3.31,6,6,0,0,0,1.85.37A1.35,1.35,0,0,0,103,15.5a19,19,0,0,0,1.82-4.89c.2-.72.38-1.45.58-2.18a3.12,3.12,0,0,1,.26-.66c.09-.18.24-.37.46-.27a.39.39,0,0,1,.14.53c-.54,1.4-.81,2.89-1.23,4.33a14.41,14.41,0,0,1-1.8,4c1,.62,1.28.6,2.07-.16a21.29,21.29,0,0,0,2.61-3.7c.22-.33.28-1.16.86-.83s-.13.77-.32,1.1a20.34,20.34,0,0,1-2.81,4.08,11.26,11.26,0,0,0,2.17.83c.63.16,1.19.13,1.5-.57a1.28,1.28,0,0,1,.29-.37.22.22,0,0,1,.31,0c.14.1.23.22.15.4-.17.4-.55.68-.61,1.13.14.3.42.14.63.21a.91.91,0,0,0,1.23-.5c.15-.27.29-1,.77-.66s-.17.71-.28,1.08a2.5,2.5,0,0,1-.39.52c1.51.86,2.48,0,3.37-1.25.34,1-.44,1.32-.68,1.93.2.09.42.21.65.3.5.21,1,.28,1.33-.26a1.54,1.54,0,0,1,.26-.25c.12-.12.28-.2.42-.1a.37.37,0,0,1,.07.53,4.1,4.1,0,0,1-.37.48c1,.37,1,.37,1.57-.35.24-.28.48-.91.84-.63s-.13.73-.37,1.06c-.1.13-.21.24-.32.37.07.05.11.1.16.13,1.24.65,2.13.27,3-.76a35.85,35.85,0,0,0,5.32-8c.19-.37.23-1.18.82-.9s-.06.77-.22,1.14a36.7,36.7,0,0,1-4.47,7.18,18.25,18.25,0,0,1-2,2,.78.78,0,0,0,1.27,0c.34-.35.66-.7,1-1.06.16-.18.28-.4.44-.57s.37-.57.66-.36,0,.57-.18.82-.31.36-.46.55c-.36.43-.71.87-1.06,1.31,0,.05,0,.13.11.16.47.29.93.75,1.43.8s.83-.66,1.27-1a2.23,2.23,0,0,1,.38-.14c.22.85-.58,1.06-.9,1.57,0,.22.24.25.35.38a.71.71,0,0,0,1.11.11c.19-.13.45-.5.68-.1s-.13.48-.38.62a1.42,1.42,0,0,0-.24.25c.28.51.6.59,1.18.39a45.44,45.44,0,0,0,4.5-1.88c1.44-.68,2.86-1.4,4.28-2.11a9.38,9.38,0,0,0,3.26-2.57c.13-.17.27-.49.55-.25s.1.44,0,.65a5.77,5.77,0,0,1-1.32,1.38,11.62,11.62,0,0,1-2.32,1.46,87.27,87.27,0,0,1-8.58,3.89,7.33,7.33,0,0,0,2.8-.18c3.37-.34,6.7-.89,9.63-2.78.23-.15.58-.53.82-.13s-.22.54-.48.7a16.5,16.5,0,0,1-5.84,2.27c-2,.35-4.07.57-6.16.85a17.76,17.76,0,0,0,3.84.81,22.51,22.51,0,0,0,3.58.24c.24,0,.53.05.51.36s-.29.36-.55.37a1.85,1.85,0,0,1-.47,0c-1.81-.32-3.66-.22-5.44-.69l-1.81-.45c.41.87.79,1.67,1.16,2.47.1.2.31.44-.06.58s-.4-.11-.52-.35a13.12,13.12,0,0,0-1.56-2.77,16.24,16.24,0,0,1-.54,3.7,6.18,6.18,0,0,1-.47,1.21c-.07.16-.19.4-.44.29s-.22-.28-.12-.5.19-.52.29-.78a24.39,24.39,0,0,0,.7-4c.12-.59-.26-.86-.83-1.11-.16.72-.17,1.43-.27,2.11a27.26,27.26,0,0,1-1.5,5.11,3,3,0,0,1-.9,1.26c-.12.11-.26.19-.42.08a.27.27,0,0,1,0-.41c1.26-1.63,1.54-3.63,2.14-5.51a12.33,12.33,0,0,0,.17-3,.74.74,0,0,0-.31-.62,6,6,0,0,0-2.15-1.24c-.35.61.12,1.37-.44,2-.4-.39-.21-.81-.25-1.17-.08-.9-.36-1.62-1.4-1.77-.35-.05-.67-.24-1-.32-.54-.13-1.15-.42-1.61-.27s-.18.93-.45,1.36c0,0,0,.09,0,.12-.12.32-.14.86-.56.76s-.14-.57-.08-.87c0-.12.09-.23.11-.34.16-1,0-1.34-1-1.54a5.33,5.33,0,0,1-2.23-.72c-.15-.11-.45,0-.76,0a6.42,6.42,0,0,1,0,3.48c0,.16-.09.31-.29.3s-.24-.19-.24-.35c0-.88,0-1.76,0-2.63a1.35,1.35,0,0,0-1.34-1.51,14.71,14.71,0,0,1-2-.31l-.06-.08h-.07l.15.06c0,.15,0,.31,0,.46s-.05.51-.35.51-.33-.26-.39-.5a2.08,2.08,0,0,0-1.8-1.53,7.15,7.15,0,0,1-2.18-.47c-.51-.2-.7,0-.76.53s.11,1.11-.16,1.64c-.1.18-.19.38-.43.3s-.16-.24-.18-.4c-.05-.37.19-.68.2-1s-.08-.78-.67-.93A14,14,0,0,0,98,18c-.62,0-1.16-.24-1.75-.26l0-.05.06,0c.16.55.64.9.9,1.39a.35.35,0,0,1-.12.51c-.15.07-.31,0-.41-.17s-.31-.46-.49-.68c-.52-.62-1.06-1.24-2-1-.49.12-.8-.59-1.37-.18.16.27.34.54.5.83s.14.41-.07.52a.36.36,0,0,1-.48-.22c-.61-1.39-1.89-1.31-3-1.14a24.67,24.67,0,0,1-3.08.17c-.44,0-.87,0-1.34,0,.15.51.63.88.19,1.39-.42-.09-.46-.5-.65-.78a1.8,1.8,0,0,0-1.58-.87c-1.24,0-2.45.21-3.67.29-.68,0-.87.76-1.32,1.12-.15.11.07.38.18.52a2.11,2.11,0,0,1,.29,2.45,3.57,3.57,0,0,0,.32,2.82,4.28,4.28,0,0,0,1.51-1.45,12.93,12.93,0,0,1,3.24-3.15c.16-.11.33-.3.52-.11s0,.43-.16.58c-.57.5-1.16,1-1.72,1.48-.32.3-.6.64-.89,1a.27.27,0,0,0-.08.07s0,0,0,.06Zm1.24,17.53a.76.76,0,0,0,0,.11s0,0,.06,0l-.12-.13c-.06,0,0-.28-.17-.11Zm-24.51,0c.09,0,.27,0,.13-.16l-.1.19-.1.06a.64.64,0,0,0,0,.07Zm13,13.76h-1.5l0,0a20.61,20.61,0,0,1,0,3.24,2,2,0,0,0,.06,1.18.92.92,0,0,1,0,1.06.43.43,0,0,0,.14.62,1.34,1.34,0,0,0,1,0c.27-.11.18-.41.14-.63s-.42-.44-.18-.74a1.84,1.84,0,0,0,.19-1.49,25.15,25.15,0,0,1,.06-3.25l0,0Zm-2.44-2c.08,0,.09.06,0,.06s0,.09,0,0,0-.41.17-.53a.34.34,0,0,1,.5.17c.12.19.31.37.27.64-.09.57.24.66.71.66s.81,0,.84-.68.23-.75.92-.61c.14,0,.25,0,.29-.06.25-.56,1.16-.84.67-1.74-.13-.23.17-.65.55-.59.57.09.53-.32.63-.64l0,0a2.64,2.64,0,0,0,.56-1.09c-1,.1-1.92-.17-2.87-.11s-2.07,0-3.11,0-1.87.07-2.84.11c.21.34.27.78.6,1.07l0,0c.1.37.12.75.72.65.29-.05.65.42.44.64-.43.46,0,.7.15,1A11.26,11.26,0,0,0,68.85,52.31Zm11.76,7.45a12.84,12.84,0,0,0,.47-4.09c0-.49-.33-.46-.65-.45a19.33,19.33,0,0,1-3.3-.41,35.63,35.63,0,0,0-4.48-.57.66.66,0,0,0-.76.56,5,5,0,0,0-.11.94c-.15,1.21.34,2.42,0,3.63,0,.06,0,.15.05.23.16.64.37.79,1.23.82a35.12,35.12,0,0,1,6.38.72c.84.18.94.14,1.15-.69a5.51,5.51,0,0,0,.08-.71Zm-20.14,0,0,0a5.63,5.63,0,0,0,0,.59c.2.93.34,1,1.28.77a7.59,7.59,0,0,1,1.06-.19,47.57,47.57,0,0,1,5.33-.5c1,0,1.24-.45,1-1.48a1.05,1.05,0,0,1,0-.58A6.76,6.76,0,0,0,69.28,56c0-1.71-.2-1.93-1.92-1.71a62.41,62.41,0,0,1-7,.95c-.23,0-.38.09-.39.33A12.2,12.2,0,0,0,60.47,59.76ZM75.33,46.08c.72-.9.39-2,.49-3-.35.22-.16.92-.75.74-.31-.1-.28-.7,0-1.17.11-.17.26-.31.37-.47s.46-.15.54-.41a.49.49,0,0,0,0-.24c0-.18-.11-.1-.22-.08-.7.09-.7.08-.48-.5,0-.1.16-.26.14-.28-.74-.72.29-.71.42-1,0-.38-.39-.27-.56-.43S75,39,75.2,38.85c.45-.34.28-.54,0-.9a.69.69,0,0,1,.15-1c.15-.1.66-.52-.15-.51-.29,0-.39-.36-.33-.66s.25-.26.46-.22l.05,0H75.3c0-.4,0-.8,0-1.19s-.07-.92-.65-.35a.21.21,0,0,1-.31-.06c-.23-.32.11-.72-.17-1.08-.11-.13.18-.3.39-.31.42,0,.28-.32.25-.51-.06-.43-.25-.08-.38,0s-.21.15-.32,0-.4-.34-.43-.54.19-.49.51-.53c.14,0,.35,0,.35-.22a.39.39,0,0,0-.33-.43s-.08,0-.12,0c-.55-.25-.55-.26-.09-.59.1-.07.25-.09.3-.17a.66.66,0,0,0,0-.58c-.13-.23-.26,0-.39,0-.58.22-.62-.38-.85-.62s0-.64.28-.77.26.34.53.51a2.34,2.34,0,0,0-.69-1.72c-.06,0,0-.25-.15-.1l.18.07c-.08.26.12.75-.36.67s-.49-.43-.43-.83.47-.26.51-.56c.54-.09.77.27,1,.64.53.74.38,1.73.93,2.46.18,2,.77,4,1.12,5.95a5.71,5.71,0,0,1,.19,2,3.63,3.63,0,0,0,.17,1.86,9.12,9.12,0,0,1,.28,3.19,15.22,15.22,0,0,1-.7,4.94c.49-.06.88-.1,1.26-.16a17.15,17.15,0,0,0,3.45-.89A1.53,1.53,0,0,0,81.83,44a59,59,0,0,0-.57-7.63,26.67,26.67,0,0,0-1-5.14c-.78-2.33-1.53-4.68-2.31-7a3.5,3.5,0,0,1,0-2.68,1.52,1.52,0,0,0-.45-1.91A11.42,11.42,0,0,0,74,17.05c-3.51-1.6-3.31-1.6-6.82,0a11.27,11.27,0,0,0-3.66,2.65,1.4,1.4,0,0,0-.39,1.71,3.93,3.93,0,0,1,0,3c-1,2.77-2,5.54-2.65,8.4a41.31,41.31,0,0,0-.7,4.59,53.1,53.1,0,0,0-.44,6.91,1.05,1.05,0,0,0,.7,1.1,16,16,0,0,0,5.15,1.23,15.2,15.2,0,0,1-.65-4.44,11,11,0,0,1,.44-4.34,1.47,1.47,0,0,0,0-1,1.49,1.49,0,0,1-.07-.81c.58-3,1-6,1.87-8.85.21-.72.39-1.6,1.45-1.62,0,.3.47.22.51.55s-.07.79-.43.84-.29-.41-.35-.67l.1,0,0-.06-.11.12a2.43,2.43,0,0,0-.7,1.79c.25-.26.14-.63.48-.59a.53.53,0,0,1,.43.5c0,.37-.62,1-1,.86-.55-.23-.41.15-.41.38s.16.3.37.38c.51.2.37.46,0,.57-.25.06-.49.08-.53.35s.29.25.47.34.55.3.33.62-.28.62-.71.39c-.12-.07-.34-.39-.38,0,0,.19-.15.5.27.5.21,0,.49.18.38.32-.29.35.07.76-.17,1.08a.22.22,0,0,1-.31,0c-.58-.57-.62-.07-.66.34a11.78,11.78,0,0,0,0,1.19H65.7l.06,0c.56.23.67.58.21.82s-.76.24-.14.63c.24.15.16.42.16.65,0,.45-.81.84-.07,1.34.07,0-.12.27-.26.34s-.49.08-.47.47c.31.08.8.15.62.6-.12.28-.18.45,0,.68s.21.28.08.43-.32.17-.52.05-.23-.3-.32,0c0,.1,0,.3.06.33a1.92,1.92,0,0,1,.86.78c.32.48.34,1.08,0,1.18-.6.18-.4-.52-.75-.74.1,1-.23,2.1.49,3l0,0a.74.74,0,0,0,.75.75,14,14,0,0,0,2.24.19,27.94,27.94,0,0,1,3.66,0,14,14,0,0,0,2.24-.19.73.73,0,0,0,.75-.75ZM72,62.82c-.11.35.32.78,0,1.11a2.68,2.68,0,0,0-.54,1.8.24.24,0,0,1-.21.24c-.2,0-.26-.13-.29-.3a2.16,2.16,0,0,1,0-.36c0-.34-.12-.51-.49-.49s-.43.14-.43.43a3.85,3.85,0,0,1,0,.48.28.28,0,0,1-.22.24.19.19,0,0,1-.25-.18,2.48,2.48,0,0,0-.6-1.9c-.11-.13,0-.3,0-.46,0-.51,0-1,.08-1.55s-.17-.67-.68-.68a41.19,41.19,0,0,0-4.28.37,9.41,9.41,0,0,0-2.46.38c-.38.13-.76.23-.72.78a9.39,9.39,0,0,0,1.26,4.16c.29.49.62.47,1.09.27a12.38,12.38,0,0,1,5-1c1,0,1.92,0,2.87,0a15.34,15.34,0,0,1,6.78,1,.61.61,0,0,0,.89-.26A8.58,8.58,0,0,0,80.11,63c.08-.86,0-.87-.87-1.1a32.88,32.88,0,0,0-5.67-.68C71.64,61.12,72.05,61,72,62.82Zm.42-9.76a1.36,1.36,0,0,0,.91.39,39.18,39.18,0,0,1,4.82.72,11.78,11.78,0,0,0,2.13.24c.77,0,1.16-.27,1.27-.81a16.54,16.54,0,0,0,.16-5.11,5.89,5.89,0,0,0-.29-1.75c-.1-.22-.17-.44-.51-.3a21.32,21.32,0,0,1-4.61,1.08.82.82,0,0,0-.69.53A19.18,19.18,0,0,1,72.42,53.06ZM59.86,46.3a3.31,3.31,0,0,0-.27.64,17.9,17.9,0,0,0-.1,6.28c.19.92.4,1.15,1.29,1.19a5,5,0,0,0,.94-.08c2-.24,3.89-.77,5.88-.87a1.25,1.25,0,0,0,1-.4c-.33-.42-.68-.84-1-1.28a19.61,19.61,0,0,1-2-3.49,1.19,1.19,0,0,0-1-.81A17.07,17.07,0,0,1,59.86,46.3Zm3-31.07a7.67,7.67,0,0,0-5-.71,5.41,5.41,0,0,0-2.21.39c-.32.2-.85.25-.86.73a1.61,1.61,0,0,0,.67,1.21,1.42,1.42,0,0,0,1.27.12,8.33,8.33,0,0,1,4.12.18c.87.24.88.19,1.32-.68C62.33,16.08,62.57,15.72,62.86,15.23Zm15.36,0c.28.47.52.84.72,1.22.46.89.46.9,1.42.66A8.13,8.13,0,0,1,84.25,17a3,3,0,0,0,1,.05,1.66,1.66,0,0,0,1.15-1.22c.05-.54-.44-.6-.75-.81a5.16,5.16,0,0,0-2.32-.44A7.74,7.74,0,0,0,78.22,15.23ZM70.5,72.65a22.32,22.32,0,0,1-2.71-.05c-.37-.08-.51.13-.56.44a2,2,0,0,0,2.34,2.46,10.08,10.08,0,0,1,2,0,1.93,1.93,0,0,0,2.3-2.38c0-.37-.14-.62-.59-.53A21.13,21.13,0,0,1,70.5,72.65ZM70.13,69a1.79,1.79,0,0,1-.33-1.36c0-.5-.15-.7-.68-.7a14.15,14.15,0,0,0-6.42,1.35c-.12.34.14.56.16.83.07.63.38.77,1,.61.24-.07.69-.4.81.07s-.38.45-.7.51l-.12,0c-.18.06-.27.17-.15.35s.17.29.36.21a1.2,1.2,0,0,0,.42-.22,5.86,5.86,0,0,1,4-1.37A5.92,5.92,0,0,0,70.13,69Zm8.24-.72A13.75,13.75,0,0,0,72.07,67c-.74,0-.81,0-.76.8,0,.46-.46,1,0,1.31a3.39,3.39,0,0,0,1.39.23h.24a5.75,5.75,0,0,1,3.62,1.28,1.34,1.34,0,0,0,.5.3c.19.08.28-.09.36-.21s0-.3-.16-.35-.46-.08-.68-.16a.34.34,0,0,1-.18-.27.34.34,0,0,1,.31-.31c.11,0,.23.11.33.09a1.29,1.29,0,0,1,.86.2c.13-.33.26-.66.4-1A.74.74,0,0,0,78.37,68.3Zm-3.24,2.47a6.8,6.8,0,0,0-3.68-.67c-.31,0-.33.24-.45.45-.3.49-.7.53-.87,0s-.52-.5-.91-.51a4.29,4.29,0,0,0-1,0c-.77.18-1.67,0-2.26.77a2,2,0,0,0,1.8.86h5.51A2,2,0,0,0,75.13,70.77ZM68.25,81.25c-.27.59-.54,1.2-.84,1.79a.59.59,0,0,0,.07.75c.56.6,1,.55,1.34-.2.18-.39.26-.9.73-1a4.27,4.27,0,0,1,2,0c.47.13.55.64.72,1s.34.76.87.5.72-.62.49-1.12-.56-1.21-.82-1.77A11.52,11.52,0,0,1,68.25,81.25Zm4.67-3.56c-1.63,1.15-3.17.87-4.76.15,0,.59,0,1,0,1.46a1.28,1.28,0,0,0,1.25,1.31c.72,0,1.43,0,2.15,0a1.29,1.29,0,0,0,1.34-1.34C72.94,78.84,72.92,78.4,72.92,77.69Zm5.7-60.34a3.68,3.68,0,0,0-1.2-1.87c-.56-.34-1,.16-1.53.41a3.4,3.4,0,0,0-.59.4c-.25.2-.22.41.07.55a13.18,13.18,0,0,1,1.85,1.31c.21.15.41.43.73.17A1.54,1.54,0,0,0,78.62,17.35ZM66,16.65c-1.72-1.73-2.77-1.56-3.47.42-.22.62.18.87.51,1.2s.59,0,.82-.15A12.78,12.78,0,0,1,66,16.65Zm8.17,67.49a4.12,4.12,0,0,1-.75.57.45.45,0,0,0-.23.59,7.18,7.18,0,0,0,.68,1.64c.49.7,1.29,1.07,1.7.8s.42-1.27-.07-1.93S74.66,84.7,74.21,84.14Zm-7.36,0c-.41.54-.76,1-1.15,1.47a2.88,2.88,0,0,0-.54,1,1,1,0,0,0,.32,1.06.81.81,0,0,0,1-.1,2.8,2.8,0,0,0,1-1.18C68,85.08,68,85.08,66.85,84.14ZM86.51,17a4.32,4.32,0,0,1,1.26.17,1.84,1.84,0,0,0,1.28-.12c.37-.18.71-.31.69-.84a1,1,0,0,0-.77-1A3.8,3.8,0,0,0,86.81,15C87.47,15.76,86.83,16.28,86.51,17ZM54.22,15a4.27,4.27,0,0,0-2.18.19,1,1,0,0,0-.7,1c0,.51.25.69.64.87a2.18,2.18,0,0,0,1.28.16c.42-.08.84-.19,1.29-.29C54.2,16.31,53.69,15.74,54.22,15ZM67.93,76.4a3.25,3.25,0,0,0,2.78,1.27A2.47,2.47,0,0,0,73,76.39,29.5,29.5,0,0,0,67.93,76.4Zm1.94-15.11a5.89,5.89,0,0,1-.25,1.89.74.74,0,0,0,.37.92.92.92,0,0,0,1.11,0,.73.73,0,0,0,.35-.92,9.07,9.07,0,0,1-.27-1.88Zm20.27-46.1a1.72,1.72,0,0,1,.1,1.82h1a6.47,6.47,0,0,0,1.08,0c.43-.07,1-.69.94-1a1,1,0,0,0-.94-.62C91.67,15.31,91,15.27,90.14,15.19Zm-39.39,0c-.76.22-1.49.1-2.17.26-.3.07-.65.2-.73.54s.27.53.49.74A.81.81,0,0,0,49,17a6.91,6.91,0,0,0,1.94-.13C50.42,16.32,50.63,15.8,50.75,15.19Zm-3.37,1.74c-.07-.32-.13-.55-.17-.78s-.11-.29-.29-.29a2.78,2.78,0,0,0-1.5.22.56.56,0,0,0-.34.56c0,.22.18.31.38.39A1.91,1.91,0,0,0,47.38,16.93Zm46.29,0a1.88,1.88,0,0,0,2,.1.48.48,0,0,0,.12-.84,2.2,2.2,0,0,0-1.71-.28c-.44.09-.14.65-.38.91C93.69,16.81,93.69,16.86,93.67,16.9Zm-50.06.38c.25-.1.65.14.82-.19a.75.75,0,0,0-.75-1,1.26,1.26,0,0,0-.69.13c-.19.12-.49.11-.49.43s.21.41.4.55A.77.77,0,0,0,43.61,17.28Zm53-.09c.43,0,.75.07,1.06.13a.81.81,0,0,0,.74-.26c.26-.27.35-.51-.07-.74a1.67,1.67,0,0,0-1.37-.17C96.53,16.29,96.83,16.8,96.57,17.19Zm-59.18.4a4.46,4.46,0,0,0,2.32.09c-.31-.39-.27-1-.84-.81S37.83,17,37.39,17.59Zm64,.17c.83-.14,1.57.31,2.29-.25C102.22,16.61,102,16.62,101.39,17.76Zm-.46-.63a2.18,2.18,0,0,0-1.39-.54.33.33,0,0,0-.4.33c0,.21,0,.46.22.5C99.89,17.51,100.46,17.68,100.93,17.13Zm-60.82,0c.45.57,1,.39,1.47.37.29,0,.38-.22.36-.49s-.19-.41-.46-.38A3,3,0,0,0,40.11,17.09Zm-5.79,1.08a3.46,3.46,0,0,0,2.4-.57A2.77,2.77,0,0,0,34.32,18.17Zm72.45,0a2.31,2.31,0,0,0-2.25-.44A3.46,3.46,0,0,0,106.77,18.14ZM61.29,26.51c.45-1,.39-1.16-.48-1.7a3.91,3.91,0,0,0,.22.79A7,7,0,0,1,61.29,26.51Zm19-1.8c-1,.76-1,.86-.54,1.72C80,25.89,80.12,25.36,80.32,24.71Zm29.19-5.47c.46.15.88.6,1.55.24C110.46,19.38,110.11,18.73,109.51,19.24ZM30,19.55a2,2,0,0,0,1.75-.39C30.94,18.83,30.57,19.33,30,19.55ZM59.43,28.9c.13.47.54.59.93.74C60.36,28.89,60.36,28.89,59.43,28.9Zm22.37-.07a3,3,0,0,0-.64,0c-.26.06-.52.16-.53.5,0,.07,0,.19.05.21.28.13.47-.08.67-.22A3.83,3.83,0,0,0,81.8,28.83Zm27-10c-.83-.58-.83-.58-1.27-.27C107.93,18.74,108.28,19.08,108.81,18.82Zm-75.27-.39a1.13,1.13,0,0,0-1.29.41C32.84,19.05,33.18,18.74,33.54,18.43Zm78.22,1.19c.56.6,1.11.48,1.58.63A3.54,3.54,0,0,0,111.76,19.62Zm-84.09.65c1-.19,1-.19,1.47-.61-.47.13-.85.23-1.22.35C27.86,20,27.82,20.12,27.67,20.27ZM70.73,67.51c0-.06,0-.21-.12-.25s-.22,0-.25.14,0,.34.16.38S70.7,67.68,70.73,67.51Zm44.56-46.74c-.35-.07-.57-.44-1-.25C114.57,20.9,114.89,20.9,115.29,20.77ZM26.73,20.5c-.37-.12-.59.18-1,.26C26.2,20.88,26.52,20.92,26.73,20.5Zm39.4,12.65a1.42,1.42,0,0,0,.08-.18l-.09-.06-.07.18ZM75,33,75,33l-.08.06.1.13ZM24.11,21.24l-.18-.06s-.06,0-.08.05,0,.06.07.06Zm93.12,0s0-.07-.06-.07a1.42,1.42,0,0,0-.2,0s.06.07.08.07Zm-94.3.21.09,0v-.05Zm95.22,0-.09,0v.05Zm-60,8.1,0,.05h.06ZM83,29.64l0,0v.05ZM65.15,40.38l-.05.08h.08Zm10.72.06.08,0V40.4ZM57.65,41.65l.06,0v-.07Zm25.74,0,0,.06h.07Z"/><path d="M70.5,18.88c1.18,0,1.94.6,2,1.59a1.82,1.82,0,0,1-1.9,1.86,1.88,1.88,0,0,1-2-1.78A1.72,1.72,0,0,1,70.5,18.88Z"/><path d="M73,25.69c-.48,0-.84-.6-1.38-.25-.22-.38-.8-.54-.74-1.09,0-.34-.17-.28-.35-.28s-.18.12-.24.28c-.2.58-.32,1.3-1.29,1-.2-.07-.45.43-.82.36a2.42,2.42,0,0,1,4.82,0Z"/><path d="M80.61,42.47c.08-.42-.25-.74-.24-1.14a.45.45,0,0,1,.31-.46.36.36,0,0,1,.4.33c0,.72.71,1.46-.13,2.17-.19.17-.07.65-.24,1-.33.66-.29.68-.82,0l0,0c-.15-.65.22-1.21.31-1.82,0-.16.27-.11.42-.15l.09.29s0-.08,0-.09A1.22,1.22,0,0,0,80.61,42.47Z"/><path d="M61.2,44.38c-.54.66-.48.62-.83,0-.26-.47-.25-1-.56-1.47s.07-1.27.31-1.89a.34.34,0,0,1,.28-.14.42.42,0,0,1,.3.34c.09.45-.32.81-.23,1.26a1.29,1.29,0,0,0-.16.17s0,.06,0,.09l.09-.29c.14,0,.39,0,.41.15.1.61.48,1.17.32,1.82Z"/><path d="M79.89,44.38a.86.86,0,0,1,0,.23c-.07.27-.2.6-.53.46s-.24-.5-.1-.73c.23-.4.44,0,.67.07Z"/><path d="M61.17,44.41c.24,0,.53-.54.71,0,.07.21.11.51-.14.63s-.41-.14-.51-.35a.81.81,0,0,1,0-.35Z"/><path d="M65.75,46.08c0-.37-.16-.77.19-1.14a.83.83,0,0,1,.53.81c0,.44-.17.52-.75.3Z"/><path d="M75.36,46.05c-.58.22-.77.14-.75-.3a.83.83,0,0,1,.53-.81c.36.37.17.77.19,1.14Z"/><path d="M78.22,66.48c-.09,0-.15,0-.16,0-.27-.32-.93.16-1-.35s.65-.06.88-.37c0,0,.15,0,.23,0s.4-.32.63-.09a.42.42,0,0,1,0,.54A.59.59,0,0,1,78.22,66.48Z"/><path d="M63,66.47a.73.73,0,0,1-.72-.21.51.51,0,0,1-.09-.55c.1-.22.29-.19.49-.09s.42.06.55.18.82-.25.78.33-.63,0-.87.31C63.1,66.49,63,66.47,63,66.47Z"/><path d="M60.47,59.76a.73.73,0,0,1,.12-.56c.18-.2.41-.26.57,0s0,.39.23.5.5.49.14.7a.55.55,0,0,1-.86-.26,2.73,2.73,0,0,0-.22-.41Z"/><path d="M62.37,60.22a.24.24,0,0,1-.32.23.29.29,0,0,1-.19-.36c0-.11.07-.23.19-.23S62.36,60,62.37,60.22Z"/><path d="M80.63,59.74c-.26.19-.12.69-.54.72a10.6,10.6,0,0,1-1.26,0s-.11-.12-.12-.19.06-.38.21-.37A.89.89,0,0,0,80,59.13c0-.17.29-.11.41,0a.64.64,0,0,1,.21.65Z"/><path d="M81.2,52.24c.21.51.3,1-.13,1.15s-.85.91-1.53.39c-.15-.11-.4-.09-.33-.36a.49.49,0,0,1,.42-.37A2.1,2.1,0,0,0,81.2,52.24Z"/><path d="M61.89,53.4c0,.11,0,.2,0,.25-.16.2-1.14.29-1.23.08-.17-.45-1-.13-.89-.82,0-.2,0-.45.15-.55s.33.07.42.28a.75.75,0,0,0,.94.44C61.6,53,61.73,53.19,61.89,53.4Z"/><path d="M66.71,49c0-.28-.06-.6.29-.66a.38.38,0,0,1,.4.45c-.06.63-.41.36-.71.19Z"/><path d="M74.39,48.94c-.31.18-.66.43-.71-.2a.38.38,0,0,1,.41-.43c.33.06.33.37.28.65Z"/><path d="M72.52,50.82a.21.21,0,0,1,.2.23c0,.17-.07.31-.27.29s-.23-.06-.22-.21A.29.29,0,0,1,72.52,50.82Z"/><path d="M68.85,51.2c0,.08-.1.14-.23.14s-.26-.12-.26-.3a.19.19,0,0,1,.22-.21C68.76,50.84,68.85,51,68.85,51.2Z"/></g></g></svg>