<svg xmlns="http://www.w3.org/2000/svg" viewBox="0 0 187.6 33.16"><title>Eukrohnia</title><g id="Layer_2" data-name="Layer 2"><g id="Eukrohnia"><path d="M177,10.31c.39.09.55-.23.79-.43a8.25,8.25,0,0,1,5-2,3.84,3.84,0,0,1,.59,0c.17,0,.33.09.3.29s-.17.23-.34.24a8.65,8.65,0,0,0-4.2,1.93c.44.32.66,0,.9-.16a8.77,8.77,0,0,1,4.75-1.35c.12,0,.24,0,.36,0s.5,0,.51.33a.4.4,0,0,1-.46.43A6.87,6.87,0,0,0,181.44,11a2,2,0,0,0-.27.24c.37.28.6-.06.87-.19a5.92,5.92,0,0,1,2.74-.69,2.39,2.39,0,0,1,.59.08.42.42,0,0,1,.21.27.3.3,0,0,1-.26.34,7.76,7.76,0,0,1-1.07.06,3.3,3.3,0,0,0-1.94.56A35.64,35.64,0,0,0,186.1,14a3.1,3.1,0,0,1,.92,4.47,3.59,3.59,0,0,1-1.31,1,38.41,38.41,0,0,0-3.39,2.07,2.93,2.93,0,0,0,1.79.58c.28,0,.56,0,.84,0s.64,0,.62.38-.36.35-.65.36a6,6,0,0,1-2.76-.63c-.29-.13-.55-.53-1-.23a7.14,7.14,0,0,0,3.92,1.54h.24a.39.39,0,0,1,.36.4c0,.25-.17.33-.39.34a7.76,7.76,0,0,1-3.83-.66l-2.24-1.09A7.21,7.21,0,0,0,183,24.69c.16,0,.32,0,.48,0a.26.26,0,0,1,.24.22c0,.19-.13.28-.3.29a5.79,5.79,0,0,1-1.9-.1,9.1,9.1,0,0,1-4-2.1.66.66,0,0,0-.53-.2l-.05,0,.06,0A5.63,5.63,0,0,0,180,25a6.61,6.61,0,0,1,.67.24.27.27,0,0,1,.11.2.2.2,0,0,1-.19.24,3.82,3.82,0,0,1-1.43-.05,6.37,6.37,0,0,1-4.34-3.77,1.7,1.7,0,0,0-1.73-1.19c-.72,0-1.44,0-2.16,0a43.65,43.65,0,0,0-5.24-.22c-3.38.34-6.79.09-10.18.39a31.65,31.65,0,0,1-3.23.06c-2.45-.06-4.87.23-7.31.27a11.43,11.43,0,0,0-3,.66,46,46,0,0,1-7.24,1.47c-1.82.25-3.64.46-5.45.69l-.36,0c-5.64-.07-11.25.67-16.89.57a38.87,38.87,0,0,0-6.09.34,11.61,11.61,0,0,1-1.67.06,62,62,0,0,0-11.53,1.1c-1.56.29-3.15.45-4.7.82a3.43,3.43,0,0,0-.46.11c-1.78.88-3.77.94-5.64,1.45s-3.78,1-5.67,1.4c-3.45.81-6.9,1.59-10.34,2.4a35.14,35.14,0,0,1-5.1.61c-1,.09-2.06.23-3.1.26a26.26,26.26,0,0,1-10.13-2c-1.68-.63-3.25-1.53-4.93-2.11a54.37,54.37,0,0,1-5.58-2.43,23.61,23.61,0,0,0-2.88-1.14c-.6-.2-.65-.47-.19-.93a12.19,12.19,0,0,0,1.55-1.38c-3.17-.44-6.25-.84-9.31-1.3-1.42-.21-2.82-.52-4.22-.83a3.49,3.49,0,0,0-3.62,1.21,22.54,22.54,0,0,0-3,4.33A5.49,5.49,0,0,1,9,28.74a13.59,13.59,0,0,1-7.13-5.57A14.77,14.77,0,0,1,.33,19c0-.11,0-.24,0-.35C-.58,15.07.58,11.9,2.56,9A12.25,12.25,0,0,1,9.68,4.26a5,5,0,0,1,5.61,2.18A38.32,38.32,0,0,0,18.52,11a3.28,3.28,0,0,0,3.21,1.17c2.38-.49,4.76-.94,7.16-1.33,1.5-.24,3-.37,4.51-.56.67-.08,1.34-.19,2.11-.3-.36-.63-1-.9-1.46-1.35s-.45-.74.23-1A29,29,0,0,0,39.4,5.4,3.53,3.53,0,0,1,40.16,5a49.45,49.45,0,0,0,6.62-2.71A36,36,0,0,1,55.17.05a5.58,5.58,0,0,1,1.08,0A59.66,59.66,0,0,1,69.74,1.74c3.42.9,6.9,1.59,10.35,2.4a27.24,27.24,0,0,0,3.93,1c1.89.17,3.54,1.18,5.4,1.42,2.45.31,4.87.78,7.31,1.13,2.69.39,5.41.38,8.12.52,2,.1,4,.15,6,.36a40.2,40.2,0,0,0,4.91.07,54.48,54.48,0,0,1,7.66.42,15.19,15.19,0,0,0,1.91,0,52.14,52.14,0,0,1,5.86.28c3.09.33,6.16.83,9.2,1.46,1.32.28,2.58.81,3.92,1a5.6,5.6,0,0,0,.82.13c2.12.07,4.23.18,6.35.21,3.64,0,7.27.34,10.91.3,1.07,0,2.15.11,3.23.18a38.13,38.13,0,0,0,5.12-.21c.76,0,1.52,0,2.28,0a1.8,1.8,0,0,0,1.88-1.3,6.16,6.16,0,0,1,5.26-3.75,2.58,2.58,0,0,1,.48,0c.1,0,.23.09.19.24a.29.29,0,0,1-.11.2,5.31,5.31,0,0,1-.56.2A6,6,0,0,0,177,10.33q0,.11-.06,0ZM56.51,31.92c.14,0,.2-.11.25-.22A.94.94,0,0,0,57.2,31c.16,0,.23-.1.26-.24a.26.26,0,0,0,.25-.23l.25-.23a.51.51,0,0,0,.2-.5c.16,0,.23-.1.26-.24s.25,0,.1-.15l-.07.18a.34.34,0,0,0-.26.24c-.24.1-.23.3-.2.5-.19,0-.24.07-.25.23a.23.23,0,0,0-.25.23.31.31,0,0,0-.26.24.72.72,0,0,0-.44.74.22.22,0,0,0-.26.21S56.42,32,56.51,31.92ZM68.75,30a.53.53,0,0,0,.1-.06s0,0,0-.06l-.09.14a.31.31,0,0,0-.26.25l-.17.14s0,.09,0,.09.08-.17.11-.26A.29.29,0,0,0,68.75,30ZM58.9,28.79c.16,0,.21-.11.24-.23l.06,0,0,.06a.28.28,0,0,0-.24.23l-.07.05ZM39.23,25.45a.3.3,0,0,0,.23-.25l.06,0,0,.06c-.12,0-.22.1-.23.24s-.26.09-.25.26c-.17,0-.39,0-.5.2l0,.05,0-.07a.67.67,0,0,0,.47-.2Zm1-.73.09,0,0-.05-.1.11-.07.06Zm.72-.48.1,0a.33.33,0,0,0,0-.06l-.12.12-.05,0ZM14.74,24l.06,0,0,.05-.1.06,0,.06Zm25.45-.24c0-.05.25,0,.11-.14l-.08.17c-.15,0-.27.08-.24.27-.21,0-.4,0-.49.21-.14,0-.27.07-.23.26-.22-.05-.41,0-.5.21-.14,0-.29.07-.22.27-.41-.12-.58.17-.74.46l-.31.07s.07.1.11.1.19-.06.18-.19c.37.05.57-.18.74-.46.13,0,.24-.1.21-.28a.39.39,0,0,0,.5-.2.29.29,0,0,0,.23-.27c.19,0,.38,0,.49-.21A.33.33,0,0,0,40.19,23.76Zm-25-.47,0,0,0,.05c0,.08-.06.08-.06,0S15.09,23.36,15.23,23.29Zm-1,0c.16,0,.21-.11.24-.24a.29.29,0,0,0,.24-.24l.06,0,0,.06a.29.29,0,0,0-.24.24.25.25,0,0,0-.24.24.28.28,0,0,0-.26.23A15.7,15.7,0,0,0,10.47,28c1,.05,1,.06,1.35-.6a31.34,31.34,0,0,1,2-3.24c.13-.19.35-.35.23-.62C14.22,23.58,14.25,23.44,14.26,23.28Zm-.72-.48.09,0s0,0,0-.06l-.1.12c-.14,0-.25.09-.25.25-.27,0-.44.11-.63.26-1.3,1.06-2.57,2.14-3.78,3.3-.21.21-.47.39-.56.62.19.32.47.31.66.44a.62.62,0,0,0,1-.29c.87-1.62,2.25-2.86,3.3-4.36A.25.25,0,0,0,13.54,22.8ZM176,22.58l0,.05-.07,0c0-.08.05-.23-.13-.13Zm0-12s.13-.1,0,0l-.08.05a.11.11,0,0,0,0,0ZM14.75,10.33l0,.05-.06,0a.29.29,0,0,0-.23-.24.24.24,0,0,0-.25-.22c0-.16,0-.29-.24-.23.12-.28-.1-.44-.23-.63a22.74,22.74,0,0,1-1.95-3.25,1,1,0,0,0-1.38-.56A17,17,0,0,0,14,9.62a.26.26,0,0,0,.24.23.24.24,0,0,0,.26.22A.28.28,0,0,0,14.75,10.33Zm-1.2,0,.07.06-.1,0c0-.15-.08-.22-.22-.25A42.72,42.72,0,0,1,10,5.74a.62.62,0,0,0-1-.27c-.22.14-.56.1-.66.5a46.66,46.66,0,0,0,4,3.54c.3.24.52.65,1,.57C13.32,10.23,13.41,10.3,13.55,10.33Zm1.68-.47,0,.05-.07-.05,0,0Zm25-.49c.07,0,0,.25.16.09l-.18-.07A.28.28,0,0,0,40,9.14c-.1-.21-.3-.21-.49-.22a.29.29,0,0,0-.23-.27.39.39,0,0,0-.51-.19c0-.18-.07-.24-.21-.28-.16-.28-.35-.52-.73-.47,0-.13-.05-.2-.18-.19s-.07.07-.11.1l.31.07c.16.29.33.58.74.46-.07.2.08.23.21.28.11.23.3.24.51.2,0,.18.08.23.23.26.09.26.28.25.49.22C39.94,9.28,40.05,9.34,40.19,9.37ZM14.75,9.13l0,0-.06,0a.42.42,0,0,0,0-.1s0,0-.06,0Zm26.17-.25A.47.47,0,0,0,41,9L41,9l-.13-.1,0-.06Zm-.73-.48.06.08s0,0,0,0l-.12-.09-.07-.08Zm-.73-.46,0,0-.06,0c0-.15-.12-.2-.24-.24L39,7.45l-.48-.21,0-.06.06,0c.1.22.31.17.49.21,0,.16.08.22.22.25A.33.33,0,0,0,39.46,7.94ZM59.15,4.57l0,0-.06,0c0-.14-.11-.2-.24-.23l-.06-.08.09.05C59,4.44,59,4.55,59.15,4.57Zm-.71-1c.06,0,0,.25.15.12l-.18-.09a.25.25,0,0,0-.24-.24A.5.5,0,0,0,58,2.91l-.26-.25c0-.14-.12-.2-.24-.24a.24.24,0,0,0-.26-.22.91.91,0,0,0-.44-.73l-.26-.25-.06-.06.09,0c0,.15.08.26.25.25a.72.72,0,0,0,.45.73.26.26,0,0,0,.26.22c0,.15.07.25.24.25s.06.27.26.23c0,.21-.05.41.21.49A.27.27,0,0,0,58.44,3.6Zm10.32-.48a.42.42,0,0,0,0,.1s0,0,.06,0l-.13-.12a.25.25,0,0,0-.24-.23c-.06-.07.09-.3-.14-.23,0,0,.07.16.17.2S68.61,3.11,68.76,3.12Zm2.38,26.4c.27-.07.29-.26.21-.49.48-.1.56-.47.58-.86a1.36,1.36,0,0,0-.55.88c-.21.1-.22.3-.22.5a.24.24,0,0,0-.21.31s0,.05.08.07Zm-1.91-.23c.22-.1.23-.29.22-.5a.48.48,0,0,0,.43-.42s-.1-.11-.12-.1c-.26.09-.28.32-.28.55-.25.09-.21.31-.22.5-.06,0-.24-.05-.13.14Zm4.79-1c-.26.1-.23.31-.2.52-.2,0-.25.13-.33.25s-.15.23,0,.29.25-.08.29-.22,0-.23,0-.35c.23-.07.27-.26.25-.47.15,0,.24-.08.08-.19S74,28.24,74,28.33Zm4.56-.47a.21.21,0,0,0-.16.24c0,.08.11.1.13,0a1.61,1.61,0,0,0,0-.31l.15,0h0A.27.27,0,0,0,78.58,27.86ZM42.39,24.3c-.2,0-.42-.06-.5.21-.14,0-.25.09-.24.26a.65.65,0,0,0-.73.46c-1,.44-1.31.75-1.6,1.46a4.71,4.71,0,0,0,1.58-1.48.7.7,0,0,0,.72-.47.27.27,0,0,0,.24-.26.59.59,0,0,0,.5-.21c0-.05.22,0,0-.15Zm-5-.72a.4.4,0,0,0-.52.19.83.83,0,0,0-.7.5.64.64,0,0,0-.69.65,1,1,0,0,0,.67-.67.59.59,0,0,0,.7-.51.37.37,0,0,0,.51-.18l0-.08ZM71.14,3.64,71,3.23s-.08,0-.08.08a.24.24,0,0,0,.22.31.46.46,0,0,0,.21.5,1.2,1.2,0,0,0,.56.87c0-.39-.11-.76-.59-.85C71.44,3.91,71.41,3.72,71.14,3.64Zm-1.91.23c-.06,0,0-.25-.15-.09l.18.06c0,.2,0,.41.22.51a1.2,1.2,0,0,0,0,.33c0,.12.17.29.3.19s0-.26-.11-.35a1.17,1.17,0,0,0-.27-.15C69.46,4.17,69.45,4,69.23,3.87Zm4.79,1c0,.12,0,.28.18.1s-.06-.14-.16-.12c0-.21,0-.39-.25-.47a2.09,2.09,0,0,0,0-.35c0-.14-.09-.31-.28-.21s0,.19,0,.28.14.28.33.25C73.79,4.52,73.76,4.73,74,4.83ZM14.28,21.41c-.19,0-.38,0-.5.2s-.26.09-.21.28a.55.55,0,0,0-.45.06c-1.94,1-3.87,2-5.71,3.17a4.36,4.36,0,0,0-1.28,1c.23.17.38.3.55.4.82.49.82.48,1.5-.17.32-.3.66-.58,1-.88C10.56,24.2,12,23,13.55,21.86c.14,0,.28-.08.2-.28.23.08.41,0,.5-.2,0-.07.25,0,.11-.15Zm-.73-.49c-.15.09-.43-.08-.47.24a2.8,2.8,0,0,0-.58.08,52.64,52.64,0,0,0-5,2.2,22.45,22.45,0,0,0-2.85,1.45c.73.89.73.89,1.48.34a31.73,31.73,0,0,1,4.36-2.66,16.8,16.8,0,0,0,2.55-1.43.67.67,0,0,0,.48-.23l.06-.05Zm65-15.61.07.07h0l-.15,0a1.6,1.6,0,0,0,0-.31c0-.06-.11,0-.13,0A.23.23,0,0,0,78.58,5.31ZM37.33,9.59s.12.14,0,0a.37.37,0,0,0-.51-.19c-.11-.35-.3-.57-.7-.5-.17-.24-.21-.64-.68-.55a.67.67,0,0,0,.7.52.81.81,0,0,0,.7.5A.4.4,0,0,0,37.33,9.59Zm4.52-.9a.27.27,0,0,0-.23-.27A.68.68,0,0,0,40.9,8a2.56,2.56,0,0,0-1.6-1.28,3.16,3.16,0,0,0,1.61,1.25.65.65,0,0,0,.74.46c0,.17.09.24.23.27.1.24.31.21.5.21,0,.07-.07.21.12.14l-.15-.11A.57.57,0,0,0,41.85,8.69Zm-28.3,3.57,0,.05-.07-.05a.64.64,0,0,0-.46-.24c-.14-.28-.45-.31-.68-.44A46.19,46.19,0,0,1,6,7.8c-.55-.42-.58-.39-1.3.51,2.27,1.15,4.52,2.28,6.87,3.21.51.2,1,.58,1.57.47C13.1,12.32,13.4,12.15,13.55,12.26Zm.2-.68c.08-.2-.06-.24-.2-.28A63.67,63.67,0,0,1,7.93,6.54c-.27-.26-.52-.36-.84-.15s-.74.3-.92.76a46.09,46.09,0,0,0,7.17,4.15c.06,0,.16,0,.23,0-.05.18.09.22.21.28s.31.19.5.2,0,.25.15.11l-.18-.08C14.16,11.54,14,11.51,13.75,11.58Zm2.93-1c.07.07-.09.34.16.21.08,0-.05-.19-.19-.18a.82.82,0,0,0-.46-.74c-.07-.3-.15-.6-.49-.71A1.72,1.72,0,0,0,15,8c-.05,0,0-.25-.15-.09l.18.06a1.46,1.46,0,0,0,.7,1.21.62.62,0,0,0,.49.7A.73.73,0,0,0,16.68,10.57Zm0,12a.72.72,0,0,0-.47.73.62.62,0,0,0-.49.7,1.47,1.47,0,0,0-.7,1.21c-.07,0-.24,0-.12.14l.09-.17A1.7,1.7,0,0,0,15.7,24c.34-.11.42-.4.48-.71a.8.8,0,0,0,.47-.73c.22,0,.27-.11.13-.29ZM45.25,7.43c0,.09,0,.26.16.13l-.19-.1a2.25,2.25,0,0,0-1.16-1c-.41-.42-.7-1-1.34-1.15.33.51.64,1,1.29,1.2C44.36,6.91,44.63,7.42,45.25,7.43ZM57.72,29.07c-.43.31-.92.58-1,1.2-.61.47-1.25.92-1.29,1.8.36-.18.36-.62.65-.87a1.32,1.32,0,0,0,.62-.94c.44-.31.91-.59,1-1.21a1,1,0,0,0,.64-.8A1,1,0,0,0,57.72,29.07Zm0-25a.83.83,0,0,0,.7.8,1.39,1.39,0,0,0-.72-.78c-.05-.62-.52-.89-1-1.2-.15-.8-1-1.09-1.26-1.82,0,.88.67,1.33,1.28,1.8C56.8,3.52,57.29,3.78,57.72,4.09ZM45.25,25.73c-.62,0-.89.52-1.24.91a2.34,2.34,0,0,0-1.29,1.2c.64-.15.92-.73,1.34-1.14a2.38,2.38,0,0,0,1.17-1c0-.05.27,0,.09-.16ZM68.05,3.61a1.52,1.52,0,0,0,.62,1.09c-.11-.42-.19-.86-.65-1.07a2.11,2.11,0,0,0-.93-1.25C67.38,2.81,67.49,3.37,68.05,3.61Zm0,26a1.74,1.74,0,0,0-.86,1.32c.26-.46.78-.76.83-1.34.46-.22.54-.65.64-1.08C68.38,28.78,68,29.08,68.05,29.56Zm2.62-1a6.8,6.8,0,0,0-1.21,1.66l0,.05v-.07A.44.44,0,0,0,70,30c.18-.5.61-.87.64-1.43.18,0,.21-.16.18-.31s-.06-.08-.07-.07A.34.34,0,0,0,70.67,28.58ZM69.46,2.93l0-.06,0,0a6.44,6.44,0,0,0,1.2,1.68.35.35,0,0,0,.12.37s.07,0,.07-.07,0-.28-.18-.31A4.6,4.6,0,0,0,70,3.09C69.91,2.89,69.67,2.88,69.46,2.93ZM48.1,12l0,0-.06,0c-.24-.4-.35-.89-.82-1.2C47.25,11.78,47.25,11.78,48.1,12Zm0,9.14c-1,.24-1,.24-.71,1.21l.7-1.22,0,0ZM12.59,27.61c.11,0,.3,0,.33-.06a13.73,13.73,0,0,0,1.33-2.82c0-.05.26,0,.11-.15l-.08.18a6.52,6.52,0,0,0-1.67,2.87c-.1,0-.14,0-.13.08h.07S12.57,27.64,12.59,27.61Zm0-22.06s0-.07,0-.09-.07,0-.07,0,0,.1.13.08A6.56,6.56,0,0,0,14.28,8.4c.06,0,0,.26.15.12l-.18-.09a14.23,14.23,0,0,0-1.33-2.82C12.89,5.55,12.7,5.57,12.59,5.55ZM56.52,4.09c.13.43.31.81.82.86-.28-.28-.41-.72-.84-.84A7.35,7.35,0,0,0,54.67,1.7c-.16-.17-.3-.45-.75-.34C54.94,2.23,55.48,3.39,56.52,4.09Zm0,25a16.23,16.23,0,0,0-2.42,2.75,7.13,7.13,0,0,0,2.4-2.77c.43-.14.58-.53.79-.87A1.16,1.16,0,0,0,56.52,29.07ZM15,13.7c.14.15.28.28.5.12-.16-.16-.35-.06-.53-.09-.16-.38-.55-.37-.86-.49A69.58,69.58,0,0,1,6.47,9.93c-.7-.37-1.44-.67-2.14-1C4.1,8.79,4,8.81,3.85,9s-.13.38.07.51a5.13,5.13,0,0,0,.72.41c1.08.51,2.15,1,3.23,1.5A32.93,32.93,0,0,0,15,13.7Zm0,5.77a9.24,9.24,0,0,0-2.06.5,42.14,42.14,0,0,0-8.79,3.55c-.27.13-.51.25-.3.62s.47.13.68,0c2.62-1.33,5.27-2.57,8-3.65A7.8,7.8,0,0,0,15,19.44a1,1,0,0,0,.24,0c.09,0,.18-.06.27-.09a.23.23,0,0,0-.32,0A.83.83,0,0,0,15,19.47Zm167.28-6.71c0-.17,0-.22-.16-.13l.18.11a.76.76,0,0,0,0,.11c.13.29.69.48.3.88s-.65-.06-.91-.25a7.17,7.17,0,0,1-.67-.68,9.06,9.06,0,0,0-.94-.92,3.31,3.31,0,0,0-4.39.09c1.42-.87,2.52-.43,3.47.73a5,5,0,0,0,.55.46c.78.71,1,1.21.38,2.08a1.93,1.93,0,0,0,0,2.65.37.37,0,0,1,.05.11,1.38,1.38,0,0,1-.36,1.91c-.26.25-.58.43-.81.7a2.22,2.22,0,0,1-3.06.68c-.09-.05-.19-.1-.27,0a3.63,3.63,0,0,0,4.7-.27c.41-.38.75-.83,1.16-1.21s.66-.76,1.07-.41-.3.62-.33,1c-.06,0-.29,0-.08.15,0,0,.1-.09.06-.17a26.76,26.76,0,0,0,3.58-2,1.5,1.5,0,0,0,.27-.24,2,2,0,0,0,0-3.12A15.56,15.56,0,0,0,182.26,12.76ZM44.81,16.54c.31.5.77.47,1.2.5a9.84,9.84,0,0,1,1.42.12,36.2,36.2,0,0,0,5.09.57c4.35.13,8.71,0,13.07.2,5.74.25,11.5,0,17.26.26,2.51.12,5-.1,7.54-.12,7.07-.09,14.15-.24,21.22-.28,5.76,0,11.5-.3,17.26-.27h.36c.28,0,.46-.11.46-.42a4.33,4.33,0,0,1,0-.72c.06-.57-.17-.75-.75-.75-3,0-6-.07-9-.18-5.31-.2-10.63,0-16-.22-5.94-.25-11.9,0-17.86-.27-2.47-.12-5,.09-7.42.15-5.75.15-11.51,0-17.26.26-2.8.13-5.6,0-8.4,0-.56,0-1.12,0-1.67,0-1.9.2-3.77.62-5.68.68A1.25,1.25,0,0,0,44.81,16.54Zm.9-1c1.77-.2,3.41-.48,5.06-.59,1.87-.13,3.75-.23,5.62-.25,5.52-.08,11-.13,16.55-.21,9.2-.12,18.4-.23,27.59.13,5.71.23,11.44,0,17.15.24,3.43.17,6.88.05,10.32.06,1.57,0,1.57,0,1.88-1.46.16-.76.1-.85-.78-.88-2-.07-4-.06-6-.2-2.55-.19-5.11,0-7.67-.24s-5.19-.14-7.79-.21-5.24-.34-7.85-.62c-3.1-.34-6.21-.4-9.31-.62-2.63-.19-5.28-.12-7.91-.3a10.73,10.73,0,0,0-4.64.8c-1.23.47-2.49.78-3.75,1.13a47.88,47.88,0,0,1-5,.89,36.1,36.1,0,0,1-5,.52c-2.48.09-5,0-7.44.05a29.43,29.43,0,0,1-9.53-1.26A13.93,13.93,0,0,1,45.71,15.51Zm0,2.11c.35.9,1,1.51,1.24,2.37.14.62.43.64,1,.46a23,23,0,0,1,6.1-1c2.27-.08,4.55,0,6.83-.05a51.41,51.41,0,0,1,6.33.3c1.42.16,2.82.48,4.24.66A32,32,0,0,1,77.92,22a10.12,10.12,0,0,0,2.71.79c1.44.06,2.88,0,4.32-.05,2.75-.11,5.5-.28,8.25-.4,2.19-.1,4.38-.3,6.56-.43,1.95-.12,3.85-.67,5.81-.58a16,16,0,0,0,2.4,0c3.5-.33,7-.23,10.53-.37s7.11-.33,10.66-.33a1,1,0,0,0,.71-.13c.22-.63-.28-1.21-.21-1.85,0-.23-.18-.33-.4-.34s-.64,0-1,0c-5.39,0-10.79,0-16.18.21-4.87.17-9.74,0-14.62.21-4.51.17-9,.12-13.55.08-5.07-.06-10.14.07-15.22-.2-3.27-.18-6.55,0-9.83-.06A90.81,90.81,0,0,1,45.71,17.62Zm93.08,3.78H137.6c-4.39.12-8.78.24-13.17.42s-8.55.22-12.83.33c-2.07.06-4.14.3-6.22.22a1.42,1.42,0,0,0-.36,0c-3.15.55-6.35.62-9.52.88-3.5.28-7,.38-10.53.49-3.12.1-6.24.14-9.35.2-7,.16-14.07.09-21.11-.13-2.2-.07-4.39-.24-6.58-.32-1.23,0-2.45-.39-3.64.19.07.23.29.25.46.34A31.72,31.72,0,0,0,53,26.65a68.61,68.61,0,0,0,8.83.64,55.68,55.68,0,0,0,6.71-.1C72,27,75.44,27,78.86,26.64c1.74-.17,3.49-.34,5.22-.65a22.41,22.41,0,0,1,5.1-.58A19.64,19.64,0,0,0,93.09,25c1.66-.25,3.3-.57,5-.76,2.86-.33,5.74-.31,8.61-.45,2.63-.13,5.25-.42,7.89-.3,1.16,0,2.32,0,3.48,0,1.91-.11,3.82-.37,5.73-.41a78.61,78.61,0,0,0,8.12-.46A42.72,42.72,0,0,0,138.79,21.4Zm0-9.79a5.14,5.14,0,0,1-.7-.09,65.22,65.22,0,0,0-10.41-1.37c-1.47-.13-3,.07-4.44-.08a89.82,89.82,0,0,0-9.56-.43,23.32,23.32,0,0,1-3.24-.05c-2.14-.28-4.3-.27-6.44-.37A66.82,66.82,0,0,1,95,8.46a35,35,0,0,0-7-.74,11.65,11.65,0,0,1-2.49-.27A72.4,72.4,0,0,0,73.72,6.21C69.85,6.08,66,5.76,62.1,5.85c-1.19,0-2.39.19-3.58.18a28.31,28.31,0,0,0-4.42.32,30,30,0,0,0-9.23,2.71c-.21.11-.56.09-.58.49a3.63,3.63,0,0,1,1.17.23,1.19,1.19,0,0,0,.8.12c2-.52,4-.33,6-.49,2.39-.18,4.8-.15,7.19-.21,7.44-.19,14.87-.08,22.3.14,1.28,0,2.56,0,3.84.07,2.83.13,5.66.28,8.49.43,1.63.08,3.27.11,4.9.29,1,.12,2.09,0,3.1.24,2.84.54,5.72.39,8.58.61,2.55.19,5.11.14,7.67.22,3.47.12,7,.25,10.42.32,1.28,0,2.57,0,3.84.09A43.6,43.6,0,0,0,138.8,11.61ZM24.19,17.08H19.34c-.68,0-1.36,0-2,0a.55.55,0,0,0-.57.35,1.25,1.25,0,0,0,.7,1.67,7.29,7.29,0,0,0,2.18.56,19.46,19.46,0,0,1,2.61.35c2.07.34,4.14.77,6.22,1.1,1.66.25,3.33.34,5,.65,1.09.2,2.2.39,3.3.48,2,.17,4.06.28,6.09.36a6.38,6.38,0,0,0,2.37-.28c1-.37,1.15-.68.89-1.71a16.49,16.49,0,0,0-1.27-2.43,1.5,1.5,0,0,0-1.43-.9c-1,0-1.94-.13-2.95-.06a76.56,76.56,0,0,1-9.58,0C28.44,17.12,26.05,17.12,24.19,17.08Zm22-5.33c.08-.35-.17-.6-.51-.77a4.6,4.6,0,0,0-1.37-.4,34.44,34.44,0,0,0-4.31.06,27.51,27.51,0,0,0-4.15.4c-1.26.2-2.52.39-3.79.51-2.06.2-4.1.51-6.14.87a62.71,62.71,0,0,1-6.23,1,8.46,8.46,0,0,0-2.3.59c-.66.24-.8.68-.67,1.47s.61.5,1,.55a7.85,7.85,0,0,0,.84,0c5.23,0,10.46,0,15.7-.24a41.06,41.06,0,0,1,7.18.15,8,8,0,0,0,2.36-.23,1.28,1.28,0,0,0,.88-.58c.37-.61.74-1.23,1.06-1.87A3.07,3.07,0,0,0,46.17,11.75Zm26.93-.08c-.42-.32-1-.24-1.41-.48a.39.39,0,0,1-.21-.27.39.39,0,0,1,.2-.27c.14-.06.35,0,.46-.09.4-.32,1,.06,1.51-.4H71.82c-4.43.06-8.87-.14-13.3.13-.45,0-.91-.06-1.17.54-.14.33-.53.36-.62-.15,0-.19-.1-.29-.29-.27,0,0-.06.05-.07.09-.09.24-.06.58-.47.57s-.4-.19-.33-.48-.19-.22-.3-.22a20.36,20.36,0,0,0-4.67.27c.08.19.11.58.32.43.46-.34,1-.07,1.47-.36.2-.13.38-.17.49.07a.42.42,0,0,1-.1.54,1.92,1.92,0,0,1-1,.45,2.61,2.61,0,0,0-1.64.67C53,13.78,70.06,13.21,73.1,11.67ZM49.88,20.59a3.49,3.49,0,0,0,1.91.82,1.59,1.59,0,0,1,1,.45.44.44,0,0,1,.07.55c0,.08-.23.17-.29.14A3.74,3.74,0,0,0,51,22.24c-.25,0-.25-.07-.39.3a21.6,21.6,0,0,0,4.54.26c.24,0,.39,0,.4-.37s.38-.39.66-.18,0,.52.34.52c.38-.79.43-.83.9-.2a.79.79,0,0,0,.71.29c1,.06,2.07.14,3.11.14,3.83,0,7.67,0,11.5,0h.72v-.39c-.54.34-1,.05-1.41,0-.3-.05-.64-.08-.63-.39s.36-.41.66-.4a1.66,1.66,0,0,0,.94-.41A69.58,69.58,0,0,0,49.88,20.59Zm124.26-4.06a6.22,6.22,0,0,1-.16,2c-.15.33.11.52.29.72a6.56,6.56,0,0,0,2.43,1.46,1,1,0,0,0,1.29-.24,7,7,0,0,1,1.25-1.12.63.63,0,0,0,.2-1c-.15-.23-.23-.62-.43-.69-.55-.21-.38-.58-.37-1s-.22-1,.46-1.28c.2-.08.28-.46.41-.71a.58.58,0,0,0-.19-.84,9,9,0,0,1-1.43-1.27.8.8,0,0,0-.86-.27,6.64,6.64,0,0,0-2.77,1.59c-.17.2-.43.39-.28.72A5.55,5.55,0,0,1,174.14,16.53Zm-.68,3.08c-.79-1,0-2,0-3s-.78-2,0-3.05a14.37,14.37,0,0,0-2-.15c-1.49.08-2.95.61-4.48.34-.52-.09-.59.27-.49.68a3,3,0,0,1,.16.57c0,.55.29.62.75.64a24.74,24.74,0,0,1,2.85.26c.4.06,1,.22.93.75s-.54.52-.9.67a.93.93,0,0,1-.24,0c-.91.08-1.82.19-2.73.23-.45,0-.65.14-.66.61a3.7,3.7,0,0,1-.18.69c-.08.38,0,.62.49.58a9.37,9.37,0,0,1,3.41.23A8.66,8.66,0,0,0,173.46,19.61Zm-161.77-6A67.07,67.07,0,0,1,3.15,9.93c-.1.13-.21.25-.29.38-.45.69-.44.71.29,1s1.55.6,2.34.86A38,38,0,0,0,11.69,13.62ZM3.16,23.23a58.27,58.27,0,0,1,8.65-3.66c-.2,0-.33-.1-.43-.07a49.74,49.74,0,0,0-7.85,2.21C2.39,22.16,2.39,22.16,3.16,23.23Zm-2-5.72c.23,1,.23,1.06,1.09.8a14.13,14.13,0,0,1,3.4-.51c2.35-.12,4.65-.62,7-.63-1.91-.08-3.82-.15-5.72-.06S3.15,17.58,1.14,17.51ZM12.59,16c-1.13-.15-2.24-.19-3.35-.3-.94-.1-1.88-.29-2.84-.31a17.31,17.31,0,0,1-4.23-.57c-.86-.23-.86-.23-1,.86a19.26,19.26,0,0,1,4.49.24A61.18,61.18,0,0,0,12.59,16Zm-.13,2.57a5.06,5.06,0,0,0-.87,0,53.33,53.33,0,0,0-6.5,1.28c-.94.3-1.9.54-2.85.82-.19.05-.36.12-.24.41s.17.32.42.32a1.75,1.75,0,0,0,.67-.21l3-1C8.1,19.46,10.17,19.15,12.46,18.57Zm-.21-4c-1.86-.44-3.7-.84-5.52-1.33a36.07,36.07,0,0,1-4-1.37c-.23-.09-.52-.16-.68.22s.19.49.39.54a48.77,48.77,0,0,0,7.83,1.78C10.9,14.44,11.53,14.85,12.25,14.55Zm-4,.28c-1.6-.29-3.13-.83-4.7-1.24-.53-.13-1.07-.25-1.62-.35a.27.27,0,0,0-.34.23c0,.16-.06.34.1.43a3.77,3.77,0,0,0,.66.26A29.23,29.23,0,0,0,8.25,14.83Zm0,3.52a31.76,31.76,0,0,0-4.14.29,10.43,10.43,0,0,0-2,.4c-.28.07-.68.14-.58.6s.5.24.78.24c.11,0,.22-.09.33-.12C4.57,19.38,6.36,18.66,8.27,18.35ZM56.15,5c-.68-1.26-1.87-2.1-2.67-3.26-.1-.15-.27-.34-.48-.14s0,.37.08.52a23.57,23.57,0,0,0,2.41,2.77A.48.48,0,0,0,56.15,5Zm0,23.19a.44.44,0,0,0-.61,0,22.14,22.14,0,0,0-2.51,2.88c-.13.17-.2.38,0,.51s.31,0,.4-.17C54.28,30.29,55.42,29.42,56.17,28.19Zm-1.29-.39c-1.62.83-2.36,2.16-3.32,3.28a.21.21,0,0,0,.07.19c.1.05.26.12.32.08a3.86,3.86,0,0,0,.48-.51ZM54.72,5.18,52.17,2c-.14-.18-.29-.28-.49-.15s-.06.34.06.47c.79.93,1.59,1.85,2.4,2.77A.42.42,0,0,0,54.72,5.18ZM44.6,4.59l1.28,1.18,1.18,1c.22.19.43.22.63,0s0-.36-.19-.44a15.59,15.59,0,0,1-2-1.76C45.29,4.35,45.07,4.15,44.6,4.59Zm3.19,22c-.09-.22-.27-.38-.38-.31a10.79,10.79,0,0,0-2.73,2.4c.29.29.51.27.75,0A26,26,0,0,1,47.79,26.56ZM44.59,8.09C43.55,7,42,5.76,41.37,5.72A11,11,0,0,0,44,8.08C44.23,8.23,44.4,8.16,44.59,8.09Zm.09,17c-.24-.06-.33-.12-.38-.1a10.32,10.32,0,0,0-2.77,2.18c-.09.1-.12.21,0,.31s.28.07.41,0ZM52.13,5.67c0-.18,0-.29,0-.33a21.1,21.1,0,0,1-2.4-2.77.3.3,0,0,0-.42-.07c-.27.15-.11.34,0,.47Zm0,21.84-2.69,2.6c-.14.15-.43.36-.09.56s.36-.1.52-.29a19.86,19.86,0,0,1,2-2.21C52,28,52.24,27.9,52.1,27.51ZM61.83,4.73c-1-1.14-1.65-2.54-2.89-3.48,0,0-.08,0-.1.05s.14.07,0,.08c.48.58,1,1.18,1.44,1.74S60.93,4.53,61.83,4.73ZM50.47,2a6.87,6.87,0,0,0,3.09,3.34C52.36,4.26,51.65,3,50.47,2ZM62.79,4.78,63,4.65c-.78-1.12-1.56-2.24-2.37-3.35-.07-.1-.29-.07-.5.11ZM53.26,27.87A9.87,9.87,0,0,0,50.45,31,15.82,15.82,0,0,0,53.26,27.87ZM57.42,32a14.29,14.29,0,0,0,3.12-3.58c-.18,0-.3-.09-.32-.06Q58.81,30.2,57.42,32Zm1.48-.09a17,17,0,0,0,2.84-3.57A23.94,23.94,0,0,0,58.9,31.93Zm3.89-3.55L60,31.87C60.83,31.71,61.37,31,62.79,28.38ZM57.41,1.16c.48.61,1,1.22,1.46,1.82s.73,1.45,1.57,1.77A11.63,11.63,0,0,0,57.41,1.16ZM50,27.11l-.19-.2a14.76,14.76,0,0,0-2.45,2.29c-.13.16-.47.36-.23.57s.41-.17.58-.34.46-.44.68-.67ZM48,30.17c.28.18.59.4.78-.25a2.11,2.11,0,0,1,.58-.74L51,27.47c-.24,0-.34-.07-.38,0ZM61.74,1.53a31.57,31.57,0,0,0,2.08,3.18c.09.16.33.13.49,0A19.9,19.9,0,0,0,61.74,1.53ZM64.3,28.45c-.22-.11-.45-.14-.55.07-.43.85-1.12,1.51-1.63,2.31a1.63,1.63,0,0,0-.41,1.07A39.24,39.24,0,0,0,64.3,28.45ZM48.14,2.92c.85.94,1.7,1.88,2.56,2.81,0,0,.14,0,.23-.05-.09-.32-.38-.47-.58-.69a9.55,9.55,0,0,1-1.53-1.8C48.54,2.62,48.36,2.8,48.14,2.92ZM43.5,24.61c-.3-.09-.45-.06-.58.05l-2.51,2c-.11.09-.25.24-.12.38A.31.31,0,0,0,40.8,27,22.82,22.82,0,0,1,43.5,24.61ZM49.78,6.23,50,6.06,47.42,3.39a.22.22,0,0,0-.3,0c-.22.14-.07.26,0,.38A12.52,12.52,0,0,0,49.78,6.23ZM43.46,8.52a10.35,10.35,0,0,0-1.61-1.29C41.28,6.91,41.11,6,40,6.13,41.2,7.1,42.11,8.11,43.46,8.52ZM43.69,5a8.8,8.8,0,0,0,2.82,2.37C45.2,5.8,44.36,5.08,43.69,5ZM1.14,16.57a6,6,0,0,0,3.19,0A7.79,7.79,0,0,0,1.14,16.57Zm168.78.15v-.33c-.54,0-1.08-.06-1.61,0s-1.13-.24-1.73.36A15.48,15.48,0,0,0,169.92,16.72ZM43.52,28.38a6.43,6.43,0,0,0,2.71-2.45A11,11,0,0,0,43.52,28.38ZM154.14,13.24a8.64,8.64,0,0,0,.42,1.85.39.39,0,0,0,.48.25c.34-.09.13-.33.09-.47C155,14.26,155.06,13.51,154.14,13.24Zm.09,6.6c.88-.4.82-1.23,1.06-2.23C154.19,18.19,154.41,19.11,154.23,19.84ZM64.37,1.78a7,7,0,0,0,2.14,2.89A7.68,7.68,0,0,0,64.37,1.78Zm1,26.79-.18-.18-2.34,3.18.2.14A26.5,26.5,0,0,0,65.38,28.57Zm1-.22-2.16,3.1A5.53,5.53,0,0,0,66.33,28.35ZM65.19,4.76a7.16,7.16,0,0,0-2.42-3.28ZM131,20.58c.26-.79-.25-1.43-.19-2.13,0-.16-.22-.2-.38-.16s-.24.12-.2.23C130.5,19.18,130.29,20,131,20.58ZM48.34,6.24l.15-.13c-.71-.74-1.42-1.49-2.14-2.23-.22-.22-.41-.13-.53.17ZM131,12.55c-.74.63-.54,1.46-.78,2.13,0,.08.09.2.24.2s.37,0,.35-.2C130.77,14,131.27,13.39,131,12.55ZM48.35,26.92l-2.6,2.26C46.36,29.33,46.36,29.33,48.35,26.92ZM153.93,15c-.29-.47-.23-1.1-.61-1.58a.33.33,0,0,0-.41-.11s-.12.14-.1.19a6.39,6.39,0,0,0,.69,1.69c.05.06.21.06.31,0S153.87,15.15,153.93,15ZM153,19.85a.39.39,0,0,0,.38-.22c.2-.5.37-1,.53-1.53a.19.19,0,0,0-.17-.25.36.36,0,0,0-.3.12c-.23.54-.43,1.08-.63,1.63C152.76,19.73,152.87,19.8,153,19.85ZM65.71,31.07l.23.17,1.83-2.72-.21-.15A22.61,22.61,0,0,0,65.71,31.07Zm1.8-26.25.24-.18A29.13,29.13,0,0,0,65.9,2l-.21.14Zm68.1,12.59a.33.33,0,0,0,.41-.13,1.64,1.64,0,0,0,.12-1.13.41.41,0,0,0-.35-.42c-.26,0-.26.22-.27.41A3,3,0,0,0,135.61,17.41Zm.15.63a1.81,1.81,0,0,0,.57,2.26C135.91,19.63,136.48,18.76,135.76,18Zm.46-5.24c-.38.69-1,1.33-.54,2.2a.28.28,0,0,0,.34-.17C136.35,14.18,136,13.46,136.22,12.8ZM39,9.58A5.07,5.07,0,0,0,36.24,8,8.38,8.38,0,0,0,39,9.58ZM150.2,17.77c-.7,1.3-.75,1.49-.55,2.21A2.48,2.48,0,0,0,150.2,17.77Zm0-2.48a2.07,2.07,0,0,0-.67-2.19A4.26,4.26,0,0,0,150.15,15.29ZM130.3,16.43c-.07.3.16.59,0,.9s.12.16.22.17.27,0,.29-.12a3.66,3.66,0,0,0,0-.93c0-.28.26-.82-.36-.77S130.58,16.23,130.3,16.43ZM36.52,25.17a7.9,7.9,0,0,0,2.37-1.53A4.86,4.86,0,0,0,36.52,25.17Zm123.06-9.64a2.83,2.83,0,0,0-.41-1.92.26.26,0,0,0-.2-.08.19.19,0,0,0-.18.25A4.32,4.32,0,0,0,159.58,15.53Zm-26,2.5c.06.84-.11,1.51.25,2.13.06.1.09.24.25.2s.23-.14.17-.25C133.87,19.53,134.19,18.77,133.55,18Zm.56-5.21c-.73.61-.5,1.4-.54,2.31C134.18,14.35,133.92,13.53,134.11,12.82Zm26.68,5.08c-.79.33-.56,1.07-.83,1.85C160.86,19.25,160.57,18.47,160.79,17.9Zm-2,1.8a1.62,1.62,0,0,0,.59-1.94A3.57,3.57,0,0,0,158.83,19.7Zm-8.11.15c.75-1.1.82-1.41.52-2A5.25,5.25,0,0,0,150.72,19.85Zm.54-4.4c.48-.58.07-.92,0-1.28s-.14-.93-.44-.83c-.5.15,0,.57.05.88A5.86,5.86,0,0,0,151.26,15.45Zm8.63-2.07c.22.76.36,1.27.52,1.77a.24.24,0,0,0,.28.17c.12,0,.23-.14.17-.25C160.59,14.58,160.8,13.87,159.89,13.38Zm-24.84,7c.34-.53-.12-.84-.09-1.24s.12-.77-.26-1.06A3.31,3.31,0,0,0,135.05,20.43Zm8.66-5.38a2.76,2.76,0,0,0-.13-2.08A2.49,2.49,0,0,0,143.71,15.05Zm1.69,5.05c.59-.49.56-1.17.74-1.77.05-.15,0-.21-.15-.25a.24.24,0,0,0-.29.14C145.59,18.85,145.5,19.47,145.4,20.1ZM149,15.18a2,2,0,0,0-.66-1.89A3.62,3.62,0,0,0,149,15.18Zm-5.37,2.67a3.14,3.14,0,0,0,0,2.2C143.92,19.29,143.93,19.13,143.64,17.85ZM137,18.1h-.25a5.05,5.05,0,0,0,.35,2.18l.23,0Zm3.75,0c.1.65-.21,1.39.36,2.16C141.23,19.41,141.35,18.72,140.76,18.12Zm8.31-.35a3.51,3.51,0,0,0-.68,2.13A2.63,2.63,0,0,0,149.07,17.77Zm-3.62-4.69c.3.63-.2,1.51.75,2.22C146,14.36,146.05,13.64,145.45,13.08Zm-8.65,2a2.72,2.72,0,0,0,.26-2.17C137.07,13.62,136.54,14.27,136.8,15.07Zm4,0a1.76,1.76,0,0,0,.23-2A4.17,4.17,0,0,0,140.77,15Zm-5.59-2.2c-.32.71-.87,1.38-.33,2.22Zm27.39,2.47c.28-1,.26-1.1-.39-1.72A4.65,4.65,0,0,0,162.57,15.31ZM138.34,13l-.24,0c-.13.7-.6,1.36-.11,2.15Zm19.95,2.54a1.74,1.74,0,0,0-.8-2.09C157.78,14.19,158,14.76,158.29,15.51Zm0,2.35a2.7,2.7,0,0,0-.53,1.78A1.79,1.79,0,0,0,158.31,17.86Zm4.26-.24c-.36,1.51-.36,1.51-.17,2A1.9,1.9,0,0,0,162.57,17.62Zm-9.94.14a2.6,2.6,0,0,0-.7,2.09A5.45,5.45,0,0,0,152.63,17.76Zm-20-2a1.94,1.94,0,0,0,0,1.74A2.11,2.11,0,0,0,132.6,15.72Zm2.11,0c-.14.58-.34,1.16.12,1.7A2.11,2.11,0,0,0,134.71,15.73ZM138,18.08l-.33.05a3.34,3.34,0,0,0,.68,2.07C138.22,19.5,138.11,18.79,138,18.08Zm-1.22-.59a1.36,1.36,0,0,0,0-1.82A6.93,6.93,0,0,0,136.77,17.49Zm-5.25,0a1.45,1.45,0,0,0,0-1.82A4.3,4.3,0,0,0,131.52,17.48Zm20.29-4.06c.25.63.09,1.41.93,2.06A4.29,4.29,0,0,0,151.81,13.42Zm4.82,6.18a3.81,3.81,0,0,0,.82-1.9C156.69,18.26,156.76,19,156.63,19.6Zm.71-4.31a3,3,0,0,0-.86-1.89C156.71,14.21,156.75,14.86,157.34,15.29Zm-12.63-.21a2,2,0,0,0-.32-2C144.51,13.8,144.61,14.44,144.71,15.08Zm-12.05,3.14c0,1.68,0,1.68.37,2.05A8.63,8.63,0,0,0,132.66,18.22Zm.32-5.46c-.6.71-.27,1.48-.35,2.19C132.73,14.25,133.17,13.6,133,12.76Zm-1,7.73a4.54,4.54,0,0,0-.37-2.17A3.83,3.83,0,0,0,132,20.49Zm12.73-2.57c-.12.8-.21,1.44-.35,2.34A2.51,2.51,0,0,0,144.73,17.92ZM140,18.1l-.39,0c.32.65.13,1.36.57,2Zm-8.46-3.31.3.06c0-.68.41-1.29,0-2Zm8.58-1.72a3.45,3.45,0,0,0-.25,2C140.11,14.44,139.87,13.73,140.07,13.07Zm-66.9-7.8c0-.82-.55-1.17-.65-1.7,0-.18-.26-.19-.4-.15s-.05.25,0,.34C72.42,4.2,72.73,4.64,73.17,5.27ZM139,18.11c0,.7-.36,1.48.34,2.08Zm.34-5.15c-.61.66-.34,1.39-.33,2.09Zm14.54,2.82a1.4,1.4,0,0,0,0,1.52C154.28,16.84,154.24,16.42,153.83,15.78Zm-1,1.54a1.33,1.33,0,0,0-.05-1.45C152.22,16.39,152.2,16.82,152.8,17.32Zm-3.71,0c.61-.81.61-.81-.05-1.47A1.8,1.8,0,0,0,149.09,17.34Zm-.86-1.51c-.55.58-.57,1,.05,1.39A1.66,1.66,0,0,0,148.23,15.83ZM72,29.66l.27.17a8.28,8.28,0,0,0,1-1.68c-.21,0-.31,0-.34,0C72.6,28.67,72.28,29.17,72,29.66Zm69-12.19V15.72C140.49,16.58,140.49,16.58,140.92,17.47Zm23.44,1.91.3,0c.06-.52.45-1,0-1.6Zm-8.78.22c.66-1.07.69-1.2.47-1.82A5.76,5.76,0,0,0,155.58,19.6Zm10.21-1.85a1.71,1.71,0,0,0-.16,1.54A1.51,1.51,0,0,0,165.79,17.75Zm0-2.15c.12-1.13.12-1.13-.29-1.7A2.62,2.62,0,0,0,165.82,15.6Zm-1.21-.22c.44-.56.41-.76-.26-1.78Zm-9-1.82a4.16,4.16,0,0,0,.6,1.91A2.56,2.56,0,0,0,155.58,13.56Zm-8.32,6.34a1.94,1.94,0,0,0,.55-1.85Zm-7.43-2.68a1.24,1.24,0,0,0-.13-1.38A1.56,1.56,0,0,0,139.83,17.22Zm15.52-.67c0-.16.05-.41-.22-.44s-.38.19-.4.43.06.51.33.52S155.34,16.78,155.35,16.55Zm-10.51.68a1.21,1.21,0,0,0-.06-1.46A1.49,1.49,0,0,0,144.84,17.23Zm5.45-1.29c-.1.43-.38.9.15,1.36A1.25,1.25,0,0,0,150.29,15.94Zm-8.47-1c0-.63.43-1.21.24-2C141.56,13.68,141.82,14.35,141.82,15Zm-8.34.72v1.74A1.5,1.5,0,0,0,133.48,15.7Zm12.43,1.56c.43-.55.43-.55,0-1.52A2.71,2.71,0,0,0,145.91,17.26Zm11.54-1.13c-.32,0-.37.21-.37.46s.08.46.39.44.29-.2.29-.4S157.78,16.15,157.45,16.13Zm-10.16-2.94c.25.61.19,1.33.64,1.88A2.71,2.71,0,0,0,147.29,13.19Zm4.26,4a1.22,1.22,0,0,0,0-1.38A1.23,1.23,0,0,0,151.55,17.19Zm-77,11.92c.8-.18.86-.67,1-1.23C75,28.11,74.82,28.55,74.55,29.11Zm0-25c.35.52.46,1,1.14,1.21C75.37,4.73,75.33,4.2,74.5,4.07Zm67.57,16.19a6.42,6.42,0,0,0-.27-2A3.41,3.41,0,0,0,142.07,20.26Zm-4.29-2.94.23,0a1.67,1.67,0,0,0-.23-1.53Zm25.77,2.29a3.93,3.93,0,0,0,.2-1.92C163.48,18.39,163.17,18.85,163.55,19.61Zm-.07-6.11a2.08,2.08,0,0,0,.32,1.81A3.61,3.61,0,0,0,163.48,13.5Zm-1.74,4.39a3.11,3.11,0,0,0-.53,1.73A3.59,3.59,0,0,0,161.74,17.89Zm0-2.65-.18-.88c-.06-.26-.11-.52-.47-.61C161.49,14.2,161.28,14.81,161.79,15.24Zm-5.44.91a.42.42,0,0,0-.38.39.4.4,0,0,0,.29.46c.28.06.3-.19.3-.38S156.59,16.22,156.35,16.15ZM50.07,10.76A1.9,1.9,0,0,0,49,10.65l.21.46C49.34,10.68,49.78,10.94,50.07,10.76ZM49,22.49a2,2,0,0,0,1.26-.12C49.1,22.29,49.1,22.29,49,22.49ZM158.54,16c-.3.46-.31.73,0,1.06C158.79,16.73,158.74,16.46,158.54,16Zm.92.06c-.25.41-.26.67,0,1A.76.76,0,0,0,159.46,16.07Zm1.18.91c.19.05.23-.09.25-.19s.11-.49-.17-.61-.22.09-.24.2S160.37,16.85,160.64,17Zm5-.94c-.07.44-.27.76.23,1C165.9,16.71,166.06,16.43,165.62,16ZM147,17.2a.84.84,0,0,0,0-1.27A7.69,7.69,0,0,1,147,17.2Zm-69.4-12a.67.67,0,0,0-.42-.5.26.26,0,0,0-.17.1c.05.23.13.45.4.5C77.44,5.26,77.51,5.18,77.58,5.15Zm0,22.92c0-.06-.1-.15-.14-.15-.3,0-.36.24-.43.45,0,0,.08.15.12.15C77.38,28.48,77.48,28.27,77.57,28.07ZM142.78,15a2,2,0,0,0,0-1.26A2.33,2.33,0,0,0,142.78,15Zm0,4.31a1.75,1.75,0,0,0,0-1.15A2,2,0,0,0,142.8,19.32ZM164.65,17c.35-.13.33-.38.22-.65-.05-.1-.2-.18-.26-.09a.61.61,0,0,0,0,.65S164.62,16.94,164.65,17Zm-20.85.34a2.94,2.94,0,0,0-.06-1.42A1.35,1.35,0,0,0,143.8,17.32Zm-1-1.37a1.43,1.43,0,0,0,0,1.27A2,2,0,0,0,142.77,16Zm-1,.12a1.74,1.74,0,0,0,0,1.1A1.66,1.66,0,0,0,141.81,16.07ZM139,16h-.08v1.06H139ZM10,18.14a1.36,1.36,0,0,0-1,0A1.72,1.72,0,0,0,10,18.14ZM9.17,15c.27.06.53.18.78-.06A1,1,0,0,0,9.17,15Zm68.61,7.69c-.24-.12-.41-.37-.74-.28A.47.47,0,0,0,77.78,22.73Zm0-12.29a.45.45,0,0,0-.71.27C77.37,10.81,77.53,10.55,77.76,10.44Zm-59.54,1.9.22.21c0-.06.09-.14.07-.18s-.11-.09-.17-.13S18.22,12.22,18.22,12.34Zm128.66,1.94a.73.73,0,0,0,0,.73C147.05,14.82,147,14.62,146.88,14.28ZM18.36,20.65c0,.07-.13.15-.14.25s.1.08.17,0,.12-.1.13-.16S18.47,20.61,18.36,20.65ZM161.74,16.2c-.15.31-.16.53,0,.73A.69.69,0,0,0,161.74,16.2Zm1,0a.57.57,0,0,0,0,.72A.65.65,0,0,0,162.72,16.22Zm1,.69s.06-.06.07-.09a.87.87,0,0,0-.05-.55s-.06,0-.07,0a.68.68,0,0,0,0,.54S163.66,16.89,163.68,16.91Zm-16.82,2a.72.72,0,0,0,0-.72C146.71,18.34,146.77,18.54,146.86,18.87ZM74.22,10.42l.11-.18h-.2a.15.15,0,0,0,0,.1C74.1,10.46,74.14,10.48,74.22,10.42Zm-61.8,3.32-.17.09a.53.53,0,0,0,.2.07.47.47,0,0,0,.19-.06C12.62,13.72,12.5,13.75,12.42,13.74Zm1,1.06s0-.06-.05-.07a.87.87,0,0,0-.23,0c-.09,0-.07.09.06.1A1.7,1.7,0,0,0,13.41,14.8Zm0,3.6s0-.06-.05-.06a.59.59,0,0,0-.23,0c-.09,0-.06.09.06.1A.85.85,0,0,0,13.4,18.4Zm-.73.9a1.53,1.53,0,0,0-.36,0c-.12,0-.13.08,0,.12a.42.42,0,0,0,.22,0S12.6,19.36,12.67,19.3Zm61.5,3.39a.8.8,0,0,0-.07.2s.05.06.08.07.17,0,.14-.08A1.25,1.25,0,0,0,74.17,22.69Zm5.62,5c-.13,0-.22.07-.21.22a.23.23,0,0,0,.07.09l.28-.18Zm.15-22.24a.79.79,0,0,0-.14-.18c-.14-.11-.21,0-.2.11s.09.13.14.14A.4.4,0,0,0,79.94,5.42Zm66.68,7.73s0-.07,0-.08a.21.21,0,0,0-.11,0c-.09,0-.08.09,0,.12S146.58,13.16,146.62,13.15Zm.09.49-.07-.1a1.8,1.8,0,0,0-.08.21s0,.06.06.09ZM13.39,14l-.18.07s.06,0,.08,0a1.39,1.39,0,0,0,.19-.06ZM81.33,5.65s-.08,0-.1,0,0,.06.06.07S81.32,5.67,81.33,5.65ZM13.39,19.17l.09-.06a1.07,1.07,0,0,0-.19-.07s-.06,0-.09.05Zm133.25.15s-.07.06-.07.09a.8.8,0,0,0,.05.21s.08-.06.08-.08A1.41,1.41,0,0,0,146.64,19.32Zm-.19.7s0,.06,0,.07.08,0,.1,0,.09-.1,0-.12S146.48,20,146.45,20ZM48.26,22.34h0v.1Zm0-11.51,0-.11,0,.11Zm33.1,16.68a.15.15,0,0,0,0-.06.18.18,0,0,0-.1,0c-.06,0,0,.07.07.08ZM76.08,4.4l0,.08h.08Zm-1,6.09.05-.06-.07,0Zm1-.1,0,.08h.07ZM14.91,12.15l-.06,0v.05Zm-.06,8.91.05,0h-.07Zm60.21,1.66.06,0v-.07Zm1.06,0-.06,0v.08Zm0,6-.07-.05v.08Z"/><path d="M55.31,10.81c0,.33-.22.46-.54.5s-.91-.21-1.31.18c-.08.07-.24,0-.28-.12s-.11-.45.09-.52c.62-.21,1.3,0,1.92-.23A1.32,1.32,0,0,1,55.31,10.81Z"/><path d="M69.92,10.39c.41-.26.7.26,1.09.19a.43.43,0,0,1,.09.29.32.32,0,0,1-.25.19c-.49-.08-1-.18-1.46-.28-.1,0-.13-.08-.11-.18s0-.24.19-.25S69.77,10.38,69.92,10.39Z"/><path d="M55.31,22.37c-.06.12-.14.24-.26.19a3.38,3.38,0,0,0-1.48-.14.38.38,0,0,1-.41-.54c.1-.35.27-.17.51-.08a4.2,4.2,0,0,0,1.13.06A.48.48,0,0,1,55.31,22.37Z"/><path d="M69.28,22.53a2.82,2.82,0,0,1,1.79-.31.19.19,0,0,1,0,.3,2.43,2.43,0,0,1-1.7.22S69.31,22.6,69.28,22.53Z"/><path d="M183.56,14.74c.18.08.4.16.36.39s-.32.43-.59.45-.35-.15-.35-.38S183.32,14.83,183.56,14.74Z"/><path d="M183,18c0-.23.13-.4.34-.39a.57.57,0,0,1,.6.45c0,.24-.17.34-.35.38A.58.58,0,0,1,183,18Z"/></g></g></svg>