<svg xmlns="http://www.w3.org/2000/svg" viewBox="0 0 121.59 24.73"><title>Euphausia</title><g id="Layer_2" data-name="Layer 2"><g id="Euphausia"><path d="M37.89,10.8a25.45,25.45,0,0,0-3.16,1.51c-.15.11-.3.19-.4,0-.43-.64-.57-.48-.61.18,0,.17-.23.19-.4.16s-.2-.38-.32-.56c-.1,0-.14,0-.2.09s.08.67-.35.64-.35-.38-.39-.66c0,0-.1-.1-.16-.15-.3,0-.21.26-.28.43-.16.41-.43.27-.64.06-.38-.41-.65-.46-.76.18,0,.19,0,.45-.24.46s-.27-.3-.31-.52-.06-.23-.12-.48c-.36.42-.72,1.05-1.15.17-.06-.12-.45-.26-.42.17,0,.22.06.41-.22.44a.38.38,0,0,1-.45-.29c0-.15,0-.36-.22-.38s-.48-.19-.52.2c-.09.78-.37.51-.68.14-.07-.08-.15-.41-.2-.18-.09.43-.51.42-.67.72-.26.52-.28.51-.71,0,0,.06-.09.11-.09.16,0,.72,0,.71-.47,1.66-.35.72-.41,1.59-1.29,2a1.12,1.12,0,0,1-.15-1.09A21.91,21.91,0,0,1,23.93,11a3.7,3.7,0,0,0,1.6.28A36,36,0,0,1,30.05,11a11.78,11.78,0,0,0,1.68,0A6.79,6.79,0,0,0,36,9.81a12,12,0,0,0-2.72.55,5,5,0,0,1-1.94.47,35.07,35.07,0,0,1-5.71-.27A1.51,1.51,0,0,0,24,11c-.41.12-.86.18-1,.73,0,.11-.12.27-.24.2-.71-.43-.38.13-.48.42-.27.77-.46-.12-.71-.08s0,.27,0,.4.05.34-.1.44-.35,0-.45-.21-.15-.16-.27-.08a.18.18,0,0,0,0,.3,3.06,3.06,0,0,1,.21.29c.14.21.25.45,0,.64s-.35-.06-.52-.15-.27-.12-.41-.18c-.23.33.12.52.15.78,0,.43.45.77.42,1.22s-.36.55-.25,1-.41.43-.67.51-.44-.22-.47-.44c-.38-2.4.35-5.43,3.32-6.29a19.22,19.22,0,0,0,2.14-.93l.28-.1s-.07,0-.09,0l-.17.16c-1.11-.08-2.22-.2-3.33-.21-1.31,0-2.61.33-3.93.22-.42,0-.87.12-1.19-.34-.17-.24-.42-.09-.65,0A46.61,46.61,0,0,0,3.65,15.88,14.8,14.8,0,0,0,.78,18.54a1.52,1.52,0,0,1-.33.34A.28.28,0,0,1,0,18.82a.33.33,0,0,1,0-.32,10.51,10.51,0,0,1,1.71-2,64.34,64.34,0,0,1,7.47-5.1c2.08-1.18,4.33-2,6.5-2.93a6.69,6.69,0,0,1,1-.27,2.25,2.25,0,0,0-1.22-.51c-.39-.06-.76,0-1.06-.39-.15-.18-.51-.23-.74.18s-.93.53-1.36.86c-.09.06-.23,0-.31-.1a.26.26,0,0,1,0-.41c.24-.2.5-.39.75-.58-.48-.87-.47-.84-1.21-.36a10.21,10.21,0,0,0-2,2,.77.77,0,0,1,.1-1.11,5.67,5.67,0,0,0,1-1.06l.08,0,0,0-.08.12a2.15,2.15,0,0,0-1.24.34,27.29,27.29,0,0,0-7.78,4.81c-.15.13-.25.32-.49.28-.25-.33-.1-.58.16-.83A20.35,20.35,0,0,1,3.66,9.55a28.33,28.33,0,0,1,6.55-3.46,5,5,0,0,0-2.7.28,14.7,14.7,0,0,0-6.1,3.35c-.15.14-.3.44-.58.18s0-.43.13-.59a11.22,11.22,0,0,1,3-2.18,24.78,24.78,0,0,1,7.45-2.39,2,2,0,0,0,.24,0c.54-.14.62-.4.26-.83a4.83,4.83,0,0,0-1.44-1,.79.79,0,0,1,1.18-.06A7.27,7.27,0,0,0,16.46,4a2.69,2.69,0,0,1,1.4.12c.49.29,1-.23,1.35.12s.52.71,1.08.71a5.55,5.55,0,0,1,1.38-3.72c1.12-1.25,2.65-1.74,4-.51.5.45,1,1,1.44,1.43.14.14.29.27.44.4.53.44.85.33,1-.32,0-.15,0-.32,0-.48,0-.38.18-.55.61-.51A10.64,10.64,0,0,0,33.68.75,4.78,4.78,0,0,1,36.74,1a11.06,11.06,0,0,0,6,.13A9.39,9.39,0,0,1,46.21,1,7.48,7.48,0,0,0,49.16.82c.73-.17,1.47-.33,2.21-.47a2,2,0,0,1,2,.52c.29.3.59.41.84-.08.17-.32.52-.35.84-.36a39.24,39.24,0,0,1,4.06.12A47.07,47.07,0,0,0,64,.89a24,24,0,0,1,4.78.24c1.87.34,3.77.5,5.61,1,1.61.43,3.19,1,4.81,1.33a15.44,15.44,0,0,1,4,1,13.88,13.88,0,0,0,4,1,34.1,34.1,0,0,1,4.84,1.26,20.45,20.45,0,0,0,4,.85c2,.25,3.91.71,5.86,1.08.48.09,1,.1,1.42.21.81.2,1.79,0,2.38.87a.81.81,0,0,0,.42.22c2.55.68,4.78,2.11,7.15,3.21s4.88,2.11,7.23,3.36a6.37,6.37,0,0,1,.72.41c.33.25.25.4-.33.65.19.32.67.38.74.8-.28.45-.66.31-1.06.23a31.57,31.57,0,0,0-3.45-.85c-.07-.1-.1-.31-.28-.11l.3.08a6.75,6.75,0,0,0,1.29.83c.27.18.54.32.65.67s0,.63-.43.55a41.07,41.07,0,0,1-4.34-1.21,42.35,42.35,0,0,1-8.08-3.45,1.32,1.32,0,0,0-.78-.21c-.08,0-.18,0-.24,0-1.38-.94-2.75-.06-4.1.07a17.12,17.12,0,0,1-6.26-.52A6.19,6.19,0,0,1,92,13.31a.37.37,0,0,0-.44-.08c-.67.41-1.49.38-2.17.88a5.72,5.72,0,0,1-4.54,1,1,1,0,0,0-1,.32c-.67.69-1.32,1.4-2,2-.51.45-1.14.71-1.38,1.49-.09.28-.83.51-1.26.49a.67.67,0,0,1-.37-1.15c1.26-1.41,2.23-3.11,4-4,.73-.39,1.26-1.08,2.1-1.32-.81-.76-.79-.74-1.7-.19-2,1.24-4.13,2.3-6.54,2.15a4.05,4.05,0,0,0-2.9.87c-.62.46-1.38.75-1.57,1.65-.06.3-1.66.74-2,.59s-.21-.33-.12-.52a3.91,3.91,0,0,1,.76-1.18c.57-.6,1.1-1.24,1.65-1.86l.06-.05,0,.07a7.69,7.69,0,0,0-2,.16,3.7,3.7,0,0,1-1.89-.12,1.35,1.35,0,0,0-1.5.43,9.43,9.43,0,0,1-1.17,1,5,5,0,0,0-.53.49c-.34.44,0,1.51-1.13,1.21-.31.66-1,.71-1.57.85a.4.4,0,0,0-.27.11c-.15.17-.28.48-.55.32s-.15-.47,0-.73A6.43,6.43,0,0,1,63.23,16a4.56,4.56,0,0,0,1-1.23c-1.35.09-2.72.57-3.84-.52a6.28,6.28,0,0,1-1.15.91,3.28,3.28,0,0,0-1.92,1.92c-.1.29-.32.36-.5.06s-.25,0-.27.07c-.25.77-1.18.35-1.55.89-.45-.32-.66-.08-.84.32-.08.16-.23.36-.46.21s-.18-.31-.08-.52a5.3,5.3,0,0,1,1.12-1.53l1.07-1c-.26-.15-.41-.37-.69-.39,0-.09.06-.24-.14-.14l.17.12c0,.21-.1.44-.32.44s-.66-.41-.87.19c0,.15-.27,0-.38-.13s-.28-.22-.38.1c-.17.54-.51.54-.67,0s-.53-.45-.77-.19A10.11,10.11,0,0,0,50,17.33a9.45,9.45,0,0,1-1.15,1.22c-.38.44-.41-.26-.46-.57l.07-.05-.05.07a1.21,1.21,0,0,0-.45.79c-.06.21-.11.42-.36.37s-.22-.28-.21-.48a1,1,0,0,0-.05-.22c-.33.43-.38,1-.87,1.46-.37-.3-.24-.62-.12-1A8,8,0,0,1,49,15.47c.4-.33.85-.6,1.24-.92s.7-.63.51-1-.19-1.09-.93-1.07a.4.4,0,0,1-.4-.21c-.07-.13-.16-.13-.28-.06a.22.22,0,0,0-.12.3c.32.44.17,1,.4,1.47.13.29,0,.6-.42.7a4.55,4.55,0,0,0-.66.17c-.66.28-.65.3-1-.31,0,.06-.06.12-.07.17-.08.28.17.78-.25.79s-.23-.48-.3-.76a4.37,4.37,0,0,1,0-.68c-1,1.14-2.22,1.78-3,2.87-.13.19-.23.29-.45.24-.73-.17-.19.82-.69.78a1.17,1.17,0,0,0-1.08.23,3.83,3.83,0,0,1-1.12.7A25.59,25.59,0,0,0,37,20c-.81.26-1.76.23-2.39.94-.55-.35-.85.71-1.44.24-.14-.11-.21.11-.23.29-.08.63-.09.63-.55.33s-.65-.26-.63.25-.2.52-.56.47c-.07-.15.06-.43-.25-.44a.25.25,0,0,0-.15.13c.06.21.19.34.43.28-.37.59-.37.59-1.13.18-.16,1-.43,1.2-1.8.95a5.07,5.07,0,0,1,2.78-3,9.58,9.58,0,0,1,3.37-1,6.77,6.77,0,0,0,2.48-.78c.75-.35,1.49-.72,2.25-1.06.22-.11.44-.19.39-.5a1,1,0,0,0,.69-.06,15,15,0,0,0,4.1-2.92c-.32-.11-.47-.37-.8-.11-.84.66-1.74,1.25-2.6,1.87-.1.07-.29,0-.25.3s-.22.54-.6.42-.44.25-.52.53c-.69-.32-1.13.63-1.81.38-.28.69-.89.21-1.32.37,0-.06,0-.23-.14-.13l.16.1c0,.62-.29.67-.71.32-.14-.12-.21-.34-.42-.1s0,.41-.25.48a.54.54,0,0,1-.61-.2c-.14-.14-.16.25-.37.24a.93.93,0,0,1-.51-.26l0,0,.07,0c-.13.21-.32.42-.56.28s-.57-.39-.85.1c-.13.23-.4.12-.61-.06s-.21-.36-.42,0c-.34.52-.48-.23-.73-.16s-.05.62-.35.8c-.07,0-.22,0-.32-.07-.42-.11-.49-.1-.39.22s.12.63-.38.5c-.2-.05-.38,0-.35.16.11.53.06.79-.57.52-.22-.1-.22.1-.22.27,0,.66,0,.66-.57.41l-.3-.13c-.22.42-.07.63.26.91s.6.69-.15.85c-.07,0-.08,0,0-.07l0,.06c.27.69-.29,1.11-.55,1.61-.1.2-.36.07-.44-.15a2.25,2.25,0,0,1-.25-.91,4.4,4.4,0,0,0,0-1c-.29-1.41.5-2.31,1.43-3.17s1.66-1.57,2.64-2.5a1.4,1.4,0,0,0-1.4.44c-.3.33-.5.33-.72,0-.05-.08,0-.27-.2-.18a.49.49,0,0,0-.21.27c0,.32.57,1-.43.68a.29.29,0,0,0-.1.18c.25.94-.59.82-1.05,1.08,0,0-.06,0-.1,0a3.56,3.56,0,0,1,2.95-3.62c-.22-.34-.31-.89-.85-.31-.22.23-.36.21-.53-.06s-.7-.42-.8-.92c-.45.44,0,.65.05.91s.1.32-.07.42a.3.3,0,0,1-.42-.08.83.83,0,0,1-.18-.3c0-.13-.11-.19-.22-.08s-.17.15-.06.29.3.27.3.5-.32.31-.49.46c0-.2-.11-.22-.25-.23l0-.06.06,0c0,.13.07.24.23.25,0,.19,0,.43-.27.47s-.87,0-.47.67a14.27,14.27,0,0,1-1,1.18c-.13.13-.29-.08-.35-.21a1.16,1.16,0,0,1,0-.82A12.83,12.83,0,0,1,25.2,14a.76.76,0,0,1,.82-.34c.79.12,1.58.21,2.36.3a11.05,11.05,0,0,0,7.27-1.15c.55-.33,1.08-.69,1.64-1a1,1,0,0,0,.57-1.09c0-.06.26.05.13-.15ZM28,19.64c.14,0,.2-.12.25-.24l.24-.24.06,0,0,.07-.24.24c-.11,0-.22.09-.24.23l-.08.06ZM42,17,42,17,42,17l-.11.09Zm.72-.48.08-.06,0,.09-.1.05,0,0Zm.73-.46a.29.29,0,0,0,.23-.26c.15,0,.24-.08.23-.25a.82.82,0,0,0,.74-.44l.24-.26.1,0s0-.05,0-.07l-.1.14c-.14,0-.29,0-.23.26-.38-.08-.57.17-.74.44a.28.28,0,0,0-.23.25c-.14,0-.25.08-.23.25s-.23-.07-.14.13Zm-2.41-1s.1-.06,0,0l-.07,0Zm-3.59-.23.05,0-.05,0c0,.08,0,.08-.07,0Zm4.32-.25a.23.23,0,0,0,.23-.24.54.54,0,0,0,.48-.22l.25-.25.08-.05s0,0,0-.05l-.09.12c-.14,0-.26.08-.24.26-.18,0-.41,0-.48.22-.14,0-.24.09-.24.24l-.1,0s0,0,0,.05Zm-3.6-.24.05,0-.05.05,0,0Zm.71-.48c.14,0,.2-.12.24-.24l.09,0,0,0-.09.12c-.12,0-.23.09-.24.23l-.08.07Zm3.61-.72.08,0,0,0-.11.11c0,.08,0,.08-.07,0Zm10.29-6L53,6.91l.24-.25c.16,0,.19-.12.25-.22s.19-.13.24-.24l.07-.06,0,.08-.24.24-.26.23L53,6.93l-.24.25-.25.25c-.23,0-.49.09-.66-.14,0-.06,0-.27.07-.3a7.81,7.81,0,0,0,1.5-1.37c.2-.2.37-.18.62,0s.45.39.71.07a.74.74,0,0,0,.09-.79,2,2,0,0,0-1.2-1.25c-.94-.27-.94-.28-.92-1.27s-.19-1.26-1.25-1.16A1.86,1.86,0,0,0,51,1.3a15.42,15.42,0,0,1-5.77.62A9.44,9.44,0,0,0,42.37,2a10,10,0,0,1-5.65-.15,4.36,4.36,0,0,0-3.57,0c-.16.09-.4,0-.59.09a19.78,19.78,0,0,1-2.92.3c1,1.74,1.17,3.42.28,4.91.52.63,1,1.22,1.49,1.79a1,1,0,0,0,.84.4,6.91,6.91,0,0,0,2.13-.12A8.42,8.42,0,0,1,40,9.38a21.39,21.39,0,0,0,8.13.87,9,9,0,0,0,3-.65,5.14,5.14,0,0,0,3-2.68c.17,0,.23-.09.27-.22a1.88,1.88,0,0,0,.12-.18s0,0,0-.07l-.06.28c-.19-.06-.24.07-.27.21l-1,.87A10,10,0,0,1,51.35,9.2c-.24.13-.54.3-.71,0s.16-.41.36-.52A3.17,3.17,0,0,0,52.48,7.4C52.65,7.39,52.76,7.35,52.73,7.15ZM40,12.92a1.1,1.1,0,0,0,.16-.15s0-.06,0-.09l-.13.26C40,13,40,13,40,13Zm17,2.4c.18,0,.39,0,.52-.17a4.32,4.32,0,0,0,2.12-1.24l.09-.07s0,0,0-.06l-.06.16a3.51,3.51,0,0,0-2.22,1.13.44.44,0,0,0-.45.26c0,.08,0,.09-.07,0ZM40.77,17.77a2.16,2.16,0,0,0-.35,0c-.06,0,0,.11.07.12a.22.22,0,0,0,.26-.18c0-.07.26,0,.11-.16Zm68.62-3.88c.19.3.48.25.76.22,0,.07,0,.17.09.19,1.4.58,2.68,1.37,4,2,.18.09.37.28.55.2.64-.28,1.15.15,1.72.26a9.61,9.61,0,0,0,1.58.4,24.72,24.72,0,0,0-8-3.06c-.19-.32-.51-.16-.76-.22-.14-.23-.3-.33-.54-.07Zm-65.75-.73a.47.47,0,0,0,.2-.1.89.89,0,0,0,.15-.27.22.22,0,0,0-.1,0,.21.21,0,0,0-.23.2.93.93,0,0,0,0,.23c0,.09-.06.09-.06,0S43.5,13.24,43.64,13.16ZM53.7,2.36c.25,0,.31-.15.36-.34C54.06,2,54,2,54,2c-.3,0-.25.22-.25.41s-.28.13-.07.29Zm-19,8.89a4.88,4.88,0,0,0,2.92-1.36,14,14,0,0,0-2.89,1.39l-.23,0-.25.08a1.17,1.17,0,0,0,.32,0C34.67,11.4,34.71,11.3,34.75,11.25Zm37.68,4.32a5.59,5.59,0,0,0,2.1-1.27c.28-.25.43-.53.06-.92-.7.79-1.66,1.26-2.14,2.22-.08,0-.25,0-.12.15Zm8.14,1.65a.56.56,0,0,0,.55-.13,7.34,7.34,0,0,0,2.35-2.48c.13.07.22,0,.31-.08s0-.08-.07-.08-.23,0-.23.18a5.32,5.32,0,0,0-2.88,2.62l0,.07Zm-16.51-.91a13.24,13.24,0,0,0,3.06-2.41.5.5,0,0,0,0-.75A10.53,10.53,0,0,0,64,16.22s0,.08,0,.11ZM33.8,14.62c-.45-.11-1.08.16-1.06.49,0,.14-.07.44.25.44s.42,0,.35-.28.15-.58.49-.68c.51.74,1,1,1.61.69a18.06,18.06,0,0,0,4.12-3c-.27,0-.43-.1-.55-.06a21.25,21.25,0,0,0-3.52,2.1c0,.64-.32.65-.76.4S34.1,14.71,33.8,14.62Zm80.88,0a.19.19,0,0,0,.22.2s0-.07.08-.11l-.32-.06c-3.06-1.45-6-3.3-9.32-4.22,0,.61.06,1.22.49,1.37.87.29,1.53,1,2.46,1.12a21.78,21.78,0,0,1,2.4.65A23,23,0,0,0,114.68,14.6Zm1.92,3.85c0,.16.12.2.24.19s.14-.09.09-.11a2,2,0,0,0-.34-.06c0-.19-.17-.26-.3-.33-1.09-.57-2.19-1.12-3.26-1.71a20.17,20.17,0,0,0-5-2.15c-.54-.13-.54-.13-1.19.36a3.91,3.91,0,0,0,.47.36,41.3,41.3,0,0,0,8,3.19A2.39,2.39,0,0,0,116.6,18.45Zm-89-14.4c-.27-.35-.39-.84-1-1A6.69,6.69,0,0,1,25.23,6.6c1.24,0,1.48-.2,1.57-1.28.05-.6.1-1.12.79-1.3.46.7,0,1.39-.06,2.08a1.3,1.3,0,0,1-1.19,1.28,2.14,2.14,0,0,0-1.23.44c.23.15.69-.07.71.29s-.43.37-.73.36a22.75,22.75,0,0,0-3.31-.12c-.47.05-1-.3-1.56-.18-.74.15-1.47.32-2.21.46-.31.06-.68-.05-.86.4a11.66,11.66,0,0,1,2.63-.19c1.63,0,3.27,0,4.91,0,.7,0,1.55.13,2-.75A.22.22,0,0,1,27,8a.48.48,0,0,1,.3.48c-.05.37-.39.56-.66.83h3.74A1.05,1.05,0,0,0,30.26,9a4.32,4.32,0,0,0-1.14-.84c-.82-.58-.84-.84-.09-1.52A1.11,1.11,0,0,0,29.46,6a4.21,4.21,0,0,0-.32-2.77,1.46,1.46,0,0,0-.73.63A.65.65,0,0,1,27.57,4.05Zm30.71,9.6a7.85,7.85,0,0,0,2.23-1.1,2.87,2.87,0,0,1-3.31-1.64,1,1,0,0,0-.7-.6,3.24,3.24,0,0,1-1.73-1c-.51-.5-.85-.36-1.3,0a6.81,6.81,0,0,1-3,1.47,19.46,19.46,0,0,1-4.37.5,7.67,7.67,0,0,0-1,0c-.45.05-.8.54-.55.9s-.17.78.12,1.1a2.22,2.22,0,0,0,.48-.17c.3-.23.36-.74.89-.69s.64.42.9.71c.5.55,1.13.38,1.37-.36a2.11,2.11,0,0,0,0-.36c.15-.87.46-1.06,1.31-.87a1.63,1.63,0,0,1,1.43,1.23c0,.2.19.41.42.33a.48.48,0,0,0,.3-.65c-.08-.19-.17-.36-.25-.54s-.08-.32.09-.4a.4.4,0,0,1,.34,0,1.13,1.13,0,0,1,.2,1.84,1.36,1.36,0,0,1-.48.34.75.75,0,0,0-.47.86c1.47-.1,2-1.18,2.36-2.47a1.15,1.15,0,0,1,.24,1.32,7.21,7.21,0,0,1-.77,1.15c1.08-.16,1.26-.31,1.28-1.14A2.13,2.13,0,0,1,55,11.68c.52.84-.29,1.62.08,2.36,1.18-.39,1.18-.39,1-1.58a.6.6,0,0,0-.06-.11.25.25,0,0,1,.15-.37.32.32,0,0,1,.42.12c.17.35.31.71.48,1.12.39-.22.83-.09,1.16-.36.16-.12.35-.27.52-.07s-.07.41-.19.59l-.17.3a3.29,3.29,0,0,0-2,.72c-.15.08-.5.19-.21.51s.35.07.51,0Zm35.06-.74.06.09-.09-.07c0-.3-.43-.9.09-.82s1.19-.26,1.71.15c.16.13.36.27.32.47s-.34.23-.57.18a1.28,1.28,0,0,0-.33-.11c-.14,0-.33,0-.35.2s0,.32.18.38l1.48.43c.12,0,.26,0,.31-.1.28-.73.43-.53.59.06.08.25.37.3.61.31a16.46,16.46,0,0,0,5.68-.42c.35-.11.6-.2.55-.61a1.78,1.78,0,0,1,.66-1.59c.41-.36.08-.83.07-1.24s-.46-.33-.76-.39c-1.94-.38-3.87-.81-5.83-1.13s-3.64-.6-5.44-1a4,4,0,0,0,0,3.3,5,5,0,0,1,.06.95C92.44,12.51,92.69,12.91,93.34,12.91ZM55.08,1.23a2.86,2.86,0,0,1-.17,1.07c-.38.6-.16,1,.26,1.4a2.18,2.18,0,0,1,.45,2.53A10.9,10.9,0,0,1,54.72,8a3.36,3.36,0,0,0,1.94,1.38,2.32,2.32,0,0,1,1.13.85c.23.32.48.63.72.95.59.76,1.31.61,2.06.32,1.13-.43,1.33-.6,1.28-1.57a11.42,11.42,0,0,1,.6-4.23,1.85,1.85,0,0,0,.07-1.18,5,5,0,0,1-.21-2.13c0-.52-.18-.64-.67-.74-1-.22-2.09-.07-3.09-.28A17.51,17.51,0,0,0,55.08,1.23ZM76.92,3.72c-2-.62-4-1-6-1.47-.72-.17-.76-.14-1,.57-.12.37-.23.75-.34,1.13a8.16,8.16,0,0,0,1,6.48,4.48,4.48,0,0,0,2.44,2,2.54,2.54,0,0,0,2.59-.73,1.94,1.94,0,0,0,.51-2.18,2.76,2.76,0,0,0-.42-.84,2.08,2.08,0,0,1-.11-1.94C76.11,5.77,76.5,4.77,76.92,3.72Zm-8.21.34c.14-.47.27-.8.34-1.15.11-.64-.08-1-.7-1C67,2,65.74,1.6,64.41,1.67c-1.07.06-1.25.19-1.3,1.28a1.91,1.91,0,0,0,.06.59,4.92,4.92,0,0,1-.09,3.28,1.81,1.81,0,0,0,.29,2,1.53,1.53,0,0,1,.29.51A4.48,4.48,0,0,0,66.11,12a1.72,1.72,0,0,0,2.3-.53A3,3,0,0,0,69,9.28a19.29,19.29,0,0,1-.41-3.79,1.27,1.27,0,0,0-.1-1c-.12.28,0,.6-.22.82a.4.4,0,0,1-.42.15.29.29,0,0,1-.15-.4,3.14,3.14,0,0,0,0-2.22c-.06-.16.09-.3.25-.35a.28.28,0,0,1,.36.2C68.45,3.12,68.55,3.53,68.71,4.06Zm12.13,8.4c1.22.12,1.76-.57,2.43-1.06a1.06,1.06,0,0,0,.37-1.26,3.78,3.78,0,0,0-.31-.64,2.26,2.26,0,0,1,.21-2.77,1,1,0,0,0,.16-.31c.31-.65.3-.65-.35-.94a16.47,16.47,0,0,0-4.58-1.2c-.86-.11-1.18,0-1.45.81a17,17,0,0,1-.79,2,1,1,0,0,0,0,1.12,3.82,3.82,0,0,1,.68,1.87,1,1,0,0,0,.2.54A4.13,4.13,0,0,0,80.84,12.46Zm7.46.47a6.13,6.13,0,0,0,2.26-.27,1.13,1.13,0,0,0,.61-1.85,4.78,4.78,0,0,0-.47-.54.74.74,0,0,1,0-1.15,3.1,3.1,0,0,0,.55-1c.19-.51,0-.71-.45-.87a31.57,31.57,0,0,0-5-1.12,1.07,1.07,0,0,0-1.25.65,2.1,2.1,0,0,1-.36.62A1.23,1.23,0,0,0,84,8.87c.25.59.69,1.16.62,1.78-.09.85.37,1.2.95,1.6A4,4,0,0,0,88.3,12.93Zm-22.2.13a1.77,1.77,0,0,0-2-.42,2.85,2.85,0,0,1-1.06.08,3.72,3.72,0,0,0-1.4.2c-.32.12-.81.07-.82.52s.41.63.78.8a1.45,1.45,0,0,0,.82.08c.71-.1,1.4-.27,2.11-.35A2.2,2.2,0,0,0,66.1,13.06ZM40.84,13a13.64,13.64,0,0,1-2.69,2.16,5.1,5.1,0,0,1-2.21,1.07c-1.22,0-2.35.66-3.58.44a.24.24,0,0,0-.29.27,7.64,7.64,0,0,1,1.07,0,9.05,9.05,0,0,0,5.45-1.24,10.3,10.3,0,0,0,2.89-2C41.09,13.67,41,13.33,40.84,13Zm39.54.29a4,4,0,0,1-1.5-.41,3.07,3.07,0,0,0-2.71.15c-.33.12-.7.28-.57.76s.53.54.94.5.93-.16,1.39-.25A6.63,6.63,0,0,0,80.38,13.33ZM44.2,11a6.62,6.62,0,0,1-3.3-.49A1.31,1.31,0,0,0,39,11c-.05.07-.21,0-.18.23.81.31,1.59,1,2.53.15.32-.28.67-.06.83.34.08.2-.09.47.16.62C43.56,12,43.56,12,44.2,11ZM68,13.56a6.41,6.41,0,0,0,4.84-.26C70.7,12.21,69.13,12.3,68,13.56ZM12.9,4.4a9.33,9.33,0,0,1,.43,1.36c.09.59.43.71.93.65.23,0,.46-.12.7-.14.66,0,.56-.51.58-.94s-.35-.56-.71-.52A7.79,7.79,0,0,1,12.9,4.4Zm4.88,2.06c.27-.2.83.27.88-.44,0-.51,0-1-.67-1a7.73,7.73,0,0,1-.8-.19c-.77-.1-.89,0-.87.8,0,.38.13.59.51.64S17.44,6.39,17.78,6.46ZM88.11,14c-1.36-.12-2.49-1-3.69-.09C85.4,14.82,86.28,14.86,88.11,14Zm18.68-.59c-.16-.15-.25-.3-.39-.36a8.59,8.59,0,0,0-1.1-.42c-.22-.07-.42-.46-.7-.13a.78.78,0,0,0,0,.9c.34.77.69.9,1.49.54A1.42,1.42,0,0,0,106.79,13.36ZM51.16,15.09c-1.46.22-2.06,1.24-3,2.19A7.29,7.29,0,0,0,51.16,15.09ZM16.47,7.2c1.24.57,2.21.89,3.24.33C18.75,7.06,17.72,7.25,16.47,7.2Zm45.12,4.94a4.86,4.86,0,0,0,2.67-.35c-.15-.09-.28-.24-.34-.21C63.18,11.91,62.3,11.54,61.59,12.14ZM28.72,10l0-.12h-3V10Zm-9-4.11a2.29,2.29,0,0,0-.06.32c0,.44.25.52.61.48.14,0,.35,0,.37-.18s-.16-.49-.47-.56C20,5.89,19.9,5.76,19.71,5.87Zm12.7,11.69a3.27,3.27,0,0,0,1.86,0Zm44.18-5.44a.83.83,0,0,0,.91-.3s-.11-.24-.2-.25C76.91,11.49,76.85,11.88,76.59,12.12ZM69.21,12l1.35-.08A1.47,1.47,0,0,0,69.21,12Zm-5.92-1.25c-.09-.14-.16-.36-.38-.32s-.2.21-.22.36.18.2.31.2S63.31,11,63.29,10.75Zm-32.4,4.66c0-.09,0-.24-.21-.19a.49.49,0,0,0-.29.32c-.07.16,0,.21.15.21S30.9,15.65,30.89,15.41Zm-1.14.18c-.07-.16-.2-.3-.36-.22s-.19.22-.28.34a2.44,2.44,0,0,0,.46.07C29.66,15.78,29.83,15.79,29.75,15.59Zm16.49-2.38a1.09,1.09,0,0,0-.66.9C46,13.88,46.26,13.71,46.24,13.21ZM38.83,10c-.1,0-.19,0-.17.09s-.4.33-.09.41S38.9,10.21,38.83,10Zm-7.17,5.36c-.05.16.07.19.18.22a.18.18,0,0,0,.23-.15.19.19,0,0,0-.17-.23C31.78,15.12,31.71,15.21,31.66,15.31Zm-.57,1.63a.58.58,0,0,0-.18-.11c-.18,0-.24.14-.32.27s.11.09.17.09A.33.33,0,0,0,31.09,16.94ZM30,11.64s-.06-.05-.09-.05H29.7s.06.05.09.05A1.62,1.62,0,0,0,30,11.64Zm-5.23.82c0-.15.07-.23,0-.28a.27.27,0,0,0-.17-.12s-.1.09-.09.1S24.69,12.33,24.78,12.46Zm16.6-.36a.66.66,0,0,0-.09.19c0,.12.07.14.14.05a.71.71,0,0,0,0-.21S41.41,12.11,41.38,12.1ZM31.07,21.48s-.05-.07-.07-.07l-.18.06.18.08S31,21.5,31.07,21.48Zm7.31-2.64s0-.05,0-.06l-.09,0s0,.06,0,.06Zm-7.63-1s0-.05,0-.05a.2.2,0,0,0-.11,0s0,.06,0,.06Zm18.06-3.81,0,.08,0,0Zm59.37-.48.11,0a.33.33,0,0,0-.1-.06l-.1,0ZM69.89,10.88s-.08,0-.11,0-.13.07,0,.12a.15.15,0,0,0,.11,0S69.88,10.9,69.89,10.88ZM31.27,10a.89.89,0,0,0-.19-.07s0,0-.08.07.06.07.08.07S31.2,10,31.27,10ZM15.93,7s0,.07,0,.07a.14.14,0,0,0,.11,0c.1,0,.09-.07,0-.1S16,7,15.93,7Zm5.25.32.08,0s-.05-.07-.07-.07-.05,0-.07,0Zm39.92,5-.08,0v.07Zm54.42,2.59,0,.05h.06Zm-74.16,2.5,0-.07h-.09Zm77.26,0,0-.06h-.07Zm1.71-.1,0,.07h.07Zm-80.9,1,0,.06h.07Zm-.48.23-.05.08H39Z"/><path d="M49.64,12.69a.46.46,0,0,1,.45.42.35.35,0,0,1-.16.27.41.41,0,0,1-.52-.34C49.36,12.89,49.44,12.75,49.64,12.69Z"/><path d="M31.14,4.19a1.77,1.77,0,0,0-.38-1.38.23.23,0,0,1,.07-.39.45.45,0,0,1,.34,0c.77.4,1,2.68.28,3.25a.35.35,0,0,1-.33,0c-.08,0-.19-.21-.16-.27A2.58,2.58,0,0,0,31.14,4.19Z"/><path d="M32.83,3.33c-.06.4.25,1.07-.32,1.1s-.43-.64-.4-1-.25-.84.19-.92.25.57.48.8l.07.09Z"/><path d="M53,4.8c.23,0,.42-.47.68-.12s0,.44-.17.6a3.66,3.66,0,0,1-.57.4c-.21.12-.48.18-.6-.08s.21-.36.37-.51L52.78,5c.14,0,.19-.12.23-.23Z"/><path d="M32.85,3.35c-.13-.47-.2-.92.43-1.13.25-.09.43-.11.55.19S34,3,33.59,3s-.38.53-.76.37Z"/><path d="M52.7,5.09c-.24,0-.48-.07-.48-.38a.56.56,0,0,1,.47-.6c.53,0,.24.43.3.69l0,0c-.15,0-.21.1-.23.23Z"/><path d="M34.74,2.45c0,.17-.19.19-.35.15a.31.31,0,0,1-.27-.33c0-.18.21-.22.37-.18A.29.29,0,0,1,34.74,2.45Z"/><path d="M60.45,2.4c-.06-.46.19-.6.57-.45a1.15,1.15,0,0,1,.63.68,5.78,5.78,0,0,1,.21,2.71.32.32,0,0,1-.3.31c-.23,0-.3-.22-.25-.44a4.47,4.47,0,0,0-.18-2.12.58.58,0,0,0-.47-.48l0,0c0-.18-.13-.23-.27-.27Z"/><path d="M60.66,2.61c0,.23,0,.47,0,.7s0,.43-.21.48-.29-.19-.34-.37c-.09-.38-.22-.35-.61-.25S59,2.69,59,2.34s.17-.31.49-.37c.52-.1.65.29,1,.43l0,0a.32.32,0,0,0,.27.27Z"/><path d="M58.49,2.12c.07,0,.2.11.22.18a.25.25,0,0,1-.27.29.33.33,0,0,1-.23-.19C58.13,2.18,58.32,2.17,58.49,2.12Z"/><path d="M103.18,10.84a1.82,1.82,0,0,1-.54,1.3.34.34,0,0,1-.43,0c-.17-.1-.13-.27-.06-.41.16-.35.35-.69.52-1a.29.29,0,0,1,.26-.18C103.15,10.57,103.13,10.76,103.18,10.84Z"/><path d="M100.76,10.58c-.17,0-.5,0-.47-.33s.48-.47.8-.56c.14,0,.32.16.27.31S101.26,10.66,100.76,10.58Z"/><path d="M102.21,10.92c0,.27-.12.53-.47.5a.28.28,0,0,1-.23-.34c.07-.26.14-.56.5-.53C102.2,10.57,102.2,10.76,102.21,10.92Z"/><path d="M75.58,4.73a5.15,5.15,0,0,1-.92,2.05.37.37,0,0,1-.52.09.33.33,0,0,1,0-.52A4.89,4.89,0,0,0,75,4.55c.08-.21.09-.54.43-.44S75.57,4.44,75.58,4.73Z"/><path d="M73.15,4.07a1.93,1.93,0,0,1,.51-.27c.25,0,.59-.1.68.28a.91.91,0,0,1-.28.86c-.14.15-.3.08-.43,0-.29-.21-.56-.45-.46-.87Z"/><path d="M73.17,4.05c-.23,0-.43.47-.68.11a.34.34,0,0,1,.22-.55c.37-.1.49.12.44.46Z"/><path d="M67.62,3.82a.4.4,0,0,1-.19.4c-.17.11-.29,0-.41-.11s-.53-.45-.8-.65-.66-.07-.51-.48.56-.41.86-.45S67.61,3.33,67.62,3.82Z"/><path d="M82.33,5.84c.44.1.44.34.44.59a6.19,6.19,0,0,1-.4,1.84c-.06.19-.18.4-.42.31s-.2-.33-.16-.52C82,7.34,82.14,6.61,82.33,5.84Z"/><path d="M80.94,5.72a.75.75,0,0,1,.68,1c-.08.19-.16.4-.4.37S81,6.88,81,6.68s0-.38-.28-.32c-.16,0-.27-.17-.23-.32A.38.38,0,0,1,80.94,5.72Z"/><path d="M80.36,5.29c0,.23-.13.39-.36.38a.28.28,0,0,1-.25-.33.56.56,0,0,1,.32-.3C80.23,5,80.35,5.12,80.36,5.29Z"/><path d="M89,9.18c0-.11,0-.23,0-.35,0-.37-.08-.94.5-.84.42.07.24.58.18.91a3.36,3.36,0,0,1-.14.45c-.07.22-.08.52-.42.42S88.9,9.41,89,9.18Z"/><path d="M87.78,7.89c0-.26-.08-.63.31-.65s.34.32.34.54-.06.58-.43.56S87.81,8.06,87.78,7.89Z"/><path d="M87.26,7.29c-.05.17-.16.34-.31.33a.34.34,0,0,1-.31-.42A.28.28,0,0,1,87,7C87.17,7,87.24,7.13,87.26,7.29Z"/><path d="M54.68,10.55c-.09-.39-.78-.05-.73-.59a.39.39,0,0,1,.16-.3c.45-.2.72.18,1,.38a1.13,1.13,0,0,1,.31.34c.15.19.31.42,0,.6s-.36-.06-.53-.16l-.07-.07-.23-.22Z"/><path d="M55,10.82c0,.22.08.55-.24.56a.55.55,0,0,1-.55-.53c0-.34.27-.32.51-.3l0,0,.23.22Z"/></g></g></svg>