<svg xmlns="http://www.w3.org/2000/svg" viewBox="0 0 40.39 56"><title>Evadne</title><g id="Layer_2" data-name="Layer 2"><g id="Evadne"><path d="M35.32,10.36c-.13.29.18,1.12-.64.53-.23-.17-.41-.12-.43.11,0,.51-.49.3-.71.48a1,1,0,0,1,.21.09c.35.25,1,.3.69,1s-.74,1.07-1.41.88A11.27,11.27,0,0,0,30,13.32c-.06.2.06.31.16.29a6.54,6.54,0,0,1,3.28.32,3.93,3.93,0,0,0,2,.31.39.39,0,0,1,.48.26c.07.3-.15.41-.4.47a2.77,2.77,0,0,0-2,1.59,6.65,6.65,0,0,1,1,1.24c.1.22.24.47,0,.65s-.39-.11-.52-.27l-.3-.38C33,17,33,17,32,17.52c0,.41.42.56.67.78a4.17,4.17,0,0,1,.92,1.09.39.39,0,0,1-.07.54c-.21.13-.35-.06-.47-.23a5.91,5.91,0,0,0-1.62-1.57,1,1,0,0,0-1.4.11,21,21,0,0,1,1.2,3.59,10.88,10.88,0,0,1,0,4.85,37.54,37.54,0,0,1-2.41,8.46,48,48,0,0,1-6.53,11.09,18.53,18.53,0,0,1-2,2.09,48.73,48.73,0,0,0-3.56,4,3.63,3.63,0,0,0-1.11,2.81,1.85,1.85,0,0,1,0,.47.35.35,0,0,1-.39.36.35.35,0,0,1-.36-.39,6.23,6.23,0,0,0-.49-2.45A5.48,5.48,0,0,0,13,50.92c-.88-.87-1.74-1.76-2.62-2.63a15.77,15.77,0,0,1-3.61-4.86C5.56,40.6,4.13,37.84,3,34.93A40.77,40.77,0,0,1,.65,26,40.79,40.79,0,0,1,0,18.6,23.32,23.32,0,0,1,3.91,6,17.87,17.87,0,0,1,9.23.75,5.63,5.63,0,0,1,11.38.11,7.09,7.09,0,0,1,16,.76c.86.5,1.74,1,2.6,1.46a6,6,0,0,1,1.63,1.39,1.16,1.16,0,0,1,.17,1.53,11,11,0,0,0-1.08,2.63,1.09,1.09,0,0,0-.06.81c.29-.05.32-.27.39-.51a3.08,3.08,0,0,1,1.71-1.74,10.1,10.1,0,0,0,2.69-1.68,5.73,5.73,0,0,1,1.87-1,23.86,23.86,0,0,1,6.28-1.77c1.48-.18,2.94-.12,4.41-.18a1.63,1.63,0,0,1,1.29.42c-.1.47-.44.34-.68.33-1.12,0-2.23,0-3.35,0a16.13,16.13,0,0,0-4.2.65c1.07,0,2.13-.26,3.2-.19a24.71,24.71,0,0,1,3.42.49c.26.06.46.19.38.49s-.33.22-.57.17A17.14,17.14,0,0,0,25.76,5a3.25,3.25,0,0,0,2.16-.22,14.57,14.57,0,0,1,7.64.33,2.15,2.15,0,0,1,.45.14.38.38,0,0,1,.21.4c-.06.26-.29.25-.48.2a10.21,10.21,0,0,0-2.19-.49c-.39,0-.76-.2-1.17-.21a30.59,30.59,0,0,0-3.58.06c.27.52.79.36,1.19.45a22.28,22.28,0,0,1,7,3.24c.86.57,1.69,1.2,2.52,1.81a4.85,4.85,0,0,1,.7.66c.17.18.29.43.07.63s-.42,0-.59-.17a25.33,25.33,0,0,0-7.07-4.58A1.7,1.7,0,0,0,31.92,7a.22.22,0,0,0-.32-.16s0,.06-.06.09A.43.43,0,0,0,32,7c0,.29.25.36.45.47A27.83,27.83,0,0,1,39,13c.29.31.92.74.46,1.14s-.67-.39-1-.68a43.93,43.93,0,0,0-3.18-3.07L35,10.15l0-.05.06,0C35.09,10.26,35.14,10.38,35.32,10.36Zm-1.23-.95a.36.36,0,0,0,0,.11l.07,0-.14-.11c-.09-.24-.29-.25-.5-.21,0-.2-.11-.3-.22-.38a22.55,22.55,0,0,0-3.83-2.16,4.36,4.36,0,0,0-2.22-.34c-.22,0-.48,0-.48.36a7.89,7.89,0,0,1,1.85.43A47.08,47.08,0,0,1,33.59,9.2C33.7,9.4,33.9,9.38,34.09,9.41ZM16.33,43c-.08,0-.09,0,0-.07l0,.07c.16.3.31.28.45,0a4.82,4.82,0,0,0,1.11.41,1.6,1.6,0,0,1,1.49,1.32c0,.1,0,.31.27.25,0-.4,0-.8,0-1.2a2.07,2.07,0,0,0-1.12-1.65,2.17,2.17,0,0,0-1.4,0c-.33.15-.24.55-.32.85Zm5-5.28c-.29.17-.23.33,0,.48a2.08,2.08,0,0,0,.23,1.14c.11.21.28.34.46.25.59-.29,1.28-.12,1.92-.31a1,1,0,0,0-1-.77c-.55,0-1.06-.26-1.61-.29l0-.53c.08,0,.23.07.14-.12ZM19.7,35.13h-.77c-.18-.75.54-1.31.46-2.13a4.4,4.4,0,0,0-1.86,1.48A2.62,2.62,0,0,0,19,35.1c.23.19.47.37.72,0,.26-.09.28-.28.21-.51a.54.54,0,0,0,.46-.59c0-1,0-2.09,0-3.3a10.65,10.65,0,0,0-.91.64c-.22.19-.36.44,0,.66a1.22,1.22,0,0,1,.53,1.8c-.12.22,0,.54,0,.81C19.67,34.72,19.69,34.93,19.7,35.13Zm2.15-5.53c-.32.18-.53.42-.39.82,0,0,.06.07.09.06.41-.14.24-.5.3-.78a.25.25,0,0,0,0-.12c.23,0,.23-.15.11-.31ZM26.4,7.75c.31.12.12,1,.91.5a3.9,3.9,0,0,0-.5-.36,2,2,0,0,0-.44-.12.85.85,0,0,0-1.23-.36ZM24.47,27.43l.05,0-.06,0c-.26-.73-.26-.73-1.37-.65a1.08,1.08,0,0,0,.14.86A1.73,1.73,0,0,1,24.47,27.43ZM30,8.48a.41.41,0,0,0,.64,0L30,8.5c-.66-.69-1.57-.68-2.4-1C28.14,8.61,29.09,8.45,30,8.48ZM21.6,33.18A2,2,0,0,1,22,33a.73.73,0,0,0,.72-.64.79.79,0,0,0-.61-1c-.12.64-.58,1.14-.52,1.81,0,0-.08,0-.11,0s0,.05,0,.07Zm-6.49-4.33a1.58,1.58,0,0,0,1.2-.61c.13-.13.31-.29.13-.5s-.31-.48-.62-.49-.33.2-.4.38a2.44,2.44,0,0,0-.29,1.24c-.12.05-.13.08-.05.08S15.1,28.88,15.11,28.85Zm17-18.71c0,.18.16.22.32.18s0-.05.07-.08l-.41-.07a5.46,5.46,0,0,0-3.17-1,.46.46,0,0,0-.52.44,12.56,12.56,0,0,1,2.44.33A3.09,3.09,0,0,0,32.16,10.14Zm-8.43-3.4A4.68,4.68,0,0,0,26.45,6a1.88,1.88,0,0,0-2.7.79l0,0Zm-.45,26.44c.6,0,1.13-.22,1.16-.89a3.13,3.13,0,0,0-.28-1.13.42.42,0,0,0-.46-.3c-.24.06-.5.32-.36.52.44.64-.17,1.22,0,1.82l-.12.07h.06A.2.2,0,0,0,23.28,33.18Zm1.65-21.87a3.86,3.86,0,0,0,1.91-.44,1.88,1.88,0,0,1,1.49-.23c1,.34,2-.18,3,.18a6.73,6.73,0,0,0-3-.62c-.74.11-1.46.29-2.19.46a1.53,1.53,0,0,0-1.18.68.31.31,0,0,0-.09.07s0,0,0,.07S25,11.41,24.93,11.31Zm-4.52,33.4a4.82,4.82,0,0,0,2.32-1.58c-1.65-.55-2.36,0-2.29,1.6h-.06Zm-.52-4-.05-.16s0,.05,0,.06l.09.07c0,.36.08.72-.3,1s-.23.4,0,.56.33.68.81.52,1.22-1.25,1.07-1.69-.74-.28-1.13-.37A1.49,1.49,0,0,0,19.89,40.67Zm4.83.42a27.17,27.17,0,0,0,1.93-3.61,2.23,2.23,0,0,0,.45-1.19c.06,0,.23.05.12-.13l-.1.16a2.36,2.36,0,0,0-.94.86,12.6,12.6,0,0,0-1.38,1.73,5.54,5.54,0,0,0-.06,2.2l-.06,0ZM23.27,14c-.17.1-.41.32-.5.27-.75-.4-1.7-.3-2.28-1-.2.35-.39.65-.56,1s-.39.5,0,.84a.65.65,0,0,0,.91.17A3.61,3.61,0,0,1,24.11,15a2.69,2.69,0,0,0,2.44-.21,1.58,1.58,0,0,0-1.68-.26c-.88.31-1.12.18-1.63-.62a15.29,15.29,0,0,0,1.66,0,.6.6,0,0,0,.6-.61c0-.3-.36-.25-.56-.35a.81.81,0,0,0-1.24.45A2.53,2.53,0,0,1,23.27,14Zm-2.15-1.93c.55-.25.77-.78,1.07-1.24a4,4,0,0,1,1.5-1.39C24.4,9,25.2,8.83,26,8.4a5.78,5.78,0,0,0-.65-.26c-.34-.11-.68-.2-1-.29-.94-.23-1.21-.09-1.76.75a13.56,13.56,0,0,0-1.42,3.46c0,.08-.06.09-.06,0S21,12.13,21.12,12.05Zm.95,32.65a1.19,1.19,0,0,0-.63.3,22.78,22.78,0,0,1-3.55,1.64c-.76.31-1.1.09-1.29-.7-.05-.19,0-.4-.06-.6a4.71,4.71,0,0,0-1.45-2.67c-.17-.15-.3-.32-.61-.24-1.91.52-3.15-.44-4.25-1.87A35.14,35.14,0,0,1,4.81,28.85a69.87,69.87,0,0,1-1.89-8.7A10.1,10.1,0,0,1,3.08,16a28.34,28.34,0,0,1,1.17-3c.24-.62.65-1.3.45-1.94a7.32,7.32,0,0,1-.17-4c0-.1,0-.15-.15-.09A21.22,21.22,0,0,0,1,18.1a28.42,28.42,0,0,0,.19,5.37c.27,1.89.49,3.78.89,5.65a42.48,42.48,0,0,0,2.6,7.64c.83,2,1.84,3.87,2.72,5.84a17.17,17.17,0,0,0,4.18,5.6,13,13,0,0,1,3.68,4.7c.61-1,1.42-1.77,2-2.65a22,22,0,0,1,2.28-2.45c.75-.77,1.46-1.59,2.17-2.4.17-.2.43-.39.3-.72.11,0,.22.07.16-.12Zm-7.64-3a4,4,0,0,1,0-4c.55-1.35,1.82-1.87,3-2.53-2-1-2.68-2.92-3.25-4.85a1.67,1.67,0,0,1,0-.59,7.81,7.81,0,0,1,2.14-4.43,3.59,3.59,0,0,1,5.69.8c.13.25.12.61.54.71,0-1.13,0-2.25,0-3.37A6.65,6.65,0,0,0,22,21.2a.71.71,0,0,0-.71-.48,3.3,3.3,0,0,0-3.08.84,4,4,0,0,1-1,.67,4.37,4.37,0,0,1-4.11.38c-1.24-.54-2.48-1.06-3.72-1.58a2.57,2.57,0,0,1-1.7-1.86A4.58,4.58,0,0,0,6,16.35a1.44,1.44,0,0,1-.53-1.14,2.56,2.56,0,0,1,2.08-2.9c.26-.08.55-.07.66-.38a1.69,1.69,0,0,1,.38-2.66,2.9,2.9,0,0,1,2.58-.75,1.31,1.31,0,0,0-.51-1.45,7.52,7.52,0,0,1-2-3.84c-.06-.23-.05-.48-.31-.65A5.85,5.85,0,0,0,5.66,5.72a6.89,6.89,0,0,0-.43,4.66,3.67,3.67,0,0,1-.1,2.12c-.26.75-.59,1.47-.9,2.2a7.83,7.83,0,0,0-.78,4.16c.12.82.21,1.65.38,2.47a79.8,79.8,0,0,0,2.42,9.78,31.46,31.46,0,0,0,4.37,8.82,11.42,11.42,0,0,0,1,1.18A2.65,2.65,0,0,0,14.43,41.72ZM9,12.78A5.7,5.7,0,0,0,7.63,13c-1.67.65-2,2.07-.69,3.31a4,4,0,0,1,1.25,2.25A2.38,2.38,0,0,0,9.9,20.5a15.39,15.39,0,0,1,2.94,1.28,4.29,4.29,0,0,0,5.08-1,1.93,1.93,0,0,1,.85-.6A3.59,3.59,0,0,1,20.89,20a8.65,8.65,0,0,0,6.57-1.43,11.67,11.67,0,0,1,1.67-.9A2.7,2.7,0,0,0,30.7,15c-.06-.71-.22-.83-.9-.67A14.58,14.58,0,0,0,27,15.41a3.43,3.43,0,0,1-2.87.33,3.94,3.94,0,0,0-3.86.44,15,15,0,0,1-2.88,1.4,3.57,3.57,0,0,1-5-2.41A3.22,3.22,0,0,0,9,12.78ZM29.12,31.61c.53-1.88.82-3.52,1.16-5.15a12.32,12.32,0,0,0-.8-7.13c-.33-.85-.56-.92-1.31-.39a10.59,10.59,0,0,1-4,1.73c-.5.1-1-.09-1.5.21a1.06,1.06,0,0,0,.33.72,4.79,4.79,0,0,1,3.23-.44,4.12,4.12,0,0,1,3.27,4.56,20.5,20.5,0,0,1-1,3.76.51.51,0,0,0,0,.45C28.63,30.4,28.82,30.86,29.12,31.61ZM18.05,3c-.11.12-.19.17-.2.23a5.19,5.19,0,0,1-1.68,3.57,1.24,1.24,0,0,0-.31,1,2.82,2.82,0,0,1-1.45,2.33c-.22.14-.59,0-.66.43.72.31,1,1,1.31,1.62s1.48.71,1.68.29a15.06,15.06,0,0,0,1.48-3.36,24,24,0,0,0,.24-4.64A2.58,2.58,0,0,0,18.05,3ZM12.05,13a6,6,0,0,1,1.13,2.29,2.38,2.38,0,0,0,2.36,1.77,7.9,7.9,0,0,0,4.29-1.44A3.94,3.94,0,0,1,18,14.37a4,4,0,0,0-1.82-1.07A15.6,15.6,0,0,0,12.05,13Zm9-3-.84-.36c-.77-.35-.92-.32-1.31.39-.25.45-.4,1-.67,1.38s-.94.79-.85,1.35.82.7,1.18,1.11.66.24.9-.19A11.74,11.74,0,0,0,21,10.07Zm-11.29,2a2.38,2.38,0,0,0,.36,0,1.53,1.53,0,0,0,1.42-1.17c.21-.54.41-1.07-.18-1.47a1.76,1.76,0,0,0-1.91,0,2.3,2.3,0,0,0-.49.32,1.15,1.15,0,0,0-.45,1.37C8.72,11.63,9.05,12.15,9.74,12.05Zm24,2.71a7.78,7.78,0,0,0-1.94-.49c-.35-.1-.62,0-.57.5a4,4,0,0,1-.36,2.31A3.81,3.81,0,0,0,33.75,14.76ZM12.87,5.39c0-1.32.41-2.58.34-3.89,0-.58-.29-.77-.83-.64C12,1,12,1.22,12,1.5,11.94,2.88,12.6,4.08,12.87,5.39Zm-.63.51c-.32-1.73-.91-3.2-1-4.78-.92.28-.93.29-.8,1a5.69,5.69,0,0,0,.2.93A7,7,0,0,0,12.24,5.9ZM23.9,40c-.45.06-.84.13-1.24.16-.23,0-.47.21-.42.34.25.64-.48,1.07-.33,1.68C23.59,42.41,24.05,41.93,23.9,40ZM9.73,1.75C9,2,9.1,2.46,9.21,2.92a7.15,7.15,0,0,0,2.24,4c.24-.18.34-.35.14-.61A8.35,8.35,0,0,1,9.73,1.75ZM24,29.8c-.06.25.06.65.31.6a3.67,3.67,0,0,0,1.12-.59c.36-.2.2-.56.2-.85,0-.51-.5-.82-1.19-.79s-.44.45-.35.77A2.36,2.36,0,0,1,24,29.8ZM14.67,5.61a14.37,14.37,0,0,0,1.56-3,.66.66,0,0,0-.09-.78c-.2-.18-.56-.35-.67,0A12.85,12.85,0,0,0,14.67,5.61Zm4,27c-.84-.74-1.53-.77-2-.09a1.44,1.44,0,0,0-.37,1c.05.32.33.48.6.65A8,8,0,0,1,18.71,32.57ZM22,8c.07-.34-.19-.43-.33-.61s-.42-.16-.61-.06a1.54,1.54,0,0,0-.85,1.31c0,.43.27.52.52.68s.52.18.64,0A10.4,10.4,0,0,0,22,8ZM13.75,5.45a.56.56,0,0,0,.36-.57A12.35,12.35,0,0,1,14.74,2a2.85,2.85,0,0,0,.12-.46c0-.36-.25-.45-.56-.47s-.34.14-.35.36C13.91,2.77,13.49,4.09,13.75,5.45Zm3.66,40.7.72-.31c.36-.17.66-.34.59-.86a1,1,0,0,0-.78-.92,1.24,1.24,0,0,0-1,0C17.06,44.73,17.22,45.38,17.41,46.15ZM19.17,41c-.49-.95-.5-.93-1.61-1a.64.64,0,0,0-.68.33.58.58,0,0,0,.17.74C17.52,41.53,18.18,41.52,19.17,41Zm-3.36-8.24A5.27,5.27,0,0,0,16,30.05c0-.38-.4-.44-.74-.43s-.38.33-.37.59A5.66,5.66,0,0,0,15.81,32.74ZM17,2.52a16.73,16.73,0,0,0-.88,1.87c-.21.62-.87,1.1-.65,2A4.06,4.06,0,0,0,17,2.52Zm-2.66,9.74C14.07,11.49,13.64,11,13,11s-1,.62-1.24,1.27Zm6.69,27.63c-.15-.47-.28-.84-.39-1.22s-.17-.45-.47-.41-.67-.14-.7.22-.53.85-.24,1.34.55,0,.83.07S20.65,39.89,21.07,39.89Zm-3.86-3.7c-.88.2-1.29,1-2.07,1.42.64.23.94.84,1.65,1C16.44,37.68,17.48,37.08,17.21,36.19Zm2.64-6-.59-.7c-.41-.49-.67-.45-.88.1s0,1.12-.3,1.63c-.06.11.07.22.19.22s.29,0,.32-.08A3.4,3.4,0,0,1,19.85,30.21Zm8-17.5a.7.7,0,0,0,.93.29,4.32,4.32,0,0,1,2-.25h1.89C31,12.42,29.47,11.77,27.83,12.71ZM26.29,28a1,1,0,0,0,0-1.36c-.38-.52-.93-.38-1.56-.39C25.22,27,25.15,28,26.29,28ZM22.45,11.74c1.14.55,1.14.55,1.84-.43l-.92-1A4.91,4.91,0,0,0,22.45,11.74ZM19.26,37.38c.59.28,1.13.43,1.59-.19.2-.28.65-.48.45-.88s-.7-.16-1.06-.2-.32.19-.43.35Zm6.22-.78,1.7-1.78c-.26-.17-.57-.47-1-.26C25.4,35,25.55,35.73,25.48,36.6Zm-.61-1.22a2.51,2.51,0,0,1-1.42-1.44c0,.88-.54,1.65-.34,2.7C23.58,36,24.17,35.89,24.87,35.38Zm.26-10,.9.28a.94.94,0,0,0,1.31-1.07c0-.16,0-.35-.16-.41s-.49-.11-.55.05C26.39,24.83,25.77,25,25.13,25.34Zm1.41,8.44A1.82,1.82,0,0,1,28,32.42c.32,0,.29-.32.27-.56s-.19-.32-.41-.32-.7-.09-.82.42a1.42,1.42,0,0,1-.52.77C26.1,33.06,26.32,33.4,26.54,33.78Zm-6.46-8.53a1.85,1.85,0,0,0-1.69-.09c-.2.09-.19.67-.29,1.05C19.41,26.21,19.41,26.21,20.08,25.25Zm4.49,11.12c-.34,0-.94.64-.92.87s.61.95.83.93.79-.7.65-1S25,36.4,24.57,36.37Zm1.09-2.76c0-.16.07-.45-.19-.58s-.58.13-.85.27a.56.56,0,0,0-.33.69c.1.36.27.67.73.62S25.67,34.13,25.66,33.61Zm2.56-6.3c-.64,0-1.24.23-1.26.93,0,.53.57.62,1,.88C28,28.45,28.45,27.93,28.22,27.31Zm-10.31-.64c-1,.76-.76,1.93-1.82,2.65h1.27c.31,0,.47-.21.37-.47A2.82,2.82,0,0,1,17.91,26.67Zm4.54,4.12a1.82,1.82,0,0,0,1-2.05.36.36,0,0,0-.32-.3c-.08,0-.25.11-.25.18C22.83,29.34,22.43,30,22.45,30.79Zm4.67-8.6c-.32,0-.43.27-.46.57s.33.8.9.82a.52.52,0,0,0,.56-.35C28.21,23,27.47,22.21,27.12,22.19ZM23.59,26a1.12,1.12,0,0,0,1.09-1.07c0-.3-.28-.35-.53-.33a1,1,0,0,0-.85,1C23.29,25.94,23.54,26,23.59,26Zm2.9,3c-.31.23-.4.65-.18.73.62.24.74,1.36,1.72,1A3.4,3.4,0,0,0,26.49,29Zm-5.94-1.7c-.12.36-.29.68-.4,1s-.67.46-.27.88c.21.24.22.69.67.7Zm1.93,8.35a5.22,5.22,0,0,0,.06-.81c0-.37.25-.88-.23-1s-.4.51-.73.65c0,0-.07.11-.11.18C21.81,34.85,21.9,35.34,22.48,35.61ZM24.12,10c.46.93.95.28,1.42.15.2-.05.39-.11.32-.38a.48.48,0,0,0-.45-.33A1.7,1.7,0,0,0,24.12,10Zm-2.85,3.36c.77-.28,1.42.24,1.94-.4C22,12.16,22,12.16,21.27,13.35ZM19.1,35.91l-.47-.06c-.35,0-.66,0-.61.48,0,.23-.27.56.19.67s.59-.13.75-.42A.73.73,0,0,0,19.1,35.91Zm9.53-9.58-.6-.44a.56.56,0,0,0-.21-.09c-.26-.05-.86.35-.82.56s.35.36.65.34A1.25,1.25,0,0,0,28.63,26.33ZM14.67,39c0,.25.33.57.54.51a.81.81,0,0,0,.57-.56c.07-.21-.52-.73-.75-.63A.62.62,0,0,0,14.67,39Zm3-13.8a4.08,4.08,0,0,0-1.49,1.34c.26.29.5.45.78.08A4,4,0,0,0,17.66,25.24Zm.06,4.85c-.93.07-.93.07-.83,1.29A1.35,1.35,0,0,0,17.72,30.09ZM27.77,9.27c-.29-.35-.62-.28-.93-.27s-.47.18-.37.47.24.49.51.36S27.61,9.65,27.77,9.27Zm.91,16.2a1.53,1.53,0,0,0-.25-1.54C27.86,24.76,27.88,24.93,28.68,25.47ZM16.2,41.19l-.78.76c.2.24.31.73.67.52S16.61,41.72,16.2,41.19Zm5-12.22a3.67,3.67,0,0,0,1-1C21.36,27.51,21.26,27.6,21.21,29ZM15.57,40.72c0-.35-.26-.46-.53-.52s-.36.06-.37.3,0,.69.38.76S15.42,40.93,15.57,40.72Zm6.57-4.44c0,1.38,0,1.38,1.07,1.63C22.87,37.38,22.56,36.91,22.14,36.28Zm5-24.83c.62.76.63.76,1.63,0A3.9,3.9,0,0,0,27.1,11.45ZM23.39,24.14c.15-.59.26-1,.33-1.33s-.07-.54-.31-.55-.37.26-.33.51S23.25,23.52,23.39,24.14Zm-1.86,2.75c-.13-.42-.18-.78-.52-1a.34.34,0,0,0-.51.06.31.31,0,0,0,0,.42A1.34,1.34,0,0,0,21.53,26.89ZM28.35,33a1.53,1.53,0,0,0-1,.62c-.13.18-.2.35.07.46s.38.35.5-.09A7.42,7.42,0,0,1,28.35,33ZM25.23,12.22l.93.37c.25.1.35-.09.42-.27a.32.32,0,0,0-.21-.37A.9.9,0,0,0,25.23,12.22Zm-.91,9.46V23.8c.2-.44.05-.77.29-1C25.22,22.35,24.76,22.1,24.32,21.68ZM26.2,13.9c.36.09.71.21,1.08.27a.4.4,0,0,0,.51-.36c0-.36-.31-.27-.52-.28C26.9,13.52,26.62,13.86,26.2,13.9Zm5.85-2.17a10.78,10.78,0,0,0-1.19-.33,1.68,1.68,0,0,0-1.18.13C30.48,11.34,31.18,12,32.05,11.73ZM19.22,5.42c.53-1,.53-1-.17-1.66C18.91,4.27,19.28,4.69,19.22,5.42Zm6.12,16.34c.14.29.06.77.58.69.22,0,.28-.31.21-.49C26,21.54,25.64,21.72,25.34,21.76Zm-4.09,9.49c-.48.4-.34.82-.29,1.35C21.18,32.15,21.43,31.85,21.25,31.25ZM22.66,6.71c.05-.18,0-.21-.17-.16s-.31.07-.34.26a.24.24,0,0,0,.18.25C22.63,7.12,22.5,6.78,22.66,6.71Zm-6,32.68c-.14.07,0-.09-.08,0a1.23,1.23,0,0,0-.46.33s0,.19,0,.21c.25.17.31-.11.43-.21A.26.26,0,0,0,16.69,39.39ZM21,35.1c-.06,0-.17-.16-.23-.14s-.15.17-.22.26a1.14,1.14,0,0,0,.3.09C20.9,35.31,21.09,35.34,21,35.1ZM32.24,11a1.07,1.07,0,0,0-.19-.07s-.08.06-.13.1.08,0,.11,0ZM29,3.36l.11,0S29,3.27,29,3.27s-.06,0-.1,0ZM32.75,12s0-.07,0-.07a.15.15,0,0,0-.11,0c-.11,0-.09.09,0,.12Zm.23-.77h-.19l.08,0a.17.17,0,0,0,.1,0A.13.13,0,0,1,33,11.21Zm-20.37-1s0,.07,0,.07a.09.09,0,0,0,.1,0c.11,0,.1-.08,0-.1S12.64,10.23,12.61,10.24ZM31.08,6.73l.07-.05s0-.06-.06-.07-.05,0-.07,0Zm0,2.16.06-.08H31Zm2,1.63-.06,0v.06Z"/></g></g></svg>