<svg xmlns="http://www.w3.org/2000/svg" viewBox="0 0 151.24 24.24"><title>FishLarvae</title><g id="Layer_2" data-name="Layer 2"><g id="FishLarvae"><path d="M126.86,15.11a1.47,1.47,0,0,1-.93,2,21.43,21.43,0,0,0-2.54,1.57,5.73,5.73,0,0,1-3.15,1,4.57,4.57,0,0,0-2.74.64c-.45.32-.83,0-1.08-.4a14.62,14.62,0,0,0-2.51-3c-.36.13-.52.47-.78.7a2.21,2.21,0,0,1-1.5.67,12.5,12.5,0,0,0-4.92,1.28,10.31,10.31,0,0,1-5,.57c-.51-.05-1-.15-1.54-.16-1.8,0-3.58-.27-5.36-.39-1.43-.1-2.86-.28-4.29-.31-1.91-.05-3.82-.28-5.74-.26-2.47,0-4.93.4-7.41.26a12.1,12.1,0,0,1-3.25-.6,8.61,8.61,0,0,0-2.59-.33c-2.24-.05-4.49-.16-6.71,0a19.87,19.87,0,0,0-4.48.59,2.3,2.3,0,0,1-1.19.05c-1.82-.42-3.66-.13-5.49-.26-.63-.05-1.26,0-1.9-.12a6.62,6.62,0,0,0-2.39,0,2,2,0,0,1-.59.1c-4.14-.19-8.26.48-12.41.34-1.4,0-2.85.17-4.29.19a1.72,1.72,0,0,0-1.21.43,11.25,11.25,0,0,1-1.79,1.17,1.76,1.76,0,0,1-2.31-.2c-1-1-2-.78-3.09-.46-.34.11-.65.29-1,.42a2,2,0,0,1-2.21-.27,3,3,0,0,0-2-.67,8.72,8.72,0,0,0-4.62.87,8.38,8.38,0,0,1-4.69,1.13,12.21,12.21,0,0,1-1.83-.44,24.93,24.93,0,0,1-4.95-2C1.35,18.68.43,18,.43,16.7c0-.08,0-.19,0-.24-.83-.84-.16-1.31.43-1.81a37.4,37.4,0,0,1,5.51-4.19,12.33,12.33,0,0,1,4.4-1.74A12.86,12.86,0,0,0,13.24,8a12.74,12.74,0,0,1,4.11-.68c1,0,2.07,0,3.11,0a1.9,1.9,0,0,1,.72,0c1.27.63,2.55.17,3.82,0l3.57-.3c2.15-.16,4.3-.39,6.45-.44,2.51-.06,5-.21,7.54-.33C47.67,6.1,52.79,6.1,57.9,6c6.75-.15,13.51,0,20.27,0A15.46,15.46,0,0,0,87.4,3.29c.81-.57,1.63-1.13,2.46-1.69A10.07,10.07,0,0,1,94,.15a11.77,11.77,0,0,1,6.63.87,8.91,8.91,0,0,1,4.77,4.13,1.09,1.09,0,0,0,1,.63c2.19.13,4.38.25,6.57.42s4.2.32,6.3.59c1.81.24,3.62.44,5.42.76,2.11.37,4.23.68,6.29,1.25a6.46,6.46,0,0,0,4.71-.74c3.35-1.58,6.49-3.55,9.8-5.2a10.92,10.92,0,0,1,3.37-1.14,1.92,1.92,0,0,1,2.27,1.45,3.67,3.67,0,0,1-.54,3,11,11,0,0,1-.76.93l-4.07,4.39c-1.12,1.21-1.07,1.67,0,3,.76,1,1.64,1.85,2.48,2.76a5.82,5.82,0,0,1,1.66,3.24,4.39,4.39,0,0,1-.57,2.75,2.34,2.34,0,0,1-3.07.78,15.75,15.75,0,0,1-4.17-2.54c-.87-.71-1.74-1.4-2.66-2-.5-.35-1.1-.46-1.6-.77a13.29,13.29,0,0,1-2.8-2.22,5,5,0,0,0-5.16-1.7A24.82,24.82,0,0,1,126.86,15.11Zm11.6,1.35.23.27a.58.58,0,0,0,.5.22.77.77,0,0,0,.71.49c0,.18.19.25.32.33l5,3.25c.23.15.51.24.57.6-.34.32-.65.12-.95-.07-.91-.57-1.81-1.15-2.71-1.73l-3.88-2.56c.13.77.12.8.29.85A10.29,10.29,0,0,1,142,20.38a18.91,18.91,0,0,0,4.1,2.65,2,2,0,0,0,1.59.31l-.32-.24c-.16-.12-.36-.26-.26-.47s.34-.17.53-.13.37.15.56.2c.45.13.49-.21.62-.51s-.08-.5-.34-.6-.32,0-.47-.08-.49-.21-.43-.49.36-.24.58-.18.43.23.68.13c.23-1.25.06-1.61-1-2l-.78-.29c-.19-.06-.28-.19-.23-.35s.21-.21.39-.2.3.12.4-.13a7.27,7.27,0,0,1-.95-1,3.64,3.64,0,0,0-2.3-1.52c-.3-.09-.53.08-.8,0s-.53-.15-.49-.42.39-.25.59-.16c.38.18.74.4,1.17.05-.39-.68-.64-1.45-1.65-1.26-.09,0-.22-.06-.33-.12s-.3-.17-.2-.36a.44.44,0,0,1,.26-.21,2.81,2.81,0,0,1,.71.07c.21.06.29,0,.33-.21a1.16,1.16,0,0,0,.07-.57c-.1-.27-.32-.06-.5,0s-.51-.09-.53-.35.24-.41.51-.32a1.19,1.19,0,0,0,1.11-.19A5.07,5.07,0,0,0,145.9,10l0,0a4.56,4.56,0,0,0,1.44-1.7c.07,0,.28,0,.09-.15,0,0-.11.08-.07.17-.19-.12-.48-.15-.46-.46s.26-.26.44-.33a1.44,1.44,0,0,1,.32-.13,2.05,2.05,0,0,0,1.73-1.19,4.22,4.22,0,0,1-.65.17c-.23,0-.55.08-.6-.21s.26-.45.53-.5a.83.83,0,0,1,.47,0c.61.2.88-.16,1.07-.62a2,2,0,0,0,.1-1.72l-.15-.16a.83.83,0,0,0-.89-.63,5.31,5.31,0,0,0-2.3.56c-2.8,1.24-5.42,2.84-8.13,4.3.2.34.25.74.77.37a35.94,35.94,0,0,1,7.26-3.56,5.94,5.94,0,0,1,.79-.24.31.31,0,0,1,.39.19.33.33,0,0,1-.22.38c-.32.15-.66.28-1,.41a33.8,33.8,0,0,0-6.94,3.39c-.17.12-.47.17-.38.55a3.38,3.38,0,0,0,.51-.19,33.63,33.63,0,0,1,5.78-2.5c.33-.12.68-.19,1-.28a.22.22,0,0,1,.26.2.53.53,0,0,1,0,.33c-.12.19-.35.15-.53.22a45.19,45.19,0,0,0-4.88,1.9,3.87,3.87,0,0,0-1.36.82c1.46-.49,2.89-1,4.36-1.45.42-.12.83-.26,1.26-.35a.38.38,0,0,1,.42.34c0,.09-.17.25-.3.32s-.31,0-.46.08a41.08,41.08,0,0,0-5.15,1.84,7.33,7.33,0,0,0,2-.42c.35-.07.65-.35,1-.25a.51.51,0,0,1,.26.19c.08.13,0,.24-.12.3a2.11,2.11,0,0,1-.53.24,10.86,10.86,0,0,1-3.6.74c-.27,0-.54,0-.54.44h.61a13.74,13.74,0,0,0,2.39-.13.29.29,0,0,1,.32.28.35.35,0,0,1-.2.27,3.88,3.88,0,0,1-.58.09,18.62,18.62,0,0,1-3.37.27,2.49,2.49,0,0,0,.53.3,10.26,10.26,0,0,0,2.58.39,2.9,2.9,0,0,1,.72,0c.19,0,.38.15.35.39a.35.35,0,0,1-.36.27,6.67,6.67,0,0,1-1.78-.08c-.75-.2-1.53-.33-2.49-.53a2.52,2.52,0,0,0,1.51.82c.86.28,1.75.5,2.63.74.16,0,.32.11.28.31s-.22.21-.37.21a5.5,5.5,0,0,1-1.06-.14,7.15,7.15,0,0,0-2.4-.58c0-.11,0-.25-.16-.13l.18.11A21.81,21.81,0,0,0,143,16.72c.26.1.53.17.78.29s.27.21.15.39-.2.19-.28.17a4.09,4.09,0,0,1-.91-.25c-1-.42-1.95-.86-2.92-1.31-.49-.22-.95-.47-1.43-.71A9.58,9.58,0,0,0,141,17.17c1.57.84,3.17,1.61,4.74,2.46.28.15,1,.22.67.74s-.71,0-1-.18c-1.56-.77-3.09-1.61-4.65-2.4-.27-.14-.5-.41-.86-.32a.72.72,0,0,0-.72-.49c-.07-.28-.29-.24-.5-.22.05-.19-.1-.23-.23-.27l0-.07ZM93.32,4.94l.07-.07,0,.1s-.28,0-.11.18ZM4.51,19.37l.18.11-.2-.09A24.44,24.44,0,0,0,1.26,17,1.39,1.39,0,0,0,2,18.24,15.67,15.67,0,0,0,4.51,19.37ZM25.4,14.31c.6.09.64-.48.92-.77s.41-1.06.85-.81-.16.71-.24,1.09c0,0,.05.12.1.2.38-.46.73-.94,1.14-1.37.25-.27.59-.76,1-.38s-.28.54-.44.81-.81.59-.71,1.21c.75-.75,1.67-1.28,2.44-2a3,3,0,0,0-1.62-.81,1.36,1.36,0,0,0-1.26.19,7.56,7.56,0,0,0-2.12,2.64c-.07,0-.26,0-.09.16ZM115.14,17c0-.12,0-.16,0-.12l.07.09a15.58,15.58,0,0,1,1.7,2c.23.36.28.35.53-.11.16-.28.38-.23.61-.24s.49.37.64.13c.34-.57.68-.36,1.08-.15.2.11.37,0,.48-.21.22-.36.51-.31.81-.1.09.06.16.18.26.24a.49.49,0,0,0,.65-.11c.24-.28-.18-.23-.23-.38a.43.43,0,0,1,0-.45c.14-.17.29,0,.43,0a.59.59,0,0,1,.3.17c.19.23.36.27.58.05s.43-.26.18-.64.07-.53.42-.32c.58.35,1,.09,1.28-.37.09-.13.14-.31.32-.31.83.05.56-.45.44-.89l-1.37.35c-.22,1.17-.93.59-1.47.36-.27-.11-.38,0-.42.15-.14.72-.56.46-1,.33-.22-.07-.35-.36-.63-.25-.05,0-.19-.06-.16.17.09.6,0,.66-.54.51s-.69-.57-1.21-.38c.08.06.13.12.19.16s.49.26.32.54-.48.17-.72,0l-.66-.51c-.17-.13-.33-.34-.57-.09a2.08,2.08,0,0,0,.75.6.36.36,0,0,1,.09.32.27.27,0,0,1-.39.16c-.42-.21-.88-.39-1-.89-.06-.19-.11-.27-.31-.16s-.23.3-.06.45.58.44.86.66.33.31.2.5-.44.14-.63,0c-.37-.3-.72-.63-1.07-1C115.63,17.12,115.48,16.84,115.14,17Zm-83-3.4a4.61,4.61,0,0,0-1.32-1.09c-.29,1-1.45,1.14-1.93,1.94.41.22.64-.1.92-.21a5.15,5.15,0,0,1,2.36-.67c0,.58-.55.59-.93.78-.57.28-1.27.34-1.77,1,.22.06.34.14.42.11a5.8,5.8,0,0,1,1.9-.15c.22,0,.54-.1.55.26s-.26.22-.44.27A6.36,6.36,0,0,1,30,16c-.26,0-.58-.1-.7.27a1.07,1.07,0,0,0,1.05.41c.32,0,.64,0,1,0s.3.08.32.27a.35.35,0,0,1-.23.38,1.53,1.53,0,0,1-.7.07A4.72,4.72,0,0,1,29,17c-.25-.17-.45-.19-.61.05s0,.51.3.62.82.27,1.23.43c.14.05.3.15.23.35a.33.33,0,0,1-.38.21,3.68,3.68,0,0,1-1.66-.56c-.58-.5-.86-.26-1.17.19.4.74,1.29.77,1.83,1.31a.77.77,0,0,1-1,.13,3,3,0,0,1-1.17-.8c-.33-.46-.65-.31-1.05-.16.57.45,1.13.87,1.67,1.32a1.18,1.18,0,0,0,1.34.2,8.15,8.15,0,0,0,4-4.15A2.23,2.23,0,0,0,32.13,13.61ZM90.9,3c.38-.13.31-.6.61-.8a.35.35,0,0,1,.21-.07c.13,0,.18.14.2.26.06.34-.18.6-.27.9s-.47.75-.3,1.27c.45-.28.54-.73.75-1.11s.52-1,.81-1.45c.11-.19.27-.46.55-.23s.12.35,0,.54c-.34.6-.67,1.2-1,1.82.44.15.52-.11.66-.3.4-.55.8-1.09,1.22-1.63a3,3,0,0,1,.51-.5.39.39,0,0,1,.54,0c.19.19,0,.36-.12.5a4.71,4.71,0,0,0-1.35,2,28.16,28.16,0,0,0,2.14-2.09,3.81,3.81,0,0,1,.86-.63.25.25,0,0,1,.32.05.24.24,0,0,1,0,.4c-.27.24-.54.48-.82.7a11.58,11.58,0,0,0-1.6,1.54c.61.18.8-.25,1.07-.51.51-.45,1-.94,1.48-1.4.11-.1.28-.2.42,0a.35.35,0,0,1,0,.53,10.83,10.83,0,0,0-1.49,1.38c.29.31.55.36.86,0a9.51,9.51,0,0,1,2-1.54,2.47,2.47,0,0,1,.76-.34c.08,0,.22.07.29.15a.2.2,0,0,1,0,.31c-.22.16-.47.29-.7.44A7.18,7.18,0,0,0,97.69,4.6c.24.22.43.35.68.17s.64-.48,1-.69a12.86,12.86,0,0,1,1.34-.77.35.35,0,0,1,.5.18c.08.19-.08.29-.21.38a7.38,7.38,0,0,0-.72.41c-.35.28-.87.36-1.06.85a.67.67,0,0,0,.72,0,8.86,8.86,0,0,1,1-.61c.22-.1.49-.47.72-.11s-.21.51-.44.69-.53.17-.6.55c.46.27.76-.31,1.17-.25.16,0,.32,0,.39.2a.27.27,0,0,1-.14.3c-.15.1-.39.16-.16.4.21-.12.42-.25.63-.35s.41-.08.51.13-.08.29-.19.41-.15.17,0,.32c.81-.08,1.85.44,2.19-.89-.31-.24-.78.28-1.06-.18,0-.27.2-.31.36-.41s.3-.31.12-.58-.33-.08-.47,0-.35.25-.52.08,0-.41.08-.62c.2-.48.13-.56-.42-.52-.27,0-.71.15-.58-.28.24-.72.05-.7-.49-.42-.29.14-.67.15-.5-.29.24-.64-.08-.68-.53-.67-.28,0-.55.12-.7-.26s-.54-.5-1-.3c-.25.12-.58.25-.68-.14-.14-.54-.41-.47-.79-.28A.53.53,0,0,1,97.17,1c-.46-.53-1-.35-1.49-.1-.17.09-.31.28-.51.06-.41-.45-.77-.23-1.12.1s-.42.51-.76.08-.51,0-.75.08-.31.34-.57.4a5.36,5.36,0,0,0-2.55,1.18c-.62.54-1.37.87-2,1.37a4.63,4.63,0,0,1-1.39,1,13.38,13.38,0,0,0-1.55.51c-.47.18-1,.3-1.71.52,1.07,0,1.87,0,2.67,0,.17,0,.47.09.48-.17.06-1,.41-.53.76-.19.19.19.35.1.49-.08s0-.57.36-.72c.73.54.73.54,1-.3a.83.83,0,0,1,.16-.31c.21-.2.41-.21.55.1s-.1.43.17.56a2.73,2.73,0,0,0,.31-.91,2.38,2.38,0,0,1,.65-1.38c.36-.32.58-.21.55.29a3.84,3.84,0,0,0-.71,2.06A5.07,5.07,0,0,0,90.9,3Zm-59,9.42,0,0a1.37,1.37,0,0,0,.31.36,2.83,2.83,0,0,1,1.19,2.46,5.55,5.55,0,0,1-.6,2.17h1.51a1,1,0,0,0-.08-.24c-.11-.17-.5-.24-.25-.54a.54.54,0,0,1,.67-.05c.14.08.31.18.35.31.1.28.28.44.52.3s-.1-.37,0-.59,0-.32.28-.35a.92.92,0,0,1,.26.16,2.25,2.25,0,0,0,2.09.8c3.22-.36,6.46-.2,9.69-.41,3.43-.22,6.87-.08,10.3-.26,3.87-.19,7.76-.15,11.63-.21,7.08-.11,14.15-.26,21.23-.31,6.28,0,12.56,0,18.83,0,.63,0,1.47.37,1.67-.75,0-.27.51-.24.71,0,.34.39-.23.48-.32.82,3.36-.39,6.74-.17,10.07-.84-.24-.22-.43-.44-.07-.68s.66-.32.73,0c.21.81.66.51,1.14.4s1.25-.22,1.88-.33a.71.71,0,0,0,.63-.45c.15-.35,1.36-.63,1.57-.34.36.48.79.35,1.17.25a13.23,13.23,0,0,1,2.51-.22,3.41,3.41,0,0,1,1.82.44,9.72,9.72,0,0,1,2.66,2,3.14,3.14,0,0,0,1.49,1.07,5,5,0,0,0-.14-2c-.21-.64-.33-1.31-.48-2-.07-.31-.19-.66.13-.88.59-.41.75-1.11,1.19-1.62a2,2,0,0,0,.32-2.14c-.19-.53-.44-.73-1-.53a9.94,9.94,0,0,0-1.39.68,9,9,0,0,1-3.17,1,16.07,16.07,0,0,1-2.86,0c-2.75-.13-5.5.13-8.24-.29-1.58-.24-3.15-.42-4.74-.57s-3.29-.51-5-.67c-1.11-.1-2.23-.11-3.34-.26-1.9-.26-3.81-.25-5.72-.4-2.39-.19-4.8-.12-7.18-.34C92.66,7,89.42,7.09,86.19,7c-6.4-.2-12.8-.14-19.2-.12-7.51,0-15,0-22.54.26-2.84.1-5.67.27-8.5.34-1.35,0-2.71.12-4.07.23-1.78.15-3.58.23-5.36.44a11.51,11.51,0,0,0-3.47.57c.25.48.49.89.67,1.33.09.2.14.53-.11.65s-.37-.17-.48-.37-.32-.55-.47-.83c-.28-.55-.64-.88-1.33-.67-.27.08-.73.15-.8-.28s-.22-.42-.54-.43a19.29,19.29,0,0,0-6.72.79c-1.06.36-2.14.57-3.22.85a10.39,10.39,0,0,0-1.23.4,32.68,32.68,0,0,0-6.09,4,8.92,8.92,0,0,0-1.8,1.64A38.78,38.78,0,0,0,6.3,19.56a1.75,1.75,0,0,0,.9.29c.38,0,.47-.26.55-.52s-.16-.4-.41-.42a.69.69,0,0,1-.61-.29.34.34,0,0,1-.05-.22c0-.13.13-.25.22-.22.45.16,1,0,1.33.44a1.14,1.14,0,0,1,0,1.34,3.55,3.55,0,0,0-.23.52,1.36,1.36,0,0,0,1.14.29,10.69,10.69,0,0,0,5-1.38,4,4,0,0,1,1.44-.53,23.62,23.62,0,0,1,3.94-.23,3.5,3.5,0,0,0,1.28-.24c1.75-.53,2.64-2,3.55-3.37a1.14,1.14,0,0,0-.06-1.25l-.69-1.11c-.18-.29-.58-.67-.17-.92s.56.32.77.59a5.35,5.35,0,0,0,.92,1.22c.2-.62.84-.88,1.05-1.52-.4,0-.72,0-1-.09s-.42,0-.36-.34.27-.25.47-.21A2.72,2.72,0,0,0,27.6,11a1.49,1.49,0,0,1,1.14-.14A8.42,8.42,0,0,1,31.9,12.42Zm76.53,4.33h-1.31c-6.63,0-13.26,0-19.88.21-3.91.09-7.83,0-11.74.05a5.06,5.06,0,0,0-2.11.31,16.71,16.71,0,0,0,7,.4c.94-.14,1.89-.26,2.85-.31,1.76-.09,3.49.34,5.24.27s3.5.22,5.24,0a2.38,2.38,0,0,1,.84,0,14.37,14.37,0,0,0,2.86.17,43.91,43.91,0,0,1,5.73.21,3.21,3.21,0,0,0,2.11-.15A15.17,15.17,0,0,1,108.43,16.75ZM105.66,6.5a2.24,2.24,0,0,0,1.64.58c.72,0,1.44,0,2.15.07q2.91.3,5.8.67c2.09.26,4.17.54,6.25.86a32.5,32.5,0,0,0,6.9.26,15.22,15.22,0,0,0-1.61-.31c-1-.19-1.94-.4-2.91-.57-1.52-.26-3.06-.39-4.59-.61a39.55,39.55,0,0,0-5.08-.51c-1.76,0-3.48-.4-5.24-.29a1.25,1.25,0,0,1-.47-.07A8,8,0,0,0,105.66,6.5ZM22.17,18.64c.36,0,.56,0,.76,0a9.26,9.26,0,0,0,2.52-.6c1.32-.23,2.26-1.25,3.23-2.13.27-.24.3-.54-.11-.74a3.32,3.32,0,0,0-4.29,1.12A14.53,14.53,0,0,1,22.17,18.64Zm69.26-.21a14.86,14.86,0,0,0,3.35.43,7.6,7.6,0,0,1,1.43,0c2.54.25,5.07.44,7.62.47a7.14,7.14,0,0,0,2.66-.54,12.53,12.53,0,0,1,4.44-1.21,2.5,2.5,0,0,0,1.92-.77c-.43-.22-.73,0-1,.17a3.23,3.23,0,0,1-2.06.46,5.17,5.17,0,0,0-2.89.53,8.18,8.18,0,0,1-4.45.73c-2.33-.17-4.69-.33-7-.3C94.06,18.44,92.74,18.43,91.43,18.43Zm-40.93-1a2.11,2.11,0,0,0,1.33.45c2.47.06,4.93,0,7.4.2a23.71,23.71,0,0,0,5.55-.55,5.63,5.63,0,0,1,1.07-.11,30.12,30.12,0,0,1,5.37.19,1.88,1.88,0,0,0,1,0c-.4-.47-.93-.39-1.45-.39-4,0-8.06,0-12.09.22C56.06,17.55,53.38,17.45,50.5,17.45Zm-17.16.86c5.44,0,10.9-.23,16.36-.55C44.24,17.68,38.8,17.92,33.34,18.31Zm53.26,0v-.09H81.08v.09ZM20.74,19.42c.85.88,1.08.87,2.37,0C22.34,19.05,21.55,19.84,20.74,19.42ZM95,6.37h.25a2.68,2.68,0,0,0,.9-1.31c0-.06-.09-.17-.13-.17-.57,0-.74.49-1,.88a1.09,1.09,0,0,0-.18.31C94.8,6.26,94.9,6.37,95,6.37Zm-1.58,0c1.1,0,.82-1,1.18-1.39C93.83,5.11,93.76,5.78,93.39,6.36Zm2.86,0c.77,0,.86-.56,1.13-.93,0,0-.07-.17-.11-.17-.54,0-.66.44-.9.77C96.33,6.12,96.32,6.2,96.25,6.38ZM80,18.56v-.07H77.71v.07ZM92.21,4.94a1.84,1.84,0,0,0-.4,1.37.2.2,0,0,0,.11,0c.36-.27.28-.71.42-1.06C92.36,5.22,92.29,5.14,92.21,4.94Zm6.52.82c-.61-.11-.84.23-1,.63,0,0,.08.15.14.15.43,0,.54-.36.78-.58C98.67,5.93,98.67,5.89,98.73,5.76Zm1.17.62c.07-.1,0-.16-.07-.18a.44.44,0,0,0-.52.18c-.11.16,0,.19.12.21A.4.4,0,0,0,99.9,6.38Zm-76,12.93c.08,0,.18.05.23,0s.5.15.33-.2S24.09,19.22,23.9,19.31ZM91.06,5.93a.7.7,0,0,0,.06-.19c0-.06-.05-.12-.07-.18a.45.45,0,0,0-.07.18C91,5.8,91,5.86,91.06,5.93Zm-59,12.58s0,.06,0,.06a.41.41,0,0,0,.22,0c.08,0,.06-.08-.06-.09A1.55,1.55,0,0,0,32.06,18.51ZM89.43,5.93l-.05-.09c0,.06-.06.11-.08.17s0,0,.06.08Zm.94,0,0-.11a.47.47,0,0,0-.06.09.45.45,0,0,0,0,.11ZM139.7,9.7l.1,0s-.06-.06-.09-.06-.15,0-.11.08S139.66,9.69,139.7,9.7Zm-12.44,4.49a1.11,1.11,0,0,0-.19-.09s0,.05-.06.08l.17.08S127.23,14.21,127.26,14.19ZM92.93,5.57l0,0V5.55ZM88.41,6l0,.06h.07Z"/><path d="M5.93,14.4a2.83,2.83,0,0,1,1.38-2.53,2.37,2.37,0,0,1,3.13,1,4.81,4.81,0,0,1-.32,3.77,2,2,0,0,1-2,1,1.55,1.55,0,0,1-1.5-1.15C6.36,15.85,5.76,15.22,5.93,14.4Z"/><path d="M58.78,11.7c-.89-.17-1.8.17-2.69-.21-.21-.09-.48-.06-.58-.32a.41.41,0,0,1,.12-.3c.22-.25.41-.13.6.07s.3.12.51.09c1.51-.18,3,0,4.54-.09h.12c.19,0,.43,0,.44.28s-.17.24-.33.27a5.62,5.62,0,0,1-1.29.22C59.74,11.68,59.26,11.7,58.78,11.7Z"/><path d="M50.57,11.7c-.6.1-1.39-.06-2.19.11-.63.13-1-.29-.89-.77s.48-.54.66-.2.52.34.87.28a8.56,8.56,0,0,1,3.77,0c.18,0,.43,0,.43.31s-.27.25-.45.25C52.1,11.71,51.42,11.7,50.57,11.7Z"/><path d="M40.41,11.18a24.38,24.38,0,0,0,3,.31c.24,0,.53.09.51.38s-.4.33-.65.3a8.6,8.6,0,0,0-1.7-.24,12.69,12.69,0,0,0-3.07.24c-.17.06-.45.06-.52-.15s.18-.45.39-.49A8.31,8.31,0,0,1,40.41,11.18Z"/><path d="M76.28,11.46a6.43,6.43,0,0,1,1.64-.06c1.46,0,2.92-.06,4.37-.06.3,0,.18-.29.39-.34s.47,0,.57.24-.08.39-.35.46c-2,.49-4,.15-6,.24-.37,0-.43-.29-.58-.51Z"/><path d="M31.9,12.42c-.06-.32-.18-.62.37-.64,1.3,0,2.6-.2,3.91-.12a1,1,0,0,0,.34-.06c.78-.33.78-.33,1.13.57-2-.16-3.86.28-5.77.22Z"/><path d="M92,11.94H90.43c-.19,0-.43,0-.43-.27s.2-.32.39-.39a2.7,2.7,0,0,1,1.06-.09c.43,0,.87.05,1.3,0,.27,0,.59.06.76-.22.29-.47.53-.21.72.05a.55.55,0,0,1-.36.83,11.07,11.07,0,0,1-1.42.07H92Z"/><path d="M117,12.17c-.09.23-.29.25-.49.25l-3.58-.07c-.23,0-.39-.08-.42-.31a.3.3,0,0,1,.27-.34,15.67,15.67,0,0,1,3.81.12C116.75,11.87,117,11.9,117,12.17Z"/><path d="M87.55,12.15a12.13,12.13,0,0,0-3.18-.21c-.15,0-.34,0-.39-.19s.16-.31.34-.39a1.52,1.52,0,0,1,.93-.14,12.8,12.8,0,0,0,3,.21c.23,0,.53,0,.52.33s-.25.29-.44.33A5.77,5.77,0,0,1,87.55,12.15Z"/><path d="M68.15,15.08a1.25,1.25,0,0,1,1.13-.29,10.6,10.6,0,0,0,3-.2.44.44,0,0,1,.51.2c.15.2.11.45-.12.45C71.21,15.25,69.7,16,68.15,15.08Z"/><path d="M17.05,14.36c-.46-.18-.82-.77-1.39-.29,0,0-.25-.05-.29-.13a.36.36,0,0,1,0-.32,7.41,7.41,0,0,0,1.45-2,.33.33,0,0,1,.51-.11c.18.13.1.29,0,.42a1.75,1.75,0,0,0-.15,1.79A.59.59,0,0,1,17.05,14.36Z"/><path d="M64.59,11.7c-.48,0-1,0-1.44,0a1.26,1.26,0,0,1-.94-.44.38.38,0,0,1,0-.54c.17-.18.42-.19.49,0,.19.53.61.44,1,.43A6.69,6.69,0,0,0,66.21,11c.19-.09.41-.06.46.2a.36.36,0,0,1-.29.45c-.6.06-1.19.07-1.79.11Z"/><path d="M105.28,11.85a.36.36,0,0,1-.37.32l-3,0c-.16,0-.35,0-.38-.21s.18-.33.38-.31c.61,0,1.17-.23,1.77-.24A1.86,1.86,0,0,1,105.28,11.85Z"/><path d="M121.47,12.65a9,9,0,0,0-2.6-.25c-.24,0-.34-.17-.34-.4s.09-.35.28-.29a13.67,13.67,0,0,0,3.19.21c.16,0,.33,0,.35.25a.51.51,0,0,1-.08.32.66.66,0,0,1-.31.16A3.82,3.82,0,0,1,121.47,12.65Z"/><path d="M76.31,11.43A3.91,3.91,0,0,1,74,12c-.54-.07-.68-.3-.51-.79l0,0h1.41a1.45,1.45,0,0,0,.78-.15c.59-.35.6-.33.66.42Z"/><path d="M132.1,12.37a2.72,2.72,0,0,1-1.95.26,5,5,0,0,0-1.4-.14.27.27,0,0,1-.33-.25.3.3,0,0,1,.31-.3,8.42,8.42,0,0,1,1.42,0A6.6,6.6,0,0,1,132.1,12.37Z"/><path d="M70.92,11.74a10.31,10.31,0,0,1-3,.17.2.2,0,0,1-.21-.23c0-.06.07-.18.11-.18C68.84,11.43,69.92,10.78,70.92,11.74Z"/><path d="M45.88,11.93c-.35,0-.7,0-1.06,0a.34.34,0,0,1-.35-.26c0-.19.12-.3.25-.33a4.42,4.42,0,0,1,2.31.06.36.36,0,0,1,.2.25c0,.19-.12.28-.29.29Z"/><path d="M62.84,15.6a3.06,3.06,0,0,1-2.1.41.29.29,0,0,1-.3-.3.36.36,0,0,1,.35-.4c.67,0,1.34,0,2,0Z"/><path d="M22.25,16.29a2.56,2.56,0,0,1-.66-.09c-.21-.07-.46-.18-.47-.47a.42.42,0,0,1,.24-.37c.22-.12.52-.19.64,0,.21.46.58.28.91.32.15,0,.31.08.3.28s-.18.23-.33.25Z"/><path d="M83.89,15.45c-.54.22-1.14.07-1.7.28-.33.13-.53-.3-.51-.61s.27-.3.53-.16a2.47,2.47,0,0,0,1.05,0C83.55,15,83.81,15.05,83.89,15.45Z"/><path d="M65.79,15.71c-.59-.14-1,.29-1.42-.07-.14-.13-.36-.23-.27-.45a.33.33,0,0,1,.41-.15c.33.15.64.27,1,0,0,0,.08,0,.12,0,.3,0,.6.11.61.42C66.21,15.94,65.84,15.7,65.79,15.71Z"/><path d="M109.42,15.57c-.21,0-.35.23-.57.08s-.47-.18-.42-.49.33-.19.54-.17a2,2,0,0,0,.35,0c.42,0,1,.09.91.52C110.16,16.07,109.7,15.63,109.42,15.57Z"/><path d="M22.06,17a1.52,1.52,0,0,1-1.85-.34.34.34,0,0,1-.06-.32.34.34,0,0,1,.29-.13A4.81,4.81,0,0,1,22.06,17Z"/><path d="M73.45,11.16c-.88.88-.88.88-1.9.54.46-.38,1-.44,1.42-.89.16-.2.25.3.46.38Z"/><path d="M19.61,17a2.18,2.18,0,0,1,.94.4c.13.09.11.27,0,.42a.22.22,0,0,1-.3.1c-.26-.16-.62-.15-.8-.45a.51.51,0,0,1-.05-.32C19.43,17.06,19.54,17,19.61,17Z"/><path d="M106.83,12.18c-.24,0-.56-.08-.46-.35a.7.7,0,0,1,.78-.38.36.36,0,0,1,.32.42C107.42,12.28,107.08,12.15,106.83,12.18Z"/><path d="M48.56,16.14c-.12.41-.42.37-.69.35s-.44-.17-.37-.46.34-.26.57-.25A.5.5,0,0,1,48.56,16.14Z"/><path d="M43.34,16.26c.14-.14.17-.18.2-.18.44-.09.9-.27,1.27.15,0,0,0,.17-.07.19A1.32,1.32,0,0,1,43.34,16.26Z"/><path d="M99.67,12.19c-.19,0-.43,0-.43-.28a.38.38,0,0,1,.45-.41c.23.05.61.09.56.46S99.88,12.15,99.67,12.19Z"/><path d="M108.57,12.38c-.25-.05-.56-.1-.58-.45s.26-.25.45-.26.6,0,.6.39C109.05,12.25,108.83,12.38,108.57,12.38Z"/><path d="M54.29,15.68c.07-.07.15-.23.2-.22.32.06.73-.11.89.31a.25.25,0,0,1-.21.35A.82.82,0,0,1,54.29,15.68Z"/><path d="M38,16c.25.15.64.23.65.67,0,.19-.17.32-.3.25-.29-.17-.65-.33-.64-.75C37.68,16.1,37.78,16,38,16Z"/><path d="M79.11,15.46a.39.39,0,0,1-.36.28c-.33,0-.76-.42-.66-.65s.16-.29.36-.17S79.09,15.05,79.11,15.46Z"/><path d="M54.38,10.89c-.17.18-.11.57-.49.55-.2,0-.38-.15-.31-.38a.6.6,0,0,1,.54-.5C54.27,10.55,54.34,10.74,54.38,10.89Z"/><path d="M52,15.65c.24.1.58.07.59.45,0,.14,0,.35-.25.32a.72.72,0,0,1-.62-.47C51.64,15.78,51.81,15.69,52,15.65Z"/><path d="M53.11,15.54a.63.63,0,0,1,.6.41c.06.15-.07.27-.25.3a.55.55,0,0,1-.64-.39C52.76,15.72,52.88,15.57,53.11,15.54Z"/><path d="M40,16.45c0,.29-.2.35-.35.33a.56.56,0,0,1-.52-.55c0-.18.18-.24.34-.23C39.84,16,39.93,16.29,40,16.45Z"/><path d="M110.27,12.18c-.22,0-.53.05-.56-.25s.28-.29.5-.28.53-.07.56.22S110.49,12.15,110.27,12.18Z"/><path d="M125.92,12.21c-.08.24-.28.22-.47.21s-.47-.07-.44-.4c0-.18.13-.33.29-.25S125.86,11.86,125.92,12.21Z"/><path d="M19.32,17.84c-.1.19-.25.33-.47.23s-.51-.13-.47-.44.29-.2.47-.2A.44.44,0,0,1,19.32,17.84Z"/><path d="M73.54,14.55c.3,0,.53.15.54.48a.26.26,0,0,1-.32.24c-.26-.07-.56-.14-.57-.49C73.19,14.58,73.38,14.57,73.54,14.55Z"/><path d="M106.19,15.22c-.09.29-.3.33-.55.3a.32.32,0,0,1-.32-.39.34.34,0,0,1,.4-.32A.47.47,0,0,1,106.19,15.22Z"/><path d="M98,11.48a.32.32,0,0,1-.38.2c-.24,0-.46-.16-.41-.45a.26.26,0,0,1,.35-.21C97.78,11.1,98,11.2,98,11.48Z"/><path d="M100,15.21c0,.16,0,.28-.15.29a.69.69,0,0,1-.74-.43c-.06-.13.08-.22.18-.24A.54.54,0,0,1,100,15.21Z"/><path d="M56.52,15.32c.24.1.55.13.58.47s-.18.22-.33.23a.47.47,0,0,1-.54-.36C56.2,15.53,56.33,15.37,56.52,15.32Z"/><path d="M46.46,16.19a.46.46,0,0,1-.61.27c-.17-.05-.28-.17-.23-.35a.34.34,0,0,1,.45-.25C46.24,15.91,46.44,16,46.46,16.19Z"/><path d="M127,12.43c-.19,0-.44,0-.49-.23s.18-.29.38-.29.44,0,.49.21S127.21,12.43,127,12.43Z"/><path d="M111.9,11.7c0,.17,0,.39-.26.44s-.31-.14-.32-.35.08-.39.31-.41S111.89,11.51,111.9,11.7Z"/><path d="M118.07,12c0,.17,0,.44-.27.41s-.26-.26-.25-.46,0-.44.28-.41S118.05,11.76,118.07,12Z"/><path d="M94.39,14.89c.13,0,.24-.11.34-.09a.49.49,0,0,1,.5.52.23.23,0,0,1-.12.18c-.27.08-.42-.14-.59-.29S94.44,15,94.39,14.89Z"/><path d="M97.67,15.07c-.19.35-.49.22-.74.2a.24.24,0,0,1-.22-.33c.14-.23.42-.18.65-.15A.31.31,0,0,1,97.67,15.07Z"/><path d="M95.25,11.39c0,.16-.07.29-.26.29a.45.45,0,0,1-.44-.3.27.27,0,0,1,.2-.35C95,11,95.15,11.17,95.25,11.39Z"/><path d="M124.08,12.11c0,.08-.08.22-.17.26s-.56-.19-.56-.43a.22.22,0,0,1,.21-.23C123.85,11.67,124,11.85,124.08,12.11Z"/><path d="M91.08,15.49a.49.49,0,0,1-.39-.5.21.21,0,0,1,.25-.18c.25.06.46.16.41.46A.27.27,0,0,1,91.08,15.49Z"/><path d="M98.81,15.07c0,.2-.18.23-.33.23s-.32,0-.32-.24.17-.26.32-.25S98.79,14.86,98.81,15.07Z"/><path d="M134,12.14c.06.16,0,.21-.15.25a.26.26,0,0,1-.37-.14c0-.07.08-.22.16-.27S133.91,12,134,12.14Z"/><path d="M150.29,3.36c-.25.66-.92.6-1.43.8-.05,0-.19-.12-.25-.21s0-.22.11-.29a2.32,2.32,0,0,1,1.42-.46Z"/><path d="M145.9,10c-.48,0-1,.19-1.5-.18a1.5,1.5,0,0,1,1.22-.42c.38,0,.28.36.26.63Z"/><path d="M146.4,18.14a.26.26,0,0,1-.32.25c-.26-.06-.58-.12-.64-.43s.2-.29.4-.28S146.37,17.79,146.4,18.14Z"/></g></g></svg>