<svg xmlns="http://www.w3.org/2000/svg" viewBox="0 0 76.41 21.92"><title>FishLarvaeYolk</title><g id="Layer_2" data-name="Layer 2"><g id="FishLarvaeYolk"><path d="M64.37,13.48a6.94,6.94,0,0,1-.76,4.89,3.35,3.35,0,0,1-2.23,1.69,43.27,43.27,0,0,1-8.52,1.68c-1.31.09-2.65-.08-4,.07a22.83,22.83,0,0,1-4.13,0c-2.46-.19-5,.32-7.38-.35a9,9,0,0,1-5.2-3.35c-.43-.61-1-1.13-1.45-1.74a3,3,0,0,1,1.8-4.76,14.18,14.18,0,0,1,3.05-.5c.37,0,.8-.07.75-.53a.68.68,0,0,0-.82-.64,15.46,15.46,0,0,1-1.8,0,1.57,1.57,0,0,0-1.69.8c-.37.69-1.47.79-2.38.44a4.06,4.06,0,0,1-1.78-1.35.64.64,0,0,0-.8-.28,4.05,4.05,0,0,0-1.86.72,1.75,1.75,0,0,1-1.7.28,3.5,3.5,0,0,0-1.64,0,8,8,0,0,1-4.16-.78,3.4,3.4,0,0,1-1.24-.68,2.93,2.93,0,0,0-2.79-.52,3.64,3.64,0,0,1-.71.12,4,4,0,0,0-3.89,1.8,5.76,5.76,0,0,1-2,1.74c-2.12,1.08-3,.93-4.51-.48A8.67,8.67,0,0,1,0,6.47a4.22,4.22,0,0,1,.58-2.4A8.6,8.6,0,0,1,1.89,2.2a1.78,1.78,0,0,1,2.48-.31A25.16,25.16,0,0,1,6.58,3.52a4.45,4.45,0,0,0,2.77.91c1.36,0,2.72.07,4.08,0s2.77-.26,4.15-.48c2.11-.34,4.22-.75,6.34-1.1.49-.08.74-.17.75-.79A1.87,1.87,0,0,1,26.41.12,9,9,0,0,1,28.67,0a32.55,32.55,0,0,0,4.19,0,8.9,8.9,0,0,1,5,1.08,7.61,7.61,0,0,0,4.34.91,77.23,77.23,0,0,1,10.54.25A64.22,64.22,0,0,1,61,3.39a4.27,4.27,0,0,0,1.67,0,52.1,52.1,0,0,0,5.49-1.06,5,5,0,0,1,3.59.51A9.71,9.71,0,0,1,76.13,8a3,3,0,0,1-1,3.72,2.28,2.28,0,0,0-.81,1,1.8,1.8,0,0,1-1.34.9,12,12,0,0,1-4.59.34A23.88,23.88,0,0,0,64.37,13.48ZM5,10l.08-.05s0,0,0,0L5,10a.35.35,0,0,0-.26.24c-.95.83-.95.83-1.19,1.58.47-.64,1.1-.9,1.16-1.6C4.9,10.2,5,10.09,5,10ZM23,9.7c.17,0,.23-.08.24-.23a.23.23,0,0,0,.25-.23A.25.25,0,0,0,23.73,9c.18,0,.24-.16.28-.3s-.13-.08-.15-.06a.31.31,0,0,0-.11.39c-.19,0-.23.07-.24.23a.24.24,0,0,0-.25.23.29.29,0,0,0-.25.23L23,9.81Zm-1.21,0A.2.2,0,0,0,22,9.46c.18,0,.27-.06.23-.24.2,0,.25-.06.26-.23.16,0,.22-.08.26-.22s.25,0,.05-.14c0,0-.08.1,0,.17-.2-.06-.22.08-.25.22a.31.31,0,0,0-.26.22l-.23.25-.24.23,0,.08Zm-.92,0,.24-.24.24-.23a.84.84,0,0,0,.42-.8c-.24.37-.49.51-.4.83-.18,0-.24.06-.24.23-.17,0-.26.06-.24.24h-.1s0,0-.05.06Zm-12,0,.06,0,0,.06c-.12.06-.24.11-.24.27a.83.83,0,0,0-.22,0c-.11,0-.23,0-.23.21l0,.11a1.34,1.34,0,0,0,.27-.13A1,1,0,0,0,8.61,10Zm11-.24c.13,0,.19-.12.24-.24A.31.31,0,0,0,20.36,9a.33.33,0,0,0,.24-.24l.11,0s0-.05,0-.07l-.1.13c-.12,0-.22.1-.24.24s-.22.1-.24.24-.22.1-.24.24l-.09.05,0,0Zm-.71-.23L19.4,9l.06,0,0,.06-.26.23c0,.08-.06.09-.06,0S19,9.31,19.17,9.24ZM18.44,9l.26-.2s.22-.07,0-.16v.18c-.19-.05-.23.07-.26.21l-.1.05s0,0,0,0ZM4.76,3.25l.07,0-.1,0c0-.17-.09-.22-.23-.24a.33.33,0,0,0-.23-.25l0-.06,0,0L4.53,3A.3.3,0,0,0,4.76,3.25ZM31.66,2l0,.08s0,0,0,0l-.1-.1L31.58,2l0,0Zm-2.9,0c.06,0,0,.28.18,0l-.21,0c0-.18-.05-.25-.21-.27-.43-.5-.76-1.14-1.68-1.17a3.35,3.35,0,0,0,1.7,1.15C28.51,2,28.63,2,28.76,2.06Zm-1.67-.27.25.26.47.22.05.08h0l-.08-.05-.46-.22-.26-.26c0-.14-.12-.2-.24-.24l0-.07.07,0C26.89,1.67,27,1.77,27.09,1.79ZM35,1.57c.07,0,.08.06,0,.06s0,.08,0,0l-.24-.25-.24-.24s0-.07,0-.1a.1.1,0,0,0-.07,0l.14.1.23.24Zm-4.08,0c.06,0,0,.25.16.07l-.19,0c0-.17-.08-.24-.23-.25,0-.16-.08-.23-.23-.25s0-.26-.22-.25c0-.16-.12-.17-.24-.16s-.06.05-.09.08l.33.08c0,.18.1.22.25.22a.24.24,0,0,0,.23.25A.3.3,0,0,0,30.92,1.57ZM33.6,1.3c-.05.19,0,.29.22.26,0,.36.15.49.47.49,0,.05.08.15.13.16s.14-.06.07-.11-.14,0-.21,0c0-.31-.22-.42-.48-.48,0-.15-.1-.22-.23-.26s-.06-.27-.18,0Zm-7.46-.23a.36.36,0,0,0,0,.11s0,0,.06,0l-.13-.11a.3.3,0,0,0,0-.1S26,1,26,1ZM28.78.82l.25.27c.37.53.74,1.06,1.47,1.12-.54-.31-.77-1-1.49-1.1L28.76.84c0-.12-.09-.2-.23-.16s0,.06-.06.09ZM26.13,2c.06,0,0,.25.15.11l-.17-.08c-.08-.27-.3-.21-.5-.21,0-.1.07-.23-.12-.15l.16.12A.56.56,0,0,0,26.13,2Zm11.27-.2a.42.42,0,0,0,0-.1s0,0-.07,0l.14.1c0,.18.12.24.29.2s0-.05.07-.08ZM6,11.88c.27-.06.19-.3.23-.47.24-.18.21-.46.24-.7s.29-.13.07-.29l0,.31c-.37.14-.19.46-.24.7-.32,0-.26.27-.24.48-.12,0-.14,0-.08.07S6,11.92,6,11.88ZM57.8,20l.33,0c.1,0,.15-.05.13-.15s-.15-.12-.24-.05a1.61,1.61,0,0,0-.22.23c0,.08,0,.09,0,0Zm-54-12c-.24.08-.58-.16-.73.22a1.83,1.83,0,0,0-1.48.62c.5-.19,1.11-.1,1.46-.64a.66.66,0,0,0,.72-.23c0-.07.26,0,.12-.16ZM3.33,2.76a.47.47,0,0,0,0,.1l.06,0L3.3,2.79a1.92,1.92,0,0,0,0-.24c0-.11-.07-.22-.23-.21a.24.24,0,0,0-.1.05,1.43,1.43,0,0,0,.15.27A.68.68,0,0,0,3.33,2.76ZM35.69,1.37a1.12,1.12,0,0,0,0-.32c0-.13-.15-.15-.26-.07a.36.36,0,0,0,.08.15c.08.08.17.14.25.21a1.11,1.11,0,0,0,.63.54C36.22,1.59,36.11,1.28,35.69,1.37ZM7.16,11.16c.35,0,.48-.14.44-.47,0-.1-.06-.24-.21-.19s-.19.36-.22.57a.2.2,0,0,0,0,.11c-.1,0-.28,0-.09.15S7.2,11.25,7.16,11.16ZM2.6,7.58c-.44.08-1-.15-1.33.36a.42.42,0,0,0,.5,0c.24-.2.64,0,.8-.4.17-.1.41.12.57-.14A.48.48,0,0,0,2.6,7.58ZM59.24,16l0-.09s0,0-.05,0l.12.09A3.83,3.83,0,0,0,59.89,17C60.23,16.32,60.12,16.15,59.24,16ZM4.05,8.8a5.31,5.31,0,0,0-2,1A4,4,0,0,0,4,8.78l0,0ZM60,19.6c-.81-.14-.78-.12-.57-.7.11-.28.46-.44.42-.79-.64,0-.66.49-.79.87s-.13.6.14.76a.65.65,0,0,0,.77-.17,1.84,1.84,0,0,0,1-.2,3.33,3.33,0,0,0,1.41-.75,1.49,1.49,0,0,0,.72-1.2,5.09,5.09,0,0,0,0-5c0,.51,0,.86,0,1.22a1.79,1.79,0,0,1-.24,1c-.44.75-.71,1.47.09,2.18.12.1.11.36.15.55-.43-.08-.78-.07-.73.53a5.1,5.1,0,0,1,0,.68c-.33,0-.58-.13-.58-.56a2.08,2.08,0,0,0-.16-1.36,1.05,1.05,0,0,0-.74,1.14c0,.5,0,1,0,1.52-.16-.11-.39-.18-.47-.34-.27-.54-.38-.18-.48.08A1.22,1.22,0,0,0,60,19.6ZM5.72,10.21,4.36,12c.3.23.6.25.73-.06a3.41,3.41,0,0,0,.6-1.77c.1,0,.22.08.16-.11ZM4.55,9.53c-.8.13-1.33.75-2.13,1,.61.28.61.28.81.16A6,6,0,0,0,4.52,9.5l.07-.06s0,0,0,0Zm57.09.2c.07,0,.08,0,0,.06l0-.06a7.55,7.55,0,0,1-.5-1.82c0-.38-.25-.43-.56-.35,0,.3.28.39.32.62s-.21.35-.45.36c-.16-.23-.41-.43-.46-.68a.53.53,0,0,0-.64-.51c-.83,0-1.66,0-2.49,0v.15l3.62,1A3.79,3.79,0,0,0,61.64,9.73ZM56.85,16l-.05-.06.07,0c.07,1.32.24,1.55,1.29,1.77A3.07,3.07,0,0,0,56.85,16ZM44.61,10c-1.49,1.31-1.34,4,0,5.5a4.38,4.38,0,0,0,4.64,2.29,5.4,5.4,0,0,0,4.23-4.2,3.2,3.2,0,0,0,.13-1.65,6.37,6.37,0,0,0-2-3.18,7.52,7.52,0,0,0-3-1.12c-1.31-.41-2.28.45-3.19,1.27-.25.22-.62.41-.53.85C44.67,9.71,44.63,9.84,44.61,10Zm-5.49,9.07a.34.34,0,0,0,0,.1s0,0,.06.05l-.09-.13a12.66,12.66,0,0,0-2-1.46A3.49,3.49,0,0,1,35.36,16c-.09-.19-.19-.38,0-.51s.3,0,.42.13a5.11,5.11,0,0,0,1.34,1.15,7.63,7.63,0,0,1,1.55,1.07,8.34,8.34,0,0,0,4.23,2,1.24,1.24,0,0,0,1.35-.43A1.9,1.9,0,0,0,43,19.11a5,5,0,0,1-3.28-1.2,39.17,39.17,0,0,0-3.68-2.51,14.68,14.68,0,0,1-2.16-1.84c-.21-.23-.73-.51-.32-.86s.6.21.84.42c.43.39.58,1.08,1.29,1.16a.22.22,0,0,0,.05.08s0,0,0,0l-.12-.09c0-.56,0-1.12,0-1.67a.29.29,0,0,1,.29-.32c.22,0,.23.18.23.33a2.64,2.64,0,0,0,.5,1.8,12.62,12.62,0,0,1,.94,1.24.76.76,0,0,0,.62.37,4.07,4.07,0,0,0-.68-3.35,1.16,1.16,0,0,1,0-1.36c.47.44.4,1.1,1,1.37V11a1.18,1.18,0,0,1,.17-.8c.1-.13.2-.27.38-.22a.29.29,0,0,1,.19.38,6.34,6.34,0,0,0-.23,2.12,9.7,9.7,0,0,1-.18,3.09.71.71,0,0,0,.18.68,4.84,4.84,0,0,0,2.4,1.87,21.66,21.66,0,0,0,4,.68,7.18,7.18,0,0,0,2.11.21A7.94,7.94,0,0,1,51,19a10.5,10.5,0,0,0,1.87,0l-.6-.35a.43.43,0,0,1-.22-.6c.19-.32.39,0,.6.05a9.71,9.71,0,0,0,2.37.7c-.18-.57-.45-.93-1-.9a1.06,1.06,0,0,1-.82-.42c-.11-.12-.21-.26-.12-.42A.35.35,0,0,1,53.5,17c.28.09.46.46.83.32.26-.39-.14-.95.35-1.36a3.22,3.22,0,0,1,.52,1.38c.16,1.13.65,1.35,1.74.83a5.83,5.83,0,0,1-.52-.94,3.06,3.06,0,0,0-1.34-1.88c-.16-.09-.45-.29-.2-.56s.42,0,.61.15a.22.22,0,0,0,.33-.07c0-.36-.25-.61-.43-.9a3.43,3.43,0,0,1-.52-1.19c0-.21-.1-.42.1-.53s.35.09.44.27.16.44.28.65A5.65,5.65,0,0,0,56.75,15a8.53,8.53,0,0,1,2,2.33c.09.15.12.39.41.19s.14-.29,0-.44a2.72,2.72,0,0,1-.81-1.45A2.45,2.45,0,0,0,57,13.71a4.21,4.21,0,0,1-1.1-.91c-.11-.15-.28-.31-.09-.52s.36-.09.5.06a8.89,8.89,0,0,0,1.86,1.36c.12-.23,0-.5.26-.58s.3.15.4.32A3.1,3.1,0,0,1,59,14.85c0,.23.09.38.36.36s.3-.15.26-.31c-.09-.42-.29-.78.38-1,.28-.08-.1-.61-.2-.92s-.26-.34-.57-.22A2.27,2.27,0,0,1,57,12.31a12.11,12.11,0,0,1-3-3.13.32.32,0,0,1,0-.43.29.29,0,0,1,.43,0c.23.21.54.41.65.68.48,1.13,1.56,1.65,2.38,2.42a1.39,1.39,0,0,0,1.36.44c-.4-.26-.75-.48-1.09-.72-.17-.12-.31-.31-.2-.51s.33-.11.51,0,.65.31,1,.48a2.76,2.76,0,0,1,1.63,1.93,2.2,2.2,0,0,0,.38.87c.24.34.54.59,1,.29-.93-.85-.93-.85-1-2.1,0-.24-.11-.52.22-.58s.32.25.34.48a5.51,5.51,0,0,0,.07.71c.06.22.16.46.47.44a.45.45,0,0,0,.14-.43,4.06,4.06,0,0,0-.08-.71,5.16,5.16,0,0,0-3.36-3.6,31.68,31.68,0,0,0-3.19-1c-.46-.12-.79-.52-1.31-.51-1.1,0-2.2,0-3.29,0a8.24,8.24,0,0,1,1.41,1.18l.06.05-.09,0c.06-.25-.11-.62.27-.69s.4.21.5.43a3.7,3.7,0,0,1,.24.54c.3.94.57,1.89.87,2.83a2.74,2.74,0,0,1,.07,1.3,7.26,7.26,0,0,1-1.33,3.29,5.57,5.57,0,0,1-6.79,1.85,1.22,1.22,0,0,0-.78,0,3.16,3.16,0,0,1-2.42-.32,2.45,2.45,0,0,0-1.38-.32,3.32,3.32,0,0,1-.83-.06c-.29-.09-.53-.31-.26-.62.14-.15.24-.19.17-.44s.22-.41.43-.31c.39.18.73.47,1.12.66a5.24,5.24,0,0,0,2.87.86A5.13,5.13,0,0,0,42,15.86a4,4,0,0,1-2.34-1,.31.31,0,0,1,0-.43c.12-.17.28-.12.42,0s.55.47,1,.35l0,.06,0,0A6.19,6.19,0,0,1,39.82,13c-.1-.24-.33-.68.13-.81s.3.36.42.56A5.06,5.06,0,0,0,43,15.36c.17.06.32.1.37-.1a.32.32,0,0,0-.16-.4c-.28-.13-.69,0-.85-.32A7.42,7.42,0,0,0,41,12.76a1.07,1.07,0,0,1-.25-.78,2.57,2.57,0,0,0-.65-2.19c-.14-.13-.35-.51,0-.7s.37.21.53.35.23.33.5.24a3.38,3.38,0,0,0,.08-.34c0-.36.1-.86.51-.78s.24.57.14.9-.29.82-.46,1.22a1.81,1.81,0,0,0,.24,1.91,15.57,15.57,0,0,0,1.22,1.23,2.09,2.09,0,0,0-.6-1.71,4,4,0,0,1-.47-.54.41.41,0,0,1,0-.55c.2-.19.34,0,.49.13s.16.56.54.51c.12-.48.51-.92.1-1.45-.26-.34-.57-.9-.07-1.12s.31.61.68.77a.6.6,0,0,0,.32-.69c0-.2-.15-.37-.2-.56a.39.39,0,0,1,.22-.5c.24-.09.36.1.46.27l.15.32,1.12-1a16.06,16.06,0,0,0-4.12-.32c-3.39-.07-6.77.33-10.16.26-1.56,0-3.1-.25-4.65-.34a19.37,19.37,0,0,0-3,0c-1.55.13-3.1.23-4.64.32-2.23.12-4.48,0-6.71,0a6.94,6.94,0,0,0-1.65-.11c-1.83.4-3.4-.43-5-1.22A.68.68,0,0,1,5.54,6c-.08-.18,0-.3.2-.34s.44.12.66.21a6.15,6.15,0,0,0,2,.75l0,0c.29.4.74.26,1.1.26A17.32,17.32,0,0,1,12.91,7a7.85,7.85,0,0,0,1.68,0c.25,0,.48-.08.47-.4s0-.46.22-.47c.4,0,.23.28.23.5s.22.16.35.17h1.32A34.89,34.89,0,0,0,21,6.78c2.22-.27,4.46-.22,6.68-.4,2.65-.23,5.31.1,8,0,2.36-.09,4.71-.13,7.07-.17,2.14,0,4.3,0,6.45-.09a24.92,24.92,0,0,1,3.45.17,50.65,50.65,0,0,0,5.51.07c3-.08,6.07.06,9.1.21.16,0,.4,0,.46.07.34.48.46.2.67-.12,1.15-1.75,3-1.37,4.21-.64a2.64,2.64,0,0,1,.85,3.19,3.49,3.49,0,0,1-2.9,1.63A2.6,2.6,0,0,1,67.86,8.2c0-.26.11-.55-.13-.76-.92.34-1.9,0-2.82.24a3,3,0,0,0,.8,1.61c.19.25.44.46.64.71a.4.4,0,0,1,.05.33.35.35,0,0,1-.43.11,1.56,1.56,0,0,1-.62-.55A7.1,7.1,0,0,1,64.07,7.5c0,1.49,0,1.54.68,2.32.1.12.22.24.33.35s.21.27.1.41a.38.38,0,0,1-.54.06,2.42,2.42,0,0,1-.51-.5,4.24,4.24,0,0,1-.83-2c0-.21.1-.51-.35-.54A2,2,0,0,0,63,8.88a6.87,6.87,0,0,0,.82,1.45c.09.13.18.24,0,.41s-.36.07-.5-.06a3.33,3.33,0,0,1-1-1.84A2.61,2.61,0,0,0,62,7.73c-.5,1,.76,1.68.27,2.61a2,2,0,0,0,.21.1c.66.17,1,.75,1.5,1.15A6.45,6.45,0,0,0,66.39,13a14.36,14.36,0,0,0,4.53.25,4.67,4.67,0,0,0,2.49-.66l.07-.07v-.05l0,.15a28.94,28.94,0,0,1-4.73-.47c-.68-.1-1-.58-1.42-1a.23.23,0,0,1,0-.32c.11-.14.27-.21.4-.07a2,2,0,0,0,1.24.67,32.49,32.49,0,0,0,3.54.4A3.09,3.09,0,0,0,74,11.49c1.5-.88,2.09-1.61,1.34-3.43a8.79,8.79,0,0,0-3.82-4.43,4.39,4.39,0,0,0-3.34-.5,24,24,0,0,1-3.73.77A12.39,12.39,0,0,1,61,4.2,82.57,82.57,0,0,0,49.24,3,76.65,76.65,0,0,0,40,3a5.34,5.34,0,0,1-1.2,0,14.27,14.27,0,0,0-3-.09c-.92,0-1.82.21-2.75.2a50.93,50.93,0,0,0-8.46.51c-2.16.34-4.3.74-6.46,1.06a35.92,35.92,0,0,1-5.57.59c-1,0-2,0-3,0a7,7,0,0,1-2.9-.56,5.28,5.28,0,0,0-1.23-.43c-.38,0-.64,0-.66.46A6.12,6.12,0,0,0,6,8.94c.64.82,1.17.87,2,.29a4.41,4.41,0,0,1,1.8-.92c1.73-.22,3.48-.38,5.23-.5a33.48,33.48,0,0,1,3.47,0A43.79,43.79,0,0,1,25.09,8c.35.06.79,0,.82.49s.4.53.76.44a3.88,3.88,0,0,1,1.17-.2,19.91,19.91,0,0,0,3.07-.35,49.24,49.24,0,0,1,5.69-.62,8.45,8.45,0,0,0,3.2-.25.33.33,0,0,1,.46.24.38.38,0,0,1-.21.4c-.16.1-.36.16-.53.25-.56.3-1.14.57-1.68.91s-1.06.6-.68,1.39c.15.32-.15.61-.4.8a1.88,1.88,0,0,1-1.23.4,10,10,0,0,0-2.92.52,2.21,2.21,0,0,0-1.31,3.42c.36.54.95.9,1.23,1.44.78,1.48,2.16,2.18,3.52,2.93a5.74,5.74,0,0,0,2.61.75,34.67,34.67,0,0,0,4.56,0A3.23,3.23,0,0,0,46,19.63a1.11,1.11,0,0,0-1.08.27,2.43,2.43,0,0,1-2.65.52c-.6-.18-1.2-.4-1.8-.59-.21-.06-.37-.24-.66-.11a2.43,2.43,0,0,1-2.06-.27c-1.46-.68-2.8-1.61-4.31-2.21a3.74,3.74,0,0,1-.95-.71A2.65,2.65,0,0,1,32,16a.26.26,0,0,1,.06-.41.31.31,0,0,1,.43.06,3.47,3.47,0,0,0,.29.38,4.45,4.45,0,0,0,1.9,1.13A3.42,3.42,0,0,0,34,16c-.35-.51-.92-.77-1.31-1.23-.1-.13-.17-.28-.06-.43a.31.31,0,0,1,.43-.07,4.81,4.81,0,0,1,.57.44,8,8,0,0,1,1.72,2.12A4.51,4.51,0,0,0,39.12,19.06ZM30.39,9.11a1.41,1.41,0,0,0,1.3.32,17.16,17.16,0,0,1,3.92-.18,2.34,2.34,0,0,0,2.11-.89A71.35,71.35,0,0,0,30.39,9.11Zm15,12c1.45.15,2.82.23,3.37-1.47C47.26,19.22,46.36,20.21,45.39,21.14ZM50.32,21c.55,0,1.1,0,1.65,0,1.25,0,1.25,0,1.88-1,0,0,0,0,0-.08-.31-.14-.51,0-.72.24a5.18,5.18,0,0,1-.74.59.36.36,0,0,1-.52-.08c-.08-.14,0-.29.14-.42s.27-.17.1-.38C51.18,19.66,51,20.72,50.32,21Zm8-2.35c-.66.21-1.17.38-1.69.53s-.51.49-.46.9c0,.16,0,.35.18.39s.4,0,.43-.11C57,19.62,57.78,19.34,58.29,18.64Zm3.3-3.19a2.22,2.22,0,0,1-1.31-1.1,1.82,1.82,0,0,0,.53,1.84A1.09,1.09,0,0,0,61.59,15.45ZM50.81,19.68c-1.24-.36-1.46.65-2,1.25.31.12.7.16.72,0C49.61,20.21,50.3,20.16,50.81,19.68ZM33.18,2.18A3.57,3.57,0,0,0,31.3.73C31.89,1.26,32.23,2.1,33.18,2.18ZM1,5.72c.82.65,1.55,0,2.31,0Zm1.88,1A4.94,4.94,0,0,0,.74,6.8C1.67,7.33,2.27,6.68,2.92,6.73Zm.34-1.57c-.36-.09-.7-.4-1.06-.4s-.66-.5-1.11.07Zm51,15.56c.44,0,.82.16,1.16-.31C55,20.32,54.61,20.2,54.27,20.72ZM24.58,9.36c-.25.12-.49.25-.47.57a.51.51,0,0,0,.31,0C24.81,9.87,24.7,9.62,24.58,9.36ZM1.67,3.87c.43.06.64.4,1.21.19C2.39,4,2.2,3.64,1.67,3.87ZM17.21,8.55c-.09,0-.29,0-.24.12a.56.56,0,0,0,.38.24c.06,0,.24-.16.23-.23S17.33,8.59,17.21,8.55ZM29.73,10.4c.15,0,.2-.09.29-.17s.05-.2-.08-.21-.19.1-.25.19S29.63,10.35,29.73,10.4ZM33,.78c-.06,0-.12-.09-.18-.09s-.12.06,0,.13A.53.53,0,0,0,33,.87ZM3.84,6.5c-.07,0-.13-.09-.2-.09a.65.65,0,0,0-.22.08,1,1,0,0,0,.21.09A.6.6,0,0,0,3.84,6.5ZM28.92,10l.2-.09c-.05,0-.1-.1-.16-.11s-.22,0-.23.11S28.85,9.93,28.92,10Zm25.86,9.81.21-.06a.64.64,0,0,0-.2-.08.54.54,0,0,0-.21.05ZM3.32,4.3h-.1s0,.06,0,.06.07,0,.1,0ZM2.53,3.14s-.06-.08-.08-.08a1.66,1.66,0,0,0-.21.06l.2.08S2.5,3.16,2.53,3.14ZM26.67,2.4l.06.05V2.38Zm4.81,7.93.06,0v-.06Z"/><path d="M55.52,8c.57.26.57.74.71,1.11.46.14.23-.49.55-.44s.45.3.6.53a6.34,6.34,0,0,1,.37.62c.09.18.14.4,0,.54s-.34,0-.5-.15a3,3,0,0,0-.72-.41C55.47,9.45,55.37,9.28,55.52,8Z"/><path d="M67.92,4.46a4.06,4.06,0,0,1-.06.67c0,.21-.31.41-.42.28-.54-.58-1.12,0-1.67-.1-.17,0-.38.11-.48-.11s.07-.36.26-.46a6.2,6.2,0,0,0,1-.56c.26-.21.39-.16.56.06s.19.5.26,0c0-.19,0-.48.24-.46C68,3.81,67.88,4.18,67.92,4.46Z"/><path d="M64.08,4.56a7.46,7.46,0,0,1,.66,1c.11.23-.06.58-.32.39-.43-.32-1,.2-1.36-.31-.2-.27-.21.18-.39.21a.46.46,0,0,1-.54-.33c-.1-.26.11-.37.31-.35.38,0,.76-.59,1.13,0,.07.1.11.13.14,0A.86.86,0,0,0,63.77,5,.45.45,0,0,1,64.08,4.56Z"/><path d="M60.93,11c0,.17-.22.35-.32.27-.48-.4-1.07-.2-1.58-.38a1.27,1.27,0,0,1-.8-.65c-.07-.15-.15-.3,0-.43s.33-.14.43,0a1.12,1.12,0,0,0,.64.47.79.79,0,0,0,.66,0A.7.7,0,0,1,60.93,11Z"/><path d="M30.68,5.91l-.39,0c-.35,0-.94.31-1-.27,0-.42.58-.19.9-.22a8.32,8.32,0,0,1,1.41.06.22.22,0,0,1,.19.26.22.22,0,0,1-.23.2Z"/><path d="M54.5,5.87a1,1,0,0,1-.31,0,.34.34,0,0,1-.31-.4c0-.15.11-.32.32-.24a.34.34,0,0,0,.48-.16c.16-.24.34-.09.48,0s.35.35.2.61-.33.09-.51,0S54.72,5.81,54.5,5.87Z"/><path d="M8.39,6.63a.49.49,0,0,0,0-.11c-.22-.22-.74-.17-.62-.68A.22.22,0,0,1,7.9,5.7c.42,0,.95.08,1.09.48.23.62-.35.38-.63.42Z"/><path d="M60.38,5.87S60,6,60,5.5c0-.32.28-.33.53-.33s.79,0,.81.41C61.33,5.87,60.94,5.92,60.38,5.87Z"/><path d="M11,6.37c-.41,0-.68,0-1,0-.09,0-.24-.11-.18-.25s.14-.22.22-.22a2.18,2.18,0,0,1,.81.05c.25.1.77-.16.73.28S11.1,6.32,11,6.37Z"/><path d="M58.48,5.89a.29.29,0,0,1-.35.24c-.53-.07-.63-.53-.78-.93-.05-.13.07-.22.18-.25S58.48,5.61,58.48,5.89Z"/><path d="M52.81,6.17c-.27,0-.56,0-.51-.35s.43-.4.75-.41.42.07.42.32C53.47,6.19,53.09,6.13,52.81,6.17Z"/><path d="M38.56,5.53a.59.59,0,0,1-.63.38c-.26,0-.5-.09-.51-.36s.23-.37.49-.38S38.45,5.21,38.56,5.53Z"/><path d="M56.54,6.05c-.37,0-.89-.37-.89-.65s.16-.25.32-.25c.36,0,.86.45.79.68S56.61,6,56.54,6.05Z"/><path d="M32.81,5.17c.36,0,.51.17.5.4s-.18.33-.41.32a.35.35,0,0,1-.36-.38C32.55,5.29,32.7,5.15,32.81,5.17Z"/><path d="M35.48,6.12c-.29,0-.46,0-.48-.28a.36.36,0,1,1,.72-.08C35.75,6,35.63,6.11,35.48,6.12Z"/><path d="M14.75,6.51c-.17.34-.38.27-.61.19s-.34-.22-.22-.43.33-.18.52-.12S14.77,6.32,14.75,6.51Z"/><path d="M28.71,5.76c0,.17-.18.33-.31.31a.62.62,0,0,1-.52-.4c-.05-.16.08-.22.18-.25A.52.52,0,0,1,28.71,5.76Z"/><path d="M40,5.61a.27.27,0,0,1-.28.29c-.21,0-.4,0-.48-.23s0-.34.18-.35A.52.52,0,0,1,40,5.61Z"/><path d="M36.84,5.2a.27.27,0,0,1,.32.24.3.3,0,0,1-.17.38c-.24.09-.37-.1-.4-.28A.31.31,0,0,1,36.84,5.2Z"/><path d="M34.51,5.67c-.08.28-.29.27-.48.25s-.34,0-.29-.27.27-.25.47-.24S34.5,5.49,34.51,5.67Z"/><path d="M16.76,6.39a.23.23,0,0,1-.28.26c-.15,0-.31-.06-.32-.25s.15-.25.3-.26A.25.25,0,0,1,16.76,6.39Z"/><path d="M51.12,5.44c.1,0,.2.09.19.22a.22.22,0,0,1-.31.2.32.32,0,0,1-.12-.26A.18.18,0,0,1,51.12,5.44Z"/><path d="M44.59,10c.17,0,.22-.1.25-.23a19.07,19.07,0,0,1,1.68-1.28.53.53,0,0,1,.73.09v0c0,.28-.19.48-.22.77s-.16.6-.58.19c-.16-.16-.54,0-.42.37s-.09.59-.23.86l0,0c-.27.11-.22.4-.37.59s0,.18.08.27c.47.38.43.38.4.72a3.92,3.92,0,0,0,.13,2.53l0,0c.06.34-.14.75.26,1l0,0c0,.21,0,.42.27.51l0,0c0,.19.1.41-.09.54s-.43,0-.59-.19a1.21,1.21,0,0,1-.09-.2c-.18-.33-.24-.8-.82-.59-.07,0-.14-.27-.33-.26,0-.6.08-1.16-.53-1.7s-.26-1.29-.12-1.94A16.32,16.32,0,0,1,44.59,10Zm.66,3.93c-.06.17-.12.25-.1.31s-.1.25.09.21A2.3,2.3,0,0,0,45.25,13.89Zm-.13-.74a1.06,1.06,0,0,0,.06-.94Z"/><path d="M50.12,15a1.45,1.45,0,0,0-.28-.77c-.18-.19-.29-.43,0-.59s.5.11.56.3a1.11,1.11,0,0,0,1.37.82.35.35,0,0,1,.37.38.36.36,0,0,1-.29.34c-.31.06-.7-.07-.68.5,0,.17-.28.25-.5.14l-1.27-.62a.31.31,0,0,0-.26-.25c-.07-.15,0-.38-.23-.45a.71.71,0,0,0-.06-.22c-.08-.14.13-.1,0-.07l.11.26.24.45c0,.14.09.25.26.25,0,.54.41.72.75,1,.17.15.25.33.11.52s-.36.1-.51,0c-1-.89-1.91-1.8-1.57-3.32,0-.13-.12-.29-.16-.44-.1-.39,0-.58.4-.33.21.15.35.07.54,0s.44.14.42.4-.25.33-.51.22-.23,0-.33.24a.85.85,0,0,1,1,.71.67.67,0,0,0,.59.52c0,.17.09.23.23.26s.1.19.22.18,0-.07.06-.11l-.31,0A.28.28,0,0,0,50.12,15Z"/><path d="M46.06,14.79l0-1.66c0-.24,0-.49.21-.65a.38.38,0,0,1,.32-.06c.09,0,.2.21.18.25-.33.63.06,1.24.08,1.85A2.44,2.44,0,0,0,48,16.71l0,0,.27.27,0,0c.08.61-.28.59-.65.4s-.66-.77-1-1.12l0,0c0-.19,0-.45-.27-.51l0,0c-.08-.33.11-.74-.26-1Z"/><path d="M48,16.71c-.1-.68-.61-1.19-.82-1.83A4.66,4.66,0,0,1,47,13.36c0-.16.05-.33.25-.34s.26.16.26.32a5.37,5.37,0,0,0,.82,2.45,4.58,4.58,0,0,0,.93,1.08c.12.12.19.26.09.41a.33.33,0,0,1-.43.09c-.25-.13-.47-.3-.7-.45l0,0a.32.32,0,0,0-.27-.27Z"/><path d="M52,13.11c-.18-.65.4-.72.74-1l0,0a1.14,1.14,0,0,1,0,1.61c-.17.24.2.67-.31.75a2.35,2.35,0,0,1-1.29,0c-.22-.09-.45-.3-.35-.55s.33-.19.51-.06a.86.86,0,0,0,.84.09c-.44-.2-.35-.55-.31-.88l0,0,.26,0c.06,0,.07.2.2.07Z"/><path d="M45.79,10.71c.46.1.44-.37.66-.56s.25-.2.41-.08a.32.32,0,0,1,.1.42c-.12.25-.4.4-.44.69l0,0c-.43.13-.73.05-.72-.48Z"/><path d="M46.52,11.18c.56-.17.56.72,1.14.61.1,0,0,.39-.15.46-.35.14-.68-.11-1-.22s-.08-.41,0-.63,0-.16,0-.24Z"/><path d="M52.49,11.44c-.28,0-.46-.1-.46-.4l0-.83,0,0c.58.28.7.53.53,1.15Z"/><path d="M52.56,11.38c.56.17.56.17.18.77l0,0c-.23,0-.5.1-.61-.15s.28-.32.33-.54Z"/><path d="M47.25,8.54s0-.07,0-.1c.18-.27.39-.51.75-.33.17.08.15.24.06.39-.28.39-.57.29-.87,0Z"/><path d="M50.82,13.2c-.07.08-.12.21-.2.25-.32.12-.48-.11-.62-.33s0-.22.16-.25C50.47,12.77,50.66,12.93,50.82,13.2Z"/><path d="M51.82,13.08l-.11,0c-.22,0-.48.09-.58-.19s.08-.27.25-.29c.38,0,.46.17.41.49Z"/><path d="M52.06,10.21c-.26,0-.47-.06-.44-.37a.21.21,0,0,1,.19-.11c.37,0,.24.29.22.5Z"/></g></g></svg>