<svg xmlns="http://www.w3.org/2000/svg" viewBox="0 0 50.5 37.56"><title>Limacina</title><g id="Layer_2" data-name="Layer 2"><g id="Limacina"><path d="M34.5,15.35a2.71,2.71,0,0,1,2.25,1.7A13,13,0,0,1,38.67,24,13.71,13.71,0,0,1,28.48,37,12.94,12.94,0,0,1,16.93,35a12.24,12.24,0,0,1-5.17-8.53A13.11,13.11,0,0,1,16.69,14c.11-.09.27-.13.31-.3a4.68,4.68,0,0,0-2.62,1.54A14.57,14.57,0,0,1,12,17.52a11.74,11.74,0,0,1-2.1,1.12c-1.19.42-1.63.24-1.91-.95a1,1,0,0,0-.71-.82A11.86,11.86,0,0,1,1.9,11.63a3.67,3.67,0,0,1-.46-1.35A3.52,3.52,0,0,0,.59,8.37c-.87-.95-.75-2.12.22-3.22a6,6,0,0,1,3.47-2,6.69,6.69,0,0,1,3.3-.11c.51.15,1-.21,1.45-.45a7.93,7.93,0,0,1,5.15-1,.45.45,0,0,0,.49-.19A2.06,2.06,0,0,1,16.42.81a11.08,11.08,0,0,1,4.88,1.4A3.43,3.43,0,0,1,23,4.56,2.69,2.69,0,0,0,23.62,6c.42-.1.46-.51.62-.79s.43-.85.64-1.28a2.2,2.2,0,0,1,2.56-1.45,4.94,4.94,0,0,0,2.46-.31A5.37,5.37,0,0,1,31.32,2a1.17,1.17,0,0,1,1.24.54c.28.53.66.47,1.11.35.95-.26,1.9-.53,2.86-.75a8.16,8.16,0,0,1,2-.31A4.67,4.67,0,0,0,41.23,1,7.06,7.06,0,0,1,46.87.29a5.51,5.51,0,0,1,2.71,1.65,3,3,0,0,1,.6,3.52,4.21,4.21,0,0,1-.34.63,2.4,2.4,0,0,0-.38,1.64,8.69,8.69,0,0,1-1.45,5c-.51.8-1.12,1.54-1.68,2.32-1.26,1.76-3.13,2.26-5.13,2.33-1.15,0-2-.81-2.76-1.52A13.68,13.68,0,0,1,37,14.23a.7.7,0,0,0-.94-.21A2.91,2.91,0,0,0,34.5,15.35ZM18.75,13l.27.26c.33.41.67.74,1.05,0,.1-.18.28-.37.47-.24a.44.44,0,0,1,.05.64c-.23.29-.5.53-.84.88a2.62,2.62,0,0,0,1.59-.67A3,3,0,0,1,23.79,13a.82.82,0,0,0,.94-.71A5.32,5.32,0,0,0,24,7.38a11.45,11.45,0,0,0-1-1.19,1.8,1.8,0,0,1-.67-1.56,1.63,1.63,0,0,0-.54-1.16,4.78,4.78,0,0,0-2-1.28,8.36,8.36,0,0,0-4.24-.6c.21.43.54.32.79.4s.24.29.23.49l0,0a6.7,6.7,0,0,1-1.89-.11,5.43,5.43,0,0,0-2.77,0,2.93,2.93,0,0,1,.6.12c.18.07.37.19.27.44s-.27.26-.48.15c-.37-.21-.88.07-1.15-.19-.64-.63-1-.11-1.5.17a1.57,1.57,0,0,0,1.06.35,8.13,8.13,0,0,1,2.17.6c.19.07.37.24.28.46s-.33.18-.53.15a1.28,1.28,0,0,1-.22-.09,17.35,17.35,0,0,0-6-.87,5.15,5.15,0,0,0-2.7.39A2.2,2.2,0,0,0,5,4a1.64,1.64,0,0,1,1.28.13.51.51,0,0,1,.15.29c0,.16-.12.22-.22.23-.4,0-.8,0-1.2,0a8.31,8.31,0,0,0-3.33.76A1.63,1.63,0,0,0,1.15,8,3.72,3.72,0,0,1,2,9.91a7,7,0,0,0,2.34,3.88c.35-.28.62-.51.91-.71a.34.34,0,0,1,.44,0c.15.14.07.29,0,.41-.26.29-.52.56-.8.85a5.84,5.84,0,0,0,1.76,1.4c.66-1.28,1.88-2,2.84-2.9a.38.38,0,0,1,.55,0c.24.26,0,.44-.2.56A18.71,18.71,0,0,0,7.07,16c.57.37,1,.58,1.45-.14a.32.32,0,0,1,.5-.14c.22.16.06.35,0,.51a2.43,2.43,0,0,0-.21,1.93c.09,0,.13,0,.16,0a1.28,1.28,0,0,0,.34-.06,9.21,9.21,0,0,0,4-2.72,8.57,8.57,0,0,1,3.21-2.53,9.82,9.82,0,0,1-.41-2.4,1.1,1.1,0,0,1,.52-1A5,5,0,0,1,19.73,9a2,2,0,0,1,1.69,2,7.85,7.85,0,0,1,0,.84c0,.33.11.91-.33.89s-.22-.54-.22-.86a4.6,4.6,0,0,0,0-.83,1.65,1.65,0,0,0-.93-1.3c-1-.48-1.94,0-2.87.28-.22.06-.21.31-.23.51A4.17,4.17,0,0,0,18.13,14a.51.51,0,0,0,.7.16,3.26,3.26,0,0,1-1.09-1.33c-.25-.52-.78-1-.16-1.68.41.3.37.75.55,1.09s.24.45.42,0c.08-.2.35-.16.5,0s.27.38.41.57l0,0c.06.39-.09.56-.49.49L18.73,13c-.05,0,0-.26-.15-.11Zm6.73.05c-.49,0-.7.26-.72.72-.28.07-.2.4-.39.56s-.28.17-.42.07a.47.47,0,0,1-.14-.3c0-.21.31-.43,0-.62s-.46,0-.67.11c-1,.29-1.55,1.14-2.44,1.53.07.13.08.18.11.2a1.37,1.37,0,0,0,2-.21c.18-.18.44-.28.64-.08s-.06.4-.18.58-.51.3-.35.69a2.56,2.56,0,0,0,1.17.07,3.45,3.45,0,0,1,2.3.18,1.12,1.12,0,0,0,1.29-.37l1.1-1.1a1.63,1.63,0,0,1,1.45-.38c.17,0,.31.12.27.31s-.16.15-.25.2a1.87,1.87,0,0,1-.33.1c.42.48.79.94,1.2,1.38.18.2.42.49.7.38a4,4,0,0,1,3.19.24c.4.17.52-.25.64-.53s-.12-.53-.39-.58a4.54,4.54,0,0,1-2.7-1.37,1,1,0,0,0-.63-.31,11.82,11.82,0,0,1-3.2-1.22A12.12,12.12,0,0,0,27,12.67a1.13,1.13,0,0,0-1.23.13A.27.27,0,0,0,25.48,13.05ZM26,27.43c-.68.23-1.34.5-2,.67a2.83,2.83,0,0,1-2.74-.83A3.32,3.32,0,0,1,22.45,22a2.29,2.29,0,0,1,2.38.72,1.75,1.75,0,0,1,0,2.31l-.32.49c-.33,0-.55.32-.9.3a1.52,1.52,0,0,1-1.2-.86c-.16-.47.14-.76.45-1a.45.45,0,0,1,.65.05c.16.22-.07.3-.24.42s-.27.44,0,.58a.7.7,0,0,0,.79-.08c.24-.2,0-.34-.05-.49a.31.31,0,0,1,.17-.48c.57-.2.33-.24,0-.31a.47.47,0,0,1-.28-.18c-.14-.22.34-.42.07-.63s-.28.44-.61.32a.49.49,0,0,1-.24-.21c-.24-.33-.33-.32-.35,0s-.17.62-.47.36c-.5-.45-.68-.06-.5.23.38.65-.36.49-.43.72.09.33.6.25.54.61s-.46.18-.7.25-.15.05-.14.19c.34,0,.68,0,1,0,.16,0,.32.09.29.29a.26.26,0,0,1-.25.21c-.31,0-.64,0-.84.36.17.26.23.6.52.73.36-.13.34-.54.6-.73a.44.44,0,0,1,.55,0c.23.16.11.33,0,.49s-.43.37-.43.71a1.08,1.08,0,0,0,1,0,4.15,4.15,0,0,1-.1-.58.47.47,0,0,1,.41-.5c.37,0,.26.3.28.52s0,.39.05.64l1-.32c-.33-.48-.73-.91-.55-1.53.15,0,.33,0,.43.14s.2.34.3.51.23.46.52.36a.65.65,0,0,0,.31-.34c.09-.25-.15-.33-.31-.43s-.28-.16-.4-.25a.29.29,0,0,1-.11-.41A.32.32,0,0,1,25.7,25c.26.1.5.24.76.32a.3.3,0,0,0,.41-.29c0-.22,0-.39-.31-.31a1.18,1.18,0,0,1-.59,0c-.18,0-.38-.16-.34-.41a.34.34,0,0,1,.34-.27h.24c.89-.1.89-.1.85-1.1-.34.14-.65.29-1,.4s-.45.06-.54-.13.11-.32.3-.41a7.4,7.4,0,0,0,.69-.45.43.43,0,0,0,.13-.69c-.3-.44-.44,0-.64.1s-.47.73-.83.36.22-.49.38-.73.28-.65-.24-.8a1.17,1.17,0,0,1-.14.3c-.21.3-.26.92-.77.71s.15-.54.07-.84a1.85,1.85,0,0,1,0-.24c0-.27-.23-.28-.43-.27s-.44-.05-.31.3a1,1,0,0,1,.06.35c0,.2,0,.43-.22.5s-.41-.14-.5-.38.14-.79-.35-.73c-.7.08,0,.55-.14.82,0,.1-.08.25-.16.29a.39.39,0,0,1-.32-.07.48.48,0,0,1-.22-.27c-.08-.31-.28-.41-.53-.28s0,.33.05.49.37.4.05.59-.44,0-.59-.24-.19-.27-.37-.1c0,.07-.07.16,0,.21.14.28.47.57.11.83s-.47-.19-.71-.3c0,0-.08.1-.13.15a.36.36,0,0,0,.21.39c.24.16.51.34.26.66s-.42,0-.62-.1-.29-.14-.39.05,0,.29.19.36.17,0,.22.07.39.2.26.45a.33.33,0,0,1-.5.14c-.21-.11-.47-.22-.56.14s.16.36.37.5,1,.1.76.69-.59-.15-.92,0c-.17.07-.44,0-.38.3s.15.41.4.34a2,2,0,0,1,.93-.18.39.39,0,0,1,.32.32.3.3,0,0,1-.25.34c-.35.07-.71.1-1.06.15a.9.9,0,0,0,.37.81c.53,0,.83-1.14,1.56-.33-.35.41-.94.51-1.08,1.06.17.18.28.4.54.4.05-.07.08-.15.13-.21.29-.33.52-1,1-.73s-.25.62-.39.95c-.21.49-.08.65.38.74a5.55,5.55,0,0,1,.27-.62c.13-.26.17-.74.58-.59s.11.51,0,.79a1.89,1.89,0,0,1-.09.21c-.12.23-.23.46.16.52s.42-.13.4-.42a1.29,1.29,0,0,1,.29-.89.29.29,0,0,1,.33-.08.22.22,0,0,1,.19.25,7.47,7.47,0,0,0,0,.95c0,.18.18.23.36.22a.22.22,0,0,0,.21-.33c-.18-.45-.31-.88.1-1.29.37.2.33.57.44.84.33.76.3.77,1.13.42-.27-.34-.56-.67-.81-1a.34.34,0,0,1,0-.44c.16-.14.3-.06.42.05s.36.43.57.61c.6.55.61.54,1.21-.16-.56-.33-1.33-.44-1.35-1.32.6,0,1,.51,1.5.66.27.08.55.18.66-.21-.29-.44-.94-.44-1.14-.95a.37.37,0,0,1,.52-.19c.26.08.5.22.76.33s.47.19.55-.16-.13-.36-.34-.38a1.13,1.13,0,0,1-1.07-.79.6.6,0,0,1,.66,0,1.54,1.54,0,0,0,.89.3c.25,0,.51,0,.57-.31s-.24-.35-.46-.36c-.49,0-.94-.09-1.14-.71.69-.26,1.22.3,1.83.24,0-.94,0-.93-.75-1-.32,0-.86.17-.79-.4s.5-.16.77-.14c.81,0,.81.05.72-.8-.31.07-.62.13-.93.21s-.43.05-.51-.17.14-.33.33-.4.31-.07.45-.13c.58-.25.58-.26.14-.92-.28.15-.57.29-.84.46s-.37.13-.52-.07,0-.36.16-.47.41-.24.59-.39.35-.26.13-.48a.39.39,0,0,0-.54,0,5.67,5.67,0,0,1-.57.43.36.36,0,0,1-.32,0,.3.3,0,0,1-.07-.42c.08-.14.22-.24.31-.37s.49-.29.17-.54-.37.13-.52.28-.14.19-.22.28-.31.27-.51.12-.09-.33,0-.51.73-.51.27-.83-.38.34-.59.51-.28.48-.54.34-.16-.41,0-.61a.78.78,0,0,0,.15-.44c0-.15-.09-.2-.19-.25s-.14,0-.21.07c-.26.23-.16.86-.56.8-.56-.1-.11-.68-.27-1a.45.45,0,0,0-.34-.28c-.2,0-.25.12-.28.29-.05.35.11.78-.27,1-.37-.22-.25-.53-.28-.79s0-.62-.4-.58-.25.34-.28.56.14.76-.21,1.07c-.6-.33,0-1.42-1.09-1.39.15.55.61,1,.17,1.63-.42-.25-.45-.72-.66-1.08s-.27-.41-.56-.21-.17.3,0,.48a.79.79,0,0,1,.06,1c-.46-.17-.48-.58-.7-.85a.35.35,0,0,0-.53,0c-.18.14-.19.3,0,.48a4.87,4.87,0,0,1,.55.64c.08.12.18.28,0,.41a.35.35,0,0,1-.44,0c-.27-.24-.41-.59-.74-.77s-.37,0-.5.18a.25.25,0,0,0,.06.4,2.7,2.7,0,0,1,.88.8c.11.18.2.35,0,.53s-.35,0-.5-.1c-.3-.25-.5-.61-.91-.75s-.35,0-.47.21,0,.31.11.38a3.49,3.49,0,0,1,1,.8c.11.12.2.28.09.42s-.33.1-.5,0l-.88-.61a3.18,3.18,0,0,0-.42-.16c.07.34-.29.49-.18.78.49.22,1,.41,1.42.64a.32.32,0,0,1,.13.42c-.08.2-.24.15-.39.1A6.29,6.29,0,0,0,16,23.18c-.12.47-.2.86.44.87a1.28,1.28,0,0,1,1.28.69,2.34,2.34,0,0,1-1.47-.1c-.31-.12-.55-.08-.57.34s.09.53.47.51a7.69,7.69,0,0,1,1,0c.19,0,.44,0,.43.28s-.19.23-.35.24a2.61,2.61,0,0,0-.48,0c-.88.22-.9.28-.45,1.22a6.07,6.07,0,0,1,.86-.33c.23-.06.56-.11.65.14s-.23.32-.43.41a5.51,5.51,0,0,0-.65.31c-.19.11-.24.25-.12.48s.26.43.54.32.48-.28.72-.41a.29.29,0,0,1,.42.09.32.32,0,0,1-.13.41c-.22.18-.45.33-.67.5a.26.26,0,0,0,0,.33c.09.14.2.28.38.2s.48-.28.73-.38a.34.34,0,0,1,.43.1c.11.16,0,.29-.12.39s-.34.21-.5.33-.24.29,0,.48.32.32.53,0a1.07,1.07,0,0,1,.72-.59.55.55,0,0,1,.33.09.21.21,0,0,1,0,.31c-.18.22-.37.42-.55.63s0,.36.12.5.35.18.51,0a5.37,5.37,0,0,1,.49-.66.41.41,0,0,1,.55-.07c.23.16.08.33,0,.5s-.48.42-.45.78c.81.37.81.37,1.11-.28a2.3,2.3,0,0,1,.15-.32c.13-.18.25-.47.54-.31s.1.35.05.53-.29.49-.23.79a.42.42,0,0,0,.39.39c.2,0,.24-.14.28-.31a8.48,8.48,0,0,1,.32-1c.07-.18.24-.35.47-.23a.29.29,0,0,1,.13.41,1.62,1.62,0,0,0-.17.81c0,.3,0,.56.42.57s.51-.13.51-.49a7.61,7.61,0,0,1,0-.83c0-.18.1-.31.29-.3a.27.27,0,0,1,.22.24,4,4,0,0,0,0,.6c.1.66.19.71.94.57.14,0,.32,0,.37-.23A2.67,2.67,0,0,1,26,32c-.06-.31-.29-.79.18-.91s.23.41.39.61a1.58,1.58,0,0,1,.19.44c.24.56.6.48,1,.21L27,31.09c-.13-.22-.19-.46.09-.61s.45.07.5.3a2.27,2.27,0,0,0,.64,1c.2.2.38.27.61.06s0-.35-.11-.48A2.27,2.27,0,0,1,28,30.29a.33.33,0,0,1,.18-.39c.12-.07.22,0,.3.11l.85,1c.33.39.6.28.86-.13a5.36,5.36,0,0,1-.49-.34,2.41,2.41,0,0,1-.5-.51c-.15-.25-.56-.53-.29-.81s.51.16.73.32a3.07,3.07,0,0,1,.26.25c.74.69.74.69,1.49-.12-.52-.36-1-.71-1.54-1.09-.15-.11-.31-.3-.16-.51s.41-.14.61,0a3.38,3.38,0,0,0,1.2.77c.17.06.32.19.51,0s.23-.68-.16-.82-.84-.24-1.24-.39c-.24-.09-.43-.29-.31-.55s.33-.12.52-.05A7.8,7.8,0,0,0,32,27.4a.61.61,0,0,0,.83-.6c-.56-.21-1.2.11-1.74-.24-.2-.13-.48-.21-.41-.5s.36-.17.58-.11a8.88,8.88,0,0,0,1.05.22c.36,0,.71,0,.83-.51-.73-.36-1.78.25-2.29-.76A2.16,2.16,0,0,1,32,24.81a7.45,7.45,0,0,0,.95-.07c.19,0,.23-.19.21-.36s-.16-.27-.33-.2a2.8,2.8,0,0,1-1.18.14c-.31,0-.59-.13-.58-.47s.33-.24.55-.28c.46-.07,1,.15,1.56-.26a4.67,4.67,0,0,0-1.79-.18c-.21,0-.43-.07-.42-.32s.21-.22.37-.21a3,3,0,0,0,1.17-.2c.16-.07.44,0,.37-.33s-.25-.41-.54-.28a3.17,3.17,0,0,1-1.53.12.23.23,0,0,1,0-.46,4.61,4.61,0,0,0,1.51-.34c.17-.07.18-.25.13-.41s-.19-.21-.37-.14a9.25,9.25,0,0,1-1,.37c-.23.06-.52.11-.66-.12s-.05-.38-.07-.57A2.58,2.58,0,0,0,31.75,20c.11-.06.2-.17.13-.28s-.23-.16-.29-.13c-.45.21-.89.45-1.32.68-.26-.17-.66-.31-.18-.66a4.13,4.13,0,0,1,.63-.32c.19-.1.51-.14.32-.47s-.34,0-.49.07-.55.31-.84.43a.27.27,0,0,1-.38-.18.37.37,0,0,1,.12-.31,4.6,4.6,0,0,1,.69-.46.57.57,0,0,0,.26-.83c-.48.35-.94.7-1.43,1a.37.37,0,0,1-.54,0c-.21-.29.05-.39.24-.53.38-.29.76-.59,1.11-.91.18-.17.55-.36.28-.67s-.44.11-.61.26c-.42.36-.79.78-1.22,1.14a.36.36,0,0,1-.53,0c-.16-.21,0-.38.15-.49a2.36,2.36,0,0,0,1.22-1.47,2,2,0,0,0-.84.72A1.77,1.77,0,0,1,26,17.1,1.94,1.94,0,0,0,24.52,17a28,28,0,0,1,2.62,1A6.33,6.33,0,0,1,30.3,25.3,10,10,0,0,1,28.86,28a5.91,5.91,0,0,1-6.05,2.76A5.12,5.12,0,0,1,19,28.64c-1.52-2.13-1.21-4.28,0-6.38,1.55-2.67,3.68-3,6.24-2.43a3.33,3.33,0,0,1,2.46,2.65,7.48,7.48,0,0,1-.3,3.27ZM33.4,14.48l0,0c.13.43.36.71.71.21a3.62,3.62,0,0,1,1.5-1.13,1.45,1.45,0,0,0,.77-2.14,3,3,0,0,0-.76-1.06A1.26,1.26,0,0,0,34,10.12a3.42,3.42,0,0,0-1,.82c-.43.45-.85.92-1.28,1.38-.1-.12-.19-.17-.19-.23a.88.88,0,0,1,.06-.46,5.45,5.45,0,0,1,2.74-2.38,1.11,1.11,0,0,1,.82,0,3.32,3.32,0,0,1,2.1,3.29,1.53,1.53,0,0,0,.58,1.62c.38.36.69.78,1.07,1.14A3.59,3.59,0,0,0,42,16.62a5.43,5.43,0,0,0,3.64-1.82,1.12,1.12,0,0,0,.22-1.29,7.32,7.32,0,0,0-2-2.67c-.43-.36-.86-.72-1.27-1.1a.29.29,0,0,1,0-.43.37.37,0,0,1,.43-.11,1.07,1.07,0,0,1,.37.3c1.05,1.13,2.39,2,3,3.56.06.17.19.29.35.13s.23-.17,0-.43a9.21,9.21,0,0,0-1.51-2.12.24.24,0,0,1,0-.4.29.29,0,0,1,.33-.05,1.31,1.31,0,0,1,.63.53c.35.52.69,1,1,1.56.09,0,.19,0,.23-.1a7.93,7.93,0,0,0,1.23-4.64,1,1,0,0,0-.49-.75,7.94,7.94,0,0,0-5.76-1.44c-.25,0-.63.13-.66-.26s.29-.43.59-.47h.47a8.42,8.42,0,0,1,5.92,1.83c.15-.2.28-.34.38-.5,1.19-1.78.71-3-.83-4.19a6,6,0,0,0-6.61-.31A5.7,5.7,0,0,1,38,2.49a4.27,4.27,0,0,0-1.74.32c-1,.25-1.93.46-2.89.71-.63.17-1,.2-1.33-.5a.82.82,0,0,0-1.2-.42c-.2.1-.42.15-.75.27.44,0,.76.06,1.07.11a.35.35,0,0,1,.22.25c0,.18-.13.28-.3.3a2.19,2.19,0,0,1-.36,0c-1.06-.13-2.12-.23-3.18-.4a1.59,1.59,0,0,0-2,1c-.33.58-.54,1.24-.92,1.79a1,1,0,0,0,.06,1.38,4,4,0,0,1,.84,2.91c0,.36,0,.72,0,1.08,0,.78,0,.82.77.79a4,4,0,0,1,1.86.37C29.83,13.2,31.67,13.71,33.4,14.48Zm-1.29,4.16c.16.39.35.61.73.62s.4.2.21.39c-.45.44-.13.66.19.9.16.11.46.19.36.4-.24.5-.31.87.36,1.06.19.06.1.26,0,.39s-.24.21-.23.23c.37.57-.39,1.32.31,1.83A.32.32,0,0,1,34,25c-.11.1-.25.16-.31.33-.14.47.24.72.4,1.07s-.81.24-.54.8.08.63-.31.83c-.22.12-.26.35-.14.63.22.5-.3.43-.51.59s.22.71-.18,1c0,0-.07.06-.1.05-.6-.2-.53.26-.59.6s-.75,0-.72.61-.22.57-.61.35a1.33,1.33,0,0,1-1.21.68c-.06,0-.17.1-.16.14.17.75-.15.58-.6.36s-.37.14-.44.38-.29.34-.52.09c-.07-.08-.15-.26-.26-.16-.86.82-1.9.22-2.85.38a4.26,4.26,0,0,1-1.55-.06,9.63,9.63,0,0,1-6.44-4.34,8,8,0,0,1,.33-9.06,7.72,7.72,0,0,1,6-3.18,2,2,0,0,0-1.29-.88c-.6-.08-.32.74-.83.66-.54-.64-.72-1.63-1.77-2,.29.78,1.21,1.26.89,2.2a.58.58,0,0,1-.46-.28c-.49-.72-1-1.43-1.49-2.14-.13-.18-.2-.45-.53-.23s-.11.38,0,.54l.42.43a5.24,5.24,0,0,1,1.15,1.37c.09.21.33.42,0,.6s-.42,0-.56-.25a7,7,0,0,0-1.58-1.78c-.32-.28-.49-.08-.65.14.45.44.92.86,1.34,1.32a6,6,0,0,1,.61.88A.25.25,0,0,1,18,18a.27.27,0,0,1-.42,0,1.67,1.67,0,0,1-.39-.45A4.3,4.3,0,0,0,15.5,16c-.61.72-.61.72.09,1.17A5.22,5.22,0,0,1,17,18.35a.41.41,0,0,1,0,.55c-.19.22-.35.05-.49-.09a6,6,0,0,0-1.29-1.06c-.72-.36-.71-.39-1.2.44a13.48,13.48,0,0,1,2,.94c.16.13.36.27.25.48a.38.38,0,0,1-.53.1A7.59,7.59,0,0,0,14.25,19c-.6-.17-.89,0-.95.63.45.1.9.23,1.37.3a2.48,2.48,0,0,1,.88.34.26.26,0,0,1,.07.32c0,.12-.11.22-.26.18s-.55-.12-.81-.21a4,4,0,0,0-1.42-.1c-.31,0-.36.27-.35.53s.24.2.43.19a11.63,11.63,0,0,1,1.32,0c.34,0,.61.17.58.62a4.61,4.61,0,0,1-1.65.11c-.93,0-.94,0-1,1a8.8,8.8,0,0,1,1.84-.35c.16,0,.33,0,.38.21s-.11.38-.31.42a4.43,4.43,0,0,0-1.06.17c-.31.16-.91,0-1,.71.6-.15,1.13-.27,1.66-.42.22-.06.41-.06.48.17s-.11.39-.38.46c-.49.12-1,.31-1.47.45s-.36.35-.21.62A7.23,7.23,0,0,1,13.89,25c.21,0,.44,0,.5.2s-.14.3-.35.36c-.49.16-1,.33-1.45.54a.26.26,0,0,0-.12.39c.07.13.17.11.3.06.37-.13.75-.23,1.13-.35s.6-.19.69.18-.25.31-.47.38c-.38.12-.75.28-1.12.42-.55.21-.3.51-.14.82.5-.23,1-.43,1.43-.66a.37.37,0,0,1,.52.11c.14.23,0,.36-.22.46s-.65.29-1,.47c-.63.35-.63.36-.25,1.11a7.6,7.6,0,0,1,1.43-.85.37.37,0,0,1,.43.12c.09.16,0,.28-.16.38a9.06,9.06,0,0,0-.79.53c-.7.56-.69.59,0,1.32l1.2-1c.16-.12.35-.23.53,0s0,.37-.12.51l-1.12,1.09c-.19.19,0,.36.11.5s.28,0,.37-.09c.32-.35.61-.74,1-1.08a.35.35,0,0,1,.53,0c.12.15,0,.29-.08.42a6.1,6.1,0,0,0-.92,1.1.54.54,0,0,0,.25.85,10.89,10.89,0,0,1,1.16-1.52c.15-.12.27-.33.49-.11s.06.35-.05.51c-.3.42-.58.86-.87,1.28s-.06.46.17.59.32-.09.42-.26c.25-.4.48-.82.76-1.2a.39.39,0,0,1,.54-.07c.24.16.1.35,0,.5a3.89,3.89,0,0,0-.78,1.33c-.12.34.09.54.35.67s.45-.11.53-.32a5.22,5.22,0,0,1,.75-1.49c.1-.13.25-.23.4-.15a.33.33,0,0,1,.11.43c-.19.44-.44.85-.61,1.29s-.22.87.52,1a7,7,0,0,1,.6-1.9.36.36,0,0,1,.49-.2c.28.1.14.3.07.48s-.23.67-.34,1c-.31,1-.24,1.08.93,1a5.34,5.34,0,0,1,.32-1.85.36.36,0,0,1,.44-.3.31.31,0,0,1,.2.48,7.6,7.6,0,0,0-.37,1.62c-.15.45.22.45.62.44V35.2a1.21,1.21,0,0,1,.11-.7.44.44,0,0,1,.38-.24c.2,0,.26.19.25.35s-.09.46-.12.7-.07.71-.09,1.07.09.38.35.37.31-.2.31-.41,0-.64,0-1,0-.48,0-.71a.27.27,0,0,1,.24-.23.21.21,0,0,1,.23.21,7.61,7.61,0,0,1,0,.83,2.38,2.38,0,0,0,.21,1.05.35.35,0,0,0,.48.21c.21-.07.1-.24.06-.39a4.86,4.86,0,0,1-.07-1.66c0-.17.12-.31.31-.26a.32.32,0,0,1,.17.27A6.06,6.06,0,0,0,26,36.34c.12.5.44.48.86.3a4.82,4.82,0,0,1-.44-2.07c0-.16,0-.35.21-.38s.28.18.33.38a7.45,7.45,0,0,0,.44,1.6c.12.27.27.41.53.31s.22-.36.11-.59a3.05,3.05,0,0,1-.42-1.59c0-.16,0-.33.23-.36s.26.12.29.28a6.07,6.07,0,0,0,.57,1.56.53.53,0,0,0,.79.21c.4-.19.21-.45.06-.68s-.46-.65-.66-1-.15-.5.12-.62.34.13.45.29l.79,1.19c.28.42.57.3.86,0-1.21-1.39-1.21-1.39-.75-2.18.24.38.46.74.7,1.08.61.86.75.93,1.52.16-.53-.65-1.64-.87-1.54-2,.46,0,.6.33.82.53a5.43,5.43,0,0,0,1,.84c.4.21.67.09.91-.3A6.76,6.76,0,0,1,32.07,32c-.16-.22-.24-.47,0-.64s.32.06.45.2a4.32,4.32,0,0,0,1.7,1.09.37.37,0,0,0,.47-.27c0-.16-.1-.27-.24-.34a4.21,4.21,0,0,1-.64-.31A2.33,2.33,0,0,1,33,30.9a.37.37,0,0,1,.12-.52c.16-.1.29,0,.39.17a2.75,2.75,0,0,0,1.23.92c.27.12.61.34.8-.1s-.18-.46-.43-.56a4.11,4.11,0,0,1-1.45-1c-.13-.14-.28-.29-.06-.5s.36-.05.5.09a4.4,4.4,0,0,0,1.74,1c.47.16.51-.28.64-.52s-.06-.44-.34-.48a3.27,3.27,0,0,1-1.79-.88c-.12-.12-.23-.27-.14-.42s.33-.2.51-.06a4.34,4.34,0,0,0,1.48.76c.63.19.72.1,1-.73a1,1,0,0,0-.68-.12,4.22,4.22,0,0,1-1.71-.45c-.19-.08-.48-.23-.31-.53s.33-.16.52,0a6.68,6.68,0,0,0,1.72.43c.57.18.92-.11.94-.77-1-.3-2.14.3-3.07-.6a1.13,1.13,0,0,1,1.19-.16,1.63,1.63,0,0,0,1.28,0c.3-.14,1,.1.81-.55-.11-.4-.63-.24-.94-.13a3.8,3.8,0,0,1-1.77.11.31.31,0,0,1-.29-.33.32.32,0,0,1,.29-.32c.44,0,.88-.06,1.32-.06a2.88,2.88,0,0,0,1.16-.22c.39-.14.33-.42.28-.68s-.33-.22-.57-.17c-.58.12-1.16.24-1.75.32a.41.41,0,0,1-.5-.39c0-.26.23-.31.43-.29a7,7,0,0,0,2-.33c.38-.08.48-.39.35-.75s-.45-.17-.66-.09a5,5,0,0,1-2.07.49c-.2,0-.44,0-.48-.22s.2-.26.39-.31c.61-.17,1.24-.3,1.83-.53s.7-.31.49-1.25c-2.49,1.08-2.18,1-3.07.57.09-.23.3-.2.49-.25a6.72,6.72,0,0,0,1.76-.69c.26-.16.63-.25.44-.7s-.48-.21-.77-.08-.81.31-1.22.44-1.13.35-1.26-.09.64-.45,1-.51a4.61,4.61,0,0,0,1.43-.57c.15-.08.35-.2.16-.47s-.26-.22-.46-.07-.41.37-.6.35C34.15,17.91,33.23,18.63,32.11,18.64Z"/><path d="M36.29,4.85c-.27-.08-.84.29-.67-.43,0-.09.06-.17,0-.18a.73.73,0,0,0-.31.09c-.75.26-.75.26-1.3.12.1-.35.4-.45.68-.58a12.63,12.63,0,0,1,3.77-.93A3.88,3.88,0,0,1,39,3c.23,0,.39.14.39.37a.34.34,0,0,1-.39.35c-.59,0-1.19,0-1.82,0,.17.36.7.1.72.59-.44.46-1.2.14-1.65.63Zm0-.77c.12,0,.13,0,0-.09a.14.14,0,0,0-.09,0Z"/><path d="M38,7.76c-.43-.44-1-.16-1.47-.26a5.75,5.75,0,0,0-.83,0,.3.3,0,0,1-.32-.29.38.38,0,0,1,.25-.37,3.29,3.29,0,0,1,1.43,0A15.91,15.91,0,0,1,42,8.43c.07,0,.16,0,.22.09s.32.24.17.48a.32.32,0,0,1-.41.13c-.4-.18-.78-.39-1.19-.55a7.32,7.32,0,0,0-2.82-.84Z"/><path d="M42.73,3.44a13.09,13.09,0,0,1,4.37.22,11.27,11.27,0,0,1,1.21.48.34.34,0,0,1,.19.48c-.1.28-.29.16-.47.09a14.1,14.1,0,0,0-1.91-.6,6,6,0,0,0-3,0,3,3,0,0,1-.59.08c-.2,0-.42,0-.44-.26s.14-.25.3-.3a3.23,3.23,0,0,0,.41-.22Z"/><path d="M48.07,9a10.21,10.21,0,0,0-2-1.6,3.54,3.54,0,0,0-1.9-.58c-.25,0-.48-.1-.45-.41s.31-.33.54-.3a6,6,0,0,1,3.43,1.69,4.61,4.61,0,0,1,.54.63C48.35,8.55,48.31,8.76,48.07,9Z"/><path d="M42.76,3.42c-.26.06-.49.05-.55-.27s.12-.33.3-.44a3.91,3.91,0,0,1,1.37-.39,8.52,8.52,0,0,1,2.85-.07,2.52,2.52,0,0,1,.86.38.18.18,0,0,1,.07.29c-.07.08-.19.21-.27.2a5.51,5.51,0,0,1-.8-.2,5.25,5.25,0,0,0-3.86.52Z"/><path d="M43.84,7.26a3.36,3.36,0,0,0,.36.16A8.4,8.4,0,0,1,47.55,9.8a1.08,1.08,0,0,1,.2.29.39.39,0,0,1,0,.45c-.15.15-.3.07-.42,0s-.45-.44-.68-.67A5.4,5.4,0,0,0,43.67,8c-.18,0-.4-.16-.36-.38S43.53,7.27,43.84,7.26Z"/><path d="M39.65,9.19c0,.25-.15.47-.43.47s-.56-.22-.5-.4c.25-.67-.38-.51-.61-.72a.41.41,0,0,0-.23,0c-.31,0-.77,0-.76-.36s.48-.4.84-.38l0,0,2.35,1A3.35,3.35,0,0,1,40.9,9a.35.35,0,0,1,.12.51c-.11.18-.27.11-.41.05l-1-.39,0,0Z"/><path d="M27.23,7.21c-.18-.11-.37-.26-.29-.47a4.37,4.37,0,0,1,.5-.93A4.59,4.59,0,0,1,30,4.13c.19,0,.43-.06.52.16s-.12.31-.32.39A10.68,10.68,0,0,0,29,5.27a2.69,2.69,0,0,0-1.37,1.57A.46.46,0,0,1,27.23,7.21Z"/><path d="M41.88,10.58a.49.49,0,0,1,.79,0,11.92,11.92,0,0,1,2.21,3.1.39.39,0,0,1-.11.53c-.21.11-.36-.07-.46-.25A14.29,14.29,0,0,0,41.88,10.58Z"/><path d="M40.32,11.16a.27.27,0,0,1,.29.17A13.67,13.67,0,0,1,41.91,15c0,.24,0,.39-.24.45a.28.28,0,0,1-.35-.23,18,18,0,0,0-1.19-3.49C40.05,11.54,40,11.27,40.32,11.16Z"/><path d="M26.44,8.44c-.57,0-.75-.31-.72-.61a5,5,0,0,1,1.38-3.3c.12-.11.27-.2.42-.09a.28.28,0,0,1,0,.42A4.73,4.73,0,0,0,26.44,8.44Z"/><path d="M43.24,15.21c-.61-.17-.58-.56-.67-.83a7.85,7.85,0,0,0-1.33-2.76c-.14-.16-.24-.34-.06-.52a.33.33,0,0,1,.52,0A6.75,6.75,0,0,1,43.24,15.21Z"/><path d="M30.76,5.81a2.11,2.11,0,0,0-1.15.58c-.19.17-.43.29-.62.09s0-.44.18-.57a8.11,8.11,0,0,1,2.65-1.27.39.39,0,0,1,.49.23c.12.26-.11.35-.26.43s-.57,0-.78.25l-.06.06c-.18,0-.4,0-.48.23Z"/><path d="M44.36,1.25c.3.08.91-.21.94.31s-.57.38-.93.4a3.9,3.9,0,0,0-1.81.4c-.19.11-.4.16-.49-.07s0-.38.23-.48A3.71,3.71,0,0,1,44.36,1.25Z"/><path d="M39.41,11.27a9,9,0,0,1,.69,2.94.41.41,0,0,1-.42.47c-.25,0-.31-.23-.3-.43a7.83,7.83,0,0,0-.24-2A1,1,0,0,1,39.41,11.27Z"/><path d="M33.94,13.23a4.74,4.74,0,0,0,1.56-.77.21.21,0,0,1,.3,0c.08.09.14.2.05.32s-.07.15-.13.19a15.31,15.31,0,0,1-2.35,1.45l0,0v-.74l0,0a.35.35,0,0,0,.26-.26l0,0,.24-.24Z"/><path d="M27.63,10.4a.42.42,0,0,1,.24-.42.27.27,0,0,1,.37.18c.13.39.16.77.79.63.27-.07.42.39.36.63s-.34.25-.55.07l-.14-.16c-.16.15-.06.72-.48.39S27.82,10.82,27.63,10.4Z"/><path d="M38.68,12.57c0,.16,0,.31,0,.47s0,.42-.29.41-.22-.19-.24-.34c0-.35-.08-.7-.14-1s.06-.47.35-.48.31.19.32.4,0,.39,0,.58Z"/><path d="M26.92,9.68c.06,0,.17.06.18.11.13.45.26.9.37,1.35a.24.24,0,0,1-.18.26.28.28,0,0,1-.22,0,1.62,1.62,0,0,1-.34-1.6S26.85,9.71,26.92,9.68Z"/><path d="M33.4,13.74c-.44.12-.59-.3-.85-.49s.05-.37.08-.36c.46.22.89-.3,1.33-.06.17.09,0,.26,0,.4l-.08,0-.24.24,0,0a.35.35,0,0,0-.26.26Z"/><path d="M31.27,5.55c.24,0,.59-.08.66.31a.37.37,0,0,1-.31.43c-.42.09-.8.09-.86-.48l0,0a.47.47,0,0,0,.48-.23Z"/><path d="M41.16,5.58c-.27,0-.33-.14-.33-.31a.36.36,0,0,1,.34-.4c.15,0,.33,0,.34.22S41.31,5.48,41.16,5.58Z"/><path d="M44,8.72a.45.45,0,0,1,.42.43.22.22,0,0,1-.29.26.49.49,0,0,1-.4-.5C43.73,8.79,43.82,8.71,44,8.72Z"/><path d="M30.74,11.45s-.1.14-.28.11a.34.34,0,0,1-.27-.34c0-.15.07-.33.26-.32S30.76,11.09,30.74,11.45Z"/><path d="M36.25,4.89l.12,0c.22,0,.5-.11.59.21s-.11.27-.28.29c-.42,0-.45-.2-.39-.52Z"/><path d="M11.88,6.85a16.45,16.45,0,0,0-8.3,1.69,1.54,1.54,0,0,1-.32.15.27.27,0,0,1-.33-.08A.3.3,0,0,1,3,8.19a2.92,2.92,0,0,1,.59-.4A16.29,16.29,0,0,1,9.42,6.26a16.09,16.09,0,0,1,4.16,0c.12,0,.24,0,.36,0s.43.11.43.33-.25.23-.45.23Z"/><path d="M10.67,4.89a10.76,10.76,0,0,1,4,.46c.11,0,.22.09.33.13.27.13.73.16.59.59s-.53.06-.77,0A14,14,0,0,0,10,5.41,19.5,19.5,0,0,0,6.18,6c-.23.07-.5.15-.59-.16s.18-.44.41-.49A14.2,14.2,0,0,1,10.67,4.89Z"/><path d="M11.26,7.24c.28,0,.56,0,.84,0a.32.32,0,0,1,.29.32c0,.2-.19.22-.35.23A19,19,0,0,0,8,8.5,18.32,18.32,0,0,0,4.79,9.85c-.18.09-.36.18-.54.25A.22.22,0,0,1,3.94,10a.33.33,0,0,1,0-.43,1.15,1.15,0,0,1,.29-.2A17,17,0,0,1,11.26,7.24Z"/><path d="M4.18,12C4,12,3.82,11.83,4,11.61a2.2,2.2,0,0,1,.53-.48,20,20,0,0,1,6-2.78c.23-.06.45-.19.69-.08a.53.53,0,0,1,.24.23c.1.19-.07.3-.19.37-.32.18-.69.11-1,.22a19.31,19.31,0,0,0-5.43,2.66C4.62,11.88,4.46,12.08,4.18,12Z"/><path d="M12.54,10.85a6.56,6.56,0,0,0-2.77,1.27,15.67,15.67,0,0,0-2.61,2.06c-.15.15-.36.4-.59.12s-.07-.46.13-.63a17.75,17.75,0,0,1,5.15-3.36c.58-.21.58-.21.65.57Z"/><path d="M14.16,12c0,.15,0,.27-.15.31a10.76,10.76,0,0,0-4,2.91c-.14.14-.32.34-.5.21a.38.38,0,0,1,0-.62c1.23-1.11,2.31-2.43,4-3C13.73,11.72,14,11.58,14.16,12Z"/><path d="M6.53,12.55s-.19-.08-.21-.17a.34.34,0,0,1,.09-.31A16.22,16.22,0,0,1,8,11c.9-.5,1.83-.94,2.74-1.42.28-.14.55-.25.71.1s-.16.39-.37.47a20.8,20.8,0,0,0-3.94,2.2A.76.76,0,0,1,6.53,12.55Z"/><path d="M23.8,10.06v.48c0,.23-.13.36-.38.32s-.26-.16-.21-.34A2.74,2.74,0,0,0,23,9.25,3,3,0,0,0,21.86,7c-.19-.13-.28-.3-.13-.5s.33-.11.53,0a1.39,1.39,0,0,1,.51.48A5.91,5.91,0,0,1,23.8,10.06Z"/><path d="M10.65,16.77c-.2-.14-.21-.3-.08-.51a10.13,10.13,0,0,1,1.92-2.11c.12-.11.28-.18.41,0a.32.32,0,0,1,0,.44c-.36.42-.75.83-1.13,1.23s-.56.58-.84.85C10.87,16.74,10.79,16.85,10.65,16.77Z"/><path d="M2.28,7.06C2.17,7,2,7,2,6.89a.45.45,0,0,1,.07-.33.59.59,0,0,1,.27-.22c.73-.26,1.47-.51,2.22-.74A.36.36,0,0,1,5,5.82a.29.29,0,0,1-.18.38A19.24,19.24,0,0,0,2.28,7.06Z"/><path d="M16.58,2.48a12.62,12.62,0,0,1,2.38,0,.27.27,0,0,1,.24.22.21.21,0,0,1-.19.25,5.39,5.39,0,0,0-2.65.47c-.14.09-.3-.14-.23-.29a5,5,0,0,1,.48-.66Z"/><path d="M12.5,10.88a.57.57,0,0,1,.71.39L11.6,12.41c-.14.1-.27.16-.41,0s0-.36.08-.51c.37-.42.94-.59,1.27-1.06Z"/><path d="M22.11,8.6c-.05.08-.08.21-.17.27a.26.26,0,0,1-.39-.12c-.21-.49-.67-.89-.59-1.48,0-.07.21-.2.26-.17.53.29.57.9.87,1.35A1.39,1.39,0,0,1,22.11,8.6Z"/><path d="M15.55,4.41l-.58,0a.29.29,0,0,1-.17-.14A.21.21,0,0,1,14.9,4a2.5,2.5,0,0,1,.77-.26c.35,0,.85,0,.86.38s-.48.2-.74.28A1,1,0,0,1,15.55,4.41Z"/><path d="M19.13,4.85A2.05,2.05,0,0,1,20.33,6a.21.21,0,0,1-.16.26c-.1,0-.29,0-.32,0a5.35,5.35,0,0,0-1-1,.18.18,0,0,1,0-.3A.63.63,0,0,1,19.13,4.85Z"/><path d="M19.46,6.73c0,.2-.14.33-.29.27a1,1,0,0,1-.67-.74.46.46,0,0,1,.08-.32c.13-.17.29-.06.39,0A1.31,1.31,0,0,1,19.46,6.73Z"/><path d="M19.72,8a.41.41,0,0,1,.68-.16c.17.11.33.28.23.48s-.33.19-.5.06A4.07,4.07,0,0,1,19.7,8Z"/><path d="M18.49,6.93c-.06.15-.16.3-.31.29S17.94,7,18,6.89s.13-.23.2-.23A.33.33,0,0,1,18.49,6.93Z"/><path d="M19.7,8c0,.32-.14.51-.49.36a.21.21,0,0,1-.1-.3c.19-.29.4-.1.61,0Z"/><path d="M19.46,12.78c0-.2,0-.42.24-.44a.19.19,0,0,1,.22.21c0,.28-.25.25-.44.25Z"/><path d="M26.42,13.28c.49-.43,1-.18,1.43,0a.24.24,0,0,1,.11.39c-.08.14-.25.35-.34.25-.32-.34-.55-.27-.83,0-.13.14-.31.32-.5.19s-.12-.43-.09-.66l0,0,.26-.26Z"/><path d="M25.46,13c.13,0,.26-.06.23-.25.37,0,.69.05.73.51l0,0-.26.26,0,0a2,2,0,0,0-.82.6c-.37.34-.64.14-.65-.36A1.64,1.64,0,0,0,25.46,13Z"/></g></g></svg>