<svg xmlns="http://www.w3.org/2000/svg" viewBox="0 0 86.63 46.22"><title>Metridia</title><g id="Layer_2" data-name="Layer 2"><g id="Metridia"><path d="M47.13,32.68a34.91,34.91,0,0,1,4.28-2,1.49,1.49,0,0,1-.19-.34c-.06-.24-.47-.48-.12-.72s.52.11.64.35c.25.47.58.39,1,.23a47.37,47.37,0,0,1,4.46-1.6c.39-.11.57-.24.31-.64a.33.33,0,0,1,.06-.44c.21-.18.39,0,.5.13.46.56,1,.45,1.6.32a80.16,80.16,0,0,0,11.68-3.52,6.24,6.24,0,0,0,2.19-1.12c.11-.05.25-.08.26-.24A1.49,1.49,0,0,0,75,22.33a3.7,3.7,0,0,0,1.62-1c.21-.17.64-.21.51-.65l.28-.25c.14,0,.21-.08.25-.21a1.58,1.58,0,0,0,.2-1c.37-.27.26-.59.1-1.15l-.07,1.17c-.32.29-.13.68-.2,1-.2-.07-.23.07-.26.2l-.27.25c-.31,0-.35-.31-.49-.5.14,0,.21,0,.2-.17s0-.05-.06-.08l-.11.28A4,4,0,0,0,75,22.36c-.56,0-.48-.4-.52-.74.33,0,.17-.31.24-.47l.06,0,0,.06a.52.52,0,0,0-.23.47,3.41,3.41,0,0,1-.55.41c-.61.27-.43.63-.17,1-.18,0-.19.14-.25.25l-.66-.26c-.2-.08-.36-.21-.22-.44.32-.51,0-.9-.22-1.43-.15.6-.26,1.11-.41,1.62a.36.36,0,0,1-.27.19.28.28,0,0,1-.28-.32,3,3,0,0,0,.08-1.35c-.57.46-.79,1.14-1.28,1.6a1.28,1.28,0,0,0,.66.38c.23.06.49.2.38.49s-.36.25-.61.14a6.51,6.51,0,0,1-2.19-1.4c-.24-.24-.41-.59-1-.63.51.84,1.4,1.22,1.81,2a.58.58,0,0,1-.81,0,6.81,6.81,0,0,1-1.73-1.78,1.2,1.2,0,0,0-.91-.69c-.61-.15-1.23-.27-1.85-.39A30.9,30.9,0,0,1,60,19.61c-.78,1.65-2.51,2.1-4,2.88a21.7,21.7,0,0,0-3.24,1.88,6.8,6.8,0,0,1-1.85,1.05c-1.41.5-2.71,1.31-4.26,1.39-.19,0-.41.13-.58.09-1.11-.28-2.19.17-3.29.06a7.82,7.82,0,0,0-4,.53c-.35.15-.64.26-.91-.16s-.42.07-.64.06-.54.12-.65-.13.37-.33.45-.59c.25,0,.53,0,.7-.25l.09,0s0,0,0-.05l-.09.12c-.23.1-.59-.17-.71.24H34.68a2,2,0,0,1-.59-.08c-.17-.05-.19-.24-.15-.4a.22.22,0,0,1,.34-.19,3.15,3.15,0,0,0,1.64,0c-1-.68-2.27.09-3.32-1,1.48-.4,2.83.5,4.14,0,0-.37-.24-.34-.46-.4a10.93,10.93,0,0,0-2.62-.16,1.29,1.29,0,0,1-1.06-.31,1.24,1.24,0,0,0-1.45,0c-.24.15-.43.36-.67.5s-.47.42-.75.21.23-.51.13-.85c-.79-.2-1.4.45-2.15.49-.22,0-.42.22-.67.19s-.47-.11-.38-.33.07-.41-.26-.39c-.16,0-.33,0-.37-.21s.13-.37.33-.42c.57-.14,1.15-.27,1.73-.38,1.32-.26,2.44-1.07,3.77-1.32.35-.06.83.09,1.08-.34a18.42,18.42,0,0,0,6-1.51,1.89,1.89,0,0,0-1-1.11,2.35,2.35,0,0,1-1.67,1.19A7.52,7.52,0,0,0,33,21.4a22.12,22.12,0,0,0-5.06.63,3.84,3.84,0,0,1-1.41.15,7.15,7.15,0,0,0-4.16.89,7.33,7.33,0,0,1-3.51,1,.73.73,0,0,0-.45.12,8.38,8.38,0,0,1-4.33.91c-2.28.12-4.63.07-6.69,1.36a1,1,0,0,1-.44.17c-1.81.08-2.95,1.24-4,2.48-.1.11-.17.29-.3.36-.42.25-.57,0-.59-.39a.25.25,0,0,0,.09,0s0,0,0-.05l-.1.12c-.64.22-.95.83-1.45,1.22-.13.09-.25.25-.42.12a.34.34,0,0,1,0-.52c.44-.46.89-.92,1.37-1.34s1-.43.82-1.15c0-.15.19-.22.31-.32a3.33,3.33,0,0,1,.93-.54c2.43-1,4.65-2.54,7.2-3.4a26.47,26.47,0,0,0,2.73-1.11A10,10,0,0,0,16.85,20a1.27,1.27,0,0,1,.76-.3,11.93,11.93,0,0,0,5.12-1.78,1.56,1.56,0,0,1,.76-.33c.5,0,.69-.24,1-.66.36-.58,1.11-.55,1.74-.57,1.27,0,2.55,0,3.83,0a18.79,18.79,0,0,0,5.26-.91,1.14,1.14,0,0,0,.82-.73,19.2,19.2,0,0,1,1.4-2.75A11.19,11.19,0,0,1,41.6,8.39c.49-.27.87-.69,1.37-1a25.9,25.9,0,0,1,6.2-2.38,7.11,7.11,0,0,0,2.3-.94A7.21,7.21,0,0,1,55,3a48.62,48.62,0,0,0,5.36-1.14,19.23,19.23,0,0,1,2.83-.37,25.14,25.14,0,0,0,4.72-.7A21,21,0,0,1,74.13,0c4,.23,7.56,1.5,9.91,4.91a12.34,12.34,0,0,1,2.58,6.58c0,1.29,0,2.71-1.15,3.7-.32.26-.16.95.2,1.23a4.78,4.78,0,0,0,.61.38.37.37,0,0,1,.19.49c-.12.27-.33.11-.51.07a1.45,1.45,0,0,0-.37,0c0,.3,0,.57,0,.85,0,.43-.08.85.53,1.05.32.11.27.55-.13.54s-.41.25-.39.5-.21.77.39.83c.24,0,.5.14.46.41s-.33.29-.58.33a1.66,1.66,0,0,0-1.11,1.17c-.06.33.29.31.37.52s.36.41.11.63-.41-.1-.59-.22l-.21-.13c-.36.16-.37.6-.62.82-.48.43-.66.85.14,1.56-1.38-.33-1.7.63-2.31,1.15-.25.22-.14.4.09.57s.3.28.1.5-.26.08-.41,0-.56-.23-.79,0a10.81,10.81,0,0,0-1,1c0,.06,0,.24,0,.34s.19.49-.12.58-.41-.28-.59-.5c-.2.18-.39.39-.6.55-.5.39-1.17.67-1.49,1.17s.22,1.12.07,1.72a2.9,2.9,0,0,1-.13.27c-.62-.35-.48-1-.69-1.53l-2.48,1.09c-.13.06-.36,0-.33.23.08.51-.13.53-.54.41a1.37,1.37,0,0,0-1.82.78c-.1.23-.26.34-.45.22-.75-.48-1.37.09-2,.22-.08,0-.2.05-.21.1-.22.71-.55.82-1.08.26a4.94,4.94,0,0,0-1.65.58.82.82,0,0,0,0,.23c0,.62,0,.52-.63.3-1-.34-1.77.41-2.67.57-.4.07-.42.42-.38.76a.85.85,0,0,1-.05.35.34.34,0,0,1-.37.23.43.43,0,0,1-.26-.2c-.11-.2,0-.48-.24-.68l-1.9.57c0,.35.43.65,0,1-.44-.09-.53-.54-.78-.86-.74.23-1.46.44-2.17.67-.88.27-.88.29-.5,1.13l.2.48c-1,.33-.8-.78-1.3-1-.58.08-1.11.35-1.71.41-.83.09-.86.23-.42,1a.64.64,0,0,1,0,.24c-.4.31-.69.09-.86-.26-.29-.63-.69-.67-1.26-.38A8.46,8.46,0,0,1,49,41c-.45.14-.89.22-.55.88.06.12-.23.51-.47.2-.38-.51-.75-.43-1.19-.13a1.55,1.55,0,0,1-.32.14c-1.23.6-1.24.61-.46,1.79a11.11,11.11,0,0,0,1.24,1.75.33.33,0,0,1,0,.44c-.16.22-.39.1-.51,0a10.72,10.72,0,0,1-.87-1.14c-.36-.52-.7-1.07-1-1.62a2.38,2.38,0,0,0-1.48.89c-.18.17-.36.56-.66.28s.06-.54.23-.76a1.78,1.78,0,0,1,.35-.32,17.93,17.93,0,0,1-2.45-3.77c-.06-.11-.14-.31,0-.43a.34.34,0,0,1,.51.12c.36.58.69,1.16,1,1.74.12.21.24.41.37.61.71,1.17.71,1.17,1.8.34.09-.07.2-.13.3-.2.69-.5.69-.5.43-1.34,0-.08-.09-.14-.11-.21-.07-.23-.18-.5.13-.61s.34.14.45.31.06.14.1.21c.35.69.36.71,1,.4a46.44,46.44,0,0,1,8.71-3.14c.3-.07.74-.12.8-.41.15-.73.41-.53.77-.19.18.17.36.05.55,0,4.39-1.61,9-2.63,13.16-4.84.74-.39,1.54-.65,2.3-1a17.65,17.65,0,0,0,7.12-5.46,9.55,9.55,0,0,0,2.07-5.11,9,9,0,0,0,.11-2.75c-.65.89-.65.89-.15,1.67-.15.26-.43.11-.64.18-.39.13-.6.38-.37.81s.56.63.17,1.07c-.11,0-.26-.05-.31-.12-.18-.24-.33-.53-.64-.22s-.72.32-.43.82,0,.54-.35.48c-1-.19-1.36.8-2,1.22-.14.08,0,.18,0,.28.25.64.12.87-.4.61-.88-.43-1,.52-1.61.59.12.44.81.67.49,1s-.69-.15-.94-.38c-.44-.41-.72,0-1.06.12s-.52.32-.3.7a.72.72,0,0,1,0,.36c0,.26-.11.48-.4.49s-.31-.19-.33-.41,0-.53-.32-.5-.69.14-.66.39c.09.93-.39.46-.69.3a1.24,1.24,0,0,0-1.11,0c-.36.12-.53.1-.4.58s-.22.44-.52.2-.23-.49-.51-.45a7.81,7.81,0,0,0-1.26.34c-.24.08-.21.27-.1.48a.34.34,0,0,1-.18.49.3.3,0,0,1-.39-.19c-.18-.53-.53-.51-1-.35l-.11.05c-.87.17-1.81.25-1.78,1.47-.3,0-.38-.17-.38-.33,0-.48-.2-.61-.67-.5a21.29,21.29,0,0,1-3.63.67c-.1,0-.3.06-.3.11,0,.21.17.5-.2.56s-.38-.26-.58-.37a.49.49,0,0,0-.23-.06c-1,.18-2,.35-3,.55-.09,0-.13.27-.2.41s-.29.29-.37.14c-.29-.55-.69-.23-1-.13-1.28.39-2.55.84-3.81,1.25,0,.12-.06.2,0,.27.08.29.67.54.21.88s-.58-.16-.73-.42-.39-.28-.67-.1c-.77.5-1.55,1-2.33,1.46a.51.51,0,0,0-.23.78,17.8,17.8,0,0,0,1,1.87c.08.13.21.28.06.43s-.36.09-.52-.05A3.66,3.66,0,0,1,46,36.07c-.22-.37-.39-.77-.59-1.17-.43,0-.62.33-.89.53s-.67.55-1,.8a.21.21,0,0,1-.31-.06.25.25,0,0,1,0-.33,8.07,8.07,0,0,1,1.74-1.61,11.07,11.07,0,0,1-2-2.78,1.92,1.92,0,0,1-.24-.55c-.05-.22-.12-.51.18-.6s.31.19.39.35a13.16,13.16,0,0,0,1.23,2c.73,1,1.1,1.08,2.13.48.13-.08.3-.11.38-.26h0l.27-.26ZM40.89,22.33l.09,0,0-.05-.11.1c0,.08,0,.09-.07,0Zm23.76-3.11s0,.26.16.09l-.19-.06c0-.16,0-.27-.22-.25-.44-1.08-.46-1.09-1.71-.83l1.73.81A.23.23,0,0,0,64.65,19.22ZM55.07,38.44c.25,0,.53,0,.72-.24s.41.07.68-.41c-.33.28-.61,0-.66.43-.24.08-.61-.21-.72.25a1.82,1.82,0,0,0-.33,0,.06.06,0,1,0,0,.12C54.88,38.59,55,38.5,55.07,38.44ZM39.22,25c-.29.08-.62-.08-.94.15.35,0,.68.15.91-.18.06-.08.33.08.21-.16C39.36,24.75,39.23,24.89,39.22,25ZM59.14,37.23a2.63,2.63,0,0,0,1.49-.42l.56-.16c-.28-.17-.49-.16-.67,0a2.24,2.24,0,0,0-1.37.56,1.13,1.13,0,0,0-.76.1A.54.54,0,0,0,59.14,37.23ZM74.73,19.49c-.28.21-.7.32-.6.82,0,0,.06.07.08.06.42-.16.48-.52.5-.9C74.76,19.44,74.81,19.39,74.73,19.49ZM65.35,35a2.26,2.26,0,0,0,1.6-.47,3.27,3.27,0,0,0-1.57.5,1.64,1.64,0,0,0-.23,0l-.27.11a1.73,1.73,0,0,0,.31.07A.18.18,0,0,0,65.35,35Zm19-22a.29.29,0,0,0,0-.09.1.1,0,0,0-.05,0l.1.1.86,1.4C85.29,13.56,85.11,13.07,84.31,13Zm-18.7,6s0-.25-.15-.09l.18.06c.82,1.12.89,1.15,1.53.6C66.6,19.45,66.18,19,65.61,19Zm8.64,0c.22-.26.59-.18.84-.36a5,5,0,0,0-.64-1.53,4.58,4.58,0,0,1-.18,1.9l-.06.05ZM46.15,21.6a1.57,1.57,0,0,0,2.06-.88c-.39,0-.75-.14-1.09.24a5.43,5.43,0,0,1-.94.66l-.07.06s0,0,0,.05Zm39.57-8.89a6.6,6.6,0,0,0-.24-3,29.16,29.16,0,0,0-1.83-3.87A10.28,10.28,0,0,0,76,1.07a19.52,19.52,0,0,0-7.6.46,25.53,25.53,0,0,1-4.34.72,22.86,22.86,0,0,0-4.72.67,19.47,19.47,0,0,1-3.71.8,6.74,6.74,0,0,0-2.7.64A8.11,8.11,0,0,1,54.36,7a.6.6,0,0,0,.89.44c1-.35,2-.64,3-1a22.15,22.15,0,0,1,9.56-1.62,7.59,7.59,0,0,1,4.62,2,4.14,4.14,0,0,1,1.32,3A5.88,5.88,0,0,1,72,14.22,9.81,9.81,0,0,1,67.55,17,16.21,16.21,0,0,0,70,17c.94-.08,1.89-.24,2.83-.4A17,17,0,0,0,81,13.23C82.32,12.14,83.89,11.35,85.72,12.71ZM55,8.3a35.24,35.24,0,0,1,1.35,7.52c0,.52,0,1.24.5,1.53a2.4,2.4,0,0,0,2.23.51,9.7,9.7,0,0,1,3-.64,21.94,21.94,0,0,0,5.26-.89,8.14,8.14,0,0,0,5.44-4.46,3.8,3.8,0,0,0,0-3.43A5.63,5.63,0,0,0,69,5.61a14.94,14.94,0,0,0-5.92.1,31,31,0,0,0-5,1.51A22,22,0,0,0,55,8.3Zm.87,9.5c-.33-1.61-.44-3.07-.65-4.52a23.12,23.12,0,0,0-.83-3.95c-.23-.69-.38-.82-1-.57a14.19,14.19,0,0,1-2.85.79c-.74.14-1.48.24-2.23.35-.26,0-.46.14-.45.43a21,21,0,0,0,.14,3,42.12,42.12,0,0,0,1.38,4.91.6.6,0,0,0,.6.48,2.5,2.5,0,0,0,.93-.13A11.69,11.69,0,0,1,55.82,17.8Zm-19.7-.92a4.75,4.75,0,0,1,2.44,1.43,3.24,3.24,0,0,0,2.75,1.55c.91,0,1.79.47,2.71.14.42-.15.51-.44.26-.79s-.47-.28-.7-.41A3.64,3.64,0,0,1,42.43,18c-1.13-1.44-1.24-3.19,0-4.31a.77.77,0,0,0,.27-.94c-.33-.93-.56-1.89-.85-2.84-.16-.52-.34-.57-.75-.27A11.54,11.54,0,0,0,36.12,16.88Zm-.59-.67a2.78,2.78,0,0,0-.7,0,26.79,26.79,0,0,1-7.19.83c-.64,0-1.28,0-1.92,0-.91,0-1.09.33-.61,1.11a6.84,6.84,0,0,1,1.18,3.08c0,.44.38.3.64.25a21.71,21.71,0,0,1,4.82-.67A2.45,2.45,0,0,0,33,20.51a12.31,12.31,0,0,1,3.41-1.37c.34-.08.85-.22.87-.7s-.51-.54-.85-.69C35.4,17.29,35.39,17.3,35.53,16.21Zm-18.36,4.4a31.72,31.72,0,0,1,1.94,2.7c.08.17.23.14.41.08s.54-.11.8-.21c1.56-.55,3-1.46,4.67-1.69a.62.62,0,0,0,.52-.8,4.66,4.66,0,0,0-1.18-2.3.77.77,0,0,0-1-.1c-.3.19-.63.33-.93.51a10.19,10.19,0,0,1-4.13,1.4A2.32,2.32,0,0,0,17.17,20.61ZM47,10.29c-1.31.88-1.91,2-3,2.69a.3.3,0,0,0-.13.41c.68,1.46.66,3.09,1.09,4.62a.81.81,0,0,0,.88.72,5.84,5.84,0,0,0,2.64-.38A20.61,20.61,0,0,1,47,10.29Zm5.11-5.6a7.59,7.59,0,0,1-2.74,1.16,20.16,20.16,0,0,0-2.06.56c-.7.22-.76.39-.5,1a10,10,0,0,1,.57,1.31c.13.49.29.65.83.49a10.78,10.78,0,0,1,2-.34,13.33,13.33,0,0,0,3.64-1.06A8.35,8.35,0,0,0,52.09,4.69ZM18.3,23.34c-.28-.75-.89-1.14-1.23-1.72s-.6-.52-1.06-.2a12.49,12.49,0,0,1-3.76,1.73,2.49,2.49,0,0,0-.73.36.47.47,0,0,0,.1.9,1.62,1.62,0,0,0,.58.07c1,0,2,.07,3,0A5,5,0,0,0,18.3,23.34Zm25.28-10.8c.79-.79,1.49-1.45,2.11-2.17.3-.34,1-.34,1-.95a4.15,4.15,0,0,0-.48-1.34c-.1-.22-.17-.44-.26-.66s-.25-.36-.55-.24a12.86,12.86,0,0,0-2.6,1.42c-.18.12-.42.27-.3.57A24.71,24.71,0,0,0,43.58,12.54Zm10.1,10.27a.9.9,0,0,0,.76-.24A25.24,25.24,0,0,0,57.1,19a.38.38,0,0,0-.08-.53c-.17-.15-.27,0-.39.1A13.32,13.32,0,0,0,53.24,22c-.12.15-.33.36-.19.61S53.44,22.81,53.68,22.81ZM43.17,13.87c-1.58,1.68-1.15,3.51.92,4.32C43.75,16.77,43.66,15.34,43.17,13.87Zm16.7,4.67a1.73,1.73,0,0,0,1,.7l1.87.73c.58.23.58.22,1.32-.21-.57-.69-1.44-.81-2.14-1.24A1.69,1.69,0,0,0,59.87,18.54Zm-3.75,3.09a11.38,11.38,0,0,0,2.21-1.09,3,3,0,0,0,.91-.94.45.45,0,0,0-.06-.64c-.31-.3-1.23-.3-1.39.07C57.4,19.94,56.65,20.61,56.12,21.63Zm-3.3,1.8c-.31-.56-.69-.64-1.24-.27s-1.43.85-2.14,1.29c-.18.1-.5.16-.29.49a.49.49,0,0,0,.62.23A7.22,7.22,0,0,0,52.82,23.43Zm30.45-6c.34,0,.69-.08,1-.1s.48-.08.47-.39c0-.63.17-1.29-.29-1.85C82.89,15.53,82.69,15.91,83.27,17.39ZM52.36,20.07c-1.67-.47-2.65.46-3.75,1.46.56.07.9.48,1.44.15A12.71,12.71,0,0,0,52.36,20.07ZM34.71,21.83a7.06,7.06,0,0,0,4.56.05l-1-.72a.66.66,0,0,0-.76-.14A17.32,17.32,0,0,1,34.71,21.83Zm46.8-8a3.13,3.13,0,0,1,1,1.2,8.06,8.06,0,0,1,.94-.38,1.27,1.27,0,0,0,.77-.45C83.49,12.73,83.27,12.7,81.51,13.85Zm-1.86,7.2A4.29,4.29,0,0,0,81,18.85c-1.23-.42-1-.7-2,1.27Zm-30.9,4.61c-.37-.59-.71-.72-1.28-.53-1,.3-2,.48-3.13.74C45.91,26.49,47.3,26.07,48.75,25.66Zm30-6.5a3.62,3.62,0,0,0,.71-3c-.06-.23-.1-.62-.51-.51s-.56.22-.51.66A24.35,24.35,0,0,0,78.7,19.16ZM46.22,20.77a5.78,5.78,0,0,0-3.23.54c-.28.1-.52.25-.35.6a.48.48,0,0,0,.67.3A14,14,0,0,0,46.22,20.77ZM80.8,16.06c.31,0,.55,0,.79,0,.43,0,.54-.24.33-.62a4.19,4.19,0,0,0-.38-.73c-.36-.4-.81-.27-1.46.23-.45.34-.16.62,0,.92S80.6,16,80.8,16.06Zm-8.33,9.79c-.07-.22-.11-.44-.19-.65s-.2-.34-.45-.24l-2,.74c-.41.16-.16.47-.12.7s.29.1.46.06A11.56,11.56,0,0,0,72.47,25.85Zm11.19-2.27c.26-.52.47-1,.71-1.42.12-.22.09-.38-.12-.48s-.56-.27-.85-.4-.37,0-.4.12c-.1.5-.43,1-.31,1.49S83.32,23.28,83.66,23.58Zm-7.15-1.36c-.43.29-.84.61-1.29.86a.45.45,0,0,0-.23.67,1.59,1.59,0,0,0,.45.73l1.41-1c.26-.2.37-.4.08-.67A5.14,5.14,0,0,1,76.51,22.22Zm-26.11,0a3.38,3.38,0,0,0,1.06.18c.32-.08.73.06.94-.33a16,16,0,0,1,1.74-2.28C52.81,20.41,51.84,21.5,50.4,22.24Zm34.41-1.08c0-.48,0-.79,0-1.1,0-.64-.37-.87-1.14-.81-.48,0-.59.27-.52.95a.46.46,0,0,0,.41.46A10.08,10.08,0,0,1,84.81,21.16Zm-3.53-2.92c.41-.45.39-1,.62-1.53a1.89,1.89,0,0,0-1.45.09.75.75,0,0,0-.4.79c0,.41.29.38.56.44A4,4,0,0,1,81.28,18.24Zm-36,5.18a4.47,4.47,0,0,0,3.55-1.29C47.24,21.82,46.42,23.12,45.24,23.42Zm29.44,1.21c-.25-.21-.12-.83-.59-.75a1.91,1.91,0,0,0-1.18.71c-.18.25,0,.5.12.76s.42.12.58.07a9.33,9.33,0,0,0,.83-.43A.34.34,0,0,0,74.68,24.63Zm-8.93-6.52c1.74,1.17,2.5,1.34,3.32.75C66.91,17.93,66.91,17.93,65.75,18.11Zm12.72,2.61a2.93,2.93,0,0,0-1.12.85c-.15.15-.26.32-.1.51s.36.58.64.44A2.25,2.25,0,0,0,79,21.46C79.11,21.18,78.72,20.93,78.47,20.72ZM74.82,31.9c.48-.33,1.12-.48,1.52-1a.38.38,0,0,0,0-.45.23.23,0,0,0-.31-.07c-.52.29-1,.57-1.55.87-.15.09-.15.26,0,.41S74.57,31.93,74.82,31.9ZM10.74,24.67c-.12-.35-.1-.77-.52-.6a9,9,0,0,0-3,1.54A18.71,18.71,0,0,1,10.74,24.67Zm38.13-5.36c-1.17.45-2.39.11-3.59.14A3.26,3.26,0,0,0,48.87,19.31Zm-5.22,7a23.35,23.35,0,0,0-5-.43A21.18,21.18,0,0,0,43.65,26.3ZM68.88,26,67,26.69c-.21.07-.36.17-.24.41a.29.29,0,0,0,.38.15c.52-.15,1.06-.25,1.58-.39S69,26.41,68.88,26Zm-5.44,2.19,2.36-.58c.18-.05.27-.13.25-.32s-.16-.2-.33-.16c-.75.19-1.51.36-2.26.56a.26.26,0,0,0-.2.36C63.3,28.17,63.4,28.21,63.44,28.19Zm-8.37-9.81c-1.13.26-2.38,0-3.43.79A5.18,5.18,0,0,0,55.07,18.38ZM45,22.67a26.71,26.71,0,0,0-4,.53A6.55,6.55,0,0,0,45,22.67Zm5.19.62c-.69-.72-.7-.73-1.36-.34s-1.06.65-1.59,1l0,.1Zm18.58-5.48,0,.14,1.78.85a.31.31,0,0,0,.42-.06c.14-.16,0-.27-.07-.41-.1-.42-.4-.54-.8-.52S69.22,17.81,68.79,17.81Zm3.13,14.47c.16.41.27.75.78.47a7.07,7.07,0,0,1,1.22-.44l-.27-.72ZM40.86,25.1a6.35,6.35,0,0,0,2.52.34c.2,0,.41,0,.38-.31s-.16-.4-.38-.31A13.5,13.5,0,0,1,40.86,25.1Zm35.67-8.37c.34,1.05-.32,1.91-.55,3C77.32,18.2,77.34,18.09,76.53,16.73ZM36.16,23.94c1.9.15,2.41.07,3.12-.5C38.31,23.84,37.19,23.25,36.16,23.94Zm7.55.12a8.34,8.34,0,0,0-3.29.34A7,7,0,0,0,43.71,24.06Zm33.36,6.49,1.37-1.13c-.17-.26-.31-.59-.55-.41s-.8.39-1,.81C76.81,30,76.91,30.21,77.07,30.55Zm-7.5,3c.11.21.26.37.47.3.4-.14.8-.32,1.19-.5.15-.07.37-.16.21-.42a.37.37,0,0,0-.5-.18A5.08,5.08,0,0,0,69.57,33.52Zm-29-12.93c-.57-.26-1-.51-1.52-.12-.09.07-.24.11-.2.25s.14.15.23.22C39.69,21.39,40.07,20.9,40.57,20.59ZM79,28.93a3.18,3.18,0,0,0,1-.83.25.25,0,0,0,0-.33c-.08-.08-.21-.21-.28-.19a2.18,2.18,0,0,0-.89.76C78.53,28.6,78.9,28.72,79,28.93Zm2.49-2.31c-.25-.23-.41-.46-.66-.41s-.47.4-.64.66,0,.22.07.31.27.24.41.14S81.16,26.86,81.44,26.62ZM60.25,28.74c.72-.21,1.59.1,2.37-.71A4.52,4.52,0,0,0,60.25,28.74ZM81.78,26c.19,0,.52-.31.56-.54s-.39-.68-.56-.63a.76.76,0,0,0-.5.6C81.24,25.75,81.53,25.89,81.78,26ZM31.66,22.52H34.3A2.55,2.55,0,0,0,31.66,22.52ZM83.2,18.43c.41.1.81.2,1.22.28.23,0,.36-.1.36-.33s-.06-.34-.24-.33C84.1,18.08,83.63,17.94,83.2,18.43Zm.1,5.71c-.2-.11-.33-.26-.47-.26s-.42-.43-.66,0,.13.42.3.58C82.93,24.91,83.05,24.45,83.3,24.14ZM61.87,36.28a5.31,5.31,0,0,0,2.31-.71A5.37,5.37,0,0,0,61.87,36.28Zm4.77-15.39c-1-.57-1.37-.63-2-.39Zm-13.11,18a2.55,2.55,0,0,0-1.59.46A2.46,2.46,0,0,0,53.53,38.88ZM75.9,18.15v-1c0-.18-.1-.28-.3-.24s-.35.24-.29.29C75.57,17.44,75.3,17.93,75.9,18.15ZM69.17,33.9c-1,.08-1,.08-1.48.55A2.69,2.69,0,0,0,69.17,33.9ZM72.3,17.84c0-.08,0-.26-.25-.23s-.6,0-.55.38c0,.12.09.41.36.33S72.34,18.25,72.3,17.84ZM46.76,24.18c-.94-.18-.94-.17-1.56.32C45.65,24.17,46.18,24.3,46.76,24.18Zm27-6.16c-.06-.23.17-.59-.27-.63a.47.47,0,0,0-.35.23c.31.2.24.6.41.79S73.71,18.18,73.76,18Zm4-.8a4.14,4.14,0,0,0,0-.6c0-.13.05-.35-.2-.31s-.35.12-.25.39A.67.67,0,0,0,77.8,17.22Zm-8.24,3.07a1.06,1.06,0,0,0-1.2.3A1.13,1.13,0,0,0,69.56,20.29ZM39.12,22.76c.39-.1.91.31,1.23-.36A2.28,2.28,0,0,0,39.12,22.76Zm33.51-4a.24.24,0,0,0-.26.18c0,.26.19.42.32.61.11-.11.29-.19.32-.32C73.09,19,72.87,18.85,72.63,18.78Zm-13.15,10L58.23,29A1.24,1.24,0,0,0,59.48,28.75Zm10.39-6.38c0-.23-.19-.2-.33-.21a2.15,2.15,0,0,0-.34.05.47.47,0,0,0,.41.34A.24.24,0,0,0,69.87,22.37ZM36.79,23a1.26,1.26,0,0,0,1,0A1.78,1.78,0,0,0,36.79,23Zm5.21-.8a.34.34,0,0,0-.39-.22c-.12,0-.23.11-.18.24s.23.16.37.14S42.06,22.3,42,22.15ZM41.49,21c-.06.07,0,.14.08.13a.58.58,0,0,0,.31-.11.1.1,0,0,0,0-.19C41.7,20.73,41.61,20.89,41.49,21ZM57,37.92l.2-.07a.5.5,0,0,0-.17-.1c-.08,0-.2,0-.21.1S57,37.89,57,37.92ZM73.25,21l-.07-.19s-.07.05-.07.08,0,.12,0,.19ZM37.11,25.78s-.1,0-.1,0,0,.08.13,0Zm33.26-6.09-.05-.1s-.07.05-.07.08,0,.16.09.12S70.36,19.73,70.37,19.69Zm.9-.37s0,.06,0,.07a.15.15,0,0,0,.09,0c.1,0,.09-.08,0-.1S71.3,19.31,71.27,19.32ZM57.62,29.25l.19-.05s-.05-.07-.08-.07l-.19.05ZM28.35,23.61l-.09.05s0,.07,0,.06a.46.46,0,0,0,.14-.07Zm-1,.37.21-.06s-.06-.08-.09-.08l-.21.06ZM69,21.58l.09-.06a.73.73,0,0,0-.19-.07s-.06,0-.1.05Zm.47-2.48.08,0v-.08ZM41,21.22l-.05.06h.08Zm-.5.24,0,.06h.07ZM6.23,26l0,0h.06Zm45.1,13.52,0,0H51.3Z"/><path d="M46.9,32.91c-.76-.25-.69-1-.9-1.56a.27.27,0,0,1,.25-.33.32.32,0,0,1,.37.22l.51,1.44,0,0a.34.34,0,0,0-.27.26Z"/><path d="M31.74,20.16c-.2,0-.23-.19-.23-.35s.19-.41.35-.58a3.4,3.4,0,0,1,1.83-.71.37.37,0,0,1,.48.38.32.32,0,0,1-.38.34,2,2,0,0,0-1.84.84C31.91,20.13,31.81,20.14,31.74,20.16Z"/></g></g></svg>