<svg xmlns="http://www.w3.org/2000/svg" viewBox="0 0 121.83 43.59"><title>Myctophid</title><g id="Layer_2" data-name="Layer 2"><g id="Myctophid"><path d="M106.33,22.2a2.41,2.41,0,0,0,1.21.57,58.34,58.34,0,0,1,10.25,4.64,13.42,13.42,0,0,1,2.84,2.2,4,4,0,0,1,1.12,1.81c.27.95-.1,1.47-1.09,1.54a19.78,19.78,0,0,1-5.93-.59,94.53,94.53,0,0,0-11-1.88c-2.49-.27-5-.79-7.45-1.08-2.22-.26-4.41-.68-6.61-1A17.42,17.42,0,0,0,84,28.28a22.09,22.09,0,0,1-3.36.09c-.19,0-.39,0-.72.08a6.78,6.78,0,0,0,1.49,1.1c.15.13.31.28.26.5s-.26.28-.45.33a47.86,47.86,0,0,0-7.91,3.09C68,35.8,63,38.67,57.67,41.06c-1.53.69-3.09,1.32-4.67,1.87a14.46,14.46,0,0,1-3.76.65,3,3,0,0,1-1.82-.51,7.29,7.29,0,0,1-1.88-1.66,28.31,28.31,0,0,1-4.79-8.94c-.29-1-.34-1-1.21-.92a43.91,43.91,0,0,1-4.67.49,3,3,0,0,0,.59,1.36,4.48,4.48,0,0,1,.39,4c-.25.63-.43,1.29-.71,1.91-.45,1-1,1.11-1.61.19A21.52,21.52,0,0,0,31.68,37c-1.2-1.43-2.42-2.86-3.61-4.3a.78.78,0,0,0-.64-.25c-1.43-.05-2.86-.22-4.3-.27a23,23,0,0,1-5.22-.55.77.77,0,0,0-.35-.08c-2.8.42-5.45-.46-8.14-.95-.94-.17-1.88-.34-2.83-.47a7.38,7.38,0,0,1-4.45-2.6c-.46-.5-.82-1.09-1.23-1.63a2,2,0,0,1-.38-1.12c-.05-.84.12-1,1-1.05.16,0,.32.05.46-.12,0-.46-.43-.62-.71-.86A3.06,3.06,0,0,1,.17,20.83c-.54-3.26.17-6.07,3.05-8.15a17,17,0,0,1,7.87-3,30.88,30.88,0,0,0,3.26-.78,43.42,43.42,0,0,1,5.9-1c3.05-.33,6.11-.56,9.17-.83a33.74,33.74,0,0,1,5.86,0A48.76,48.76,0,0,1,41.2,8a2.69,2.69,0,0,0,2.12-.5c1.28-.82,2.64-1.5,4-2.22,2.4-1.29,4.86-2.44,7.3-3.64A19,19,0,0,1,59.72.07a4.93,4.93,0,0,1,2,.09,2.48,2.48,0,0,1,1.59,1.16,6.73,6.73,0,0,1,1.1,2.89,7.9,7.9,0,0,1,.1,3.32A1.88,1.88,0,0,0,65,9.33a8.42,8.42,0,0,0,2.74,2.29,4.58,4.58,0,0,1,1.51,1,3.25,3.25,0,0,0,3.44.68c1.75-.42,3.5-.84,5.21-1.4a2.63,2.63,0,0,1,3.11.83c.47.54,1.08,1,1.24,1.73a.49.49,0,0,0,.48.44c.59.08,1.18.21,1.78.24.84,0,1.67.06,2.51.18a6.52,6.52,0,0,0,2-.12c3.71-.55,7.31-1.67,11-2.19,2.53-.35,5.09-.53,7.63-.81,1.71-.19,3.41-.38,5.11-.62a23.45,23.45,0,0,1,4.43-.1,5.27,5.27,0,0,1,1.51.35c.81.3,1,.8.69,1.62a3.3,3.3,0,0,1-.83,1.16,25.21,25.21,0,0,1-5.24,3.76C111,19.66,108.74,21,106.33,22.2ZM33.53,36l0,.05-.06,0a.24.24,0,0,0-.23-.23,8.17,8.17,0,0,0-2.77-3.15,29.56,29.56,0,0,0,2.79,3.13Zm-1.91-.71a.24.24,0,0,0,.24.24.88.88,0,0,0,.34.72,12,12,0,0,1,1.68,2.14c.1.16.21.33.77.32a12.89,12.89,0,0,0-2.81-3.16c0-.16-.08-.25-.24-.24,0-.17-.08-.25-.25-.24a1.29,1.29,0,0,0-.7-1,.3.3,0,0,0-.26-.25.23.23,0,0,0-.24-.23q0-.24-.24-.24a.21.21,0,0,0-.24-.24.23.23,0,0,0-.24-.24.26.26,0,0,0-.24-.24c0-.12,0-.15-.08-.08l.1,0,.24.24a.31.31,0,0,0,.24.24.32.32,0,0,0,.24.25l.24.23a.31.31,0,0,0,.25.24.29.29,0,0,0,.25.24,1.18,1.18,0,0,0,.7,1A.28.28,0,0,0,31.62,35.33Zm2.86-1.43,0,0-.07,0a.57.57,0,0,0-.21-.5,1.57,1.57,0,0,0-.86-1.23,1.72,1.72,0,0,0,.88,1.21Zm60-5.77a1,1,0,0,0,.16.12s0,0,.08,0l-.26-.08a.75.75,0,0,0-.16-.15A.21.21,0,0,0,94,28a.82.82,0,0,0,.25.12A.79.79,0,0,0,94.49,28.13ZM79.84,13.49a2.92,2.92,0,0,0-1.94.83,2.55,2.55,0,0,0,1.92-.85l.27-.07s-.06,0-.08,0ZM45.78,7.27a3,3,0,0,0-1.62.81c.25.36.51.36.73.11s.69-.52.87-.94c.12,0,.14-.06.06-.08A.49.49,0,0,1,45.78,7.27ZM101.7,27.42c-.35-.42-.81-.25-1.23-.22a.55.55,0,0,0-.38-.27A37.16,37.16,0,0,1,95,25.78a.31.31,0,0,0-.41.12c0,.31.31.33.54.38.93.19,1.87.39,2.81.56a6.63,6.63,0,0,0,2.58.33,1.12,1.12,0,0,0,1.23.22,10.3,10.3,0,0,0,4.56.72,1.12,1.12,0,0,0,.75.33c.89.2,1.8.35,2.68.57,3.4.86,6.88,1.37,10.24,2.39.2.07.46.19.69-.16A2,2,0,0,0,119.11,30c-.43-.07-.87-.09-1.29-.19a84.06,84.06,0,0,0-8.48-1.36,11.36,11.36,0,0,0-3.08-.26A13.6,13.6,0,0,0,101.7,27.42Zm-48.5-24a6.23,6.23,0,0,0-1,.41C50.55,4.9,48.9,6,47.26,7.11a3.36,3.36,0,0,0-1.35,1.27A1.31,1.31,0,0,0,47.48,8,39.54,39.54,0,0,1,52.2,4.38c.39-.28.82-.5,1-1l.28-.07s-.06,0-.08,0A1.88,1.88,0,0,0,53.2,3.41ZM95.45,25c-.09-.06-.16-.29-.31-.06l.33,0c.15.44.6.37.9.45q3.31.8,6.68,1.3,4,.6,8,1.13a9,9,0,0,0,2.44.23c-.07-.2-.2-.21-.31-.24a53.21,53.21,0,0,0-8.58-1.45c-2.8-.39-5.6-.75-8.37-1.34A1.52,1.52,0,0,0,95.45,25ZM10.38,10.9a1.19,1.19,0,0,0-.32-.1,2.63,2.63,0,0,0-.48.06,16.21,16.21,0,0,0-5.4,2.23,6.46,6.46,0,0,0-3.09,4.23c-.75,3.54.4,5.38,3.48,6.27a44.65,44.65,0,0,0,6.25,1.57c1.43.19,2.76.85,4.16,1.12.87.16,1.79,1.08,2.7,0a.16.16,0,0,1,.12,0,1,1,0,0,1,.77.67.94.94,0,0,1-.23,1.1c-.26.25-.6.37-.87.14a3.3,3.3,0,0,0-1.61-.74,31,31,0,0,1-3.45-1,10.77,10.77,0,0,0-1.87-.42,1.33,1.33,0,0,0-.81.07A5.7,5.7,0,0,1,4.55,26L2,24.82c-.18-.08-.39-.17-.54,0s0,.38.1.54a9.35,9.35,0,0,0,1.92,2.28,5.94,5.94,0,0,0,2.8,1.55c2.67.5,5.34,1,8,1.43a14,14,0,0,0,3.24,0c1.17-.08,1.37-.34,1.69-1.48a12.84,12.84,0,0,0-.06-5.45,22.41,22.41,0,0,0-2.41-6.87c-.15-.29-.37-.6,0-.83s.57.11.76.37a2.29,2.29,0,0,1,.18.31,23.14,23.14,0,0,1,2.64,9.73,15.42,15.42,0,0,1-.46,3.82A7.42,7.42,0,0,0,24,28.83a14.33,14.33,0,0,0,3.34-4.35,4.61,4.61,0,0,0-2.56-6.65,6.47,6.47,0,0,0-2.91-.54.45.45,0,0,1-.54-.36c0-.34.16-.52.48-.57a3.59,3.59,0,0,1,.47,0,5.2,5.2,0,0,1,2.33.47c.3.12.6.44,1,.1-.08-.48-.49-.71-.79-1a3.2,3.2,0,0,1-1.05-1.57A1.33,1.33,0,0,0,23,13.27,1.48,1.48,0,0,1,22,11.64c.16-.9.13-.91-.7-1.25-.14-.06-.3-.1-.45-.17a.39.39,0,0,1,.2-.76,4.89,4.89,0,0,1,1.8.63c.68.36.7.48.31,1.2s-.38.85.38,1.29c.24.14.5.26.73.42s.46.37.41.68c-.14.81.41,1.25.9,1.7a2.49,2.49,0,0,1,1,1.83c0,.43.27.63.54.87a6.16,6.16,0,0,1,1,6.68,25.75,25.75,0,0,1-3.25,4.43,4.42,4.42,0,0,1-1.79,1.18l-2.2.76a49.44,49.44,0,0,0,6,.34l.36,0c3,.47,5.88-.19,8.82-.44a1.08,1.08,0,0,0,.93-.62c.51-.9.75-.91,1.51-.16.24.24.44.46.8.43,1.35-.15,2.69-.1,4-.12,1.95,0,3.91-.33,5.86-.33,3,0,5.89-.42,8.84-.58s5.9-.43,8.84-.66c1.51-.12,3,0,4.47-.69a6.88,6.88,0,0,1,3.39-.58,14.33,14.33,0,0,0,3.91-.36c-.29-.77-.2-1.14.29-1.29a.69.69,0,0,1,.94.63c-.07,1,.52.76,1,.73,2.16-.1,4.31-.29,6.47-.21a3.64,3.64,0,0,0,1.64-.1c-.16-.92-.15-1,.13-1.38s.62-.51,1.06-.1.28.94.19,1.47a3,3,0,0,0,2-.42A3.24,3.24,0,0,0,94,23.15a5.11,5.11,0,0,1-.15-2.6c.1-.59.28-1.17.33-1.76a1.47,1.47,0,0,0-1-1.8,7.38,7.38,0,0,0-1.2-.42,38.54,38.54,0,0,0-4.16-.41A23,23,0,0,1,84.11,16a24.56,24.56,0,0,0-2.85-.29,45.69,45.69,0,0,1-6.4-.8,45.49,45.49,0,0,0-5.45-.64,41.48,41.48,0,0,1-6.39-.9c-5-1.24-9.85-2.7-14.93-3.36-1.11-.15-2.16-.57-3.29-.63a36.47,36.47,0,0,1-5-.64,35.72,35.72,0,0,0-8-.73q-3.18.09-6.34.42c-3,.3-6.06.46-9,1-1.46.26-2.89.68-4.51,1.07a2.35,2.35,0,0,0,.42.21c.49.1,1,.11.26.74a1.24,1.24,0,0,0-.29,1.18c.07.22.11.51-.18.62s-.54-.12-.7-.34a3.79,3.79,0,0,1-.29-.65c-.14-.27-.33-.45-.67-.27a.36.36,0,0,1-.52-.11c-.13-.22,0-.38.18-.51S10.41,11.1,10.38,10.9Zm84.78,9.16a1.58,1.58,0,0,0,1.07,0c.89-.22,1.78-.44,2.67-.61a95.67,95.67,0,0,0,12.35-3.19,14.58,14.58,0,0,1,4.25-1.15,3.61,3.61,0,0,0,2.83-1.7c.15-.18.27-.41,0-.65-3.89,1.11-7.68,2.55-11.51,3.91S99.08,19.08,95.16,20.06Zm-1.25,6.71c.1.15.12.24.18.27a5.45,5.45,0,0,0,.55.25,25.36,25.36,0,0,0,8.29,2.18,90.47,90.47,0,0,1,11.56,1.91,22.1,22.1,0,0,0,4.74.75c-.18-.29-.46-.32-.72-.41-1.26-.41-2.57-.55-3.85-.84C111.79,30.24,109,29.43,106,29c-2.68-.39-5.33-.9-8-1.4C96.68,27.35,95.33,27.06,93.91,26.77Zm-47.08,4.6a.81.81,0,0,0,.06.3A38.18,38.18,0,0,0,55,40.24c1,.75,1,.73,2.14,0-.11-.29-.4-.37-.62-.53a40,40,0,0,1-7.61-7.55A1.64,1.64,0,0,0,46.83,31.37Zm-3.91.27c.41.79.73,1.52,1.16,2.18,1.83,2.78,3.13,6,6,8a1.61,1.61,0,0,0,2.47-.18,11.38,11.38,0,0,1-2.56-2,38.52,38.52,0,0,1-5.62-7.57A1,1,0,0,0,42.92,31.64Zm12,9.49c-1.11-1-2.15-1.81-3.14-2.73a41.19,41.19,0,0,1-5.63-6.66c-.28-.41-.6-.56-1-.33s-.06.65.09.9A42.07,42.07,0,0,0,50,38.73,11.11,11.11,0,0,0,53.4,41.3,1.18,1.18,0,0,0,54.88,41.13ZM96.26,20.82c1.36-.15,2.75-.22,4.13-.33,2.59-.2,5.11-.77,7.67-1.12a7.87,7.87,0,0,0,2.66-.61c1.16-.6,2.3-1.28,3.43-2A1.47,1.47,0,0,0,115,16,153.2,153.2,0,0,1,96.26,20.82Zm-1,3a1.36,1.36,0,0,0,.89.48c4.32.93,8.72,1.39,13.09,1.94,1.67.21,3.28.68,4.91,1,.23.06.54.23.39.48-.39.65.11.62.47.7.82.17,1.64.34,2.46.48.19,0,.47.16.63-.18a2.43,2.43,0,0,0-.34-.3A53.71,53.71,0,0,0,112,25.54c-.17-.08-.45-.2-.56-.12-.59.42-1.16.06-1.73,0s-1.35-.23-2-.25c-2.51-.07-5-.47-7.5-.65C98.61,24.41,97.05,24.08,95.25,23.85ZM59.2,39.2c-.65-.45-1.28-.8-1.82-1.25A47.63,47.63,0,0,1,51,31.62a1.26,1.26,0,0,0-1.33-.55c-.46.1-.55.27-.31.66.11.16.25.31.37.46A55,55,0,0,0,55,37.62a13,13,0,0,0,2.51,1.83A1.24,1.24,0,0,0,59.2,39.2Zm-9.71,3.28a.64.64,0,0,0-.38-.48,6.66,6.66,0,0,1-1.79-1.76,72.53,72.53,0,0,1-4.82-7.86c-.18-.35-.25-1-.82-.79s-.06.71.06,1.06a27,27,0,0,0,4.41,8.05,6.59,6.59,0,0,0,1.78,1.59A1.59,1.59,0,0,0,49.49,42.48ZM95.24,19.17c6.47-1.17,12.46-3.55,18.5-5.8a2.5,2.5,0,0,0-1.53,0c-1.59.42-3.1,1-4.65,1.56-3.85,1.29-7.7,2.59-11.62,3.69C95.71,18.69,95.38,18.71,95.24,19.17ZM47.58,8.87c.88.29,1.34-.26,1.84-.6C52.27,6.35,55,4.21,57.91,2.45l2.3-1.33a2.06,2.06,0,0,0-1.1,0,6.6,6.6,0,0,0-2.52,1.11c-1.1.78-2.27,1.48-3.37,2.28A47.78,47.78,0,0,0,47.58,8.87Zm2,.15a.88.88,0,0,0,1.31,0A40.34,40.34,0,0,1,56,5.5a28.28,28.28,0,0,1,6.12-3.19c.22-.06.48-.17.36-.5A.54.54,0,0,0,62,1.4a2.38,2.38,0,0,0-.7.16A11.43,11.43,0,0,0,59,2.6c-1.07.68-2.17,1.33-3.22,2.05C53.72,6.08,51.68,7.53,49.57,9Zm2,22.1c0,.33.26.48.43.69a50,50,0,0,0,5.17,5.12,9.14,9.14,0,0,0,2.6,1.68.59.59,0,0,0,.79-.11c-.4-.39-.75-.76-1.15-1.09a72,72,0,0,1-6.18-5.79A1.37,1.37,0,0,0,51.6,31.12Zm4.62-.3c0,.09,0,.18.06.23a38.86,38.86,0,0,0,6.41,5.74c.89.59,1,.57,1.87-.32-2.43-1.88-5-3.54-7.28-5.64A.72.72,0,0,0,56.22,30.82Zm6.34,6.72a21.3,21.3,0,0,1-4.23-3.47c-.91-1-1.84-1.87-2.79-2.79-.65-.63-.69-.61-1.58,0a1.53,1.53,0,0,0,.49.66c2,1.94,4.09,3.9,6.27,5.69C61.48,38.23,61.47,38.24,62.56,37.54ZM95.4,17.94c1.4-.07,14.11-4.26,15.53-5.15-1,.1-2,.13-2.92.3s-1.85-.09-2.39.89c-.05.08-.21.11-.32.14-3.19.8-6.08,2.4-9.19,3.44A1.11,1.11,0,0,0,95.4,17.94ZM60.76,30.39a4.15,4.15,0,0,0,1.38,1.25,27.16,27.16,0,0,0,4.75,3.18,1.12,1.12,0,0,0,1.59-.31c-.37-.24-.7-.45-1-.68a42.68,42.68,0,0,1-3.89-2.76A2.93,2.93,0,0,0,60.76,30.39ZM51.61,9.51c.46.24.7-.08,1-.28a31,31,0,0,1,3.77-2.32c2.1-1.06,4.18-2.16,6.37-3,.34-.13.6-.28.45-.69s-.45-.27-.71-.22a7.67,7.67,0,0,0-2,.77A78.84,78.84,0,0,0,52.4,8.66C52.09,8.88,51.73,9.08,51.61,9.51Zm15,26A35.11,35.11,0,0,1,60.31,31a2,2,0,0,0-2-.39,3.82,3.82,0,0,0,1.11,1.12q2.64,2,5.31,3.89C65.53,36.26,65.54,36.25,66.65,35.49ZM95.26,22.91c2.58.91,12.69,1.71,14,1.48a33.65,33.65,0,0,0-3.37-1.15.7.7,0,0,0-.35,0,19.11,19.11,0,0,1-5.34,0ZM53.08,9.79a1.12,1.12,0,0,0,1.26,0,50.35,50.35,0,0,1,7.28-3.89c.51-.23,1-.43,1.55-.63.28-.1.57-.18.4-.57s-.44-.25-.7-.14-.53.19-.78.31c-1.81.86-3.62,1.7-5.39,2.61A21,21,0,0,0,53.08,9.79Zm1.87.44a1.12,1.12,0,0,0,1.25,0A41.59,41.59,0,0,1,62.91,7.4c.91-.29,1-.49.5-1.5A60.33,60.33,0,0,0,55,10.23Zm49.13,3.27-3.54.36A1.45,1.45,0,0,0,100,14c-1.53.92-3.14,1.7-4.74,2.5-.19.09-.5.11-.34.63C98.09,16.35,101,14.7,104.08,13.5ZM70.19,33.73c-.16-.38-.5-.45-.76-.62a22.71,22.71,0,0,1-3.49-2.48,2.49,2.49,0,0,0-2.44-.47A43.15,43.15,0,0,0,69.06,34,.83.83,0,0,0,70.19,33.73ZM108,20.27c-2.87.29-5.65.73-8.55,1,1.67.15,3.26,0,4.83.32a2,2,0,0,0,1.3-.1Zm-41.5,9.85A23.16,23.16,0,0,0,71,33.2,1,1,0,0,0,72.07,33c-.16-.35-.45-.39-.69-.52A18.65,18.65,0,0,1,68,30.22,1.12,1.12,0,0,0,66.53,30.12Zm37.6-7.26c0-.57-.32-.64-.67-.65L95.28,22A68.91,68.91,0,0,0,104.13,22.86Zm-28.84,8.5c-1.05-.68-2.06-1.32-3.05-2-.44-.3-.8-.16-1.29.18a16.4,16.4,0,0,0,3.57,2.22C74.79,31.91,75.05,31.74,75.29,31.36ZM68.78,29.9a15,15,0,0,0,4.07,2.46c.24.09.55.17.69-.23a20.65,20.65,0,0,1-2.79-1.83A2,2,0,0,0,68.78,29.9ZM57.16,10.77a1,1,0,0,0,1.14-.12,12.67,12.67,0,0,1,4.17-1.71,4.82,4.82,0,0,0,.91-.29.3.3,0,0,0,.12-.41.24.24,0,0,0-.27-.17,5.45,5.45,0,0,0-.58.14,39.21,39.21,0,0,0-4.85,2C57.57,10.31,57.25,10.36,57.16,10.77ZM31.72,32.61c1.2,1.27,2.17,2.69,3.38,4.11.09-.68.34-1.19-.44-1.47-.26-.1-.41-.47-.6-.72-.41-.53-.8-1.09-1.22-1.61A.79.79,0,0,0,31.72,32.61ZM60.9,11.68a2,2,0,0,0,1.52.41c.79-.23,1.53-.6,2.3-.91.15-.06.3-.17.22-.35a.92.92,0,0,0-.3-.35c-.13-.11-.3-.05-.45,0A24.83,24.83,0,0,0,60.9,11.68Zm3-2.13A7.86,7.86,0,0,0,59,11.24c.11,0,.23.16.31.13,1.43-.48,2.85-1,4.27-1.47A.36.36,0,0,0,63.87,9.55Zm9,19.38c2.61,1.9,3,2.09,3.72,1.84-.27-.37-.72-.48-1.06-.73a3.66,3.66,0,0,1-1.11-.88C74.06,28.5,73.56,28.67,72.9,28.93ZM3.09,24.11a6.25,6.25,0,0,0,5,1.42C6.33,25,4.68,24.66,3.09,24.11ZM77,28.71c.65.46,1.15.84,1.66,1.18s.78.12,1.18-.27C78.89,29.17,78.22,28.43,77,28.71ZM66.44,12.18c-.79-.68-1.47-.57-2.7.31A2.89,2.89,0,0,0,66.44,12.18Zm11.4,18.09c-.59-.49-1.19-1-1.8-1.47a.52.52,0,0,0-.32-.11.45.45,0,0,0-.32.12.2.2,0,0,0,0,.3A5.2,5.2,0,0,0,77.84,30.27ZM94.31,15.8a4.94,4.94,0,0,0,3.14-1.3C96.13,14.41,95.33,15.36,94.31,15.8Zm22.31-3.44c-.93-.17-1.73-.15-2.21.79A4.38,4.38,0,0,0,116.62,12.36ZM80,14.47c.37.17.75.31,1.09,0,.11-.08,0-.24,0-.31C80.65,13.85,80.37,14.23,80,14.47ZM68.09,13c-.4-.36-.7-.52-1.15,0A1.18,1.18,0,0,0,68.09,13Zm10.27-.09c.52,0,.52,0,.86-.32C78.85,12.5,78.55,12.53,78.36,12.92ZM34.86,37.34c0-.07,0-.16-.09-.19s-.13,0-.2.07,0,.16.09.18S34.79,37.36,34.86,37.34Zm58-21.8-.14,0s0,.05,0,.05Z"/><path d="M54.38,24.06c-.12.35.2.44.26.66.22.77-.18,1.28-1,1.19-.45,0-.79-.2-.59-.76s-.16-.48-.44-.38a9.18,9.18,0,0,0-1.2.54,44.19,44.19,0,0,1-8.66,3.08l-.69.19c-.15,0-.33.09-.25.31.23.65-.06,1-.67,1.12s-.87-.4-.95-1c0,0-.06,0-.11-.1a56.37,56.37,0,0,1-5.82.1,3.37,3.37,0,0,1-.71-.09C32,28.65,32,28.65,32,27.05a4.12,4.12,0,0,0-.31-1.51,1.57,1.57,0,0,1,1-2.19,19.56,19.56,0,0,1,3.38-.72,77.33,77.33,0,0,1,13-.75,63,63,0,0,1,6.44.47,2.35,2.35,0,0,1,.7.14c.28.14.6.34.56.7s-.43.41-.75.42A3.88,3.88,0,0,0,54.38,24.06Zm-8.85-.72a21.1,21.1,0,0,0-3.55.31c-2.68.39-5.32.94-8,1.49a1.93,1.93,0,0,0-1.13.5c.16.05.24.1.31.09,3.2-.56,6.42-1,9.59-1.78a12,12,0,0,0,2.72-.63.85.85,0,0,0,.23,0c.07,0,.19.08.21-.08a.53.53,0,0,0-.22,0A.72.72,0,0,0,45.53,23.34Zm7.34.24A4.55,4.55,0,0,0,51,23.44c-2.06.26-4.11.54-6.15.88s-3.91.77-5.87,1.13q-2.7.5-5.41.94c-.33.06-.6.13-.63.6.44-.08.81-.17,1.19-.23,2.24-.4,4.48-.76,6.7-1.21a45.45,45.45,0,0,1,8.54-.92A7.78,7.78,0,0,0,52.87,23.58Zm-4.68,2C43,25.55,38,27,32.71,27.67A1.35,1.35,0,0,0,34,28a5.63,5.63,0,0,1,1.29-.23c1.11-.11,2.21-.25,3.32-.39,2.09-.27,4.17-.61,6.27-.78A9.58,9.58,0,0,0,48.19,25.55ZM40,23.19c-3.48,0-6.4.59-7.69,1.6ZM53.72,25l-.15.11s0,.08.07.08a1.06,1.06,0,0,0,.19-.06Z"/><path d="M7.58,13.07a5.67,5.67,0,0,1,5.5,5.38,4.83,4.83,0,0,1-4.76,5A5.63,5.63,0,0,1,2.58,17.9,4.75,4.75,0,0,1,7.58,13.07Zm.58,9.37A3.72,3.72,0,0,0,12,19.27,4.67,4.67,0,0,0,7.18,14a3.92,3.92,0,0,0-3.62,3.39A4.58,4.58,0,0,0,8.16,22.44Z"/><path d="M24.73,11.93c-.22-.39-.35-.52-.36-.66-.06-.65-.88-.93-.77-1.65.6-.09,1.2-.14,1.8-.28s1.3.05,2-.07a.45.45,0,0,1,.5.43c0,.35-.28.29-.52.29A2.58,2.58,0,0,0,24.73,11.93Z"/><path d="M48.36,29.55c-.63,0-1-.23-1-.77a1.19,1.19,0,0,1,1.13-1.27,1.12,1.12,0,0,1,1.09,1C49.61,29.1,49.08,29.52,48.36,29.55Zm.42-1a.24.24,0,0,0-.24-.21.28.28,0,0,0-.34.23.22.22,0,0,0,.27.27A.36.36,0,0,0,48.78,28.52Z"/><path d="M54.46,28.21a1,1,0,1,1-2,0c0-.66.43-1.2.93-1.18A1.15,1.15,0,0,1,54.46,28.21Zm-.76,0a.26.26,0,0,0-.3-.26.33.33,0,0,0-.31.29c0,.18.14.26.31.26A.32.32,0,0,0,53.7,28.17Z"/><path d="M62,23.76a1.27,1.27,0,0,1-1.19,1,.8.8,0,0,1-.78-.87,1,1,0,0,1,.92-1C61.51,22.86,62.05,23.34,62,23.76Zm-.92-.05s-.06-.07-.08-.07a.12.12,0,0,0-.08.18s0,.05.08.08A1.08,1.08,0,0,1,61.09,23.71Z"/><path d="M58.43,26.31a1.4,1.4,0,0,1,1.07,1.13,1.06,1.06,0,0,1-1,.88c-.47,0-.71-.29-.73-.9S58,26.32,58.43,26.31Zm.17.94-.08.06a.67.67,0,0,0,.07.18s.08,0,.07-.07A1.15,1.15,0,0,0,58.6,27.25Z"/><path d="M82.85,25.16a.92.92,0,0,1,.85.84,1.08,1.08,0,0,1-1.11.86.92.92,0,0,1-.78-.91A1,1,0,0,1,82.85,25.16Z"/><path d="M27.62,30.25a1,1,0,0,1-1-.84,1.12,1.12,0,0,1,.92-1.07c.39,0,1,.56,1,1A1.05,1.05,0,0,1,27.62,30.25Zm.09-.92-.07-.17s-.08.05-.07.06a.61.61,0,0,0,.07.17Z"/><path d="M63.52,27.53a1.1,1.1,0,0,1-1.09,1,.72.72,0,0,1-.71-.8c0-.44.67-1.18,1-1.18A1,1,0,0,1,63.52,27.53Zm-.79.13,0-.1-.16.15s0,.05,0,.08Z"/><path d="M74.09,22.76A1.47,1.47,0,0,1,73,24.13a.65.65,0,0,1-.77-.55c-.1-.53.56-1.16,1.22-1.18C73.73,22.39,74,22.43,74.09,22.76Z"/><path d="M31.82,21.27a1.26,1.26,0,0,1-1.34.92.77.77,0,0,1-.66-1.05c0-.2.13-.39.38-.38a.29.29,0,0,1,.3.3c0,.17,0,.34.23.33a.22.22,0,0,0,.22-.32c-.11-.31-.13-.61.29-.58S31.82,20.86,31.82,21.27Z"/><path d="M68.26,27.39c0,.4-.71.77-1.25.69a.69.69,0,0,1-.62-.85c.07-.43.29-.76.76-.77S68.3,27.1,68.26,27.39Z"/><path d="M31.32,26.93a1.07,1.07,0,0,1-1.07.9c-.45-.07-.57-.39-.56-.78,0-.61.48-1.15.89-1.08A1,1,0,0,1,31.32,26.93Z"/><path d="M76.51,26.41a1,1,0,0,1-.9.93.79.79,0,0,1-.91-.6c-.12-.41.45-1,1-1A.74.74,0,0,1,76.51,26.41Z"/><path d="M66.51,23.6c.41,0,.52.41.55.76a1,1,0,0,1-1,1c-.41,0-.86-.35-.86-.66S66,23.61,66.51,23.6Z"/><path d="M71.23,26.26c.76,0,1,.26,1,.83s-.36.8-1,.77a.84.84,0,0,1-.91-.86A.74.74,0,0,1,71.23,26.26Zm.28.7c-.07-.1-.15-.18-.27-.08s-.11.15-.09.19a.19.19,0,0,0,.29.08A.12.12,0,0,0,71.51,27Z"/><path d="M22,25.11c.65.06,1.25.42,1.24.75s-.6.77-1.08.76a.74.74,0,0,1-.8-.82C21.4,25.46,21.49,25.08,22,25.11Z"/><path d="M33.93,30.22a1.25,1.25,0,0,1-.89,1c-.37,0-.75-.42-.77-.88a.76.76,0,0,1,.6-.88A1.19,1.19,0,0,1,33.93,30.22Z"/><path d="M90.34,18.5c-.61-.06-1-.65-1.56-.73a.31.31,0,0,1-.23-.37.33.33,0,0,1,.32-.29h.71C90.68,17.11,90.8,17.33,90.34,18.5Z"/><path d="M25.21,21.64c-.34,0-.7-.33-.76-.77s.29-1.1.68-1.09a1.08,1.08,0,0,1,.8.91A.89.89,0,0,1,25.21,21.64Z"/><path d="M93.2,24c0,.37-.31.68-.8.7s-.8-.09-.91-.56a1,1,0,0,1,.64-.9A1.09,1.09,0,0,1,93.2,24Z"/><path d="M92.35,19.46a4.5,4.5,0,0,0-.25-1.59c0-.21,0-.4.19-.47a.36.36,0,0,1,.4.21,3,3,0,0,1,.22,2.29.35.35,0,0,1-.36.26c-.28,0-.26-.23-.24-.43A2.34,2.34,0,0,1,92.35,19.46Z"/><path d="M86.39,25.07c.39,0,.72.06.72.56a.57.57,0,0,1-.61.6c-.47,0-.89-.25-.88-.59S85.91,25.08,86.39,25.07Z"/><path d="M34.91,15.2c.38.13.86.28,1.33.47a.3.3,0,0,1,.13.4.3.3,0,0,1-.37.21,14,14,0,0,1-1.38-.6c-.07,0-.1-.21-.08-.31S34.66,15.18,34.91,15.2Z"/><path d="M90.88,18c0,.05,0-.07,0-.18s.07-.24.22-.22.26.06.29.13A2,2,0,0,1,91.62,19a.36.36,0,0,1-.32.29A.29.29,0,0,1,91,19C91,18.69,90.93,18.42,90.88,18Z"/><path d="M57.34,20c-.28,0-.59.05-.63-.26s.25-.46.54-.5a2.25,2.25,0,0,1,.58,0c.16,0,.33.07.36.25s-.14.34-.33.4A3,3,0,0,1,57.34,20Z"/><path d="M26.52,13.91c.3.08.76,0,.83.46,0,.23-.22.29-.43.3-.46,0-.84-.25-.78-.54S26.34,13.92,26.52,13.91Z"/><path d="M1.86,20.55c.34,0,.76.7.61,1a.24.24,0,0,1-.19.11c-.35,0-.77-.54-.67-.9A.26.26,0,0,1,1.86,20.55Z"/><path d="M33,15.32a.36.36,0,0,1-.42.31c-.3,0-.68,0-.71-.39,0-.23.18-.33.39-.34A.62.62,0,0,1,33,15.32Z"/><path d="M29.45,15.18c-.25,0-.57,0-.53-.33s.41-.3.67-.32.53.05.5.33S29.69,15.15,29.45,15.18Z"/><path d="M48.81,17.78c.26,0,.59,0,.53.43a.32.32,0,0,1-.45.24c-.24-.08-.64,0-.64-.38S48.57,17.8,48.81,17.78Z"/><path d="M78.86,21a.34.34,0,0,1-.36.38c-.29,0-.59,0-.64-.36a.31.31,0,0,1,.31-.3C78.45,20.69,78.74,20.66,78.86,21Z"/><path d="M90.15,21.19c.32,0,.59.1.59.46s-.22.3-.42.28-.57-.1-.57-.44S90,21.21,90.15,21.19Z"/><path d="M38.88,16.24c0,.24-.14.34-.3.35-.35,0-.63-.07-.66-.48,0-.12.1-.2.22-.22A.68.68,0,0,1,38.88,16.24Z"/><path d="M70.21,21.19c-.15,0-.32-.1-.32-.28,0-.37.28-.43.58-.41a.27.27,0,0,1,.26.32A.43.43,0,0,1,70.21,21.19Z"/><path d="M92.57,21.81c-.18,0-.41-.07-.42-.29s.25-.32.48-.33.53,0,.51.31S92.82,21.79,92.57,21.81Z"/><path d="M67.54,20.93a.35.35,0,0,1-.49.21c-.23-.08-.46-.23-.33-.51s.33-.19.53-.12S67.58,20.71,67.54,20.93Z"/><path d="M52.31,19.08A1.38,1.38,0,0,1,52,19c-.1,0-.21-.11-.19-.25a.25.25,0,0,1,.22-.23,1.45,1.45,0,0,1,.36,0c.22,0,.4.13.35.36S52.55,19.09,52.31,19.08Z"/><path d="M41.81,16.62c-.07.29-.33.26-.55.26s-.35,0-.32-.23.31-.31.54-.3S41.79,16.4,41.81,16.62Z"/><path d="M63.32,20.24c.23,0,.39.08.4.31a.29.29,0,0,1-.19.24.35.35,0,0,1-.46-.24C63,20.38,63.14,20.27,63.32,20.24Z"/><path d="M74.54,21c-.14.26-.37.23-.59.19s-.29-.17-.2-.33.31-.2.51-.16S74.54,20.81,74.54,21Z"/><path d="M81.35,21.46c-.24,0-.45-.08-.44-.33s.18-.22.34-.22.42,0,.45.26S81.47,21.4,81.35,21.46Z"/><path d="M85.09,21.09c0,.19,0,.29-.14.32s-.49.11-.64-.11,0-.28.19-.33S85,20.89,85.09,21.09Z"/><path d="M43.62,16.83c.16,0,.3.08.31.26s-.13.26-.29.26-.41-.07-.38-.31S43.45,16.82,43.62,16.83Z"/><path d="M87.94,21.05a.34.34,0,0,1,.3.32.26.26,0,0,1-.31.28.3.3,0,0,1-.3-.31A.32.32,0,0,1,87.94,21.05Z"/><path d="M55.52,19.14c.07.24,0,.3-.14.34a.29.29,0,0,1-.39-.14c-.06-.15,0-.29.22-.32S55.5,19.06,55.52,19.14Z"/><path d="M61,19.81a.19.19,0,0,1,.22.2c0,.14-.1.2-.22.18a.25.25,0,0,1-.18-.13C60.75,19.93,60.82,19.84,61,19.81Z"/><path d="M46.13,17.29c0,.06,0,.15-.09.19a.17.17,0,0,1-.26-.11.24.24,0,0,1,.08-.2C46,17.11,46.07,17.16,46.13,17.29Z"/><path d="M7.77,20.29c-1.64,0-2.58-.75-2.58-2a2.41,2.41,0,0,1,2.4-2.46,2.49,2.49,0,0,1,2.55,2.34A2.19,2.19,0,0,1,7.77,20.29Z"/></g></g></svg>