<?xml version="1.0" encoding="UTF-8"?><svg id="Layer_2" xmlns="http://www.w3.org/2000/svg" viewBox="0 0 327.92 831.02"><g id="Layer_1-2"><g><path d="M161.54,816.03c1.83,2.74-1.23,5.27-.44,8.1,.13,.47-1.58,1.9-2.05,3.28-.19,.57-.8-.63-1.3-.91l-.42-2.82c-.8,1.49-.64,2.36-.13,3.22,.04,.63,.1,1.27,.12,1.9,.01,.79,.96,2.03-.47,2.21-1.14,.14-.96-1.31-1.29-2.08-.39-.91,.28-2.16-.75-2.94-.27,.19-.49,.27-.52,.39-.23,.92,1.08,2.49-.59,2.68-1.39,.16-.83-1.47-1.02-2.36-.28-1.39-.56-2.77-.87-4.34-.94,1.35-.17,2.63-.36,3.83-.08,.49-.22,.9-.82,.85-.43-.04-.56-.36-.65-.74-.72-3-3.39-5.44-2.54-8.89-.11,.13-.25,.24-.33,.38-.47,.85,.44,2.73-1.18,2.54-1.62-.19-.56-1.74-.49-2.67,.18-2.16,.53-4.3,1.17-6.4,.17-.55,.31-1.47-.54-1.55-.95-.09-.85,.9-.73,1.41,.61,2.54-1.54,4.35-1.69,6.67-.03,.46-.42,.59-.8,.51-.64-.13-.81-.72-.92-1.22-.33-1.54-.58-3.1-.93-5.05-.38,.62-.54,.81-.63,1.03-.34,.87,.62,2.83-1.01,2.42-1-.25-3.15-.72-3.02-2.96,.15-2.5,.03-5.01,.03-7.91-1.23,1.11-.75,2.06-.87,2.89-.11,.8,.58,2.16-.77,2.17-1.08,0-.96-1.36-1-2.2-.1-1.81-.05-3.63-.09-5.44-.02-.71-.13-1.42-.38-2.14-.74,1.91-.93,3.91-1.14,5.91-.07,.62-.16,1.63-1.19,1.45-.9-.16-.6-1.06-.53-1.6,.39-3.04,.79-6.07,1.34-9.09,.18-.99,.29-1.96,.26-2.95,.37-.26,.69-.73,.24-.95-.62-.32-.43,.39-.54,.7-.63,1.11-1.03,2.3-1.15,3.58-.05,.49-.22,.93-.79,.88-.56-.05-.68-.53-.66-1,.12-3-2.25-5.95-.2-9-1.54-2.13-.22-4.48-.56-6.59-.3-1.91,.55-3.31,.62-4.94,.26-5.73,1.91-11.24,2.4-16.97,.83-9.8,2.58-19.52,5.51-28.96,.47-1.5,1.23-2.82,2.15-4.06,1.44-1.96,2.95-3.82,2.34-6.58-.23-1.05,.43-2.12,1.24-2.9,2.23-2.13,2.27-4.36,1.39-7.32-1.85-6.24-2.95-12.68-3.83-19.15-.8-5.88-.59-11.72-.09-17.62,.49-5.8-.54-11.38-4.18-16.21-2.67-3.53-2.55-5.21-.19-8.95,1.84-2.91,4.85-5.14,4.96-9.12,.06-2.15,.15-4.26-.99-6.05-2.86-4.48-2.92-9.42-2.81-14.44,.04-1.82,.26-3.67-.05-5.43-.23-1.31,1.16-3.99-2.16-3.51,.29-1.9-3.1-1.86-2.16-4.12,.09-.22,.08-.71-.05-.78-3.7-2.02-.33-3.93,.58-4.77,3.6-3.29,3.28-8.06,5.15-11.96,.1-.2,.05-.55-.06-.76-3.5-6.38-1.72-13.51-2.86-20.23-.38-2.22-.2-4.54-.62-6.75-.28-1.5-2.55-1.76-2.75-3.55-.03-.31-.6-.67-.53-.86,1.32-3.68,.11-7.67,2.44-11.47,2.03-3.32,4.03-7.16,3.28-11.84-.87-5.39-.45-10.97-1.21-16.44-.54-3.83-1.01-7.49-3.79-10.58-2.49-2.77-2.22-7.74,.06-10.62,.73-.92,1.21-2.03,1.98-2.91,1.5-1.7,1.62-3.04,.2-5.11-1.8-2.62-1.69-6.04-2.25-9.14-1.39-7.62-1.13-15.53-3.86-22.92-.78-2.13-.11-3.87,1.26-5.45,.65-.75,1.33-1.52,2.12-2.1,1.83-1.36,2.76-2.47,1.04-4.9-4.13-5.82-2.93-12.46-1.9-18.89,.23-1.41,.23-2.53-.21-3.83-1.12-3.37-2.23-6.78-.14-10.2,.47-.77,.02-1.4-.18-2.06-2.7-8.97-3.55-18.03-1.61-27.28,.36-1.74-1.15-3.21-1.19-4.91-.04-2.12-1.4-2.67-3.09-3.35-2.96-1.19-5.89-2.9-7.44-5.68-2.52-4.51-6.82-6.3-11.03-8.29-7.95-3.76-16.59-4.83-25.15-6.02-8.94-1.24-17.93-2.14-26.91-3.16-1.44-.16-2.9-.09-4.34-.22-.57-.05-1.5,.04-1.49-.82,0-.99,.92-.97,1.65-.93,2.52,.16,5.05,.3,7.57,.52,13.67,1.18,27.35,2.4,40.83,5.04,3.05,.6,6.08,1.66,8.96,3.04,.81,.39,1.93,1.21,2.79,.44,.96-.85-.31-1.76-.37-2.68-.28-4.27-3.04-5.9-6.74-7.27-17.95-6.64-36.19-11.45-55.56-10.37-.45,.03-.91,.04-1.36,0-.66-.05-1.74,.37-1.73-.69,.01-1.07,1.16-.58,1.76-.65,14.14-1.59,27.94,.31,41.57,4.1,5.82,1.62,11.73,2.93,17.32,5.27,1.73,.72,1.91,.14,1.46-1.4-.81-2.77-1.61-5.56-2.24-8.37-.25-1.12-1.13-1.16-1.79-1.37-11.4-3.53-22.86-6.73-34.8-7.95-7.41-.76-14.81-.31-22.22-.48-1.35-.03-3.78,.5-3.73-.91,.06-1.7,2.38-.76,3.68-.8,7.05-.21,14.12-.48,21.17-.03,9.31,.59,18.47,2.15,27.48,4.59,2.61,.71,5.2,1.49,7.79,2.26,1.57,.47,2.54,.47,2.38-1.73-.31-4.15-.36-8.33-.54-12.49-.05-1.09-.18-2-1.32-2.74-14.57-9.48-30.29-16.42-46.86-21.52-1.07-.33-3.38,.09-3.04-1.42,.44-1.89,2.41-.34,3.42-.08,10.26,2.65,20.14,6.41,29.73,10.9,5.23,2.45,10.38,5.07,15.56,7.64,1.75,.87,2.39,.44,2.45-1.57,.06-2.12-.39-3.62-2.13-5.15-10.55-9.29-22.68-15.72-35.78-20.52-2.71-.99-5.31-2.27-7.95-3.47-.59-.27-1.66-.44-1.16-1.44,.35-.71,1.2-.28,1.72-.06,6.3,2.73,12.71,5.15,19.17,7.44,9.35,3.32,17.07,9.32,24.82,15.25,1.33,1.02,1.71,1,2.43-.56,2.26-4.91,1.77-3.98-1.65-7.02-9.83-8.74-20.25-16.66-31.35-23.7-3.43-2.17-7-4.13-10.44-6.27-.72-.45-2.41-.59-1.74-1.86,.54-1.05,1.63,.04,2.35,.42,9.24,4.82,18,10.43,26.49,16.47,5.9,4.2,11.92,8.24,17.21,13.23,1.38,1.31,2.2,1.36,3.21-.53,1.93-3.61,1.99-3.48-.86-6.45-6.65-6.92-12.94-14.21-20.24-20.46-6.79-5.8-13.61-11.63-22.1-14.96-.6-.23-1.67-.5-1.31-1.42,.5-1.25,1.39-.28,2.04-.02,9.5,3.74,17.29,10.08,24.89,16.65,5.61,4.85,10.98,9.97,16.46,14.97,.47,.43,.85,.95,1.35,1.33,3.46,2.61,4.16,2.44,6.61-1.22,.68-1.01,0-1.57-.51-2.1-9.73-10.23-18.73-21.15-29-30.86-3.72-3.52-7.5-7.02-11.91-9.71-.63-.39-1.78-.79-1.05-1.78,.55-.77,1.3,.04,1.86,.4,13.66,8.92,26.07,19.22,35.63,32.6,2.32,3.25,5.34,5.36,8.95,6.8,1.79,.71,6.36-1.59,6.77-3.59,1.87-9.2,4.14-18.37,5.24-27.67,.57-4.81-.34-9.91-.47-14.89-.06-2.44-.33-4.89-.28-7.33,.06-3.14,.99-5.97,4.16-7.31,2.37-1,2.67-2.83,2.53-5-.08-1.27-.17-2.54-.2-3.8-.08-3.24-1.83-4.25-4.71-2.7-8.01,4.31-16.72,1.58-21.46-6.71-5.63-9.86-2.97-21.86,6.29-28.36,1.96-1.38,4.06-2.43,6.54-2.3,1.47,.08,1.51-.46,1.21-1.76-.73-3.13-2.4-5.21-5.39-6.54-8.45-3.76-17.01-7.24-26.37-7.65-6.28-.27-11.83,2.23-16.77,6.05-7.52,5.82-11.89,13.68-14.46,22.66-2.17,7.57-5.56,14.69-8.03,22.14-2.87,8.66-6.75,17.01-8.35,26.07-1.42,8.01-2.34,16.07-3.19,24.17-1.25,12.03-1.95,24.12-3.52,36.13-1.03,7.83-2.59,15.51-4.66,23.1-2.93,10.8-9.45,18.98-18.63,25.15-.87,.59-2.09,1.2-2.93,.04-.87-1.19,.17-2.14,1.01-2.73,4.54-3.18,8.46-6.96,11.66-11.5,3.83-5.44,5.53-11.7,7.13-18.01,2.09-8.24,3.16-16.66,4.12-25.09,.55-4.84,.78-9.73,1.24-14.58,.79-8.36,1.69-16.7,2.46-25.06,1.38-14.87,5.8-29.04,10.22-43.17,3.33-10.66,6.28-21.57,11.94-31.3,5.41-9.31,12.97-16.61,23.5-19.84,5.75-1.76,11.75-1.06,17.61,.39,4.88,1.21,9.75,2.41,14.37,4.63,.11-.49,.22-.7,.16-.78-.53-.73-2.2-1.14-1.31-2.22,.91-1.1,1.93,.21,2.77,.77,3.6,2.42,7.16,4.92,10.78,7.33,.66,.44,1.57,1.56,2.25,.5,.62-.96-.55-1.49-1.35-1.95-5.24-3.07-10.2-6.54-14.74-10.6-.72-.64-2.02-1.25-1.08-2.3,.84-.93,1.57,.37,2.21,.86,3.73,2.86,7.4,5.81,11.15,8.63,.65,.49,1.62,1.88,2.36,.76,.71-1.08-.88-1.59-1.63-2.07-5.65-3.67-10.37-8.4-15.02-13.2-.63-.65-2.22-1.68-1.29-2.6,.97-.95,2.12,.37,2.79,1.24,2.96,3.83,6.7,6.86,10.23,10.11,.82,.76,1.52,1.82,2.97,1.77-.06-2.13-.68-3.43-2.92-4.46-2.75-1.26-4.92-3.65-7.03-5.91-2.22-2.39-4.45-4.77-6.61-7.21-.64-.72-1.98-1.69,.16-2.29,.67-.19,.61-.44,.16-.88-.51-.5-.85-1.24-1.44-1.6-2.61-1.6-.38-3.71-.39-5.49,0-.78,1.55,.23,2.22,.92,3.16,3.26,6.3,6.52,9.47,9.76,.55,.57,1.19,1.05,2,1.75,.54-1.89,.2-2.92-1.36-3.98-5.09-3.44-8.72-8.4-12.79-12.89-.42-.47-1.15-1.25-.46-1.89,.83-.78,1.44-.02,1.97,.65,3.04,3.83,6.24,7.51,9.8,10.88,.51,.48,1.06,1.4,1.7,.78,.8-.78-.11-1.3-.72-1.89-5.03-4.86-9.28-10.37-13.13-16.2-.42-.63-.94-1.31-.11-1.87,.88-.59,1.28,.28,1.67,.85,3.16,4.54,6.11,9.22,9.92,13.27,.49,.52,.88,1.12,1.57,1.51,.38-1.94,.52-3.39-1.28-4.91-4.96-4.19-8.2-9.83-11.73-15.2-.3-.45-.87-1.43,0-1.94,1.01-.59,1.13,.54,1.49,1.06,2.82,3.99,5.25,8.25,8.41,12,.73,.86,1.3,1.91,2.61,2.37,.21-1.79-.21-2.83-1.65-3.98-3-2.38-5.05-5.75-6.91-9.01-4.49-7.89-11.76-11.69-19.8-14.62-7.24-2.64-14.52-1.84-21.61,.19-3.01,.86-5.7,3.05-8.38,4.86-10.98,7.4-19.99,16.44-25.69,28.74-4.13,8.9-8.59,17.66-12.13,26.81-3.88,10.02-6.68,20.37-8.7,30.94-1.29,6.73-2.92,13.4-4.37,20.1-1.56,7.16-2.09,14.45-2.78,21.72-.53,5.58-1.08,11.16-1.85,16.71-.46,3.36-.04,6.7-.28,10.03-.64,9.21-1.47,18.41-1.99,27.62-.35,6.07-.63,12.11-1.8,18.1-.46,2.36-1.46,4.46-2.32,6.63-.24,.61-.7,1.55-1.58,1.09-.83-.43-.1-1.11,.14-1.63,2.73-5.78,3.28-12.09,3.34-18.25,.11-10.53,1.26-21,1.29-31.53,.03-10.63,.2-21.26,.6-31.88,.29-7.77,1.85-15.42,3.18-23.07,2.34-13.43,4.66-26.85,6.96-40.29,3.7-21.63,13.45-40.45,27.74-56.75,8.81-10.05,19.56-18.02,32.57-22.14,11.64-3.69,22.63-2.32,32.57,5.21,.6,.46,1.16,1.18,2.35,.94-.44-1.1-.9-2.13-1.26-3.19-.36-1.05-.41-2.03,1.12-2.13l.45,.16-.11-.48c-.24-.87-.45-1.75-.71-2.61-.23-.76-.86-1.66,.28-2.07,1.15-.41,1.29,.81,1.57,1.45,.79,1.82,1.43,3.71,2.13,5.57,1.47,3.88,3.13,7.67,5.3,11.4,.84-2.12,.89-2.46-.4-4.81-3.02-5.51-4.84-11.48-6.91-17.36-.25-.72-.78-1.85,.11-2.2,1.1-.44,1.33,.68,1.65,1.58,1.84,5.07,3.15,10.34,5.73,15.4,.92-1.22,.43-2.17-.03-3.09-2.88-5.8-4.39-12.07-6.27-18.21-.13-.43-.28-.87-.3-1.32-.02-.6-.21-1.43,.61-1.6,.79-.16,1,.61,1.2,1.2,.23,.68,.3,1.43,1.09,1.98,.09-3-1.24-5.66-1.4-8.51-.05-.83-.45-1.89,.48-2.11,1.22-.28,1.25,1.06,1.42,1.83,1.13,5.1,1.73,10.31,3.36,15.31,.34,1.04,.69,2.03,1.6,3.09,.49-1.88,.58-3.31-.1-5.18-2.22-6.12-2.89-12.63-3.83-19.05-.09-.64,.25-1.12,.87-1.14,.84-.03,.91,.64,1.01,1.32,.48,3.4,.96,6.8,1.51,10.19,.34,2.08,.84,4.14,1.33,6.54,.79-1.05,1.1-1.9,.82-2.62-2.05-5.4-1.11-11.1-1.68-16.64-.16-1.52-.43-2.81-1.33-3.98-7.22-9.43-11.07-20.45-14.85-31.51-.24-.71-.83-1.8,.17-2.14,1.16-.4,1.1,1,1.31,1.62,2.59,7.55,5.66,14.88,9.43,21.92,1.98,3.69,4.12,7.26,7.4,10.27,.79-1.24,.31-2.59,.42-3.84,.06-.71-.04-1.61,1.04-1.54,.86,.05,.82,.83,.82,1.46,0,1.7,0,3.39,.61,5.13,.47-2.79,.93-5.59,1.41-8.38,.13-.77,.15-1.87,1.29-1.62,.94,.21,.65,1.25,.49,1.88-.5,1.87-.57,3.26,1.45,4.58,1.27,.83-.58,2.62-.31,4.05-.48,.24-.5,.69-.49,1.14-.12,.29-.25,.58-.36,.88-.01,.03,.12,.11,.19,.16,.14-.28,.28-.56,.42-.84,.21-.34,.42-.68,.63-1.02,.5-.86,1.01-1.71,1.48-2.58,.34-.62,.56-1.62,1.47-1.17,1.09,.53,.32,1.39,0,2.08-.96,2.03-1.92,4.06-2.93,6.07-.29,.58-.65,1.1-.18,1.73,.1,0,.21,.04,.28,0,.9-.49,.89-2.58,2.13-1.92,1.59,.84-.08,2.1-.46,2.97-.61,1.36-.12,2.3,.57,3.23,7,9.44,11.07,20.2,14.29,31.37,.98,3.39,2.74,6.81,2.35,10.25-.68,5.95,1.38,11.58,1.25,17.43-.04,1.81,.8,3.68,1.4,5.47,.85,2.52,1.26,5.19,1.25,7.73-.03,6.87,2.32,13.31,3.01,20.04,.49,4.8,1.42,9.88,.13,14.28-1.32,4.49-.83,8.92-1.72,13.29-.12,.6-.25,1.42,.05,1.84,2.26,3.12,1.85,6.72,1.92,10.22,.03,1.48,.22,2.43,1.92,1.29,2.84-1.91,5.67-1.92,8.51,0,1.24,.84,1.91,.73,1.92-1.01,.02-3.69,1.03-7.22,1.69-10.79,.71-3.86,.82-8.49-.84-12.51-.58-1.39-.87-2.67-.9-4.14-.23-8.73,.71-17.29,3.02-25.75,.85-3.09,.1-6.47,.76-9.71,.27-1.31,.22-2.75,.72-3.98,2.28-5.72,1.98-11.9,2.9-17.82,.56-3.56-.23-7.48,.78-11.19,2.84-10.4,6.29-20.58,11.57-30.03,1.14-2.04,2.48-3.99,3.92-5.83,1.13-1.45,1.5-2.77,.54-4.42-.4-.69-1.43-1.63-.15-2.28,1.05-.53,1.15,.84,1.67,1.36,.23,.23,.26,.7,1.04,.54-.48-2.47-1.97-4.52-2.88-6.78-.27-.67-.69-1.27-.96-1.94-.17-.43-.08-.91,.42-1.14,.53-.24,.89,.08,1.12,.49,.64,1.09,1.24,2.2,1.85,3.3,.21,.34,.42,.69,.64,1.03l.42,.84c.07-.06,.2-.13,.19-.16-.11-.3-.24-.59-.36-.88,0-.45-.01-.9-.5-1.14-.18-1.97-1.56-4.07,1.27-5.57,1.06-.57-.28-2.17-.19-3.33,.05-.61-.27-1.43,.55-1.63,1.02-.25,1.14,.7,1.25,1.37,.5,2.83,.93,5.67,2.05,8.54,0-1.59-.02-3.17,0-4.76,.01-.69-.22-1.67,.82-1.72,1.25-.06,1,1.04,1.03,1.81,.04,1.14,.01,2.28,.01,3.9,5.01-4.47,7.46-9.92,10.15-15.2,2.84-5.58,5.01-11.44,7.1-17.32,.22-.61,.15-2.02,1.31-1.62,.99,.35,.41,1.43,.17,2.14-3.78,11.05-7.63,22.08-14.85,31.51-.89,1.17-1.17,2.47-1.32,3.98-.57,5.54,.37,11.24-1.68,16.65-.27,.72,.03,1.58,.73,2.49,1.43-4.78,1.81-9.52,2.53-14.2,.2-1.31-.12-3.74,1.39-3.54,2.03,.26,.58,2.49,.41,3.62-.9,5.94-1.33,12-3.95,17.59-.52,1.12,.1,2.45,.48,4.27,1.59-2.53,2.19-4.89,2.69-7.27,.8-3.79,1.47-7.61,2.28-11.4,.16-.76,.2-2.12,1.42-1.82,.94,.23,.63,1.27,.46,2.11-.55,2.73-1.01,5.49-1.52,8.36,1.22-.47,.98-1.61,1.42-2.36,.23-.39,.48-.83,1.02-.71,.54,.13,.63,.61,.61,1.08-.03,.54-.05,1.1-.21,1.6-1.95,6.12-3.34,12.43-6.25,18.22-.47,.94-1.09,1.94-.19,3.33,2.04-3.58,3.03-7.38,4.33-11.05,.54-1.53,1.07-3.06,1.52-4.62,.22-.78,.63-1.56,1.38-1.39,1.2,.28,.64,1.41,.41,2.04-2.06,5.78-3.78,11.7-6.76,17.13-.84,1.53-1.75,3.17-.88,5.58,2.45-3.8,3.94-7.63,5.46-11.44,.81-2.01,1.51-4.07,2.35-6.07,.25-.59,.45-1.58,1.46-1.21,.98,.36,.58,1.15,.36,1.84-.29,.95-.55,1.91-.82,2.86l-.1,.47,.45-.17c1.53,.1,1.48,1.09,1.11,2.13-.35,1.02-.82,1.99-1.35,3.24,2.51-.18,3.77-2.18,5.54-3.18,8.6-4.82,17.47-6.18,27.12-3.58,12.17,3.27,22.04,10.16,30.87,18.72,11.72,11.36,20.12,24.99,26.04,40.13,3.37,8.61,5.31,17.61,6.85,26.75,1.6,9.52,3.31,19.02,4.92,28.53,2.05,12.11,4.22,24.19,4.42,36.55,.1,6.4-.05,12.78-.03,19.16,.03,8.05,.83,16.09,1.26,24.14,.13,2.54,.15,5.08,.19,7.62,.12,6.51,.44,13,2.19,19.32,.38,1.38,1.04,2.69,1.57,4.03,.17,.42,.44,.92-.12,1.17-.62,.28-1.03-.17-1.3-.67-1.04-1.91-2-3.89-2.4-6.02-.69-3.74-1.53-7.5-1.63-11.28-.33-11.78-2.24-23.47-2.29-35.24-.06-13.89-2.37-27.54-3.69-41.29-.81-8.4-3.16-16.64-5.03-24.91-2.04-8.98-3.93-17.99-6.9-26.72-3.84-11.27-8.76-22.07-14.12-32.68-2.41-4.77-4.68-9.62-8.17-13.73-5.96-7.01-12.89-12.83-20.69-17.78-5.45-3.46-11.24-4.77-17.41-4.85-8.58-.1-15.89,3.49-22.82,8.25-4.63,3.18-6.56,8.33-9.91,12.43-1.48,1.82-2.61,3.9-4.7,5.18-1.23,.75-.71,2.03-.66,3.23,3.15-2.51,5.18-5.9,7.44-9.09,1.15-1.62,2.14-3.36,3.31-4.97,.4-.55,.53-1.98,1.63-1.25,.93,.62,.21,1.72-.24,2.4-1.89,2.86-3.8,5.73-5.89,8.46-1.86,2.44-3.58,5.02-6.22,6.78-1.53,1.02-.89,2.71-1.25,4.94,2.73-2.5,4.64-4.71,6.33-7.09,1.94-2.73,3.83-5.5,5.75-8.24,.4-.57,.8-1.44,1.68-.84,.83,.57,.3,1.24-.12,1.87-3.85,5.83-8.1,11.33-13.13,16.2-.62,.6-1.52,1.12-.71,1.89,.64,.61,1.18-.31,1.7-.79,3.5-3.29,6.62-6.94,9.67-10.64,.6-.72,1.15-1.74,2.08-.86,.72,.68-.12,1.51-.64,2.08-4.2,4.6-7.89,9.73-13.29,13.12-1.26,.79-.97,1.99-.82,3.4,1.54-.68,2.47-1.91,3.51-2.95,2.81-2.83,5.77-5.52,8.27-8.64,.46-.57,1.05-1.18,1.83-.95,.96,.28,.1,1.27,.28,1.5,2.15,2.75-.58,3.96-1.69,5.67-.2,.3-.99,.69-.27,.95,2.71,.98,.79,1.95,.02,2.78-3.95,4.24-7.53,8.86-12.33,12.22-1.7,1.19-4.06,1.68-3.88,4.46,.01,.17,.09,.34,.2,.73,2.87-1.37,4.72-3.91,7.03-5.83,2-1.67,3.66-3.76,5.47-5.65,.5-.52,.95-1.12,1.54-1.52,.53-.35,1.17-1.2,1.86-.4,.52,.61-.13,1.15-.52,1.64-2.09,2.61-4.53,4.89-7,7.13-2.88,2.61-5.77,5.21-9.09,7.27-.71,.44-2.09,1-1.41,1.91,.8,1.08,1.72-.28,2.37-.77,3.83-2.88,7.57-5.88,11.36-8.81,.59-.46,1.25-1.54,2.02-.69,.85,.94-.21,1.58-.88,2.16-4.64,4.06-9.62,7.66-14.96,10.74-.8,.46-1.96,1.01-1.34,1.96,.68,1.04,1.6-.07,2.26-.51,3.68-2.47,7.32-5,10.98-7.51,.3-.2,.62-.37,.92-.57,.56-.38,1.21-.66,1.7-.05,.55,.68-.11,1.14-.56,1.57-.31,.29-.65,.55-.87,1.07,3.32-.69,6.37-2.13,9.6-3.01,7.64-2.07,15.3-3.58,23.17-1.56,5.81,1.49,10.14,5.45,14.56,9.21,6.87,5.84,10.63,13.71,13.53,21.93,6.31,17.87,12.58,35.77,15.76,54.54,1.21,7.12,2.12,14.3,2.56,21.53,.37,6.12,1.05,12.22,1.67,18.33,.66,6.47,1.2,12.97,2.15,19.4,1.38,9.39,3.1,18.76,7.09,27.44,2.55,5.54,6.56,10.13,11.41,13.85,.98,.75,1.98,1.54,2.98,2.29,.83,.62,1.88,1.54,1,2.73-.85,1.15-2.09,.56-2.93-.06-3.55-2.64-7.01-5.34-9.98-8.71-7.5-8.49-9.66-19.09-11.8-29.63-2.14-10.55-2.77-21.31-3.74-32.02-1.19-13.04-2.13-26.11-4.59-38.99-1.37-7.16-4.41-13.78-6.64-20.66-3.39-10.47-7.63-20.63-11.1-31.09-3.32-9.99-9.82-17.85-19.74-22.32-4.78-2.15-9.79-2.38-14.87-1.52-7.8,1.32-15.06,4.27-22.24,7.51-3.08,1.39-3.92,3.96-4.77,6.72-.24,.76-.11,1.01,.8,1.2,10.78,2.2,16.92,10.54,16.19,21.44-.32,4.76-2.19,8.75-5.01,12.36-3.57,4.57-12.13,7.25-16.57,5.29-1.14-.5-2.11-1.39-3.24-1.9-2.76-1.23-4.09-.35-4.17,2.63-.03,1.18,0,2.37-.15,3.54-.32,2.51,.12,4.53,2.72,5.68,3.21,1.42,4.02,4.35,3.89,7.44-.29,6.78-.15,13.57-.88,20.34-.36,3.32,.81,6.61,1.47,9.88,1.24,6.2,2.48,12.4,3.78,18.58,.69,3.27,4.81,4.98,7.94,3.91,5.08-1.73,7.62-6.01,10.59-9.84,9.18-11.8,20.63-20.98,33.01-29.13,.55-.36,1.3-1.18,1.85-.37,.68,1-.48,1.37-1.09,1.78-8.46,5.7-15.48,12.98-22.34,20.41-6.08,6.58-12.12,13.19-18.19,19.78-.91,.98-1.71,1.62-.25,3.04,3.25,3.15,3.18,3.29,6.63,.1,3.91-3.62,7.63-7.47,11.65-10.97,9.33-8.13,18.47-16.58,30.2-21.31,.7-.28,1.68-1.47,2.24-.1,.41,.99-.86,1.25-1.54,1.52-6.13,2.42-11.32,6.34-16.46,10.33-10.05,7.82-18.32,17.47-27.18,26.52-2.51,2.56,.44,4.11,1.31,5.79,.99,1.91,2.15-.05,2.94-.72,13.07-10.99,27.19-20.42,42.11-28.67,1.08-.6,2.78-2.25,3.46-1.01,.74,1.35-1.57,1.63-2.62,2.25-11.32,6.66-22.18,13.98-32.32,22.34-3.42,2.81-6.81,5.66-10.19,8.52-1.55,1.31-.88,6.31,.9,7.06,.55,.23,.82-.21,1.15-.46,6.7-5.07,13.29-10.29,21.01-13.85,3.12-1.44,6.41-2.39,9.58-3.65,4.53-1.79,9.05-3.63,13.59-5.42,.64-.25,1.59-.8,1.95-.05,.56,1.14-.74,1.24-1.38,1.54-7.67,3.64-15.74,6.37-23.36,10.12-7.87,3.88-14.68,9.24-21.3,14.89-1.81,1.54-1.09,3.8-.61,5.58,.3,1.1,1.7,.14,2.56-.27,7.01-3.35,13.92-6.91,21.05-9.99,8.2-3.54,16.56-6.75,25.34-8.66,.77-.17,1.74-.77,1.97,.43,.17,.89-.85,.93-1.55,1.12-12.64,3.35-24.51,8.61-36.11,14.54-4.11,2.1-7.96,4.61-11.86,7.05-1.25,.78-1.78,1.6-1.82,3-.12,4.17-.21,8.34-.52,12.49-.16,2.18,.78,2.21,2.37,1.74,4.75-1.41,9.49-2.85,14.37-3.83,7.99-1.61,15.99-3.06,24.16-3.16,6.51-.08,13.03,.05,19.54,.15,.79,.01,2.19-.53,2.19,.81,0,1.2-1.45,.87-2.23,.89-4.88,.1-9.76,.16-14.64,.08-11.43-.19-22.42,2.33-33.36,5.23-2.62,.69-5.2,1.75-7.8,2.23-3.54,.65-5.02,2.42-5.5,5.72-.23,1.59-.85,3.13-1.28,4.69-.16,.58-.67,1.2-.13,1.78,.6,.63,1.2-.02,1.73-.21,11.2-4.17,22.77-6.96,34.53-8.87,8.17-1.32,16.41-1.27,24.64-.37,.48,.05,1.28-.21,1.25,.6-.03,.93-.87,.71-1.47,.71-5.26,.04-10.54-.15-15.78,.16-11.44,.68-22.37,3.91-33.22,7.3-3.71,1.16-7.29,2.7-10.96,4.01-1.85,.66-3.13,1.64-3.27,3.81-.12,1.72-2.13,3.88-.97,4.89,1.42,1.23,3.45-.7,5.17-1.36,6.65-2.53,13.68-3.22,20.63-4.28,10.54-1.62,21.21-1.99,31.79-3.2,.45-.05,.91-.07,1.36-.02,.98,.13,2.62-.68,2.67,.88,.04,1.17-1.57,.8-2.49,.87-6.49,.49-12.93,1.37-19.4,2.02-8.83,.89-17.55,2.26-26.23,4.01-6.09,1.23-11.51,4.18-16.97,6.98-.78,.4-1.11,1.16-1.56,1.84-2.74,4.22-6.33,7.42-11.14,9.11-.42,.15-1.11,.12-1.12,.59-.04,2.91-2.34,5.35-1.26,8.6,1.34,4.01,.66,8.3,.37,12.43-.33,4.67-.46,9.42-2.55,13.79-.22,.47-.4,.98-.03,1.54,1.67,2.5,1.65,5.4,.48,7.82-1.79,3.7-.5,7.21-.18,10.76,.51,5.64,.39,11.06-3.41,15.7-.58,.71-.36,1.08,.04,1.6,.17,.22,.28,.51,.5,.64,5.73,3.62,4.97,8.34,3.38,14.09-2.03,7.36-1.79,15.23-3.42,22.75-.34,1.59-.36,3.38-1.55,4.57-1.42,1.42-1.19,2.59-.06,3.94,1.27,1.52,2.11,3.36,3.58,4.76,1.29,1.23,1.11,2.66,.77,4.45-.65,3.4-2.89,5.81-4.23,8.73-1.71,3.73-1.58,8.08-2,12.19-.43,4.3-.04,8.67-.95,12.94-.11,.51-.21,1.22,.05,1.59,1.99,2.94,1.7,6.84,4.18,9.6,.95,1.06,1.33,2.52,1.22,4.07-.11,1.53,0,3.04,.4,4.57,.56,2.14-.45,3.86-2.36,4.81-.82,.41-.73,.91-.78,1.49-.4,5.51-.77,11.02-1.17,16.53-.25,3.41-.04,6.93-2.14,9.94-.37,.53-.25,1,.05,1.51,.28,.46,.65,.97,.66,1.47,.16,4.82,3.01,8.33,5.72,11.91,.73,.97,1.68,2.05-.52,2.48-.19,.04-.49,.69-.39,.86,1.42,2.38-2.7,2.21-1.94,4.25-4.35,.29-2.06,3.64-2.34,5.56-.41,2.85-.21,5.8-.14,8.7,.07,2.82-.75,5.37-2.06,7.79-2.76,5.12-2.38,9.36,1.19,13.79,1.08,1.34,2.04,2.77,3.03,4.17,1.86,2.63,.77,5.31-.77,7.26-4.23,5.4-5,11.42-4.4,17.92,.55,5.97,.54,11.93-.47,17.88-1.14,6.69-2.25,13.37-4.26,19.88-.54,1.73,.41,3.31,1.67,4.57,1.01,1,1.87,2.18,1.62,3.59-.41,2.3,.52,3.94,1.88,5.63,3.55,4.43,4.1,9.97,5.22,15.24,2.03,9.47,3.36,19.04,3.88,28.72,.04,.68,.4,1.17,.73,1.71,.69,1.14,1.64,2.24,.59,3.72-.2,.28-.13,.94,.07,1.27,1.67,2.69,1.21,6.08,.87,8.53-.38,2.79,.33,5.23,.15,7.75-.11,1.45-1.59,2.95-1.25,4.81,.02,.12-.35,.44-.55,.46-.58,.05-.75-.38-.8-.87-.12-1.28-.52-2.47-1.15-3.58-.11-.31,.09-1.01-.53-.7-.45,.23-.12,.7,.25,.95,.51,3.47,1.08,6.94,1.5,10.42,.13,1.07,.79,2.9-.46,3.1-1.4,.22-1.12-1.61-1.28-2.7-.22-1.51-.49-3.02-.86-5.28-.79,2.22-.48,3.81-.55,5.35-.06,1.18,0,2.37-.14,3.53-.08,.65,0,1.7-.98,1.68-1.06-.02-.74-1.03-.77-1.71-.04-.97,.28-1.97-.83-2.94,0,2.22-.3,4.5,.08,6.65,.45,2.54-1.79,2.69-2.86,3.82-.5,.53-1.13-.14-1.21-.91-.07-.7,.22-1.45-.39-2.36-.8,1.56-.93,3.08-1.15,4.59-.08,.6-.23,1.38-1.01,1.43-1.02,.06-.55-.89-.81-1.36-1.05-1.93-1.87-3.87-1.61-6.14,.05-.47,.07-1.25-.72-1.15-.69,.08-.68,.79-.59,1.31,.39,2.32,.88,4.62,1.24,6.94,.13,.86,1,2.26-.49,2.46-1.54,.21-.82-1.46-1.16-2.27-.09-.23-.18-.46-.32-.79-.53,.95-.4,1.86-.4,2.74,0,1.44,.22,2.9-1.46,3.75-.53,.27-.68,1-.7,1.69-.02,.65,.19,1.74-.94,1.53-.97-.18-.5-1.2-.55-1.87-.06-.86,.37-1.78-.4-2.84-.33,1.82-.63,3.38-.88,4.96-.12,.78,.11,1.99-1,1.86-1.37-.16-.71-1.35-.6-2.19,.03-.23-.03-.48-.07-.95-1.6,.56-.79,1.88-1.14,2.72-.35,.86-.18,2.48-1.34,2.32-1.57-.21-.36-1.6-.43-2.46-.05-.54,.05-1.09,.08-1.63,.52-.92,.72-1.82-.23-3.17l-.31,2.76c-.7,.63-1.81,2.36-1.64-.28,.1-1.64-2.73-.92-1.83-2.97,.39-.88,.91-2.05-.73-3.12-1.1-.72,.48-2.65,.4-4.1,.17-.38,.33-.76,.5-1.14,.57-.45,1.23-.86,.82-1.75-.16-.33-.52-.66-.83-.43-.58,.42-.3,1.17-.45,1.77-.18,.36-.36,.73-.55,1.09h-3.83l-.56-1.09c-.15-.6,.12-1.34-.45-1.77-.31-.23-.67,.09-.83,.43-.42,.89,.24,1.3,.81,1.75l.5,1.14Zm56.54-499.35l.26-.4-.59,.04c-.29,.1-.71,.21-.41,.59,.25,.31,.56,.08,.74-.23ZM113.96,76.01l-.33-.85c-.07,.04-.21,.12-.2,.13,.13,.28,.27,.55,.4,.83l.39,1.24c.17,.16,.46,.47,.49,.44,.38-.28,.21-.56-.07-.81-.23-.33-.45-.65-.68-.98Zm-4.09,240.67c.18,.31,.49,.54,.74,.23,.3-.38-.12-.49-.41-.59l-.59-.04,.26,.4Zm20.24-230.33c-.29,.06-.48,.2-.41,.53,.02,.07,.12,.12,.18,.18,.14-.18,.29-.35,.43-.53l.02-.24-.22,.06Zm67.73,0l-.22-.06,.02,.25,.44,.52c.06-.06,.16-.11,.18-.18,.07-.33-.12-.47-.41-.52Zm16.16-10.34l-.68,.98c-.29,.25-.45,.53-.07,.81,.04,.03,.32-.29,.49-.45,.13-.41,.26-.82,.38-1.23,.14-.27,.28-.55,.4-.83,0-.01-.13-.08-.2-.13l-.33,.85Zm-84.78,75.71l-.64-.14,.33,.5c.2,.3,.54,.53,.76,.2,.28-.4-.15-.49-.46-.56Zm13.67-.02c-.39-.25-.37-.05-.27,.24l.45,.56c.06-.06,.19-.16,.18-.18-.11-.21-.24-.41-.36-.61Zm42.16,0c-.12,.21-.25,.41-.35,.62-.01,.03,.12,.12,.18,.18,.15-.19,.29-.38,.44-.57,.12-.33,.09-.47-.27-.23Zm13.67,.02c-.3,.08-.73,.17-.44,.57,.23,.32,.56,.09,.76-.21l.32-.5-.64,.14Zm-13.46,650.94l.07,.97,.37-.12-.48-.82c.07-.4,.26-.82-.24-1.08-.04-.02-.19,.05-.22,.1-.23,.51,.09,.75,.49,.95Zm-42.56,0c.4-.19,.72-.43,.49-.94-.03-.06-.17-.13-.22-.1-.49,.26-.31,.69-.24,1.08-.16,.27-.32,.54-.48,.82l.37,.12,.07-.97ZM210.63,57.39c-.51,.47-.73,1.27-.16,1.51,.55,.23,.43-.7,.61-1.12,.37-.39,.68-.97,.11-1.23-.49-.22-.46,.48-.56,.84Zm-79.83,76.44l-.29-.88c-.07,.05-.2,.11-.19,.13,.09,.3,.21,.58,.32,.88-.02,.62-.14,1.27,.49,1.7,.26,.35-.18,1.29,.55,1.09,.44-.12,.08-.94-.15-1.42-.06-.59-.15-1.17-.73-1.5Zm66.36,0c-.58,.33-.67,.9-.73,1.49-.18,.53-.7,1.06,.02,1.58l.39-1.23c.63-.44,.5-1.09,.48-1.71,.11-.29,.23-.58,.32-.87,0-.02-.13-.09-.19-.13l-.29,.88ZM116.87,57.76c.19,.42,.06,1.35,.61,1.12,.58-.24,.35-1.04-.16-1.51-.09-.36-.06-1.06-.55-.84-.56,.25-.27,.83,.1,1.22Zm80.72,733.09c.08,.33,.15,.67,.26,1,0,.02,.36,0,.39-.07,.22-.48-.05-.84-.36-1.17,.09-.79-.02-1.54-.54-2.18-.08-.3-.15-.78-.56-.47-.34,.25-.09,.58,.28,.72,.09,.75-.3,1.61,.53,2.18Zm-66.99-2.43c-.52,.65-.62,1.4-.54,2.19-.31,.33-.58,.69-.36,1.17,.03,.07,.38,.09,.39,.06,.11-.33,.18-.66,.26-1,.83-.57,.44-1.43,.53-2.18,.36-.14,.61-.47,.28-.72-.41-.3-.48,.17-.56,.47ZM195.29,81.86l-.55-1.1c-.6-2.31-1.88-4.31-2.99-6.37-1.04-1.93,.35-3.46,1.31-4.15,1.24-.9,1.66,1.08,2.24,1.96,.64,.98,1.04,2.11,1.65,3.11,1.63,2.7,3.08,5.54,5.16,8.11,1.06-1.6,.38-2.55-.27-3.56-2.27-3.49-4.78-6.85-6.53-10.64-.56-1.23-2.92-2.81-1.15-3.76,1.45-.78,2.12,1.9,2.88,3.24,1.67,2.92,3.23,5.9,5.4,8.8,.67-1.59-.2-2.44-.71-3.32-2.26-3.92-4.63-7.78-6.85-11.73-.54-.96-2.21-2.35-.71-3.15,1.42-.75,1.72,1.42,2.32,2.39,2.02,3.23,3.52,6.78,6.36,9.53-2.45-6.48-6.07-12.34-9.6-19.01-1.83,4.17-3.5,7.58-4.84,11.1-2.83,7.44-5.47,14.96-5.49,23.06-.01,5.23,.88,10.42,.26,15.71-.38,3.18,.84,6.23,2.8,8.86,.32,.43,.65,.98,1.28,.56,.42-.28,.44-.84,.27-1.25-.48-1.16-1.08-2.28-1.56-3.44-.22-.52-.23-1.12,.37-1.43,.66-.34,1,.17,1.29,.63,.49,.78,.56,1.92,2.27,2.11-.99-1.98-1.81-3.72-2.72-5.41-.4-.74-1.08-1.86-.49-2.2,2.01-1.16,.94-2.23,.23-3.43-.27-.46-.55-1-.04-1.48,.53-.5,.95-.09,1.44,.18,.39,.22,.48,.97,1.21,.74-.21-1.4-1.35-2.2-1.83-3.35-.26-.63-1.05-1.33-.22-1.91,.81-.57,1.35,.31,1.71,.86,1.42,2.19,2.77,4.44,4.11,6.68,.35,.58,.72,1.21,1.45,.73,.66-.44,.04-.98-.19-1.39-1.44-2.51-2.95-4.98-4.36-7.5-.44-.79-1.64-1.89-.54-2.58,1.21-.76,1.65,.66,2.18,1.61,1.42,2.58,2.96,5.1,4.49,7.71,.83-.8,1.07-1.36,.49-2.28-1.2-1.91-2.52-3.83-3.25-5.94-1.01-2.89-4.99-5.03-2.4-8.97,.27-.41-.76-1.74,.33-2.01,1-.26,1.37,.95,1.86,1.69,.29,.45,.63,.87,.95,1.31l.62,1.04c.34,.56,.68,1.13,1.02,1.69,.15,.26,.31,.66,.66,.36,.3-.26,.07-.56-.21-.76-.35-.55-.7-1.1-1.05-1.65Zm-62.61,0l-1.05,1.65c-.34,.25-.54,.54-.11,.85,.05,.04,.37-.29,.56-.45,.34-.57,.68-1.14,1.03-1.7l.61-1.02c.62-.89,1.19-1.81,1.88-2.64,.32-.39,1.42-.53,1.28-.18-.8,2.04,1.88,3.59,.42,5.83-2.21,3.4-3.91,7.14-5.93,10.68-.55,.97-.95,1.69,.46,2.31,1.49-2.58,3.04-5.14,4.44-7.76,.5-.93,1.03-2.03,2.08-1.38,1.03,.64,0,1.65-.4,2.36-1.41,2.53-2.93,4.99-4.36,7.51-.27,.48-1.11,1.1-.34,1.61,.87,.57,1.14-.34,1.54-.96,1.47-2.27,2.48-4.84,4.35-6.85,.37-.39,.81-.87,1.38-.46,.55,.4,.27,.93,.04,1.46-.59,1.34-1.9,2.32-2.1,3.93,1.13,0,2.45-2.59,2.63-.56,.15,1.71-1.07,3.59,.26,5.47,.16,.23-.55,1.06-.83,1.62-.77,1.57-1.53,3.14-2.35,4.84,1.31,.12,1.48-.7,1.84-1.26,.41-.64,.55-1.89,1.6-1.32,1.06,.57,.39,1.55-.02,2.36-.41,.8-.83,1.61-1.13,2.46-.17,.49-.18,1.13,.47,1.37,.55,.2,.81-.28,1.05-.65,1.21-1.91,2.44-3.81,2.6-6.16,.38-5.58-.23-11.16,.41-16.78,.76-6.69-1.41-13.08-3.45-19.36-1.76-5.43-3.95-10.71-6.74-15.85-3.11,3.54-9.67,16.84-9.19,18.69,2.55-3.51,4.35-7.36,6.5-11,.39-.66,.71-1.82,1.71-1.32,1.3,.64,.23,1.66-.13,2.3-2.42,4.25-4.97,8.42-7.42,12.65-.52,.9-1.45,1.8-.69,3.35,2.58-3.63,4.49-7.31,6.51-10.91,.41-.73,.92-1.94,2-1.13,.81,.61,.01,1.49-.4,2.15-2.55,4.17-5.1,8.34-7.71,12.48-.66,1.05-1.1,1.99-.23,3.11,1-.31,1.21-1.17,1.61-1.85,1.92-3.28,3.79-6.58,5.7-9.86,.86-1.48,1.4-2.66,2.7-.01,.74,1.5,.7,2.37,.05,3.64-.93,1.85-2.11,3.6-2.6,5.65l-.55,1.1Zm74.68,46.89l-2.21,2.13c-1.78,1.15-3.69,2.2-4.21,4.47,1.66-1.24,3.68-2.03,4.66-3.95,1.22-.23,1.7-1.22,2.18-2.19,.42-.26,1.14-.59,.69-1.08-.45-.48-.78,.3-1.11,.61Zm-86.75,0c-.33-.32-.66-1.1-1.11-.62-.46,.49,.26,.82,.68,1.08,.49,.96,.95,1.96,2.18,2.18,1.12,1.87,2.88,2.98,4.76,3.97-.52-2.37-2.55-3.3-4.3-4.48l-2.22-2.13Zm13.34,13.91l.28,.38c.3-.23,.11-.39-.07-.56,.04-1.47-.88-2.5-1.59-3.63-.21,1.53,.5,2.7,1.38,3.81Zm60.08,0c.87-1.13,1.63-2.29,1.36-3.78-.71,1.14-1.63,2.18-1.58,3.6-.17,.17-.37,.34-.06,.56l.28-.38Zm-3.1-43.89c-.18-.28-.11-1-.7-.61-.42,.28-.08,.73,.23,1.02,.39,1.44,1.07,2.69,2.52,4.15-.21-2.15-.86-3.47-2.05-4.56Zm-53.87,0c-1.2,1.08-1.85,2.41-2.09,4.77,1.4-1.71,2.19-2.9,2.55-4.36,.31-.3,.65-.74,.23-1.02-.58-.4-.52,.32-.69,.6Zm52.69,33.33c-.05-.33-.16-.9-.48-.74-.52,.27-.26,.73,.15,1.03,.18,1.93,.65,3.73,2.36,5.85-.06-2.8-1.26-4.39-2.03-6.13Zm-51.52,0c-.8,1.73-1.91,3.37-1.76,5.38,1.36-1.46,1.94-3.2,2.09-5.1,.41-.3,.67-.76,.15-1.03-.32-.16-.42,.4-.48,.74Zm-6.15,21.14c-.3-.3-.74-.63-1.02-.21-.39,.59,.32,.51,.6,.68l3.46,3.71c-.21-2.67-1.07-3.91-3.04-4.18Zm63.82,0c-2.04,.31-2.9,1.55-2.94,4.06,1.33-1.42,2.34-2.5,3.36-3.58,.28-.17,1-.1,.61-.69-.28-.42-.72-.09-1.02,.21ZM118.36,61.26c-.09-.3-.18-.6-.29-.89,0-.01-.35,.04-.38,.12-.18,.43-.08,.8,.37,1.02,.16,2.88,1.37,5.38,2.86,7.79-.02-2.95-1.61-5.4-2.56-8.05Zm91.25,0c-.96,2.65-2.53,5.13-2.51,8.05,1.3-2.49,2.72-4.92,2.81-7.78,.45-.22,.55-.59,.37-1.02-.04-.08-.38-.14-.38-.13-.11,.29-.2,.59-.29,.88Zm-72.61,88.22c-.11-.76-.34-1.43-1.42-2.01,.29,1.07,.26,1.86,.92,2.43,1.59,5.01,4.19,9.5,7.17,14.65,.26-2.32,1.19-4.14-.03-5.31-2.92-2.82-4.37-6.55-6.65-9.75Zm53.98,0c-1.7,2.76-2.96,5.97-5.22,8.15-2.13,2.05-2.01,3.84-1.4,6.82,2.92-5.04,5.52-9.53,7.12-14.54,.63-.65,.84-1.38,.59-2.48-.66,.72-1.02,1.3-1.08,2.05Zm-16.93,670.36c1.81-1.69,2.14-4.14,3.04-6.26,1.97-4.64,3.87-9.34,3.38-14.59-.16-1.72-2.53-3.28-.25-5-2.48-.97-2.9,.42-3.1,2.26-.86,7.78-1.94,15.53-3.52,23.21-.27,.35-.67,.88-.23,1.12,.63,.35,.5-.44,.68-.75Zm-20.13,0c.19,.31,.06,1.1,.69,.75,.43-.24,.02-.78-.24-1.13-1.58-7.67-2.67-15.42-3.5-23.2-.22-2.07-.91-3.1-3.39-2.16,2.47,1.55,.16,2.89,.07,4.37-.49,7.88,2.77,14.69,6.37,21.38ZM256.36,152.04c.25,.43,.56,1.21,1.07,.73,.51-.48-.3-.8-.65-1.11-5.75-5.76-12.19-10.47-20.71-10.23-11,.32-21.25,3.6-30.63,9.44-.6,.38-1.2,.81-1.66,1.35-.37,.42-.34,1.03,.1,1.49,.37,.39,.77,.33,1.2,.03,5.18-3.61,11.13-5.54,17-7.53,9.71-3.28,19.32-4.16,28.56,1.86,1.95,1.27,3.49,3.14,5.72,3.97Zm-184.75,0c1.02-.06,1.5-.93,2.2-1.48,4.69-3.69,9.8-6.43,15.89-6.76,11.94-.65,22.32,4.16,32.55,9.43,.67,.34,1.29,1.38,1.99,.24,.53-.85-.01-1.5-.85-1.95-.55-.29-1.01-.75-1.54-1.09-6.66-4.19-14.04-6.34-21.63-8.15-11.69-2.79-21.04,1.01-29.03,9.37-.36,.31-1.17,.63-.66,1.11,.51,.48,.82-.29,1.07-.72Zm-51.23-5.49c2.61-6.23,4.99-12.58,7.88-18.68,5.65-11.95,10.24-24.53,20.38-33.87,7-6.46,13.95-12.67,23.46-15.31,13.16-3.67,25.08-1.5,36.25,6.31,2.6,1.82,3.46,4.77,5.81,6.58,.16,.41,.45,1.03,.83,.75,.59-.42,.06-.87-.35-1.19-1.84-4.29-5.36-7.75-6.17-12.56-.07-.44-.67-.83-1.08-1.15-3.46-2.68-7.22-4.75-11.47-5.94-10.15-2.83-19.44,.08-28.13,4.84-12.15,6.65-22.07,15.88-29.78,27.55-6.17,9.34-11.71,18.9-14.88,29.7-1.22,4.16-2.92,8.2-3.18,12.61-.52,.66-.81,1.3,0,1.97,.55-.51,.38-1.08,.42-1.6Zm193.43-54.97c2.36-1.8,2.87-5.22,5.86-6.53,1.55-.68,2.89-1.81,4.35-2.71,11.66-7.16,24.07-6.97,36.21-2.26,10.28,3.99,18.06,11.89,24.96,20.32,5.47,6.67,8.73,14.73,12.31,22.51,3.58,7.78,6.74,15.75,10.09,23.63,.12,.55-.28,1.3,.62,1.59,.43-.72,.41-1.36-.2-1.96-.73-7.03-3.37-13.53-5.79-20.05-3.64-9.83-9.22-18.66-15.62-26.86-11.05-14.16-24.36-25.23-42.74-28.53-5.53-1-10.94-.14-15.9,2.15-4.11,1.9-8.35,3.84-9.75,9.21-.84,3.22-3.21,6.04-4.89,9.03-.41,.33-.93,.78-.35,1.19,.38,.28,.68-.34,.83-.75Zm-9.32,222.37c.19-2.83-.16-6.81-.55-10.78-.69-7-1.49-13.99-2.04-21.01-.35-4.4-1.36-8.64-2.23-12.95-1.76-8.67-2.96-17.46-4.35-26.2-.2-1.23-.4-1.89-1.8-1.03-3.91,2.39-8.39,3.44-12.72,4.42-15.84,3.59-31.39,2.52-46.28-4.42-1.4-.65-1.65-.31-1.84,1.01-.39,2.68-.87,5.36-1.38,8.02-1.48,7.78-2.4,15.64-4.25,23.38-1.26,5.29-1.31,10.87-1.82,16.33-.68,7.21-1.52,14.39-1.75,21.64-.29,9.11,1.05,18.05,2.31,27.01,.86,6.15,1.33,12.37,3.1,18.39,.62,2.1,1.46,1.93,2.82,.96,2.57-1.85,5.04-3.85,7.69-5.57,14.1-9.12,28.76-10.44,44.01-3.02,4.59,2.23,8.61,5.31,12.65,8.37,.91,.69,2.18,2.05,2.84-.2,.71-2.41,1.31-4.87,1.72-7.35,.6-3.66,.96-7.35,1.47-11.02,1.13-8.24,2.56-16.45,2.41-25.98Zm-40.33,324.08v.17c-4.89,0-9.86-.56-14.64,.14-5.9,.87-6.74,1.91-7.62,7.06-.21,1.26-.32,2.5-.37,3.76-.19,4.37,1.03,8.64,1.09,12.96,.1,7.6,.21,15.2,.38,22.8,.19,8.52,2.03,16.65,4.46,24.71,1.1,3.64,1.79,3.88,5.47,3.84,7.35-.08,14.7-.09,22.04,0,3.7,.04,4.37-.27,5.56-3.75,3.41-10.03,4.44-20.4,4.78-30.92,.24-7.42-.64-14.87,.66-22.25,.5-2.86,.7-5.78,.42-8.65-.28-2.81-.12-6.04-2.82-7.82-1.99-1.31-4.36-2.09-6.9-2.04-4.17,.07-8.33,.02-12.5,.02Zm30.48-411.29h.04c0-2.72-.13-5.46,.03-8.17,.17-2.93-1.07-4.69-3.62-6.03-3.84-2.01-7.55-4.22-10.48-7.59-2.72-3.13-4.26-6.9-6.25-10.44-1.91-3.39-3.9-6.74-6.09-9.95-2.68-3.93-5.84-3.84-8.64,.04-.21,.29-.4,.61-.58,.92-2.63,4.64-5.66,9.03-7.95,13.88-2.91,6.15-8.06,10.14-14.04,13.04-2.83,1.37-3.94,3.36-3.82,6.47,.18,4.9,.07,9.81,.1,14.71,.03,5.24,.87,6.44,5.75,8.19,9.77,3.5,19.63,5.59,30.22,4.69,7.75-.66,14.79-3.13,21.9-5.72,2.38-.87,3.46-2.78,3.45-5.32-.01-2.91,0-5.81,0-8.72Zm-55.87,384.99c0,3.06,0,7.14,0,11.21,0,2.67,.4,5.33,2,7.48,1.15,1.55,1.87,3.09,1.79,4.96-.07,1.64,.66,1.55,1.99,1.44,6.48-.53,12.97-1.2,19.46-1.23,6.22-.03,12.46,.48,18.64,1.16,2.44,.27,2.92-.35,2.86-2.5-.03-1.15,.4-2.24,1.24-3.21,1.06-1.23,1.88-2.7,1.97-4.38,.69-11.76,.98-23.52-.24-35.25-.17-1.65-1.2-2.97-2.73-3.85-3.9-2.25-8.03-3.43-12.58-3.69-4.07-.23-8.02,.77-12.15,.27-6.32-.77-12.64-.36-18.36,3.15-2.04,1.25-3,2.89-3.34,5.23-.88,6.05-.44,12.12-.55,19.21Zm-2.91-62.42c.82,8.46,1.48,16.93,2.57,25.36,.38,2.93-.29,5.98,1.12,8.82,.67,1.34,1.06,1.76,2.56,.91,3.39-1.94,7.09-2.9,11-3.48,4.89-.72,9.71,.34,14.57-.13,5.73-.54,11.32,.22,16.6,2.79,3.47,1.69,4.59,.93,4.91-3.09,.05-.63-.01-1.27,.05-1.91,.66-6.74,1.26-13.48,2.03-20.2,.76-6.69,1.31-13.32-1.08-19.86-.91-2.5-2.24-3.75-4.99-3.07-9.61,2.39-19.42,1.23-29.15,1.63-4.29,.17-8.43-.94-12.62-1.54-3.83-.55-4.49-.33-5.73,3.37-1.13,3.35-2.03,6.77-1.85,10.39Zm44.51-62.59c2.18,0,3.9,.02,5.62,0,4.85-.07,5.46-.62,6.53-5.37,1.21-5.37,2.1-10.82,2.53-16.28,.34-4.23,1.44-8.39,1.24-12.66-.13-2.86-4.6-7.59-6.95-7.07-6.03,1.33-12.15,1.64-18.27,2.03-10.24,.65-20.41,.07-30.5-1.72-4.08-.72-8.85,2.99-8.93,7.21-.07,3.37,.86,6.62,1.11,9.95,.49,6.76,1.59,13.42,3.01,20.04,.55,2.58,2.1,3.77,4.47,3.81,4.88,.07,9.76,.17,14.65-.23,3.86-.32,7.71-1.27,11.62-.71,4.75,.68,9.51,1.09,13.86,1.01Zm-15.72,46.33c6.11-.15,12.71,.46,19.29-.54,2.89-.44,4.18-1.49,4.13-4.33-.18-9.33,2.43-18.22,4.39-27.18,.95-4.34,.17-7.75-2.74-10.89-.52-.56-.95-.97-1.83-.77-2.77,.61-5.59,.21-8.39,.31-5.43,.21-10.83-.88-16.23-.65-7.76,.33-15.51,1.14-23.29,.32-.47-.05-.84-.03-1.26,.26-2.28,1.62-4.11,6.21-3.63,8.85,1.83,10,4.93,19.8,4.8,30.12-.02,1.99,1.05,3.56,3.14,3.8,2.06,.23,4.07,.77,6.18,.73,4.98-.1,9.96-.03,15.43-.03Zm-.58-158.97c-1.63,0-3.26-.05-4.89,0-5.67,.21-11.33,.19-16.65,2.85-3.03,1.52-5.98,3.55-9.55,3.65-1.76,.05-2.35,.79-2.51,2.43-.76,7.57,.3,14.93,2.16,22.24,.3,1.19,.91,1.43,1.93,1.29,9.79-1.29,19.61-1.5,29.46-1.07,3.99,.17,7.98-.49,11.94-.38,5.76,.16,11.5,.93,17.25,1.42,.91,.08,1.73,.22,2.06-1.09,1.87-7.49,3.1-15.02,2.16-22.78-.18-1.48-.84-2.04-2.28-2.05-1.75,0-3.33-.67-4.92-1.39-3.11-1.41-6.17-3.11-9.44-3.97-5.45-1.43-11.11-1.3-16.73-1.18Zm34.31-6.69c.76-3.3-.08-6.24-3.83-7.77-.24-.1-.44-.32-.66-.48-7.3-5.33-14.95-9.77-24.2-10.84-9.37-1.09-18.11,.43-26.45,4.94-4.4,2.38-8.2,5.62-12.53,8.07-.83,.47-1.2,1.33-1.19,2.32,.03,2.81-.2,5.66,.14,8.44,.85,7.03,2.26,7.62,8.65,4.36,3.29-1.68,6.55-3.58,10.27-4.13,6.26-.93,12.58-1.36,18.92-1.08,7.13,.31,14.26,.7,20.69,4.4,1.48,.85,3.06,1.6,4.66,2.19,3.23,1.2,4.5,.41,5.04-3,.37-2.33,.79-4.65,.49-7.39Zm-42.73,389.56c-.17,6.35,.59,12.64,1.08,18.95,.56,7.18,3.31,13.62,6.14,20.06,.23,.52,.44,1.02,1.08,1.06,.53,.04,.86-.31,1.02-.75,1.54-4.34,4.24-8.29,5.05-12.82,1.49-8.36,2.55-16.82,2.28-25.34-.18-5.73,.52-11.4,.67-17.1,.06-2.39,.34-4.85,1.14-7.21,1.26-3.71,4.01-6.17,6.85-8.56,1.54-1.29,2.49-2.81,2.62-4.83,.09-1.45-2.03-4.74-2.92-4.33-3.44,1.59-7.01,.24-10.45,.75-6.58,.97-13.13-.53-19.69,.09-.43,.04-.9-.1-1.33-.22-1.22-.34-2.46-1.42-3.43,.51-.63,1.26-1.54,2.2-1.28,3.93,.46,3.02,2.85,4.3,4.72,6,2.86,2.6,4.88,5.66,5.29,9.5,.72,6.75,1.22,13.52,1.15,20.32Zm8.02-327.66c8.14,.92,15.77-.37,23.23-3.37,4.17-1.67,6.69-4.4,7.74-8.65,.26-1.05,.53-2.1,.76-3.16,.57-2.66-.33-4.16-3-4.72-5.33-1.1-10.78-1.06-16.16-1.21-9.48-.25-18.98,.13-28.47,.25-4.15,.05-8.28,.35-12.39,.97-2.19,.33-2.93,1.78-3,3.58-.2,5.09,3.64,10.74,8.4,12.76,7.38,3.13,15.02,4.57,22.89,3.53Zm.45,15.94c5.98,.33,12.06,.08,18.09-.57,2.77-.3,5.71,.07,8.3-1.8,5.35-3.85,5.16-9.25,4.23-15.75-.16-1.15-.75-1.47-1.62-.65-2.2,2.06-5.02,2.88-7.72,3.83-4.58,1.62-9.3,3.33-14.17,3.04-4.22-.25-8.45-.12-12.64-.11-8.58,.02-16.31-2.28-23.51-6.67-1.38-.84-1.64-.44-1.89,.89-.5,2.7-.63,5.44-.28,8.12,.57,4.44,4.35,8.28,8.06,8.66,7.67,.8,15.34,1.37,23.16,1.02Zm14.41-319.63c-1.58,.07-3.38,.16-3.84,2.92-1.34,8.03-2.06,16.07-1.63,24.22,.2,3.74,.09,3.78,3.73,3.71,1.58-.03,3.34,1.92,4.61,.24,.96-1.27,1.03-3.22,1.49-4.87,.12-.43,.21-.88,.38-1.3,1.14-2.83,.48-6,1.4-8.75,.67-2.01,.72-3.8,.48-5.76-.15-1.16-.38-2.35-.29-3.5,.38-4.72-1.3-6.75-6.33-6.92Zm-28.57,0c-4.56-.04-7.81,2.52-7.12,5.53,.92,4.04-.9,7.98,.57,12.21,1.06,3.06,1.12,6.68,2.15,9.96,.4,1.28,.38,2.99,1.23,3.76,.96,.86,2.49-.27,3.78-.52,.26-.05,.54-.07,.81-.06,3.31,.17,3.38,.03,3.53-3.39,.36-8.05-.15-16.01-1.55-23.95-.47-2.65-1.6-3.6-3.4-3.53Zm-3.84,601.29l-.57-.04c-.25,.57-.59,1.13-.73,1.72-2.38,10.5-3.94,21.12-4.95,31.83-1.11,11.76-.18,23.5,.56,35.23,.04,.6-.15,1.46,.67,1.57,.96,.14,.73-.87,.9-1.38,1.91-5.6,2.44-11.46,3.09-17.29,.82-7.28,1.12-14.59,1.06-21.92-.09-9.91-.02-19.82-.02-29.74Zm36.07-.04c.95,5.22-.27,10.39-.33,15.58-.15,15.29-.17,30.58,2.18,45.74,.48,3.12,1.28,6.24,2.8,9.14,3.24-23.82,1.49-47.28-4.66-70.46Zm13.71-533.5c-1.22-4.57-1.64-9.39-4.93-13.26-1.39-1.63-2.18-1.89-3.79-.28-3.81,3.83-6.38,8.47-9,13.08-.65,1.14,2.28,7.12,3.51,7.53,.62,.21,1.04-.2,1.46-.5,3.43-2.41,7.09-4.26,11.25-5.08,.61-.12,1.82-.16,1.5-1.49Zm-63.73-.43c-.63,1.56,.64,1.8,1.51,1.97,4.07,.8,7.66,2.59,11.01,4.95,.42,.3,.99,.64,1.44,.59,1.35-.16,4.32-6.38,3.61-7.65-2.62-4.62-5.21-9.24-9.04-13.06-1.52-1.51-2.31-1.26-3.62,.24-3.26,3.76-3.74,8.49-4.92,12.96Zm44.3-2.39c1.83-2.62,2.81-5.82,5.01-8.22,2.89-3.16,2.82-7.05,2.81-10.94,0-.97-.28-1.94-1.31-2.13-3.06-.55-6.09-.35-9.01,.8-.54,.22-.83,.66-.87,1.26-.45,6.63-2.26,13.49,3.37,19.22Zm-24.86,.42c1.44-2.49,3.44-4.45,3.61-6.54,.33-4.27,.53-8.65-.29-12.96-.18-.96-.69-1.42-1.52-1.67-2.53-.79-5.11-.91-7.73-.67-1.05,.1-1.79,.57-1.9,1.59-.33,2.99-.53,6.27,.9,8.76,2.14,3.71,4.74,7.18,6.93,11.49Zm39.02,606.36c6.5-13.8,2.27-62.66-6.31-70.71,6.18,23.58,8.12,46.96,6.31,70.71Zm-53.42,.02c-1.74-23.75,.33-47.13,5.95-70.25-2.1,2.06-3.18,4.53-3.82,7.15-2.92,12.03-4.65,24.27-5.84,36.57-.87,9.07,.75,17.89,3.71,26.53Zm41.97-66.99c-2.14,2.01-3.16,4.36-3.38,7.04-.78,9.4-.65,18.83-.43,28.24,.08,3.6,.25,7.28,1.38,10.8,4.83-15.17,1.87-30.7,2.43-46.08Zm-30.27-.27c-.18,.52-.4,.85-.4,1.17,.05,8.69,.13,17.38-.3,26.07-.31,6.21,1.74,12.18,2.2,18.32,.03,.4,.38,.82,1.21,.74,.35-3.34,.95-6.72,1-10.12,.14-9.69,.38-19.39-.49-29.06-.23-2.59-1.12-5.05-3.24-7.12Zm25.7,53.24h-.69c-.64,1.86-1.2,3.75-1.92,5.58-1.22,3.1-2.87,6.08-3.73,9.27-1.82,6.73,1.11,12.91,2.89,19.19,.08,.28,.47,.47,1,.95,1.89-11.82,3.93-23.29,2.46-34.99Zm-18.74,35.09c1.89-1.89,1.97-3.97,2.42-5.81,1.15-4.78,3.16-9.56,1.43-14.57-1.14-3.32-2.65-6.51-4.03-9.75-.7-1.64-.8-3.53-2.28-5.7-1.45,12.42,.48,23.86,2.45,35.83ZM182.92,115.31c.37-2.26,.42-4.53-.37-6.69-.47-1.29-1.47-2.02-2.86-2.14-1.53-.14-1.69,1.1-2.01,2.1-1.34,4.15-1.88,8.42-1.94,12.76-.01,.79,.03,2.19,.83,2,2.16-.52,4.24,.69,6.31-.04,.09-.03,.03-.48,.03-.74,0-2.41,0-4.82,0-7.24Zm-30.76,4.55c-.24-3.63-.61-7.31-1.75-10.84-.35-1.09-.35-2.75-2.22-2.53-1.6,.18-2.52,1.11-2.96,2.71-.96,3.48-.25,7.01-.42,10.51-.15,3.07,.67,3.98,4.22,3.73,3.12-.22,3.51-1.05,3.12-3.57Zm-6.4,43.78c.08,3.3,.43,3.84,6.36,3.32,3.26-.29,1.46-3.82,1.92-5.8,.65-2.8-1.83-2.47-3.56-2.47-3.54,0-4.82,1.38-4.73,4.95Zm36.44-.08c.07-3.52-1.24-4.87-4.82-4.87-1.79,0-4.18-.19-3.47,2.56,.5,1.95-1.39,5.52,2,5.71,6.19,.35,6.22-.01,6.28-3.39Zm-43.24,2.82c.02-2.31-1.25-3.23-2.09-4.33-1.98-2.57-4.29-4.88-6.84-6.88-1.78-1.4-4.32-.93-4.19,.58,.2,2.2,.54,5,2.66,5.86,3.43,1.4,7.02,2.42,10.46,4.77Zm60.87-11.97c-.23,.06-.73,.07-1.07,.31-3.86,2.72-7.06,6.08-9.58,10.08-.16,.25-.21,.79-.05,.96,.5,.55,1.01,.07,1.39-.24,1.76-1.5,3.91-2.56,6.03-2.85,3.59-.5,4.61-2.86,5.46-5.72,.56-1.87-.27-2.51-2.19-2.54Zm-79.25,172.33c.26-2.14-.63-4.04-3.1-4.88-1.1-.38-1.84-2.29-3.22-1.18-1.18,.95-1.21,2.55-1.04,4.03,.25,2.23,1.33,3.94,3.29,4.98,2.51,1.33,4.12,.27,4.06-2.95Zm86.8,.18c.21,.94-.62,2.23,.95,2.97,1.48,.71,2.67,.16,3.78-.6,2.42-1.63,3.37-5.2,2.19-7.73-.31-.66-.51-1.37-1.5-1.19-2.43,.46-5.35,3.91-5.43,6.54Zm-85.92-23.83c-3.23-1.8-5.98-3.35-8.76-4.88-.31-.17-.72-.17-.95,.2-1.19,1.92-.92,3.92,.32,5.56,.94,1.25,2.47,2.39,4.17,1.2,1.42-1,3.02-1.44,5.22-2.08Zm85.26-.12c1.65,.65,3.09,.87,4.05,1.67,1.82,1.52,3.49,1.06,4.79-.27,1.33-1.37,1.89-3.23,.97-5.22-.28-.6-.45-1.36-1.26-.93-2.79,1.49-5.53,3.07-8.54,4.75Zm-4.9,60.44c.08-.03,.17-.06,.25-.1,1.5-.82,2.97-1.7,4.51-2.44,1.49-.72,2.71-1.52,3.41-3.19,.4-.95,.29-1.56-.21-2.18-.56-.7-1.15-.05-1.67,.2-1.15,.55-2.29,1.07-3.6,.99-.95-.05-1.48,.46-1.84,1.26-.51,1.13-.76,2.39-1.93,3.17-.7,.47-.18,1.13,.03,1.7,.19,.51,.55,.67,1.05,.58Zm-74.28-1.49c-.04-1.23-3.63-5-4.85-5.28-.95-.21-1.86-.62-2.8-.93-.6-.2-1.21-1.03-1.84-.04-.41,.64-.46,1.15-.09,1.96,1.61,3.55,5.42,3.86,8.17,5.7,.95,.63,1.07-.81,1.41-1.41Zm-.75-195.53c-1.14-.04-2.34-.07-2.74,1.24-.37,1.24,.18,2.5,1.2,3.09,1.46,.86,3.11,1.43,4.73,1.94,.74,.23,1.65,.14,2.2-.67,.54-.79,.32-1.57-.12-2.3-1.2-1.99-2.95-3.12-5.27-3.31Zm75.36-.03c-3.15,.07-4.96,1.26-6.25,3.31-.45,.72-.68,1.5-.16,2.3,.53,.82,1.45,.93,2.19,.7,1.63-.5,3.28-1.07,4.74-1.92,1.03-.59,1.57-1.84,1.23-3.09-.31-1.15-1.35-1.34-1.75-1.3Zm-79.93,127.29c-.1-.37-.12-1.22-.4-1.32-1.92-.67-4.03-3.12-5.37-2.27-1.62,1.03,.28,3.3,.97,4.96,.13,.33,.32,.65,.54,.92,.81,1.01,1.85,2.06,3.12,1.79,1.12-.24,.34-1.75,.8-2.6,.2-.38,.21-.87,.34-1.47Zm83.58,.35c.79,.91-.29,3.3,1.18,3.66,1.68,.41,2.94-1.36,3.77-2.94,.21-.4,.5-.78,.57-1.21,.21-1.19,1.48-2.58,.39-3.5-1.01-.86-1.97,.71-2.99,1.12-.58,.23-1.15,.54-1.75,.68-1.03,.24-1.22,.94-1.17,2.19ZM112.02,81.18c1.99,5.46,4.83,10.4,8.82,14.65-1.13-5.96-5.23-10.16-8.82-14.65Zm95.14,14.63c3.89-4.34,6.86-9.19,8.83-14.63-3.74,4.41-7.67,8.7-8.83,14.63Zm-100.82,221.3c-.65,2.63-.04,4.77,1.8,6.48,.65,.6,1.65,1.03,2.49,.49,1.35-.86,1.27-2.5,1.57-3.84,.25-1.12-1.01-.64-1.56-.94-1.32-.72-2.68-1.37-4.3-2.19Zm115.29,0c-1.58,.8-2.94,1.45-4.26,2.18-.55,.31-1.81-.19-1.61,.91,.25,1.35,.23,3,1.53,3.87,.92,.61,2.02,.1,2.7-.6,1.67-1.71,2.27-3.79,1.63-6.35Zm-8.87,39.38c.34-.1,.52-.14,.69-.21,1.38-.54,4.19-5.1,4.02-6.49-.07-.51-.27-.89-.83-.83-2.41,.26-3.77,1.92-4.95,3.8-.19,.3-.44,.63-.44,.95-.01,1.24,.45,2.24,1.52,2.78Zm-95.99-2.52c-.08-1.76-3.55-4.99-5.24-5.01-1.16-.01-1.18,.71-.91,1.43,.69,1.85,1.22,3.81,2.92,5.08,.61,.45,1.14,1.41,2.06,.78,.76-.52,1.1-1.41,1.17-2.28Zm30.4-261.44l-.73,.07c0,3.65,0,7.3,0,10.95,0,.62,.36,1.02,1.03,.97,.84-.07,1.79-.28,1.85-1.24,.26-3.79-.31-7.43-2.16-10.75Zm34.4,.15l-.77-.14c-1.84,3.24-2.34,6.81-2.21,10.51,.04,1.16,1,1.43,1.94,1.46,1.07,.04,1.02-.84,1.03-1.54,.02-3.43,0-6.86,0-10.29Zm34.41,246.01c-.9,1.28-1.67,2.44-2.88,3.1-1.79,.97-1.98,1.96-.58,3.52,1.47,1.65,2.51,.77,3.6-.31,2-2,1.99-3.61-.13-6.31Zm-104,.09c-2.13,2.59-2.13,4.31,0,6.34,1.05,1,2.08,1.76,3.4,.26,1.24-1.41,1.57-2.52-.42-3.53-1.31-.66-2.04-1.99-2.98-3.07Zm76.84-134.97c-1.01-1.01,1.71-3.37-1.15-3.47-1.51-.05-3.46,.64-4.16,2.47-.31,.8,3.3,4.44,4.28,4.18,1.74-.45,.43-2.11,1.04-3.19Zm-49.46-.23c.13,1.14-.6,2.92,.36,3.29,1.21,.46,2.26-1.05,3.28-1.87,.21-.17,.38-.38,.57-.58,1.18-1.25,1.36-2.32-.5-3.08-.67-.27-1.3-.65-1.97-.89-1.42-.51-2.37-.35-1.97,1.54,.11,.53,.16,1.07,.23,1.6Zm77.09,127.62c2.27,.08,4.45-1.72,4.74-3.76,.14-1.04,.05-1.84-1.36-1.57-.88,.17-1.83,.1-2.66,.38-1.59,.55-1.9,2.07-2.11,3.48-.14,.96,.67,1.36,1.39,1.47Zm-108.07-5.25c-.97-.37-1.57-.12-1.65,1-.13,1.98,2.06,4.06,4.42,4.21,1.08,.07,1.73-.38,1.81-1.48,.14-2.08-1.55-3.45-4.58-3.74Zm14.74,24.22l.55-.4c-.55-.76,.05-1.87-1.1-2.49-1.16-.62-1.64-1.28-.29-2.4,.88-.73,.14-1.18-.73-1.26-1.24-.12-2.26,.27-3.2,1.1-2.04,1.81-1.95,2.55,.58,3.68,1.38,.61,2.79,1.18,4.18,1.77Zm81.28,.08c1.3-.47,2.23-.78,3.14-1.13,.83-.33,1.65-.71,2.48-1.05,1.06-.43,1.41-1.22,.74-2.12-.98-1.31-2.14-2.48-4-2.34-1.18,.09-2.22,.22-.69,1.56,.87,.77,.47,1.54-.37,1.93-1.27,.59-1.05,1.69-1.29,3.15Zm-94.56-52.86c.5-1.02-.17-1.45-.9-1.92-1-.63-1.46,.07-1.99,.71-1.02,1.24-1.04,2.72-.73,4.13,.24,1.07,1.15,2.04,2.28,2,1.17-.04,.59-1.29,.78-2,.25-.96,.38-1.95,.57-2.92Zm112.01,1.02c-.04-.16-.05-.94-.4-1.52-.46-.76-.76-2.02-2.14-1.53-1.28,.45-1.52,1.3-1.05,2.56,.31,.83,.32,1.77,.49,2.66,.12,.65-.29,1.63,.75,1.77,.76,.1,1.25-.62,1.77-1.11,.67-.63,.67-1.44,.58-2.82Zm-107.71-8.84c.58-1.29-.03-2.75-1.5-2.81-1.46-.06-1.42,1.76-1.63,2.95-.11,.61-.08,1.27,.02,1.89,.23,1.53,1.4,2.23,2.69,2.05,1.52-.21,.39-1.41,.42-2.18,.02-.54,0-1.08,0-1.9Zm102.84,.31s.09-.6-.13-1.06c-.38-.81-.31-2.35-1.6-2.09-1.1,.23-1.94,1.16-1.45,2.68,.23,.72,.02,1.61-.05,2.41-.05,.59-.61,1.24,.09,1.73,.72,.49,1.36-.02,2-.34,1.22-.59,1.17-1.7,1.13-3.34Zm1.91,17.24c-1.34-.05-3.87,2.25-3.77,3.39,.06,.61-.46,2.06,.92,1.63,1.58-.5,3.76-.52,4.23-2.61,.21-.93-.26-2.12-1.38-2.41Zm-105.96,3.53c-.15-2.1-1.89-2.91-3.47-3.42-1.38-.44-1.77,1.15-1.73,2.1,.08,2.13,2.2,1.88,3.5,2.59,1.43,.78,1.72,.06,1.7-1.27Zm5.96-28.9c-1.07-1.19,.5-3.79-1.58-4.17-.68-.13-2.23,2.36-2.68,3.86-.23,.75,1.21,1.99,2.49,2.07,.96,.07,1.74-.46,1.78-1.76Zm94.66-.35c-.09-.22-.11-.46-.23-.53-1.35-.85-1.48-3.44-2.72-3.36-1.76,.12-.69,2.42-1.26,3.65-.62,1.32,0,2.2,1.31,2.33,1.47,.14,2.13-1.13,2.9-2.09Zm-18.01-231.67l-.86,.41c2.37,4.91,4.39,9.99,7.49,14.53l.82-.4c-2.48-4.84-4.96-9.69-7.44-14.53Zm-62.29,.35l-.79-.39c-2.47,4.83-4.93,9.66-7.4,14.49l.87,.42c2.88-4.63,5.15-9.55,7.32-14.53Zm-17.46,260.94c-1.16-.17-1.19,.87-1.13,1.41,.27,2.55,2.76,2.33,4.35,3.16,1.1,.57,1-.61,1.05-1.25,.08-1.27-2.45-3.21-4.26-3.31Zm93.1,4.67c1.42-.63,3.11-1.06,4.36-2.28,.64-.62,.01-1.38-.2-2-.23-.67-.85-.42-1.36-.18-1.05,.49-2.15,.91-3.17,1.45-.92,.49-.58,1.41-.56,2.19,0,.47,.16,.89,.93,.82Zm-2.21,25.95c3.34,.11,5.44-.95,7.09-3.06,.29-.38,.54-.74,.34-1.21-.17-.4-.57-.43-.9-.24-2.1,1.24-4.54,1.98-6.53,4.51Zm-85.23-.16c-2.24-2.19-4.45-3.15-6.53-4.29-.28-.15-.69-.35-.96,.05-.29,.43-.16,.83,.15,1.21,1.71,2.12,3.78,3.45,7.35,3.03Zm-15.32-8.39c-.15,2.17,.64,3.3,1.77,4.29,1.1,.96,1.73,.25,2.43-.58,.83-.98,.15-1.49-.55-1.9-1.07-.62-2.22-1.11-3.65-1.81Zm115.79,0c-1.86,1.08-3.98,1.06-4.57,3.04-.17,.59,.79,1.94,1.75,1.66,1.92-.56,2.75-2.12,2.82-4.7ZM118.94,123.78c1.91,2.73,4.16,5.08,7.07,6.74-1.13-3.49-4.46-4.78-7.07-6.74Zm31.86,660.6c-2.29,2.59-2.4,7.16-.26,8.13-.08-2.76,.08-5.43,.26-8.13ZM208.97,123.7c-2.55,2.05-5.83,3.36-7,6.83,2.81-1.78,5.26-3.94,7-6.83Zm-31.38,669.05c1.95-1.51,1.54-6.91-.77-8.64,.76,3,.45,5.76,.77,8.64ZM201.96,88.81c.18-2.3-3.58-8.47-5.57-9.28,1.71,3.18,2.97,6.34,5.57,9.28Zm-63.04,55.39c.91-2.94,1.73-5.4,.79-8.08-.83,2.46-3.12,4.69-.79,8.08Zm50.18,.03c2.15-3.45,.14-5.68-.95-8.7-.8,3.32-.02,5.78,.95,8.7Zm-63.09-55.9c2.47-2.58,4.13-5.59,5.04-9.02-1.61,3.05-4.55,5.36-5.04,9.02Zm78.73,195.42c2.34-.88,2.91-2.68,2.74-4.42-.11-1.13-1.51-.27-2.03-.04-2.44,1.08-.18,2.82-.71,4.46Zm-81.64-.14c.16-1.18,.47-2.31,.43-3.43-.05-1.68-1.7-1.09-2.49-1.2-1.14-.15-.65,.97-.45,1.58,.41,1.25,.66,2.68,2.51,3.05Zm11.03-197.77l-.56-.45c-1.87,2.15-3.09,4.76-4.63,7.14-.34,.53-.42,1.05,.15,1.39,.72,.43,.92-.3,1.14-.72,1.32-2.44,2.6-4.91,3.89-7.37Zm60.08-.31c.7,2.91,2.34,5.36,3.7,7.94,.19,.37,.47,.86,1.02,.43,.39-.3,.54-.67,.23-1.16-1.55-2.47-2.81-5.13-4.95-7.21Zm12.24,249.67c2.33-1.11,4.37-2.08,6.41-3.05-1.31-.26-2.56,.14-3.7-.08-2.57-.5-2.64,.98-2.71,3.13Zm-91.34-3.06c2.04,.97,4.09,1.94,6.13,2.92-.03-1.27,.57-2.99-1.04-2.98-1.67,.01-3.32-.23-5.09,.06ZM195.01,105.01c-.57,2.49,.89,3.97,2.06,5.57,.21,.29,.8,.63,1.13,.12,.2-.31,.27-.96,.08-1.23-1.03-1.52-2.17-2.98-3.26-4.45Zm-61.39-.23c-2,1.47-2.84,3.27-3.98,4.8-.26,.35-.2,.94,.2,1.21,.2,.14,.78,.05,.94-.14,1.32-1.6,2.72-3.18,2.84-5.87Zm58.89,13.61c-.88-1.24-1.75-2.49-2.66-3.69-.06-.08-.61,.03-.68,.17-.57,1.19,.22,2.11,.83,2.92,.47,.61,.64,1.78,1.79,1.61,.24-.04,.4-.54,.72-1Zm-56.35,1.55c1.41-1.42,2.38-2.61,2.8-4.13,.19-.68-.35-1.65-.84-1.04-1.05,1.3-2.95,2.47-1.97,5.17Zm55.19-8.87c-.8,2.09,.96,3.2,1.48,4.69,.13,.38,.49,1.11,1.16,.6,.42-.32,.74-.83,.33-1.4-.93-1.27-1.59-2.75-2.97-3.88Zm-54.7-.33c-1.15,1.6-2.06,2.87-2.96,4.14-.38,.54-.19,1,.22,1.43,.32,.34,.66,.32,.85-.06,.82-1.59,2.44-2.88,1.88-5.51Zm54.21,16.85l-.77,.38c.66,1.63,1.32,3.25,1.98,4.88,.18,.46,.19,1.23,.98,.8,.54-.3,.56-.93,.29-1.44-.8-1.55-1.65-3.07-2.48-4.61Zm-52.99,.36l-.76-.34c-.83,1.54-1.69,3.06-2.49,4.62-.27,.52-.23,1.16,.32,1.43,.8,.39,.78-.39,.97-.85,.65-1.62,1.31-3.24,1.96-4.86Zm-8.95-76.18c-1.66,1.58-3.29,3.17-3.05,6.46,1.85-2.29,2.49-4.36,3.05-6.46Zm73.26,6.46c.1-3.22-1.34-4.93-3.22-6.42,.86,1.97,1.17,4.19,3.22,6.42Zm-2.41,49.39c.31-1.93-1.31-2.72-1.97-3.96-.19-.36-.61-.34-.87-.01-.14,.18-.25,.6-.16,.68,1.05,.96,1.09,2.85,3,3.29Zm-71.5,.42c1.51-1.43,2.58-2.58,2.87-4.28,.01-.09-.59-.38-.61-.36-.93,1.22-2.49,2.07-2.26,4.64Zm63.81,16.61c-.49,.58-.37,.92-.19,1.23,.69,1.24,1,2.73,2.19,3.63,.34,.26,.56-.29,.67-.6,.69-1.83-1.45-2.23-1.83-3.55-.08-.27-.51-.45-.84-.72Zm-55.65-.25c-3.3,2.7-3.64,3.46-2.55,5.29,1.13-1.43,1.97-2.93,2.55-5.29Zm50.75,24.27c1.32-1.48,1.01-2.89-.07-4.37-1.66,1.52-.25,2.96,.07,4.37Zm-46.33-.01c.18-1.43,1.73-2.89-.03-4.36-.97,1.51-1.48,2.92,.03,4.36Zm52.34-40.47c-.2,2.09,1.05,3.35,1.84,4.82,.24,.44,.66,.92,1.28,.36,.48-.43,.19-.78-.09-1.15-1.01-1.34-2.02-2.69-3.04-4.03Zm-58.41,0c-1.06,1.4-2.1,2.81-3.18,4.2-.38,.49-.19,.84,.21,1.12,.37,.26,.76,.04,.92-.25,.87-1.58,2.3-2.91,2.05-5.07Zm60.36,17.06c1.67-1.65,.87-2.58-.19-3.44-.33-.26-.77-.68-1.12-.09-1.02,1.74,.97,2.17,1.32,3.53Zm-62.29,0c.38-1.35,2.18-1.8,1.38-3.4-.37-.74-.88-.32-1.3,.02-1.11,.9-1.72,1.88-.09,3.38ZM198.45,45.13c.1,1.98,1.07,3.44,2.57,5.03,.24-2.53-1.43-3.66-2.57-5.03Zm-68.65-.73c-1.49,2.1-3.22,3.21-2.77,5.9,1.26-1.81,2.5-3.17,2.77-5.9Zm35.35,767.76c-2.64,.15-2.67,.24-1,3.45,.36-1.23,.63-2.19,1-3.45Zm-47.63-505.55c1.32,.14,2.15,1.1,3.02,.08,.14-.17,.05-.82-.14-.95-1.02-.71-1.81-.11-2.88,.87Zm92.65-.07c-.73-1.03-1.57-1.38-2.56-.91-.43,.2-.48,.89-.15,1.17,.93,.8,1.74,0,2.71-.27ZM127.72,103.69c.97-1.13,1.99-1.81,1.5-3.2-.05-.14-.51-.31-.63-.23-1.1,.71-1.57,1.67-.87,3.43Zm72.68-.14c.44-1.59,.12-2.6-1.03-3.29-.13-.08-.59,.09-.63,.23-.42,1.36,.37,2.15,1.66,3.06Zm-75.55,169.23c0-.71-.22-1.18-.93-1.05-.62,.11-1.28,.32-1.32,1.1-.04,.7,.61,.86,1.09,.97,.82,.18,1.05-.43,1.16-1.01Zm79.22,1.09c.51-.17,1.17-.27,1.29-.85,.16-.79-.51-1.07-1.12-1.26-.61-.19-1.07,.04-1.13,.73-.06,.7,.23,1.2,.96,1.38ZM124.17,49.27q1.14-2.62,0-4.65v4.65Zm79.39-4.41c-.86,1.49-.98,2.99,.07,4.86,.44-1.88,.3-3.36-.07-4.86Zm-6.35,74.19c-.34-.15-.25-1-.98-.82-.55,.13-.91,.65-.68,1.24,.15,.37,.55,.9,.83,.9,.58,0,.86-.53,.83-1.31Zm-64.75,.13c-.09-.54-.37-1.07-.97-.95-.53,.11-.8,.69-.75,1.26,.04,.48,.37,.94,.82,.89,.55-.07,.85-.58,.9-1.2Zm11.13,46.24c-.78,.51-1.55,.99-1.24,2.07,.03,.11,.53,.24,.71,.14,.94-.5,1.19-1.23,.53-2.22Zm40.57-.04c-.25,1.16-.23,1.98,.92,2.28,.16,.04,.58-.21,.58-.34,.03-.98-.52-1.53-1.5-1.94Zm2.17-41.63c-.11-.25-.01-.77-.58-.61-.52,.15-.63,.62-.6,1.08,.03,.29,.02,.8,.59,.64,.53-.15,.63-.58,.59-1.1Zm22.37,160.97c-.13-.4-.41-.56-.78-.41-.4,.16-.83,.38-.8,.88,.03,.46,.42,.48,.77,.36,.4-.13,.84-.27,.82-.84Zm-89.02-.47c-.12,.13-.41,.29-.43,.49-.07,.59,.43,.73,.87,.82,.37,.08,.8,0,.65-.52-.12-.44-.49-.73-1.09-.79Zm22.46-161.14c-.49-.09-.47,.36-.52,.68-.07,.48,.04,.91,.58,1.06,.57,.17,.57-.34,.6-.63,.04-.45-.07-.9-.65-1.11Zm61.83-81.57c.63-.91,.46-1.63,.07-2.42-.51,.74-.56,1.44-.07,2.42Zm-80.01-2.41c-.45,.81-.68,1.53,.03,2.31,.54-.79,.39-1.5-.03-2.31Zm26.5,739.7c-.05,.4,.12,.68,.5,.81,.38,.13,.51-.2,.51-.41,0-.33-.07-.84-.27-.93-.31-.14-.66,.11-.74,.53Zm26.4-.57c-.46,.11-.45,.47-.43,.82,.02,.43,.26,.69,.67,.52,.19-.08,.4-.42,.4-.63,0-.34-.17-.7-.63-.7Zm-31.43,16.28c-.22-.15-.51-.49-.74-.45-.56,.08-.48,.62-.42,1.01,.03,.19,.29,.5,.41,.48,.47-.08,.67-.46,.76-1.04Zm38.32,.35c-.14-.45-.12-.94-.6-.79-.25,.07-.56,.44-.58,.69-.03,.46,.33,.82,.79,.81,.15,0,.29-.52,.39-.71ZM121.15,98.82c-.19-.26-.31-.6-.49-.63-.18-.03-.55,.21-.59,.39-.08,.38,.17,.71,.56,.75,.14,.01,.32-.3,.51-.51Zm3.55,268.13c-.07-.44-.45-.46-.79-.44-.24,.01-.63,.12-.67,.26-.11,.46,.29,.51,.62,.56,.33,.05,.69,.11,.83-.37Zm80.1-.28c-.31-.05-.63-.15-.95-.15-.38,0-.7,.2-.5,.63,.06,.14,.44,.19,.67,.18,.34,0,.71-.05,.78-.65Zm2.67-268.65c-.24,.26-.5,.42-.53,.61-.03,.22,.08,.64,.23,.69,.41,.14,.66-.21,.7-.56,.02-.19-.21-.41-.4-.74Zm-102.11,209.91c.3,.12,.5,.23,.71,.26,.04,0,.18-.26,.19-.41,0-.25-.09-.53-.41-.42-.17,.06-.28,.31-.49,.57Zm116.71,.51c.19-.36,.34-.53,.37-.73,.02-.1-.22-.36-.25-.34-.18,.09-.44,.2-.47,.35-.03,.15,.16,.36,.35,.72Zm-75.29,479.44l-.58-.45c-.09,.23-.28,.47-.25,.69,.02,.17,.29,.31,.46,.46l.38-.7Zm35.37,.27l-.38-.72c-.16,.16-.43,.3-.45,.47-.03,.21,.16,.45,.25,.68l.58-.43ZM117.66,121.89c-.18-.16-.34-.39-.55-.45-.23-.06-.56,.04-.32,.4,.13,.2,.38,.32,.58,.48l.29-.43Zm93.11,.42c.16-.2,.42-.39,.44-.6,.02-.29-.29-.4-.5-.23-.18,.14-.25,.41-.36,.62l.43,.21Zm-88.38,164.09l-.43,.19c.07,.14,.1,.36,.21,.41,.1,.04,.27-.1,.42-.16l-.2-.44Zm83.62,.43l-.18-.44c-.14,.07-.36,.1-.4,.21-.04,.1,.09,.28,.15,.42l.43-.2Zm-44.28,522.89c.04-.28,.11-.51,.08-.73,0-.08-.24-.13-.37-.19-.07,.23-.16,.45-.18,.68,0,.06,.24,.13,.46,.25Zm4.89,0c.04-.27,.11-.51,.09-.73,0-.07-.24-.13-.37-.19-.07,.23-.16,.45-.19,.68,0,.05,.24,.13,.46,.24Zm-7.32,13.59c-.09,.14-.24,.28-.23,.41,0,.13,.16,.26,.25,.39,.11-.18,.24-.35,.3-.54,.01-.04-.21-.16-.33-.25Zm9.64,.35l-.3-.38c-.11,.12-.32,.28-.3,.34,.07,.17,.24,.3,.37,.44l.23-.41ZM123.87,42.99h.18l-.08-.18-.1,.18Zm-2.57,322.58c-.11,.09-.22,.17-.3,.27-.01,.02,.09,.19,.12,.18,.14-.02,.27-.09,.41-.14l-.23-.31Zm85.64,.16l-.39-.12c-.01,.13-.04,.26-.03,.38,0,.02,.17,.08,.2,.05,.09-.08,.14-.2,.22-.31Zm-70.46,241.59l-.1,.18h.18l-.07-.18Zm55.11,.08h-.17l.08,.18,.09-.18Zm19.98-482.37c.08-.03,.19-.03,.22-.08,.03-.06,0-.16-.02-.24l-.34,.14,.14,.19Zm-95.03-.22c-.05-.06-.1-.17-.16-.17-.06,0-.13,.08-.2,.12l.26,.26,.1-.21Zm72.41-4.95c-.05-.06-.09-.17-.15-.18-.06,0-.13,.08-.19,.13l.25,.26,.1-.21Zm-49.58,0c-.05-.06-.09-.16-.15-.17-.06-.01-.13,.07-.2,.1l.26,.27,.09-.21Zm-25.3-1.3l.07,.15,.07-.15h-.15Zm71.68-4.42l-.25-.37c-.08,.12-.23,.24-.23,.36,0,.13,.14,.26,.22,.39l.26-.38Zm-43.02-.08l-.31-.23c-.06,.13-.17,.27-.16,.4,0,.09,.18,.17,.28,.25,.06-.14,.13-.27,.19-.42Zm48.24-8.6c.07-.12,.15-.24,.19-.37,.01-.04-.12-.16-.14-.16-.11,.06-.2,.15-.3,.22,.08,.1,.16,.2,.25,.3Zm-54.01-.56c-.05,.15-.12,.29-.14,.43,0,.03,.17,.14,.18,.12,.1-.08,.23-.19,.24-.3,0-.07-.17-.16-.28-.25Zm10.64,674.77l-.22-.37c-.07,.05-.19,.1-.18,.14,0,.14,.06,.27,.09,.41,.11-.06,.21-.12,.32-.18Zm33.24-.03c-.09-.11-.17-.22-.27-.3-.02-.01-.19,.09-.18,.12,.03,.14,.09,.27,.14,.41l.31-.23ZM200.74,97.82c-.07,.06-.21,.14-.2,.16,.05,.15,.14,.28,.22,.41,.07-.14,.14-.28,.18-.43,0-.03-.13-.1-.21-.15Zm-73.3,.42l-.24-.41c-.07,.06-.2,.14-.19,.17,.06,.14,.15,.27,.23,.41,.07-.05,.14-.11,.21-.16Zm72.66-8l-.09,.41c.13,0,.26,.01,.39,0,.02,0,.05-.17,.02-.2-.08-.08-.2-.13-.32-.2Zm-72.45,.01l-.1,.39c.13,0,.26,.01,.39,0,.02,0,.06-.17,.03-.2-.09-.08-.2-.12-.32-.19Zm18.3,700.64l-.22-.15c-.08,.13-.17,.26-.22,.41,0,.02,.13,.1,.2,.15,.08-.13,.16-.27,.24-.41Zm36.52,0l-.22-.15c-.08,.13-.17,.26-.23,.4,0,.02,.13,.1,.2,.16,.08-.14,.16-.27,.24-.41Zm-37.74,14.86h-.17l.08,.17,.09-.17Zm38.56,.15l.12-.15-.17-.05,.05,.19Zm-39.21,1.65l.1-.12-.14-.04,.04,.16Zm39.86-.12h-.14l.06,.14,.08-.14ZM108.22,340.82c.07-.16,.19-.31,.18-.45,0-.09-.2-.17-.31-.26-.06,.15-.18,.3-.17,.44,0,.1,.19,.18,.31,.27Zm34.8,470.72c-.1,.15-.26,.28-.26,.42,0,.14,.15,.28,.24,.43,.09-.14,.25-.27,.26-.41,0-.14-.15-.28-.24-.44Zm42.19,.33l-.34-.26c-.06,.15-.18,.3-.17,.45,0,.1,.2,.18,.31,.27,.07-.15,.13-.3,.2-.46Zm-25.29,6.19c.06-.15,.13-.28,.17-.42,0-.03-.14-.15-.16-.14-.11,.07-.28,.18-.27,.24,.02,.11,.16,.21,.25,.31Zm8.19-.01c.06-.15,.13-.28,.17-.41,0-.03-.14-.15-.16-.13-.1,.07-.28,.18-.27,.24,.02,.11,.16,.2,.25,.31Zm51.75-477.22c.07-.16,.19-.31,.17-.45,0-.09-.2-.17-.31-.26-.06,.15-.18,.3-.17,.44,0,.1,.19,.18,.31,.27ZM198.06,49.43c-.08,.04-.22,.09-.22,.11,.04,.14,.1,.28,.16,.42,.07-.04,.22-.09,.21-.12-.03-.14-.1-.28-.15-.41Zm-67.9,.13l-.21-.14c-.07,.13-.15,.26-.2,.4,0,.02,.13,.1,.19,.15,.07-.13,.15-.27,.22-.4Zm73.95-6.67l-.17-.03,.06,.19,.11-.16Z"/><path d="M155.63,318.8c-.3,2.3,.35,4.42,.71,6.53,.63,3.69,4.36,6.33,8.15,6.11,3.63-.2,6.77-3.16,7.28-6.83,.93-6.71,1.15-13.49,2.16-20.2,2.01-13.4,5.37-26.37,11.73-38.43,.34-.65,.56-1.91,1.61-1.37,1.1,.56,.12,1.4-.2,2.06-5.35,10.8-8.33,22.3-10.21,34.15-1.22,7.7-1.33,15.5-2.11,23.24-.58,5.73-5.37,10.7-10.72,10.75-5.29,.05-10.34-4.98-10.77-10.67-1.04-13.8-1.88-27.62-5.98-40.98-1.75-5.71-3.75-11.32-6.49-16.64-.31-.6-1.06-1.41-.17-1.89,1.07-.57,1.3,.63,1.65,1.28,4.37,8.08,7.23,16.72,9.36,25.63,2.15,9,3.22,18.15,4,27.26Z"/><path d="M129.79,269.26c.68-5.26,2.17-10.29,3.45-15.37,.17-.67,.56-1.52,1.49-1.19,.9,.32,.69,1.11,.42,1.85-1.8,4.85-2.77,9.92-3.92,14.94-.14,.59,.25,1.8-.89,1.62-.95-.15-.38-1.23-.55-1.84Z"/><path d="M198.18,269.38c-.14,.6,.3,1.53-.49,1.69-1.2,.24-.81-.94-.95-1.52-1.15-5.02-2.12-10.09-3.91-14.94-.26-.72-.55-1.49,.32-1.89,.95-.43,1.36,.43,1.53,1.08,1.33,5.16,2.84,10.28,3.5,15.57Z"/><path d="M128.76,333.11c.67,.07,.67,.55,.74,.99,.78,5.33,1.43,10.68,3.05,15.85,.18,.57,.2,1.11-.45,1.36-.65,.25-.99-.11-1.18-.71-1.71-5.35-2.52-10.85-2.71-16.45-.02-.45,.03-.91,.54-1.04Z"/><path d="M199.87,335.53c-.69,4.86-1.06,9.71-2.59,14.36-.21,.65-.19,1.91-1.46,1.38-.98-.41-.34-1.2-.16-1.86,1.26-4.6,1.87-9.33,2.75-14.01,.14-.76-.51-2.25,.79-2.15,1.14,.09,.22,1.55,.67,2.28Z"/><path d="M129.35,276.56c-.57-.09-.65-.5-.61-.98,.05-.57,.21-1.11,.92-.97,.55,.11,.55,.59,.44,1.06-.1,.43-.12,.91-.75,.89Z"/><path d="M199.23,275.6c.03,.48-.07,.93-.64,.94-.78,.02-.66-.69-.77-1.15-.09-.37,.09-.74,.51-.79,.73-.09,.85,.44,.9,1Z"/><path d="M145.95,673.12c.06-.14-.34-1.15,.55-1.13,1.46,.03,.89,1.31,.95,2.09,.8,10.25,1.65,20.49,3.8,30.57,.28,1.31,.83,2.57,1.35,3.82,.37,.88,.41,1.68-.57,2.01-.84,.28-1.21-.39-1.55-1.12-1.38-2.99-2.07-6.22-2.39-9.4-.88-8.8-2.01-17.58-2.15-26.83Z"/><path d="M182.11,673.65c-.89,11-1.06,21.86-3.57,32.45-.27,1.13-.75,2.21-1.11,3.32-.26,.79-.74,1.34-1.59,1.02-.83-.31-.9-1.07-.56-1.82,2.16-4.68,2.64-9.7,3.17-14.73,.71-6.63,1.85-13.22,2.05-19.91,.02-.73-.39-1.94,.77-2,1.33-.07,.5,1.25,.83,1.65Z"/><path d="M190.82,232.88c.2-2.61,.4-5.22,.6-7.83,.05-.7,.29-1.33,1.1-1.26,.69,.06,.75,.72,.7,1.27-.36,3.6-.74,7.19-1.14,10.79-.06,.5-.41,.87-.92,.79-.54-.08-.65-.62-.61-1.07,.09-.9,.26-1.79,.39-2.68l-.11-.02Z"/><path d="M134.78,225.57c.14-.52-.46-1.73,.8-1.75,1.14-.01,.93,1.11,.99,1.89,.23,3.06,.45,6.12,.72,9.18,.06,.71,.47,1.59-.6,1.7-.86,.09-.79-.8-.86-1.42-.34-3.14-.69-6.29-1.05-9.6Z"/><path d="M156.42,195.8c-1.02,2.14-1.85,4.35-3.42,6.13-.46,.52-1.23,.13-.94-.56,.88-2.06,1.94-4.05,2.99-6.03,.1-.19,.64-.23,.96-.19,.15,.02,.26,.39,.41,.66Z"/><path d="M172.41,194.97c.23,.19,.58,.36,.73,.64,.93,1.75,1.83,3.52,2.69,5.3,.18,.38,.35,.95-.24,1.14-.25,.08-.78-.12-.91-.34-1.04-1.89-2.04-3.81-3-5.74-.24-.49,.07-.83,.73-.99Z"/><path d="M192.73,219.66c.25,.02,.44,.27,.44,.67,0,.42-.22,.66-.64,.65-.42,0-.63-.27-.62-.68,.02-.39,.2-.66,.81-.64Z"/><path d="M136.04,220.33c0,.41-.23,.65-.64,.65-.41,0-.62-.24-.62-.66,0-.41,.22-.66,.63-.66,.43,0,.6,.27,.63,.67Z"/><path d="M157.02,192.07l.66,.51c-.14,.19-.27,.5-.44,.53-.18,.03-.53-.17-.58-.34-.05-.16,.2-.4,.36-.7Z"/><path d="M170.82,192.05c.22,.26,.49,.44,.49,.62,0,.16-.31,.45-.48,.44-.18,0-.48-.27-.5-.45-.02-.17,.27-.36,.49-.62Z"/><path d="M150.56,205.12c-.08,.07-.27,.29-.33,.26-.2-.11-.35-.3-.52-.46,.11-.12,.22-.33,.35-.35,.3-.05,.5,.13,.51,.55Z"/><path d="M177.78,204.56l.43,.18c-.1,.21-.17,.44-.31,.62-.03,.04-.38-.07-.43-.18-.13-.27-.03-.52,.32-.62Z"/><path d="M143.66,615.14c-.54,5.82,.59,10.72,2.46,15.5,.29,.75,.71,1.68-.49,1.97-.88,.21-1.23-.6-1.49-1.28-2.44-6.41-2.71-13.08-2.17-19.8,.08-1.04-.02-3.07,1.12-2.98,1.61,.13,.38,1.89,.53,2.91,.21,1.42,.05,2.89,.05,3.68Z"/><path d="M184.24,615.69c0-1.99,.01-3.99,0-5.98,0-.52-.29-1.21,.47-1.32,.69-.1,.81,.53,.9,1.11,.83,5.22,.94,10.46-.05,15.66-.39,2.03-1.1,4-1.69,6-.24,.8-.6,1.73-1.62,1.42-1.14-.35-.64-1.28-.35-2.03,1.84-4.78,2.95-9.69,2.35-14.85Z"/><path d="M142.55,571.25c-.09,.67,.33,1.98-.91,2.04-1.38,.07-.88-1.31-.99-2.1-1.17-7.89-.97-15.85-1.07-23.79,0-.53-.03-1.22,.76-1.11,.74,.1,.56,.82,.59,1.32,.37,5.94,.72,11.88,1.1,17.82,.12,1.89,.33,3.77,.52,5.82Z"/><path d="M188.37,554.41c0,5.69-.32,11.36-1.08,17-.1,.76,.23,1.95-.92,1.9-1.26-.06-1.05-1.34-.95-2.17,.78-6.27,.97-12.59,1.39-18.88,.1-1.53,.12-3.06,.22-4.59,.04-.57-.21-1.46,.79-1.36,.73,.07,.54,.8,.54,1.32,0,2.26,0,4.52,0,6.78Z"/><path d="M193.93,455.41c-1.22,6.34-2.54,13.23-3.87,20.11-.15,.75-.08,1.91-1.28,1.62-1.06-.26-.74-1.35-.6-2.09,.64-3.35,1.45-6.67,2.03-10.04,.75-4.32,2.44-8.49,2.04-12.99-.04-.44,.17-.76,.56-.72,.29,.03,.76,.32,.8,.55,.16,.97,.19,1.96,.32,3.55Z"/><path d="M134.15,454.73c0-.63-.04-1.27,.01-1.9,.05-.61-.02-1.5,.83-1.48,1.41,.03,.46,1.06,.51,1.62,.45,5.15,1.97,10.1,2.95,15.15,.46,2.39,.95,4.78,1.36,7.18,.12,.67,.32,1.62-.62,1.85-1,.25-1.1-.61-1.24-1.36-1.34-7.01-2.7-14.01-4.05-21.01l.25-.05Z"/><path d="M138.04,497.13c.06-.55-.24-1.52,.8-1.6,.83-.07,.84,.77,.95,1.39,1.15,6.4,3.25,12.59,4.12,19.05,.2,1.5,.1,3.07,.73,4.54,.26,.6,.35,1.56-.67,1.76-1.03,.2-1.18-.72-1.29-1.39-.62-3.55-1.09-7.13-1.78-10.67-.85-4.34-1.87-8.65-2.84-13.08Z"/><path d="M189.96,497.47c-.69,2.79-1.56,5.74-2.14,8.75-.85,4.43-1.49,8.9-2.22,13.35-.07,.44-.15,.89-.3,1.31-.22,.65-.26,1.59-1.3,1.4-1.02-.19-.83-1.08-.71-1.77,1.21-7.03,2.4-14.06,4.37-20.93,.22-.78,.34-1.58,.48-2.38,.13-.69-.02-1.69,.97-1.67,1.04,.02,.74,1.03,.84,1.92Z"/><path d="M135.45,398.98c-.02,.27,.22,1.07-.62,1.24-.79,.15-1.09-.48-1.14-1.17-.26-3.13-.52-6.25-.72-9.39-.03-.55-.09-1.43,.85-1.37,.78,.05,.52,.8,.58,1.3,.35,3.02,.68,6.04,1.05,9.39Z"/><path d="M194.93,392.33c-.21,2.15-.43,4.38-.64,6.61-.06,.68-.25,1.32-1.06,1.28-.69-.04-.8-.65-.74-1.21,.35-3.38,.73-6.76,1.1-10.13,.05-.42,.31-.64,.71-.61,.45,.03,.6,.41,.61,.76,.03,1.07,.01,2.15,.01,3.3Z"/><path d="M132,367.67c.1-.66-.44-1.74,.48-1.88,1.31-.2,.77,1.12,.94,1.76,.39,1.47,.67,2.97,.91,4.46,.1,.58,.25,1.39-.69,1.45-.78,.04-.99-.58-1.07-1.28-.16-1.51-.38-3.01-.57-4.52Z"/><path d="M195.96,367.64c-.21,1.65-.4,3.24-.61,4.84-.08,.62-.45,1.02-1.06,.98-.74-.05-.77-.68-.68-1.22,.27-1.58,.56-3.17,.93-4.73,.15-.62-.26-1.78,.72-1.75,1.26,.04,.54,1.24,.7,1.88Z"/><path d="M148.52,720.21c.35,.32,.69,.59,.97,.91,1.62,1.8,3.22,3.61,4.82,5.43,.42,.48,.92,1,.29,1.61-.38,.37-.87,.14-1.19-.21-1.81-1.98-3.88-3.75-5.21-6.13-.32-.57-.59-1.11,.32-1.61Z"/><path d="M179.59,720.36c.81,.28,.52,.81,.26,1.29-1.34,2.49-3.47,4.33-5.36,6.35-.32,.34-.77,.5-1.18,.11-.29-.28-.34-.68-.08-.98,1.94-2.23,3.9-4.44,5.86-6.64,.1-.11,.33-.09,.5-.13Z"/><path d="M135.79,414.59c.11-.59,.04-1.63,.57-1.34,1.66,.89,1.09,2.92,1.75,4.37,.2,.44-.34,1.04-.71,.84-1.58-.85-1.15-2.6-1.61-3.87Z"/><path d="M192.17,414.58c-.35,1.28-.23,2.8-1.37,3.85-.1,.1-.86-.27-.85-.33,.29-1.55,.62-3.08,1-4.61,.04-.15,.44-.33,.64-.29,.77,.15,.47,.82,.59,1.38Z"/><path d="M192.21,430.65c.62,.03,.98,.38,.87,.86-.41,1.82-.88,3.63-1.4,5.42-.06,.22-.57,.44-.86,.42-.41-.03-.55-.48-.48-.83,.41-1.82,.85-3.63,1.32-5.44,.05-.19,.39-.31,.56-.43Z"/><path d="M137.63,436.09c-.01,.51,.17,1.18-.59,1.28-.68,.09-.89-.5-1.02-1.03-.34-1.38-.63-2.78-.99-4.16-.17-.65-.37-1.33,.49-1.51,.64-.13,.89,.45,1.02,1,.36,1.47,.72,2.94,1.08,4.41Z"/><path d="M184.85,187.24c-.2,1.9-.94,2.87-2.37,3.21-.15,.04-.58-.35-.56-.46,.35-1.39,1.37-2.09,2.93-2.75Z"/><path d="M181.12,192.81c-.04,.41-.27,.69-.66,.71-.43,.02-.67-.28-.59-.68,.04-.21,.28-.48,.49-.54,.39-.12,.68,.09,.76,.51Z"/><path d="M143.07,187.73c.24-.14,.32-.23,.39-.22,1.35,.24,2.04,1.24,2.6,2.33,.15,.29-.32,.72-.67,.63-1.43-.37-2.03-1.44-2.32-2.74Z"/><path d="M147.43,192.26c.41,.03,.69,.24,.68,.66,0,.41-.27,.7-.69,.59-.22-.06-.48-.3-.55-.52-.13-.42,.14-.66,.55-.73Z"/></g></g></svg>