<svg xmlns="http://www.w3.org/2000/svg" viewBox="0 0 21.23 107.58"><title>Nanomia</title><g id="Layer_2" data-name="Layer 2"><g id="Nanomia"><path d="M11.92,70.37c.11.54-.21.86-.66,1.15,1.53-.13,2.11,1.1,3,1.93.14.13,0,.3-.19.32a1,1,0,0,1-1-.63,1.38,1.38,0,0,0-1.31-.84l-.06,0h.08c.05,1,.17,1.79,1.38,2,1,.17,1.44,1,1.92,1.82a.33.33,0,0,1-.06.43c-.22.18-.38,0-.5-.13-.25-.3-.45-.65-.71-.94a1.69,1.69,0,0,0-1.26-.64A1.44,1.44,0,0,0,13.24,76a2.56,2.56,0,0,1,1.23,1.52c.34,1,.72,1.93,1.07,2.89a2.84,2.84,0,0,1,.19.56c.1.49-.65.44-.59.93,0,.34.25.7.07,1a.33.33,0,0,1-.59,0,3.65,3.65,0,0,1-.34-.75c-.22-.44-.26-1-.72-1.29a.37.37,0,0,0-.1-.4s-.07,0-.08.06,0,.29.2.32a5.1,5.1,0,0,0,.79,2.33.25.25,0,0,1,0,.4c-.14.14-.25.1-.4,0a2.14,2.14,0,0,1-.74-1.32,1.3,1.3,0,0,0,.86,1.83c.7.3,1.1,1,1.81,1.32.07,0,.11.22.08.31a.27.27,0,0,1-.38.17,7.72,7.72,0,0,1-.94-.51c-.2-.13-.35-.33-.55-.47s-.57-.65-1-.3-.19.7.25,1.13a7.3,7.3,0,0,0,.77.57,3.79,3.79,0,0,1,1.39,2.67.42.42,0,0,1-.26.52c-.64-.45-.46-1.28-.81-1.87a6.25,6.25,0,0,0-1.64-1.5c-.2.4-.26.69.11.94a2.06,2.06,0,0,1,1,1.67,1.38,1.38,0,0,0,.69,1.07.29.29,0,0,1,.07.5c-.2.21-.37,0-.52-.08a1.89,1.89,0,0,1-.84-1.38,1.22,1.22,0,0,0-.59-1.1c-.15-.08-.29-.12-.4,0s0,.2,0,.31c1.18,1.68,1.33,3.69,1.72,5.62.06.31.12.61.2.92s-.13.67-.42.54c-.86-.37-.45.21-.39.48s.2.25.28.38a.22.22,0,0,1-.07.31.31.31,0,0,1-.33.07,1.42,1.42,0,0,1-.79-1,1.38,1.38,0,0,0-1.47-1.09c0,.83,0,1.54,1,2a3,3,0,0,1,1.48,1.32c.19.4.78.35,1.06.81a1.15,1.15,0,0,1-1.59-.4,3.9,3.9,0,0,0-1.47-1.28c-.16.52-.07.89.46,1.11a3,3,0,0,1,1.77,2,1.93,1.93,0,0,0,1.23,1.2c.12,0,.31.18.19.37a.34.34,0,0,1-.4.15,2.05,2.05,0,0,1-1.52-1.22,3.14,3.14,0,0,0-1.34-1.77c.32,1.18.46,2.28,1.56,2.87.72.39,1.14,1.22,2,1.36.2,0,.36.29.53.46s.23.34,0,.51-.29,0-.41-.07a7.4,7.4,0,0,0-2.09-1,.41.41,0,0,0-.22-.48l-.05,0,.07,0c.05.17-.07.42.22.48a3.3,3.3,0,0,0,.72,1.58,3.63,3.63,0,0,1,.74,2.81c0,.27-.12.48-.45.4s-.2-.27-.14-.47a2,2,0,0,0-.33-1.71,29.46,29.46,0,0,1-2.35-4.74,3.63,3.63,0,0,0,.13,3.48,2.59,2.59,0,0,1,.49,1.69c0,.21-.06.4-.45.48a12.93,12.93,0,0,0-1.19-3,2.52,2.52,0,0,1,0-1.65c.13-.5.25-1,.37-1.5-.84-.28-1.11,1.08-2.08.59.48-.5.78-1.08,1.38-1.33a.75.75,0,0,0,.41-1.08A7.6,7.6,0,0,1,10.38,96a1.11,1.11,0,0,0-.88,1.06,15.66,15.66,0,0,1-.25,1.65.23.23,0,0,1-.23.21.2.2,0,0,1-.24-.21c0-1-.2-2.18.65-2.92a2.35,2.35,0,0,0,.69-2.48c-.7,1-1.66,1.59-2.26,2.53-.1.16-.22.26-.38.2s-.16-.25-.16-.42a1.24,1.24,0,0,1,.51-.9c.48-.48,1-.95,1.43-1.44.84-.89.84-.89,1.11-2.48-.59.2-1.19.2-1.37.93a1.55,1.55,0,0,1-.31.5c-.13.15-.28.32-.5.14s-.11-.26,0-.42a2.59,2.59,0,0,1,1.5-1.67,2.07,2.07,0,0,0,1.14-2.36c-.44.21-.87.41-1.29.63-.2.1-.29,0-.39-.14s0-.22.05-.31a4.66,4.66,0,0,1,1.65-1.35c.73-.25.81-.75.78-1.45-.8.3-1.46.6-1.66,1.46a.7.7,0,0,1-.19.3.3.3,0,0,1-.42.08.29.29,0,0,1-.14-.4c.28-.6.44-1.29,1.17-1.57.26-.1.48-.33.74-.39.71-.17.88-.67.91-1.37a1.75,1.75,0,0,0-1.66.93,3.2,3.2,0,0,1-1.9,1.34A.31.31,0,0,1,8,85.48a.3.3,0,0,1,.18-.39c1-.17,1.51-.94,2.08-1.66a1.87,1.87,0,0,1,1.25-.61c.44-.07.45-.41.37-.74a.49.49,0,0,0-.67-.33c-.49.17-.94.43-1.43.6-.24.08-.55.55-.77,0s.28-.51.53-.64a3.44,3.44,0,0,1,2-.59c.09,0,.2-.08.4-.17-.42-.39-.87-.2-1.25-.26-.2,0-.42,0-.47-.27s.06-.44.35-.51.44-.17.67-.21c.57-.11.41-.47.33-.82a6.45,6.45,0,0,1-1.82.86c-.34.06-.42.34-.59.55a.34.34,0,0,1-.51.09c-.17-.12-.11-.29-.05-.43a1.52,1.52,0,0,1,.79-.86l.34-.1c1.71-.52,1.75-.58,1.63-2.5l-.91.45a.43.43,0,0,1-.54-.08.51.51,0,0,1-.11-.65.66.66,0,0,1,.15-.19,2,2,0,0,0,.34-2.82c-.36.07-.27.41-.27.65a1.68,1.68,0,0,1-.28.9.39.39,0,0,1-.52.14c-.25-.12-.16-.31-.05-.49.56-.89.17-2,.53-2.89.05-.13-.15-.35-.26-.6L7.26,73.05a5,5,0,0,1,1.32-3.81c.47-.45.54-.85.08-1.32-.56.1-.52.63-.73,1-.1.18-.25.34-.47.23a.34.34,0,0,1-.12-.43c.2-.55.29-1.2.94-1.44.45-.16.48-.47.47-.85V64.59C7.39,65,7,66,6.74,67.36a1.26,1.26,0,0,1-.25-1.57,2.14,2.14,0,0,1,1-1.27,2.7,2.7,0,0,0,1.46-2c0-.27.3-.48.17-.85a2.61,2.61,0,0,0-1.4,1.11c-.13.17-.31.29-.51.17s-.1-.33,0-.52a2.64,2.64,0,0,1,1.26-1.21,2,2,0,0,0,1.22-2.08l.08,0,0,0-.1.1c-.45.23-.76.67-1.31.8a.94.94,0,0,1-.88-.14c-.31-.24-.25-.55-.11-.86A3.28,3.28,0,0,1,9.2,56.79a2.18,2.18,0,0,0,.64-.49c.19-.17.41-.26.32-.55s-.39-.19-.61-.2c-.41,0-.84,0-1-.47A1,1,0,0,1,8.92,54a8.31,8.31,0,0,0,1.13-1.38.35.35,0,0,0,0-.52c-.17-.17-.35-.2-.49,0-.46.63-1.37.67-1.77,1.39-.08.16-.28.14-.43.06s-.11-.29,0-.42a2.36,2.36,0,0,1,1.12-1c.92-.45,1-.74.56-1.91-1.32,1.23-2.94,1-4.52,1H3.72c-.5,0-1,.27-1.48-.15a3.14,3.14,0,0,1-1.15-1.9,4.17,4.17,0,0,1,.11-2.47,1.78,1.78,0,0,0,.05-1.3A4.23,4.23,0,0,1,1.73,42,3.54,3.54,0,0,1,.78,37.4a3,3,0,0,0,.27-1A5.51,5.51,0,0,1,2,33.09,2.29,2.29,0,0,1,.35,31.4C0,30.33-.31,29.29.5,28.23a2.63,2.63,0,0,0,.34-1.61A5,5,0,0,1,1,25a11,11,0,0,0,.09-2.74,2.85,2.85,0,0,1,0-1.87,7,7,0,0,0,.25-2,5.49,5.49,0,0,1,1.55-3.53c.12-.14.38-.21.3-.46-.38-1,.23-1.92.51-2.85a8.14,8.14,0,0,1,.72-1.76c.55-.94.81-1.06,1.91-.88A2.83,2.83,0,0,0,8,8.76a4.3,4.3,0,0,1,1.54-.38A8.51,8.51,0,0,1,8.11,4,4.52,4.52,0,0,1,9.39.56a2.35,2.35,0,0,1,3.46.49,4.82,4.82,0,0,1,.84,3.49,8.74,8.74,0,0,1-1.44,4,2.67,2.67,0,0,0-.31,2,4.3,4.3,0,0,1,3-.36,2.22,2.22,0,0,1,1.63,1.06c.35.59.61,1.21.92,1.81s.45,1.25,1.11,1.64A1.11,1.11,0,0,1,19,15.89c-.17.79-.57,1.48-.78,2.26a4.75,4.75,0,0,1,2.13,4.39,6.15,6.15,0,0,0,0,1,4.9,4.9,0,0,1-1.19,4,5.82,5.82,0,0,1,1.68,4.35,2,2,0,0,0,.3,1.36c.21.24.11.51,0,.79a3.71,3.71,0,0,1-1.4,1.88c-.33.24-.5.46-.16.87a4.85,4.85,0,0,1,1,3.47,2.14,2.14,0,0,0,.22,1.16,3.06,3.06,0,0,1,0,3,8.56,8.56,0,0,1-1.46,2.47,2.49,2.49,0,0,1,1,2.32c0,1.06-.23,2.16.4,3.16a.94.94,0,0,1,0,.7,4.87,4.87,0,0,1-1.16,2.18c-.32.31-.73.81-1,.71-.6-.19-1.24.14-1.77-.24a4.47,4.47,0,0,0-3.12-.53c-.11.73.44,1,.85,1.34.21.17.37.33.18.58s-.35,0-.52-.05A1.91,1.91,0,0,1,13,55.67a1.79,1.79,0,0,0-1.21-1.31c-.25.35-.11.6.14.84a3.35,3.35,0,0,1,.87,1.41c.24.74,0,1.11-.69,1.33s-1,.71-.33,1.37a4,4,0,0,1,1.09,1.39c0,.16.16.29.19.44a.35.35,0,0,1-.25.47c-.2.07-.3-.1-.35-.23A3.34,3.34,0,0,0,11.63,60c-.16-.13-.3-.44-.56-.13s-.09.36.07.53c.47.48.94,1,.76,1.74-.43.09-.46-.25-.6-.46s-.22-.43-.52-.54a1.09,1.09,0,0,0,.61,1.46,2.23,2.23,0,0,1,1.41,1.79,12,12,0,0,0,.62,2c.08.2.15.36-.09.48s-.37-.07-.48-.23a4.76,4.76,0,0,1-.67-1.9A1.91,1.91,0,0,0,10.68,63c-.58.84-.59.85.17,1.42a3.24,3.24,0,0,1,1,1.47.63.63,0,0,1-.11.67c-.17.23-.36.31-.59.07s-.33-.73-.9-.94a8.77,8.77,0,0,1,0,1.26A1,1,0,0,0,11,68.16a1.76,1.76,0,0,1,1.16,1.11c.07.18.17.35.26.53s.53.4.31.69-.56,0-.84-.1c-.27-.67-.36-1.49-1.43-1.67A2.8,2.8,0,0,0,11.92,70.37ZM8.29,23.09a.26.26,0,0,0,.24-.23,2.31,2.31,0,0,0,1.66-2.56,15.47,15.47,0,0,1,0-1.67c0-.24,0-.56-.11-.69-.67-.67-.6-1.54-.6-2.58a5.26,5.26,0,0,1-1.77,1.36c1.39,1.82,2.18,3.65.9,5.81-.05.09,0,.24,0,.36-.16,0-.23.06-.26.21s0,.08-.07,0Zm.23-7.93a.29.29,0,0,0,.1,0s0,0,0-.06l-.1.12c-.13,0-.27.05-.25.25a5.33,5.33,0,0,0-2.17.64c.92,0,1.66.06,2.15-.66C8.45,15.41,8.5,15.3,8.52,15.16Zm4.57,29.32a.31.31,0,0,0-.26-.25,4.52,4.52,0,0,0-.36-1.49c-.56-2.51,0-4.21,2.48-5a3.25,3.25,0,0,1,4.42,2.94c.1.84.12,1.77,1,2.28.26-.44,0-.79-.15-1.14a4.83,4.83,0,0,1-.45-2.2,3.59,3.59,0,0,0-1.63-3.25.9.9,0,0,0-.6-.26c-1.31,0-2.64-.2-3.9.34a1.61,1.61,0,0,1-.76,1.84,3.25,3.25,0,0,0-1.25,3.23,1.09,1.09,0,0,1,0,.36,2.06,2.06,0,0,0,1.19,2.35.29.29,0,0,0,.26.24.71.71,0,0,0,.05.22c.08.14-.1.14,0,.06S13.11,44.58,13.09,44.48Zm-.23,8.61a.27.27,0,0,0,.26.24c.25,1.11.25,1.11,1.24,1.13l-1.27-1.1c0-.14-.09-.25-.26-.24-.05-.18.06-.42-.22-.5a1.3,1.3,0,0,0-.32-.87c-.68-1.24-.35-2.47,0-3.71a1.75,1.75,0,0,1,.7-.93c2.25-1.73,5.7-.26,5.69,2.45a2.11,2.11,0,0,0,.87,1.82c0-.43.05-.78.05-1.12,0-2.57.4-2.42-2.25-3.83a6.62,6.62,0,0,0-.78-.3,3.64,3.64,0,0,0-3.4.41c-1.49,1-1.47,1-1.47,2.91,0,.64,0,1.28,0,1.91a1.06,1.06,0,0,0,.95,1.26C12.55,52.85,12.7,53,12.86,53.09ZM8.33,24.27c-.07.22,0,.28.24.24a.49.49,0,0,0,.08.45,4.7,4.7,0,0,1,.66,2.62,7,7,0,0,1-.52,3.05,1.79,1.79,0,0,0,1.4-2.17,5.3,5.3,0,0,1,0-1.32,2,2,0,0,0-.69-1.71c-.31-.31-.64-.59-1-.89l-.24-.25c-.07-.14-.17-.21-.33-.14s0,.09,0,.09A.35.35,0,0,0,8.33,24.27ZM11.88,75.7a1.87,1.87,0,0,0,0-.34c0-.06.1-.25-.11-.17,0,0,0,.14,0,.2a1.67,1.67,0,0,0,.18.28c.12.24-.07.53.11.78A.56.56,0,0,0,11.88,75.7Zm.49-21.89a.47.47,0,0,0,.06.09l.05,0-.14-.08c-.19-.52-.19-.52-.67-.76A1.29,1.29,0,0,0,12.37,53.81Zm6.45-18.27a2.06,2.06,0,0,0,1.57-2,4.94,4.94,0,0,0-1.55,2.05l0,.07ZM18.61,55A2.64,2.64,0,0,0,20,52.46,5.42,5.42,0,0,0,18.62,55l0,.05ZM5.67,42.3A5.27,5.27,0,0,0,3,42.14a1.28,1.28,0,0,0-1.12,1.34c0,1.14,0,2.28,0,3.53a1.88,1.88,0,0,0,.68-1.57,2.8,2.8,0,0,1,2.49-3c.23,0,.46-.13.68-.2.37.42.92.42,1.38.61a2.91,2.91,0,0,1,2,2.83c0,.44,0,.88,0,1.32a4.29,4.29,0,0,1-1.2,2.66c-.6.67-1.36.55-2.11.58a.83.83,0,0,0-.66.19,3,3,0,0,0,2,0,6.62,6.62,0,0,0,2.6-2,1.63,1.63,0,0,0,.54-1.26c0-1.2,0-2.4,0-3.59a1.47,1.47,0,0,0-1.79-1.5A10.48,10.48,0,0,1,5.67,42.3ZM5.41,16.63a.23.23,0,0,0,0-.1s-.07,0-.07,0,0,.11.13.09c-.09.13-.19.37-.27.37-1.34-.09-1.47.9-1.64,1.83a1.16,1.16,0,0,1-.48.91c-.81.37-.66.9-.42,1.53S3,22.4,3.14,23a5.63,5.63,0,0,1,3.69-.3,1,1,0,0,0,1.23-.53,4,4,0,0,0-.5-4.45A2.42,2.42,0,0,0,5.41,16.63ZM6.37,33c-2,0-2.69.88-3,1.94-.31.89-.09,2-.73,2.71-1,1.08.37,1.78.2,2.67a1.93,1.93,0,0,0,0,.24c-.06.53.28.62.67.56,1.14-.18,2.27-.36,3.39-.59A1.67,1.67,0,0,0,7.78,40c1.34-1.53,1.4-4.69-.19-6.14a.85.85,0,0,0-1-.28c-.52.18-.54.1-.29-.62a2.11,2.11,0,0,1,2.22,1,6.07,6.07,0,0,1,.14,5.88,3.17,3.17,0,0,1-1.88,1.38,6.86,6.86,0,0,0-1.48.32c.76.06,1.51.06,2.27.06a1.75,1.75,0,0,0,1.2-.44c.85-.73,1.63-1.47,1.38-2.79a8.18,8.18,0,0,1,0-2,3.76,3.76,0,0,0-.85-2.83C8.05,31.9,8.14,31.83,6.37,33Zm-3.72-.5a7.19,7.19,0,0,1,4.52-1.21.61.61,0,0,0,.69-.32,5.75,5.75,0,0,0,.85-3.78A3,3,0,0,0,7,24.52a4.56,4.56,0,0,0-1.86-.18,1.93,1.93,0,0,0-1.92,1.41A3.35,3.35,0,0,0,3,27a1.64,1.64,0,0,1-.83,1.49c-.25.17-.52.31-.78.46A6,6,0,0,1,2.65,32.46Zm17.07,10.9a3.14,3.14,0,0,1-.93-2.21,3.08,3.08,0,0,0-1.09-2.42,3,3,0,0,0-3.35,0,2.82,2.82,0,0,0-1.44,3,16.71,16.71,0,0,0,.45,1.72,2.2,2.2,0,0,0,2.28,1.7,2.2,2.2,0,0,1,1.45.42A1.42,1.42,0,0,0,18,46,5.09,5.09,0,0,1,19.72,43.36Zm-.39,8.78a2.64,2.64,0,0,1-1.2-1.93,7.75,7.75,0,0,1-.23-1,2.08,2.08,0,0,0-1.58-1.89,2.56,2.56,0,0,0-3.6,1.43,4.53,4.53,0,0,0,2.19,5.07c1,.44,2.05.6,2.78,1.67A11.77,11.77,0,0,1,19.33,52.14Zm.24-18.9a2.13,2.13,0,0,1-1-1.92,2.37,2.37,0,0,0-.14-.57,2.52,2.52,0,0,0-3.95-1.69,3.51,3.51,0,0,0-1.56,4.43c.43,1.16,1.81,2.21,2.8,2a9.39,9.39,0,0,1,1.9-.17.78.78,0,0,0,.73-.3C18.72,34.43,19.14,33.86,19.57,33.24Zm-.27-9.59a1.89,1.89,0,0,1-1.92-1.86,1.21,1.21,0,0,0-.09-.34,1.49,1.49,0,0,0-2.2-.89,4,4,0,0,0-2.28,3.26A3.3,3.3,0,0,0,14,27a3.37,3.37,0,0,0,3.55.67c.28-.1.52-.2.53-.55A7.67,7.67,0,0,1,19.3,23.65ZM3.6,50.22a3.32,3.32,0,0,1,2.14-.52A2.19,2.19,0,0,0,8.1,48.13a5.59,5.59,0,0,0,.27-1,2.85,2.85,0,0,0-2-3.8c-1.75-.59-2.69,0-3.08,1.8-.17.82-.05,1.77-.89,2.37A8.53,8.53,0,0,1,3.6,50.22Zm7.49-40A5.56,5.56,0,0,1,12,7.71a7,7,0,0,0,1.06-3.12,4.3,4.3,0,0,0-.81-3.27,1.78,1.78,0,0,0-2.44-.21,3.87,3.87,0,0,0-1,2.24,7,7,0,0,0,.94,4.11C10.26,8.35,10.63,9.29,11.09,10.25Zm.66,4.57a2.12,2.12,0,0,0,.69,2.07,11.66,11.66,0,0,1,1,1.22c.09.12.18.28.31.34a4.42,4.42,0,0,0,2.67,0c.54-.1.19-.83.35-1.25s.25-.67.37-1,.18-.51-.06-.66a3.79,3.79,0,0,1-1.45-2.48c-.18-.57-.51-1.13-1.17-1.2a2,2,0,0,0-2,.81A2.56,2.56,0,0,0,11.75,14.82ZM9.68,11.9a3.35,3.35,0,0,0-.36-1.08,1.94,1.94,0,0,0-1.8-1.14c-.81,0-1.16.47-1.45,1.14s-.5,1.26-1.23,1.53a.55.55,0,0,0-.36.57,3.64,3.64,0,0,1-.3,1.38c-.2.67-.1.75.65.92a4.86,4.86,0,0,0,3.07-.51A3.28,3.28,0,0,0,9.68,11.9ZM19.75,23a4.93,4.93,0,0,0-1.06-3.5c-.3-.38-.7-1-1.31-.26-.18.21-.54.1-.81.09a12.53,12.53,0,0,1-3.7-.3,1.8,1.8,0,0,1-.67,1.77A1.34,1.34,0,0,0,11.68,22c0,1.36,0,2.72,0,4.08,0,1.12,0,1.13,1.25.91-.11-.22-.21-.43-.33-.64a4.7,4.7,0,0,1,1.15-5.74c1.58-1.35,3.73-1.47,4.37,1.35a1.6,1.6,0,0,1,0,.23.59.59,0,0,0,.59.63C19.07,22.83,19.32,23.15,19.75,23ZM13.52,35.48c-2.53-2.84-1.83-5.31.93-7.23-.48-.78-1.17-.62-1.88-.49.11.59.15,1.1-.38,1.45a1.32,1.32,0,0,0-.51,1.26c0,1,0,1.91,0,2.86,0,1.68,0,1.68,1.61,2.21C13.33,35.55,13.37,35.52,13.52,35.48ZM4.61,16.29a9.84,9.84,0,0,1-.79-.65c-.41-.42-.7-.24-.95.16a7.74,7.74,0,0,0-1,2.51,1.29,1.29,0,0,0,.07.82c.06.15.14.29.31.32a.44.44,0,0,0,.4-.23A3.54,3.54,0,0,0,3,18.11,2.06,2.06,0,0,1,4.61,16.29ZM20.24,32.77a7.36,7.36,0,0,0-.87-4C19,28,18.6,28,17.75,28.45c1.17,1.19,1.18,1.19,1.36,3C19.18,32.07,19.57,32.38,20.24,32.77ZM17.65,14.94c-.46-1-.86-1.79-1.23-2.63-.69-1.61-1.6-1.74-3.06-1.65A1.29,1.29,0,0,0,12,11.94l.19-.07C13.82,10.8,16,11,16.35,13.4a1.64,1.64,0,0,0,.2.56C16.78,14.34,16.92,14.83,17.65,14.94ZM1.39,28.13a1.38,1.38,0,0,0,1.1-1.55,3.33,3.33,0,0,1,.71-2.19c-.91-.39-1.48-.28-1.52.4A18.21,18.21,0,0,0,1.39,28.13Zm2.15,5c-1.51.42-2.09,2-1.9,4.52a1.51,1.51,0,0,0,.64-1C2.58,35.5,2.62,34.27,3.54,33.16ZM13,76.73c-.14.32.15.53.15.81,0,1.21.74,2.14,1.22,3.16a.33.33,0,0,0,.48.2c.25-.13.09-.32,0-.5-.36-.91-.7-1.84-1.05-2.76A1.38,1.38,0,0,0,13,76.73Zm-1,12.41a26.89,26.89,0,0,0,1.15,5.21A7.91,7.91,0,0,0,11.94,89.14Zm-.2-50.65A6.48,6.48,0,0,0,13,37.22a.41.41,0,0,0,0-.63c-.4-.26-.59-.84-1.19-.8Zm-9.8,2.74A2,2,0,0,0,1,38.53,2.79,2.79,0,0,0,1.94,41.23Zm9.17-19.51c-.19.18-.34.25-.34.34a28,28,0,0,0,0,3.78.24.24,0,0,0,.35.17ZM10.77,39.3a5.82,5.82,0,0,0,0-4.11Zm-2.68,20c1.28-.62,1.91-1.35,2-2.18A2.46,2.46,0,0,0,8.09,59.3Zm3.63-12.56a1.49,1.49,0,0,0,.93-.62c.1-.17.26-.4.13-.53-.38-.38-.41-1.05-1.06-1.31ZM2,32.31a4,4,0,0,0-1.35-3C.72,30.52.8,31.54,2,32.31ZM11.08,30a7,7,0,0,0,0,4.32ZM2.69,50.52a2.64,2.64,0,0,0-1-2.57A2.61,2.61,0,0,0,2.69,50.52Zm8.12-3.1a6.39,6.39,0,0,0,0-3.8Zm-.65-24.7a3.43,3.43,0,0,0-1.39,1c.5.37.79.92,1.39,1.19ZM4.29,11.64C5,11.5,5,11.5,6,9.39,4.67,9.67,4.76,10.85,4.29,11.64ZM18.68,46.22a2.69,2.69,0,0,0,1.44-2.32A4.21,4.21,0,0,0,18.68,46.22ZM11.23,92a11.69,11.69,0,0,0,0,1.47.47.47,0,0,0,.65.34c.31-.09.22-.38.17-.59A2.18,2.18,0,0,0,11.23,92ZM10.87,21a3.4,3.4,0,0,0,.05-2.6A5.21,5.21,0,0,0,10.87,21Zm-7.14,2.5c1.67.22,2,.2,3-.21A4.51,4.51,0,0,0,3.73,23.48Zm6.43,7.9c-1.05.88-1,1.17,0,1.81Zm.91,11.36c.11-1.84.11-1.84-.18-2.49A3.19,3.19,0,0,0,11.07,42.74ZM10.8,29.45H11a3.38,3.38,0,0,0-.24-2.33Zm6.45-11.33a4.05,4.05,0,0,0,.95-2.78A8.12,8.12,0,0,0,17.25,18.12Zm-15,5a2.85,2.85,0,0,0-.56-2.36A2.78,2.78,0,0,0,2.2,23.1Zm4.51,8.73a3.79,3.79,0,0,0-2.19.58A2.55,2.55,0,0,0,6.71,31.83Zm3.42,21.85c-.32.3-.54.47-.72.68a.38.38,0,0,0-.05.53c.21.21.45.07.63-.08C10.32,54.53,10.18,54.17,10.13,53.68ZM12.48,80.5a6.19,6.19,0,0,0-.33-3.4C12.15,78.41,12.51,79.44,12.48,80.5Zm-1.55-63c.42-.73.07-1.4-.16-2.07A4.42,4.42,0,0,0,10.93,17.51ZM8.75,9.23l1.14,1.09C9.94,9.21,9.92,9.19,8.75,9.23ZM19.61,24.7a2.92,2.92,0,0,0-.7,1.74A2.21,2.21,0,0,0,19.61,24.7ZM10.81,58A3.78,3.78,0,0,0,11,55.85,4.39,4.39,0,0,0,10.81,58Zm-.69-44.64c-.27.4-.55.79-.88,1.26C10.13,14.45,10.18,13.93,10.12,13.32ZM11.69,56.1c0,.39,0,.7,0,1s.1.28.3.25.32-.19.26-.32C12.11,56.74,12.19,56.31,11.69,56.1Zm.07-38.84c-.08.73.31.85.85,1A1.75,1.75,0,0,0,11.76,17.26Zm0,1.56a2.51,2.51,0,0,0,.06,1.41C12.14,19.73,12.28,19.37,11.76,18.82ZM9.85,50.18a.85.85,0,0,0,.26-1.06A.75.75,0,0,0,9.85,50.18Zm.91-36.86.1,0V11.83h-.1ZM10.1,41c-.23.11-.55.19-.34.56.05.08.25.18.29.15.23-.16.1-.41.1-.63C10.15,41.07,10.12,41,10.1,41ZM9.61,68.54a.93.93,0,0,0,0-.85A1.23,1.23,0,0,0,9.61,68.54ZM11.75,28c-.05.36-.1.54,0,.72C12,28.49,11.92,28.28,11.75,28ZM9.67,63.79l0-.2a.49.49,0,0,0-.07.19,1.55,1.55,0,0,0,0,.21Zm1.95,27.33-.09-.2a.64.64,0,0,0-.08.2.88.88,0,0,0,.09.2ZM10.18,70.28l-.09-.21a.6.6,0,0,0-.08.21c0,.07.06.14.08.21Zm.61-55.66s0,.08,0,.1.07,0,.08-.07Zm-.71,1.83.05,0a.36.36,0,0,0,0-.1s0,0,0,0A.36.36,0,0,0,10.08,16.45ZM10.34,71s-.07,0-.07.08a1.39,1.39,0,0,0,.06.19s.07,0,.06-.08A.67.67,0,0,0,10.34,71ZM11,48.61c.07,0,.09,0,0-.12s-.06,0-.06,0A.36.36,0,0,0,11,48.61ZM9.37,66.4s.05,0,.05-.05a.12.12,0,0,0,0-.1c0-.06-.08,0-.08.07A.2.2,0,0,0,9.37,66.4Zm.54-4.19-.05-.1s-.06,0-.06.06a1,1,0,0,0,.08.14Zm.22-1.13,0-.1,0,.13ZM8.9,31.63s0-.06-.06-.07a.12.12,0,0,0-.1,0c-.06,0,0,.08.07.09S8.87,31.65,8.9,31.63Zm2.62,43a.13.13,0,0,0,.07,0,.12.12,0,0,0,0-.1c0-.07-.08,0-.09.06S11.51,74.56,11.52,74.59Zm-.94-2.94,0,.07h.06Zm.28.78-.06,0v.06Zm.2.66,0,.07h.06Zm.17.77.08,0v-.09Z"/></g></g></svg>