<svg xmlns="http://www.w3.org/2000/svg" viewBox="0 0 85.67 111.24"><title>Neocalanus</title><g id="Layer_2" data-name="Layer 2"><g id="Neocalanus"><path d="M49.09,95.66c0-.4.06-.71.5-.39s.76.88,1.43,1l-.74-.73c-.14-.14-.32-.31-.16-.49a.45.45,0,0,1,.64,0c.19.14.34.32.52.48l.44.38c.06,0,.08.25.18,0h-.2c.14-.45-.3-.58-.48-.86s-.29-.3-.1-.5.34,0,.49.07.25.18.38.27a.35.35,0,0,0,.25.26.24.24,0,0,0,.23.22.29.29,0,0,0,.24.24.31.31,0,0,0,.22.26l0,0-.06,0c0-.14-.12-.19-.24-.24s-.12-.19-.24-.23a.24.24,0,0,0-.23-.23A.32.32,0,0,0,52,95c-.09-.67.53-.38.78-.58.48-.39.63.16.93.31l.22.25,0,0-.06,0-.23-.25c0-.23-.09-.52.18-.63s.3.19.44.32a2.6,2.6,0,0,0,.36.3.28.28,0,0,0,.24.24.31.31,0,0,0,.25.25.23.23,0,0,0,.24.22.36.36,0,0,0,0,.11l.06,0-.13-.11a.22.22,0,0,0-.24-.22c0-.15-.08-.25-.25-.25q0-.25-.24-.24c0-.44-.11-1.13.72-.48.27.21.64-.36,1,0a.73.73,0,0,0,.05.09.1.1,0,0,0,0,0l-.12-.1c.31-.78.65-.14,1,0a.24.24,0,0,0,.25.22c0,.15.06.29.27.24a.83.83,0,0,0,0,.22c0,.12.07.26.2.21s0-.18,0-.26a.62.62,0,0,0-.18-.14l-.26-.24c0-.14-.1-.23-.26-.22.37-.64.45-.67.82-.21a3.67,3.67,0,0,0,.88.92s0,.24.16,0l-.19,0c.14-.33-.14-.5-.27-.72s-.25-.43,0-.59.41.07.55.25l.21.28.23.26c.08,0,.08,0,0,.06l0-.06-.24-.24c.1-.58.12-.59.72-.23l.06,0-.08,0c.09-.2.37-.4.44-.3.36.51,1,.18,1.41.41s1.06,0,1.36.17c1.56.83,3-.27,4.44-.21.39,0,.53-.22.53-.62A27.87,27.87,0,0,1,68.92,89a3.07,3.07,0,0,0,.07-.6,65.75,65.75,0,0,1,.54-6.88c.31-2.88.08-5.74.18-8.61a2.3,2.3,0,0,0-.07-.83,9.06,9.06,0,0,1-.07-4.33,17.24,17.24,0,0,0,0-4.65,11.85,11.85,0,0,1,0-5,5.39,5.39,0,0,0-.22-3.36,1.21,1.21,0,0,1-.08-.7,13,13,0,0,0,0-4.74,4.94,4.94,0,0,1,0-1.67,12,12,0,0,0,0-4.14,7.05,7.05,0,0,1,0-2.15,9.9,9.9,0,0,0,0-4,1.07,1.07,0,0,1,0-.59,7.1,7.1,0,0,0-.19-3.77A4.72,4.72,0,0,1,69,31.73a10.12,10.12,0,0,0-.51-3.41,3.54,3.54,0,0,1-.21-1.4c.28-2.87-.87-5.45-1.7-8.09,0-.11,0-.3-.12-.31-1-.25-1.23-1.33-2-1.8l-.26-.26a4.79,4.79,0,0,0-2.29-1.56c0,.87,0,.86.73,1.09a5.4,5.4,0,0,0,1.58.45l.26.26c0,.45-.18.56-.59.42a10.09,10.09,0,0,0-2.25-.64L62,18c.24,1,.23,1,1.32,1.09a5.52,5.52,0,0,1,.71.05c.21,0,.38.17.35.4a.36.36,0,0,1-.45.28c-.35,0-.7-.15-1.05-.2s-.64.05-.59.51c0,0,0,.08,0,.12a6.62,6.62,0,0,0,.12,2.24c.29.71,1.28.65,1.94,1,1,.49,2,.91,3,1.39.27.12.6.24.61.64-.27.24-.5.1-.77,0-1.29-.59-2.59-1.18-3.9-1.74-1.09-.45-1.68,0-1.74,1.17,0,.56,0,1.12,0,1.68a6.48,6.48,0,0,0,0,1.08c.08.5-.37,1.07,0,1.45a4.45,4.45,0,0,0,1.38.68c.43.21.86.4,1.28.63.23.12.6.27.4.59s-.49.08-.74,0c-.71-.35-1.42-.7-2.14-1-.23-.11-.45-.38-.73-.07s0,.42,0,.64c.06.43.34.81.31,1.26,0,.16,0,.46-.07.44-.69-.12-.89.42-1.19.82-.83-.23-.44.55-.6.81s.27.47.54.6c.75.35,1.52.68,2.26,1,.24.13.72.21.51.64s-.49,0-.75,0a.78.78,0,0,0-.48-.23l-.05,0,.06,0c.09.25.31.2.5.21.38.73,1.17,1,1.73,1.51.24.23.78.45.57.77s-.66,0-1-.23c-.52-.4-.93-1-1.65-1,0-.2-.08-.24-.24-.26,0-.15-.11-.21-.23-.25l0-.06.05,0c0,.12.1.23.24.25a.32.32,0,0,0,.23.26,10.05,10.05,0,0,0,1.3,1.39c.11.12.18.26,0,.41a.32.32,0,0,1-.43.06c-.29-.21-.54-.47-.82-.69-.47-.35-.69-1-1.29-1.17,0-.15,0-.26-.15-.12s.06.12.16.11c0,.54.39.95.48,1.45A.36.36,0,0,1,61,39c-.15.07-.28,0-.38-.19-.34-.47-.39-1.11-.92-1.62v2.32c-.7-.11-1.11-.66-1.72-.85-.33.6-.26,1,.37,1.24s1,.47,1.5.72c.28.14.72.29.57.65s-.55,0-.8-.06a18.06,18.06,0,0,1-1.72-.82c-.44-.24-.68-.09-.82.32a28.55,28.55,0,0,1-1.15,3c-.13.3,0,.49.29.66.77.42,1.5.89,2.24,1.36a4.56,4.56,0,0,1,.65.51.34.34,0,0,1,.06.32.27.27,0,0,1-.4.11c-.34-.21-.66-.45-1-.64s-.54-.48-.94-.48a.42.42,0,0,0,0-.1s0,0-.06,0l.13.11c.4.63,1,1.06,1.39,1.73.1.19.37.35.18.61s-.44.06-.66.1a.52.52,0,0,0-.22-.5.3.3,0,0,0-.25-.25A.24.24,0,0,0,57,47c0-.14-.09-.24-.26-.22v-.07l0,0,.26.22a.24.24,0,0,0,.24.24c0,.14.09.25.25.25,0,.18,0,.39.21.51s.26.31.05.51a.25.25,0,0,1-.4,0,9.15,9.15,0,0,1-.78-.87,2.17,2.17,0,0,0-.79-.83.25.25,0,0,0-.25-.24l0-.06.06,0c0,.14.09.24.25.25,0,.44.31.71.48,1.06s.13.39-.07.52-.28-.07-.39-.16a7.61,7.61,0,0,1-.92-1.39,4,4,0,0,0-.38-.44c-.3.18-.34.45-.44.71a.45.45,0,0,0,.26.66,4,4,0,0,1,.7.45.25.25,0,0,1,0,.41.34.34,0,0,1-.31.09c-.35-.17-.68-.37-1-.57l-1.23,3.08c1.13.37,2.22.71,3.3,1.08a8.43,8.43,0,0,1,1.2.5c.37.2,1.07.39.87.8s-.75-.05-1.1-.21a24.41,24.41,0,0,0-4.15-1.4c-.64-.16-.76.28-1,.6a1.26,1.26,0,0,0-.29,1.23c.07.19.34.15.54.17a13.62,13.62,0,0,1,4.66,1.7.69.69,0,0,1,.2.13c.21.2.65.35.4.71s-.51,0-.73-.13a14.7,14.7,0,0,0-3-1.4,4.87,4.87,0,0,0-1-.27c-1.3-.17-1.3-.19-1.74,1-.21.56-.42,1.11-.64,1.66a5.28,5.28,0,0,0-.63,2.56,38,38,0,0,0,4.31,1.75,31.41,31.41,0,0,1,3.8,1.69c.49.25,1,.55,1.43.85.22.13.39.34.21.59s-.37.12-.54,0c-2.36-1.67-5.14-2.45-7.76-3.55l-2.11-.87c-.26,1.57-1.29,2.77-1.78,4.23-.19.55-.2.78.41.92a2.31,2.31,0,0,1,1.14.63c.11.12.2.27.11.42s-.24.16-.41.07A11.58,11.58,0,0,0,47.12,66a.61.61,0,0,0-.94.38c-.48,1.14-.48,1.21.65,1.82a6.25,6.25,0,0,1,1.8,1.14c.13.15.32.3.16.51s-.34.06-.51,0a12.67,12.67,0,0,0-2.62-1.4,26,26,0,0,0-1.26,3.8c.24.18.5.36.74.56s.32.29.14.49-.35.1-.53,0-.34-.21-.53-.32a15.27,15.27,0,0,0-1,2c-.24.43-.15.72.32,1,.28.15.89.25.69.65s-.69,0-1-.11c-.14,0-.25-.21-.54-.07l-1.4,3.81c.29.15.58.28.85.43s.34.28.26.49-.32.19-.51.11-.51-.24-.76-.36a7.08,7.08,0,0,0-.6,1.47c1.21.44,2.4.86,3.58,1.31a28.11,28.11,0,0,1,4.35,2.19,4.9,4.9,0,0,1,1.07,1c.11.13,0,.22,0,.3s-.17.19-.3.1c-.29-.2-.57-.43-.87-.63a27,27,0,0,0-7.67-3.43c-.43-.11-.6,0-.73.31a39.73,39.73,0,0,1-2.06,4.13c.35.54,1.08.39,1.41.89-.58.3-.58.3-1.71-.12-.39,1.23-1.17,2.29-1.61,3.49l0,0-.27.28v0c-.88.48-1.06,1.45-1.53,2.21-.26.42.11.6.35.75a30.65,30.65,0,0,0,2.8,1.59c2.89,1.4,5.91,2.51,8.84,3.82l1.51.7c.15.07.29.18.23.36s-.3.22-.49.19a1.82,1.82,0,0,1-.44-.17c-3.13-1.45-6.38-2.63-9.49-4.11-1.22-.57-2.35-1.28-3.63-2a12.56,12.56,0,0,0,.62,2.35,16.81,16.81,0,0,0,2,4.8c.09.16.3.34.07.51s-.44.08-.6-.16a11.43,11.43,0,0,1-1.45-3c-.41-1.25-.8-2.49-1.19-3.73a1.16,1.16,0,0,0-1.39-.62c-1.35.77-2.68,1.57-4,2.35-.5.3-.39.87-.49,1.29s-.22.84-.84.79-.73.42-1,.75-.35,1.09-1,.4c-.33.39-1,.12-1.27.6a1.19,1.19,0,0,1-.42.38c-.56-.4-.79.43-1.24.31-.13,0-.23-.2-.35-.31.18,0,.23-.09.29-.2a.66.66,0,0,0,.21-.51,1.41,1.41,0,0,0,.29-.18c.07-.07.17-.19,0-.24s-.16,0-.19.1a2,2,0,0,0-.06.35c-.28.08-.22.3-.21.5-.18,0-.23.09-.29.21-.27.12-.38.37-.54.6s-.27.45-.54.29-.11-.43-.13-.66a.3.3,0,0,0,.26-.24l.1,0s0,0,0-.06l-.08.14a.28.28,0,0,0-.27.24,10.82,10.82,0,0,0-1.51,1.44c-.14.12-.28.3-.5.11s0-.4.09-.59l.24-.27.24-.25.23-.24.06,0,0,.05-.24.25-.23.24c-.13,0-.27.09-.24.27-.37-.14-.58.2-.87.3s-.37.15-.52-.05.07-.36.14-.53l.11,0a.33.33,0,0,0,0-.06l-.11.14a2.35,2.35,0,0,0-.94.12,1.2,1.2,0,0,1-1.28-.13c.84-.14.59-1.27,1.5-1.28,0,0,.14-.12.12-.16-.36-1.1.51-.69.94-.75s1,.11,1.28-.54c.19-.41.83-.08,1.23-.26-.21-.27-.42-.6.14-.64,1-.08,1.55-1.06,2.55-1,.2-1,1-.67,1.57-.72.12,0,.28,0,.34-.08.77-.89,1.83-.57,2.78-.6a2.16,2.16,0,0,0,1.22-.28,28.55,28.55,0,0,1,2.68-1.54c1.21-.59,1.67-1.69,2.22-2.92a27.51,27.51,0,0,1-5,.93,2,2,0,0,0-.86.39c-.75.44-1.51.86-2.28,1.27a3,3,0,0,1-1.1.14c-1.1.13-2.25-.34-3.33.24-.37.21-.71.15-.71-.4,0-.06.27,0,.12-.16l-.09.19a12.34,12.34,0,0,1-2.62-.11c.39-.62,1.05-.47,1.49-.78-.5-.21-.94.15-1.41.15a5.7,5.7,0,0,1-.71,0,.32.32,0,0,1-.31-.31.35.35,0,0,1,.3-.33c.54-.06,1.08-.08,1.68-.13A1.77,1.77,0,0,1,18,93c-.19-.28,0-.45.27-.47s.3.1.45.15a3.69,3.69,0,0,0,2.41.14.9.9,0,0,1,.46,0,14.85,14.85,0,0,0,5.79,0c1.48-.27,3-.39,4.45-.76l1-.27a1.85,1.85,0,0,0,1.36-1.19,8.85,8.85,0,0,1,.9-1.54,10.93,10.93,0,0,0,.64-2.16c.12-.36-.28-.29-.45-.4s-.47-.26-.34-.54a.37.37,0,0,1,.53-.11c.72.45.87-.07,1.07-.57a10.53,10.53,0,0,1,1.35-2.78c.3-.38,0-.83.23-1.24a20.71,20.71,0,0,0,2.21-5.52c.62-2.24,2-4.16,2.5-6.41.41-1.69.94-3.34,1.48-5s1.49-3.36,1.91-5.09C46.8,57,48,55.07,48.55,52.84a2.18,2.18,0,0,1-.9-.67c-.42-.44-.75-1-1.46-1.12.05-.21,0-.28-.25-.24.05-.2-.06-.25-.23-.25,0-.17-.09-.23-.23-.25s-.11-.21-.24-.24a.3.3,0,0,0-.23-.25l-.07-.06.1,0a.22.22,0,0,0,.23.25.24.24,0,0,0,.24.24.26.26,0,0,0,.23.25.3.3,0,0,0,.23.25.34.34,0,0,0,.25.25l1.05,1.4a.26.26,0,0,1,0,.4.27.27,0,0,1-.41,0,4.15,4.15,0,0,0-1.09-1,.23.23,0,0,0-.25-.24.21.21,0,0,0-.24-.23A.22.22,0,0,0,45,51c0-.16-.09-.23-.25-.23,0-.16-.08-.23-.23-.25s-.11-.21-.24-.24a.29.29,0,0,0-.23-.25.31.31,0,0,0-.23-.25l-.23-.24a.73.73,0,0,0-.08-.09s0,0-.06,0,.07.09.16,0c0,.19.07.26.24.25,0,.18.06.24.23.24a.22.22,0,0,0,.23.25.24.24,0,0,0,.24.24.27.27,0,0,0,.23.25A.26.26,0,0,0,45,51c0,.14.08.24.23.25s.09.24.25.24c0,.16.07.25.25.24,0,.4.35.58.48.9a.37.37,0,0,1,0,.44.25.25,0,0,1-.4,0c-.23-.4-.48-.32-.89-.26s-.65-.61-1.11-.77a.32.32,0,0,0-.25-.25.3.3,0,0,0-.23-.25l-.23-.25a.47.47,0,0,0-.51-.19c0-.19-.09-.23-.23-.27s-.12-.2-.24-.25a.36.36,0,0,0,0-.09s0,0-.06,0l.13.1c0,.12.1.22.24.24l.23.27a.41.41,0,0,0,.51.2c-.06.2.07.24.23.24a.22.22,0,0,0,.23.25.26.26,0,0,0,.25.25c0,.46-.2.73-.65.43a3.76,3.76,0,0,1-.88-.81A3.09,3.09,0,0,0,39,50.65a19.29,19.29,0,0,0-3.05.65c-.94.36-2,.39-3,.74a6.59,6.59,0,0,1-1.16.22,4.55,4.55,0,0,0-2.44.78,4.23,4.23,0,0,1-2.39.62c-1,.09-1,.06-1.24,1.07-.05.19-.07.39-.13.58a1.6,1.6,0,0,1-1.21,1.33c-.6.11-.76.47-.69,1a4.76,4.76,0,0,1-.25,1.76,1.54,1.54,0,0,1-1,1.22,1.12,1.12,0,0,0-.78.94c-.11.42-.23.84-.33,1.26s-.18.79-.46,1c-1,.57-.82,1.64-1.17,2.47a1.06,1.06,0,0,0,.11.91c.31.69.57,1.39.85,2.09A4.31,4.31,0,0,1,21,71a.56.56,0,0,0,.22.53c.84.54.69,1.25.44,2.06-.13.43.06,1-.42,1.3-.06,0-.1.16-.16.17-.36,0-.28-.37-.4-.43-.28-.13-.1.29-.3.37s-.42-.14-.65-.16c.45-.48.25-.91-.1-1.35,0,.47-.67,1,.13,1.33a7.26,7.26,0,0,0,.34.88c.49.89-.11,1.58-.44,2.3-.19.41-.53-.15-.85,0-.13.06-.44-.22-.69-.37a4,4,0,0,0,.44,1.43c.07.2,0,.65-.21.52-.87-.4-.4.32-.57.52-.3.37.24,1.28-.74,1.18,0,0,0,0,0,.08-.38.86-.38.86-1.17,1-.24-.27-.07-.61-.16-.91a.33.33,0,0,0,.1,0s0,0,.06,0l-.13.08c-.16.07-.28.31-.5.15a.29.29,0,0,1-.07-.48c.2-.28.38-.57.58-.86l.08-.06s0,0,0-.06l-.07.15a.65.65,0,0,0-.55.14.26.26,0,0,1-.4-.1.33.33,0,0,1,.07-.32c.58-.37.57-1.12,1.06-1.55.3-.26-.32-.73.21-1A3.4,3.4,0,0,0,17,76.9a1.87,1.87,0,0,0,.37-1A42.09,42.09,0,0,0,17.6,69c-.43.3-.48.76-.64,1.15-1.22,2.93-2.15,6-3.14,9s-1.66,6.11-2.38,9.19a2.59,2.59,0,0,1-.14.58,2.4,2.4,0,0,0,.37,3c.33.36.45.66-.24.63q-.12,0,0-.06l0,.06a3.18,3.18,0,0,0,.57.88c.55.47.12,1.08.29,1.61.1.29-.42.14-.67.19,0-.17-.06-.27-.24-.25,0,0-.11-.14,0,0l.24.25.36.61c.24.42,0,.56-.37.61a.35.35,0,0,0-.25-.26l-.08-.08.1.05.26.26a1.82,1.82,0,0,0,.16.31c.3.43-.59.74-.1,1.21s-.12.86-.06,1.32-.31.15-.5,0a.3.3,0,0,0-.26-.24.74.74,0,0,0-.22-.48.31.31,0,0,0-.26-.24c-.06,0,.05-.26-.15-.13l.18.1c0,.15.07.27.25.24.06.17,0,.41.22.48,0,.14.08.28.27.24-.07.58.64,1,.35,1.65-.05.11.14.38-.08.49s-.37,0-.51-.21a2.88,2.88,0,0,0-.27-.22.31.31,0,0,0-.26-.24l0-.07.06,0c0,.14.09.25.26.24,0,.56.35,1,.6,1.39s.43.81-.1,1.2a.64.64,0,0,0-.16,1c.48.55.06,1.25.27,1.9.16.47-.41.07-.66,0,0-.19,0-.42-.24-.48,0-.19,0-.4-.22-.5-.07,0,0-.26-.16-.1l.19.08c0,.19-.06.42.22.49,0,.19,0,.41.24.48,0,.29.18.5.23.76s-.12.49-.47.44a.31.31,0,0,0-.07-.09h-.06l.16.06c-.13.38.1.69.19,1a.37.37,0,0,1-.13.42.32.32,0,0,1-.42-.13c-.11-.18-.2-.37-.32-.6-.2.57.28,1,.18,1.55s-.11.46-.68.17c0,.33,0,.64-.08,1,0,.1-.1.24-.25.2a.54.54,0,0,1-.29-.15,1.08,1.08,0,0,1-.18-.8,7.25,7.25,0,0,0-.14-1.67c-.05.66-.1,1.32-.14,2,0,.22-.09.42-.32.44s-.36-.25-.36-.49c0-.56,0-1.12,0-1.67.28-.24.26-.5,0-1v1c-.75,0-.86,0-.69-.59a10.77,10.77,0,0,0,.44-1.57,1,1,0,0,0,.23-.72l.16-.29s0,0,0-.07L7.6,106c-.4.14-.17.48-.23.73-.77.23-.81.21-.74-.4,0-.15.16-.4.13-.43-1-.7-.13-1.34,0-2,.08-.3.43-.59-.09-.88-.26-.15.06-.42.13-.63s.36-.57-.13-.77c-.06,0-.12-.25-.08-.31.55-.85.09-2,.86-2.8,0,0,0-.15.06-.23a.53.53,0,0,0,.1-.06l0,0-.1.14c-.25,0-.58,0-.48-.33.24-.8,0-1.75.66-2.43.05-.06.14-.14.13-.2a2.46,2.46,0,0,1,.62-2c-.43-1.2.6-1.7,1.21-2.34a2.4,2.4,0,0,0,.65-1.36A84.9,84.9,0,0,1,13.66,76.9c.78-2.42,1.6-4.82,2.61-7.14a22.55,22.55,0,0,0,.88-4.1l.06,0,0,.05c-.46.29-.76.82-1.33,1a.41.41,0,0,0-.28.19c-.37,1-1.15,1.7-1.59,2.63a50.81,50.81,0,0,0-2.49,6.18C10.42,78.86,9.17,82,7.87,85.1A3.81,3.81,0,0,0,7.54,88a3.89,3.89,0,0,1,.06,1.19c0,.32,0,.32-.55.57-.14.06-.15.07-.11.28.12.68.52,1.37-.22,2-.06.05,0,.3.06.45.1.43.31.87-.46.91-.27,0-.15.34-.11.49.18.7.41,1.38-.22,2-.13.13-.08.46-.06.7a3.92,3.92,0,0,1-.56,2.17.63.63,0,0,0-.06.66,1,1,0,0,1,.12.46c0,.22.09.52-.23.59s-.3-.33-.52-.42a6.38,6.38,0,0,0-.62-2.68A5.24,5.24,0,0,0,4.71,100c-.1.53.28,1,.24,1.52,0,.15,0,.33-.2.37s-.31-.15-.41-.32c-.25.51.13.88.18,1.31s.4,1-.21,1.36c-.15.11-.08.38,0,.57.13.4.45.84-.33.94-.22,0-.08.24,0,.38a2.07,2.07,0,0,1,0,1.3c-.64-.51-.65-.57-1.09-2.9v1.56a2.87,2.87,0,0,1,0,.72c-.1.4-.13,1.11-.55,1-.63-.11-.2-.75-.12-1.09a5.09,5.09,0,0,0,0-2c-.18.81-.39,1.61-.54,2.42a4.46,4.46,0,0,1-.31.89.29.29,0,0,1-.38.19.27.27,0,0,1-.17-.38c.17-.65.32-1.31.49-2a.85.85,0,0,0,0-.63,6.28,6.28,0,0,0-.65,1.33.3.3,0,0,1-.42.11A.23.23,0,0,1,0,106.4c.11-.38.22-.75.34-1.13,0-.08,0-.09.06,0l-.06,0c-.68-.33-.27-.79-.11-1.18s.56-.75.57-1.25c.15,0,.22-.1.26-.23l.09-.06s0,0,0-.06l-.07.15c-.17,0-.24.08-.27.23l-.27.19c-.12.08-.22.26-.39.14a.35.35,0,0,1-.12-.41c.11-.48.58-.71.75-1.14l.26-.26.25-.24.06,0,0,.07-.24.23-.26.26c-.28,0-.59,0-.43-.43A2.54,2.54,0,0,1,1,100.4c.19-.18.39-.38.3-.7.2.06.24-.07.26-.23.15,0,.21-.11.25-.23s.2-.12.25-.24.2-.12.24-.24a.3.3,0,0,0,.24-.24c.13,0,.19-.12.23-.24S3,98.16,3,98l.07,0,0,.07a.28.28,0,0,0-.24.24c-.12,0-.22.1-.24.24s-.22.1-.24.24-.22.1-.24.24a.33.33,0,0,0-.24.24l-.25.23-.27.23c-.19.11-.35.39-.6.13s0-.35.11-.5c.81-.91,1.61-1.83,2.42-2.75.16,0,.23-.09.24-.25l0,0,0,0c-.14,0-.25.08-.25.25-.74.17-1.16.78-1.66,1.25-.13.12-.27.21-.41.12a.3.3,0,0,1-.12-.41c.57-.64.42-1.67,1.22-2.16l.22-.26.25-.26c.16-.07.37,0,.48-.22l.25-.25a.24.24,0,0,0,.22-.25c.16,0,.28-.06.22-.25.09,0,.21.07.16-.11L4,94a.3.3,0,0,0-.22.26c-.13,0-.23.09-.23.25s-.26.07-.24.25a.78.78,0,0,0-.49.21l-.25.26-.22.26c-.22-.19-.4-.41-.19-.71s.75-.59.44-1.16c.77-.72.75-2.06,1.94-2.47.07,0,.11-.19.16-.28a3.26,3.26,0,0,0,.33,0c.06,0,0-.11-.07-.12a.21.21,0,0,0-.23.2c-.36,0-.57.27-.87.34-.12,0-.25.07-.3-.08s-.08-.29,0-.33a2.59,2.59,0,0,0,.72-1.16c.18-.41.77-.63,1.18-.93l.06,0,0,0c-.24,0-.51.1-.65-.12s.07-.35.24-.45.51-.34.43-.75.25-.39.46-.48a1.71,1.71,0,0,0,.89-1.07c1.42-3.7,2.8-7.42,4.21-11.12a1.67,1.67,0,0,0,.15-.93c.4-.12.17-.47.26-.71.09,0,.15,0,.17-.07s-.06-.08-.08-.08-.13.08-.07.17c-.26.18-.19.47-.25.72-.12,0-.28,0-.34-.06s-.31-.51-.44,0a1.44,1.44,0,0,1-.23.42.29.29,0,0,1-.21.08c-.15,0-.19-.11-.22-.22-.1-.33.25-.8.14-.88-.74-.6,0-1,.09-1.54,0-.15,0-.31.1-.46a.23.23,0,0,0-.1-.29c-.19-.14-.17.06-.22.14s-.28.29-.49.16-.1-.38,0-.53.14-.38-.14-.53-.06-.27,0-.42a8.58,8.58,0,0,0,1-1.72c.12-.5,1-.78,1.6-.83a1.15,1.15,0,0,0,.79-.33,25.42,25.42,0,0,1,2.95-2.63,1.65,1.65,0,0,0,.78-1.52,4,4,0,0,1,.55-2.28,3.47,3.47,0,0,0,.68-2.23c-.06-.36.24-.67.42-1,.36-.58.73-1.15,1.1-1.72a2.37,2.37,0,0,0,.44-1.32,4.17,4.17,0,0,1,1.08-2.35c.09-.12.17-.26.24-.37a17.8,17.8,0,0,1-2.07-4.69c-.09-.25,0-.55-.29-.75A2.07,2.07,0,0,1,17.65,44a15.4,15.4,0,0,1,1.55-5.59c.06-.1.18-.18.18-.28A15.16,15.16,0,0,1,21,32.31c0-.08.11-.15.1-.21-.37-1.73.83-3,1.35-4.45a13.36,13.36,0,0,1,1.21-2.18c.12-.21.38-.41.36-.6C24,23.52,25,22.78,25.75,22a41.5,41.5,0,0,1,3.54-4.06c.09-.07.23-.2.22-.27-.25-1,.58-1.19,1.12-1.55a35.17,35.17,0,0,0,4.47-3.78,57.41,57.41,0,0,1,12-8.67C49.17,2.5,51.27,1.47,53.42.53a5.75,5.75,0,0,1,4.75,0A3.54,3.54,0,0,1,60.1,2.37a12.07,12.07,0,0,1,1.23,4,1,1,0,0,0,.44.79,22.94,22.94,0,0,1,3.11,2.62,2.32,2.32,0,0,0,1.82.71,13.73,13.73,0,0,1,3.3.45.57.57,0,0,1,.46.39,1.8,1.8,0,0,1-1.5.06,17.59,17.59,0,0,0-2.5-.22.37.37,0,0,0-.47.26.36.36,0,0,0,.21.39c.93.61,1.56,1.76,2.92,1.63a1.61,1.61,0,0,1,.69.18.24.24,0,0,1,.14.29.28.28,0,0,1-.16.16c-.28,0-.55,0-1,.09,1,.84,1.42,2,2.27,2.86a.86.86,0,0,0,1.14.24c.86-.41,1.75-.75,2.62-1.14.27-.12.48-.12.59.16s-.15.35-.31.42c-.9.42-1.79.85-2.72,1.18-.39.14-.52.29-.49.67a7.79,7.79,0,0,1,0,1.08c0,.55,0,1.05.71,1.16.21,0,.4.18.36.39s-.32.27-.58.18a3.6,3.6,0,0,0-.66-.07,22.31,22.31,0,0,0,.49,2.56c0,.22.28.24.48.27a5.69,5.69,0,0,1,.7.12c.13,0,.16.17.12.29a.4.4,0,0,1-.15.17c-.28.17-.61-.17-.93.09a8,8,0,0,1-.26,2.32c-.18.38.09.77.39,1.11A5.78,5.78,0,0,1,74.92,28c.16,0,.34,0,.33.25s-.17.26-.33.26a12.85,12.85,0,0,0-1.65.23c-.55,0-.65.32-.64.79,0,.92,0,1.84,0,2.76,0,.44.18.52.57.52a4.63,4.63,0,0,0,1.39-.33c1-.32,2-.75,3-1,.29-.09.73-.58.93-.08s-.44.57-.75.7a29.6,29.6,0,0,1-2.92,1,12,12,0,0,1-2.48.57,9.85,9.85,0,0,1,.24,2.78c0,.37.18.45.51.48.64,0,1.27.16,1.9.24.19,0,.44,0,.4.3s-.29.24-.48.23a12.57,12.57,0,0,1-2-.12c-.63-.15-.72,0-.57.65a16.8,16.8,0,0,1,.25,4.64c0,.63.24.86.78.94l.12,0c.39.17,1.19-.23,1.14.4,0,.43-.83.09-1.29.17a4.27,4.27,0,0,0-1.2.13,20.27,20.27,0,0,1,.23,4.2c0,.51.39.43.69.43,1.56,0,3.12,0,4.68,0a6.62,6.62,0,0,1,1.53.26c.17,0,.31.12.27.31s-.22.21-.37.21a6,6,0,0,1-1.2,0,21.07,21.07,0,0,0-4.42-.2,2.47,2.47,0,0,0-.71.09c-.68.16-.83.3-.68,1a7.67,7.67,0,0,1,0,3.2,7.64,7.64,0,0,0,0,1c0,.35.15.49.5.48.72,0,1.44,0,2.16,0,.23,0,.49-.07.68.34a9.6,9.6,0,0,1-3.24.3,1.47,1.47,0,0,0-.08,1c.29,1.68-.09,3.34,0,5,0,.85,0,.89.85,1a22.24,22.24,0,0,0,7.37.25,1.85,1.85,0,0,1,.47,0,.36.36,0,0,1,.32.32c0,.16-.12.29-.27.33a3.35,3.35,0,0,1-.71.07c-1.68,0-3.36,0-5,0-1,0-1.89-.24-3-.38v3.31c0,.31.2.38.47.4s.66-.13.83.27c0,.07-.07.18-.11.19-1.5.27-1.1.23-1.21,1.53,0,.56.28,1.07.12,1.63-.08.26.17.19.3.22a24.31,24.31,0,0,0,3.9.48,2.59,2.59,0,0,1,1.19.14c-.67.6-2.69.57-5.65,0a8.07,8.07,0,0,0,0,2.5c.14,1.18.13,2.38.38,3.55a.84.84,0,0,0,.85.8,2.38,2.38,0,0,1,1.34.52c-.19.35-.49.28-.73.25s-.61-.17-.92-.22c-1-.14-1,0-1.23,1-.36,1.54-.05,3.11-.39,4.65-.19.89.06,1.17,1,1.43A43.23,43.23,0,0,0,78.5,87.5a37.82,37.82,0,0,0,4.63.47,1.44,1.44,0,0,1,.57.13.31.31,0,0,1,.17.4.36.36,0,0,1-.26.19,3.37,3.37,0,0,1-.71,0,60.36,60.36,0,0,1-11-1.94c-.77-.22-.78-.22-1,.54-.16.61-.31,1.23-.43,1.85-.09.46.05.79.62.73.2,0,.4,0,.6,0a.3.3,0,0,1,.26.21c.09.21-.1.28-.22.36-.44.29-.92.13-1.45.09-.1.78-.23,1.56-.3,2.34s0,.79.7.82a7.07,7.07,0,0,1,2.32.16,5.09,5.09,0,0,1-3,.58c-.08,0-.08-.06,0-.06s0-.09,0,0a2.92,2.92,0,0,0-.24,1.4,2.68,2.68,0,0,1-.25,1.37c5.38,1.06,10.79.79,16.15.81.07.4-.09.49-.3.53a14.94,14.94,0,0,1-1.78.24c-3.07.09-6.14-.08-9.21-.27-1.68-.1-3.35-.39-5-.59-.1.34.09.53.21.73a12.44,12.44,0,0,1,1.39,6.9,1.94,1.94,0,0,1,0,.24.32.32,0,0,1-.33.28.27.27,0,0,1-.24-.34,9.26,9.26,0,0,0-.17-2.73,8.77,8.77,0,0,0-1.15-4,1.13,1.13,0,0,0-.88-.56c-1.33-.33-2.7-.05-4-.35a7.3,7.3,0,0,0-2.38,0c-.48,0-.85.22-1.29-.18s-.8.58-1.11.32-.61-.56-1-.32-.65.67-1,0a1.45,1.45,0,0,0-.3.11c-.15.07-.38.25-.4.23-.64-.8-1.25.06-1.85,0-.34,0-.82.37-1-.24,0-.14-.22-.18-.28-.1-.36.46-.81.27-1.27.29a3.92,3.92,0,0,0-1.2.48c-.28.12-.49.06-.52-.25s-.24-.4-.49-.37c-.91.13-1.78-.41-2.7-.1-.07,0-.29-.14-.28-.17a3.05,3.05,0,0,0,.19-1.13c0-.12.43-.06.66-.09l0,.06,0,0a1.77,1.77,0,0,1,0-.23c0-.53.59,0,.64-.24s.24-.53.59-.52a.23.23,0,0,0,.23.25.33.33,0,0,0,.22.26c.08,0,.08,0,0,.06l0-.06c0-.13-.12-.19-.24-.23A.31.31,0,0,0,49.09,95.66ZM11.18,93.48l.05.1s0,0,.06,0l-.13-.1c0-.14-.07-.25-.24-.23a.63.63,0,0,0-.37-.64c-.13.39,0,.58.39.61A.24.24,0,0,0,11.18,93.48ZM4.7,91.8l0,0,0,0c0,.07-.06.08,0,0S4.56,91.88,4.7,91.8ZM44.05,51.26l0,0-.07,0L43.79,51l-.24-.24c0-.15-.12-.19-.24-.24a.26.26,0,0,0-.23-.24.3.3,0,0,0-.21-.26s0,0-.07-.06h0l.13,0c0,.19.07.24.22.26s.09.23.23.24l.24.25.24.24Zm.24-1.92c.09,0,.09,0,0,.07l0-.07-.09-.1ZM9.73,102.14c.08,0,.08.06,0,.06s0,.09,0-.06l0-.06Zm-8.15-.26.08,0a.08.08,0,0,0,0,0l-.09.1-.05,0Zm8.15-.94c.08,0,.09,0,0,.07l0-.07,0,0Zm-7.93-.5a.25.25,0,0,0,.25-.23.28.28,0,0,0,.24-.25c.15,0,.21-.1.24-.23l.09,0a.08.08,0,0,0,0-.05l-.08.13a.23.23,0,0,0-.24.23.25.25,0,0,0-.24.24.29.29,0,0,0-.25.23l-.09.06s0,0,0,.06ZM10,100l.08.11L10,100c0-.14-.12-.2-.23-.24l0-.06.06,0C9.78,99.84,9.84,99.94,10,100ZM50.3,97.32l0,.05,0,0a.16.16,0,0,0-.05-.1s0,0-.07,0S50.2,97.33,50.3,97.32ZM2.53,96.12l.1,0,0,0-.1.11-.08.06,0,0Zm51.12-.46c.08,0,.09.06,0,.06s0,.09,0-.06l0,0Zm-50.39,0,.23-.25a.25.25,0,0,0,.24-.21l0,0,0,.06a.25.25,0,0,0-.22.23l-.26.23c0,.08,0,.08-.07,0Zm7.67-.23c.08,0,.09.06,0,.06s0,.09,0-.06l-.05-.06ZM57,95.16l0,.09,0,0L57,95.19a.27.27,0,0,0-.21-.24c-.07,0-.07-.07,0-.06s0-.09,0,0Zm-35.51-.94.25-.11s-.08,0-.09,0-.09.11-.14.17h-.1s0,0-.05,0ZM8.29,97.08c.24-.06.18-.29.25-.45s0-.08.06,0l-.06,0c-.22.08-.19.29-.22.46s-.25,0-.1.15Zm.72.24.16-.13s0-.06,0-.09l-.1.24-.07,0Zm36.24-48.2c-.06,0,0-.26-.16-.11l.19.08c.09.26.27.29.49.22-.05.18.07.24.21.27a24.19,24.19,0,0,0,2.64,2.62l.06.07-.08,0c0-.2.06-.46,0-.57A6.24,6.24,0,0,0,46,49.6c.06-.19-.1-.22-.21-.27C45.65,49.1,45.44,49.14,45.25,49.12ZM7.12,105.06a.23.23,0,0,0-.2.22s.07,0,.11.07l.06-.32.18-.26-.06-.08Zm1.4-4.39c.32,0,.22-.28.22-.47l.1,0s0,0,0,0l-.11.09-.22.47-.09.06s0,0,0,.06ZM59.87,35.22a.48.48,0,0,0,0-.12s0,0-.08-.05l.11.14c.05.05.09.14.15.15a1.5,1.5,0,0,0,.29,0,1.12,1.12,0,0,0-.25-.11A.82.82,0,0,0,59.87,35.22Zm-5-16.62c0,.19-.08.41.17.68,0-.31.07-.53-.2-.66-.05-.25.11-.56-.22-.73a3.56,3.56,0,0,0-.05-.47c0-.11-.11-.24-.24-.19s-.19.24-.07.38a2.51,2.51,0,0,0,.34.3C54.65,18.16,54.52,18.47,54.88,18.6Zm-1,3.18c0-.34.12-.72-.2-1a2.06,2.06,0,0,0-.53-1.34c.08.61.12,1,.56,1.31a1.2,1.2,0,0,0,.19,1c.09.4-.07.85.24,1.2l0,2.87c0,.3-.11.68-.39.61s-.84,0-.87-.62c0-.33.13-.69-.1-1a1.73,1.73,0,0,0-.06.84c0,1.11,0,1.28,1.07,1.16a6,6,0,0,1,3.4.82,4.12,4.12,0,0,0,.42-2.47,20.31,20.31,0,0,1-.16-4,8.82,8.82,0,0,0-1.31-4.62c-.23-.38-.41-.86-1-1a21.47,21.47,0,0,1,1.3,3.7c.1.36.26.79,0,1-.53.43-.38.89-.23,1.38s.29,1.08,0,1.38a1.92,1.92,0,0,0-.34,1.66c0,.27,0,.53-.24.71-.53-.32-.2-.86-.43-1.22-.17.33-.06.69-.12,1a.33.33,0,0,1-.31.3c-.2,0-.23-.15-.26-.32A5.22,5.22,0,0,0,54.11,23C54,22.59,54.33,22.11,53.87,21.78ZM57,96.38l.05,0-.07,0c-.35-.38-.69-.28-1.1,0C56.3,96.8,56.65,96.13,57,96.38ZM14.56,65.94c-.48,0-.67.44-1,.67-.51.59-1.34,1-1.38,2.08.51-.8,1.2-1.27,1.35-2.11.51,0,.71-.38,1-.66Zm41.74-37a.53.53,0,0,0,.63-.52c0-.25-.26-.35-.52-.36a1.54,1.54,0,0,0-.08.9l-.09,0Zm-9.1,20.4-.1,0L47,49.24l.27.08c.2.62.84.79,1.26,1.2s.63.08.79-.34A8.65,8.65,0,0,0,47.2,49.34ZM54.87,22.2v1.05c.13-.35.4-.73,0-1a8,8,0,0,0-1.05-3.91c.15,1.28.73,2.45.92,3.72C54.72,22.1,54.82,22.15,54.87,22.2Zm-41,45.65a3.17,3.17,0,0,0-1.4,3.1l1.37-3.12a1.64,1.64,0,0,0,.72-1C14.15,67.25,13.74,67.36,13.85,67.85ZM58.92,38.31l0,0-.07,0c-.08-.79.36-1.7-.52-2.39a6.77,6.77,0,0,0-.19,1.39C58,38,58.31,38.24,58.92,38.31Zm.25-30.72c0-.08,0-.29-.15-.07,0,.06.08.11.17.05s0,.19,0,.23a10.71,10.71,0,0,1,2,4.39A4.41,4.41,0,0,0,62.39,14c.28.31.5.28.81,0a7.36,7.36,0,0,0,1.89-2.56c.16-.28,0-.53-.22-.73a38.12,38.12,0,0,0-3.64-3.07c-.53,1-.84,1-1.52.32C59.55,7.86,59.43,7.64,59.17,7.59Zm1.12-.26c.4-1.79-.39-3.26-1-4.75a2.85,2.85,0,0,0-1.7-1.43,5.4,5.4,0,0,0-4.17.29,69.54,69.54,0,0,0-8,4.1A51.24,51.24,0,0,0,38.91,10c-2.6,2.18-4.89,4.72-7.73,6.61-.39.26-.47.48,0,.81a15.43,15.43,0,0,0,4,2.16c2.44.87,5,1.32,7.48,2a22.22,22.22,0,0,0,6.83.93,2.31,2.31,0,0,0,2.27-1.57c.48-1.19.93-2.39,1.51-3.51a19.31,19.31,0,0,0,2-5.6c.1-.59.23-1.17.34-1.76A2.45,2.45,0,0,1,57.11,8a2.09,2.09,0,0,0,1.11-.87.85.85,0,0,1,1.3-.35A6.59,6.59,0,0,1,60.29,7.33Zm-10.43,16a12.05,12.05,0,0,1-4.7-.33c-1.81-.42-3.63-.78-5.43-1.25-3.07-.8-6.21-1.44-8.77-3.51-.32-.25-.54-.24-.89.08a42.39,42.39,0,0,0-3.74,4.19A17.44,17.44,0,0,0,25.11,24c-.27.42-.21.63.2.83A12.5,12.5,0,0,0,29.15,26,31.49,31.49,0,0,1,37,28a15.21,15.21,0,0,0,8.73,1.14,2.27,2.27,0,0,0,1.57-.76A17.8,17.8,0,0,0,49.86,23.31ZM24.72,25.38A25.41,25.41,0,0,0,22,30.93c-.21.56,0,.73.44.83s1,.2,1.52.28c1.29.21,2.6.35,3.88.63a41.1,41.1,0,0,1,6.53,2.2,8.79,8.79,0,0,0,3.57.82,10.56,10.56,0,0,1,2,.14A2.2,2.2,0,0,0,42,35.25a19.87,19.87,0,0,0,3.49-4.52c.12-.24.34-.47.07-.73a14.17,14.17,0,0,1-7-.53c-.84-.33-1.72-.59-2.58-.89a27.59,27.59,0,0,0-4.92-1.37A16.88,16.88,0,0,1,24.72,25.38ZM41,36.64H39.91a14.66,14.66,0,0,1-6.61-1.26,31.11,31.11,0,0,0-6-2c-1.48-.31-3-.47-4.46-.75-1-.19-1.25-.12-1.58.88-.44,1.35-.83,2.72-1.25,4.07a3.57,3.57,0,0,0,1.83.65,16.24,16.24,0,0,1,3.65,1c.93.36,1.84.76,2.78,1.07A16.4,16.4,0,0,1,31.75,42a7,7,0,0,0,3,1,3.2,3.2,0,0,0,2.87-.81A21,21,0,0,0,41,36.64Zm-5.1,7.29a2.86,2.86,0,0,0-.56-.08,7.49,7.49,0,0,1-4.16-1.22A18.6,18.6,0,0,0,28,41.12a37.85,37.85,0,0,0-7.11-2.31c-.45-.06-.93-.26-1.19.36a15.79,15.79,0,0,0-1.21,5.18c0,.72.21,1,.93,1.15,1,.22,2,.36,3,.6,2.73.67,5.47,1.33,8.18,2.08a2.6,2.6,0,0,0,2.15-.3A8.11,8.11,0,0,0,35.9,43.93ZM51.53,45a2.33,2.33,0,0,0-1.68-.43c-1.43.22-2.8-.26-4.22-.31-.82,0-1.6-.46-2.44,0a1.5,1.5,0,0,1-1.06,0,1.3,1.3,0,0,0-.82-.11,11.78,11.78,0,0,1-4,.44,1,1,0,0,0-1,.58A8.26,8.26,0,0,1,32.37,49c1.5.24,2.81-.27,4.16-.21a.59.59,0,0,0,.33-.11,5,5,0,0,1,3-.59,3.47,3.47,0,0,0,1.07,0,10.53,10.53,0,0,1,4.11,0,12,12,0,0,1,3.72,1.16c.87.38.88.38,1.27-.51a14.86,14.86,0,0,0,.69-1.78A7.71,7.71,0,0,1,51.53,45ZM19.41,46.44a22.8,22.8,0,0,0,1.2,3.33,3.67,3.67,0,0,0,.84,1.16c1.94,2,4.37,2,6.87,1.68a1.72,1.72,0,0,0,1.18-.75,22.1,22.1,0,0,0,1.57-2.71C27.15,48.23,23.4,47,19.41,46.44Zm19.94-4.9c1.59.75,3.28,0,4.84.56.09,0,.22-.07.34-.09a5.5,5.5,0,0,1,2.93.1c.22.08.41.29.67.19a3.25,3.25,0,0,1,2.19.25c2.36.7,1.88.54,2.61-1.28,0-.11.09-.22.13-.33.12-.32.17-.6-.25-.77a.79.79,0,0,1-.39-.43c-.55-1.18-1.68-1.11-2.62-1-1.41.15-2.86,0-4.21.52a.39.39,0,0,1-.24,0,7.78,7.78,0,0,0-2.68,0c-.67.1-1.48-.23-2,.14a6,6,0,0,0-1.15,1.76Zm19-33.37a6.51,6.51,0,0,1-.91.53A1.64,1.64,0,0,0,56.39,10c-.3,1.36-.54,2.73-.83,4.08a.61.61,0,0,0,.2.73,6.05,6.05,0,0,1,1.72,2.54c.16.41.37.46.71.25l1.32-.81c1.61-1,1.6-1,1.29-2.78a17.94,17.94,0,0,0-1-3.55A5,5,0,0,0,58.37,8.17ZM41.69,36.61a37.09,37.09,0,0,1,3.72-.47c.82,0,1.57.27,2.37.22a25.36,25.36,0,0,1,6,.58c.21,0,.44.14.49-.1s.43-.42.06-.71a1.76,1.76,0,0,1-.5-1.16.76.76,0,0,0-.38-.56,6,6,0,0,0-3.29-.77c-1.43.12-3-.1-4.31.59a2.94,2.94,0,0,0-3.1,1.47A7,7,0,0,1,41.69,36.61ZM58.23,22v1.92c0,.29,0,.54.4.63a2.39,2.39,0,0,0,2.92-2.06,21.84,21.84,0,0,0-.5-5c-.07-.44-.33-.49-.68-.29l-2,1.21a.64.64,0,0,0-.28.83A9.65,9.65,0,0,1,58.23,22ZM57.94,96c0,.28.22.46.31.4.63-.42,1.09,0,1.58.28.07,0,.16.21.26,0,.26-.51.59-.28.87,0a5,5,0,0,0,3.35,1,14.38,14.38,0,0,1,2.85.19c1,.23,1.11.1,1.1-1,0-.47,0-.95,0-1.43s-.22-.62-.65-.58a2.42,2.42,0,0,0-.47,0A65.65,65.65,0,0,1,57.94,96Zm5.76-81.2,1.6,1.64c1.51,1.55,1.51,1.55,3.27.26l.09-.07c.67-.51.69-.56.18-1.2a12.54,12.54,0,0,0-3.22-3A16,16,0,0,1,63.7,14.75ZM19.93,55.46l-1.54,2.37c-.21.3-.3.57.07.79a11.34,11.34,0,0,0,2.7,1.23c1,.26,1.31,0,1.55-1.07a9.5,9.5,0,0,0,.19-1.17c.05-.6-.18-1-.75-1A3.39,3.39,0,0,1,19.93,55.46ZM70.85,21.61a9.48,9.48,0,0,1-1.54.61c-.51.11-.66.29-.53.8a14.15,14.15,0,0,1,.28,3.67c0,.16,0,.31,0,.47a.32.32,0,0,0,.28.33,2.09,2.09,0,0,0,2.27-1.7A13.92,13.92,0,0,0,70.85,21.61ZM21.4,52.07a3,3,0,0,0-.94,1.21c-.55,1-.23,1.39.48,2.06a3.31,3.31,0,0,0,1.9.57A1.71,1.71,0,0,0,25,53.83a.39.39,0,0,0-.37-.38A7.23,7.23,0,0,1,21.4,52.07Zm39.38-27a4.14,4.14,0,0,1-1.67.3c-.54-.08-.72.26-.75.68a11.48,11.48,0,0,1-.88,3.32.56.56,0,0,1,0,.12c-.18.36.05.52.34.61a2.29,2.29,0,0,0,2.93-1.69A11.93,11.93,0,0,0,60.78,25.06ZM46.57,30.55c3.06.1,6,.37,8.7,1.86.16.09.34.21.53,0a.66.66,0,0,0,.2-.75,6.52,6.52,0,0,1-.46-1.35.56.56,0,0,0-.49-.45,11.45,11.45,0,0,0-4-.12,8.1,8.1,0,0,1-3.29,0C46.94,29.57,46.9,29.6,46.57,30.55ZM71.13,19.36a2.44,2.44,0,0,0-1-2.19.58.58,0,0,0-.91-.05c-.57.49-1.51.75-1.76,1.33s.35,1.46.55,2.21c0,.12,0,.24,0,.35,0,.51.28.66.8.5a6.21,6.21,0,0,0,1.51-.67A1.26,1.26,0,0,0,71.13,19.36ZM18.85,63.47c1.24.06,1.41-.06,1.67-.88.07-.23.14-.45.2-.68.3-1.17.31-1.19-.84-1.65-.59-.24-1.17-.95-1.77-.59s-.68,1.12-.94,1.74A3.34,3.34,0,0,0,17,62a.6.6,0,0,0,.23.63A4.87,4.87,0,0,0,18.85,63.47ZM54.09,40.22a16.89,16.89,0,0,1-1.54,3.88,4.2,4.2,0,0,0-.17.91.3.3,0,0,0,.09.31,1.06,1.06,0,0,0,1.71-.09,20.69,20.69,0,0,0,1.91-4.4A9.25,9.25,0,0,1,54.09,40.22ZM51.84,46a32.67,32.67,0,0,1-2.09,5.12c-.12.25-.3.53-.06.76a1.1,1.1,0,0,0,1,.29c.32-.07.41-.37.55-.59a25,25,0,0,0,2.12-5Zm7.52-15.13c-.57,0-1.09,0-1.6,0a.59.59,0,0,0-.69.49A19.57,19.57,0,0,1,56,34.24c-.21.47,0,.67.37.82a1.51,1.51,0,0,0,2-.69A11.33,11.33,0,0,0,59.36,30.88Zm12.53-.53c0-.3,0-.82-.12-1.33-.22-1.25-.24-1.25-1.44-.86a1.4,1.4,0,0,1-.34.08c-.44.05-.62.24-.49.71a10.62,10.62,0,0,1,.27,3.18c0,.42.25.56.6.55a1.34,1.34,0,0,0,1.52-1.53ZM57.47,35.93c-.69.08-1.3-.27-1.73-.12s-.49,1-.78,1.52-.35.89-.6,1.29a.52.52,0,0,0,.24.86,4,4,0,0,0,1,.42,1,1,0,0,0,1.34-.79A15.44,15.44,0,0,0,57.47,35.93Zm14.41,5.3a8.55,8.55,0,0,0-.26-2.69c-.09-.52-.53-.36-.87-.4s-.5,0-.49.35A36,36,0,0,1,70,42.65c0,.73.17.93.76,1s1.07-.23,1.1-.9C71.89,42.26,71.88,41.82,71.88,41.23ZM49.48,52.78c-.33.87-.64,1.69-1,2.49S47.81,57.12,47.4,58c-.2.44-.12.65.33.8s.74.14.92-.39c.29-.82.66-1.61,1-2.43s.57-1.56.84-2.35c.14-.41,0-.7-.47-.71A1.94,1.94,0,0,1,49.48,52.78Zm20.77-8.24a19.61,19.61,0,0,1-.23,3.9c0,.21-.08.48.2.62a1,1,0,0,0,1.41-.85,13.34,13.34,0,0,0-.31-3.78Zm1.31-11.22a4.39,4.39,0,0,0-1.53.3,6.89,6.89,0,0,1,.09,3c-.13.6-.05.69.54.72.79.05,1-.15,1.18-1A10.57,10.57,0,0,0,71.56,33.32Zm-.16,24.8h0c0-.76,0-1.52,0-2.27,0-.22-.07-.42-.33-.39s-.5,0-.57.33a1.45,1.45,0,0,0,0,.36,10.27,10.27,0,0,1-.41,3.53,1.46,1.46,0,0,0,0,.59.81.81,0,0,0,.82.74c.47,0,.55-.34.54-.74C71.39,59.55,71.4,58.83,71.4,58.12Zm-.13-8.2c-1,.19-1,.19-1,1.14a13,13,0,0,1-.09,2.86c-.1.48,0,.69.49.71s.73,0,.78-.61A11.15,11.15,0,0,0,71.27,49.92ZM50.71,23.62a28.26,28.26,0,0,0-1.13,2.86c.28,0,.48,0,.68.05s.45.14.68.18c.54.1,1.18-.14,1.2-.48a7.64,7.64,0,0,0-.51-3.67c-.29.25-.58.29-.28.68a5.19,5.19,0,0,1,.62,1.4.39.39,0,0,1-.26.57c-.25.07-.35-.18-.4-.34A2.29,2.29,0,0,0,50.71,23.62Zm-20,28.1a8,8,0,0,0,3.1-.67.8.8,0,0,0,.57-.92c-.08-.53-.52-.55-.93-.52-1.05.06-2.05.22-2.48,1.41C30.94,51.24,30.76,51.41,30.75,51.72Zm14-18.11a6.1,6.1,0,0,0,2.21-.36,2.71,2.71,0,0,0,1.31-1.62.3.3,0,0,0-.13-.4,2.08,2.08,0,0,0-2,.3C45.67,32.17,45.24,32.83,44.71,33.61ZM48,59.75c-.47-.13-.84-.34-1.11.18a29.38,29.38,0,0,0-1.53,3.61c-.12.33.14.39.41.41s.42-.16.55-.37A11,11,0,0,0,48,59.75Zm-.2-30.67a11,11,0,0,0,1.08.29,1.73,1.73,0,0,0,2.08-1.3c.19-.59.07-.7-.58-.8a1.63,1.63,0,0,0-2,1A4.37,4.37,0,0,1,47.78,29.08ZM71.36,68.3V66.74c0-.29,0-.55-.42-.57s-.46.2-.46.52a22.55,22.55,0,0,1-.36,3.07c-.06.5.14.65.56.68s.7-.1.69-.58S71.36,68.82,71.36,68.3ZM41.09,38.69c1.75.28,3.13-.32,3.6-1.74a5.91,5.91,0,0,0-1.88.13A1.73,1.73,0,0,0,41.09,38.69Zm-4.24,5.06.09.28,3.43-.31a1,1,0,0,0,.33-.13.42.42,0,0,0,.15-.62c-.29-.55-1.79-.94-2.2-.52A6.62,6.62,0,0,1,36.85,43.75Zm14.6-12a11.1,11.1,0,0,0-1.13-.31,1.84,1.84,0,0,0-1.27,0c-.21.13-.25.54-.38.81s-.28.56-.46.94C49.45,33,50.76,33.2,51.45,31.73Zm.4-4.34L51.28,29a3.72,3.72,0,0,0,1.68.09,1,1,0,0,0,.92-1.26c-.06-.4-.4-.32-.62-.45s-.39-.16-.56.15C52.3,28.35,52.1,27.71,51.85,27.39ZM70.22,61.86a31.21,31.21,0,0,1,.28,3.19c0,.24.13.34.37.34s.47-.12.48-.41c0-.72,0-1.43,0-2.15C71.36,61.9,71.35,61.9,70.22,61.86ZM44.57,38.52h1.34a1.88,1.88,0,0,0,1.57-.94c.29-.42.16-.64-.36-.69-1-.11-1.82,0-2.17,1.09A3.28,3.28,0,0,1,44.57,38.52ZM37.16,49.27c.22.33,0,1,.51.95a2.59,2.59,0,0,0,2.13-.83.59.59,0,0,0,.15-.54c-.07-.25-.31-.21-.49-.2A5.08,5.08,0,0,0,37.16,49.27ZM71.37,77a4.18,4.18,0,0,0-.15-1.65.39.39,0,0,0-.46-.28c-.2,0-.24.18-.25.34,0,.87,0,1.75,0,2.63,0,.32.2.52.56.39s.66-.12.47-.61A3.82,3.82,0,0,1,71.37,77ZM69.16,93.56c.37-2.2.73-4.4,1.13-6.6,0-.29.06-.45-.25-.49s-.26.21-.29.39c-.16,1.37-.25,2.76-.52,4.11A7,7,0,0,0,69.16,93.56ZM41.91,75.23c.08,0,.25,0,.29-.11a19.24,19.24,0,0,0,1.22-2.7c.11-.3-.22-.26-.34-.38a.24.24,0,0,0-.4.08c-.41.86-.82,1.71-1.19,2.59C41.38,75,41.64,75.12,41.91,75.23ZM17.69,67.77a1.78,1.78,0,0,0,.38-.21c.86-.81.88-2,1.19-3,0-.18-.11-.28-.29-.3s-.45,0-.51.2A12.31,12.31,0,0,0,17.69,67.77Zm27-24.19c1-.18,2.14.47,2.91-.6-.1-.11-.15-.2-.22-.22-.38-.1-.76-.2-1.15-.27C45.36,42.32,45.11,42.49,44.67,43.58Zm1.24,21.28c-.78-.1-.81-.11-1,.29-.26.57-.45,1.18-.71,1.76-.18.39.08.51.33.61s.41-.06.5-.33C45.31,66.41,45.62,65.64,45.91,64.86ZM48,38.24a2.61,2.61,0,0,0,2.69-1C48.67,36.67,48.67,36.67,48,38.24Zm-3.72,4.67a6.2,6.2,0,0,0-2.19-.48c-.22,0-.59,0-.51.29s0,.78.37.79C42.71,43.55,43.61,43.87,44.24,42.91Zm-.9,5.7c-1.65-.39-2.5,0-2.94,1.43A5.17,5.17,0,0,0,43.34,48.61ZM19.62,72.17c.92-.78.65-1.65.31-2.52-.21-.55-.45-1.09-.76-1.84C19,69.47,19.57,70.81,19.62,72.17Zm31-28.73c-1.62-.9-2.14-.79-2.55.52A2.66,2.66,0,0,0,50.58,43.44Zm-5.84,25c-.42-.14-.77-.34-.91.31a15.69,15.69,0,0,1-.58,2c-.1.31,0,.46.23.56s.34-.12.39-.3C44.17,70.19,44.44,69.34,44.74,68.44Zm26.41,4.44H71.1c0-.43,0-.87,0-1.31s-.27-.33-.52-.33-.28.09-.26.17a12.57,12.57,0,0,1,.22,2.6.29.29,0,0,0,.34.25c.2,0,.27-.14.27-.31C71.15,73.59,71.15,73.24,71.15,72.88ZM53.62,37.68c-1.39-.63-2.19-.47-2.87.53C52.38,38.36,52.49,38.34,53.62,37.68Zm-14,44.48a15.14,15.14,0,0,0,.9-2.38c.06-.18.18-.33-.12-.44s-.36,0-.45.18c-.26.57-.49,1.16-.8,1.69S39,82.05,39.59,82.16ZM51.28,33.23a11.76,11.76,0,0,0,1.35,0c.43-.06,1-.23.94-.72s-.69-.41-1.07-.55c-.19-.07-.38.09-.5.26S51.59,32.78,51.28,33.23ZM41.74,76.42c.12-.41-.1-.39-.22-.46s-.28-.07-.35.12c-.24.67-.49,1.33-.75,2-.09.23-.06.38.15.48a.36.36,0,0,0,.51-.17C41.34,77.68,41.56,77,41.74,76.42ZM35.08,50.89c.34-.09.65-.15,1-.25s.67-.36.58-.88c-.06-.3-.2-.42-.47-.39s-.93-.15-1,.54C35.14,50.21,34.87,50.48,35.08,50.89ZM18.15,74.79c1.44-1.69.16-3.27.32-4.13C18.61,71.55,18.15,73.05,18.15,74.79Zm36.26-46.3c0,.35-.06.69.44.67a1.08,1.08,0,0,0,.9-1.06c0-.47-.44-.56-.77-.55C54.35,27.57,54.45,28.1,54.41,28.49Zm-.84,5.13A2.45,2.45,0,0,0,55,34a.51.51,0,0,0,.35-.71A.86.86,0,0,0,54,33.09C53.87,33.26,53.72,33.44,53.57,33.62ZM38.86,82.77c-.08,0-.19,0-.22,0a5,5,0,0,0-.89,1.89.37.37,0,0,0,.27.35.23.23,0,0,0,.28-.16c.27-.56.53-1.13.8-1.69C39.22,82.93,39,82.88,38.86,82.77Zm31.9-3.35c-.5,1.41-.55,2.26-.2,3C70.53,81.39,71,80.44,70.76,79.42Zm-55-13.57A4.66,4.66,0,0,0,17.23,64c.12-.19,0-.3-.12-.38s-.29,0-.37.17A8.14,8.14,0,0,0,15.74,65.85ZM70.23,85.51A5.1,5.1,0,0,0,70.46,83,2.6,2.6,0,0,0,70.23,85.51ZM34.72,91.37l.24.13a15.43,15.43,0,0,0,1.59-2.9l-.22-.12Zm1.81-3.72a4.13,4.13,0,0,0,1.15-1.58c.08-.14,0-.22-.09-.29a.21.21,0,0,0-.37.07A5.39,5.39,0,0,0,36.53,87.65ZM52.75,20.9c-.25.52.16.89.22,1.33a14.62,14.62,0,0,0,.37,1.43A4.53,4.53,0,0,0,52.75,20.9ZM68.83,97.16a5.05,5.05,0,0,0,.31-2.46A4.5,4.5,0,0,0,68.83,97.16ZM51.72,43.85c0-.22-.15-.24-.3-.2s-.29.16-.27.29.2.23.35.23S51.69,44,51.72,43.85ZM24.55,98.36c.07.09.09.13.11.14s.28.31.5.11l.26-.21c-.14,0-.28-.06-.43-.07Zm28.37-1.65a1.81,1.81,0,0,0,.88.26A.65.65,0,0,0,52.92,96.71ZM25.28,99.82a3.57,3.57,0,0,0,.19-.39s-.13-.1-.17-.08-.18.22-.17.38S25.18,99.87,25.28,99.82ZM5.59,93.09c-.07.19-.13.28-.11.33s-.14.29.11.23A3.07,3.07,0,0,0,5.59,93.09Zm3.56,15.68a.63.63,0,0,0,0,.65A.66.66,0,0,0,9.15,108.77ZM53.52,25a.69.69,0,0,0,0-.62C53.41,24.51,53.48,24.68,53.52,25Zm1.71-5.22c0,.06-.09.13-.09.19a.58.58,0,0,0,.07.21.72.72,0,0,0,.09-.2A1,1,0,0,0,55.23,19.75ZM51.6,96.9l-.18.1a1.72,1.72,0,0,0,.21.07.47.47,0,0,0,.19-.06C51.81,96.87,51.69,96.91,51.6,96.9Zm2.9-.36.19.12s.05,0,.08-.07-.09-.12-.14-.14S54.48,96.47,54.5,96.54ZM4.55,95.91a1.38,1.38,0,0,0,0,.2c0,.11.07.12.11,0a.71.71,0,0,0,0-.2Zm50.6-50.08L55,45.7a.23.23,0,0,0-.06.07c0,.08,0,.14.09.14S55.1,45.86,55.15,45.83Zm.32-24.73s0-.07,0-.09-.06-.05-.06.06ZM11.82,72.39s0-.08,0-.1-.1-.07-.12,0,0,.06,0,.09ZM8.66,102a1.3,1.3,0,0,0-.08.17s0,.06.06.09a1.42,1.42,0,0,0,.08-.18S8.68,102,8.66,102Zm8.57-.41-.09,0,0,.06Zm3-.77s0,.07,0,.07a.12.12,0,0,0,.1,0c.1,0,.09-.08,0-.11S20.23,100.79,20.19,100.79Zm-16,.21-.07-.22s-.07.06-.07.09,0,.14.06.22Zm-.3-1.14a1.08,1.08,0,0,0-.08.19s0,.06.06.09.08-.06.07-.08A1.46,1.46,0,0,0,3.87,99.86Zm22.32-1s-.08.05-.08.07a1.52,1.52,0,0,0,.06.2s.07-.06.07-.08S26.2,98.94,26.19,98.88ZM3.63,99a.13.13,0,0,0,0,.07s0,.06,0,.09,0,0,0-.08A.31.31,0,0,0,3.63,99Zm45.55-1.5-.09,0v0Zm-39.77-2s0-.07,0-.09-.09-.07-.11,0,0,.06,0,.09ZM5,94.9l0,.11,0-.11Zm2.91,10s0,.06,0,.09a.25.25,0,0,0,0,.12s.06-.07.06-.1A.35.35,0,0,0,8,104.91ZM20.74,94.52l-.1,0s.05.07.06.07l.14-.08Zm40,2.75,0-.06h-.06ZM8,97.63l0,.08H8Zm2.16,0,0,.06h0Zm13.24,2.69-.07,0v.08Zm1.64-.07,0,.06H25Zm-4.34,1.32.05-.08h-.08Zm-12.89,2.1-.08,0v.08Zm-.31.54,0-.08H7.42Zm2.21.19-.06,0v.07Zm.2.4,0,.08H9.9ZM54.74,16.29l0,.07h.07Zm4.08,19.07,0-.08h-.09ZM11.55,69.56l-.05.08h.08Zm-.74.84,0-.06h-.06ZM12,71.83l.05-.07H12Z"/><path d="M35.89,91.82c.37.3.75.59,1.11.91a.3.3,0,0,1,0,.42c-.14.18-.29.09-.42,0-.4-.29-1-.43-1-1.1v0l.27-.28Z"/></g></g></svg>