<svg xmlns="http://www.w3.org/2000/svg" viewBox="0 0 64.36 62.26"><title>Oikopleura</title><g id="Layer_2" data-name="Layer 2"><g id="Oikopleura"><path d="M24.82,56.65a39.45,39.45,0,0,0,6.46-.42,23.48,23.48,0,0,0,8.3-3.1c2.39-1.42,4.74-2.93,7.12-4.37a18.25,18.25,0,0,1,4.7-2.28,10.07,10.07,0,0,1,6.33.14,8,8,0,0,1,4.84,4.79c.58,1.56,1.12,3.13,1.67,4.7,0,.08.09.14.1.22s0,.42-.18.51-.4-.06-.47-.25c-.2-.55-.41-1.1-.58-1.67A9.41,9.41,0,0,0,59,49.57c-2.19-1.42-4.47-1.08-6.74-.2A16.9,16.9,0,0,0,48,52.05c-1.82,1.43-3.59,2.92-5.49,4.24a35.82,35.82,0,0,1-5,2.53A35.92,35.92,0,0,1,28,61.67a29.87,29.87,0,0,1-7.61.52,19.18,19.18,0,0,1-6.7-1.47A41.41,41.41,0,0,1,8.4,57.51,24.84,24.84,0,0,1,3,52.6a13.82,13.82,0,0,1-2.75-6A15.86,15.86,0,0,1,1.83,36.41C3,34,4.6,31.87,6,29.59a32.69,32.69,0,0,0,4.3-9.76,6.68,6.68,0,0,0,.07-1.19c0-1.64,0-1.64-1.69-1.78a8.29,8.29,0,0,1-7.43-6.57,6.27,6.27,0,0,1-.1-3.19A8.64,8.64,0,0,1,4.4,2.38,13.41,13.41,0,0,1,13.59.05a14.1,14.1,0,0,1,3.22.82A5.2,5.2,0,0,0,21.09.58,3,3,0,0,1,22.34.23a2.12,2.12,0,0,1,1.74.63c.57.61,1.15,1.22,1.73,1.82.25.26.49.58.91.24a.56.56,0,0,1,.23,0c.6-.12.9.3,1.33.6s.84-.58,1.4-.19c.09.07.27.09.3.17.38.84,1.38,1.29,1.48,2.28A5.1,5.1,0,0,1,31,8.62c-.31.64-.59,1.17-1.35,1.35-.22.06-.41.36-.57.58a4.21,4.21,0,0,1-3.5,1.76,3.84,3.84,0,0,0-.59,0A1.79,1.79,0,0,0,23.34,14c-.19,1.31-.61,1.74-2,1.7a21.22,21.22,0,0,0-6.14.69c-1.63.45-1.76.39-1.88,2.37a39.14,39.14,0,0,1-.66,5.92,21.72,21.72,0,0,1-3.2,7.13,21.08,21.08,0,0,0-3.58,8.36,14.55,14.55,0,0,0,.72,7.29,13.78,13.78,0,0,0,4,5.7,12.31,12.31,0,0,0,5,2.62A34,34,0,0,0,24.82,56.65ZM6.27,11.79c.06,0,0,.28.18.07l-.2,0A8.86,8.86,0,0,1,5.32,9a4.31,4.31,0,0,0-.82-1.5C4,6.63,3.1,6.55,2.44,6.06a4.08,4.08,0,0,0-.62,2c.68.15,1.36.3,1.38,1.19,0,.1,0,.19.2.21.49,0,.65.52.94.82A6.38,6.38,0,0,0,6.27,11.79ZM15.63,6c-.09-.49.2-.62.61-.69.7-.1,1.41-.23,2.28-.38A15.4,15.4,0,0,0,9.58,4.5,3.71,3.71,0,0,0,8,5.23,1.85,1.85,0,0,0,7.11,7c1-.47,2-.54,2.81-1a5.06,5.06,0,0,1,5.29-.1.56.56,0,0,0,.45.07c0,.2.11.29.23.38,1.18.86,2.16,2,3.6,2.52.22.08.46.22.31.51s-.38.23-.62.12-.45-.32-.75-.29c-.11.95-.12,1,.71,1.07a2.85,2.85,0,0,1,.91.24c.45.18.82.29,1.24-.18a2.38,2.38,0,0,1,1.59-.74,5.76,5.76,0,0,0,3-1.28,7.35,7.35,0,0,0,1-.81c.22-.22.51-.53.8-.18s-.12.49-.32.66a9.07,9.07,0,0,1-4.6,2.33,1.42,1.42,0,0,0-1.17.7l0,0,0-.06a12.36,12.36,0,0,1,2.15-.64,6.15,6.15,0,0,0,3.44-1.77,5.9,5.9,0,0,1,.46-.39.26.26,0,0,1,.32,0c.18.13.11.29,0,.42A3.61,3.61,0,0,1,27.7,9a6.21,6.21,0,0,1-4.16,2.07,2.58,2.58,0,0,0-1.51.63c-.25.24.24.62.15,1a1.93,1.93,0,0,0,0,.48,2,2,0,0,1-.53,1.3.37.37,0,0,1-.52.14c-.24-.13-.17-.32,0-.49a1.39,1.39,0,0,0,.15-.19c.54-.93.54-1-.16-1.85a.94.94,0,0,1-.17-.55c.06,0,.27,0,.12-.17l-.1.19c-.65-.22-1.31-.45-2-.66-.45-.14-.81,0-.86.5a7.56,7.56,0,0,1-.78,2.08l0,0c-.25.21-.7.36-.13.77a.24.24,0,0,1-.21.43c-.71-.28-1.18.13-1.74.39a2.73,2.73,0,0,1-1.12.36c-1,0-2.09.07-3.12,0a3.22,3.22,0,0,1-2.74-2c-.08-.19-.15-.41,0-.55s.46.06.55.26a3,3,0,0,0,2.64,1.74,5.17,5.17,0,0,0,3.21-.34c-1-1.2-1.28-1.26-2.44-.57l-.29.21a.26.26,0,0,1-.33,0,.31.31,0,0,1,0-.43,2,2,0,0,1,2.62-.59c.45.29,1,.54,1,1.2.34-.2.6-.26.39-.74a2,2,0,0,0-1.81-1.26,2.92,2.92,0,0,0-2,.57c-.45.29-1.05.41-.73,1.17a.28.28,0,0,1-.21.36.22.22,0,0,1-.28-.16c-.14-.53-.41-.85-1-.76-.09,0-.28-.15-.22-.22.33-.37-.37-.85.13-1.18,1.1.81,1.11.82,2.27.05A2.06,2.06,0,0,1,13,11.75l1.32,0c.41,0,.69,0,.9-.52a1.88,1.88,0,0,1,1.68-1.17c.37,0,.71,0,.83-.48a1,1,0,0,0-.33-1.15c-.73-.55-1.43-1.14-2.17-1.7A4.63,4.63,0,0,0,13.66,6,3.13,3.13,0,0,0,11,6.38c1.45-.07,2.69.73,4.08.84.2,0,.46,0,.44.28s-.34.28-.55.28a14,14,0,0,1-2.56-.51c-1-.2-2-.69-3,0a.27.27,0,0,1-.23,0c-.65-.43-1.1.1-1.6.34s-.4.42-.24.79a3.32,3.32,0,0,0,1,1.2c.66.54.61,1.34.82,2.05a.28.28,0,0,1-.23.36.36.36,0,0,1-.4-.18,1,1,0,0,1-.1-.34,2.54,2.54,0,0,0-1-1.83,1.94,1.94,0,0,1-.66-1c-.15-.6-.5-.47-.9-.37.62,2.64.62,2.64,2.23,3.9-.83,1.07-.8,1-1.92.38-.21-.11-.4-.25-.6-.38-.82-.51-1.42-1.26-2.18-1.83-.08-.06.08-.32-.16-.22-.05,0,0,.2.18.2a4,4,0,0,0,1.89,3,15.82,15.82,0,0,0,3.19,1.3,2.11,2.11,0,0,1,1.13.83.27.27,0,0,1,0,.33.23.23,0,0,1-.32,0,13.76,13.76,0,0,0-3.15-1.36A5.12,5.12,0,0,1,2.64,9.7a1.18,1.18,0,0,0-.54-1,2,2,0,0,0,0,1.56,7.5,7.5,0,0,0,7.26,5.84,6.38,6.38,0,0,1,1.39.31.67.67,0,0,1,.55.69,27.54,27.54,0,0,1-.52,3.53A35.43,35.43,0,0,1,6.45,30.1c-1.28,2.1-2.77,4-3.85,6.29A16,16,0,0,0,.78,45.24a13.76,13.76,0,0,0,3.49,7.81,30.78,30.78,0,0,0,7.51,5.86,18.36,18.36,0,0,0,2.84,1.51,17.71,17.71,0,0,0,4.76,1A31,31,0,0,0,27,61.16a37.77,37.77,0,0,0,10.14-2.92,33.63,33.63,0,0,0,5.4-2.79c2-1.41,3.85-3,5.75-4.48a15.81,15.81,0,0,1,4.77-2.64,16.07,16.07,0,0,1,3.63-.4,8.37,8.37,0,0,0-2.7-.24,16.91,16.91,0,0,0-6.18,3c-1.61,1.1-3.2,2.22-4.91,3.16a48.59,48.59,0,0,1-11.68,5A38.56,38.56,0,0,1,24.71,60a24.68,24.68,0,0,1-7.37-.44,21,21,0,0,1-7.66-3.11,25.77,25.77,0,0,1-6-6.12A10,10,0,0,1,2,46.67a14.12,14.12,0,0,1,.94-9,56.07,56.07,0,0,1,4.17-6.95,28.08,28.08,0,0,0,3.75-8.31c.39-1.55.64-3.11.91-4.67,0-.23,0-.53.37-.45s.34.28.31.55a41.24,41.24,0,0,1-1.64,7.3,35.09,35.09,0,0,1-4.74,9.18,15.16,15.16,0,0,0-2.88,10,9.37,9.37,0,0,0,1.17,4.32,19.9,19.9,0,0,0,4.15,4.9,24.74,24.74,0,0,0,6.76,3.75,17,17,0,0,0,6.38,1.27c2.19,0,4.36-.28,6.54-.45a27.93,27.93,0,0,0,8.13-2.06A42.36,42.36,0,0,0,46,50.65a18,18,0,0,1,7.35-3.47,8.35,8.35,0,0,1,2.73-.06c.36.05,1.05,0,1,.77,0,.07.22.2.36.24a10.67,10.67,0,0,1,3.86,2.29s0,.26.15.1l-.18-.08c0-.15,0-.36-.09-.45a9.76,9.76,0,0,0-3.24-2.61A10.24,10.24,0,0,0,52.27,47,16.13,16.13,0,0,0,47,49.37c-3.1,1.87-6.14,3.82-9.34,5.52a23.66,23.66,0,0,1-7.83,2.25,36.12,36.12,0,0,1-7,.25A42.58,42.58,0,0,1,18.14,57c-1.22-.18-2.38-.61-3.58-.85a5.43,5.43,0,0,1-2.08-.87A22.66,22.66,0,0,1,8.56,52,14.67,14.67,0,0,1,5.1,44a15.45,15.45,0,0,1,1.53-8.47A50.36,50.36,0,0,1,9.75,30a17.72,17.72,0,0,0,2.19-5,28.13,28.13,0,0,0,.81-7.1c0-1.36.19-1.69,1.45-2.11a15.41,15.41,0,0,1,5.26-.92c.64,0,1.28,0,1.91,0s1.16-.33,1.15-1c0-1.26.86-1.79,1.67-2.43.26-.21.47-.14.77-.09a3.2,3.2,0,0,0,3.37-1.24c.31-.42.56-.87,1.09-1.05.28-.1.28-.25.2-.55a6.38,6.38,0,0,1-.36-2.22c0-.71,0-1.42,0-2.15a.8.8,0,0,0-.29.05c-.82.38-.83.39-1.43-.26-.2-.23-.37-.35-.7-.19a1.25,1.25,0,0,1-1.59-.44c-.53-.59-1.09-1.17-1.66-1.73a1.66,1.66,0,0,0-2.06-.23,1.47,1.47,0,0,0-.79,1.77,4.73,4.73,0,0,0,.56,1.43.43.43,0,0,1-.11.66c-1.14-.78-.94-2.16-1.38-3.3a3.67,3.67,0,0,1-2.71-.09c-.49-.16-1-.21-1.49-.39A11.7,11.7,0,0,0,8,1.51,8.57,8.57,0,0,0,2.86,5.35c.26.31.49.54.91.28a1.22,1.22,0,0,1,.77-.28c.71.17,1.11-.26,1.55-.66A7.19,7.19,0,0,0,7.27,3.34a2.11,2.11,0,0,1,1.1-.88c.27-.1.64-.16.77.35A4,4,0,0,0,7.48,4.1c-.78,1.09-1.65,2.12-3.26,2,.8,1,1,1.25,1.46,1.34s.82,0,.78-.63a2.26,2.26,0,0,1,.83-1.9A4.65,4.65,0,0,1,9.53,3.85a19.05,19.05,0,0,1,2.58-.44,15.82,15.82,0,0,1,3.7.09c1.06.19,2,.63,3.09.85S20.67,5.56,21.65,6s1,1.32.09,2c-.13.1-.27.17-.42.27l.57.17c.92.24,1.11.13,1.41-.82.07-.2.13-.38.35-.44A3.52,3.52,0,0,1,25.16,7c.17,0,.32.08.29.28a.24.24,0,0,1-.23.22,1.54,1.54,0,0,0-1.38,1,1.26,1.26,0,0,1-1.3.68A9.63,9.63,0,0,1,18.4,7.82c-.63-.32-1.47-.65-1.72-1.2S16.06,6.08,15.63,6Zm6.18,1A5.06,5.06,0,0,0,16.9,6a8.36,8.36,0,0,1,1,.66A8.25,8.25,0,0,0,20.39,8c.18.07.38.23.49,0C21.06,7.54,21.65,7.55,21.81,7Zm-5.43,6.4A2.81,2.81,0,0,0,17.25,12c.11-.41.63-1,.09-1.27s-.95.22-1.33.56a.84.84,0,0,0-.26,1.06A2.67,2.67,0,0,0,16.38,13.41Zm13.79-7c-.06-.46.6-.89,0-1.43A2.57,2.57,0,0,0,30.17,6.37ZM30.44,8c.46-.22.28-.57.22-.91C30.39,7.38,30.17,7.63,30.44,8ZM6.86,12.2l0-.07H6.83Z"/><path d="M23.05,5.08c.22-1,.49-1.32,1.23-1.25a1.86,1.86,0,0,1,1.45,1.53.94.94,0,0,1-1.17.86c-.95-.37-2.12-.41-2.66-1.55a2.5,2.5,0,0,1-.29-1.25,1.39,1.39,0,0,1,.88-1.18,1.29,1.29,0,0,1,1.39.45A.38.38,0,0,1,24,3a.4.4,0,0,1-.3.15A2.65,2.65,0,0,1,23.21,3a.73.73,0,0,0-.87.14c-.31.35-.15.67,0,1a2.4,2.4,0,0,0,.7.94l.05.08,0,0Zm1.11-.68c-.19,0-.31.1-.32.29a.83.83,0,0,0,.69.82c.15,0,.38,0,.42-.12.11-.42-.16-.66-.49-.84Z"/><path d="M9,8.77c.79-.77,1.68-.36,2.54-.27a1.13,1.13,0,0,1,.33.13,4.23,4.23,0,0,0,3.66,0L16,8.5c.22-.09.39,0,.46.19s-.07.38-.26.45c-.34.12-.69.2-1,.31A4.25,4.25,0,0,1,12,9.36,12.52,12.52,0,0,0,9,8.77Z"/><path d="M17.31,13.48a3.18,3.18,0,0,1,1.5-.27c.7.07,1.27-.09,1.38-.93a.24.24,0,0,1,.23-.22c.21,0,.26.14.28.3a1.37,1.37,0,0,1-1.28,1.56,10.56,10.56,0,0,1-1.78.06c-.34,0-.3-.29-.31-.52Z"/><path d="M12.14,1.77c-.26,0-.57,0-.55-.3s.51-.21.76-.39.36.13.38.32C12.75,1.84,12.34,1.68,12.14,1.77Z"/><path d="M10.42,2c-.18,0-.33-.09-.3-.28s.28-.44.58-.45.35,0,.36.22C11.06,1.86,10.72,1.9,10.42,2Z"/></g></g></svg>