<svg xmlns="http://www.w3.org/2000/svg" viewBox="0 0 39.34 44.25"><title>Oithona</title><g id="Layer_2" data-name="Layer 2"><g id="Oithona"><path d="M16.07,39c-1.22.48-2.24,1.32-3.41,1.89A31.78,31.78,0,0,1,7,43.38a1.6,1.6,0,0,1-.68.15A2,2,0,0,1,6,43.41c.14-.49.54-.51.91-.64a41.11,41.11,0,0,0,7.59-3.68c-.76-.14-1.25.65-1.91.28-.07-.4.28-.47.49-.58a7.07,7.07,0,0,1,1-.4,5.47,5.47,0,0,0,3.54-3,1.87,1.87,0,0,0,.18-.55,4.6,4.6,0,0,1,.71-1.76.72.72,0,0,0,.08-.76A15.44,15.44,0,0,1,18,30.4c-.06-.23-.05-.45-.24-.64a1.69,1.69,0,0,1-.27-2.1,5.81,5.81,0,0,0,.16-2.76c-.72.6-1.25,1.07-1.8,1.5s-1.1.79-1.65,1.18c-.13.09-.29.18-.43,0s0-.38.11-.5c.37-.3.76-.58,1.14-.88-.06-.32-.49,0-.47-.49.36-.52,1.19-.68,1.69-1.31a8.33,8.33,0,0,1-1.49-2.92c-.11-.43-.11-.86-.21-1.29-.14-.67-.2-1.33-1-1.58-.28-.09-.5-.36-.26-.66s.41,0,.59.15.24.21.43.09c.26-.48-.17-.7-.42-1a22.19,22.19,0,0,1-2.16-2.39c-.11-.17-.3-.32-.09-.51s.37,0,.51.11a9.32,9.32,0,0,0,1.55,1.46l.05.09,0,0-.11-.09c-.26-1-.8-1.89-1.13-2.86-.07-.19-.1-.41.13-.51s.38.07.47.26.14.37.22.55c.27.65.56,1.31.83,2a1,1,0,0,0,.37.51,3,3,0,0,0-.8-3.37A9,9,0,0,1,12,10.06c-.08-.17-.16-.4.05-.54s.38.08.51.28a9.77,9.77,0,0,0,1.35,1.79.26.26,0,0,0,.05.09l0,0-.13-.08a13.53,13.53,0,0,0-.54-2.43c0-.25-.36-.56.06-.69s.46.28.55.6c.21.76.47,1.51.68,2.27a2.29,2.29,0,0,0,.67,1.18c.59-1.25,1-2.55,1.68-3.76-2.84-1.94-6.21-1.74-9.41-2.36A7.74,7.74,0,0,0,7,9.61c0,.68,0,1.36,0,2,0,.29,0,.62-.38.62s-.37-.29-.35-.55a17.49,17.49,0,0,1,.12-3,8,8,0,0,0,.12-1.19l.15-.28,0-.06-.08.36c-.48.26-.39.81-.58,1.22-.08.17-.11.37-.18.56s-.2.36-.44.3S5,9.4,5.1,9.18a14.79,14.79,0,0,1,1-2.71,5.13,5.13,0,0,0-3.21-.24L.46,6.64c-.21,0-.41,0-.45-.23s.17-.3.37-.34a17.73,17.73,0,0,1,3.26-.55,1.89,1.89,0,0,0-1.19-.64,6.27,6.27,0,0,1-2-.71.42.42,0,0,1-.17-.28c0-.2.21-.24.35-.21s.45.15.68.2L6.93,5.27A9.76,9.76,0,0,0,5.21,2.35C4.86,1.86,4.44,1.43,4.06,1,3.92.8,3.64.61,3.93.38s.44.06.59.23c.38.41.77.81,1.12,1.25a14.72,14.72,0,0,1,1.9,3,1.13,1.13,0,0,0,.33-1c0-1,.37-2,.27-3a.48.48,0,0,1,0-.24c.12-.22.1-.63.49-.55s.24.38.22.6c-.1.91-.22,1.82-.33,2.72C8.27,5.75,8,5.58,10.49,5.82c.51,0,1,0,1.61,0a10.84,10.84,0,0,0-1-1.91c-.13-.23-.48-.49-.18-.71s.55.15.71.4c.37.57.7,1.15,1.06,1.73.12.19.19.44.44.54.24-.44-.11-1,.28-1.41.39,0,.39.33.39.53,0,.91.54,1.22,1.33,1.31.35,0,.7.13,1,.2.24-.24.15-.51.07-.78a10,10,0,0,0-1.22-3c-.09-.13-.19-.28,0-.42s.39-.08.51.07A4.74,4.74,0,0,1,16,3.3a6.94,6.94,0,0,1,.8,3.35.93.93,0,0,0,.33-1.12A7.29,7.29,0,0,0,16.43,3c-.12-.18-.21-.39,0-.51s.39,0,.51.21a5.12,5.12,0,0,1,.8,2.58c0,.63,0,1.26,0,2a4.22,4.22,0,0,1,3.82,0,9.66,9.66,0,0,1,.24-3.37,3.19,3.19,0,0,1,.55-1.18c.14-.16.31-.31.5-.2s.14.33,0,.51a7.46,7.46,0,0,0-.74,2.49c-.1.42-.07.43.34,1.16A5.79,5.79,0,0,1,23,4a7.54,7.54,0,0,1,.57-1.18c.16-.25.39-.68.72-.49s0,.55-.16.79A10.24,10.24,0,0,0,23,6.34c.39.31.61,0,.87,0,1,0,1.74-.4,1.73-1.57,0-.1.11-.21.19-.35.65.36.13,1,.45,1.48a5.22,5.22,0,0,0,.8-1.18c.27-.39.49-.81.76-1.21.15-.22.32-.55.64-.3s0,.41-.11.62c-.4.62-.77,1.27-1.2,2a16.41,16.41,0,0,0,3.11-.17c.61-.12.67-.37.67-.87a28.21,28.21,0,0,0-.4-3.31A2.2,2.2,0,0,1,30.59.08s.17-.1.2-.07c.49.37.37.91.42,1.42.12,1.13.27,2.26.43,3.64a17.77,17.77,0,0,1,3-4.29c.21-.21.44-.65.75-.38s-.13.52-.3.74a17.27,17.27,0,0,0-2.66,3.92c.16.3.36.1.51.06,1.79-.51,3.67-.69,5.41-1.37a1.05,1.05,0,0,1,.35-.08c.15,0,.34,0,.35.22a.39.39,0,0,1-.16.28,6,6,0,0,1-2,.71,3.89,3.89,0,0,0-1.28.55l2.3.4c.43.08.85.19,1.27.29.14,0,.16.16.15.29a.23.23,0,0,1-.22.23,9.26,9.26,0,0,1-1.18-.13c-.67-.11-1.32-.31-2-.36a4.3,4.3,0,0,0-2.72.33,18.84,18.84,0,0,1,1,2.7c.06.22,0,.4-.19.47s-.37-.09-.45-.29c-.24-.61-.23-1.31-.75-1.79,0-.07,0-.15,0-.21s.07-.22-.09-.08.1.17.15.26a25.7,25.7,0,0,1,.24,3.82c0,.34.12.86-.35.89s-.37-.5-.39-.83a11.63,11.63,0,0,1,0-1.32,8.44,8.44,0,0,0-.59-3.66c-3.14.58-6.47.43-9.41,2.31A31.39,31.39,0,0,1,24,12.62,6.45,6.45,0,0,0,25.16,9.9c.13-.38.19-.77.31-1.15a.37.37,0,0,1,.47-.26c.26.08.21.28.15.48-.21.72-.43,1.45-.62,2.17a2.54,2.54,0,0,0,0,.48l-.09,0s0,0,0,.06l.11-.12a9.32,9.32,0,0,0,1.4-1.9c.09-.15.19-.27.36-.22s.26.29.18.48a7.72,7.72,0,0,1-1.77,2.51,3,3,0,0,0-.78,3.45A20.4,20.4,0,0,0,26,13.37c.1-.22.17-.45.28-.65a.33.33,0,0,1,.41-.16.3.3,0,0,1,.16.4c-.24.63-.49,1.25-.74,1.87a3.08,3.08,0,0,0-.43,1.1L25.6,16l0,0,.09-.12a8.58,8.58,0,0,0,1.55-1.46c.14-.14.31-.3.51-.11s0,.34-.08.5a22.49,22.49,0,0,1-2.17,2.4c-.25.28-.67.5-.42,1l.12.05c.35.05.62-.69.88-.28s-.3.69-.65.87a.85.85,0,0,0-.46.76c-.08.63-.23,1.25-.35,1.88a8,8,0,0,1-1.51,3l1.83,1.32c-.18.28-.42.21-.6.33a1.09,1.09,0,0,0,.21.26c.31.25.65.47.95.72s.3.29.11.5-.3.07-.43,0c-.55-.39-1.11-.77-1.64-1.18s-1.08-.9-1.8-1.5c0,1.08-.27,1.92.14,2.76a1.67,1.67,0,0,1-.25,2.1,1.1,1.1,0,0,0-.24.64,14.59,14.59,0,0,1-.45,1.6,1.24,1.24,0,0,0,.16,1.41,1.36,1.36,0,0,1,.28.65,7.13,7.13,0,0,0,1.27,2.5A4,4,0,0,0,24.43,38a7.39,7.39,0,0,1,2.49,1.25c-.75.51-1.29-.3-2.07-.21a45.61,45.61,0,0,0,8.54,4.08c-.16.53-.5.45-.72.36-.78-.3-1.59-.46-2.35-.83A47.8,47.8,0,0,1,23.61,39c-.08-.06-.23,0-.34-.06l-.07,0,.09,0c-.05.73.44,1.25.74,1.84.46.92,1,1.81,1.49,2.71.15.25.31.55,0,.71s-.43-.14-.54-.35c-.68-1.25-1.34-2.52-2-3.77-.08-.14-.17-.27-.28-.44-.27.61.24,1.1.2,1.66,0,.2.05.41-.19.48s-.34-.12-.39-.32a11.94,11.94,0,0,1-.46-2.08c-.06-1.4-.9-2.5-1.26-3.78a.5.5,0,0,0-.13-.19,1.07,1.07,0,0,0-1.72.42s0,.09,0,.12a12.77,12.77,0,0,0-1.45,4.83c0,.19-.14.36-.19.56s-.06.53-.4.44-.16-.37-.17-.6c0-.52.36-1,.23-1.63-.76,1.39-1.47,2.69-2.19,4-.16.29-.31.86-.69.65s0-.67.17-1c.61-1.16,1.23-2.31,1.86-3.46a1.1,1.1,0,0,0,.18-.79l.07-.06Zm5.75-2.17c0,.13.11.23.27.22a1.23,1.23,0,0,0,.46,1c.06,0,0,.24.15.1L22.52,38c0-.4,0-.79-.46-1,0-.14-.07-.28-.27-.22a.34.34,0,0,0-.21-.5.42.42,0,0,0,0-.1s-.05,0-.07,0l.14.1C21.61,36.51,21.6,36.71,21.82,36.81Zm-4.07-.46a.82.82,0,0,0-.47.71c-.47.17-.47.56-.47,1,0,0-.24,0-.11.14l.08-.17a1.22,1.22,0,0,0,.47-1,.69.69,0,0,0,.48-.72l.1,0a.25.25,0,0,0,0-.07ZM15.11,7.06c-.14-.24-.31-.3-.58-.07l.6,0a5.23,5.23,0,0,0,2.24.87A3.32,3.32,0,0,0,15.11,7.06Zm9.12,0A3.84,3.84,0,0,0,22,7.81l.11.27,2.15-1,.59,0C24.54,6.76,24.37,6.81,24.23,7.06Zm-8.82,9.11c-.09.52-.09,1.08-.2,1.62-.22,1.11.07,1.42,1.23,1.44,1.47,0,2.94,0,4.42,0,.72,0,1.43,0,2.15,0,1,0,1.3-.34,1.13-1.31-.1-.59-.16-1.18-.21-1.75A16.52,16.52,0,0,1,15.41,16.17Zm4.2-3.38h0c.91,0,1.83,0,2.74,0,.59,0,.7-.22.53-.76A18.66,18.66,0,0,0,21,8.16a1.68,1.68,0,0,0-2.8.12,17.58,17.58,0,0,0-1.7,3.52c-.27.82-.2.95.68,1S18.81,12.79,19.61,12.79Zm-.08.75c-1.12,0-1.91,0-2.71,0s-.76,0-1,.71-.37,1.12.79,1.39a15,15,0,0,0,5.9.07,4.07,4.07,0,0,0,.68-.2c.32-.1.66-.25.54-.64s-.1-1-.48-1.43c0,0-.14,0-.21,0A20.14,20.14,0,0,1,19.53,13.54ZM24,19.94c-2.92.12-5.73.1-8.53,0a2.82,2.82,0,0,0,.17,1.56.42.42,0,0,0,.49.39c1.32-.06,2.6.31,3.93.28.84,0,1.65-.26,2.49-.28,1.25,0,1.27,0,1.45-1.32C24,20.39,24,20.19,24,19.94Zm-7.77,2.91a2.65,2.65,0,0,0,3.19,1.54,2.37,2.37,0,0,1,.81.09A2.51,2.51,0,0,0,23,22.87C20.8,22.93,18.52,23,16.19,22.85ZM18.66,27a3,3,0,0,0-.62,1.3.73.73,0,0,0,.7,1,10.7,10.7,0,0,0,1.79,0,.75.75,0,0,0,.76-1.05c-.08-.3-.25-.58-.36-.88a.43.43,0,0,0-.64-.3A2.92,2.92,0,0,1,18.66,27Zm1.9,3.45c0-.25-.12-.37-.36-.33a1.52,1.52,0,0,1-.9.06c-.5-.2-.65.05-.44.53s.1.77.31,1.13.25.37.52.37.41-.16.48-.42C20.29,31.38,20.43,30.93,20.56,30.49Zm-2.09,4.37c.48-.18.75-.47,1.17-.49s.74.32,1.17.47c-.26-1.33-.46-1.6-1.12-1.62S18.84,33.41,18.47,34.86Zm1.27-9.55H18.9c-.26,0-.46.09-.44.41s.06.51.36.52c.55,0,1.11,0,1.67,0,.28,0,.38-.23.39-.5s-.14-.43-.42-.44ZM14.68,38.84l.08,0v-.08Zm9.92-.05-.05.07h.09Zm-7.7.36,0-.06h-.06Zm5.54-.1-.05.07h.06Z"/><path d="M19.76,9.2a.52.52,0,0,1-.55-.42.41.41,0,0,1,.36-.51.44.44,0,0,1,.57.44C20.15,9,19.91,9.09,19.76,9.2Z"/></g></g></svg>