<svg xmlns="http://www.w3.org/2000/svg" viewBox="0 0 92.72 53.02"><title>Ophiuroidea</title><g id="Layer_2" data-name="Layer 2"><g id="Ophiuroidea"><path d="M49.52,45.52a5.53,5.53,0,0,1-.87,3.14c-.86,1.53-3.7,1.48-4.58,0a6,6,0,0,1-.77-4.47,3.87,3.87,0,0,1,2.26-2.62,2,2,0,0,1,2.22.35A3.8,3.8,0,0,1,49.52,45.52Zm-.56.42a3.79,3.79,0,0,0-1.91-3.73,1.3,1.3,0,0,0-1.37,0,3.82,3.82,0,0,0-1.73,2,4.57,4.57,0,0,0,.85,4.24,2,2,0,0,0,3.28-.17A5.43,5.43,0,0,0,49,45.94Z"/><path d="M41.13,35.5A66.06,66.06,0,0,1,40,26.4a38.35,38.35,0,0,0-.34-4.29.65.65,0,0,1,0-.24c.27-2.79-.2-5.57-.07-8.36a3.7,3.7,0,0,1,.5-1.7c.41-.71,1.29-1.14,2,0a3.05,3.05,0,0,1,.48,1.58,26.56,26.56,0,0,1-.19,3.09,31.25,31.25,0,0,0-.22,7.17,21.52,21.52,0,0,1,.14,3.11c-.06,1.43.36,2.81.39,4.27a17.61,17.61,0,0,1,1.42-1.44,3.16,3.16,0,0,1,4.5,0,7.69,7.69,0,0,1,1.46,1.69c.14-1.26.31-2.28.32-3.27,0-2.8.41-5.59.25-8.39A35.3,35.3,0,0,0,50.26,16a11.17,11.17,0,0,1,0-3.11,3.17,3.17,0,0,1,.36-1,1.13,1.13,0,0,1,1-.78,1.2,1.2,0,0,1,1.11.78,3.68,3.68,0,0,1,.44,1.59,27.5,27.5,0,0,1-.2,5.13,1.37,1.37,0,0,0,0,.35,22.57,22.57,0,0,1,0,5.26c-.1,1.59-.27,3.18-.41,4.76a25,25,0,0,1-.28,3.45c-.23,1-.33,1.93-.5,3a13.73,13.73,0,0,0,3.15-4.87c.88-2,1.89-3.94,2.6-6a38.07,38.07,0,0,0,1.69-5.44A5.51,5.51,0,0,1,60,16.93c.61-.87,1.12-1.16,1.73-.91a1.9,1.9,0,0,1,.89,2,3.09,3.09,0,0,1-.24.8c-.83,1.54-1.38,3.21-2.14,4.78a60,60,0,0,0-2.41,5.57C57,31.61,55.92,34,54.8,36.3c-.5,1-1,2.08-1.46,3.13a1.41,1.41,0,0,0-.18.44c-.06.38-.32.89,0,1.12s.66-.3.9-.57Q59,35.07,63.88,29.7c2.81-3.06,5.63-6.11,8.43-9.18s5.57-6.17,8.37-9.25c2.12-2.33,4.29-4.63,6.4-7,1.1-1.22,2.18-2.45,3.36-3.59A1.82,1.82,0,0,1,91.66,0c.84,0,1.28.53,1,1.32a2.69,2.69,0,0,1-.85,1.15,33.38,33.38,0,0,0-5,4.81c-.42.47-.8,1-1.21,1.48-2,2.35-3.93,4.71-5.94,7-1.56,1.81-3.2,3.56-4.79,5.35-2.28,2.57-4.55,5.14-6.79,7.74s-4.64,5.38-7,8c-2,2.3-4,4.66-5.88,7.08s-3.88,4.84-5.86,7.23-4,2.35-5.88,0c-1.51-1.85-3-3.72-4.5-5.59-1.23-1.55-2.46-3.11-3.78-4.6-1.08-1.23-2.1-2.5-3.14-3.77-.81-1-1.71-1.9-2.57-2.84-1.79-1.94-3.39-4-5.14-6C21.52,25.34,18.73,22.21,16,19c-1.88-2.17-3.8-4.3-5.65-6.5C8.14,9.92,6,7.2,3.59,4.77,2.85,4,2,3.4,1.24,2.74a4.89,4.89,0,0,1-1-1.16A1.05,1.05,0,0,1,.19.34,1.06,1.06,0,0,1,1.51.13,2.41,2.41,0,0,1,2.26.7c.64.62,1.28,1.22,1.87,1.87l8.36,9.25,2.73,3L25,25.56l8.51,9.28,5.26,5.75c.21.23.4.63.76.42s.2-.61.09-.89c-.46-1.14-.91-2.29-1.46-3.39a83.59,83.59,0,0,1-3.47-8.08c-.65-1.71-1.39-3.38-2.2-5s-1.35-3.23-2.15-4.78a2.43,2.43,0,0,1,0-2.2A1.12,1.12,0,0,1,32,16.15a3,3,0,0,1,1,1.18,11.14,11.14,0,0,1,.94,2.93,45.74,45.74,0,0,0,2.86,7.68,47.41,47.41,0,0,0,2.36,4.93A11.72,11.72,0,0,0,41.13,35.5ZM91.82.6a3.44,3.44,0,0,0-1.47,1.14c-1.38,1.49-2.77,3-4.14,4.48-1.81,2-3.6,4-5.4,6Q77.7,15.59,74.61,19c-2.15,2.37-4.31,4.72-6.47,7.08L61.84,33c-1.94,2.12-3.92,4.22-5.83,6.37-.63.72-1.28,1.42-1.93,2.12a.84.84,0,0,1-1.07.28,1.05,1.05,0,0,1-.68-1A4.42,4.42,0,0,1,52.77,39c.9-2.2,2-4.29,3-6.49.85-2,1.58-4.07,2.46-6.06,1.15-2.62,2.44-5.17,3.54-7.82a2.9,2.9,0,0,0,.19-1.39.66.66,0,0,0-.38-.58c-.3-.12-.53.06-.72.29a4.59,4.59,0,0,0-1,2,33.11,33.11,0,0,1-1.43,4.77A68.16,68.16,0,0,1,54,33.62a10.13,10.13,0,0,1-2.34,2.86,7.29,7.29,0,0,1-4.8,1.8,8.23,8.23,0,0,1-5-1.25,11,11,0,0,1-3.08-3.46,51.06,51.06,0,0,1-2.3-4.7,48.34,48.34,0,0,1-3.57-9.94,4.33,4.33,0,0,0-1-2,.62.62,0,0,0-.63-.24.58.58,0,0,0-.41.53,2.42,2.42,0,0,0,.17,1.4c.78,1.52,1.33,3.14,2.09,4.68A58.43,58.43,0,0,1,35.53,29a76.15,76.15,0,0,0,3.1,7.2c.54,1.06,1,2.16,1.5,3.24a3.17,3.17,0,0,1,.25,1.52,1,1,0,0,1-.72.86.79.79,0,0,1-1-.25c-.48-.53-1-1-1.48-1.56-2.85-3.14-5.68-6.29-8.53-9.42-2.18-2.39-4.4-4.76-6.58-7.15-2.68-2.95-5.35-5.93-8-8.89Q9.15,9.1,4.22,3.71c-.76-.83-1.53-1.63-2.3-2.43a1.67,1.67,0,0,0-1-.66.81.81,0,0,0,.18,1,11.62,11.62,0,0,0,1,.89,30.52,30.52,0,0,1,4.84,4.8c1.87,2.28,3.85,4.47,5.68,6.78,1,1.18,2,2.28,3,3.42l4.05,4.57c1.09,1.22,2.2,2.43,3.27,3.66,2.19,2.54,4.35,5.1,6.54,7.63.89,1,1.85,2,2.73,3,1.48,1.73,3,3.44,4.35,5.25,1,1.37,2.3,2.53,3.26,4,1.35,2,3,3.71,4.49,5.59a3,3,0,0,0,1.91,1.14,2.73,2.73,0,0,0,2.28-1.08c.91-1,1.7-2,2.51-3,1-1.25,1.88-2.59,3-3.76s2-2.55,3.12-3.77c1.69-1.9,3.22-4,5-5.81a29.94,29.94,0,0,0,2.56-2.85c1.15-1.54,2.46-2.93,3.69-4.4,1.78-2.1,3.59-4.18,5.47-6.19s3.43-3.91,5.18-5.82,3.14-3.72,4.71-5.58a77,77,0,0,1,6.47-7c.49-.46,1.08-.81,1.54-1.32A.81.81,0,0,0,91.82.6Zm-49,33.24c-.11.79.3,1.66.28,2.59a.89.89,0,0,0,.8.88,8.46,8.46,0,0,0,2.42.32,10.6,10.6,0,0,0,2.32-.21c.89-.26,1-.46,1.1-1.43a7.56,7.56,0,0,1,.14-1.05,4.79,4.79,0,0,0-2.06-5.21,2.26,2.26,0,0,0-2.59-.13A4.58,4.58,0,0,0,42.78,33.84Zm-.42,2.56a14.8,14.8,0,0,1-.24-2.95,17.82,17.82,0,0,0-.19-3.19c-.12-1.54-.42-3.07-.39-4.63.07-3.67-.32-7.35.45-11a3.78,3.78,0,0,0-.43-2.43c-.21-.42-.52-.47-.81-.13a1.12,1.12,0,0,0-.3.51,6.35,6.35,0,0,0-.18,3.18,2.85,2.85,0,0,1,.11.82,103.35,103.35,0,0,0,.43,11.12c.2,1.85.25,3.73.55,5.57A5.66,5.66,0,0,0,42.36,36.4Zm8,.1a.78.78,0,0,0,.54-.62,43.3,43.3,0,0,0,.79-4.69c.12-1.31.17-2.62.28-3.93.14-1.86.44-3.72.42-5.59,0-1,0-2,0-3a12.4,12.4,0,0,1,.12-2.86A4.49,4.49,0,0,0,52.54,14a4.18,4.18,0,0,0-.47-1.83c-.33-.5-.7-.46-1,.09a4.63,4.63,0,0,0-.33,2.91,20.53,20.53,0,0,1,.42,3.67,85.47,85.47,0,0,1-.56,12.9A15,15,0,0,1,50.59,34C50.35,34.81,50.59,35.63,50.31,36.5Z"/></g></g></svg>