<svg xmlns="http://www.w3.org/2000/svg" viewBox="0 0 93.05 94.27"><title>Paraeuchaeta</title><g id="Layer_2" data-name="Layer 2"><g id="Paraeuchaeta"><path d="M42.72,74.41a8.9,8.9,0,0,0-2.12,3.22c-.07.14-.06.31-.12.46a.42.42,0,0,1-.44.33c-.25,0-.26-.27-.26-.47a3.29,3.29,0,0,1,.61-1.66,20.45,20.45,0,0,1,3.41-4.65C43,71.22,42.11,71,41.91,70c0-.26-.42-.16-.62-.27a2.1,2.1,0,0,1-1-2.7.76.76,0,0,0-.05-.85,11.76,11.76,0,0,1-.88-2.94A1.41,1.41,0,0,1,40,61.59a1.54,1.54,0,0,0,.72-1,1.29,1.29,0,0,1,.43-.83,1.28,1.28,0,0,0,.58-1.08c.06-.7.49-1,1.3-1.11.38,0,.64-.08.58-.52a2,2,0,0,1,.32-1.13,1.53,1.53,0,0,0-.2-1.73c0,.42-.05.66-.07.9a4.68,4.68,0,0,1,0,.84c-.13.62-.65,1.22-1,1.18-.63-.07-.77-.58-.9-1.11a6.39,6.39,0,0,0-1.15-2.07,6.17,6.17,0,0,1-1.23-4.14,1.2,1.2,0,0,0,0-.7,12.23,12.23,0,0,1-1.18-4.93.93.93,0,0,0,0-.24c-1.23-2.63-1.16-5.39-.86-8.18a21.44,21.44,0,0,0,.15-2.26,27.25,27.25,0,0,1,.65-6c.38-1.58.54-3.21.78-4.82a1,1,0,0,0-.34-1.07,8.2,8.2,0,0,1-1.72-2.3,25.49,25.49,0,0,0-3.94,2.22c-.23.16-.56.56-.8.27s.18-.64.42-.8c.93-.61,1.9-1.16,2.87-1.72a4.45,4.45,0,0,0,1.14-.7,16.58,16.58,0,0,0-3.3,1.07c-.22.08-.43.22-.65.29s-.24-.06-.29-.14a.36.36,0,0,1,0-.32,1.62,1.62,0,0,1,.81-.49c.72-.29,1.46-.57,2.37-.92a2.09,2.09,0,0,0-1.7-.1c-.28.09-.71.26-.8-.13s.36-.47.67-.51.64,0,1-.05c-.13-1.26-1.16-.82-1.86-1,0-.57.64-.46.81-.82-.49-.82-.62-.89-1.38-.72-.5.12-1,.27-1.49.39a.3.3,0,0,1-.39-.17.34.34,0,0,1,.2-.4,4.79,4.79,0,0,1,2.19-.44,13.42,13.42,0,0,1-.92-1.62.64.64,0,0,0-.95-.4,23.76,23.76,0,0,0-2.21.9,43.17,43.17,0,0,0-6.76,4.46,40.34,40.34,0,0,1-7.83,5c-.08,0-.14.1-.21.11-.53.1-.59,1-1.05.85a2.18,2.18,0,0,0-1.39.1,5.47,5.47,0,0,1-1.4.31,4.46,4.46,0,0,0-1,.24A14.73,14.73,0,0,1,2,24.51c-.42-.09-.58.21-.59.56a10.74,10.74,0,0,0,0,2.27,12,12,0,0,0,.58,2.91c.1.23.2.53-.05.64s-.51-.17-.59-.44A10.78,10.78,0,0,1,1,28.37a13.74,13.74,0,0,1,0-4.05.64.64,0,0,0-.08-.63A9.67,9.67,0,0,1,0,21.24c-.09-.22,0-.4.2-.47s.38.11.43.29a9.66,9.66,0,0,0,.69,2,40.24,40.24,0,0,1,0-4.66,10.79,10.79,0,0,1,.51-2.81,1.7,1.7,0,0,1,.53-.91.35.35,0,0,1,.44,0,.26.26,0,0,1,0,.33c-1.07,2.15-1,4.47-1,6.77a2.55,2.55,0,0,0,0,.48c.05.37,0,.87.53.91a1,1,0,0,0,1.1-.87,3.73,3.73,0,0,1,0-.48c.07-.23.19-.49.47-.45s.24.36.24.58c0,1.14.1,1.26,1.26,1.28a3.85,3.85,0,0,0,.83,0c1.66-.31,1.67-.32,1.69-2a18.39,18.39,0,0,1,.51-3.77c.06-.23.14-.45.22-.67s.2-.49.51-.37.13.37.07.59a22.43,22.43,0,0,0-.76,4.81,1,1,0,0,0,.1.68,11.28,11.28,0,0,0,3.49-1.15c.48-.23.83-.49.46-1.08a.79.79,0,0,1-.11-.45c0-.09.12-.19.21-.26s.15,0,.2.06a2.9,2.9,0,0,1,.53.94c1.2-.15,2-1.08,3-1.6.38-.2.28-.53.21-.84-.22-.88-.45-1.76-.65-2.65,0-.18-.06-.44.17-.51s.34.14.42.33c.4.91.42,1.92.78,3a12.12,12.12,0,0,0,2.43-1.59c.16-.13,0-.25-.07-.39-.27-.41,0-.58.33-.44.64.32,1,0,1.48-.36.71-.58,1.43-1.15,2.15-1.71A.58.58,0,0,0,24,13a27.4,27.4,0,0,1-.79-4.68C23,6.77,23,5.26,23,3.75A7.32,7.32,0,0,1,23.31,2c0-.14.18-.3.34-.26s.39.24.29.45c-.27.52-.11,1.1-.3,1.63a1.53,1.53,0,0,0-.1.59,46.52,46.52,0,0,0,.92,7.8c.19.78.38.86,1.05.46.51-.3,1-.65,1.54-1-.23-.51-.47-1-.67-1.49-.07-.18-.07-.45.12-.54s.35.08.44.27a2.39,2.39,0,0,1,.16.32c.34,1.11.9,1.07,1.69.54a5.21,5.21,0,0,1,1.5-.69.75.75,0,0,0,.63-.86c0-.64,0-1.28,0-1.91,0-.2-.05-.4,0-.6s.06-.44.3-.45.3.22.28.42a8,8,0,0,0,.25,2c.14,1,.16,1,1.12.71l.51-.16A17.1,17.1,0,0,1,32.15,4.6a6.09,6.09,0,0,1,.26-2.36.38.38,0,0,1,.44-.32c.25.05.24.24.19.46a10.78,10.78,0,0,0,.6,6,1.29,1.29,0,0,0,1.43,1,10.77,10.77,0,0,1,3.1.19c.64.16.75,0,.91-.72a16.61,16.61,0,0,0,.47-3.66c0-.84.28-1.65.23-2.5A7.72,7.72,0,0,0,39.64.5c-.08-.21-.06-.41.18-.48s.42.14.48.39a1.93,1.93,0,0,1,0,.24,38.57,38.57,0,0,1-.16,5.26,28,28,0,0,1-.54,3.4c-.07.26,0,.44.37.49s.44.17.67.21a6.82,6.82,0,0,1,2,.66,2.71,2.71,0,0,0,3-.59c.11-.11.19-.26.31-.37.48-.46.62-.49,1.07,0a3.41,3.41,0,0,0,1.77,1.1,3.3,3.3,0,0,0,1.48-.09c.53-.07.72-.76,1.42-.58.44.1,1-.24,1.48-.39a1.2,1.2,0,0,0,.26-.17,26,26,0,0,1-.64-4.06,36.7,36.7,0,0,1-.08-5,.59.59,0,0,1,0-.23c.08-.21.23-.34.46-.26a.32.32,0,0,1,.19.39c-.45,2.88.14,5.7.53,8.53.07.56.38.71.81.6a13.33,13.33,0,0,1,3.45-.22,1.15,1.15,0,0,0,1.14-.89,10.94,10.94,0,0,0,.67-6c0-.2-.13-.43.08-.53a.38.38,0,0,1,.53.32,6.15,6.15,0,0,1,.27,2.13,15.5,15.5,0,0,1-1.14,4.68c.08.3.32.26.49.31.95.28,1,.26,1.11-.73a9.07,9.07,0,0,0,.25-2c0-.19,0-.43.3-.4s.28.27.28.47,0,.63-.06,1,0,.56,0,.84c0,1.33,0,1.36,1.21,1.75a7.74,7.74,0,0,1,1.13.65c.74.34,1,.25,1.41-.48.11-.21.19-.44.3-.65s.23-.24.38-.14a.36.36,0,0,1,.12.31A5,5,0,0,1,66,11.63c.57.37,1.12.76,1.7,1.1s.76.22.91-.41.35-1.55.47-2.34a15.69,15.69,0,0,0,.18-1.65c.08-2,.6-4,0-5.93a.72.72,0,0,1-.07-.34.54.54,0,0,1,.2-.28.23.23,0,0,1,.37.14,5.44,5.44,0,0,1,.38,1.49,35.85,35.85,0,0,1-1,9.57c-.07.31-.11.48.17.69.88.68,1.75,1.39,2.62,2.08a1.08,1.08,0,0,0,1.1.06c.32-.1.61.07.31.44s-.15.36,0,.48a15.17,15.17,0,0,0,2.27,1.47c.62-1.09.32-2.42,1.18-3.39.4.25.29.56.22.86-.21.8-.42,1.6-.61,2.41-.08.31-.12.62.25.83,1,.52,1.76,1.39,2.92,1.6.13-.25.26-.54.43-.81.07-.11.17-.3.37-.2a.29.29,0,0,1,.16.39,2.23,2.23,0,0,1-.13.46c-.31.44,0,.65.31.83a10.94,10.94,0,0,0,3.75,1.26,17.57,17.57,0,0,0-.64-5.06,2.69,2.69,0,0,0-.17-.57c-.09-.23-.06-.39.17-.48a.31.31,0,0,1,.39.2,7.22,7.22,0,0,1,.31.89A14.51,14.51,0,0,1,85,21.91.88.88,0,0,0,85.77,23a6.08,6.08,0,0,0,2.12.25c.81-.11.9-.23.9-1.06,0-.28-.23-.74.24-.78s.43.38.48.71-.15.66.21.87c.86.5,1.38.24,1.41-.74a21.1,21.1,0,0,0-.44-5.82,4.81,4.81,0,0,0-.53-1.31.28.28,0,0,1,0-.42.35.35,0,0,1,.52.11,3,3,0,0,1,.43.84,12.41,12.41,0,0,1,.52,3,36.09,36.09,0,0,1,0,4.63A14.91,14.91,0,0,0,92.4,21c.06-.18.2-.36.45-.26s.25.26.15.48c-.34.8-.29,1.74-.86,2.44-.18.23-.1.39-.06.64A14.45,14.45,0,0,1,91.77,30c-.08.36-.14,1-.62.87s-.07-.65,0-1a18.41,18.41,0,0,0,.48-4.5c0-.88-.1-.87-1-.77a11.58,11.58,0,0,1-2.63.05,21.55,21.55,0,0,1-3.64-.58,16.65,16.65,0,0,1-2.74-.71c-.63-.35-1.37.39-1.76-.34s-1.11-.72-1.68-1a53.92,53.92,0,0,1-7-4.63,40.53,40.53,0,0,0-6.76-4.46,22,22,0,0,0-2.2-.89.63.63,0,0,0-.94.42,4.59,4.59,0,0,1-.93,1.44c.57.32,1.18.12,1.67.41.16.09.39,0,.55.19s.23.25.17.42-.23.19-.4.15L61,14.73c-.9-.21-1-.18-1.48.72l.78.52s0,.07,0,.12c-.06.25-.28.23-.47.22-.87,0-.87,0-1.41.81.45.25,1-.05,1.46.29.12.1.28.19.22.38S60,18,59.79,18s-.46-.13-.69-.17a2.25,2.25,0,0,0-1.5.17,17.24,17.24,0,0,1,2.11.8c.43.23,1.37.23,1.08.94-.18.46-.8-.19-1.22-.31a23.81,23.81,0,0,0-2.84-.81c1.11.65,2.21,1.3,3.32,1.93a3.69,3.69,0,0,1,1,.81.36.36,0,0,1,.05.33.26.26,0,0,1-.4.09c-.81-.51-1.62-1-2.43-1.51a8.64,8.64,0,0,0-2-1,7.3,7.3,0,0,1-1.62,2.21,1.21,1.21,0,0,0-.4,1.28c.37,2,.61,4,1.08,6a16.78,16.78,0,0,1,.31,3.69,22.49,22.49,0,0,0,.23,3.94,13.2,13.2,0,0,1-.34,6C55,44.24,55,46.2,54.22,48a7.18,7.18,0,0,0-.49,2.87,5.63,5.63,0,0,1-1.15,3,7,7,0,0,0-1.3,2.52.85.85,0,0,1-.7.74c-.48.07-.71-.3-.93-.63-.43-.65-.17-1.41-.32-2.15-.6.44-.41,1-.27,1.5.08.3.36.58.35.87,0,.64.14.91.85.9a1.07,1.07,0,0,1,1.06,1.09,1.15,1.15,0,0,0,.59,1.07.14.14,0,0,1,.08.09,5.48,5.48,0,0,0,1.53,2.3,1.11,1.11,0,0,1,.21,1.14,17.42,17.42,0,0,1-.9,2.93.69.69,0,0,0-.09.74,2.1,2.1,0,0,1-1.08,2.86c-.17.08-.47,0-.51.23-.21,1-1.07,1.2-1.9,1.6A20.16,20.16,0,0,1,52.49,76a4.16,4.16,0,0,1,.77,1.85c0,.23.08.53-.24.58s-.42-.19-.48-.43a11.68,11.68,0,0,0-1.75-3.24c-.1-.16-.21-.35-.45-.33,0-.22,0-.41-.21-.5-.07,0,0-.25-.16-.11l.19.08c0,.2,0,.4.21.5.55,1.27,1.12,2.54,1.65,3.81a10.78,10.78,0,0,1,.44,1.36,1.67,1.67,0,0,1,.06.59.46.46,0,0,1-.36.43c-.24,0-.33-.16-.37-.36a15.12,15.12,0,0,0-1-2.94,1.43,1.43,0,0,0-.42-.61L51,79.43a5.6,5.6,0,0,1,.13.82c0,.29-.06.58-.43.58s-.31-.29-.34-.52a28.36,28.36,0,0,0-.93-4.18c-.19-.6-.36-1.21-.56-1.88-.28.5,0,.87.1,1.26a46.19,46.19,0,0,1,.53,7.62c0,3-.37,6-.55,9a7.5,7.5,0,0,1-.37,1.74c-.07.23-.22.58-.6.4s-.21-.37-.16-.63a65.88,65.88,0,0,0,.75-14.65c0,.84-.28,1.63-.31,2.47,0,.27-.13.5-.4.5s-.34-.25-.36-.51a12.83,12.83,0,0,1,.21-1.65c0-1.36,0-2.71,0-4.07a8.47,8.47,0,0,0-.13,2,7.93,7.93,0,0,1-.08,1.19c-.08.35-.2.56-.74.48-1-.16-1.09-.09-1.12-1.08s0-1.75-.09-2.63a18,18,0,0,0,.06,4.92,5.94,5.94,0,0,1,0,1,.35.35,0,0,1-.36.39.37.37,0,0,1-.37-.39c0-.88-.4-1.71-.36-2.6a55.1,55.1,0,0,0,.08,7.92c.15,1.18.12,2.38.26,3.57a24.09,24.09,0,0,0,.44,3.18c.06.26.09.5-.16.62s-.53-.16-.6-.39a6.28,6.28,0,0,1-.36-1.74c0-1.36-.21-2.71-.33-4-.23-2.56-.21-5.11-.19-7.66A29.94,29.94,0,0,1,44.26,75a1.22,1.22,0,0,0,0-.78,31.42,31.42,0,0,0-1.54,6c0,.23,0,.52-.33.52s-.46-.3-.43-.59a21.12,21.12,0,0,1,.61-3,1,1,0,0,0,0-.48,5.49,5.49,0,0,0-.84,1.76c-.2.56-.34,1.14-.49,1.71-.06.2-.12.41-.37.37a.51.51,0,0,1-.37-.43,1.71,1.71,0,0,1,.11-.7,24.44,24.44,0,0,1,1.68-4.19,2,2,0,0,0,.37-.87c.23-.1.21-.3.22-.5,0,0,.25,0,.11-.15l-.08.18C42.68,74,42.68,74.19,42.72,74.41Zm6.93-1.25.09.11-.11-.09,0-.07Zm-6.25,0,.07,0,0,.06-.11.1Zm17-60.49c.26-.05.15-.31.24-.45l.09-.06,0,0-.09.13-.24.45-.16.16s0,.06,0,.09Zm-27.81,0,.11.28s0-.09,0-.1-.11-.11-.16-.16l-.23-.45-.06-.09,0,0,.12.1C32.49,12.35,32.36,12.61,32.62,12.67ZM8.13,23.5l-.33,0-.22,0a.18.18,0,0,0,.26.09,1.21,1.21,0,0,0,.26-.2c.26,0,.58.13.75-.22a2.26,2.26,0,0,0,1.69-.53,3.37,3.37,0,0,0-1.67.55C8.61,23.31,8.29,23.15,8.13,23.5Zm76.8,0c-.16-.37-.48-.19-.74-.24a2.07,2.07,0,0,0-1.56-.45,2.2,2.2,0,0,0,1.58.42c.16.36.49.18.75.23a1.21,1.21,0,0,0,.26.2.18.18,0,0,0,.26-.1l-.22,0Zm-57.12-11c.19,0,.38,0,.5-.22a4.1,4.1,0,0,0,1.88-1c-.92,0-1.61.07-1.86,1-.19-.12-.38-.35-.61-.16s0,.27.12.37c-.12,0-.2-.05-.15.12Zm37.44,0s0,.23.14,0c0,0-.1-.07-.17,0,.12-.1.24-.27.12-.37s-.42,0-.61.16c-.27-.88-.92-1-1.82-.93a4.27,4.27,0,0,0,1.84.9C64.87,12.42,65.06,12.43,65.25,12.46ZM46.53,10.38a2.86,2.86,0,0,1-1.65,1.07c-1.13.11-1.56.83-1.89,1.71-.58,1.53-1.18,3-1.85,4.52A17.2,17.2,0,0,0,40,21.05c-.21.92-.44,1.85-.6,2.79A1.17,1.17,0,0,0,40,25.28a4.91,4.91,0,0,1,1.84,2c.6,1.08,1,1.23,2.21,1.1a15,15,0,0,1,5,.05,1.74,1.74,0,0,0,2-1,5.4,5.4,0,0,1,1.72-1.91,1.57,1.57,0,0,0,.76-2.16,11.43,11.43,0,0,1-.2-1.17c-.69-3.38-2.41-6.38-3.57-9.59a1.44,1.44,0,0,0-1.21-1A3.54,3.54,0,0,1,46.53,10.38Zm-8,18.29a52.94,52.94,0,0,0-.44,6.92c0,1,.2,1.24,1.26,1.28,1.52.06,3,.13,4.54.25,3.27.27,6.54-.19,9.81-.24a1,1,0,0,0,.24,0c.9-.14,1.07-.32,1.06-1.25s-.09-1.75-.07-2.63c0-1.44-.31-2.84-.3-4.35a7,7,0,0,1-2.92.43c-.52,0-.85.16-.83.75,0,.26.07.64-.33.65s-.51.39-.65.71c-.26.58-.31,1.23-.63,1.79-.19.31,0,.85-.62.85-.21,0-.31-1-.13-1.32a.37.37,0,0,1,.17-.13.76.76,0,0,0,.33-.83c-.15-.58.52-.85.42-1.38,0-.13.21-.24.38-.14s.45.17.5-.18,0-.52-.38-.58a28.19,28.19,0,0,0-6.09-.11c-.24,0-.47.1-.71.11-.4,0-.45.26-.39.57s.23.37.5.2.4,0,.38.12c-.09.53.58.8.42,1.38a.82.82,0,0,0,.25.74c.48.27.3.68.33,1,0,.19,0,.44-.19.51s-.44-.17-.52-.38c-.27-.78-.53-1.57-.77-2.36-.1-.31-.15-.61-.59-.6s-.32-.27-.36-.51c-.17-.86-.18-.88-1-.89A7.91,7.91,0,0,1,38.52,28.67Zm-.8,8.74a43.08,43.08,0,0,0,.52,5,.55.55,0,0,0,.57.51,11.11,11.11,0,0,1,4.13,1,4.48,4.48,0,0,0,1.39.33c.29,0,.78-.08.69-.45-.14-.58.13-1.27-.43-1.74a1,1,0,0,1-.28-.51c-.05-.19-.21-.39,0-.53s.37,0,.56.22c.65.6.76,1.45,1.16,2.16a.55.55,0,0,1-.07.67.41.41,0,0,0-.12.43,4.93,4.93,0,0,1,.3,2.31.36.36,0,0,0,.39.37c.17,0,.33-.21.3-.33-.33-1,.66-2,.08-3.08-.06-.11,0-.32.08-.46a13.69,13.69,0,0,0,.55-1.3,3.13,3.13,0,0,1,.8-1c.05-.06.24,0,.33,0a.34.34,0,0,1,.14.29,1,1,0,0,1-.21.55,1.61,1.61,0,0,0-.51,1.58c0,.19-.23.45,0,.64a1,1,0,0,0,.79.19,10.47,10.47,0,0,0,1.59-.49A9.64,9.64,0,0,1,54.09,43a.72.72,0,0,0,.78-.72c.07-.51.17-1,.19-1.53,0-1.1.47-2.19.23-3.27A77,77,0,0,1,37.72,37.41Zm7.44,7.5a4,4,0,0,1-3-.41,9.3,9.3,0,0,0-2.62-.73c-.41-.06-.73.07-.71.65A19,19,0,0,0,39.62,48a1.38,1.38,0,0,0,1.27,1.08,6.17,6.17,0,0,0,1,0l6,0,3.84,0c.6,0,1.29,0,1.55-.66a12.06,12.06,0,0,0,1-3.92c0-.68-.18-.87-.85-.77a7.71,7.71,0,0,0-2.39.69,5.94,5.94,0,0,1-2.41.59c-.26,0-.54-.32-.77,0a1.33,1.33,0,0,0-.25.79,7.69,7.69,0,0,1,0,1c-.07.79-.4,1-1.17,1-.55-.07-.77-.36-.79-1.13A2.26,2.26,0,0,0,45.16,44.91ZM42.58,56.15c.48-.5.31-1,.32-1.38a2.06,2.06,0,0,1,1.88-2.32,8,8,0,0,1,3.44,0c1.43.31,1.89.91,1.94,2.4,0,.41-.19.89.34,1.28a9.08,9.08,0,0,1,1.43-2.7,4.64,4.64,0,0,0,1-3.59c-4.3.13-8.53.11-12.81,0a4.9,4.9,0,0,0,1.12,3.71A8.76,8.76,0,0,1,42.58,56.15Zm6.09,2.37a5.34,5.34,0,0,0-.18-1.77c-.22-.57-.07-1.42-.59-1.71A4.13,4.13,0,0,0,46,54.91c-1,0-.92.05-1.24,1a8.18,8.18,0,0,0-.38,3.29c0,.51.18,1,.22,1.53a1.9,1.9,0,0,0,2.7,1.79,1.24,1.24,0,0,0,1-1.13A15.92,15.92,0,0,0,48.67,58.52Zm11.46-47a15.9,15.9,0,0,0-6.76.68,7.36,7.36,0,0,0-1.86,1,.65.65,0,0,0-.22.9c.19.5.48.4.85.35,1.57-.22,3.11-.87,4.7-.63,1.8.27,2.73-.55,3.29-2.1A1.5,1.5,0,0,0,60.13,11.56Zm-27.23,0a7.76,7.76,0,0,0,.74,1.5,1.14,1.14,0,0,0,1.3.78,21.81,21.81,0,0,1,6,.66c.31.06.59.17.78-.27s.19-.7-.22-1a7.4,7.4,0,0,0-1.76-1A15.29,15.29,0,0,0,32.9,11.58ZM45.16,63.14a11.37,11.37,0,0,0,.16,3.32.77.77,0,0,0,.81.69,6,6,0,0,0,.95,0,.63.63,0,0,0,.61-.48,7.68,7.68,0,0,0,.12-3.54A3.78,3.78,0,0,1,45.16,63.14Zm10-47.84c.43.32.66.48.87.65a.29.29,0,0,1,.06.42c-.11.15-.24.14-.41.06-.49-.25-1-.46-1.49-.72-.72-.38-1.23.15-1.71.48s.07.71.16,1.06a6.49,6.49,0,0,0,.48,1c.83,0,1.34-.66,2.06-.81,1.48-.3,1.48-.3,2.28-1.63A9.06,9.06,0,0,0,55.11,15.3Zm-15.2,3a2.89,2.89,0,0,0,.56-1.05c.46-1,.42-1.07-.63-1.55a1,1,0,0,0-.9,0l-1.49.7c-.16.08-.29.13-.42,0a.28.28,0,0,1,0-.42c.22-.19.45-.36.86-.68-.79.15-1.37.26-1.94.39a1.82,1.82,0,0,0-.45.26c.51.36.58,1.18,1.22,1.26A22.64,22.64,0,0,1,39.91,18.32Zm4,43.05c-.08-1.43-.27-1.68-1.24-1.64a1.46,1.46,0,0,0-1.37,1.72,1.31,1.31,0,1,0,2.61-.08Zm5.31-.22a1.58,1.58,0,0,0,1,1.67,1.33,1.33,0,0,0,1.49-.89,1.74,1.74,0,0,0,0-1.27A1.52,1.52,0,0,0,50,59.75c-.61.11-.73.29-.79,1.24Zm-3.75,6.71a5.9,5.9,0,0,0,.14,2.31c.1.58.64.48.94.48s.86.1.95-.46a4.42,4.42,0,0,0,.11-2.31A8.09,8.09,0,0,1,45.44,67.86Zm7.08-2.93c0-.83-.44-1.16-1.45-1.12s-1.19.35-1.17,1.14a1.45,1.45,0,0,0,1.4,1.48A1.4,1.4,0,0,0,52.52,64.93Zm-10.69-1.1c-.93,0-1.28.3-1.29,1.14a1.39,1.39,0,0,0,1.25,1.46,1.47,1.47,0,0,0,1.38-1.52C43.17,64.11,42.82,63.83,41.83,63.83Zm9.65-35.57a15.94,15.94,0,0,0,1.7,0c.82-.09,1.11-.48,1-1.28a13.36,13.36,0,0,0-.4-1.46A5.08,5.08,0,0,0,51.48,28.26Zm-9.85,0a4.59,4.59,0,0,0-2.37-2.67,11.46,11.46,0,0,0-.37,1.23c-.16.91.16,1.34,1.08,1.43C40.48,28.3,41,28.27,41.63,28.27ZM46.52,72a2.14,2.14,0,0,0-.45,1.4c.18,1.73.25,3.47.31,5.21,0,.06.08.11.13.16.3-.14.2-.4.21-.61a34.92,34.92,0,0,1,.21-3.68A2.93,2.93,0,0,0,46.52,72Zm-.09-19a3.86,3.86,0,0,0-1.4.11c-.23.09-.64,0-.61.41s.36.5.68.57a.83.83,0,0,0,.47,0,3.05,3.05,0,0,1,2,0,1,1,0,0,0,.9-.22.48.48,0,0,0,.2-.4c0-.21-.18-.23-.32-.29A4.81,4.81,0,0,0,46.43,53.07Zm2,14.22v.36c0,.64.17.75.79.71s.75-.39,1-.77-.2-.59-.35-.86c-.25-.44-.38-1.16-1-1s-.39.88-.41,1.39Zm-3.88,0a3.2,3.2,0,0,0-.17-1.3.38.38,0,0,0-.46-.26,4,4,0,0,0-1.22,1.62,1.28,1.28,0,0,0,1.29,1c.75,0,.52-.55.56-.94Zm-1.68,1.55c-.29-.48-.79-.78-.73-1.37,0-.36-.12-.42-.47-.41s-.82,0-.9.48a1.36,1.36,0,0,0,.47,1.4A1.29,1.29,0,0,0,42.91,68.85Zm7.26-.11a.64.64,0,0,0,.45.35,1,1,0,0,0,1.29-.26,1.34,1.34,0,0,0,.3-1.44c-.19-.49-.75-.24-1.14-.33a.54.54,0,0,0-.17,0A1.85,1.85,0,0,1,50.17,68.74Zm-5.62.16a3.57,3.57,0,0,0-1.59.69c-.4.25-.33.5-.1.78a1.55,1.55,0,0,0,1.36.45c.46-.2.62-.6.5-1.3C44.68,69.33,44.62,69.15,44.55,68.9Zm4,0a6.14,6.14,0,0,0-.17.63c-.12.7,0,1.13.49,1.28a1.31,1.31,0,0,0,1.37-.45c.24-.25.3-.52-.1-.77A3.57,3.57,0,0,0,48.51,68.9ZM39.39,11.45c.19-1,.19-1-.65-1.15-.23,0-.45-.15-.68-.19s-.56-.07-.63.33,0,.5.38.57S38.86,11.3,39.39,11.45Zm14.29,0c.55-.16,1-.34,1.53-.44.34-.07.49-.18.43-.54s-.43-.48-.71-.34c-.44.22-.94.08-1.37.27A1.58,1.58,0,0,0,53.68,11.46ZM34.11,10.19c0,.23.13.48.31.49.67.06,1.35.06,2,.06a.23.23,0,0,0,.21-.24c0-.17,0-.38-.16-.41C35.7,9.94,34.88,9.61,34.11,10.19Zm24.84,0a2.83,2.83,0,0,0-2.28-.11c-.25,0-.28.24-.25.45s.17.25.33.25c.56,0,1.12,0,1.67,0C58.76,10.74,58.88,10.49,59,10.17ZM34.64,14.56c.8,1.11,1.73.15,2.61.16A3.78,3.78,0,0,0,34.64,14.56Zm23.87-.17c-1,.09-1.9-.22-2.8.33C58,15.19,58,15.19,58.51,14.39ZM44.13,64.94a5.86,5.86,0,0,0,.23-2.23,2,2,0,0,0-1.11.77A3.08,3.08,0,0,1,44.13,64.94Zm4.8,0a3.32,3.32,0,0,1,.9-1.51,2.46,2.46,0,0,0-1.2-.73A8.42,8.42,0,0,0,48.93,65ZM42.2,13l.65-1.33a.74.74,0,0,0-.5-.34l-.52-.16C41.45,12.22,41.45,12.22,42.2,13Zm9-1.85c-.34.17-.78.14-1,.53l.63,1.24C51.63,12.25,51.63,12.25,51.21,11.1Zm1.7,52.63c.25-.67.35-1.29-.46-1.68a2.16,2.16,0,0,0-.55,1ZM40.6,62c-.7.76-.7.76-.43,1.75.29-.33.78-.38,1-.79Zm-16-47.73c1.71-.69,2.22-1.06,2.45-1.76A17.33,17.33,0,0,0,24.56,14.26Zm43.65,0,.18-.25L66.1,12.58l-.16.24A16.67,16.67,0,0,0,68.21,14.25ZM41.13,10.92c-.69-.28-.88-.28-1,0-.21.47,0,.71.75,1Zm11,1c.51-.14.9-.24.83-.78,0-.28-.11-.61-.45-.52s-.82.06-.5.65A2.09,2.09,0,0,1,52.15,12Zm-19.9-1.83c.06.23.1.34.12.45.09.54.47.41.81.35a.36.36,0,0,0,.33-.41c-.08-.38-.37-.47-.71-.44ZM11.31,22.6a8.77,8.77,0,0,0,2.11-.72.17.17,0,0,0,.06-.28c-.08-.08-.18-.16-.3-.08A8.5,8.5,0,0,0,11.31,22.6Zm12.82-8.09A4.82,4.82,0,0,0,22.22,16,3.19,3.19,0,0,0,24.13,14.51ZM70.88,16a5.39,5.39,0,0,0-1.95-1.46A3.07,3.07,0,0,0,70.88,16Zm10.93,6.52-1.93-1a.23.23,0,0,0-.3.08.17.17,0,0,0,.07.28A5.24,5.24,0,0,0,81.81,22.49ZM43.52,59a.6.6,0,0,0-.09-.76.51.51,0,0,0-.63-.12.59.59,0,0,0-.35.56c0,.34.31.26.53.28ZM60.75,10.19A1,1,0,0,0,60,10.1a.46.46,0,0,0-.41.49.39.39,0,0,0,.39.35.88.88,0,0,0,.56,0C60.75,10.76,60.74,10.46,60.75,10.19ZM49.5,59.05l.64-.06c.31,0,.58-.06.44-.46s-.34-.53-.71-.4S49.38,58.58,49.5,59.05ZM15.94,20.45c-.1-.05-.22-.17-.28-.14-.46.21-.91.44-1.35.68a.24.24,0,0,0-.09.38.22.22,0,0,0,.31.05l1.3-.76C15.88,20.63,15.9,20.54,15.94,20.45Zm60.94-.11a6.24,6.24,0,0,0,1.7,1.1.22.22,0,0,0,.29-.11.21.21,0,0,0-.07-.3A4.66,4.66,0,0,0,76.88,20.34ZM20,17.8c-.73-.1-1.12.37-1.61.65-.14.07-.25.22-.08.38a.22.22,0,0,0,.31,0Zm53.1-.13A3.19,3.19,0,0,0,75,18.93,3.3,3.3,0,0,0,73.13,17.67ZM75.36,19c0,.86.6.89,1,1.13.05,0,.22-.06.29-.14s0-.22-.07-.29C76.21,19.43,75.84,19.22,75.36,19Zm-57.66,0c-.5.29-.87.5-1.23.73a.18.18,0,0,0,0,.29.34.34,0,0,0,.19.11C17,20.1,17.51,19.66,17.7,18.94Zm43.61-7.83a1.12,1.12,0,0,0,.7.12c.25,0,.34-.14.36-.36s-.1-.28-.27-.32-.34-.22-.46.08A2.93,2.93,0,0,1,61.31,11.11Zm-29.49.08a2.93,2.93,0,0,1-.37-.52c-.14-.37-.36-.14-.56-.1s-.22.2-.19.36.19.32.41.3ZM21.54,16.36c-.3.34-.93.26-1,.82,0,0,.12.16.16.15A1.3,1.3,0,0,0,21.54,16.36Zm50,0-.14.2.75.72c.14.13.27.14.39,0s0-.29-.13-.37C72.11,16.68,71.81,16.51,71.52,16.33ZM39.45,19.76c0-.27.37-.53.12-.78s-.39-.46-.68-.07A2.21,2.21,0,0,0,39.45,19.76Zm14.74-1c-.82.3-.82.3-.54,1A2.15,2.15,0,0,0,54.19,18.73ZM38.24,20.25c.36.39.43.81.89.66.07,0,.15-.21.13-.3C39.15,20.13,38.78,20.24,38.24,20.25Zm16.6,0a3.43,3.43,0,0,0-.76,0c-.18.07-.36.21-.27.45A.48.48,0,0,0,54,21c.18.08.26-.12.37-.21S54.59,20.54,54.84,20.25ZM6.44,23.88a4.78,4.78,0,0,0-1.85,0Zm80.15-.07v.08h1.76v-.08ZM47.69,72.14c.17,0,.2-.11.23-.22a.3.3,0,0,0-.28-.41c-.14,0-.35,0-.3.23A.46.46,0,0,0,47.69,72.14Zm-2.31,0c.17,0,.26-.2.34-.38a.18.18,0,0,0-.13-.26c-.21,0-.4,0-.45.24S45.14,72.07,45.38,72.16ZM2.43,23.87c.41,0,.85.36,1.37-.05A2.15,2.15,0,0,0,2.43,23.87Zm88.22,0c-.43.07-.88-.34-1.34.06C89.81,24.2,90.25,23.9,90.65,23.83Zm-38-8.63a.56.56,0,0,0-.15-.07c-.19,0-.4-.06-.56.09a.17.17,0,0,0,.06.28c.2.09.36-.05.52-.16A1,1,0,0,0,52.66,15.2Zm-12.26,0s0,.08.07.1.29.27.51.24c.06,0,.17-.08.17-.13,0-.28-.22-.26-.4-.27A2.14,2.14,0,0,0,40.4,15.18Zm-2,.05,0-.06-.11,0s0,.07,0,.07Zm16.45,0-.19,0a.24.24,0,0,0,.08.06A.45.45,0,0,0,54.84,15.23Zm-12,60.9,0,.06h0Zm7.37,0,.08,0v-.08ZM33.25,13.77l0,0v.06Zm26.61,0,0,.06h.06Z"/><path d="M52,22.54c.15-1-.36-1.92-.48-3a.67.67,0,0,1,.74.52c.19.77.34,1.54.5,2.31,0,.24,0,.48.05.72.24,1.46.24,1.46-1.16,2.3-.26-.4-.1-.84-.12-1.25a2.58,2.58,0,0,0-.26-1.39c-.1-.14-.3-.31-.06-.51s.43,0,.61.15a1.36,1.36,0,0,0,.21.1l.09,1.2C52.26,23.14,52.38,22.8,52,22.54Z"/><path d="M41,22.51a3.08,3.08,0,0,1,.62-.33c.13,0,.38.18.3.28-.66.88-.27,1.93-.45,2.9-1.42-.51-1.52-.7-1.28-2.12.14-.78.17-1.59.35-2.36.12-.5.12-1.14.91-1.36,0,1.06-.61,2-.42,3-.36.27-.25.58,0,.9Z"/><path d="M51,24.44c.65,1.59.26,2.47-1.23,3.13-.35-.73.47-1.05.55-1.59S51.09,25.11,51,24.44Z"/><path d="M42.11,24.41c.19,1.15,1.16,1.93,1.34,3.14C41.83,27.07,41.19,25.51,42.11,24.41Z"/><path d="M46.52,11.86a.78.78,0,0,1,.74.75c0,.44-.35.49-.66.5s-.75,0-.79-.47A.78.78,0,0,1,46.52,11.86Z"/><path d="M44.37,35.49c0,.36,0,.72,0,1.08s-.12.38-.36.37-.33-.18-.37-.39c-.11-.6.06-.84.72-1Z"/><path d="M48.71,35.48c.64.26.91.81.62,1.29a.48.48,0,0,1-.29.17.29.29,0,0,1-.34-.25c0-.39,0-.79,0-1.18Z"/><path d="M44.61,34.77a.22.22,0,0,0,0-.11c-.16-.16-.63-.16-.34-.55s.48-.13.64,0c.46.43-.08.46-.29.62Z"/><path d="M48.49,34.74c-.17-.13-.53-.11-.44-.44s.35-.28.59-.3a.24.24,0,0,1,.26.19.38.38,0,0,1-.09.31c-.12.09-.31.08-.35.27Z"/><path d="M48.46,34.77a.5.5,0,0,1,.25.71l0,0c-.61-.12-.43-.44-.18-.77Z"/><path d="M44.37,35.5a.48.48,0,0,1,.24-.73l0,0c.24.33.44.65-.2.74Z"/><path d="M50,38a1,1,0,0,1,.52,1.31c-.16.52-.17,1.11-.75,1.4a.22.22,0,0,1-.21,0c-.06-.08-.14-.24-.1-.3A5.46,5.46,0,0,0,50,38Z"/><path d="M42.47,39a.88.88,0,0,1,.15-.62c.09-.14.2-.28.38-.21a.36.36,0,0,1,.17.26,3.17,3.17,0,0,0,.44,1.93.26.26,0,0,1,0,.33c-.15.15-.3.06-.42,0C42.6,40.22,42.69,39.51,42.47,39Z"/></g></g></svg>