<svg xmlns="http://www.w3.org/2000/svg" viewBox="0 0 191.72 26.09"><title>Parasagitta</title><g id="Layer_2" data-name="Layer 2"><g id="Parasagitta"><path d="M24.13,10.08c.11-.43-.19-.56-.34-.77-.56-.77-.62-1.17.06-1.78a5.24,5.24,0,0,1,2.54-1.71c.3-.05.46-.28.67-.46a14.93,14.93,0,0,1,5.78-3.2,21.33,21.33,0,0,1,10.31-.3A88.53,88.53,0,0,1,53.93,4.45c2,.7,3.94,1.25,5.92,1.85s3.89.82,5.79,1.4a9.17,9.17,0,0,0,3.9.15c.79-.09,1.59-.07,2.39-.1,1.68-.08,3.35-.18,5-.21a1.53,1.53,0,0,0,1.33-.64,11.57,11.57,0,0,1,3.28-2.75.76.76,0,0,1,.2-.13c1.69-.41,3.06-1.66,4.85-1.81a3,3,0,0,0,.91-.29,12.65,12.65,0,0,1,4.8-.8,11.7,11.7,0,0,0,1.19-.07,12,12,0,0,1,5.33.27A54.2,54.2,0,0,0,105,2.57a34.69,34.69,0,0,1,5.68,1.8,34.41,34.41,0,0,0,5.46,1.22,79.38,79.38,0,0,1,9,1.81A32.42,32.42,0,0,0,135,8.47c2.72,0,5.44.14,8.14.32,4.44.29,8.87.13,13.31.17s9.11,0,13.67,0A20.06,20.06,0,0,0,176,8.07a6.35,6.35,0,0,1,2.43-.56.81.81,0,0,0,.62-.3,1.22,1.22,0,0,1,.84-.4A1.07,1.07,0,0,0,181,6.2c.05-.1.16-.23.25-.24,1.34-.24,2.19-1.4,3.45-1.79a10.34,10.34,0,0,1,3.72-.72c.19,0,.4,0,.57.29-.88.7-2.2.48-3.13,1.43,1.55-.26,3,.17,4.39-.21a1,1,0,0,1,.24,0c.27,0,.51.11.52.37a.41.41,0,0,1-.44.33,14.43,14.43,0,0,0-2.37.25,1.67,1.67,0,0,0-1,.4,28.15,28.15,0,0,1,3.44.28,5.81,5.81,0,0,1,.83.07c.13,0,.3.16.24.34s-.18.21-.26.2a17.84,17.84,0,0,0-2.74.14,6.81,6.81,0,0,0-2.22.41c1-.12,1.89.31,2.87.23a2.15,2.15,0,0,1,.7.12.35.35,0,0,1,.27.36.32.32,0,0,1-.32.29h-1.56a2.36,2.36,0,0,1,.33,2.76c-.7,1.54-.62,1.57,0,3.15.52,1.41.52,1.41-.16,2.67a3.54,3.54,0,0,0,1.17.09c.25,0,.54,0,.56.29s-.28.44-.58.44c-1.07,0-2.11.36-3.2.29a18,18,0,0,0,4.25.57c.23,0,.48,0,.71,0s.26.09.23.23a.42.42,0,0,1-.19.27,1.66,1.66,0,0,1-.58.08c-1.27,0-2.5.43-3.79.3a7.83,7.83,0,0,0,2.63.62,2.57,2.57,0,0,0,.48,0c.32,0,.76,0,.73.39s-.46.36-.79.28c-1.39-.36-2.79.06-4.36-.22,1,1,2.26.75,3.28,1.53a3,3,0,0,1-1.95.18,9.93,9.93,0,0,1-4.76-2c-.27-.23-.69-.16-.85-.33A7.68,7.68,0,0,0,179.05,19c-.17-.08-.28-.31-.49-.31-1.86,0-3.5-1-5.33-1.27a14.65,14.65,0,0,0-1.88-.25c-8.56,0-17.11,0-25.67.08-2.26,0-4.54.17-6.81.34-2,.15-4.08.05-6.12.14-1.83.09-3.66.21-5.47.48a20,20,0,0,0-2.17.59A72.37,72.37,0,0,1,116,20.54a47.11,47.11,0,0,0-8.72,2.39,14.75,14.75,0,0,1-5,1,2.74,2.74,0,0,0-1.16.24,14.34,14.34,0,0,1-4.63,1c-2.33.18-4.61-.29-6.91-.32a2.34,2.34,0,0,1-.58-.14L85,23.5a3.18,3.18,0,0,1-1.47-.75.88.88,0,0,0-.5-.29,8,8,0,0,1-4.49-3,2.44,2.44,0,0,0-1.92-.91c-2.56-.08-5.12-.09-7.66-.4a11.61,11.61,0,0,0-4.46.55c-1,.27-2,.56-3,.73a33.77,33.77,0,0,0-5.95,1.71,76.4,76.4,0,0,1-8.66,2.23,14.1,14.1,0,0,0-1.62.35,20,20,0,0,1-7,.92,22.36,22.36,0,0,1-6.7-1,3,3,0,0,1-1-.42c-1.23-.88-2.71-1.41-3.71-2.61a.73.73,0,0,0-.38-.26c-1-.08-1.62-.84-2.31-1.41-1.16-1-1.05-1.49-.2-2.38A.51.51,0,0,0,24.2,16a21.47,21.47,0,0,0-1.95,1.56,3.3,3.3,0,0,1-4.71.5,6.35,6.35,0,0,1-1.84-2c-.39-.66-.52-.72-1.19-.36a9.62,9.62,0,0,0-2.21,1.61,31.58,31.58,0,0,0-3.47,4.27,14.33,14.33,0,0,1-4.06,3.85,3.83,3.83,0,0,1-2.25.66A2.17,2.17,0,0,1,.28,24.32,13,13,0,0,1,.12,19.8,25.79,25.79,0,0,1,1.25,14a3.91,3.91,0,0,0-.17-2.46A26.19,26.19,0,0,1,0,3.24,6,6,0,0,1,.34,1.6C.79.17,2.3-.39,3.9.28A10.79,10.79,0,0,1,7.61,3.06C8.82,4.39,9.74,6,10.9,7.32a11.77,11.77,0,0,0,3.49,3.06c.81.42.89.41,1.36-.39A6.18,6.18,0,0,1,17.93,7.8a3.21,3.21,0,0,1,3.89.32c.39.33.61.86,1.12,1.05A3.64,3.64,0,0,1,24.13,10.08Zm6.4,10.66c.15,0,.25-.06.24-.23.6-.08.89-.53,1.19-1a1.27,1.27,0,0,0,1-.72,1,1,0,0,0,.92-.75.38.38,0,0,0,.52-.2c0-.06.25,0,.09-.16l-.06.19c-.21,0-.41,0-.52.2a1.39,1.39,0,0,0-.93.74,1.14,1.14,0,0,0-1,.72c-.61.05-.9.51-1.21,1-.16,0-.26.06-.23.25-.18,0-.27,0-.24.24-.31-.06-.42.19-.68.36.46.13.56-.12.67-.38Q30.52,21,30.53,20.74Zm52.81-1a.22.22,0,0,0,.22-.25.88.88,0,0,0,.72-.46.53.53,0,0,0,.1-.06s0,0,0-.06l-.09.14a.69.69,0,0,0-.73.46c-.15,0-.24.09-.22.26-.16,0-.3,0-.23.25-.56,0-.83.4-1.09.75s.14.34.35.41a.8.8,0,0,0,1.17,0c.83-.73,1.64-1.49,2.46-2.24a4.47,4.47,0,0,0-2.09,1.31c-.46.42-.84,1-1.57,1-.09-.61.54-.78.74-1.21A.34.34,0,0,0,83.34,19.78Zm-44.88,0a.3.3,0,0,0,.24-.24.31.31,0,0,0,.23-.25.28.28,0,0,0,.24-.24.3.3,0,0,0,.24-.24.3.3,0,0,0,.24-.25c.14,0,.2-.12.24-.24s.2-.12.24-.24a.28.28,0,0,0,.23-.24l.07,0,0,.06a.29.29,0,0,0-.23.25c-.13,0-.23.09-.24.24s-.23.09-.24.24-.23.09-.24.24-.24.09-.24.25c-.15,0-.25.06-.24.24-.16,0-.27.06-.23.25-.19,0-.3,0-.24.24-.22-.06-.29,0-.25.24-1.45.71-2.33,2.08-3.48,3.13-.13.11,0,.21.09.27s.29.15.41,0a41.41,41.41,0,0,1,3-3.4Zm49.68-.25a.33.33,0,0,0,.23-.25c.14,0,.2-.12.24-.24l.06,0,0,.06c-.13,0-.24.09-.24.24-.15,0-.26.08-.24.25-.17,0-.28.05-.23.25-1.09.33-1.59,1.35-2.36,2-.14.14-.37.33-.21.66L87.9,19.8ZM110,19.31a.32.32,0,0,0,.24-.25l.07,0a.07.07,0,0,0,0-.05l-.06.13c-.18,0-.26.07-.23.25-.18,0-.26.06-.27.22a6.19,6.19,0,0,0-1.7,1.9c-.57.15-.66-.13-.44-.56s.81-.75,1-1.33c.16,0,.21-.12.2-.27.18,0,.23-.11.24-.25l.07,0,0,.07c-.13,0-.25.07-.25.24a.22.22,0,0,0-.26.21,12.23,12.23,0,0,0-2.44,2.74,4.8,4.8,0,0,0,1.93-.84c.2.09.53.07.55,0,.2-.74,1-1.09,1.16-1.86C109.87,19.54,109.94,19.44,110,19.31Zm-49-1c.15,0,.21-.1.24-.22s.16-.07.19-.13.23-.16.06-.25-.2.05-.21.17a1.85,1.85,0,0,0,0,.23.28.28,0,0,0-.26.22l-.05.05Zm-18,0,.24-.24.06,0,0,.06c0,.14-.13.18-.24.24l-.24.27a.61.61,0,0,0-.54.21c-1,1-2.06,2-3,3.05a13.68,13.68,0,0,0-1.06,1.44c-.1.15-.14.3.07.37s.28.2.35-.09c.17-.74.8-1.16,1.23-1.73.9-1.18,2-2.14,3-3.28Zm6.71-.48a.28.28,0,0,0,.26-.23.3.3,0,0,0,.23-.24l.1-.05s0,0,0-.06l-.09.13c-.14,0-.24.09-.24.25a.22.22,0,0,0-.25.23.3.3,0,0,0-.26.23c-.33.26-.71.48-.69,1-.16,0-.23.08-.27.22a10,10,0,0,0-2.27,3,11.39,11.39,0,0,0,1.51-1.89c.25-.38.81-.58.73-1.17.17,0,.24-.08.27-.22a1.17,1.17,0,0,0,.69-1C49.63,18.1,49.7,18,49.72,17.85Zm-3.61,0c.09,0,.25.05.13-.14l-.1.17a.25.25,0,0,0-.24.24,37,37,0,0,0-4.9,5.4c.65.23.82-.15,1-.48a39.5,39.5,0,0,1,3.38-4.15c.21-.22.51-.4.44-.79C46.07,18.12,46.12,18,46.11,17.84Zm1.46-.23.1,0s0,0,0-.06l-.09.13c-.14,0-.25.08-.27.23a21.9,21.9,0,0,0-4.45,5.47,1.29,1.29,0,0,0,1.22-.81c.64-1.06,1.42-2,2.11-3,.37-.54,1.06-.88,1.1-1.64C47.5,17.88,47.54,17.76,47.57,17.61Zm3.85-.22a.33.33,0,0,0,.1-.06s0,0,0-.07l-.08.16c-.18,0-.28,0-.25.24-.35-.05-.53.09-.49.46-.2,0-.24.09-.25.24a1.73,1.73,0,0,0-1,1.19c-.37.22-.72.47-.71,1-.67.34-.91,1-1.27,1.6a2.42,2.42,0,0,0,1.24-1.62,1.25,1.25,0,0,0,.72-1,1.79,1.79,0,0,0,1-1.19c.17,0,.23-.09.25-.24a.84.84,0,0,0,.48-.46Zm-14.64,0,.1-.05s0,0,0-.07-.1,0-.1.14a.35.35,0,0,0-.26.25,1.3,1.3,0,0,0-.69.14c-.65.43-1.35.82-2,1.3a23.17,23.17,0,0,0-3.13,2.56c-.17.17-.2.34,0,.49s.28.31.5.13A2.66,2.66,0,0,0,31.6,22a61.29,61.29,0,0,1,4.92-4.32ZM5.33,16.65a.28.28,0,0,0,.25-.22c.23-.11.24-.3.2-.51.19,0,.23-.09.27-.23a.27.27,0,0,0,.24-.24l.06,0,0,.07a.23.23,0,0,0-.24.24.31.31,0,0,0-.27.23.42.42,0,0,0-.2.51c-.17,0-.25.06-.25.22a.26.26,0,0,0-.27.24c-1.28,1-2.29,2.4-3.77,3.22-.46.25-.29.72-.2,1.24a15,15,0,0,0,2.56-2.62c.46-.62,1.25-1,1.39-1.87C5.23,16.9,5.3,16.8,5.33,16.65Zm1.19-.24.06,0,0,.06-.26.25c-.22.1-.21.3-.2.49-.18,0-.24.09-.27.23-.25.08-.37.28-.53.46C4,19.32,3,21,1.28,22c-.25.16-.28.42-.08.77a36.21,36.21,0,0,0,3.32-3.49,5,5,0,0,0,1.27-1.95.27.27,0,0,0,.27-.22c.19-.12.19-.31.2-.5A.29.29,0,0,0,6.52,16.41Zm13.7-.22c0-.05.25-.05.05-.17l0,.19-.1.06ZM7,15.69l.06,0,0,.06-.09,0s0,0,0,.06Zm-3.13-.24c.16,0,.25-.07.23-.25l.1-.06-.07.09a.26.26,0,0,0-.23.24c-.14,0-.29.06-.24.26-.78.09-1.27.71-1.92,1.05-.32.17-.26.54-.23.85l-.06,0,0,0a8.91,8.91,0,0,0,2.15-1.91A.25.25,0,0,0,3.88,15.45ZM3.17,15l.06,0,0,.06-.1,0,0,.06Zm3.6-.23.05-.05,0,.05c0,.08,0,.09-.07,0Zm-1,0a.27.27,0,0,0,.25-.21s.23-.06,0-.16v.19c-.21-.08-.23.06-.25.21a.32.32,0,0,0-.27.24c-1.31,1.14-2.55,2.38-4,3.41-.27.19-.49.43-.24.82a1.73,1.73,0,0,0,.41-.2A26.35,26.35,0,0,0,5.39,15.4,1.67,1.67,0,0,0,5.55,15C5.7,15,5.77,14.87,5.81,14.73Zm.29-3.14c0,.1-.09.2.09.16l-.13-.14a.3.3,0,0,0-.27-.21.23.23,0,0,0-.25-.23.68.68,0,0,0-.22-.54A28.11,28.11,0,0,0,1.87,7.18c-.13-.12-.32-.37-.58-.17,0,.13-.05.31,0,.36,1.41,1.26,2.84,2.51,4.27,3.77a.3.3,0,0,0,.25.23C5.86,11.51,5.89,11.65,6.1,11.59Zm.67-.21c.08,0,.09.07,0,.07s0,.09,0-.06l0-.05Zm-3.61-.23c.08,0,.09,0,0,.06l0-.06a.42.42,0,0,0,0-.1s0,0-.07,0Zm1-.24,0,0-.08,0c0-.19-.07-.24-.23-.24,0-.16-.07-.23-.21-.26A9.58,9.58,0,0,0,1.51,8.5l-.05,0,.07,0c-.05.32-.1.69.22.86.64.35,1.14,1,1.92,1.06,0,.19.09.21.22.25A.3.3,0,0,0,4.12,10.91Zm2.18-.27,0,.06,0,0A.26.26,0,0,0,6,10.44c0-.15-.07-.26-.25-.22,0-.21,0-.41-.2-.51a.32.32,0,0,0-.26-.24.23.23,0,0,0-.25-.23A11.45,11.45,0,0,0,2.89,6.47c-.52-.59-1.13-1.12-1.8-1.78,0,1.12,0,1.13.62,1.57A14.65,14.65,0,0,1,3.89,8.1,4.93,4.93,0,0,0,5.1,9.21c0,.15.09.24.25.23,0,.16.07.26.26.24a.41.41,0,0,0,.2.5.28.28,0,0,0,.25.23C6.09,10.54,6.14,10.65,6.3,10.64ZM7,10.42c.07,0,.08.07,0,.06s0,.09,0-.05l0-.1s0,0-.06,0Zm13.23-.51c0,.08-.09.24.12.16l-.15-.13-.08,0ZM6.53,9.7l0,.05-.07,0a.28.28,0,0,0-.24-.24c0-.18,0-.37-.21-.48a.27.27,0,0,0-.27-.23,5.94,5.94,0,0,0-1.5-2.23A28.5,28.5,0,0,0,1.16,3.34c-.16.43-.06.65.21.83A11.85,11.85,0,0,1,3.84,6.55a13.64,13.64,0,0,0,2,2.18c0,.15.09.26.26.23,0,.2,0,.4.22.49C6.34,9.57,6.39,9.67,6.53,9.7Zm44.91-1s0,.08,0,.11,0,0,.07.05l-.11-.14a.3.3,0,0,0-.23-.24A.85.85,0,0,0,50.69,8c0-.15-.08-.25-.25-.24a1.75,1.75,0,0,0-1-1.19,1.28,1.28,0,0,0-.72-1C48.27,4.41,48,4.14,47.4,4.06c.5.51.7,1.25,1.39,1.55,0,.51.34.75.71,1a1.79,1.79,0,0,0,1,1.19c0,.15,0,.27.24.24,0,.36.15.5.5.45C51.18,8.66,51.26,8.73,51.44,8.72Zm-1.22,0s0,.08,0,.11,0,0,.06,0l-.12-.11c0-.14-.12-.2-.24-.24a.28.28,0,0,0-.24-.24c0-.15-.09-.23-.25-.22a1.21,1.21,0,0,0-.7-1c0-.14-.09-.25-.27-.23a8.46,8.46,0,0,0-2.43-3,17.66,17.66,0,0,0,2.46,3c0,.14.11.24.27.23,0,.5.35.73.69,1a.26.26,0,0,0,.26.22c0,.14.07.25.24.24C50,8.63,50.07,8.72,50.22,8.72Zm-13.43,0s0,.25.14.12l-.17-.09-.25-.24a61.34,61.34,0,0,1-5-4.41c-.25-.27-.47-.4-.78-.11s0,.49.18.66a30.17,30.17,0,0,0,4.94,3.7,1.41,1.41,0,0,0,.69.13A.3.3,0,0,0,36.79,8.72Zm10.79-.23a.3.3,0,0,0,0,.1s0,0,.07,0l-.14-.1c0-.15-.06-.26-.24-.23,0-.08,0-.19,0-.24A50.06,50.06,0,0,1,43.9,3.3a.89.89,0,0,0-1.15-.42,13,13,0,0,0,1.68,2.23,18.45,18.45,0,0,0,2.9,3.15A.25.25,0,0,0,47.58,8.49Zm-1.45-.23s0,.27.17.09l-.19-.06c0-.17,0-.27-.23-.25a.43.43,0,0,0-.13-.43,36.13,36.13,0,0,1-3.89-4.82c-.23-.34-.49-.31-.85-.13.34.41.65.82,1,1.21A29.52,29.52,0,0,0,45.9,8,.23.23,0,0,0,46.13,8.26Zm-5.76,0,0,.05-.06,0c0-.14-.11-.2-.23-.24s-.12-.2-.24-.24-.12-.2-.25-.23-.11-.21-.23-.25-.12-.2-.24-.24a.3.3,0,0,0-.23-.25.31.31,0,0,0-.24-.24.3.3,0,0,0-.23-.24l-.24-.24C37.27,5,36.15,4,35.32,2.81c-.15-.22-.28-.26-.47-.13s-.06.34.06.46l2.83,2.73c.13.13.27.29.51.2,0,.2,0,.3.24.24-.06.21,0,.28.23.24,0,.2.06.26.24.25a.2.2,0,0,0,.22.24.24.24,0,0,0,.25.24c0,.14.08.24.23.25a.26.26,0,0,0,.24.23c0,.13.1.23.24.24A.3.3,0,0,0,40.37,8.26ZM43.25,8c.08,0,.08.07,0,.07s0,.08,0-.06L43,7.79l-.23-.25c-.52-.55-1.07-1.07-1.54-1.66-.89-1.11-2.1-2-2.66-3.35-.1-.26-.23-.12-.35-.09a.19.19,0,0,0-.13.27,1.88,1.88,0,0,0,.23.42,33.11,33.11,0,0,0,3.94,4.18.64.64,0,0,0,.54.21l.22.25ZM61,7.77a.29.29,0,0,0,.25.25l.11.4.15-.07c0-.15-.11-.28-.29-.3A.28.28,0,0,0,61,7.8l0-.06ZM110.24,7a.25.25,0,0,0,0,.09l0,0-.08-.11c0-.14-.12-.2-.24-.24a.24.24,0,0,0-.25-.22c-.14-.77-1-1.12-1.16-1.87,0-.09-.35-.11-.55,0a3,3,0,0,0-1.85-.7,11.34,11.34,0,0,0,2.37,2.58.22.22,0,0,0,.25.23c0,.16.1.21.22.25s.09,0,0,.06l0-.06c0-.15-.06-.24-.23-.23,0-.16-.05-.26-.23-.25,0-.4-.32-.59-.53-.85s-.39-.37-.46-.64c-.14-.51.14-.51.5-.42a6.17,6.17,0,0,0,1.71,1.89c0,.16.08.25.25.23C110,7,110.05,7.07,110.24,7Zm-21.63,0,0,.05-.06,0a.29.29,0,0,0-.23-.24.3.3,0,0,0-.23-.25l-.23-.24c-.84-.91-1.68-1.81-2.53-2.71a5.43,5.43,0,0,0,2.56,2.68c-.05.2,0,.26.23.24,0,.17.06.25.23.25A.26.26,0,0,0,88.61,7.06Zm-5.26-.74c0,.17.08.24.23.27A.67.67,0,0,0,84.3,7s0,.08,0,.11,0,0,.06,0l-.13-.11a.81.81,0,0,0-.72-.46c0-.16-.08-.23-.23-.26a.28.28,0,0,0-.22-.25c-.2-.44-.83-.6-.74-1.21.51-.09.8.28,1.13.55s.61.64,1,.89a2.94,2.94,0,0,0,1.62.89c-.92-.85-1.69-1.53-2.44-2.23a.83.83,0,0,0-1.24-.07c-.21.06-.56.12-.35.41s.52.79,1.09.74C83.05,6.29,83.18,6.32,83.35,6.32ZM30.54,5.38c0,.18.07.24.23.25.31.43.6.9,1.21,1a1.17,1.17,0,0,0,1,.72,1.49,1.49,0,0,0,.94.74c.11.22.31.22.51.2,0,.07,0,.24.15.13l-.18-.1a.36.36,0,0,0-.51-.2,1,1,0,0,0-.93-.75,1.2,1.2,0,0,0-1-.72c-.3-.44-.59-.9-1.19-1,0-.18-.1-.23-.25-.23a.21.21,0,0,0-.24-.24c-.09-.27-.2-.51-.67-.38.27.16.39.41.69.36Q30.27,5.41,30.54,5.38Zm15.1,16.08a.4.4,0,0,0-.19.53c-.35.1-.56.29-.5.69l-.12.08s.06,0,.07,0l0-.08c.34-.11.41-.41.49-.7a.39.39,0,0,0,.2-.53c.18.06.24-.06.27-.21a1.29,1.29,0,0,0,.72-1,11.9,11.9,0,0,0,2.47-3A9.64,9.64,0,0,0,47.43,19c-.28.41-.83.66-.8,1.27a1.11,1.11,0,0,0-.71,1C45.76,21.23,45.69,21.34,45.64,21.46ZM184.37,21c.06.07.06.09,0,0s-.25-.3-.48-.22c-.07-.39-.35-.48-.69-.49l-.07-.06.09,0a.73.73,0,0,0,.69.49C184,21,184.2,20.92,184.37,21ZM80.91,19a1.75,1.75,0,0,0,.33,0c.06,0,0-.11,0-.12s-.21.07-.26.18-.26.09-.21.28a.35.35,0,0,0-.42.08c-.07.06-.21.16-.08.27s.2,0,.27-.11a1.71,1.71,0,0,0,.2-.27C80.83,19.27,80.94,19.21,80.91,19ZM28.15,17.18c-.16.06-.46-.12-.46.25-.22-.07-.43-.07-.51.21a4,4,0,0,0-1.71.93c.78.81,1.27,1,1.78.56A33.78,33.78,0,0,1,30.49,17c-.27-.21-.46,0-.66.07a23,23,0,0,0-3.07,1.8c-.16.11-.39.37-.6,0s.07-.42.22-.6.69-.24.78-.67a.44.44,0,0,0,.51-.21.68.68,0,0,0,.45-.25c0-.07.28,0,.11-.17Zm-1.45-.27.33-.09s-.09-.1-.13-.1-.2.08-.17.22c-.22,0-.43-.08-.51.22a2.7,2.7,0,0,0-1.78,1,3,3,0,0,0,1.76-1C26.41,17.16,26.6,17.14,26.7,16.91ZM8.22,16.68c-.2.1-.21.28-.24.47a.34.34,0,0,0-.21.51c-.36,0-.39.32-.53.54A28.21,28.21,0,0,1,2.6,23.78c-.23.22-.49.41-.72.62a.27.27,0,0,0,0,.42c.13.15.31.28.51.14a3.31,3.31,0,0,0,.45-.39,15,15,0,0,0,2-2.23,18.76,18.76,0,0,0,3-4.7c.23-.11.23-.31.21-.52.31,0,.2-.29.24-.47.06,0,.26,0,.12-.16Zm-1,0C7,16.78,7,17,7,17.18c-.37.09-.46.38-.49.71a.68.68,0,0,0-.49.71c-.28.17-.57.33-.46.74-.19-.06-.24.07-.26.22a2.23,2.23,0,0,0-1,1.16,9.31,9.31,0,0,0-1.52,1.49A5.58,5.58,0,0,0,1.39,23.8a12.21,12.21,0,0,0,3-3c.36-.37.91-.61.91-1.25.19,0,.21-.09.26-.22A.73.73,0,0,0,6,18.58a.69.69,0,0,0,.49-.72A.79.79,0,0,0,7,17.15c.26-.09.23-.3.21-.51.17,0,.24-.08.27-.23.23-.08.21-.28.22-.47s.27,0,.11-.17l-.08.2c-.26.07-.21.29-.22.47C7.36,16.44,7.29,16.53,7.25,16.67Zm1.91,0c0-.1.3-.12.08-.28l-.05.31c-.28.06-.22.29-.26.48-.83,1.11-1.33,2.4-2.12,3.54-.92,1.34-2,2.53-3,3.85-.11.05-.24.09-.07.22,0,0,.1-.09.15-.14a5.82,5.82,0,0,0,2.84-2.55c.76-1.38,1.41-2.81,2.05-4.25a1.17,1.17,0,0,0,.09-.69C9.24,17.1,9.11,16.83,9.16,16.64Zm-7.2-1c.2,0,.4,0,.48-.22,0-.06.27,0,.12-.15l-.09.18c-.19,0-.41,0-.49.22,0,0-.07,0-.1,0s0,0,0,.07ZM184.38,5.17c-.17,0-.4,0-.49.21a.75.75,0,0,0-.69.49s-.13.1,0,0c.35,0,.63-.1.7-.49.23.09.37,0,.49-.21l.09-.06s0,0,0,0ZM8.21,15.21s.13-.07.16-.12.07-.2-.06-.26a1.39,1.39,0,0,0-.06.19c0,.07,0,.15,0,.22s-.24,0-.1.15ZM45.65,4.67c0,.13.1.23.27.22a1.14,1.14,0,0,0,.71,1c.48,1.27,1.57,2.05,2.42,3a11.45,11.45,0,0,0-2.44-3,1.26,1.26,0,0,0-.72-1c0-.15-.08-.27-.27-.22a.39.39,0,0,0-.2-.52c-.08-.29-.15-.59-.49-.7l0-.09h-.07l.12.08c-.07.4.16.59.5.69A.38.38,0,0,0,45.65,4.67ZM8.21,10.93c-.07,0,0-.25-.15-.11l.18.08.07.4s.08,0,.08-.05A.25.25,0,0,0,8.21,10.93ZM2,10.45a.35.35,0,0,0,0-.11s-.05,0-.07,0l.13.11c.08.24.29.22.47.23s0,.26.17.11l-.19-.09C2.36,10.42,2.15,10.46,2,10.45Zm5.53-.73c0-.14-.09-.25-.26-.23,0-.21,0-.41-.21-.51-.06-.31-.16-.59-.5-.69A.7.7,0,0,0,6,7.56a.73.73,0,0,0-.46-.73c0-.13-.07-.28-.26-.23,0-.64-.55-.87-.91-1.24C3.72,4.19,2,2.56,1.14,2.42c1.24,1,2.12,2.08,3.2,3a2.19,2.19,0,0,0,1,1.16c0,.15.07.27.26.22-.11.41.17.57.47.73a.7.7,0,0,0,.48.73A.67.67,0,0,0,7,9c0,.21,0,.41.22.51a.25.25,0,0,0,.26.23c0,.19,0,.41.22.48.06,0,0,.27.16.13l-.19-.1C7.7,10,7.71,9.81,7.49,9.72ZM26.71,9.2a.18.18,0,0,0,.2.22s.08-.07.12-.11l-.35-.08C26.6,9,26.41,9,26.2,9a2.92,2.92,0,0,0-1.75-1,2.75,2.75,0,0,0,1.77,1C26.29,9.27,26.5,9.23,26.71,9.2ZM9.19,9.43a.57.57,0,0,1,0,.22c0,.12,0,.16.09.09s0-.07,0-.1-.09-.13-.13-.19S9.23,9,8.91,9a1.89,1.89,0,0,0,0-.59A48,48,0,0,0,6.65,3.86,5.48,5.48,0,0,0,3.92,1.52c0-.13-.1-.22-.23-.07l.18.12a1.33,1.33,0,0,0,.44.69,31,31,0,0,1,2.36,3C7.56,6.42,8.07,7.81,8.94,9,9,9.16,8.9,9.4,9.19,9.43Zm-1,0c.06,0,0,.28.16.12l-.19-.09c0-.18.06-.42-.24-.48,0-.21,0-.4-.2-.51A9.52,9.52,0,0,0,6.38,6,26.53,26.53,0,0,0,2.61,1.39c-.2-.2-.41-.43-.71-.16s-.06.47.15.66A25.4,25.4,0,0,1,7.34,8.15c.09.15.17.38.43.32-.09.24,0,.41.21.5C8,9.16,8,9.36,8.22,9.45ZM28.15,9c0,.09,0,.27.17.13l-.2-.1a.67.67,0,0,0-.47-.25.38.38,0,0,0-.49-.22c-.11-.45-.64-.43-.87-.75-.11-.16-.27-.29-.13-.51s.33-.12.49,0c.75.46,1.47,1,2.24,1.36a3,3,0,0,0,1.71.65c-1.12-.72-2.13-1.32-3.1-2s-1.25-.65-2,.38c.55.28,1,.82,1.65.86.07.27.27.27.49.22C27.7,9.06,28,8.91,28.15,9ZM80.9,7.11c0-.19-.07-.24-.2-.29s-.13-.18-.21-.27-.16-.2-.27-.11,0,.21.08.27a.37.37,0,0,0,.42.09c-.06.18.08.23.21.28s.13.2.26.18.11-.11,0-.13A1.3,1.3,0,0,0,80.9,7.11ZM37.72,8.53a.28.28,0,0,0-.23-.27c-.25-.34-.48-.71-1-.68,0-.19-.06-.25-.22-.27-1.2-1.41-2.58-2.65-3.91-3.93,0,0-.2.05-.48.13,1,.91,1.79,1.79,2.72,2.56.53.43.92,1.11,1.7,1.22,0,.17.09.22.22.27.25.33.49.69,1,.68a.23.23,0,0,0,.23.26c0,.35.16.51.52.38A.7.7,0,0,0,37.72,8.53Zm0,9.07a.63.63,0,0,0,.55-.35c-.37-.12-.52,0-.52.38-.15,0-.25.1-.24.26a1.23,1.23,0,0,0-1,.69c-.13,0-.23.1-.22.27-.74.1-1.08.75-1.62,1.14a26.24,26.24,0,0,0-2.77,2.64c.25.08.41.17.45.13a53.82,53.82,0,0,0,3.91-3.94c.16,0,.27-.07.23-.26.49,0,.74-.33,1-.7A.25.25,0,0,0,37.72,17.6Zm14.9-.18c-.47,0-.66.27-.74.67a15,15,0,0,0-3,3.73c.48.12.62-.18.75-.4.42-.72,1-1.35,1.43-2,.28-.43.81-.68.86-1.26a1.68,1.68,0,0,0,.69-.73l.08-.06s0,0,0,0Zm0-8.69,0,.09.05,0-.12-.1A1.55,1.55,0,0,0,51.91,8a15,15,0,0,0-3.13-3.84A15.24,15.24,0,0,0,51.88,8C52,8.45,52.16,8.73,52.62,8.73Zm-34.31,8-.76,0c-.12-.38.34-.57.37-1-.39.06-.73-.08-1.06.13a1.23,1.23,0,0,0,.72.81,1,1,0,0,0,.64.6l.07-.57.05-.06Zm6.94-.06a1,1,0,0,0,.77-.4c-.39,0-.75-.13-.77.41,0,.08-.05.09-.05,0S25.11,16.73,25.25,16.65ZM54.78,8.5a.48.48,0,0,0,0,.22.66.66,0,0,0,.24.19c.22-.18-.06-.23-.11-.33s-.13,0-.21-.06c0-.49-.34-.74-.7-1-.13-.61-.66-1-.87-1.55-.29-.77-.28-.77-1-.88.5.7.94,1.35,1.41,2,.13.18.26.4.54.42C54.06,8,54.41,8.27,54.78,8.5ZM18.3,9.44l0,.08-.06-.06-.09-.55a4.84,4.84,0,0,0-.44.3,1.1,1.1,0,0,0-.17.28,1,1,0,0,0-.7.84,1.52,1.52,0,0,0,1.05,0c-.12-.32-.45-.51-.37-.87Zm7,0c-.08,0-.09,0,0-.06l0,.06c0,.57.36.46.73.37C25.76,9.67,25.57,9.44,25.26,9.47Zm29.52,8.17c-.38.22-.72.47-.7,1-.95.54-1.26,1.57-1.95,2.4.77-.12.77-.12,1-.88.21-.55.74-.94.87-1.54.36-.24.7-.48.71-1a.27.27,0,0,0,.29-.14c.05-.07.22-.16,0-.25,0,0-.15,0-.18.09A1.28,1.28,0,0,0,54.78,17.64ZM110.45,20c-.28.24-.69.38-.59.87a.12.12,0,0,0,.1,0c.5-.13.47-.54.46-.93.19.05.25-.06.27-.22a1.6,1.6,0,0,0,.77-.85,1,1,0,0,0-.75.87C110.55,19.79,110.48,19.89,110.45,20Zm.24-13.66c0-.16-.07-.27-.26-.23,0-.39,0-.8-.47-.93,0,0-.09,0-.1,0-.09.48.3.63.59.86,0,.14.09.24.26.23.29.63.29.63.82.8A2.4,2.4,0,0,0,110.69,6.36Zm11,12c-.47,0-1-.14-1.35.34.46-.07,1,0,1.33-.36.3-.06.62.06,1-.14C122.31,18.18,122,18.06,121.73,18.35Zm0-10.57a.8.8,0,0,0,.93.08l-1-.05c-.86-.41-.86-.41-1.4-.17A3.34,3.34,0,0,0,121.73,7.78Zm-5,11.49a.83.83,0,0,0,1.08-.58c-.64-.3-.76.32-1.08.6l0,.06Zm0-12.42,0-.06,0,0c.29.3.43.88,1.06.61A.86.86,0,0,0,116.69,6.85ZM8.7,6.11A.36.36,0,0,0,8.63,6H8.56c0,.08.07.1.17.06a2.69,2.69,0,0,0,.69,1.71,18,18,0,0,0,1.15,3.38c.12-.09.18-.11.18-.13A7,7,0,0,0,9.4,7.8C9.56,7.07,9.09,6.61,8.7,6.11ZM8.7,20c.39-.5.86-1,.7-1.7a5.81,5.81,0,0,0,1.24-3.51,18.55,18.55,0,0,0-1.22,3.53,2.73,2.73,0,0,0-.69,1.71c-.1,0-.15,0-.17.07s.06,0,.07,0A.31.31,0,0,0,8.7,20ZM185.36,7.34a1.55,1.55,0,0,0-1.54.51c.78.4,1.07-.28,1.51-.54l.31-.08s-.07-.09-.11-.09S185.33,7.2,185.36,7.34Zm0,11.46c0,.15.08.2.2.21s.07-.07.11-.1l-.33-.08c-.44-.27-.72-1-1.53-.5A1.76,1.76,0,0,0,185.35,18.8ZM103,10c-.47,0-1-.19-1.58.24a2,2,0,0,0,1.39.13c.21,0,.13-.25.18-.39l0-.05Zm0,6.19,0,0-.06,0c-.32-.58-.71-.62-1.54,0Zm-45.82,2a3.25,3.25,0,0,0-1.46,1.66s-.24,0,0,.14.08-.09,0-.17a.4.4,0,0,0,.51-.12,4.15,4.15,0,0,0,1-1.53.88.88,0,0,0,.54-.74C57.35,17.59,57.12,17.76,57.19,18.13ZM55.71,6.37c0-.11,0-.21-.12-.14l.14.12A3.33,3.33,0,0,0,57.19,8c0,.4.17.59.62.74A1.29,1.29,0,0,0,57.17,8a4.07,4.07,0,0,0-1-1.53A.41.41,0,0,0,55.71,6.37ZM10.87,8.75l0,0h.07a4.47,4.47,0,0,0,.88,2.35A2.67,2.67,0,0,0,10.87,8.75Zm0,8.64a2.29,2.29,0,0,0,.84-2.12,4.11,4.11,0,0,0-.81,2.14Zm9.35-8.88c0-.14-.09-.19-.21-.18s-.07.07-.1.11l.32.06A2.67,2.67,0,0,0,21.3,10c.24-.76.23-.82-.32-1.2A1,1,0,0,0,20.21,8.51Zm0,9.11c1.21-.3,1.38-.53,1.08-1.45a2.74,2.74,0,0,0-1.07,1.47l-.31.05s.05.1.08.1A.18.18,0,0,0,20.21,17.62Zm165.61,0c0,.06.08.15.13.16a1.82,1.82,0,0,0,.33,0,2.67,2.67,0,0,0-.26-.09,1.6,1.6,0,0,0-.23,0l-2.45-1.37c-.29.94-.29.91.6,1.11A6,6,0,0,0,185.82,17.61Zm0-9.08a6.13,6.13,0,0,0-2,.24c-.88.16-.88.15-.34,1.15a11.21,11.21,0,0,1,2.31-1.42l.23,0,.26-.08a1.17,1.17,0,0,0-.32,0C185.9,8.38,185.87,8.47,185.82,8.53Zm-78.46-2a.76.76,0,0,0,0,.21.88.88,0,0,0,.18.25s.13,0,.19-.06-.13-.18-.2-.26a.88.88,0,0,0-.19-.12c-.63-.86-1.31-1.69-1.9-2.58-.29-.45-.64-.49-1.16-.49a17.23,17.23,0,0,0,2.65,3A.46.46,0,0,0,107.36,6.56Zm0,13a.44.44,0,0,0-.44.08,16.52,16.52,0,0,0-2.65,3c.52,0,.87,0,1.16-.49.59-.89,1.27-1.73,1.9-2.58a1.37,1.37,0,0,0,.26-.2c0-.06.24-.14,0-.24a.18.18,0,0,0-.25.14C107.36,19.36,107.37,19.47,107.36,19.58ZM32,17.17c-1.48.3-2.58,1.3-3.81,2-.36.21-.28.57-.17,1a23.1,23.1,0,0,1,2.65-2.11c.42-.34,1-.45,1.3-1,0-.06.26,0,.13-.15ZM32,9c.06,0,0,.27.17.1L32,9c-1.23-1.12-2.76-1.83-4-3.09-.06.47-.14.81.19,1C29.4,7.67,30.5,8.66,32,9ZM53.79,5.66c0-.09,0-.24-.15-.13l.17.1a9.31,9.31,0,0,0,2.39,3.2.42.42,0,0,0,.58,0,15.4,15.4,0,0,1-2.14-2.93C54.5,5.6,54.12,5.59,53.79,5.66Zm0,14.82a.76.76,0,0,0,.92-.36,14.93,14.93,0,0,1,2.11-2.87c-1,.12-2.24,1.53-3,3.25,0,.06-.25,0-.09.16Zm.29-11.54V9l0,0a3.42,3.42,0,0,0-.23-.42A16.5,16.5,0,0,1,51.48,5c-.16-.43-.57-.39-1.07-.2,1,1.32,2,2.57,3,3.79C53.55,8.82,53.74,9.09,54.08,8.94Zm0,8.26c-.4-.14-.57.18-.77.4-.39.44-.77.9-1.12,1.38a16.11,16.11,0,0,0-1.71,2.39c.87,0,.9,0,1.09-.48A10,10,0,0,1,52.75,19a11.26,11.26,0,0,0,1.32-1.82v0Zm46.3,6c.48,0,.68-.36,1-.64.82-.81,1.59-1.68,2.49-2.41a3.12,3.12,0,0,0,1-1c-.56-.25-.87.08-1.18.39l-3,3c-.16.16-.36.32-.34.59-.11,0-.21.06-.07.19Zm85.85-12c.25-.24.37-.49.11-.82s-.44-.66-.66-1c-.37.12-.82.19-.36.73a5.58,5.58,0,0,0,.94,1.06c.17.36.33.73.52,1.07s.67.45.87,0,.41-1.19.64-1.78a.68.68,0,0,0-.08-.56c-.38-.81-.78-1-1.84-.75.06.48.49.71.72,1.07a.79.79,0,0,1,.05.89C186.89,11.48,186.56,11.3,186.24,11.18Zm0,3.77c.32-.12.65-.3.91.1a.8.8,0,0,1-.05.9c-.23.36-.68.58-.71,1.1a2.8,2.8,0,0,0,.69.13,1.39,1.39,0,0,0,1.2-1.47,15.76,15.76,0,0,0-.62-1.79c-.2-.46-.62-.46-.87,0s-.35.72-.52,1.07a5.9,5.9,0,0,0-.94,1.06c-.46.55,0,.62.36.73.22-.33.41-.67.65-1S186.49,15.2,186.24,15ZM48.48,12.69a2.62,2.62,0,0,0,1.18.09h9.6a18.36,18.36,0,0,0,2.86-.16,16.53,16.53,0,0,1,2.24-.3c3.78-.08,7.57-.11,11.35-.18,10.11-.17,20.23,0,30.34-.21,5.44-.1,10.88,0,16.32-.06s10.63,0,15.95-.14c1.63-.06,3.26.13,4.89.11,4.48-.06,9,.18,13.43-.2a77.28,77.28,0,0,1,7.9.23c3.64.05,7.26-.25,10.9-.28a3.86,3.86,0,0,1,1.86.32,1.33,1.33,0,0,1,0,2.33,3.7,3.7,0,0,1-1.63.31c-2,0-4-.22-6-.24a94.66,94.66,0,0,0-9.82.19,43.94,43.94,0,0,1-5.5-.16c-3.56-.09-7.12-.06-10.68,0-1.79,0-3.59.18-5.38.1s-3.83-.08-5.75-.09l-31.91-.19c-2.2,0-4.39,0-6.59-.06-7.71-.12-15.41.17-23.12-.24-1.87-.09-3.76,0-5.64,0a9.81,9.81,0,0,1-1.79-.09,18.29,18.29,0,0,0-3.55-.39c-3.44,0-6.88,0-10.32,0a2.15,2.15,0,0,0-1.17.12,1.86,1.86,0,0,0,.21,1c.26-.17.45-.46.8-.42,1.12.13,2.21-.24,3.32-.2,1.95.06,3.9.14,5.86.18,1.59,0,3.17.29,4.75.41,2.5.19,5,.74,7.5.57a6.93,6.93,0,0,1,1.44,0,38.82,38.82,0,0,0,6.19.45c1.55,0,3.12.13,4.67,0,1-.05,2,.07,3,0,1.77-.07,3.5-.94,5.31-.31a.63.63,0,0,0,.34-.07,2.9,2.9,0,0,1,1.65,0,8.61,8.61,0,0,0,3.2,0A7.18,7.18,0,0,1,98.38,15a10.77,10.77,0,0,0,3.4,0,1.46,1.46,0,0,1,.83,0,5.64,5.64,0,0,0,1.78.17c1.4.06,2.79-.13,4.18-.19a43,43,0,0,0,6.31-.49,1.41,1.41,0,0,1,1.28.51.72.72,0,0,1,.06,1.06,2.23,2.23,0,0,1-1.92.79c-1.8,0-3.58.27-5.38.3-2.48,0-4.94-.24-7.41-.28-2,0-4,.29-6,.25-5.11-.1-10.22.18-15.33-.18-2.87-.21-5.75,0-8.62-.23a13.46,13.46,0,0,0-4.25-.08,1.94,1.94,0,0,1-.83,0,20.32,20.32,0,0,0-3.55-.4c-1.27-.07-2.54-.25-3.81-.34-1.94-.14-3.88-.41-5.83-.44a6.35,6.35,0,0,1-2.6-.18.37.37,0,0,0-.45.07c-.37.53-.88.35-1.37.2,0,.73.5.62.89.61l5.26,0a44.06,44.06,0,0,1,5,.48,18.07,18.07,0,0,0,2.74.22A21.58,21.58,0,0,1,66,17c3.22.35,6.46.36,9.68.6,2.27.18,4.55.16,6.83.23,4.67.14,9.35.16,14,.26,3.35.06,6.71.08,10.07-.09,3.9-.2,7.82,0,11.72-.5,3.73-.44,7.5-.22,11.24-.53,2.34-.2,4.7-.29,7.06-.31,2.68,0,5.34-.3,8-.41,3.47-.14,6.95-.07,10.43-.07h14.64a11.35,11.35,0,0,1,2-.1,35.34,35.34,0,0,1,4.66,1.07c.52.17,1.11.54,1.58.43s.44-1,.72-1.49a2.55,2.55,0,0,0,.21-2.3,2.29,2.29,0,0,1,0-1.65,2.37,2.37,0,0,0-.2-2.05,3.65,3.65,0,0,1-.32-.89c-.08-.64-.34-.67-.89-.46a34,34,0,0,1-5.43,1.36A17.85,17.85,0,0,1,168.7,10c-5.75,0-11.51,0-17.26,0-2.84,0-5.67,0-8.51-.19a83.07,83.07,0,0,0-8.5-.33,23.58,23.58,0,0,1-2.51-.13c-1.75-.16-3.5-.26-5.25-.34s-3.21.05-4.8-.11c-2.45-.24-4.92-.42-7.37-.54-3.71-.18-7.43-.22-11.15-.26S96.16,8,92.56,8.2c-4.15.23-8.31.06-12.47.27-3.62.19-7.26.25-10.89.51-2.93.22-5.88.34-8.82.53-1,.06-1.91.14-2.85.29a22.44,22.44,0,0,1-4.17.22c-1.24,0-2.48,0-3.72,0-.37,0-.74,0-.7.55.31.1.68-.31.88-.06.51.6,1.07.24,1.63.22,1.87,0,3.74,0,5.61-.23,1.23-.13,2.47-.22,3.69-.35,2-.21,4.13-.27,6.17-.63a2,2,0,0,1,1.41.13.73.73,0,0,0,.58,0,21,21,0,0,1,4.4-.37C76.49,9.06,79.69,9,82.88,9c5.26,0,10.54-.26,15.81.14a34.48,34.48,0,0,0,6.09-.11,66.49,66.49,0,0,1,9.57.18,4.19,4.19,0,0,1,1.05.23,1.41,1.41,0,0,1,1,1.06c.09.38-.54.94-1.13,1.07a1.32,1.32,0,0,1-.71,0,7.81,7.81,0,0,0-.82-.14c-1.74-.26-3.5-.21-5.25-.3a23.83,23.83,0,0,0-6.2,0,1.53,1.53,0,0,1-.94-.09,1.78,1.78,0,0,0-.82-.09,18,18,0,0,1-4.34,0c-1.55-.34-3.15.45-4.74,0-.06,0-.14,0-.22.07a3.77,3.77,0,0,1-2,0,14.4,14.4,0,0,0-3.64-.48c-1.39.08-2.77,0-4.16.09-1.91.1-3.84,0-5.75.1a47.35,47.35,0,0,1-6.07.4,20,20,0,0,0-3.8.32c-.83.1-1.67.12-2.49.24a36.29,36.29,0,0,1-5.7.44,14.16,14.16,0,0,0-2.52.07c-1.91.32-3.81-.13-5.72-.1a.92.92,0,0,1-.62-.32c-.08-.07-.12-.1-.23,0C48.61,12.08,48.31,12.34,48.48,12.69Zm22.57.42c.18.24.44.15.65.14,2.91-.09,5.82.31,8.73.05a5,5,0,0,1,2.14.16,1.91,1.91,0,0,0,1,0,36.7,36.7,0,0,1,7-.09c1.82,0,3.65-.39,5.45.15,11.47.1,22.94-.2,34.41.22,3.6.13,7.2,0,10.8,0,1.64,0,3.26-.22,4.91-.11,2.42.17,4.85-.15,7.29,0,2.7.21,5.44,0,8.16.06,1.6,0,3.17-.24,4.78-.23,2.51,0,5,.3,7.54.26a4.43,4.43,0,0,1,1.3.14,2.42,2.42,0,0,0,1.83-.38c.49-.27.48-.71,0-1a2.85,2.85,0,0,0-1.72-.39c-2.46.27-4.93.28-7.4.36-1.76.06-3.51-.07-5.26-.11-3.75-.09-7.51-.11-11.27.1-2.94.16-5.9-.1-8.85-.14-2.63,0-5.27,0-7.91,0-1.76,0-3.52,0-5.28,0-2,0-4,.19-6,.2-3.56,0-7.12,0-10.68,0s-7.12.09-10.68,0-7.08.38-10.63.12a10.38,10.38,0,0,0-2,0,24.4,24.4,0,0,1-5.73,0,2.75,2.75,0,0,0-1.07,0,4.09,4.09,0,0,1-1.66.15,36.42,36.42,0,0,0-5,0c-1.36.06-2.72,0-4.08.05C71.53,12.89,71.22,12.78,71.05,13.11ZM7.53,12.66v.15H17l25.07,0c.35,0,.75.13,1-.09a7.25,7.25,0,0,1,3-.84c.22,0,.5.05.62-.23s-.09-.53-.27-.74a1.64,1.64,0,0,0-1.34-.67c-.32,0-.64,0-1,0s-.42.05-.47-.23.33-.23.45-.43a13.66,13.66,0,0,0-1.57,0c-3,.35-6,.48-8.95.61-2.31.1-4.61.33-6.9.61-3,.37-6,.38-8.94.66-1.07.11-2.15.14-3.22.27C12.25,12,9.89,12.34,7.53,12.66Zm36.88,4c-.4-.26-.67-.24-.67-.49s.23-.28.43-.29h1a1.74,1.74,0,0,0,1.43-.74c.14-.18.33-.36.24-.64s-.37-.26-.6-.26a6.34,6.34,0,0,1-2.65-.58,3.86,3.86,0,0,0-1.79-.36l-24.68,0H10.25A1.77,1.77,0,0,0,9,13.7c1.76.18,3.33.42,4.91.61,2.81.34,5.63.56,8.46.64,2.07.06,4.11.46,6.18.57,1.47.08,2.92.39,4.39.41,1.8,0,3.58.32,5.38.26a3.56,3.56,0,0,1,.47,0Zm134.73,1.07c.36.84,1,.85,1.65.77.23,0,.45-.17.68-.2.41-.05.54.16.32.56-.1.19-.42.37-.08.57s.46-.07.6-.27.29-.47.42-.72,0-.53-.36-.62c-.69-.16-.69-.18-.25-.81a1.25,1.25,0,0,0,.22-.41,5,5,0,0,1,1.5-2.26c.25-.26.51-.5.75-.77a.75.75,0,0,0,0-1.08c-.21-.24-.44-.46-.66-.69a5.14,5.14,0,0,1-1.59-2.35A1.75,1.75,0,0,0,182,9c-.38-.51-.36-.59.22-.74s.69-.28.39-.83a5.25,5.25,0,0,0-.33-.49c-.15-.2-.35-.41-.6-.27s0,.37.08.56c.22.4.09.62-.32.57s-.53-.19-.8-.22c-.67-.07-1.27,0-1.51.82a15,15,0,0,1,3.7,3c1.16,1.21,1.16,2.11,0,3.31A16,16,0,0,1,179.14,17.77Zm.33-8.19a3.49,3.49,0,0,1,.16,2.81,1.71,1.71,0,0,0,0,1.18,3.71,3.71,0,0,1-.17,3,15.47,15.47,0,0,0,3.1-2.76c.51-.72.51-.83,0-1.58A14.36,14.36,0,0,0,179.47,9.58ZM35.86,23.51a1.39,1.39,0,0,0,1.75-.59,20.49,20.49,0,0,1,4.21-4.51,1.85,1.85,0,0,0,.68-.8c-.39-.19-.66-.27-1,.11s-.84.85-1.25,1.28Zm0-20.88,5.74,5.89c.26.27.55.21.85,0a1.44,1.44,0,0,0-.67-.8A20.71,20.71,0,0,1,37.6,3.2,1.34,1.34,0,0,0,35.88,2.63ZM92.74,23.71a1.1,1.1,0,0,0,1.68-.26c.76-1,1.62-1.86,2.42-2.81A4.61,4.61,0,0,0,98,19.06C95.84,20.12,94.54,22.12,92.74,23.71Zm0-21.29c1.42,1.41,2.67,2.85,4.1,4.11.35.31.69.67,1.28.43-1.27-1.44-2.56-2.85-3.76-4.32A1.07,1.07,0,0,0,92.77,2.42ZM39.63,8.7c-1.73-1.95-3.8-3.54-5.49-5.51a.48.48,0,0,0-.63-.14c-.29.15-.06.4,0,.58s.21.23.33.34c1.16,1.1,2.3,2.22,3.5,3.27A6.2,6.2,0,0,0,39.63,8.7Zm.08,8.82c-.26-.18-.4-.07-.58,0a40.44,40.44,0,0,0-4.6,4c-.33.29-.65.59-1,.91-.15.16-.32.44-.1.6a.44.44,0,0,0,.69-.16,5.76,5.76,0,0,1,.89-1C36.6,20.45,38.15,19,39.71,17.52Zm5.53-9c-1.7-2-3.39-3.67-4.83-5.58a1,1,0,0,0-1.21-.44C42.66,6.75,44,8.15,45.24,8.53Zm0,9.08c-1.21.38-4.88,4.24-5.93,6.06a1.14,1.14,0,0,0,1.2-.57c.3-.38.58-.76.9-1.12ZM94.89,2.14a1.87,1.87,0,0,0,.2.4L99,6.84a.62.62,0,0,0,.82.1,29.5,29.5,0,0,1-2.56-2.81c-.49-.62-1-1.21-1.54-1.8C95.52,2.07,95.28,1.89,94.89,2.14ZM95,24c1.3-.22,1.78-1.4,2.49-2.25a19.48,19.48,0,0,0,2.23-2.71A21.38,21.38,0,0,0,95,24Zm91.17-11a3.38,3.38,0,0,0-1.18-2.12c-.28-.24-.48-.93-.85-.61s.18.77.45,1c1.44,1.25,1.46,2.27,0,3.53-.27.23-.82.6-.49.93s.56-.31.85-.49a2,2,0,0,0,.5-.51A3.37,3.37,0,0,0,186.12,13Zm-84.46,6.08a3,3,0,0,0-.84,0,2.09,2.09,0,0,0-.53.46C99,21,97.76,22.44,96.5,24c.24,0,.35.09.38.06C98.49,22.51,99.83,20.73,101.66,19.12ZM101.58,7C99.89,5.44,98.52,3.73,97,2.17c-.13-.14-.27-.12-.43.09,1.29,1.5,2.53,3.06,3.91,4.49A1,1,0,0,0,101.58,7ZM34.16,17c-1.09.15-4,2.05-5.65,3.69.31.24.47.74.94.07a6.35,6.35,0,0,1,1.65-1.53C32.12,18.51,33.12,17.76,34.16,17ZM28.51,5.45C30.14,7.07,33.08,9,34.2,9.14l-.6-.43a19.14,19.14,0,0,1-4.15-3.34C28.93,4.73,28.82,5.2,28.51,5.45Zm62,13.63a.57.57,0,0,0-.77,0,18.54,18.54,0,0,0-3.38,3.36.19.19,0,0,0,0,.3.37.37,0,0,0,.54,0A29.9,29.9,0,0,1,90.49,19.08Zm11.83,3.47c.46.52.87.43,1.18-.06a15.32,15.32,0,0,1,1.7-2l1.2-1.34A15.24,15.24,0,0,0,102.32,22.55ZM106.43,7c-1-1.27-2.18-2.22-3-3.49a.7.7,0,0,0-.37-.26.52.52,0,0,0-.55.13c-.21.22,0,.36.12.48a19.83,19.83,0,0,0,2.61,2.41C105.58,6.54,105.78,7.07,106.43,7ZM96.14,19.13c-2,1.17-3.32,3-4.86,4.67.2,0,.38.11.42.07C93.24,22.35,94.64,20.69,96.14,19.13ZM90.34,7.31c.11-.38,0-.43-.11-.51a25.64,25.64,0,0,1-3.35-3.4c-.16-.23-.41-.18-.72,0C87.43,4.83,88.48,6.43,90.34,7.31Zm1.12-5C94,5.55,95.15,6.68,96.51,7c-1-1-1.79-1.75-2.63-2.48S92.58,2.7,91.46,2.29Zm1.71,4.76.27-.24-4.2-4c-.06,0-.11-.13-.18-.15a.54.54,0,0,0-.33,0c-.2.1-.13.29,0,.4.46.5.91,1,1.41,1.46A14.3,14.3,0,0,0,93.17,7.05Zm.28,12.28-.25-.24c-.14.07-.28.13-.41.21a33.33,33.33,0,0,0-4.07,3.81.24.24,0,0,0,0,.41c.22.14.36,0,.51-.15Zm6.82-16.47a26.51,26.51,0,0,0,3.7,4c.25.24.54.26,1,0C103.22,5.68,102,4.05,100.27,2.86ZM94.64,7c-1.3-1.55-2.83-2.89-4.07-4.51-.16-.22-.39-.25-.7-.1A27.74,27.74,0,0,0,94.64,7Zm.06,12.22c-.87.29-3.63,2.9-4.8,4.56.13,0,.3.09.35,0C91.74,22.29,93.22,20.75,94.7,19.22Zm8.35-12.29a60.68,60.68,0,0,1-4.22-4.44A.57.57,0,0,0,98,2.42L102.61,7a.16.16,0,0,0,.12,0Zm.08,12.22c-.66.09-1.34.66-2.71,2.13-.76.82-1.55,1.63-2.43,2.55.32,0,.47.05.54,0C100.16,22.43,101.36,20.62,103.13,19.15Zm-33.35-6c-2-.42-4.9-.33-5.63.12A38.8,38.8,0,0,0,69.78,13.11Zm17.81-6L84.67,4.23c-.14-.14-.28-.28-.47-.05a.33.33,0,0,0,0,.51,1.29,1.29,0,0,0,.16.17c.8.7,1.59,1.42,2.4,2.11A.72.72,0,0,0,87.59,7.15Zm0,11.88-.2-.19a34.52,34.52,0,0,0-3.14,2.64.36.36,0,0,0-.07.1.32.32,0,0,0,.11.41c.15.16.26.08.38,0Zm0-2.63c1.09,0,2.11,0,3.14,0,.23,0,.5,0,.48-.35s-.29-.34-.51-.33c-.53,0-1.1-.22-1.54.26s-1-.38-1.46.15A2.6,2.6,0,0,0,87.56,16.4Zm-.14-6.65c.68.71,1.28,0,1.51.26a1.71,1.71,0,0,0,1.4.43,3,3,0,0,0,.6,0,.3.3,0,0,0,.26-.34.28.28,0,0,0-.3-.3Zm6.94,6.82c0-.48,0-.86-.58-.84H92.23c-.26,0-.49,0-.45.39s.23.28.43.3A9.77,9.77,0,0,1,94.36,16.57ZM91.49,7.09l0-.06C90.26,5.7,89,4.36,87.71,3c0,0-.22,0-.42,0C88.72,4.44,90.1,5.77,91.49,7.09Zm-46,2.45a2.89,2.89,0,0,1,2.07,1.94c.19-.68.32-1.12.44-1.55A3.8,3.8,0,0,0,45.5,9.54Zm48.87.08-1.08.08c-.4,0-.8,0-1.2,0-.24,0-.33.16-.31.4s.16.26.33.26c.6,0,1.19,0,1.79,0S94.36,10,94.37,9.62ZM47.5,14.72a2.74,2.74,0,0,1-2,1.9H46.7c1.24-.06,1.38-.26,1.07-1.39A4.72,4.72,0,0,0,47.5,14.72Zm44.17,4.54-.19-.21-4.17,4c.15,0,.26.1.3.07C89.12,22,90.26,20.49,91.67,19.26ZM59.31,8.76c-1.1-1.85-1.24-2-2.12-2C57.84,7.43,58,8.49,59.31,8.76ZM183.24,19.29a3,3,0,0,0,2.65.82,5.5,5.5,0,0,0-2-.94C183.62,19.1,183.39,19,183.24,19.29Zm2.88-13.41a3.74,3.74,0,0,0-2.86,1C184.16,6.67,185.19,6.86,186.12,5.88ZM59.14,17.5c-1,.22-1.37,1.13-2,2.06C58.43,19.29,58.6,18.21,59.14,17.5ZM83.24,7.33c-.72-.66-1.24-1.12-1.75-1.6a.3.3,0,0,0-.5,0c-.13.16,0,.28.1.4A4.28,4.28,0,0,0,83.24,7.33ZM83,19a3.17,3.17,0,0,0-2,1,.27.27,0,0,0,0,.41.26.26,0,0,0,.41,0ZM19.36,15.73a3.63,3.63,0,0,1-.64,1.53c-.08.15-.15.28.06.36s.31.26.46-.06.31-.34.45-.53.29-.23,0-.33C19.26,16.52,19.63,16.08,19.36,15.73Zm92.9.54c-.1-.52-.35-.84-1-.76-.32,0-.35.25-.35.5s.1.38.34.38A1.55,1.55,0,0,0,112.26,16.27Zm1.92-.18c-.17-.41-.33-.79-.92-.65-.33.08-.46.15-.4.51s.23.48.55.4A7.75,7.75,0,0,0,114.18,16.09ZM19.45,10.31c0-.24,0-.56.1-.71s.39-.33.06-.59a1,1,0,0,1-.37-.44c-.12-.34-.28-.13-.44-.07s-.18.19-.09.35A6.91,6.91,0,0,1,19.45,10.31Zm78.08.1c.29-.11.89.26.87-.38,0-.49-.56-.24-.86-.29a1.18,1.18,0,0,0-.46,0c-.18,0-.23.19-.23.36s.15.25.31.26A2.12,2.12,0,0,0,97.53,10.41Zm14.78-.66c-.43,0-.75,0-1.06,0s-.29.32-.28.55.18.31.4.32C111.91,10.66,112.16,10.35,112.31,9.75Zm1.88.28-.86-.26c-.4-.09-.43.16-.48.47s.09.37.35.44C113.77,10.84,114,10.53,114.19,10ZM97.63,15.74h-.36c-.2,0-.41,0-.42.3a.35.35,0,0,0,.37.37l.84,0c.22,0,.39-.09.36-.36a.29.29,0,0,0-.31-.28ZM62.27,15.3a1.31,1.31,0,0,0-1.22-.52.43.43,0,0,0-.39.38c-.06.31.21.28.39.28A2.64,2.64,0,0,0,62.27,15.3Zm-1.72-4.6c.54.86.84.86,1.63.1A4.54,4.54,0,0,0,60.55,10.7ZM72.23,16c-.17-.58-.63-.5-1-.48a.32.32,0,0,0,0,.63C71.53,16.15,71.89,16.28,72.23,16Zm0-5.88A1.94,1.94,0,0,0,71.06,10c-.07,0-.15.17-.16.26s.08.27.14.28C71.48,10.63,72,10.77,72.28,10.11Zm42.1-2.89c-.39-.31-.29-1.35-1.35-.93C113.45,6.74,113.67,7.27,114.38,7.22Zm-54.3,3.87a1.23,1.23,0,0,0-.79-.16,1.64,1.64,0,0,0-.79.08C58.9,11.71,58.9,11.71,60.08,11.09Zm54.75-4.62c.29.57.53,1.08,1.36,1A1.49,1.49,0,0,0,114.83,6.47ZM60.17,15c-1.32-.58-1.32-.58-1.68.18A5.21,5.21,0,0,0,60.17,15Zm54.63,4.63a1.4,1.4,0,0,0,1.37-1C115.35,18.6,115.12,19.13,114.8,19.67Zm-1.74.25c1,.29.94-.63,1.28-1C113.7,18.94,113.38,19.37,113.06,19.92ZM47.49,13.49a6.65,6.65,0,0,0-2.33-.07C45.87,13.37,46.52,14,47.49,13.49Zm51.76-3.43c0,.28.14.33.24.32.44,0,.93.23,1.31-.2a.11.11,0,0,0,0-.11c-.37-.4-.81,0-1.21-.11C99.49,9.93,99.36,10,99.25,10.06Zm-.2,5.87c.6.39,1.09.2,1.54.3.12,0,.22-.07.21-.21s0-.25-.17-.26A2.94,2.94,0,0,0,99.05,15.93Zm-2.82.32a.43.43,0,0,0-.3-.44.84.84,0,0,0-.89.06c-.05,0,0,.23,0,.33.15.36.47.18.72.2A.44.44,0,0,0,96.23,16.25Zm15,4.2c1-.1,1.21-1,1.68-1.51A5.07,5.07,0,0,0,111.18,20.45ZM63.57,15.67c.24,0,.52.05.52-.3s-.35-.35-.61-.35-.52,0-.51.3S63.34,15.62,63.57,15.67Zm49.3-8.49c-.5-.49-.63-1.43-1.74-1.46C111.78,6.29,112.14,6.93,112.87,7.18Zm-49.35,4c.27,0,.61,0,.56-.41s-.33-.26-.55-.25-.61-.06-.56.39S63.31,11.1,63.52,11.13ZM96.27,9.85a1.78,1.78,0,0,0-1-.11c-.2,0-.2.21-.23.36s.08.29.26.3C95.7,10.42,96.1,10.44,96.27,9.85Zm-48.8,2.78c-.93-.5-1.56.09-2.24.1A6.43,6.43,0,0,0,47.47,12.63ZM3.58,12.25a3.54,3.54,0,0,0-1.29-.75C2.43,12.3,2.43,12.3,3.58,12.25Zm106.21,4.16c.22,0,.54.06.56-.25s-.26-.44-.57-.43-.49,0-.49.34S109.55,16.4,109.79,16.41Zm.07-6.68c-.26,0-.6-.07-.57.38,0,.27.22.28.42.3s.6-.06.64-.37S110.07,9.76,109.86,9.73Zm-4.1,6.63a3.11,3.11,0,0,0,.59.06c.22,0,.61.18.52-.35s-.37-.31-.63-.31S105.89,16.11,105.76,16.36Zm0-6.61c.12.47.33.69.77.64.25,0,.31-.18.35-.38s-.15-.3-.35-.3S106.07,9.73,105.76,9.75Zm-51.37,5a2,2,0,0,0,1.78,0A2.25,2.25,0,0,0,54.39,14.71Zm-52.1-.08a3.66,3.66,0,0,0,1.29-.74C2.43,13.82,2.43,13.82,2.29,14.63ZM55.9,11.39a1.71,1.71,0,0,0-1.73.07A2.17,2.17,0,0,0,55.9,11.39Zm52.75,4.94a2.62,2.62,0,0,0-.09-.33c-.17-.39-.51-.28-.79-.22s-.19.23-.14.38c.11.37.43.22.67.24A1.21,1.21,0,0,0,108.65,16.33Zm6.25-.22c.35-.06.79-.21.72-.51-.12-.5-.6-.37-1-.27Zm-48.59-.24c-.61-.75-.65-.75-1.52-.28Zm0-5.62c-.59.12-1.09.05-1.57.54C65.46,10.91,66,11,66.36,10.25Zm48.14.56c.55.08,1,.21,1.14-.28.07-.24-.26-.4-.46-.45C114.59,9.92,114.88,10.56,114.5,10.81Zm-6.29-1.1c-.21.07-.58-.1-.6.35,0,.26.15.33.38.34s.56-.06.63-.4S108.41,9.77,108.21,9.71ZM67,10.39a1.7,1.7,0,0,0,1.49.14C67.92,10,67.43,10.24,67,10.39ZM56.53,14.74c.51.25.82.53,1.27.28a.25.25,0,0,0,.05-.21c-.23-.53-.65-.22-1-.23A2.87,2.87,0,0,0,56.53,14.74ZM67,15.8c.48,0,1,.36,1.44-.23C67.86,15.51,67.37,15.32,67,15.8ZM56.46,11.43c.64.13,1,.35,1.37,0,.05,0,0-.27,0-.31C57.35,10.86,57.05,11.14,56.46,11.43Zm20.48,4.75a1.44,1.44,0,0,0,1.43,0A1.31,1.31,0,0,0,76.94,16.18Zm42.69,2.22c-.5,0-1-.17-1.07.54C119.15,18.9,119.15,18.9,119.63,18.4ZM76.73,10a1.6,1.6,0,0,0,1.65-.08A2,2,0,0,0,76.73,10Zm42.84-2.24c-.19-.38-.41-.69-.88-.6-.13,0-.15.09-.11.23C118.76,7.91,119.18,7.72,119.57,7.72ZM74.05,16.07c-.64-.39-.64-.39-1.32,0A2.19,2.19,0,0,0,74.05,16.07Zm.14-6a2,2,0,0,0-1.46.16A1.29,1.29,0,0,0,74.19,10.07ZM76,16.17a1.67,1.67,0,0,0-1.4-.08A1.18,1.18,0,0,0,76,16.17ZM76,10a1,1,0,0,0-1.33.09A1.69,1.69,0,0,0,76,10ZM59.15,18.87a2.67,2.67,0,0,0,1.25-1.15C59.86,17.85,59.56,18.23,59.15,18.87Zm.16-11.4c.39.28.45,1,1.28,1C60.09,8,59.88,7.54,59.31,7.47Zm44.5,8.7c.6.25.6.25,1.08,0A1.21,1.21,0,0,0,103.81,16.17ZM103.64,10c.56.22.93.31,1.38-.12A1.29,1.29,0,0,0,103.64,10ZM80.48,16.31l0-.07-1.54-.08v.15Zm4.92-.1c-.54.12-1.11-.1-1.63.15A2.06,2.06,0,0,0,85.4,16.21Zm0-6.24c-.95-.36-.95-.36-1.7-.09C84.29,10,84.84,9.84,85.38,10ZM80.5,9.92c-.56-.14-1.11-.31-1.61.09ZM80,7.39c-.12-.33-.34-.42-.64-.25-.06,0-.13.14-.11.18.11.31.37.12.57.15C79.88,7.48,80,7.42,80,7.39Zm0,11.35a.43.43,0,0,0-.42-.08c-.12,0-.36-.11-.33.16a.32.32,0,0,0,.34.26A.4.4,0,0,0,80,18.74ZM3.41,13.1A.63.63,0,0,0,2.53,13a.25.25,0,0,0,0,.2C2.82,13.36,3.07,13.29,3.41,13.1Zm78-3.24h1.21A1.58,1.58,0,0,0,81.38,9.86Zm1.21,6.44a2.49,2.49,0,0,0-1.33,0A2.15,2.15,0,0,0,82.59,16.3Zm3.69-6.47c.25.39.5.44.84,0A.92.92,0,0,0,86.28,9.83ZM63.05,18c-.11-.05-.14-.08-.18-.08-.22,0-.47-.1-.64.15-.06.08-.07.2,0,.19a5,5,0,0,0,.67-.16S63,18,63.05,18Zm.12-9.8L62.1,7.85C62.36,8.41,62.7,8.27,63.17,8.16Zm6.9,7.59c0-.16-.13-.24-.26-.21s-.46.08-.49.28.25.11.4.1S70.05,16,70.07,15.75Zm17,.52c-.31-.38-.55-.39-.81.05A.77.77,0,0,0,87.09,16.27Zm-17.8-6a.62.62,0,0,0,.47.28c.16,0,.31,0,.3-.2s-.13-.16-.24-.16A.76.76,0,0,0,69.29,10.3ZM52.64,14.67a5.31,5.31,0,0,0,.65.11c.12,0,.29,0,.29-.18A1.22,1.22,0,0,0,52.64,14.67Zm-1.58-.06a1,1,0,0,0,.94,0A1.1,1.1,0,0,0,51.06,14.61Zm-1,0a.6.6,0,0,0-.21-.08c-.21,0-.41,0-.49.23,0,0,.05.15.1.16.22.07.33-.17.51-.23S50,14.65,50.07,14.63Zm3.58-3.18a.66.66,0,0,0-.79.08C53.12,11.55,53.38,11.71,53.65,11.45ZM52,11.52a1.07,1.07,0,0,0-.94,0A1.11,1.11,0,0,0,52,11.52Zm-1.92,0c-.06-.06-.08-.11-.11-.12s-.29-.3-.52-.23a.12.12,0,0,0-.09.18.45.45,0,0,0,.5.22ZM22.47,10.11c-.15-.16-.29-.35-.54-.24a.29.29,0,0,0-.1.19A.64.64,0,0,0,22.47,10.11Zm.05,5.8c-.28.13-.51-.05-.68.18,0,0,.05.17.1.18C22.17,16.34,22.33,16.22,22.52,15.91ZM12.9,10.69l-.23-.18c0,.07-.09.14-.08.2a.19.19,0,0,0,.24.15C12.93,10.85,13,10.79,12.9,10.69Zm0,4.76c.08-.11,0-.16-.06-.18a.19.19,0,0,0-.24.16c0,.06.05.13.07.19Zm5.74-5.22h.05l0-.1ZM5.21,12l0-.1-.07,0Zm0,2.31a.19.19,0,0,0,0-.08s0,0,0,0a.31.31,0,0,0,0,.08Zm13.44,1.57,0,.09.05,0ZM35,8.58l0,.06H35Zm.5.25,0,.05h.06Zm-6.74.58.06-.08h-.09Zm-1.19.23,0-.06H27.5Zm-19,.48,0-.08H8.54Zm.29.42-.06,0v.07ZM7.42,11l-.06,0v.07Zm-3.65.53,0-.07H3.74Zm0,3.07-.06,0v.07Zm3.55.53,0-.06H7.34Zm1.49.45-.06,0v.07Zm-.3.53,0-.08H8.53Zm20.16.71.06-.08h-.09Zm6.73.46,0-.06h-.06Zm-.55.19.08.05v-.08Z"/><path d="M119.25,16.68h-1.2c-.22,0-.41-.08-.41-.33s.15-.34.39-.34l2.63-.08c.21,0,.54-.07.58.24s-.29.45-.56.47c-.48,0-1,0-1.43,0Z"/><path d="M119.39,10.13H118a.32.32,0,0,1-.32-.29.28.28,0,0,1,.24-.35,14.13,14.13,0,0,1,3,.06c.2,0,.4.15.4.38s-.24.28-.44.28c-.47,0-.95,0-1.43,0Z"/><path d="M123.61,16a.46.46,0,0,1,.44.45c0,.18-.17.26-.33.26a.43.43,0,0,1-.45-.44C123.26,16,123.43,16,123.61,16Z"/><path d="M123.62,10.18c-.18,0-.35-.06-.35-.25a.43.43,0,0,1,.43-.46c.17,0,.34.08.34.26A.43.43,0,0,1,123.62,10.18Z"/><path d="M122.2,16c.22.1.53.18.48.53,0,.17-.2.19-.37.18a.4.4,0,0,1-.43-.43C121.88,16.09,122,16,122.2,16Z"/><path d="M122.24,10.15c-.22,0-.34-.07-.35-.24s.13-.42.39-.46.37,0,.4.15C122.76,10,122.45,10,122.24,10.15Z"/><path d="M126.49,16.48c-.17,0-.38,0-.38-.2,0-.32.26-.34.51-.34s.35,0,.36.21C127,16.51,126.69,16.43,126.49,16.48Z"/><path d="M126.69,10.2c-.33,0-.6,0-.58-.36,0-.14.22-.2.38-.18s.52,0,.49.34C127,10.17,126.77,10.21,126.69,10.2Z"/><path d="M124.67,10.16a.22.22,0,0,1-.27-.16c-.05-.19-.05-.39.18-.48a.2.2,0,0,1,.26.16C124.9,9.87,124.91,10.07,124.67,10.16Z"/><path d="M124.86,16.4c0,.12-.08.24-.23.21s-.27-.23-.24-.43a.21.21,0,0,1,.24-.2C124.89,16,124.88,16.22,124.86,16.4Z"/></g></g></svg>