<svg xmlns="http://www.w3.org/2000/svg" viewBox="0 0 58.28 65.75"><title>Pleurobrachia</title><g id="Layer_2" data-name="Layer 2"><g id="Pleurobrachia"><path d="M27.83,46a2.41,2.41,0,0,0,.31,1.37c1.09,3.1,2.13,6.21,2.92,9.4.1.38.19.77.28,1.15s.1.49-.22.57-.4-.11-.46-.38c-.15-.78-.31-1.56-.52-2.32-.83-3.06-1.87-6.06-2.89-9.06a2.43,2.43,0,0,0-1-1.35,56.88,56.88,0,0,1,2.4,7.28,31.93,31.93,0,0,1,1.09,4.74,2.67,2.67,0,0,1,.07.47.33.33,0,0,1-.27.35c-.19,0-.28-.1-.32-.26-.17-.78-.32-1.56-.51-2.33a66.67,66.67,0,0,0-2.62-8.75,7.25,7.25,0,0,0-.88-1.66,1,1,0,0,0,.12.85c1.12,3.09,2.07,6.24,2.88,9.42a3.83,3.83,0,0,1,0,1.07.22.22,0,0,1-.22.23.25.25,0,0,1-.26-.2c-.25-1-.46-2-.74-3-.67-2.32-1.32-4.64-2.17-6.9a3.18,3.18,0,0,0-.66-1.34c-.33.11-.17.27-.11.46.87,2.75,1.72,5.51,2.59,8.26a9.16,9.16,0,0,1,.16,2.61c0,.26-.13.52-.38.52s-.29-.24-.22-.53a4.54,4.54,0,0,0-.15-2.13,16.69,16.69,0,0,0-1.21-3.7c0-.18,0-.35-.05-.52-.07.18-.28.41.08.49a16,16,0,0,0,.6,3.5A6.93,6.93,0,0,0,25.8,56a.35.35,0,0,1-.22.49c-.31.08-.38-.17-.43-.41-.24-1.32-.47-2.65-.73-4a23.59,23.59,0,0,0-2.07-6,.85.85,0,0,1-.09-.22c-.09-.26-.29-.26-.48-.16s-.07.27,0,.4a35.57,35.57,0,0,1,1.9,5,26.83,26.83,0,0,1,1.1,4.23c0,.12.1.23.11.34a.39.39,0,0,1-.33.43.34.34,0,0,1-.33-.28c-.11-.46-.2-.93-.29-1.39,0-.16-.05-.31-.23-.38a2.68,2.68,0,0,0-.45-1.7c-.25-1.92-1.83-5.84-2.68-6.45.29.68.54,1.23.77,1.8l1.89,4.67A3,3,0,0,0,23.73,54c0,.47,0,.94.09,1.41,0,.3.05.62-.27.66s-.29-.29-.33-.53a4,4,0,0,0-.48-1.74c0-.26.15-.59-.24-.74a2.07,2.07,0,0,0-.08-.82,58.72,58.72,0,0,0-2.28-5.72c-.06-.14-.06-.33-.25-.37a.63.63,0,0,0-.33,0s-.07.14,0,.19l.34.63a34.32,34.32,0,0,1,1.9,4.08A9.13,9.13,0,0,0,22.53,53c.06.25-.1.57.24.73a2.07,2.07,0,0,1-.19,1.33A2.53,2.53,0,0,1,22,53.86,36.49,36.49,0,0,0,19,46.66c-.18-.32-.32-.39-.7-.23,1.08,1.92,2,3.94,2.87,6,.16.36.31.72.44,1.09a.36.36,0,0,1-.12.44c-.23.12-.36-.06-.45-.25-.47-1-.92-2.1-1.42-3.14s-1.09-2.21-1.65-3.31a1.23,1.23,0,0,0-.57-.58c-.19.34.15.52.26.73a26.12,26.12,0,0,1,2.11,4.78c.06.19.2.36.17.56s-.07.27-.15.31-.29,0-.41-.14-.16-.44-.24-.66a28.69,28.69,0,0,0-2.6-5.45c-.06-.09-.1-.13,0-.18-.57.37-.18.63-.09.8.64,1.23,1.18,2.51,1.72,3.78.1.23.23.49,0,.62s-.43-.11-.56-.32,0-.17-.08-.23-.12-.07-.18-.11.1-.46-.26-.48c-.11-1.39-1.08-2.43-1.52-3.7-.06-.17-.27-.15-.42-.08s-.12.25,0,.39l2,3.37c.05.18,0,.4.25.48-.24.43-.49.48-.77,0-.12-.19-.17-.45-.45-.49a6.42,6.42,0,0,0-1.67-2.9c.06-.3-.08-.48-.47-.64.14.31.18.55.47.64a6.54,6.54,0,0,0,1.69,2.88c-.16.41-.33.62-.76.21s-.39-1-1-1.14A7.06,7.06,0,0,0,13,47.06a5.22,5.22,0,0,0,1.37,2.61,3.75,3.75,0,0,0,.16.43c.09.19.14.38-.07.49a.33.33,0,0,1-.41-.13c-.22-.26-.43-.52-.64-.79l-.24-.47c-.06,0,0-.25-.15-.11l.18.08c.09.15-.08.44.24.48-.22.46-.48.63-.81.08-.64-1-1.27-2.08-2-3.09a11,11,0,0,0,.83,2.15c.07.17.22.39,0,.55s-.47-.14-.55-.12c-.75.11-1-.48-1.29-.94-.16.39-.35.6-.69.23s-.26-.91-.65-1.22c0-.19.08-.45-.24-.5,0-.27,0-.55-.2-.75-.14-.4.13-1-.49-1.17a.39.39,0,0,0-.06-.11H7.28l.15.09A1.21,1.21,0,0,0,7.92,46c0,.28-.07.56.21.75,0,.19,0,.43.24.5,0,.16,0,.32.05.48s0,.41-.25.44-.25-.12-.32-.28c-.17-.4-.37-.79-.55-1.17-.17.18-.32.74-.66.1-.19-.35-.33-.72-.5-1.09-.23.13-.46.64-.72.06s-.35-1-.53-1.45c-.31.27-.64.38-.82-.12a14.66,14.66,0,0,1-.5-1.59c-.07-.28.06-.71-.48-.3-.21.17-.32-.15-.34-.33,0-.4,0-.8-.06-1.2s0-.72-.5-.78c-.23,0-.28-.22-.21-.45.22-.69.09-1.42.35-2.12.38-1,.63-2.12,1-3.14A8.49,8.49,0,0,1,5,32c1.37-1.6,3.13-2.85,4.24-4.69a4.5,4.5,0,0,0,.85-1.83c-.86.28-1.35-.37-2-.7-.44-.24-1-.35-1.25-.89-.06-.14-.26-.12-.41,0s-.38.19-.4,0c-.1-.73-1-.61-1.19-1.25-.77.22-.75-.82-1.4-.89-.28,0-.36-.57-.47-.94-.22.12,0,.6-.43.52a.35.35,0,0,1-.22-.48c.31-.78-.66-1.17-.53-1.89,0-.17-.18-.05-.28,0-.47,0-.47-.3-.33-.53.23-.39.15-.55-.24-.7a.37.37,0,0,1-.18-.59c.13-.19.2-.42-.05-.48-.73-.18-.39-.49-.16-.84s.18-.49-.09-.62c-.93-.42-.22-.64.1-.91,0-.42-.49-.2-.58-.5s.31-.31.44-.48c.37-.46-.54-.4-.31-.84.12-.25.86-.16.41-.73a.66.66,0,0,1-.08-.34c0-.93,0-.93.87-1.24.07-.26-.15-.33-.31-.43-.36-.25-.29-.52.09-.55s.65-.15.53-.62c1.13-.62,1.27-2,2.11-2.82a3.35,3.35,0,0,0,1-2,1.41,1.41,0,0,1,1.35-1.3A9.16,9.16,0,0,0,9,1.4,11,11,0,0,1,12.57.46,3,3,0,0,0,14.05.08c.45-.32.8.44,1.26.13.67.47,1.47.18,2.21.41.57.17,1.07.8,1.84.37.27-.15.54.47.84.71s.31.71.85.45c.15-.07.29.08.31.27a.5.5,0,0,0,.31.47c1,.26,1.45,1.32,2.47,1.48a.37.37,0,0,1,.29.33,14.06,14.06,0,0,0,1.31,2.67,12.75,12.75,0,0,0,.66,1.47c.24.42.19,1,.6,1.49.18.21-.51.34-.33.64.33.56,0,1.07,0,1.6a12.56,12.56,0,0,1-1.37,5.14,1.06,1.06,0,0,0,0,.28A6.34,6.34,0,0,1,27.07,19c.16.16.39.35.13.59s-.38.06-.54-.06a2.48,2.48,0,0,0-1.17-.7c.58.59,1.13,1.11,1.63,1.67.34.38.35.74-.28.82a.33.33,0,0,0-.25-.26c0-.14-.08-.26-.26-.21.06-.36-.11-.51-.46-.5,0-.14,0-.25-.15-.13,0,0,.08.13.17.11a.82.82,0,0,0,.46.49.31.31,0,0,0,.26.22.34.34,0,0,0,.25.25c0,.07.07.15.11.21.43.66.43.66-.39.79a.7.7,0,0,0-.69-.76c0-.14,0-.25-.17-.09s.06.13.16.1c.13.36.45.52.72.73.14.43,1,.78.42,1.24-.32.28-.6-.46-.93-.69s-.36-.31-.63-.54c.06,1.05,1,1.6,1.08,2.48-.2.23-.45.13-.68.17.06-.39-.19-.61-.56-1,.13.55.26.83.59,1,.51.62-.09,1.4.31,2.08.16.26-.35.29-.59.36a.69.69,0,0,0-.45-.75.51.51,0,0,0,0-.22,1.14,1.14,0,0,0-.22-.22s-.13.1-.12.12a1,1,0,0,0,.2.26s.13,0,.2,0c-.06.38.27.53.46.76.55.48.13,1.06.25,1.63-.64.07-.78-.55-1.21-.67l-.05-.1a.07.07,0,0,0-.06,0l.14.1c0,.59.58.83.86,1.25a.27.27,0,0,1,0,.33.21.21,0,0,1-.31.06c-.23-.16-.44-.35-.66-.53a2,2,0,0,0,1.58,2c5,1.21,10.26-2.27,11.87-6.47a47,47,0,0,0,1.72-6.54,5.57,5.57,0,0,1,.22-.8c1.54-4,4-7.15,8.12-8.7a26.55,26.55,0,0,1,4.59-1.6A7.67,7.67,0,0,1,56.26,7c.09.25-.7.53.05.74.18,0,.37.26.26.47s-.39.15-.62.07A2.66,2.66,0,0,0,54.12,8c.64.29,1.3.55,1.91.89.37.2,1.18.24.91.81s-.75-.09-1.13-.23c-1-.38-2-.77-3-1.19a1.77,1.77,0,0,0-1,0c.88.32,1.58.56,2.27.83s1.26.48,1.88.75c.21.1.48.26.36.53s-.38.18-.61.08c-.77-.32-1.53-.66-2.32-.93s-1.69-.43-2.49-.75c-.45-.18-.64.25-1,.23a49.38,49.38,0,0,1,5.72,1.82c.37.15,1.11.22.92.72s-.75,0-1.09-.11a51.43,51.43,0,0,0-5.66-1.76,2,2,0,0,0-2.06.32,30.77,30.77,0,0,1,8,1.9l.35.1c.24.07.5.19.46.46s-.4.28-.67.28c-.17-.34-.49-.19-.75-.24a28.54,28.54,0,0,0-8.53-2.06c-.12,0-.25.15-.43.27,1.83.27,3.57.56,5.3.94a24.57,24.57,0,0,0,3.69.82c.16.37.49.18.75.24.06.17.21.21.37.24a.33.33,0,0,1,.28.52c-.1.24-.3.15-.5.09-1.07-.32-2.13-.64-3.2-.9a25.63,25.63,0,0,0-7.62-1.14,1,1,0,0,0-.28.07,1.86,1.86,0,0,0,1.27.35c2.86.07,5.54,1,8.27,1.63.73.18,1.46.38,2.18.59.19,0,.41.15.32.4s-.27.24-.49.18c-1.46-.36-2.93-.7-4.38-1.09a26.13,26.13,0,0,0-7.5-1.15,1.55,1.55,0,0,1-.47-.08c-.11,0-.23-.09-.33.19a15,15,0,0,0,1.74.29c1.29.25,2.6.33,3.9.53a34.28,34.28,0,0,1,7.4,2.16c.19.07.4.17.33.4s-.27.26-.49.19a12.64,12.64,0,0,1-1.36-.43,33.36,33.36,0,0,0-5-1.51,5,5,0,0,0-.95-.07c-.24-.25-.49-.26-1,0h1c1.15.4,2.3.77,3.43,1.19,1.48.55,2.94,1.14,4.4,1.72a5.38,5.38,0,0,1,.55.24c.24.13.57.25.41.59s-.43.12-.66.13a1.87,1.87,0,0,0-1.22-.46c0-.3-.29-.21-.47-.27-.18-.27-.46-.23-.73-.22,0-.3-.36-.3-.55-.37-1.29-.5-2.58-1-3.9-1.42a22.51,22.51,0,0,0-7.15-1.08c-.49,0-1,0-1.25.68a8.21,8.21,0,0,1,2.22-.18,34,34,0,0,1,7,1.32,19,19,0,0,0,3.65,1c.17.34.47.23.74.22,0,.34.28.22.47.26a1.64,1.64,0,0,0,1.21.46c.06.42.91.41.63.84s-.77,0-1.14-.18a50.23,50.23,0,0,0-10.35-3,25.41,25.41,0,0,0-4.53-.12,35.48,35.48,0,0,1,6.06,1.09,32.37,32.37,0,0,1,9,3.6s.08,0,.11.05c.27.21.8.4.59.76s-.63,0-.92-.17a34,34,0,0,0-7.19-3.13,5.06,5.06,0,0,0-.93-.17c-.28-.31-.66-.16-1-.2-.24-.44-.66-.15-1-.23a7.35,7.35,0,0,0-2.9-.7c-2.17-.16-2.38-.09-2.91.38A39,39,0,0,1,47,17c.26.35.64.19,1,.24.22.37.62.17.91.28a23.54,23.54,0,0,0,2.66,1,43.53,43.53,0,0,1,5.78,2.83s.08,0,.11.05c.25.22.79.39.56.77s-.63,0-.92-.17a35.78,35.78,0,0,0-9.6-4.06,21.37,21.37,0,0,0-6.27-.63,1,1,0,0,0-.33.1s0,.06,0,.11c.12.27.38.19.6.19a25,25,0,0,1,10.18,2.58A46.86,46.86,0,0,1,56.54,23c.3.19.62.36.91.57s.53.37.31.67-.49,0-.72-.11a41.18,41.18,0,0,0-9.47-4.69A31.15,31.15,0,0,0,42,18.28a1.69,1.69,0,0,0-1.62.28,2,2,0,0,0,1.26.33,25.25,25.25,0,0,1,10.82,2.95A33.55,33.55,0,0,1,57,24.45l.5.33c.24.17.47.39.23.68s-.43,0-.61-.11a37,37,0,0,0-6.35-3.56,28.21,28.21,0,0,0-7.38-2.16,21,21,0,0,0-2.62-.19c-.24,0-.49,0-.56.36a39.14,39.14,0,0,1,9.51,2.45c2.37.94,4.52,2.31,6.79,3.45a2.12,2.12,0,0,1,.46.39.19.19,0,0,1,0,.3.43.43,0,0,1-.3.14c-.33-.14-.64-.31-1-.47-2-1-3.88-2.19-5.94-3.07a47.23,47.23,0,0,0-7.72-2.3,3,3,0,0,0-1.34.09L44.83,22A41.14,41.14,0,0,1,55,26.48l.21.12c.31.21.92.41.68.81s-.67-.07-1-.23a30.54,30.54,0,0,0-4.44-2.29c-.11-.19-.3-.2-.49-.23a1.64,1.64,0,0,0-1.25-.42c0-.32-.3-.21-.48-.26-.16-.3-.46-.16-.7-.23l-.28-.19-.08.06.39.1c.16.29.44.23.7.23,0,.32.29.22.47.27a2.34,2.34,0,0,0,1.15.53c.11.18.3.2.49.23,1.33.78,2.67,1.55,4,2.34.47.28.93.6,1.38.92a.4.4,0,0,1,.11.62c-.18.22-.37,0-.51-.08a42.92,42.92,0,0,0-14.13-6.31A3.52,3.52,0,0,0,40,22.33c0-.15,0-.21-.16-.22s-.1.06-.15.1l.34.09a60,60,0,0,0,5.65,2.12,38.16,38.16,0,0,1,7.18,3.43,6.05,6.05,0,0,1,1.58,1.27c.19.25.75.44.42.81s-.54-.17-.77-.35a26.07,26.07,0,0,0-5.29-3.18c-2.28-1-4.64-1.84-7-2.65A6.37,6.37,0,0,0,39.28,23a24,24,0,0,0,3.29,1.4A57.19,57.19,0,0,1,50,27.6a30.06,30.06,0,0,1,3.58,2.58,2.73,2.73,0,0,1,.5.52.33.33,0,0,1,0,.32.31.31,0,0,1-.41.13,1.82,1.82,0,0,1-.48-.34,23.43,23.43,0,0,0-8-4.65,14.43,14.43,0,0,0-2.79-1c-.18-.32-.48-.19-.74-.21,0-.33-.29-.22-.46-.26a2.27,2.27,0,0,0-.25-.18s0,0-.07,0l.35.1c0,.28.28.21.45.26a.74.74,0,0,0,.75.21,3.34,3.34,0,0,0,1.59.9,38.89,38.89,0,0,1,8.55,5.15,3.22,3.22,0,0,1,.28.24c.18.18.31.4.09.61s-.35.06-.53-.07c-1.11-.83-2.22-1.68-3.36-2.47a43.39,43.39,0,0,0-7.49-3.84,12.47,12.47,0,0,0-2.81-1.11,2.06,2.06,0,0,0,1.14.77c2.37,1.13,4.71,2.3,7,3.58a28.84,28.84,0,0,1,4.49,3.53.84.84,0,0,1,.15.18c.1.16.33.3.06.49a.33.33,0,0,1-.44,0,9.64,9.64,0,0,1-1.1-.88c-2.57-2.62-5.86-4-9.08-5.6l-.49-.23c-.08-.23-.29-.2-.47-.24L39.78,26s-.05,0-.07.05l.38.08c0,.31.26.25.47.24,0,.34.3.2.49.23.07.38.42.41.68.56A47.29,47.29,0,0,1,49.08,32c.33.29.66.57,1,.89.15.15.4.35.16.59s-.45.11-.63-.08a14.79,14.79,0,0,0-2-1.73,43.52,43.52,0,0,0-9-5.3c0-.16-.14-.23-.3-.17s-.06.08-.06.08a.32.32,0,0,0,.38.07c0,.28.27.35.47.47a66.4,66.4,0,0,1,7.06,4.68c.89.67,1.7,1.45,2.53,2.19.15.12.33.31.16.5s-.44.14-.64,0c-.75-.65-1.47-1.36-2.25-2a64.89,64.89,0,0,0-8.06-5.32c-.12.47.28.4.44.55a4.7,4.7,0,0,0,.59.4,64.89,64.89,0,0,1,5.66,3.79c1,.84,2.05,1.65,3.07,2.47a2.83,2.83,0,0,1,.34.35c.1.12.18.26.06.42a.34.34,0,0,1-.52,0c-.56-.45-1.13-.88-1.66-1.37-2.57-2.35-5.6-4-8.57-6-.09.47.28.52.45.63,2.37,1.62,4.8,3.14,7.09,4.87a10.79,10.79,0,0,1,1.08,1c.18.17.56.35.23.66s-.43,0-.6-.19a42.28,42.28,0,0,0-4.34-3.17,10.85,10.85,0,0,0-2.62-1.57,1.28,1.28,0,0,0-.94-.73.93.93,0,0,0-.71-.48l-.06,0,.08,0a.61.61,0,0,0,.72.47,1,1,0,0,0,.93.74c.44.75,1.25,1.09,1.87,1.62a36.53,36.53,0,0,1,3.22,2.86,5.62,5.62,0,0,1,.41.44c.16.22.43.48.14.73s-.49-.1-.65-.28A45.21,45.21,0,0,0,38,30.25c-.19-.15-.36-.33-.64-.24,0-.18-.07-.23-.22-.27a.75.75,0,0,0-.71-.46s0-.07,0-.1,0,0-.07,0l.13.11a.66.66,0,0,0,.72.46.28.28,0,0,0,.22.28l4.23,4.06c.29.27.57.56.84.85.14.13.32.29.13.5s-.37.06-.51-.08c-1-.89-2-1.76-2.89-2.7s-2-1.75-2.94-2.64a.77.77,0,0,0-.54-.22l0-.06,0,0,4.89,5.06a3.64,3.64,0,0,1,.34.34c.1.15.25.34.06.53s-.35.09-.53-.05a.93.93,0,0,0-.2-.1L40,35.26,39.78,35l-.24-.24-.24-.23a.29.29,0,0,0-.24-.24.26.26,0,0,0-.24-.24.21.21,0,0,0-.24-.23q0-.26-.24-.24c0-.17-.08-.24-.24-.25,0-.16-.08-.24-.24-.24,0-.16,0-.26-.23-.24,0-.17-.05-.26-.23-.25,0-.18-.08-.24-.25-.23,0-.17-.07-.24-.23-.24A5.67,5.67,0,0,0,34.79,30a5.54,5.54,0,0,0,2.14,2.18c0,.17.08.24.24.24a.21.21,0,0,0,.24.24c0,.16.09.23.24.24a.23.23,0,0,0,.24.23.25.25,0,0,0,.24.24c0,.13.09.23.23.25a8.15,8.15,0,0,0,.49.47c0,.12.1.22.24.24s.1.22.24.24l.23.24.24.24.24.24.27.26c-.09.26-.17.56-.54.32a2,2,0,0,1-.44-.38c-.28-.31-.51-.58-1-.21-.16.13-.42-.33-.73-.19.06-.18-.08-.22-.21-.27-.25-.34-.48-.68-.95-.73-.85-1.11-2.12-1.77-3-2.82-.28-.34-.5,0-.77.18a14.9,14.9,0,0,0,1.36,1,15,15,0,0,0,2.42,1.66c.24.36.47.73,1,.67,0,.19.06.24.21.28-.18.7-.23.73-.68.43s-.82-.61-1.23-.91l-.07,0h.1c-.22.38-.4.64-.92.31a29.89,29.89,0,0,1-3.21-2.26c-.31-.26-.74-.84-1-.47s.36.64.65.88A16.64,16.64,0,0,0,33,34.2a2.86,2.86,0,0,1,.73.61.27.27,0,0,1,0,.33.24.24,0,0,1-.31.08c-.21-.11-.41-.25-.61-.37s-.3-.3-.52.06-.56.08-.84-.09a15.09,15.09,0,0,1-2.57-1.92c-.21-.2-.37-.52-.89-.44a20.75,20.75,0,0,1,2.08,2.15c-.43.51-.73-.24-1.1,0,.06-.2-.07-.24-.22-.26s-.11-.22-.24-.25a.28.28,0,0,0-.24-.24.26.26,0,0,0-.25-.23c0-.15-.1-.21-.24-.24a.27.27,0,0,0-.24-.24.31.31,0,0,0-.23-.25c0-.14-.13-.19-.24-.24a.45.45,0,0,1-.05-.19c0-.11,0-.14-.09-.08l.16.25c.05.11.11.21.24.23a.32.32,0,0,0,.24.25c0,.12.1.22.24.24s.09.23.24.24.1.23.25.23a.23.23,0,0,0,.24.25.23.23,0,0,0,.23.24.31.31,0,0,0,.23.27c0,.19.09.41-.07.57s-.36,0-.51-.11c-.81-.59-1.3-1.49-2.06-2.14a.27.27,0,0,0-.26-.24c0-.19,0-.41-.23-.47,0-.06,0-.25-.14-.11l.17.08c0,.19,0,.4.23.47,0,.14.1.24.26.24,0,.52.48.78.63,1.22.06.15.1.31-.05.42a.3.3,0,0,1-.41-.09l-.68-.79a.93.93,0,0,0-.05-.1s0,0-.06,0l.14.11c0,.46-.17.64-.55.39a2.09,2.09,0,0,1-.46-.68c-.1-.17-.17-.5-.28-.51-1.22-.15-.83-1.13-1-1.83-.86,0-1-.08-.88-.82.06-.35.16-.7.25-1,0-.15.15-.31.11-.44s-.47-.37-.25-.82A14.21,14.21,0,0,1,24,25.34c.14-.18.35-.26.43-.53a19.31,19.31,0,0,0,.43-6c-.48.14-.6.46-.77.71a14.52,14.52,0,0,1-5.4,4.43,7.12,7.12,0,0,0-.95.5A7,7,0,0,1,12,25.73a1.75,1.75,0,0,0-.92.14c-.51.18-.63.41-.36.88A2.26,2.26,0,0,1,11,28.12c0,.12-.06.23-.19.25a.28.28,0,0,1-.29-.17c-.12-.33-.24-.66-.35-1-.33.12-.35.29-.2.56a8.73,8.73,0,0,1,.49,1.08c.07.21.13.51-.16.61s-.32-.17-.41-.33-.22-.68-.49-.95c-.29.17-.27.4-.14.7a10.18,10.18,0,0,1,.45,1.35,1,1,0,0,1-.11,1c-.76-.42-.46-1.36-1-1.9-.46.09-.42.38-.27.71a2.45,2.45,0,0,1,.34,2c-.38,0-.38-.26-.46-.49a10.51,10.51,0,0,0-.41-1.11.23.23,0,0,0-.39-.1c-.1.09-.27.16-.17.37s.25.67.4,1a1.15,1.15,0,0,1,0,1.19c-.7-.4-.51-1.27-1-1.76-.29.11-.33.27-.16.55a8.73,8.73,0,0,1,.79,2.1.34.34,0,0,1-.25.47c-.18,0-.27-.14-.33-.29A9.22,9.22,0,0,0,6,32c-.34.11-.29.34-.2.57.26.66.53,1.32.8,2,.11.28.06.49-.23.56S6,35,6,34.78a6.56,6.56,0,0,0-.64-1.66c0-.13-.18-.27-.35-.1a.24.24,0,0,0-.09.3c.17.36.31.73.48,1.09a1,1,0,0,1,0,1.13c-.68-.37-.4-1.23-1-1.61-.18,1.08,1,1.85.59,3-.71-.38-.55-1.21-1-1.67-.26.14-.28.35-.12.66a13.91,13.91,0,0,1,.72,1.63c.13.36,0,.63-.46.6l-.27-.24a.63.63,0,0,0-.08-.59c-.15.23-.15.43.1.56l.28.25c-.07.46.41,1-.09,1.42-.1.09.1.52.22.77a4.78,4.78,0,0,0,1,1.48,34.61,34.61,0,0,0,2.87,2.66,9.19,9.19,0,0,0,7.44,1.65c2.34-.42,4.66-.94,7-1.24A25.13,25.13,0,0,1,28,44.61a20.05,20.05,0,0,1,6.75,1.8,18.92,18.92,0,0,1,3.37,2A8.84,8.84,0,0,1,40.4,51c1.13,1.92,2.12,3.91,3.15,5.88.25.49.57,1,.16,1.56-.16.22,0,.52.12.79A45.08,45.08,0,0,1,45,64a3.09,3.09,0,0,1-.08,1.8c-.57-.23-.46-.78-.51-1.12a46.13,46.13,0,0,0-2.23-8.25,6.38,6.38,0,0,0-1-2.39l-.06-.07,0,0,.13.07a6.21,6.21,0,0,0,.56,2.41c.65,2.16,1.25,4.32,1.73,6.52a2.81,2.81,0,0,1,0,1.55c-.63-.19-.47-.79-.65-1.17s.07-.65-.25-.88l-.07-.82c-.14.3-.27.6.09.8-.09.47.23,1-.3,1.43-.63-.43-.35-1.11-.54-1.67-.22.37,0,1.12-.52,1.09S41,62.51,41,62.11a11.76,11.76,0,0,0-1.2-4.51c0-.26.11-.58-.24-.74,0-.25.07-.56-.23-.73-.08-.18.07-.41-.12-.58-.16.25-.06.42.15.55.06.25-.13.58.24.73,0,.26-.13.58.22.75a32,32,0,0,0,.65,3.49,5.86,5.86,0,0,1,0,1.72c-.47,0-.46-.26-.51-.49-.4-1.77-.61-3.58-1.17-5.32-.68-2.1-1.26-4.24-2-6.33a5.43,5.43,0,0,0-1.16-2.4l-.06-.58c-.1.2-.19.41.09.55a20.2,20.2,0,0,0,1.31,4.52c1,2.79,1.53,5.7,2.26,8.56a2,2,0,0,1,0,.35c0,.3,0,.65-.35.66s-.38-.33-.41-.63.17-.72-.23-1c0-.4.15-.85-.24-1.18,0-.24.06-.51-.18-.86,0,.39-.12.65.21.83.1.39-.19.87.23,1.2,0,.45.15.94-.16,1.42-.73-.5-.64-1.31-.74-1.95a39.38,39.38,0,0,0-2-7.08c-.6-1.68-1.12-3.38-1.69-5.07-.14-.41-.33-.81-.48-1.21a.62.62,0,0,0-.78-.44A81.52,81.52,0,0,1,36,56.12c.46,1.47.75,3,1.12,4.49a1,1,0,0,1,0,.24c0,.27.06.63-.34.64s-.39-.27-.39-.51a12,12,0,0,0-.37-2,64.5,64.5,0,0,0-2.54-8.29,21.85,21.85,0,0,0-1.84-4.38c-.11-.18-.11-.18-.75-.5A43.16,43.16,0,0,1,33.81,53a29.87,29.87,0,0,1,1.71,7.39c-.67,0-.68-.46-.72-.73a55.1,55.1,0,0,0-3.16-10.83,11.23,11.23,0,0,0-1.75-3.2c.49,1.26,1,2.51,1.46,3.78A57.85,57.85,0,0,1,34,57.34a8.57,8.57,0,0,1,.35,2.47c0,.15,0,.33-.23.36s-.27-.13-.31-.28c-.2-1-.38-2-.59-2.91a57.19,57.19,0,0,0-2.42-7.22c-.34-.93-.69-1.86-1.05-2.78a5.87,5.87,0,0,0-.54-1.06c-.15-.23-.22-.74-.64-.52s0,.56.11.78a51.65,51.65,0,0,1,3.5,10.46,12.68,12.68,0,0,1,.52,2.19c0,.24.13.52-.17.61s-.35-.22-.4-.44c-.4-1.49-.76-3-1.19-4.48A42.89,42.89,0,0,0,28,46.35a1.46,1.46,0,0,0-.21-.28c0-.18,0-.4-.26-.46,0-.09.06-.24-.13-.14l.16.11C27.66,45.73,27.49,46,27.83,46Zm4.05-11.75,0,.05-.06,0a.42.42,0,0,0,0-.1l-.06,0Zm-.72-.49.09.1-.11-.07c0-.15-.11-.21-.23-.25s-.31-.17-.48-.21c0-.17-.1-.24-.25-.26s-.1-.21-.23-.25a.28.28,0,0,0-.22-.25,1.09,1.09,0,0,0-.1-.32.24.24,0,0,0-.39,0c-.11.15.08.25.19.31a1.12,1.12,0,0,0,.32,0c0,.19.07.24.23.25a.25.25,0,0,0,.23.25.34.34,0,0,0,.24.26l.49.22A.24.24,0,0,0,31.16,33.8Zm6-.24.06.09.05,0-.13-.09c0-.15-.11-.21-.23-.25a15.79,15.79,0,0,1-.47-.48,6.93,6.93,0,0,0-1.14-1.22,6.1,6.1,0,0,0-1.41-1.22,6.88,6.88,0,0,0,2.58,2.41c0,.17.07.24.23.24a.24.24,0,0,0,.24.24C37,33.44,37,33.54,37.16,33.56ZM25.41,25.64l.05.07-.08-.05a.36.36,0,0,0,0-.09.1.1,0,0,0-.05,0Zm-6.49-15.1c.08,0,.09.06,0,.06s0,.08,0-.06-.08-.23-.23-.24a6.28,6.28,0,0,0-2.17-2.43c-2.08-1.76-4.75-2.19-7.23-3a3.26,3.26,0,0,0-.94,0c0-.2,0-.53.21-.48.71.25,1.3-1,2-.14.88-.66,1.61.16,2.42.23,1.11.11,1.88,1,3,1.15.17,0,.11.27.08.42a2.91,2.91,0,0,0-.3.17c-.07.06-.24.09-.17.22a.51.51,0,0,0,.3.17c.19,0,.12-.15.13-.24A2,2,0,0,0,16,6c.36.09.92-.22,1,.49l0,0a1.73,1.73,0,0,1,.64.62c.37.48.46.58.18,1a2.67,2.67,0,0,1,1.73.53c.42.35.18,1.07.83,1.23,0,0-.05.28-.24.31s-.43,0-.4.28c.29.21.62.07.93.13.5.1.18.51.3.74s.54.09.74.28c.35.32-.15.38-.2.58l.21.1a2.06,2.06,0,0,1,.72.82,24.1,24.1,0,0,0,1.73,2.46,6.83,6.83,0,0,0-.68-4.17c-.18-.44-.39-.87-.55-1.32a9.5,9.5,0,0,0-4.47-5.24,10.51,10.51,0,0,0-7.18-1.46,5.35,5.35,0,0,1-1.2,0,.22.22,0,0,1-.23-.21.28.28,0,0,1,.2-.26s.08,0,.12,0c1-.42,2.24,0,3.22-.66.09-.06.21.06.28.17.25.42.85-.42,1.06.28,0,0,.24-.24.39-.35s.44-.13.48.2.18.59.47.18c.42-.59.78,0,1.16.05s-.11.54.17.76.4-.18.6-.28c.41-.19.47-.08.36.68.32.1.47-.24.73-.27s.36.22.35.47c-.06,0-.14.06-.17.12s-.08.19.05.25a.62.62,0,0,0,.07-.19,1.48,1.48,0,0,0,0-.21c.78-.17.78-.17.51.93.33,0,.17-.56.52-.53s.22.53.41.76a.33.33,0,0,1,.06.1c-.09,0-.24,0-.15.14l.12-.17c.34-.14.66-.21.6.32,0,.23-.18.45,0,.66S21.75,6,22,6s.31,0,.27.13c-.27.76,1.24.84.63,1.69a.52.52,0,0,0,.19.08c.65-.06.34.47.46.74-.08,0-.24-.05-.14.14l.11-.17c.33,0,.5.1.49.45a5.24,5.24,0,0,0,0,.56.59.59,0,0,0-.22,0c-.1,0-.23,0-.23.21s0,.09,0,.1.2,0,.27-.1A.8.8,0,0,0,24,9.59c.57.18.59.24.21.93,0,.09-.28.15,0,.28v-.31c.28.18.74.29.46.78s.49.07.44.49-.25.55-.24.85c0,0,.06.06.1.06.62.08.48.38.2.72-.14.16-.24.36.05.45a.3.3,0,0,0,.41-.3c0-.52.08-1,.07-1.55a9.48,9.48,0,0,0-2.26-6.15,17.85,17.85,0,0,0-1.52-1.35A11.14,11.14,0,0,0,16.8,1.75a11.44,11.44,0,0,0-8,.84c-.49.24-1,.42-1.55.64A11.85,11.85,0,0,1,8.36,4.77C9,5.36,9.3,6.53,10.57,6c.13-.05.36.15.54.23s.45.61.9.28c.08-.06.23.08.24.2,0,.33.09.43.5.33a1.69,1.69,0,0,1,1,.33,12.15,12.15,0,0,0,1.79.93c.51.2,1.2.12,1.1,1,0,.07.14.2.24.23.64.21,1.15.7,1.84.77C18.69,10.44,18.79,10.5,18.92,10.54ZM10.53,6.68l.05.11.07,0-.15-.1a.35.35,0,0,0,0-.11s-.05,0-.08,0ZM12.44,48c-.07,0,.05-.28-.16-.14l.19.11c.07.15,0,.4.22.47.07,0,0,.24.15.12l-.18-.1A.6.6,0,0,0,12.44,48ZM5.25,42.94l0,0,.07,0c0,.12,0,.24,0,.35s0,.23.12.22.08-.13.08-.19A.35.35,0,0,0,5.25,42.94ZM7.4,10.78a.34.34,0,0,0,.27.22c0,.75.43.09.63.21s.46,0,.54.15a7.16,7.16,0,0,0,.42.83c.18.35-.46.21-.58.51a3.18,3.18,0,0,1,.6,0c.18,0,.43,0,.48.24s-.21.26-.38.34c-.35.15,0,.31,0,.41s.33.08.52,0c.63-.16.63.24.58.68-.14,0-.29,0-.35.15s.05.06.08.07c.18.07.26,0,.29-.19.47,0,.77.2.74.72h-.11l-.3.07s0,.08.06.09.25-.07.32-.19c.35.11.86.1.59.71,0,.09-.35,0-.2.27s.23.09.4,0c.6-.19.91.07.92.7l-.31,0s0,.11.08.12.17-.1.2-.19c.37.07,1-.31,1,.49-.16,0-.34.06-.34.25s.19.19.34.2c.18.39.41.48.83.29.24-.11.82-.15.77.16-.1.74.27.54.6.4s.48.26.71.41l-.15,0s0,0,.05,0a.18.18,0,0,0,.07-.05c.65-.15,1,.47,1.61.54,0,.48.19.48.62.44a.57.57,0,0,1,.45.71c-.08.3-.38.25-.61.23a1.94,1.94,0,0,1-.57-.16,22.07,22.07,0,0,1-5.48-2.83c-1.27-1-2.75-1.57-4.23-2.52.23.9.19,1.71.85,2.22s1.18,1.06,1.85,1.51a12.85,12.85,0,0,0,5.57,2.23c.21,0,.41.07.42.32a.4.4,0,0,1-.36.4.56.56,0,0,1-.36,0c-.74-.37-1.61-.16-2.36-.54-.3-.15-.84.21-.9-.48,0-.18-.24-.11-.39,0-.34.25-.57.22-.66-.25s-.12-.21-.3,0-.46.13-.43-.22c.07-.86-.54.19-.71-.25-.07-.18.3-.84-.42-.62-.26.09-.37-.07-.36-.3a.5.5,0,0,0-.36-.56c0,.12-.09.25-.06.35.27.82.54,1.65.83,2.46a1.11,1.11,0,0,0,.9.68,10.66,10.66,0,0,0,3.41.48c.75-.05,1.51,0,2.27,0,.35,0,.52.15.5.5l-.08,0,0,0,.09-.12a9.29,9.29,0,0,0,3.34-1.91C21.9,21,22.35,20,23,19.24c.15-.18,0-.23-.11-.33a.36.36,0,0,1-.06-.6c.2-.19.34,0,.42.19s.17.08.25,0a1.4,1.4,0,0,0,.41-1.87c-.15-.28-.34-.54-.46-.83A1.07,1.07,0,0,0,22,15.11c-.05,0,0-.28-.16-.11l.19.08c-.09.59.52.48.76.74s.17.41-.14.5c-.12,0-.34,0-.3.23.95.92.95.92-.1,1.58-.26-.13-.23-.4-.3-.62-.47-1.46-1-2.9-1.58-4.32-.71-1.69-2.09-2.36-3.65-2.88a.2.2,0,0,0-.23-.2s-.06.07-.09.12l.35.06c.15.52-.6,1.3.43,1.59-.31.42.51.68.16,1.11a.83.83,0,0,1,.56.82A1.72,1.72,0,0,0,18.8,15c.65.31-.15,1.27.73,1.32-.17.7.46,1.15.57,1.74a11.36,11.36,0,0,0,.67,2.56,2.32,2.32,0,0,1,.08.7c-.38.12-.6-.06-.73-.41s-.33-1-.51-1.45a30.6,30.6,0,0,0-2.36-5.3A37.22,37.22,0,0,0,14.11,9.5a10.87,10.87,0,0,0-2.85-2.33l0,0,.07,0c-.08.33.18.51.32.74a14.15,14.15,0,0,1,1.19,2.2A1.62,1.62,0,0,1,12.28,12c-.41.27-1,.13-1.59-.45A14.65,14.65,0,0,1,8.06,8.33c-.69-1.19-1.31-2.48-2.69-3.1C3.87,7,3.8,7,3.64,9a19.94,19.94,0,0,0,0,4.3,10.65,10.65,0,0,0,3,6.1,7.08,7.08,0,0,0,3,2.22,33.84,33.84,0,0,0-1.22-3.46c-.33-.68-.47-1.66-1.61-1.68-.27,0,.06-.41,0-.63a.25.25,0,0,0,.09,0s0,0,0-.06l-.1.13a1,1,0,0,1-.35,0c-.41-.15-.91-.79-.74-.95.51-.49.42-.6-.24-.56-.14,0-.12-.26-.13-.42l.06,0,0,.07c-.59-.1-.65-.38-.27-.8s.41-.51-.17-.53c-.09,0-.25-.21-.24-.22.3-.41.07-.63-.28-.82.37-.65-.41-1.22-.07-1.93A5,5,0,0,0,4.56,8a.26.26,0,0,1,.33-.24A.37.37,0,0,1,5.12,8a5.76,5.76,0,0,1,0,.59,11.84,11.84,0,0,0,2.92,7.12c-.42-.5.12-1-.13-1.49-.64-1.23-.78-2.64-1.51-3.84a4.5,4.5,0,0,1-.7-2.73c0-.35-.24-1,.35-1,.4,0,.12.61.19.93s0,.78.59.6c.42-.12.46.18.33.5s0,.24.15.4,1.18.37.63,1.15c0,0,0,.13.06.19.27.54.27.54-.36.59-.06-.12-.1-.26-.28-.22,0-.16.38-.23.13-.45a.2.2,0,0,0-.21,0C7.16,10.56,7.29,10.67,7.4,10.78ZM40.31,56.34a1.2,1.2,0,0,0,0,.33c0,.07-.1.26.11.18,0,0,0-.15,0-.2a1.67,1.67,0,0,0-.18-.28c-.07-.25.06-.55-.24-.72L40,55.06c-.24.25-.09.41.1.56S39.94,56.2,40.31,56.34Zm-1.44-1.92c.09.19-.08.42.08.61.22-.25,0-.4-.11-.58s0-.38-.07-.57C38.67,54.09,38.55,54.3,38.87,54.42Zm.71-.47c0,.2-.08.43.11.62.14-.26.12-.45-.13-.59l-.05-.63C39.29,53.63,39.3,53.82,39.58,54Zm-1.19-1.21c0,.2-.08.43.09.62.18-.25.06-.42-.12-.59s.12-.57-.25-.7a16.77,16.77,0,0,0-.92-3.42.38.38,0,0,0-.49-.23c.49,1.23,1,2.43,1.44,3.62C38.21,52.28,38,52.62,38.39,52.74Zm-28.55-6c0,.13-.07.28.07.38s.07,0,.06-.06-.1-.2-.16-.3-.08-.49-.39-.65C9.43,46.48,9.49,46.72,9.84,46.74ZM34.07,33.31c-.07.21.08.23.22.27A.77.77,0,0,0,35,34a.37.37,0,0,0,.05.11l.07,0-.15-.1c-.15-.3-.32-.56-.72-.46,0-.18-.08-.24-.22-.27a1,1,0,0,0-.66-.54,2.17,2.17,0,0,0-1-.67c-.08-.13-.17-.25-.26-.38s0-.27-.21-.15-.17.22,0,.36a.44.44,0,0,0,.52.14c.11.47.48.65.88.81C33.51,33.1,33.66,33.46,34.07,33.31Zm6.7-11.75c.07.24.26.24.45.21,0,0,.06-.08.08-.12l-.44,0h-.11c-.21-.33-.48-.26-.89-.07ZM37.39,56.4c0-.26.1-.58-.24-.74a2.3,2.3,0,0,0,0-.59c-.85-2.61-1.79-5.19-2.43-7.86-.05-.21-.26-.14-.4-.2L34.23,47h0l.15,0a1.4,1.4,0,0,0,.11.92c.31.93.57,1.88.91,2.81a51.17,51.17,0,0,0,1.83,4.93c.07.25-.14.59.24.73.08.24-.07.51.14.8A.69.69,0,0,0,37.39,56.4Zm-35-45.88c.3-.2.65-.37.34-.84a1.1,1.1,0,0,0-.32.86S2.26,10.64,2.37,10.52ZM21.08,13,21,12.88l.1.06a1.41,1.41,0,0,0,.46,1c0,.78.41.57.85.34-.29-.16-.54-.37-.88-.31C21.57,13.52,21.61,13.1,21.08,13Zm-12.48,1a.31.31,0,0,0,0-.1s0,0-.06,0l.14.1a1.21,1.21,0,0,0,.93,1.21s0,.27.16.05c0,0-.11-.07-.19,0C9.52,14.5,9,14.23,8.6,13.92ZM24,47.7a.81.81,0,0,0,.07.61c.2-.24.06-.42-.1-.59-.24-1.37-.37-1.63-1.16-2.08C23.38,46.33,23.33,47.21,24,47.7Zm16.06,5c0,.18,0,.36.08.78.12-.44.13-.62-.11-.75.56-.89-.18-1.37-.62-2A5.39,5.39,0,0,0,40.06,52.75Zm-25-29.23c-.62.23-1.24,1-1.86-.07-.1-.19-.26.18-.39.29s-.4.32-.46,0c-.17-.69-.39-.28-.71-.13s-.38-.16-.45-.4l.1,0s0,0,0-.06l-.11.13c-.53.62-.4,1.21.31,1.37a7.48,7.48,0,0,0,3.76-.09,2.68,2.68,0,0,0,1.6-1c-.47,0-.83-.14-1.2.32s-.62.08-.66-.39l.25-.1s-.07,0-.08,0ZM11,8.37l0,0a2.16,2.16,0,0,0-.89-1.07,7.68,7.68,0,0,1-2.86-3c-.1-.24-.41-.39-.52-.64-.21-.46-.5-.48-.83-.2a.75.75,0,0,0,0,1.11A10.35,10.35,0,0,1,8.76,8.24a13.43,13.43,0,0,0,2.57,2.95c.15.15.32.37.6.18a.55.55,0,0,0,.25-.51A1.48,1.48,0,0,0,12,10,9,9,0,0,0,11,8.37Zm-7.9,6.51c-.24,0-.72.16-.65-.19s-.3-.91.16-1.27c.14,0,.31,0,.38-.18s0-.15-.1-.12-.29.12-.25.33c-.7-.35-.71-.44,0-1,0-.06.27,0,.07-.16,0,0-.09.1,0,.18-.86,0-.2-.82-.65-1.16a8.26,8.26,0,0,0-.2,4.48c.92,4.32,4.18,6.5,7.8,8.31.17.08.4.17.56,0s.1-.44-.06-.63-.34-.34-.17-.62a.24.24,0,0,0-.14-.38c-.25-.09-.17.2-.29.28s-.21.26-.4.18-.28-.2-.2-.37c.27-.56.08-.54-.37-.34-.3.14-.46,0-.36-.35s0-.47-.29-.37-.46,0-.49-.3-.08-.48-.38-.46c-.09,0-.17.15-.27.22s-.3.12-.42,0a.29.29,0,0,1,0-.43c.45-.44,0-.71-.27-.73s-.63.17-.63-.35c0-.32-.62-.24-.42-.73s0-.44-.44-.37c-.59.1-.55-.23-.29-.61.15-.07.31-.13.09-.31l-.06.34c-.83-.14-.84-.14-.42-.74A.46.46,0,0,0,4,16.59c-.25-.2-.65.17-.86-.16s.57-.52.31-.85c-.12-.15-.58.21-.75-.1s.34-.36.39-.63l.1,0s0-.05,0-.07Zm40-1.31H46C43.48,13.26,43.48,13.26,43.06,13.57ZM38.3,49.35c-.2.51.13.7.11,1,0,.09,0,.25.2.21a.76.76,0,0,0,.29-.16c.19-.17,0-.26-.09-.36S38.53,49.64,38.3,49.35ZM4.37,43c.11-.76.11-.76-.26-1.24C4,42.26,4.41,42.58,4.37,43ZM14.52,8.53c.15.22.21.6.52.62a.27.27,0,0,0,.31-.22Zm10.79,5.94a.78.78,0,0,0-.24,1.11C25,15.22,25.38,15,25.31,14.47ZM12.16,47.23c0-.16,0-.33-.21-.37a.26.26,0,0,0-.19.08c0,.23.14.35.31.47ZM6.49,44.1c-.15-.08-.21-.05-.23,0s.21.31.27.49.06,0,.08-.09S6.61,44.16,6.49,44.1ZM19.37,9.51c0-.07-.07-.14-.16-.21s-.21-.06-.2.08.12.18.2.26S19.32,9.68,19.37,9.51ZM12.76,5.15A1,1,0,0,0,12.64,5c-.07-.06-.12,0-.16.06s0,.15.08.16A.53.53,0,0,0,12.76,5.15ZM42.81,22.09l-.2.09a.6.6,0,0,0,.21.08c.06,0,.13-.06.2-.09ZM40.63,55a1.51,1.51,0,0,0,.1-.17.17.17,0,0,0,0-.11c-.05-.08-.11-.06-.12.06A.63.63,0,0,0,40.63,55Zm-2.88,3.1c0-.06.07-.11.09-.16a.22.22,0,0,0,0-.11c0-.09-.11-.07-.12,0A.63.63,0,0,0,37.75,58.09Zm9.66-44.26.11,0a.86.86,0,0,0-.21-.07s-.07,0-.11,0ZM42.29,60.54c0,.16,0,.27,0,.38s0,.07.06.1a1.43,1.43,0,0,0,.09-.27S42.35,60.64,42.29,60.54ZM15.56,9.65a.2.2,0,0,0-.17.24c0,.12.08.13.16,0l.15-.17Zm9.15,6.75-.08,0s0,0,0,.05l.08,0S24.7,16.42,24.71,16.4ZM39,52.08,39,51.9s-.07.05-.07.07a1.06,1.06,0,0,0,.06.19Zm.25.75-.06-.19s-.06,0-.06,0a.41.41,0,0,0,0,.19C39.19,52.94,39.24,52.92,39.28,52.83ZM40.48,54l-.06-.19s-.06,0-.06.06a.37.37,0,0,0,0,.18C40.39,54.14,40.44,54.11,40.48,54ZM4.64,43.81s.07-.05.07-.08a1.27,1.27,0,0,0-.06-.18.67.67,0,0,0-.07.18S4.62,43.79,4.64,43.81Zm20,5.86-.05-.08a.89.89,0,0,0-.08.17s0,.05.05.08Zm17,11.54,0-.11s0,0,0,0a.36.36,0,0,0,0,.1Zm-18-31.54,0-.08s-.07,0-.07.05l.07.12ZM17.07,7.31s-.05,0-.08,0a.13.13,0,0,0-.1,0s.06,0,.09,0S17,7.32,17.07,7.31ZM41.38,59.88s-.05.06-.05.09,0,.07,0,.11,0-.06,0-.09A.43.43,0,0,0,41.38,59.88ZM39.93,24.11s0-.06-.06-.07a.2.2,0,0,0-.11,0c-.07.05,0,.1.07.11A.24.24,0,0,0,39.93,24.11Zm2.22,35.62,0-.09a1.3,1.3,0,0,0-.08.17s0,.06,0,.09S42.12,59.78,42.15,59.73ZM46.59,23.3l-.21.08s.06.07.09.07a1.72,1.72,0,0,0,.21-.07ZM46,23.14s-.06-.07-.08-.07a1.52,1.52,0,0,0-.2.06s.06.07.08.06A.84.84,0,0,0,46,23.14ZM41.9,58.92s0-.08,0-.11-.08-.08-.11,0a.1.1,0,0,0,0,.09Zm-1-.54a.33.33,0,0,0,0-.1c0-.09-.07-.08-.09,0s0,.06,0,.09Zm4.32-35.47s0-.08-.08-.07a.84.84,0,0,0-.2.05s.06.07.08.06A.71.71,0,0,0,45.25,22.91ZM3,38.27l0-.16,0,0A.32.32,0,0,0,3,38.27ZM41.61,57.93s-.06,0-.06.08a.67.67,0,0,0,.05.19s.07-.05.06-.08A.67.67,0,0,0,41.61,57.93Zm2.63-35.28s0,.07.08.07l.19-.06s-.06-.06-.08-.06Zm-.57-.16.1-.06-.19-.08s-.06,0-.09.06ZM42,22l.1-.06-.2-.08s-.06,0-.09.06ZM40.68,57.62s0-.07,0-.1-.08-.08-.1,0,0,.07,0,.1Zm.76-.36-.08-.08a1.06,1.06,0,0,0-.06.19s0,.06.06.09Zm-.25-.78-.07-.18s-.06.06,0,.08a.85.85,0,0,0,.06.17Zm-.3-1s-.08.06-.07.08a1.29,1.29,0,0,0,.06.21s.07-.06.07-.08A1.66,1.66,0,0,0,40.89,55.5ZM24.4,49l-.08-.19s-.06.06-.06.08a.68.68,0,0,0,.07.2ZM13.32,5.36l-.06,0v.07Zm.62.25.08,0V5.58Zm2.44,1.26.06-.07h-.09Zm2.24,1.88-.07-.05v.08ZM2.74,11.31l0,.07h.06Zm5.5.84,0-.07H8.21ZM6.52,15l.05,0V15Zm32.71,8.83,0,.06h.08Zm1.24.53s0-.06-.06-.06,0,0-.08,0,0,.06.07.06S40.45,24.36,40.47,24.34ZM38.72,25.6l.05-.08h-.08Zm.43.17.08.05v-.08ZM5.9,45l-.07-.06V45Zm4.27,2.54,0,.09h.07Zm-.78.33.07,0v-.08Zm1,.16,0,.08h.07Zm30.72,11,0,.07h.06Z"/><path d="M19.24,21.43c-.72.6-1.24.37-2,.4C17.92,21.09,18.47,21.32,19.24,21.43Z"/><path d="M13.87,17.75v-.51l.22,0c.2-.05.45-.23.51.15s-.12.4-.39.4Z"/><path d="M11,8.37a.6.6,0,0,1-.58.83c-.42,0-.65-.39-.82-.75A.37.37,0,0,1,9.72,8a.53.53,0,0,1,.55-.11c.3.08.33.57.75.47Z"/></g></g></svg>