<svg xmlns="http://www.w3.org/2000/svg" viewBox="0 0 95.56 51.9"><title>Primno</title><g id="Layer_2" data-name="Layer 2"><g id="Primno"><path d="M86.38,30.29a22.19,22.19,0,0,0,4.7,4.58,4.18,4.18,0,0,1,.44.4.33.33,0,0,1,.09.43.4.4,0,0,1-.54.08c-.13-.08-.25-.19-.38-.29a14.32,14.32,0,0,1-1.78-1.41C87,32,84.34,30.75,82.38,28.67c-.63-.66-1.27-1.32-1.92-2a1.18,1.18,0,0,0-1.26-.39,14.11,14.11,0,0,1-5.1.28c-.68-.1-1.35-.08-2-.17-.52-.07-.73.09-.81.58A7,7,0,0,0,71,29.65c.24,1.35-.25,2.74-.16,4.13,0,.71,0,1.43,0,2.15,0,.34.13.72-.18,1-.75-.13-.45-.82-.66-1.25a1.24,1.24,0,0,0-.1.2c-.09.35.19,1-.33,1s-.37-.65-.45-1-.16-1.1-.31-1.63a24.32,24.32,0,0,1-.66-7.11,11.17,11.17,0,0,1,.36-1.55,1.23,1.23,0,0,1-.42-.14c-1.13-.86-2.53-.7-3.79-1.06a.66.66,0,0,0-.55.11,2.82,2.82,0,0,1-2.19.12,1.76,1.76,0,0,0-2.1.91,36.34,36.34,0,0,1-4.35,5.24,2.65,2.65,0,0,1-.67.48,7.26,7.26,0,0,0-2.49,2L53.32,35c.24.29.43.63.14,1s-.66.14-1,0a.57.57,0,0,1-.3-.2c-.78-1.32-2.35-1.68-3.34-2.73C47.3,31.4,45.18,31,43.21,30.36s-2.16-.51-3.15-1.24c-.24.21-.45.47-.33.79s.21.85.64,1.09c.21.11.4.26.62.35a40.43,40.43,0,0,1,7.73,4.46,19.66,19.66,0,0,1,1.94,1.58,1.12,1.12,0,0,0,1.1.25A36.09,36.09,0,0,1,60.31,37a1.71,1.71,0,0,1,1.36.59c-.21.5-.74.49-1.06.77s-.45.54-.06,1c.09.08.16.18.25.25,1.41,1.24,1.31,1.21.63,2.94s-2,2.7-3.27,3.88c-1.89,1.8-4.24,2.82-6.44,4.06a7.81,7.81,0,0,1-7.95.23,39.18,39.18,0,0,1-3.63-2c-.17-.12-.36-.25-.24-.46a.4.4,0,0,1,.54-.1c.32.14.64.3,1,.47a19.14,19.14,0,0,0,2.17,1,5.18,5.18,0,0,0,3.6,0,32.21,32.21,0,0,0,10.38-5.22c.69-.55,1.56-1,1.71-2,.14,0,.25,0,.12-.17l-.1.19A9.66,9.66,0,0,0,57,43.61c-.21.14-.38.26-.39.55s-.2.33-.42.23-.69,0-.76.29c-.13.49-.34.54-.77.41s-.85-.16-.73.56c0,.25-.25.27-.44.16a1.13,1.13,0,0,0-1-.15c-.19.06-.39.1-.31.38.19.63-.08.67-.53.39a.88.88,0,0,0-1.09-.09c-.09.07-.25.07-.32.15-.44.53-.44.53-1.1.25-.29.15-.06.62-.43.79-.3-.18-.62-.4-1-.57s-.67-.29-1,.22-.58.54-1.12,0c-.11-.1-.19-.26-.32-.33a.42.42,0,0,0-.62.42c0,.25.32.54-.1.7s-.51-.12-.71-.31A3.76,3.76,0,0,1,42.7,46a2.32,2.32,0,0,0-2.42-1.72,2.44,2.44,0,0,1-2-1.05,16.7,16.7,0,0,1-1.56-2.25c-.29-.59-1-.88-1.3-1.5a5.87,5.87,0,0,1-1.13-2.71.69.69,0,0,0-.47-.65c-.79-.32-.91-1-.95-1.75a11.49,11.49,0,0,1,.8-4.79,18.94,18.94,0,0,0,1-3.93c-1.21,1.2-2.07,2.63-3.13,3.89a3.22,3.22,0,0,0-.48,2.61,23.94,23.94,0,0,0,2.08,6.16C33.76,39.52,34,40.93,35,42c.24.27.49.53.7.82s.24.46,0,.64a.44.44,0,0,1-.54-.12,11.56,11.56,0,0,1-2.29-2.74,21.25,21.25,0,0,0-1.06-1.86,18.07,18.07,0,0,1-2-5.55,12.94,12.94,0,0,1-.2-3.58c-.32.51-.33,1.18-1,1.41-.28.09,0,1,.47,1.17s.48.29.09.51S29,33,29,33.2a12.16,12.16,0,0,0,.86,2.34,43.42,43.42,0,0,0,2.2,4.62c.17.31.6.77.18,1.06s-.72-.32-.93-.6c-1-1.26-1.87-2.57-2.79-3.85,0-.19,0-.38-.25-.46L28.2,36s-.06.06-.05.07a2.33,2.33,0,0,0,.17.26c.08.16-.07.44.25.46a5.27,5.27,0,0,0,1.25,3,29.38,29.38,0,0,1,3.27,5.09,8,8,0,0,1,.64,3.36,4.41,4.41,0,0,1-.38,2.6,1.81,1.81,0,0,1-1.71,1.08,7.6,7.6,0,0,1-2.21-.3c-1.9-.58-3.73-1.3-5.58-2a28.16,28.16,0,0,1-8-5,9.54,9.54,0,0,1-2.59-4.35,3,3,0,0,1-.08-1c0-.19,0-.42.28-.45s.28.14.33.29c1.14,3.24,3.62,5.24,6.44,6.91A28.58,28.58,0,0,0,29.1,49.6a8.11,8.11,0,0,0,1.55.09c.19,0,.43,0,.48-.24a.62.62,0,0,0-.18-.64,15.46,15.46,0,0,0-2.34-1.41c-.28-.18-.33.43-.67.34-.4-.25-.12-.87-.59-1.1-.35.1-.27.79-.73.62s-.22-.6-.16-.93c0-.11.09-.24.06-.33a.53.53,0,0,0-.23-.26c-.18-.12-.29,0-.35.15s-.18.76-.54.64-.22-.6-.12-.93c.18-.59-.34-.7-.7-1.15-.18.89.08,1.75-.61,2.44-.63-1,.35-2-.12-3.06-.18-.1-.43.28-.67.08s-.09-.43,0-.65a.64.64,0,0,0-.24-.84c-.19.15-.08.59-.51.51-.36-.45.09-1-.11-1.49-.38.05-.37.74-.76.54s0-.61,0-.93a1.3,1.3,0,0,1,.08-.34.34.34,0,0,0-.14-.5c-.28-.17-.32.08-.39.26-.16.36-.32.72-.49,1.08s-.22.59-.56.7a.76.76,0,0,1-.07-.91,7.73,7.73,0,0,1,.78-1.61,1,1,0,0,0,0-1.41c-.21.27-.29.65-.73.81-.44-.93.77-1.49.54-2.35-.23-.1-.3.19-.49.2s-.24,0-.32-.08a.22.22,0,0,1,0-.32c.26-.3.53-.59.8-.89-.82-.38-.83-.39-.24-.93a1.47,1.47,0,0,0,.54-1.14A3.55,3.55,0,0,1,21,32.51c-1.14-.37-2.26-.72-3.37-1.14a6.4,6.4,0,0,1-3.2-2.55,2.41,2.41,0,0,1-.26-.39c-.09-.19-.15-.41.05-.54s.3,0,.43.09l.33.34c1,1,2.36,1.17,3.57,1.68a.77.77,0,0,0,.58,0,3.19,3.19,0,0,1,1.64-.21c.47,0,1,0,1.26-.48a.36.36,0,0,0,.37-.09s0-.07-.07-.07-.27,0-.28.19a11,11,0,0,1-5.66-1.47,3.79,3.79,0,0,1-.77-.56.39.39,0,0,1,0-.45.31.31,0,0,1,.4-.16,11,11,0,0,1,1.46.52c.78.37,1.53.68,2.34.05a1.17,1.17,0,0,1,.57-.12A5.39,5.39,0,0,0,23,26.21a1.3,1.3,0,0,1,.64-.29c.45,0,.63-.45.87-.75a.35.35,0,0,0,0-.53.33.33,0,0,0-.52,0c-.28.28-.57.56-.84.85a3.32,3.32,0,0,1-2.35,1,13.1,13.1,0,0,1-4.05-.58A5.77,5.77,0,0,1,13,23.34a7.67,7.67,0,0,0-.67-.86c-.44,0-.78.31-1.22.37A3.36,3.36,0,0,1,8.39,22c-2.23-1.8-4.9-2.51-7.6-3.18a3.74,3.74,0,0,1-.57-.17.3.3,0,0,1-.2-.38A.36.36,0,0,1,.27,18a7.4,7.4,0,0,1,2.13-.18,9.63,9.63,0,0,1,2.6.39,2.22,2.22,0,0,0-1.18-.89,25.8,25.8,0,0,0-3.18-1c-.21-.05-.43-.07-.4-.33a.46.46,0,0,1,.43-.36,2.37,2.37,0,0,1,.58.11A22.63,22.63,0,0,1,7.9,18.28a2.7,2.7,0,0,0,.41.16A1.54,1.54,0,0,1,9,17.14c1.14-1,1.73-2.39,2.68-3.52a9.63,9.63,0,0,1,4.29-3.27c.31-.1.4-.39.58-.59A14.35,14.35,0,0,1,20,7.09a28.68,28.68,0,0,0,4.51-2.88,9,9,0,0,1,4.66-2A5.85,5.85,0,0,0,31,1.57c.49-.26,1-.47,1.52-.7A1.45,1.45,0,0,1,33.92.78,1.75,1.75,0,0,0,35.5.89C36.07.77,36.58.6,37.08,1a.37.37,0,0,0,.43.08A14.51,14.51,0,0,1,40.2.6a1.59,1.59,0,0,1,.71-.08A5.44,5.44,0,0,0,43.79.16,2.44,2.44,0,0,1,45,0c1.53.36,3.12.06,4.63.46.68.17,1.41.27,1.79,1,.17.32.48.21.74.21a27.55,27.55,0,0,1,4.06.21,18,18,0,0,1,4.53,1.39l.21.11a.4.4,0,0,1,.27.47c0,.27-.26.26-.46.26a3.21,3.21,0,0,0-1.35.1c0,.28.13.34.26.4A22.45,22.45,0,0,0,65.85,7,30.13,30.13,0,0,1,69.41,8a7.6,7.6,0,0,0,2.32.47c.74,0,1.34.45,1.16.73-.31.46-.79.21-1.2.16-.26,0-.53-.21-.81.16a36.7,36.7,0,0,1,4.57,3.16,15.67,15.67,0,0,1,2.92,2.83,19,19,0,0,1,2.92,3.76c.17.38.6.63.91.94a11.84,11.84,0,0,1,1.46,2,8.1,8.1,0,0,0,2.68,2.95,27.13,27.13,0,0,1,6.83,5.95c.62.73,1.27,1.44,1.9,2.16a3,3,0,0,1,.43.57.41.41,0,0,1,0,.45c-.12.16-.28.12-.43.06a12.41,12.41,0,0,1-4.67-3,13.88,13.88,0,0,0-4-2.95.35.35,0,0,0-.25-.26l0-.06.07,0,.24.26a20.34,20.34,0,0,0,3.65,3.41c.53.4,1,.82,1.57,1.25a.34.34,0,0,1,.1.43.33.33,0,0,1-.49.14A14.53,14.53,0,0,1,89,32c-.76-.57-1.52-1.15-2.29-1.71-.07-.06-.22,0-.33,0,.07-.22-.07-.26-.23-.26,0-.17-.1-.23-.24-.25a.29.29,0,0,0-.23-.25l0-.06.06,0,.23.25.24.25ZM18,45.38l.05.09.05,0L18,45.4l0,0Zm-1.45-.94c.08,0,.09.05,0,.05s.06.08,0-.05a.2.2,0,0,0,0-.08l0,0ZM15.35,43l.27.26.08.27s0-.07,0-.09a1.07,1.07,0,0,0-.14-.16L15.33,43l0-.05Zm36.22-8.84a.71.71,0,0,0,.09.07h.06l-.17,0c.06-.2,0-.26-.21-.27a9.09,9.09,0,0,0-2.88-2.16c0-.23-.17-.23-.3-.29s-.07.07-.06.09c.06.19.22.18.38.17a6.3,6.3,0,0,0,2.88,2.16C51.35,34,51.45,34.08,51.57,34.13Zm-24.47-.5c.08,0,.09.07,0,.06s0,.09,0,0a.3.3,0,0,0,0-.1s0,0-.07,0Zm27.13-3.14c.15,0,.21-.1.22-.24A.23.23,0,0,0,54.7,30a.22.22,0,0,0,.24-.23,4.23,4.23,0,0,0,1.67-1.93c.2.05.24-.08.25-.24a1.64,1.64,0,0,0,1-1.19.3.3,0,0,0,.26-.25l.09,0s0,0,0-.06l-.1.13a.26.26,0,0,0-.25.24,1.77,1.77,0,0,0-1,1.19c-.16,0-.22.1-.25.24-.64.57-1.42,1-1.67,1.93-.19,0-.22.09-.23.24a.24.24,0,0,0-.25.23.28.28,0,0,0-.24.23l-.05,0Zm.23-1.44a.25.25,0,0,0,.09,0s0,0,0-.05l-.09.12-.11.08Zm.46-.73c.18,0,.26-.05.25-.22.4-.06.57-.41.81-.66a19,19,0,0,1,2.85-3c-.37-.24-.51-1-1-.41a16.79,16.79,0,0,0-2.63,4.07.26.26,0,0,0-.25.22l-.07.07s0,0,0,.05Zm-29.74-.71c.05,0,.26.05.13-.15l-.11.17-.05,0Zm-2.4-3.13c.15,0,.22-.07.25-.2a.24.24,0,0,0,.18-.33.2.2,0,0,0-.09-.05.35.35,0,0,0-.06.4c-.18-.05-.23.08-.27.2l0,.06ZM9.1,20l.05.05-.07,0a.36.36,0,0,0,0-.09l0,0Zm36,14.42c-.09-.27-.29-.28-.52-.22-.41-.45-.41-.45-.91-.48a1.37,1.37,0,0,0,.94.45c.1.23.32.2.52.22a.58.58,0,0,0,.47.24c.09.2.28.22.46.24l0,.09s0,0,.06,0l-.13-.1c-.07-.26-.31-.16-.47-.23C45.52,34.35,45.27,34.44,45.11,34.37ZM30,37.71c.06,0,0,.24.16.08l-.18,0c0-.2.08-.44-.23-.49a3.12,3.12,0,0,0-.83-1.82,3,3,0,0,0,.86,1.79C29.78,37.41,29.76,37.62,30,37.71ZM24.49,49l-.3-.15s-.06.06-.06.06.26,0,.39.07c0,.32.21.27.4.31A16.89,16.89,0,0,0,29.81,51c.63.18.84-.08,1.13-.52a25.53,25.53,0,0,1-3.8-.67A8.56,8.56,0,0,0,25,49.21C24.89,49,24.66,49,24.49,49Zm7.65-21.37c.21-.06.26-.23.29-.42a24.46,24.46,0,0,0,2.32-2.85.79.79,0,0,0,.22-.41,14.84,14.84,0,0,0,.35-4.57c-.57,1-1.6,1.7-1.78,3.07a37.38,37.38,0,0,1-1.2,4.68c-.21.13-.14.34-.17.53l-.09.05,0,0ZM8.38,19.48q.13,0,0,.06l0-.06c-.09-.27-.29-.25-.5-.21a1.08,1.08,0,0,0-1.19-.72.48.48,0,0,0,0-.12s0,0-.08,0l.11.13c.16.63.7.63,1.19.72C8,19.43,8.2,19.44,8.38,19.48Zm34.85-.2c-.36.08-.23.31-.15.55l.12-.58c.11-.05.19-.13.17-.25s-.12-.11-.14,0A1.71,1.71,0,0,0,43.23,19.28ZM18.94,46.13c-.06,0,0-.24-.15-.1l.18.08a.73.73,0,0,0,.72.47,5.51,5.51,0,0,0,3.75,1.84c-1.45-.54-2.5-1.39-3.77-1.81A.88.88,0,0,0,18.94,46.13Zm13.45-7.71c.06,0,0,.26.16.1l-.19-.07a2.25,2.25,0,0,0-.75-1.61A3,3,0,0,0,32.39,38.42ZM24,28.09a1.89,1.89,0,0,0,.7-1.92c.08,0,.24,0,.13-.14l-.1.17a1,1,0,0,0-.7,1.56.83.83,0,0,1,0,.35l-.05,0Zm24.22-1.7c.07,0,.17,0,.2-.06.69-1,1.35-2.12,2.12-3.12.4-.52-.13-.62-.53-.77-.59,1.33-1.3,2.6-1.77,4,0,.09-.11.19-.15.28s0,.05.06.07Zm-7.63-10a18.68,18.68,0,0,0-2.56.41.59.59,0,0,0-.6.56c-.09.46-.31.93-.93.93-.29,0-.63.08-.59.4s.43.25.69.27a2.23,2.23,0,0,0,1.05-.19,8.24,8.24,0,0,1,1.58-.49c.55-.08.87-.19.89-.84a1.85,1.85,0,0,1,.47-1.07v0Zm-8.92,6a11.69,11.69,0,0,1-2.41,1.71.77.77,0,0,0-.44.76,13,13,0,0,1-.17,3.3c-.11.37.31.54.59.64s.43-.15.48-.4a11.49,11.49,0,0,1,.87-2.19,10.88,10.88,0,0,0,1.06-3.84Zm61.94,10.3,0,.06,0,0c-.8-.89-1.54-1.84-2.4-2.66a32.25,32.25,0,0,0-5.36-4.38c-.81-.49-1.16-.48-1.49.44a39.75,39.75,0,0,1,8,6C92.68,32.38,93,32.76,93.59,32.65ZM47.52,29.57c-.35.28-.54.57,0,.8a9.78,9.78,0,0,1,2.34,1.41l1.4,1.06c2-3.26,4-6.35,6.13-9.44-1.12-.21-2.15.31-3.18,0-.53-.14-.81.05-1,.58a14.3,14.3,0,0,1-.7,1.89c-.29.63-.42.6-.92-.14-.2.5-.4,1-.59,1.45s-.46,1.1-.68,1.65c-.09.19-.22.35-.45.3a.4.4,0,0,1-.3-.45,4.32,4.32,0,0,1,.1-1.19c.13-.4.21-.81.34-1.36-1.06.46-1.71,1-1.62,2.14a6.24,6.24,0,0,1-.27,1.63.33.33,0,0,1-.33.28c-.17,0-.27-.15-.32-.31a1.34,1.34,0,0,1,0-.35.24.24,0,0,0,.19-.24c0-.09-.08-.12-.1-.06A1.8,1.8,0,0,0,47.52,29.57ZM30.71,2.67c-.39.16-.22.44-.14.7a18.86,18.86,0,0,1,.63,3.74,14.13,14.13,0,0,0,1,4.62,33.88,33.88,0,0,1,1.59,4c.27.91.5,1.63,1.62,1.57a1.75,1.75,0,0,1,.78.25.32.32,0,0,0,.5-.3,6.22,6.22,0,0,0-.12-2.31,39.79,39.79,0,0,0-1.79-4.77A14.21,14.21,0,0,1,33.53,3a4,4,0,0,0-.06-1.58,8.27,8.27,0,0,0-2.78,1.31Zm-12,8,0,0c.79.83,1.56,1.68,2.39,2.48a6.05,6.05,0,0,1,1.76,3.05,14,14,0,0,1,.35,2.22c0,.33.13.63.56.61,1.09-.07,1.58.62,1.82,1.58,1.08-1,1.44-1.65.6-2.94a1.48,1.48,0,0,1-.25-.79,19.38,19.38,0,0,0-.56-3,5.41,5.41,0,0,0-1.08-2.87c-.54-.58-1-1.25-1.53-1.83a2.74,2.74,0,0,0-4.12-.36A6.72,6.72,0,0,0,17.32,10,7.26,7.26,0,0,0,18.73,10.62ZM43,1.94c-.24.15-.21.41-.23.64a10.18,10.18,0,0,0,.79,4.66,36.13,36.13,0,0,1,1.53,4.5,28.59,28.59,0,0,1,.45,3.79,1.13,1.13,0,0,0,1.19,1.18,57.61,57.61,0,0,1,1.21-8.37,2.52,2.52,0,0,0,0-1.19A4.3,4.3,0,0,1,48.08,5a2.4,2.4,0,0,0,.13-.7,2.57,2.57,0,0,1,1.42-2.56.36.36,0,0,0,.22-.41A6.84,6.84,0,0,0,47.55,1a4.7,4.7,0,0,1-1.67-.1,4.52,4.52,0,0,0-2.47.1c-.62.14-.62.49-.47,1ZM57.12,6.27c-.87,1.45-.18,2.71.73,3.72,1.87,2.07,3.48,4.36,5.29,6.48A13.85,13.85,0,0,1,66,21.78a9.71,9.71,0,0,1,.42,1.49c.07.53.35.56.74.45.84-.22,1.68-.46,2.52-.71.17-.05.32-.29.52-.1s0,.44-.11.63a4.08,4.08,0,0,0-.64,1.5c.32.3.77.12,1.13.3s.76,0,1-.36a5.15,5.15,0,0,1,.47-.68.34.34,0,0,0,0-.51c-1-1.12-1.68-2.43-2.73-3.48a11.69,11.69,0,0,1-3-5.35,3.63,3.63,0,0,1-.12-2.33A5.63,5.63,0,0,1,68.61,9.5c.29-.16.67-.22.91-.69-1.36-.37-2.67-.8-4-1.05A23.23,23.23,0,0,1,58.84,5c-.43-.23-.69-.26-1,0a1.57,1.57,0,0,0-.73,1.29ZM51.7,20.84c1.34,1.07,1.41,1.06,1.81-.38.09-.34.39-.36.53-.22.57.55,1.26.4,1.92.42a4.17,4.17,0,0,1,.71,0,.41.41,0,0,1,.4.38c0,.24-.21.33-.42.32a7.94,7.94,0,0,1-.83-.13,2.4,2.4,0,0,0-2.48,1.33c1.73-.14,3.45.24,5.12-.47a2.81,2.81,0,0,1,1.73-.34c.26.05.43-.17.56-.37a3.79,3.79,0,0,1,2-1.23.37.37,0,0,1,.57.25c-.51.67-1.53.6-2,1.3,1.42.6,2.4,2.14,4.31,1.86a12.36,12.36,0,0,0-2-5.09,86.75,86.75,0,0,0-6.13-7.66,6.09,6.09,0,0,1-.72-.95C55.31,7.53,56,4.67,58.42,3.82A3.44,3.44,0,0,0,59,3.51a3.78,3.78,0,0,0-.54-.26c-2.65-1-5.41-.82-8.16-.76A1.36,1.36,0,0,0,49,4a6.52,6.52,0,0,1-.25,1.52,3,3,0,0,0-.06,1.75,2.76,2.76,0,0,1-.06,1.42c-.22,1-.41,2-.59,3-.34,2-.37,4.12-.8,6.14a1.48,1.48,0,0,0,.3,1.32A7.9,7.9,0,0,0,50,21.34c.23-.11.27-.33.39-.47.43-.48.6-1.34,1.56-1.1.18.05.33-.47.56-.12a.52.52,0,0,1-.18.73C52.14,20.53,52,20.66,51.7,20.84Zm29.48,4.23a8.18,8.18,0,0,1-1.89-3.67,2.52,2.52,0,0,1,0-2.09c.58-.77.3-1.22-.21-1.77s-.92-1.1-1.38-1.65A28.2,28.2,0,0,0,71,10.43c-1.35-.84-1.63-.72-2.82.33a.73.73,0,0,0-.09.08,3.74,3.74,0,0,0-1.25,2.87,10.19,10.19,0,0,0,2.11,5,55.23,55.23,0,0,1,3.64,4.57,1,1,0,0,0,1.1.52,2.89,2.89,0,0,1,.72,0c.19,0,.43,0,.42.28s-.19.22-.35.24a3,3,0,0,0-.59.07.28.28,0,0,0-.18.38,1.81,1.81,0,0,0,1.57,1.2,10.54,10.54,0,0,0,3.55-.33A8.61,8.61,0,0,0,81.18,25.07ZM9.37,18a4.43,4.43,0,0,1,2.12,1.82c.7,1,1.43,2,2.15,3A5.35,5.35,0,0,0,16.9,25,3.72,3.72,0,0,0,21,23.47a7.46,7.46,0,0,0,1.19-6.67,5.87,5.87,0,0,0-.95-2.28,38,38,0,0,0-3-3.08A1.49,1.49,0,0,0,16.65,11a9.19,9.19,0,0,0-4.39,3.17A25.07,25.07,0,0,1,9.37,18ZM51.75,38.32l.52.89a.27.27,0,0,1,0,.33.27.27,0,0,1-.42,0,3,3,0,0,1-.55-.62c-.21-.36-.47-.32-.81-.24a17.14,17.14,0,0,1-4.67.81,6.66,6.66,0,0,0,1,.66.43.43,0,0,1,.23.39c0,.25-.21.3-.43.31a4.26,4.26,0,0,0-3.34,2c-.3.43-.87.72-1,1.15s.62.75.82,1.22a4.64,4.64,0,0,1,.3.78,1.36,1.36,0,0,0,.49.8c.35-.15.57-.53,1-.52a1.67,1.67,0,0,1,1.22.35c.09.08.54-.58,1-.55.16,0,.36-.05.47,0,.52.37,1,.08,1.48-.07,1.67-.53,3.33-1.05,5-1.67a19.57,19.57,0,0,0,5.06-3.12c.38-.3.75-.68.52-1.22a2.2,2.2,0,0,1,.48-2.34C57.27,37.73,54.52,37.59,51.75,38.32ZM33.12,47.16a16.7,16.7,0,0,0-.66-2.1,26.63,26.63,0,0,0-3-4.59,6.62,6.62,0,0,1-1.21-2.17c-.38-1-.75-2.09-1.19-3.1-.65-1.51-.74-1.64-2.15-.94-1.13.56-2,.74-2.94-.24-.22-.23-.46-.14-.64.2A3.14,3.14,0,0,0,21.26,36a7.59,7.59,0,0,0,.86,3.9,22.11,22.11,0,0,0,3.23,4.41c.45.44,1.08.51,1.47.95A13,13,0,0,0,30,47.46a1.43,1.43,0,0,0,1.82,0C32.19,47.23,32.63,47.37,33.12,47.16ZM30.53,18.84c.83,0,1.52-.13,1.91-.88,0-.1.18-.16.29-.21.63-.29.68-.74.48-1.36a29.53,29.53,0,0,0-1.43-3.66A16.6,16.6,0,0,1,30.43,7a26.44,26.44,0,0,0-.5-3.17c-.14-.68-.4-.78-1.09-.69A12.82,12.82,0,0,0,24.9,4.69a1.76,1.76,0,0,1,.73,1.15,18.2,18.2,0,0,0,1.18,2.85,27.94,27.94,0,0,1,1.7,3.79,20.64,20.64,0,0,0,1.63,4.45A3.67,3.67,0,0,1,30.53,18.84Zm14-2.49a27.21,27.21,0,0,0-.11-3.27,26,26,0,0,0-1.72-5.67A11.43,11.43,0,0,1,42,2.26c.06-.7-.07-.95-.74-1a12.26,12.26,0,0,0-3.4.49.53.53,0,0,0-.41.53,7.92,7.92,0,0,0,.56,4A15,15,0,0,0,39.58,8.8a6.64,6.64,0,0,1,1.64,2.61c.24,1.12.5,2.24.75,3.36.1.45,0,1,.74.72A5.63,5.63,0,0,0,44.58,16.35ZM36,35.78a4.52,4.52,0,0,0,1.44-.21c.81-.23.89-.26.92-1.1,0-.67-.12-1.36-.11-2a1.6,1.6,0,0,0-.47-1.2c-.44-.59-1.15-1-1.35-1.77a5.94,5.94,0,0,1,.68-4.79c.49-.78,1.26-1.34,1.69-2.16A3.15,3.15,0,0,0,39,19.49c-.1-.18-.17-.44-.51-.27a8.25,8.25,0,0,1-1.85.4c-.39.07-.65.21-.61.69a10.14,10.14,0,0,1-.24,3,35.26,35.26,0,0,1-1.18,5.56,15.73,15.73,0,0,0-1.1,4.48c-.1,2,.17,2.35,2.05,2.46Zm5.23-20.25a2.85,2.85,0,0,0,0-.52,12.92,12.92,0,0,0-2.73-6.46A7.64,7.64,0,0,1,36.64,3c.08-1.63,0-1.62-1.58-1.31-.53.11-.67.36-.75.87a13.8,13.8,0,0,0,.37,4.71,6.89,6.89,0,0,0,.82,2.59,18.63,18.63,0,0,1,1.93,5.2c.32,1,.54,1.24,1.59.93A12.41,12.41,0,0,1,41.21,15.53ZM39.27,32.25c-.62.82-.33,1.73-.37,2.57s0,.9-.68,1.48c.51.82,1.88.66,2,1.9.25-.14.38-.23.52-.3,1.25-.7,1.42-.68,2.43.38a1.91,1.91,0,0,0,1.49.63,11.79,11.79,0,0,1,1.54-.15c1.36.14,2.56-.41,3.92-.69a8.44,8.44,0,0,0-1-.85,19.29,19.29,0,0,0-2.23-1.11C44.42,34.68,41.69,33.78,39.27,32.25Zm-18-25.08a8.45,8.45,0,0,1,1.82,1.2c.45.55.89,1.12,1.39,1.63A5.48,5.48,0,0,1,26,12.7c.43,1.81.65,3.67,1.18,5.45a1.57,1.57,0,0,0,1.31,1.2c1.18.27,1.68-.28,1.35-1.42a6.39,6.39,0,0,0-.49-1.21,7.86,7.86,0,0,1-.66-1.52,36.25,36.25,0,0,0-2-5.06,22.37,22.37,0,0,1-1.71-3.92c-.18-.71-.38-.78-1-.49A13.53,13.53,0,0,0,21.32,7.17Zm15.91,22.6a16.15,16.15,0,0,1,1.47-.71,2,2,0,0,0,1.11-1.15c.25-.54.32-1.13.61-1.66.7-1.29,1.34-2.61,2-3.92.1-.21.29-.52.22-.65-.41-.68-.17-1.39-.19-2.08s-.08-.85-.88-.83c-.56,0-.65.39-.74.76a8.83,8.83,0,0,1-2.23,4.26A7.84,7.84,0,0,0,37.17,26,5,5,0,0,0,37.23,29.77Zm8.46,10.56-.54-.27c-1-.54-2.22-.66-2.83-1.82-.14-.26-.5-.17-.76,0-.93.49-2.13.52-2.73,1.6,0,.1-.17.16-.26.24-.37.28-1,.36-1.07.84s.51.76.72,1.18a2.37,2.37,0,0,0,.44.56,2.61,2.61,0,0,0,4,0A5.59,5.59,0,0,1,45.69,40.33Zm.6-19.54v-.36c0-1-.29-1.36-1-1.42-1.23-.09-1.37,0-1.56,1.16a9.93,9.93,0,0,1-1,3.14c-.6,1.12-1.14,2.27-1.72,3.4-.17.34-.3.7,0,1a.94.94,0,0,0,1.19.2,3,3,0,0,0,.66-.5c.41-.38.79-.79,1.21-1.16C45.63,24.78,46.05,22.82,46.29,20.79Zm.9-1.06a2,2,0,0,0-.33,1.33,8,8,0,0,1-2.79,6.08c-.27.24-.52.5-.77.76-.46.5-.45.68.18.91.92.34,1.87.61,2.74.88.23-.1.25-.26.3-.41A54,54,0,0,1,49,23c.11-.21.17-.45.28-.65s.1-.39-.1-.51A5.53,5.53,0,0,1,47.19,19.73ZM23.41,34.28c.86-.68,2-.74,2.91-1.33.17-.12.52,0,.53-.34s0-.73-.33-1a5.09,5.09,0,0,1-1.06-1c-.42-.42-.82-.87-1.27-1.26s-.69-.47-1.09.14a8.39,8.39,0,0,0-1.05,2.12c-.12.41-.42.83-.38,1.22s.65.49,1,.74S23.15,34.06,23.41,34.28Zm15.9,3.58c-.47-.29-1.09-.44-1.36-.93a1.27,1.27,0,0,0-1.62-.58c-.49.13-1,0-1.53.07a6.47,6.47,0,0,0,1.74,3.37c.31.37.63.34,1.05.09A3.16,3.16,0,0,0,39.31,37.86Zm7,12.87a6,6,0,0,0,2.59.06c2.09-.3,3.64-1.7,5.43-2.61.23-.11.35-.27.17-.56s-.27-.3-.56-.15c-2,1-4.11,1.63-6.13,2.54C47.38,50.21,46.78,50.11,46.33,50.73ZM80,19.41a5.76,5.76,0,0,0,.72,3.78c.42.82.74.86,1.37.13.18-.21.3-.46.47-.68a.7.7,0,0,0,0-1A7.58,7.58,0,0,0,80,19.41ZM28.76,23.56C30,23.05,30.82,22,32,21.4a.37.37,0,0,0-.07-.66,3.39,3.39,0,0,0-3.17.83c-.11.11-.25.18-.19.38C28.66,22.44,28.45,23,28.76,23.56ZM30.29,20a4.62,4.62,0,0,0,3.64-.5c.69-.34,1.45-.64,1.44-1.62-1.35-.08-2.25.09-2.62.74a1.76,1.76,0,0,1-1.56.88C30.84,19.52,30.48,19.5,30.29,20ZM55.36,47.63a4.21,4.21,0,0,0,.71-.41c1.16-1,2.34-1.93,3.44-3A5.15,5.15,0,0,0,60.82,42c-.53,0-.69.33-.87.66a5.49,5.49,0,0,1-2,2.16c-.84.54-1.64,1.13-2.47,1.66C54.92,46.82,54.9,47.18,55.36,47.63ZM27,22.31a1.66,1.66,0,0,1-1.1.3,1.36,1.36,0,0,0-1.6,1,3,3,0,0,1,1.38,1.61C27.24,24.4,27.24,24.4,27,22.31Zm-2.15-.78c1.15.82,3.66-.06,4.55-1.51-.46-.13-1,.08-1.41-.15s-.86-.05-1.21.36C26.22,20.82,25.76,21.53,24.8,21.53ZM33,20.79l-.27-.06A29.08,29.08,0,0,1,30.09,29c.55-.19.92,0,1.09-.58A55.19,55.19,0,0,0,32.76,23C32.9,22.3,32.93,21.54,33,20.79ZM44.23,17a3.74,3.74,0,0,0-2.16-.64,1.4,1.4,0,0,0-1.24.95c0,.25-.11.64.28.67a9.74,9.74,0,0,0,2,0C43.62,17.92,43.86,17.43,44.23,17ZM3.14,18.65a23.73,23.73,0,0,0,2.53,1A6.88,6.88,0,0,1,8,20.83a12.64,12.64,0,0,0,2.23,1.43c.17-.35.14-.6-.06-.76A14.47,14.47,0,0,0,3.14,18.65Zm78.75,6c.33.33.6.62.89.9a.54.54,0,0,0,.65.12,2,2,0,0,0,.87-.95c.14-.32-.19-.58-.39-.81s-.27-.67-.71-.74A9.46,9.46,0,0,1,81.89,24.61ZM26.53,30.92a7.62,7.62,0,0,0,.27-1.41c0-.52.35-1.24-.26-1.51s-1,.33-1.43.63-.27.42,0,.67C25.54,29.79,26,30.3,26.53,30.92Zm42.12-2.67c0,1.07,0,1.07.91,1,.31,0,.7.05.69-.43s.33-1-.22-1.41a1.24,1.24,0,0,0-1.12-.25c-.45.17-.19.62-.26.95A.48.48,0,0,0,68.65,28.25Zm-47.58.52,2.16-.64a.29.29,0,0,0,.18-.47c-.13-.22-.16-.63-.55-.5a8.42,8.42,0,0,1-2.17.54c-.4,0-.27.4-.28.66S20.55,28.8,21.07,28.77ZM46.35,18.48c-.17-.46.26-.93,0-1.16s-.73-.2-1.1-.31c-.16-.05-.3-.13-.38.08-.2.49-.75.75-1,1.39C44.79,18.4,45.53,18,46.35,18.48ZM84.72,29.61c-.88-1.08-1.77-2.15-2.64-3.24a.87.87,0,0,0-1.21-.25A32.69,32.69,0,0,0,84.72,29.61Zm-57-7.33c-.28,1.07.14,2.1.14,3.16a16.75,16.75,0,0,0-.26,3.07C28.76,26.44,28,24.36,27.74,22.28Zm-.72,3a3.86,3.86,0,0,0-1.3.77c-.14.12-.35.29-.2.48s.48.73.95.8.62-.06.61-.49A6.37,6.37,0,0,0,27,25.3Zm-5.33,5c-.45.11-.85.34-1.29.13-.21-.1-.47-.2-.63,0a.74.74,0,0,0,.08.78c.23.41.61.42,1,.43a.59.59,0,0,0,.67-.52C21.59,30.92,21.87,30.73,21.69,30.31Zm1.52-8.88c-1,1.49-1.52,3.33-3.41,4.19A1.32,1.32,0,0,0,21.28,25,8.23,8.23,0,0,0,23.21,21.43Zm.81,1,.25,0c0-.61-.33-1.31.5-1.62.17-.06.18-.27.12-.42a1.33,1.33,0,0,0-1-.9c-.19,0-.43,0-.53.15a.36.36,0,0,0,.16.51,1.3,1.3,0,0,1,.5,1.24C24,21.75,24,22.09,24,22.43Zm9,26.64c-1.32,1-1.32,1-1.65,2.24C32.62,51.09,33,50.63,33.06,49.07ZM49.84,25.31a6.43,6.43,0,0,0,2.46-2,.81.81,0,0,0-1.24.29C50.65,24.14,50.24,24.72,49.84,25.31Zm10.85-1.43c-.39-1.15-.73-1.26-1.84-.6C59.44,24.32,59.44,24.32,60.69,23.88ZM28.43,34.8a4.63,4.63,0,0,0-1.07-3.41A8.53,8.53,0,0,0,28.43,34.8ZM69,30l-.25,0c.19.73,0,1.47.15,2.19s.35,1.44.56,2.24a1.89,1.89,0,0,0,.08-1.16C69.4,32.16,69.2,31.07,69,30ZM39.43,31.38a15.34,15.34,0,0,0,3.37,2c.09,0,.2-.08.28-.29C42,32.33,40.62,32,39.43,31.38ZM63.37,24A12.5,12.5,0,0,0,61,22.61C61.65,24.14,61.7,24.16,63.37,24ZM39,29.62c-.28.13-.53.23-.76.36-.42.26-.43.65,0,.89a.72.72,0,0,0,.76-.06c.33-.17.16-.37.12-.57S39.06,29.86,39,29.62Zm31.12,2.81h.13V30.2c0-.22-.06-.39-.33-.36s-.28.2-.24.42C69.86,31,70,31.7,70.15,32.43Zm-39.84-.7a7.64,7.64,0,0,0,.78,3.6C30.94,34.1,30.5,32.93,30.31,31.73ZM69,26.3c.44.16.87.31,1.29.48a.32.32,0,0,0,.41-.1.33.33,0,0,0,0-.43A1.41,1.41,0,0,0,69,26.3Zm3.14-.68a2.12,2.12,0,0,0,1.2,0c-.19-.31-.32-.64-.66-.8A1,1,0,0,0,72.09,25.62ZM69,24c-.46.11-1,0-1.29.42C68.67,24.87,68.67,24.87,69,24ZM60.36,40c0,.36.08.7.15,1s.27.26.45.19a.31.31,0,0,0,.18-.48A2.34,2.34,0,0,0,60.36,40ZM40,20.32c.11-.45.23-.81.3-1.19,0-.22-.12-.35-.35-.34s-.38.13-.32.37S39.83,19.88,40,20.32Zm3.65,9.31a6,6,0,0,0,2.56.88A9,9,0,0,0,43.62,29.63ZM19.09,31.05a4,4,0,0,0-1.92-.7A4.09,4.09,0,0,0,19.09,31.05Zm8.33-.24c.53-.44.42-.92.26-1.54C27.21,29.81,27.39,30.29,27.42,30.81ZM32.54,48.3c0-.23-.18-.24-.33-.23-.31,0-.51.2-.48.53a.32.32,0,0,0,.28.32C32.42,48.92,32.41,48.54,32.54,48.3ZM10.15,19.79c.12.36,0,.75.47.93a.38.38,0,0,0,.28-.11,1.13,1.13,0,0,0-.53-.82S10.29,19.79,10.15,19.79ZM30.36,30.88c.22-.39.45-.64.21-1,0-.05-.18-.07-.2,0-.19.24-.11.52-.1.8A1.23,1.23,0,0,0,30.36,30.88Zm12.52-1.35c0-.22-.15-.33-.31-.41s-.37.09-.44.25.16.19.26.25S42.74,29.77,42.88,29.53Zm-1.25-.84-1.12-.24C40.85,29.13,41.18,29.18,41.63,28.69ZM9.75,19.23c-.26-.22-.47-.57-1-.4C9.11,19.06,9.3,19.39,9.75,19.23ZM28.49,30.15s.08,0,.1-.06a.52.52,0,0,0,.12-.53s-.11-.13-.15-.12c-.25.07-.19.29-.2.47S28.33,30.13,28.49,30.15ZM51,21.24c-.13-.06-.1.13-.12.2s0,.33.11.39a.22.22,0,0,0,.31-.22C51.34,21.45,51.22,21.35,51,21.24Zm-39.33.41c0-.13-.07-.21-.19-.19a.2.2,0,0,0-.17.11.18.18,0,0,0,.12.25C11.58,21.86,11.65,21.76,11.69,21.65ZM52.12,22c-.07,0-.16.09-.16.13s.13.16.24.16.26.05.19-.13S52.21,22.08,52.12,22Zm.29,2.37s.07,0,.07-.06a.11.11,0,0,0,0-.1c0-.07-.09,0-.1.07S52.4,24.37,52.41,24.4Zm-7,26.08-.19.08s.06.07.08.06a1.52,1.52,0,0,0,.2-.06ZM51,25.65l0-.07H51Zm-3.15,1.61.05,0v-.06Zm-28.29,1,0-.06h-.06ZM47,30.88l-.06,0v0Z"/><path d="M49.17,6.26a6.63,6.63,0,0,1,.63-3c.06-.18.16-.41.41-.34s.22.37.17.58a7.19,7.19,0,0,1-.24.79,4.14,4.14,0,0,0-.26,2.53,2.56,2.56,0,0,1,0,.83c0,.1-.06.25-.21.23a.48.48,0,0,1-.29-.15C49,7.3,49.21,6.76,49.17,6.26Z"/><path d="M50.54,6a.56.56,0,0,1-.38-.58,6.54,6.54,0,0,1,1-2.61.28.28,0,0,1,.42-.05c.07.06.16.24.12.3a7.08,7.08,0,0,0-.94,2.76C50.78,5.89,50.62,5.94,50.54,6Z"/><path d="M53,3.32c-.25,0-.33.25-.39.52s-.14.61-.53.39-.21-.44-.07-.73c.39-.82.55-.91,1.22-.61.2.09.38.17.3.41S53.21,3.54,53,3.32Z"/><path d="M49.75,18.51a1,1,0,0,1,.65.2c.26.19.36.75.14.93s-.4-.07-.57-.21a3.15,3.15,0,0,0-.5-.3c-.19-.1-.34-.26-.25-.46S49.55,18.51,49.75,18.51Z"/><path d="M69.35,11.31a.86.86,0,0,0-.73.51A.36.36,0,0,1,68,12c-.25-.24,0-.42.16-.59a3.44,3.44,0,0,1,1.43-1c.21-.09.5-.18.62.1s-.17.31-.3.44a1.32,1.32,0,0,0-.12.2l0,0c-.19.06-.43,0-.52.27Z"/><path d="M69.82,11.09c.39,0,.79,0,1.19,0a.22.22,0,0,1,.23.21c0,.07,0,.19-.07.21a2.38,2.38,0,0,1-1.71.26c-.17-.07-.1-.27-.11-.42l0,0c.18-.07.43,0,.52-.27Z"/><path d="M72,12.09c-.1.47-.25.64-.52.62a.22.22,0,0,1-.2-.25.44.44,0,0,1,.48-.41C71.9,12.06,72,12.14,72,12.09Z"/><path d="M57.09,6.3c.4-.26.47-.82.92-1a.3.3,0,0,1,.33,0c.11.07.19.16.1.28a3.19,3.19,0,0,0-.82,2.39s-.1.13-.16.14a.3.3,0,0,1-.34-.26,5.3,5.3,0,0,1,0-1.54Z"/><path d="M59,6.09c0,.3-.16.52-.28.76s-.13.75-.56.54-.18-.57,0-.86.18-.53.46-.66a.29.29,0,0,1,.22,0A.24.24,0,0,1,59,6.09Z"/><path d="M59.83,5.82c.21.13.17.34.18.53a.51.51,0,0,1-.25.51c-.14.08-.23,0-.31-.08-.24-.19-.19-.4-.05-.63S59.58,5.79,59.83,5.82Z"/><path d="M20.64,20.06a3.34,3.34,0,0,1-1.1,2.82c-1,.86-1.8.61-2.06-.64-.18-.86-.33-1.72-.45-2.59a1.94,1.94,0,0,1,2.34-2.13,1.32,1.32,0,0,1,.94.83A2.88,2.88,0,0,1,20.64,20.06Z"/><path d="M16.56,12.05c0-.58.34-.63.68-.41a5.47,5.47,0,0,1,1.67,2c0,.06,0,.25-.12.29a.36.36,0,0,1-.32,0c-.29-.32-.58-.65-.84-1a1.77,1.77,0,0,0-1.1-.85Z"/><path d="M15.12,13.25c-.06-.14-.1-.29-.17-.43a.29.29,0,0,1,.46-.34.54.54,0,0,1,.18.15c.15.25.52.49.23.79s-.48-.11-.72-.19Z"/><path d="M16.53,12c.06.15.11.3.18.44s.32.59,0,.69-.5-.33-.61-.6c-.17-.45.09-.57.5-.5Z"/><path d="M15.1,13.23c0,.24.05.51-.3.47s-.39-.18-.28-.4.39-.12.6-.05Z"/><path d="M42.94,2c.38-.12.4-.91.84-.65s-.08.68-.18,1c0,.15-.11.3-.16.45s-.1.21-.24.19A.29.29,0,0,1,43,2.76a1.43,1.43,0,0,1,0-.82Z"/><path d="M45.17,1.49c.19.07.39.16.36.39a.33.33,0,0,1-.34.28.36.36,0,0,1-.35-.4C44.86,1.57,45,1.51,45.17,1.49Z"/><path d="M44.67,1.83c0,.15-.05.34-.31.33a.23.23,0,0,1-.21-.24c0-.22.08-.39.32-.39S44.66,1.64,44.67,1.83Z"/><path d="M26.81,4.73c-.55.32-.13.77-.17,1.16,0,.16,0,.33-.22.36s-.27-.11-.33-.26-.29-.56-.4-.86A.43.43,0,0,1,26,4.55c.21-.09.4-.28.65-.13C26.69,4.47,26.73,4.6,26.81,4.73Z"/><path d="M37.64,3.13a1.19,1.19,0,0,1,.48-1c.36-.32.74.33,1.08-.07,0-.06.19.12.2.23,0,.46-.24.68-.8.58-.15,0-.22,0-.26.09a3.19,3.19,0,0,0-.16.55c0,.2-.06.43-.33.38s-.2-.22-.21-.38Z"/><path d="M34.53,3a1.69,1.69,0,0,1,.06-.39A.32.32,0,0,1,35,2.37a.31.31,0,0,1,.29.31,2.43,2.43,0,0,1-.08.47c-.05.19-.09.45-.32.45S34.55,3.3,34.53,3Z"/><path d="M18.73,10.62c0-.33-.37-.39-.47-.65a.57.57,0,0,1,.34-.77c.34-.13.35.19.38.42s.26.38.42.55.33.24.13.48-.32.1-.5,0a1.14,1.14,0,0,0-.33-.06Z"/><path d="M30.69,2.69a1.49,1.49,0,0,1,1.18,1.56.46.46,0,0,1-.22.24c-.2.1-.33-.1-.35-.2-.12-.57-.58-1-.59-1.62Z"/><path d="M23.52,7.64c-.15.12-.24.25-.33.26-.26,0-.82-.55-.76-.8s.24-.47.51-.36S23.21,7.39,23.52,7.64Z"/></g></g></svg>