<svg xmlns="http://www.w3.org/2000/svg" viewBox="0 0 83.41 57.2"><title>Pseudocalanus</title><g id="Layer_2" data-name="Layer 2"><g id="Pseudocalanus"><path d="M50.11,11.5c0,.26.16.43.26.65s.24.38,0,.51-.41,0-.56-.25a6.66,6.66,0,0,0-1.18-1.5l.72,2.22c.06.2.09.42-.15.5a.38.38,0,0,1-.47-.27c-.2-.56-.36-1.13-.55-1.7a4.26,4.26,0,0,0-.33-.76c-.29-.53-.5-.58-1-.27a4.21,4.21,0,0,0-.44.34.35.35,0,0,0,.19.43c1.85,1,2.26,2.83,2.79,4.61a.37.37,0,0,1-.32.44c-.13,0-.29-.12-.34-.28s-.08-.39-.12-.58a1,1,0,0,0-.12.16c-.27.47-.41.19-.52-.11s-.18-.52-.27-.79a.3.3,0,0,0-.36-.23.31.31,0,0,0-.29.32,11.43,11.43,0,0,0,0,1.55,67.12,67.12,0,0,1,.22,8.39,7.08,7.08,0,0,1-.45,3.28c.19,1.55-.72,2.89-.82,4.41a5,5,0,0,1-1.92,3.06c-.23.23-.52.11-.91-.06,0,.54,0,1,0,1.53a39.66,39.66,0,0,1-.37,5.11A9.61,9.61,0,0,0,43.1,45c.1.42.26.83.34,1.26a1.32,1.32,0,0,0,.62,1.09,1.13,1.13,0,0,1,.38.45,37.62,37.62,0,0,1,2.66,5.31,2.28,2.28,0,0,1,.13.93c0,.16,0,.33-.22.36s-.25-.13-.3-.29a6.62,6.62,0,0,0-.94-2.3c-.08-.06.07-.3-.14-.24s.09.15.17.22c.21,1,.4,2,.63,3a3.29,3.29,0,0,1,.08.94c0,.15,0,.33-.24.34a.32.32,0,0,1-.32-.28c-.15-.69-.25-1.4-.43-2.08a7.81,7.81,0,0,0-1-2.86c0-.19.08-.41-.1-.59-.14.25-.13.44.13.57.08,1.11.49,2.16.62,3.25a7,7,0,0,1,.24,3c-.58-.29-.59-.79-.64-1.28a10.6,10.6,0,0,0-.72-3.29L44,51.6c-.15.33-.28.67.07.93a10.15,10.15,0,0,0,.19,2.26,5.7,5.7,0,0,1,.05,1.55.25.25,0,0,1-.21.24.22.22,0,0,1-.26-.18,9.61,9.61,0,0,1-.27-1.4,42.74,42.74,0,0,0-1.08-6.56,25.11,25.11,0,0,0-.8-2.58,11.85,11.85,0,0,0-.7,1.77c-.43,2.09-.85,4.19-1.18,6.29-.12.78-.12,1.59-.29,2.36,0,.17-.09.33-.3.29s-.22-.2-.22-.36a5.68,5.68,0,0,1,.06-1.43,9,9,0,0,0,.2-2.25c.34-.27.24-.58,0-.9v.91a10.19,10.19,0,0,0-.7,3.17,2.28,2.28,0,0,1-.55,1.49,2,2,0,0,1-.15-1.56c.28-1.43.59-2.86.89-4.3a3.77,3.77,0,0,0,0-.48c.2-.15.29-.32.07-.64,0,.28,0,.47,0,.67a6.49,6.49,0,0,0-.93,2.72,5.59,5.59,0,0,0-.3,1.63.85.85,0,0,1-.56.91A1.59,1.59,0,0,1,37,54.82c.21-1,.43-2,.64-3l.15-.17s0-.06,0-.09l-.1.29a6.07,6.07,0,0,0-.94,2.29c-.05.15-.09.31-.3.29s-.22-.2-.24-.35a2.55,2.55,0,0,1,.34-1.49c.73-1.5,1.5-3,2.27-4.45a2,2,0,0,1,.58-.75,1.56,1.56,0,0,0,.59-1,12.46,12.46,0,0,0,.67-3.24,10.44,10.44,0,0,0-.16-2.85,27.1,27.1,0,0,1-.23-4.4c0-.08,0-.16,0-.29-.29.08-.61.26-.85,0-1-1-2-2.06-2-3.65a2.75,2.75,0,0,0-.26-1,5.37,5.37,0,0,1-.47-2.2,1,1,0,0,0,0-.35c-.87-2.65-.39-5.38-.47-8.08a28.11,28.11,0,0,1,.23-4.3,2.41,2.41,0,0,0,0-.6c0-.28.18-.7-.29-.79s-.34.44-.51.66-.08.3-.15.45-.31.39-.48,0-.16-.13-.19,0a1.57,1.57,0,0,1-.12.45c-.07.11-.19.29-.38.14s-.22-.18-.21-.26c0-.24.12-.46.15-.69A9.71,9.71,0,0,1,35.84,12c.18-.31.57-.41.88-.58s.48-.39.07-.69c-.67-.48-.94-.46-1.28.26s-.49,1.25-.72,1.88a5.18,5.18,0,0,1-.17.56.32.32,0,0,1-.4.17.29.29,0,0,1-.18-.39c.17-.57.33-1.14.55-1.69a1.15,1.15,0,0,0,.11-.75c-.39.57-.78,1.07-1.09,1.61-.15.26-.31.37-.56.25s-.09-.35,0-.51.29-.39.26-.65a.84.84,0,0,0,.45-.74.32.32,0,0,0,.27-.25l.07-.07-.05.1-.26.24c-.29.16-.52.36-.45.74-.79-.19-.82-.25-.43-.75.2-.25.42-.48.63-.71l.08-.06,0-.05-.08.13c-.42-.06-.61.33-.93.46a.35.35,0,0,1-.44-.06c-.13-.16,0-.3,0-.43A3.93,3.93,0,0,1,35.81,9l1.67.52c.49-.9.61-1.95,1.14-2.83.22-.37-.21-.67-.52-.8a11.77,11.77,0,0,0-2.25-.78,19.56,19.56,0,0,0-6.06.1,41.33,41.33,0,0,1-5.21.59c-1.44,0-2.85.29-4.29.25C17.65,6,15,6,12.38,6H10.82a1,1,0,0,1-.24,0c-.52-.14-.72.31-1.08.52s-.42-.62-1-.55a1,1,0,0,0-1,.8C7,6.59,7.21,6,6.63,6c-.9,0-.92,0-1.21.86a15.83,15.83,0,0,0-.49,4.49A3.91,3.91,0,0,0,5,11.8c0,.27-.06.54-.33.54s-.38-.26-.39-.52a16.25,16.25,0,0,1,.33-4.4c.12-.5.25-1,.37-1.45-.21-.28-.47-.19-.7-.21-.49,0-.74.17-.73.68a.87.87,0,0,1-.07.35c-.06.19-.14.39-.4.33s-.23-.21-.24-.36,0-.56,0-.91c-.12-.18-.38-.09-.6-.09-.91,0-.92,0-1,.9A16.05,16.05,0,0,0,.9,9.15c0,.52,0,.52-.54,1.16A1.83,1.83,0,0,1,.19,8.93,20.9,20.9,0,0,1,.57,6.58c.08-.43.12-.73-.39-1-.3-.12-.2-.54.14-.58a9.57,9.57,0,0,1,1.31,0c.69,0,.7,0,.64-.59,0-.11-.09-.23-.1-.34a.26.26,0,0,1,.26-.32.3.3,0,0,1,.38.2c.1.41-.09,1,.47,1.13.4.12.79-.11,1.19-.13L5.54,5c.45,0,1,.14.69-.69-.05-.1.09-.2.22-.22a.35.35,0,0,1,.38.23c.22.8.83.7,1.44.69.43,0,.55-.2.53-.59s0-.88,0-1.32c0-.19,0-.44.24-.46s.28.23.29.42c0,.39,0,.8,0,1.19.1.67.23.74,1,.73.53,0,1-.06.87-.78,0-.1.07-.22.1-.32.5-.05.44.41.57.65a.72.72,0,0,0,.75.45c.52,0,.19-.42.24-.63s.06-.25.17-.28.26.09.39.18-.17.85.36.68-.07-.62,0-1-.17-.44-.28-.65A.3.3,0,0,1,14,3.05a4.87,4.87,0,0,1,.64,1.83c.43,0,.81-.1,1.2-.13.24,0,.28-.1.29-.36,0-.55.42-.46.55-.16.23.54.56.38,1,.34a.85.85,0,0,0,.8-.72,2.91,2.91,0,0,0,.07-1.65c-.06-.23,0-.42.22-.46s.35.18.37.37A6,6,0,0,1,19,4.38c.93.54,1.34-.18,1.85-1,.2.73.31,1.3,1.15,1.1s.92-.2,1.13-1c.56.19.79,1.29,1.73.55L23.19,2.74a5.48,5.48,0,0,1-.44-.4c-.17-.17-.39-.36-.14-.6s.35,0,.5.13l2.05,1.45a4.14,4.14,0,0,0,1.42.6c.58.15.58.15.48-.52A.47.47,0,0,1,27.19,3c.43,0,.51.43.7.71a.34.34,0,0,0,.44.09c.17-.08.15-.25.08-.41-.13-.33-.28-.66-.39-1a.35.35,0,0,1,.12-.3.3.3,0,0,1,.3.06,5.7,5.7,0,0,1,.5.81c.37.73.39.75,1.16.49.18-.06.4-.06.51-.27,0-.89-.71-1.7-.33-2.66.55,0,.53.47.6.77s.18.77.25,1.16c.09.58.4.72.91.65.72-.09,1-.3,1-.85,0-.26-.12-.56.21-.75.37,0,.33.41.48.62s-.06.65.28.72a6.84,6.84,0,0,0,1.43,0c.18,0,.19-.21.24-.37A8,8,0,0,0,35.93.33c0-.15,0-.33.26-.32s.24.18.25.34c0,.76,0,1.52,0,2.28,0,.55.35.81.92.76.39,0,.18-.36.28-.54A.37.37,0,0,1,38,2.62a.38.38,0,0,1,.31.31c.1.32-.21.75.29.94.21,0,.17-.22.25-.34s.22-.5.51-.37.22.4.11.62-.23.58.1.85a.69.69,0,0,0,1,0,2.13,2.13,0,0,1,2.28,0c.32.18.57.37.95.1s.34-.58.15-.93a.81.81,0,0,1,0-.35.29.29,0,0,1,.19-.27.24.24,0,0,1,.31.12,7.16,7.16,0,0,1,.37.65c.48-.18.31-.54.33-.84s.09-.41.32-.44a.33.33,0,0,1,.4.33c0,.32.06.51.48.39S47,3.3,47,2.76s0-1.28,0-1.92c0-.29-.11-.64.23-.84.38.05.28.34.3.56s0,.72.05,1.07c.17,1.22.28,1.28,1.49,1.21.38,0,.57-.1.61-.53a.93.93,0,0,1,.48-.86c.31.14.24.4.25.62,0,.69.25.87,1,1s.84-.21,1-.77c.06-.31.14-.61.2-.92s.07-.72.48-.91c.38.2.26.56.23.84A4.1,4.1,0,0,1,53,2.44c-.19.46-.32.79.34,1s.81.22,1.18-.49c.17-.34.26-.76.69-.93.32.12.26.35.18.58s-.23.5-.34.76-.09.33.08.41a.32.32,0,0,0,.43-.08c.2-.28.28-.66.71-.71,0,0,.08.07.08.1,0,1.1,0,1.12,1.1.72a9.05,9.05,0,0,0,1.84-1.1c.39-.27.76-.58,1.14-.87.13-.1.27-.2.42-.07s.09.38-.06.52a11.74,11.74,0,0,1-1,.86c-.38.29-.79.54-1.2.81.66.4.66.4,1.72-.45.21.82.35.84,1.24,1s.78-.5,1.06-1.07c.45.76.84,1.45,1.77,1a8.24,8.24,0,0,1-.08-2.22c0-.23.12-.5.43-.42s.22.26.16.49a2.47,2.47,0,0,0,.06,1.52c.31.93,1,1.1,1.77.42.28-.25.61-.33.56.23,0,.31.12.31.33.33l1.06.13c.2-.51.38-1,.59-1.54.11-.24.21-.6.58-.41s.08.41,0,.62c-.14.37-.3.73-.43,1.11a.2.2,0,0,0,.15.27c.13,0,.32.09.36-.13s0-.25,0-.36.14-.4.39-.39.22.25.24.44-.18.43.17.46.53,0,.74-.25.13-.73.53-.85c.27.1.25.31.23.5,0,.5.26.59.67.62,1,.07,1.09,0,1.2-1,.05-.45-.12-1,.23-1.42.47.28.3.71.32,1.06s0,.64,0,1a.38.38,0,0,0,.22.39,1.6,1.6,0,0,0,1.6-.37c.15-.24.24-.6.57-.49.5.17-.07.55.11.85a23,23,0,0,1,2.71.21c.42.1.67-.16.72-.59,0-.16,0-.32,0-.47A.3.3,0,0,1,81,3.83a.26.26,0,0,1,.21.35,4.61,4.61,0,0,0-.13.46c0,.36.1.51.49.47A13.55,13.55,0,0,1,83,5a.41.41,0,0,1,.37.26.28.28,0,0,1-.19.38c-.48.13-.52.47-.38.83a23.5,23.5,0,0,1,.39,2.35,1.88,1.88,0,0,1-.14,1.45c-.57-.23-.55-.76-.56-1.18a15.47,15.47,0,0,0-.25-2.26c-.2-1.13-.17-1.13-1.35-1.1a2.13,2.13,0,0,0-.37.07,2.58,2.58,0,0,1,0,.46c0,.3.16.75-.26.81s-.44-.39-.45-.68c0-.64-.42-.67-.89-.67s-.63.1-.48.56c.25.75.32,1.55.5,2.32a16.59,16.59,0,0,1,.15,3,1,1,0,0,1,0,.35c-.06.2-.18.39-.4.37a.35.35,0,0,1-.3-.44,17.32,17.32,0,0,0,0-2.39,11.52,11.52,0,0,0-.49-2.93c-.06-.29-.12-.64-.46-.57s-1-.36-1.2.39c-.12.44-.28.35-.54.05-.52-.63-.75-.62-1.46,0-.23.2-.47.2-.58,0C73.53,6,73.22,6,72.91,6c-2.51.06-5,0-7.55,0a28.47,28.47,0,0,1-5.13-.22c-1.25-.21-2.54-.09-3.82-.29-1.84-.29-3.71-.45-5.56-.65a10.79,10.79,0,0,0-5.35.87c-.79.33-.8.53-.47,1.34s.57,1.57.86,2.39c.43-.14.85-.24,1.24-.41,1.49-.65,2.71-.05,3.87.8.18.13.42.33.22.59s-.44.1-.64-.05-.41-.38-.73-.34l0-.09s0,0,0,0l.11.1c.21.24.43.47.63.72.39.51.37.55-.43.75.07-.38-.16-.58-.45-.73l-.26-.25-.07-.07.1,0a.29.29,0,0,0,.25.25A.89.89,0,0,0,50.11,11.5Zm12-6.22a.27.27,0,0,0,0-.09l0,0,.08.09a2.16,2.16,0,0,0,1.71,0Zm-40.75,0H19.61c.56,0,1.16.37,1.69,0l.07,0s0,0,0,0ZM46.42,22.1c-.3-1.71-.21-3.91-.36-6.09a30.75,30.75,0,0,0-1.59-7.56A6.59,6.59,0,0,0,42.7,5.79a1.23,1.23,0,0,0-2,0A5.76,5.76,0,0,0,39.16,7.9a24.53,24.53,0,0,0-1.71,6.67c-.22,2.9-.34,5.81-.49,8.71-.05,1.12,0,1.13,1.13,1.4a16.7,16.7,0,0,0,6.53.17C46.47,24.57,46.46,24.53,46.42,22.1Zm-.1,3.29a13.18,13.18,0,0,1-4.64.57A13.57,13.57,0,0,1,37,25.39c-.33,1.87,0,2.41,1.4,2.81a16.35,16.35,0,0,0,5.45.26A5.05,5.05,0,0,0,45.47,28a1.39,1.39,0,0,0,1-1.45A2.18,2.18,0,0,0,46.32,25.39Zm-2.59,9.47c1.33-1.21,1.65-2,1.44-3.31a41.94,41.94,0,0,1-7,0c-.25,1.44.53,2.4,1.47,3.3C41.48,33.41,42,33.41,43.73,34.86ZM37.5,28.6a2.72,2.72,0,0,0,.07,1.45c.11.52.41.83.84.82,1.32,0,2.6.4,3.92.27a16.7,16.7,0,0,1,2-.23c1.52,0,1.36-.38,1.65-1.49a.94.94,0,0,0-.12-.82A14.06,14.06,0,0,1,37.5,28.6Zm4.22,10.66c.67,0,.91-.21.92-.78,0-.9-.28-1.29-1-1.28s-.94.42-.91,1.33C40.79,39.07,41,39.27,41.72,39.26Zm.86-2.64a2.41,2.41,0,0,0-.41-1.83.54.54,0,0,0-.94,0,2.18,2.18,0,0,0-.38,1.8A2.51,2.51,0,0,1,42.58,36.62Zm-1,3.21c-.47-.07-.67.15-.57.67.07.35.12.69.18,1s.23.38.5.38.41-.16.46-.43.12-.61.16-.92C42.42,39.88,42.37,39.83,41.62,39.83Zm-.35,3.52h0a1.92,1.92,0,0,1,0,.24c0,.34.07.52.45.52s.51-.12.48-.49,0-.56,0-.84-.2-.3-.42-.3-.41,0-.45.27A4,4,0,0,0,41.27,43.35ZM34.62,4.17c.28.18.61.06.91.15s.52,0,.57-.23-.28-.43-.54-.47C35.12,3.55,34.67,3.53,34.62,4.17Zm14.17,0c-.36-.59-.75-.72-1.28-.42-.14.08-.26.18-.2.36a.32.32,0,0,0,.35.25C48,4.24,48.44,4.37,48.79,4.16Zm-15.48.12c.27-.06.68.12.67-.4,0-.31-.22-.41-.47-.33s-.8-.18-.87.34S33,4.21,33.31,4.28Zm16.79,0c.26-.07.73.14.67-.38s-.57-.25-.86-.35a.33.33,0,0,0-.48.33C49.41,4.4,49.82,4.22,50.1,4.28ZM42.57,45.77c-.1-.71-.32-1-.93-1s-.71.35-.77.88A1.13,1.13,0,0,1,42.57,45.77ZM36.93,4.07a.26.26,0,0,0-.22.31c0,.51.52.35.8.49.12.06.37-.17.31-.39C37.73,4.11,37.41,4.08,36.93,4.07Zm9.77.17c-.08-.18-.31-.18-.54-.16s-.56.11-.57.44.16.44.45.31S46.72,4.83,46.7,4.24Zm-14.9,0,0-.26a1.21,1.21,0,0,0-1.51.5Zm21.54.21a1.62,1.62,0,0,0-2-.34A5.73,5.73,0,0,0,53.34,4.4Zm-15,.39c.15.62.58.79.86,1.12C39.54,5.22,39.54,5.22,38.32,4.79Zm6,1.18c.13-.46.8-.52.69-1.16C43.86,5.25,43.86,5.25,44.29,6Zm22.37-.66a5.81,5.81,0,0,0-1.92.09A4.76,4.76,0,0,0,66.66,5.31Zm-47.94.07a4.24,4.24,0,0,0-1.91,0A5.28,5.28,0,0,0,18.72,5.38Zm10.7-1c-.43,0-.79-.1-1.09.35A1.62,1.62,0,0,0,29.42,4.35ZM55,4.63a.55.55,0,0,0-.47-.3c-.16,0-.34-.08-.49.12C54.4,4.53,54.66,4.85,55,4.63Zm-27.64,0c-.32,0-.73-.2-1,.25A.8.8,0,0,0,27.39,4.63Zm28.47,0c.46.23.75.52,1.12.16C56.67,4.51,56.34,4.54,55.86,4.64Zm-30.43.24A1.25,1.25,0,0,0,24.37,5C24.83,5.34,25.11,5,25.43,4.88ZM59.09,5a1.93,1.93,0,0,0-1.39-.08C58.27,5,58.56,5.28,59.09,5Zm-35.57.21a1.6,1.6,0,0,0-1.27,0Zm36.35-.11a1.67,1.67,0,0,0,1.28,0,2.08,2.08,0,0,0-.7-.06ZM43.74,51l.06-.07a.16.16,0,0,0,0-.12c0-.07-.1,0-.1.08A.34.34,0,0,0,43.74,51Zm-4-.14,0-.11a.46.46,0,0,0-.07.1c0,.11,0,.16.08.12S39.71,50.86,39.72,50.82Zm3.38-3.49L43,47.12s-.07.06-.07.09,0,.13.06.2Zm-2.64-.11-.06-.1a.84.84,0,0,0-.08.2s0,.06.06.09A1.54,1.54,0,0,1,40.46,47.22Zm.22-.55-.07-.05v.08Zm2.11-.06,0,.07h.08ZM40.14,47.9l0-.06h-.06Zm3.17,0-.05,0v.06Zm-4.13,2,0-.06h-.06Zm5,0,0,0v-.07Z"/><path d="M42.19,6.86c0,.33-.23.49-.47.48a.44.44,0,1,1,0-.88A.49.49,0,0,1,42.19,6.86Z"/></g></g></svg>