<svg xmlns="http://www.w3.org/2000/svg" viewBox="0 0 40.88 110.29"><title>Salp</title><g id="Layer_2" data-name="Layer 2"><g id="Salp"><path d="M0,32.72a6.73,6.73,0,0,0,.39-2.43A46.42,46.42,0,0,1,2.45,22a41.25,41.25,0,0,1,2.09-4.41,7.5,7.5,0,0,0,1-4,12.24,12.24,0,0,0-.62-2.66A20.43,20.43,0,0,1,4,7.43c-.14-1.1.27-1.75,1.38-1.85l1.54-.15a6.43,6.43,0,0,0,3.19-1.21,2.07,2.07,0,0,0,.62-.52A4.33,4.33,0,0,1,13,2.06c1.28-.43,2.52-1,3.79-1.42A10.26,10.26,0,0,1,24,.64c1.28.45,2.51,1,3.8,1.41a4.6,4.6,0,0,1,2.17,1.44,5.21,5.21,0,0,0,3,1.79,6.75,6.75,0,0,0,2.25.28A1.71,1.71,0,0,1,36.48,6a1,1,0,0,1,.4,1.15,29.41,29.41,0,0,1-1,3.79,11.79,11.79,0,0,0-.58,2.43,7.08,7.08,0,0,0,.74,3.7,21.17,21.17,0,0,0,1,2,31.11,31.11,0,0,1,3.09,9.23,51.43,51.43,0,0,1,.68,13,43.67,43.67,0,0,1-4.13,16.44A44.82,44.82,0,0,0,35,62a2.65,2.65,0,0,0,.36,2.6,11.59,11.59,0,0,1,2,4.42,16.16,16.16,0,0,1,.13,2.86.56.56,0,0,1-.42.64c-.36.06-.47-.29-.52-.54a10,10,0,0,0-2.09-4.12,8.11,8.11,0,0,0-1.05-1.14c-.28-.24-.59-.26-.73.21a3.06,3.06,0,0,0-.22.8,16.62,16.62,0,0,0,2.17,9.63,15,15,0,0,1,1.58,12c-.59,2.15-.74,4.38-1.12,6.57a27.83,27.83,0,0,0-.21,5.62,20.4,20.4,0,0,0,.9,6.24,8,8,0,0,0,.87,1.81c.14.21.22.47,0,.64a.47.47,0,0,1-.64-.12,2.59,2.59,0,0,1-.43-.57,36.79,36.79,0,0,1-2.95-7.65,33.26,33.26,0,0,1-.66-5.44c-.08-2.36.11-4.72,0-7.08a23.07,23.07,0,0,0-1.1-5.48A4.44,4.44,0,0,0,29.73,82a12.21,12.21,0,0,1-2.65-4.62,7,7,0,0,0-1-1.76,1.78,1.78,0,0,0-3-.24,4,4,0,0,0-1,2c-.34,1.47-.65,2.95-1,4.41-.11.46-.13,1.07-.76,1s-.62-.61-.73-1.08c-.31-1.43-.63-2.87-1-4.3a4.21,4.21,0,0,0-1-2,1.83,1.83,0,0,0-3.1.31,12.59,12.59,0,0,0-1.4,2.88,6.91,6.91,0,0,1-1.55,2.66A9.27,9.27,0,0,0,9.4,85.85,22.45,22.45,0,0,0,8.86,92a47,47,0,0,1-.22,7.78,23,23,0,0,1-1.78,6.28c-.47,1.1-1,2.17-1.48,3.26a2,2,0,0,1-.63.84.42.42,0,0,1-.55,0,.36.36,0,0,1,0-.53,10.37,10.37,0,0,0,1.11-2.5A16.5,16.5,0,0,0,5.88,103a32.18,32.18,0,0,0-.07-6.58c-.31-2.32-.58-4.66-1.11-6.94a18,18,0,0,1-.63-5.2,11.6,11.6,0,0,1,1-4.51c.56-1.18,1.17-2.34,1.73-3.52a16.76,16.76,0,0,0,1.58-8.6.85.85,0,0,0,0-.23c-.12-.29-.11-.69-.41-.82s-.65.2-.89.45a11.82,11.82,0,0,0-2.69,4.47c0,.11,0,.24,0,.35-.11.29-.17.7-.59.61s-.36-.37-.39-.67a10.19,10.19,0,0,1,1.32-6,10.73,10.73,0,0,1,.78-1.2,2.76,2.76,0,0,0,.35-2.82c-.76-2-1.63-4-2.47-6.07A41.6,41.6,0,0,1,.4,45.12a10.81,10.81,0,0,0-.4-3ZM29.51,4.4c.08,0,.08.06,0,.06s0,.08,0-.06-.09-.23-.25-.22c0-.17-.05-.26-.24-.23,0-.19-.06-.25-.23-.25a.66.66,0,0,0-.7-.49C28,3,27.79,3,27.59,3A35,35,0,0,0,23,1.18,8.58,8.58,0,0,0,18.64,1a29.35,29.35,0,0,0-5.43,2c-.19,0-.41,0-.49.23a.66.66,0,0,0-.7.49c-.17,0-.27.06-.23.25-.19,0-.25.06-.24.24-.15,0-.23.07-.27.21s0,.08-.06,0l.06,0a.28.28,0,0,0,.25-.22.3.3,0,0,0,.24-.23A.29.29,0,0,0,12,3.68c.3-.07.59-.15.7-.5.2,0,.43.06.49-.23a15.79,15.79,0,0,0,4.11-1,9.79,9.79,0,0,1,3.22-.67,10.75,10.75,0,0,1,3,.67,15.38,15.38,0,0,0,4.11,1c.06.31.29.25.5.24.1.35.39.44.69.49a.27.27,0,0,0,.24.25.28.28,0,0,0,.24.23A.3.3,0,0,0,29.51,4.4ZM26.9,66.11l-.73,0L26,65.94s-.06,0-.08,0l.25.09a1.62,1.62,0,0,1,.25,1L26.11,67c-.1,0-.23-.12-.27,0s.07.14.13.19c.21.2.33,0,.44-.14a1.67,1.67,0,0,0,.46-1,.38.38,0,0,0,.1-.65s-.1,0-.11,0c-.2.2.14.37.05.57C26.89,66,26.9,66.08,26.9,66.11Zm-13,0a.54.54,0,0,0,0-.22c-.05-.17.28-.29,0-.46,0,0-.08,0-.11,0-.18.14-.14.33-.06.5s.11.1.16.14a1.67,1.67,0,0,0,.46,1c0,.06.08.14.15.18s.26,0,.36-.14.1-.16,0-.17a.82.82,0,0,0-.33.07l-.22.1a1.59,1.59,0,0,1,.25-1l.26-.1s-.08,0-.09,0l-.15.15ZM29.53,20.75a1.3,1.3,0,0,0-1.1.33,12.39,12.39,0,0,0-2.61,3.39,44.9,44.9,0,0,0,3.69-3.74l0,0Zm-18.25,0,0-.06.06.05c.59.64,1.18,1.3,1.79,1.92s1,1.52,2.16,1.91a25.61,25.61,0,0,0-2.68-3.32A1.66,1.66,0,0,0,11.28,20.74ZM19.68,62c.6.42.65.82.13.87s-.24.41-.36.59-.28,0-.3.15l.3.07v.5l-.06,0,0,0c.28,0,.66,0,.37.43-.12.17-.94.19,0,.33a.38.38,0,0,1,.26.56c-.15.36-.37.36-.64.14-.08,0,.06-.33-.17-.18-.07,0,.07.17.2.15a5.61,5.61,0,0,1-.06.59c0,.17-.2.32.14.38.53.08.44.31.1.58a2.39,2.39,0,0,0-.33.48c.32.2.41.65.85.75s.84-.23,1.15-.59,0-.49-.18-.63c-.32-.29-.42-.51.11-.59.34-.06.18-.2.14-.38a5.61,5.61,0,0,1-.06-.59c.13,0,.22,0,.21-.16s0-.06-.06-.09l-.12.28c-.27.21-.5.23-.63-.14s0-.51.36-.58c.55-.11.22-.09,0-.27-.48-.39-.11-.46.26-.47l.06.06-.08,0,0-.51a1.32,1.32,0,0,0,.3-.07c0-.19-.19-.1-.3-.15s.25-.53-.36-.59-.47-.46.12-.85l.05,0-.07,0c0-.2-.26-.17-.32-.27-.27-.42-.47-.42-.74,0-.06.1-.3.07-.34.26l-.06,0Zm11.54-33.8a4.83,4.83,0,0,0-2,.57,17.86,17.86,0,0,1-7.08,1.83c-.5,0-.61.29-.58.7.12,1.67-.2,3.34-.14,5,0,.94,0,1,.91.94,2-.07,4.05-.2,6.07-.42a24.21,24.21,0,0,0,5.54-1.26A5.92,5.92,0,0,0,36.65,34c-.24-.35-.58-.32-.89-.33A9.66,9.66,0,0,1,34,33.65c-2-.44-4,.05-6.06.19a23.48,23.48,0,0,0-4.54.87c-.2.06-.4.12-.53-.09s0-.37.06-.57c.13-.41.51-.5.82-.6a34.6,34.6,0,0,0,8.14-4.17A10.34,10.34,0,0,1,35,27.81a1.8,1.8,0,0,0-2,0,23,23,0,0,1-4.91,3c-1.09.47-2.19.92-3.29,1.36-.74.29-1.49.54-2.24.78-.22.07-.54.13-.64-.14s.23-.35.43-.43c1-.38,2-.73,3-1.14a20.26,20.26,0,0,0,5.87-3.09c0-.06.25,0,.1-.15Zm-21.64,0c0-.06,0-.25-.15-.12l.18.09a13.26,13.26,0,0,0,3.45,2.09c1.69.69,3.4,1.31,5.08,2,.28.11.91.06.75.55s-.62.17-1,.06a5.27,5.27,0,0,1-.56-.19c-1.54-.62-3.08-1.26-4.63-1.85A24,24,0,0,1,8.05,28a2.16,2.16,0,0,0-2.33-.27,13.37,13.37,0,0,1,3.82,1.89,32.82,32.82,0,0,0,5.42,3c.73.31,1.49.54,2.22.85.23.1.55.13.66.45s.26.44.12.67-.42.13-.63.07a53.56,53.56,0,0,0-6.69-1.07c-2-.22-4,.19-5.95.13a.58.58,0,0,0-.52.27,1.64,1.64,0,0,0,.87.75,15.89,15.89,0,0,0,3.31,1.29,30.16,30.16,0,0,0,4.2.79c2,.24,4,.33,6.06.42.52,0,.78-.09.8-.71.08-1.8-.25-3.59-.14-5.38,0-.39-.17-.58-.57-.58a9.72,9.72,0,0,1-1.43-.06,20.8,20.8,0,0,1-5-1.5A6.71,6.71,0,0,0,9.58,28.19Zm17.31-6.48c-1.29.35-2.75.3-3.55,1.7a2.15,2.15,0,0,1-.85.64c-.4.24-1,.34-1.21.68s0,.91.09,1.38a7.45,7.45,0,0,0,.14,2c1.16-.2,2.26-.35,3.35-.58A41.41,41.41,0,0,0,30,25.79a9.29,9.29,0,0,1,4.3-.6c2,.24,1.79.27,1.39-1.49a9.81,9.81,0,0,0-.25-1,13.23,13.23,0,0,0-1.78-3.79,11.78,11.78,0,0,0-2.55,1.23,17.86,17.86,0,0,0-2.53,2.54A14.11,14.11,0,0,1,26.36,25c-.33.27-.75.47-1.17.07s-.27-.74,0-1.14c.56-.71,1.09-1.46,1.63-2.19l.07-.08Zm-13,0-.07-.08.09.05,1.78,2.39a.62.62,0,0,1,0,.87.71.71,0,0,1-1,.19,3.55,3.55,0,0,1-.67-.48c-.69-.72-1.39-1.43-2-2.19a9.22,9.22,0,0,0-5-3.53,10.83,10.83,0,0,0-.82,1.41,19.83,19.83,0,0,0-1.34,4.05c-.19.8-.12.84.73.88a19.86,19.86,0,0,1,2.13-.2,15.24,15.24,0,0,1,3.23.79A25,25,0,0,0,19.37,28a17,17,0,0,1,.27-3.33c-1.16-.53-2.33-1-2.91-2.19a.5.5,0,0,0-.39-.24C15.49,22.25,14.76,21.73,13.92,21.71ZM36.49,69.42a.19.19,0,0,1,0,.1c0,.12.05.15.06.09s-.09-.11-.14-.17a5.57,5.57,0,0,0-.1-.82,9.42,9.42,0,0,0-1.62-3.43,3.39,3.39,0,0,1-.54-3.47c.26-.66.45-1.36.73-2q1.16-2.68,2.24-5.4A43.61,43.61,0,0,0,40,39.51a47.54,47.54,0,0,0-.68-10.72,31.49,31.49,0,0,0-3-9.23c-.35-.63-.65-1.28-.94-1.94a7.71,7.71,0,0,1-.78-5.08c.19-.72.43-1.44.64-2.16a20.89,20.89,0,0,0,.75-3c.09-.72,0-.79-.72-.92a16.55,16.55,0,0,1-3.93-.87c-.23-.11-.43-.38-.74-.19a2.71,2.71,0,0,0,1.56,1.86c.46.24.9.5,1.37.71a1.29,1.29,0,0,1,.81,1.1,4.25,4.25,0,0,1-.25,2.34,11,11,0,0,0-.79,2.48,3,3,0,0,0,.62,2.89c.27.3.57.66.42,1.06-.23.57.12.92.35,1.31s.44.84.65,1.27c1,2,1.08,4.29,2.07,6.29.24.5-.12,1.06,0,1.62a11.54,11.54,0,0,1,.28,3.32,3.28,3.28,0,0,0,.41,1.84.93.93,0,0,1,.08.89c-.72,2-.47,4.16-.51,6.26a1.93,1.93,0,0,0,0,.24,1.18,1.18,0,0,0,.09.69,2.5,2.5,0,0,1,.12,1.76c-.38,1.8-.5,3.62-.72,5.42a21.05,21.05,0,0,0-.2,2.49,1.35,1.35,0,0,1-.43,1,3.38,3.38,0,0,0-.76,1.95,8.63,8.63,0,0,1-1.22,3.69c-.13.2-.3.39-.26.65a2.18,2.18,0,0,1-.83,2.11,1.27,1.27,0,0,0-.34.61A12.19,12.19,0,0,1,32,63.58a16.17,16.17,0,0,0-2.16,5.63c-.23,1.54-.24,3,1.31,4,.68.45.67.93.26,1.66a2.8,2.8,0,0,1-.86.82c-.9.68-1.29.65-2-.16-.19-.2-.35-.43-.53-.64-.75-.88-1.46-1.8-2.25-2.64a1.17,1.17,0,0,0-2.08.28,9.86,9.86,0,0,1-.7,1.11,3.19,3.19,0,0,1-3.5,1.11c-1.24-.3-1.78-1.25-2.35-2.2s-1.31-1.08-2.09-.31c-.45.45-.85,1-1.26,1.44L12,75.83a1,1,0,0,1-1.3.23,5,5,0,0,1-1.06-.76,1.26,1.26,0,0,1,.14-2.19A2.89,2.89,0,0,0,11,71.24a5.1,5.1,0,0,0,0-2,13.83,13.83,0,0,0-1.75-4.78C8.28,63,7.9,61.3,6.77,60a1.45,1.45,0,0,1-.3-1.24,1.11,1.11,0,0,0-.24-.89A8.25,8.25,0,0,1,5,54.27a3.51,3.51,0,0,0-.78-2.07,1.2,1.2,0,0,1-.41-1A13.2,13.2,0,0,0,3.54,48c-.12-1.07-.16-2.14-.36-3.2a6.29,6.29,0,0,1-.27-2.94,5.84,5.84,0,0,0,.19-1.75c0-1.08,0-2.16,0-3.24a3.87,3.87,0,0,0-.25-1.38,2.46,2.46,0,0,1,0-2.38,2.17,2.17,0,0,0,.25-1.27,15.83,15.83,0,0,1,.26-3.57,1.14,1.14,0,0,0,.07-.8,1.83,1.83,0,0,1,.29-1.59,6.56,6.56,0,0,0,.6-1.78A17,17,0,0,1,6,19.34a2,2,0,0,0,.46-1.63c-.1-.37.19-.68.44-.94a2.83,2.83,0,0,0,.69-2.43,8.52,8.52,0,0,0-.73-2.62,4.74,4.74,0,0,1-.43-2.19,1.71,1.71,0,0,1,1-1.71q.86-.42,1.68-.9a2.28,2.28,0,0,0,1.06-1.75,7.62,7.62,0,0,1-3.19,1c-.55.06-1.1.15-1.65.23s-.66.26-.58.72c0,.24.06.48.1.71a34.22,34.22,0,0,0,1,3.43,7.84,7.84,0,0,1,.39,3.87,16.75,16.75,0,0,1-1,2.9c-.63,1.45-1.4,2.83-2,4.32A38.08,38.08,0,0,0,.81,34.48a55.87,55.87,0,0,0,.62,11.69,40.93,40.93,0,0,0,2.81,9.57c.86,2,1.78,4.07,2.45,6.2a3.21,3.21,0,0,1-.43,3,15.09,15.09,0,0,0-1,1.62,6.85,6.85,0,0,0-.92,2.93l-.09.19.07-.22c.26-.09.28-.36.4-.55a17.39,17.39,0,0,1,1.84-2.51,1.55,1.55,0,0,1,1.62-.51c.61.17.77.76.94,1.29a2.52,2.52,0,0,1,.05.48,12.4,12.4,0,0,1-.26,4.62,19.12,19.12,0,0,1-2,5.68A11.82,11.82,0,0,0,5,84.34c0,.68-.18,1.34-.08,2,.35,2.23,1,4.41,1.28,6.66a37.59,37.59,0,0,1,.59,5.09c0,1.87,0,3.75,0,5.63a9,9,0,0,0,.68-1.87A30.83,30.83,0,0,0,8,97.39a14.25,14.25,0,0,0,.05-3,26.52,26.52,0,0,1,.62-9.14A9.31,9.31,0,0,1,11,80.76a5.68,5.68,0,0,0,1.23-2,22.42,22.42,0,0,1,.89-2.08A8.16,8.16,0,0,1,15,73.94a2.27,2.27,0,0,1,1.61-.68c.15,0,.32,0,.35.24s-.38.18-.42.42c1.4.3,2.3,1.19,2.86,3.2.35,1.23.6,2.48.9,3.73.25-1.31.71-2.52,1-3.77a3.77,3.77,0,0,1,2.93-3.17c-.19-.17-.56-.13-.49-.45s.31-.21.5-.2a2.38,2.38,0,0,1,1.48.71,8.2,8.2,0,0,1,1.93,2.83,15.17,15.17,0,0,0,2.78,4.83,6.16,6.16,0,0,1,1.39,2.74,24.25,24.25,0,0,1,.94,8.75,33.07,33.07,0,0,0,.09,6A16.24,16.24,0,0,0,34.06,104V102.7a44.72,44.72,0,0,1,.24-7.41,59.52,59.52,0,0,1,1.1-6.22,14.54,14.54,0,0,0,.06-7.55,14.79,14.79,0,0,0-1.73-4,18.13,18.13,0,0,1-2.21-8.69,4.41,4.41,0,0,1,.38-2.22,1.26,1.26,0,0,1,2-.53A4.23,4.23,0,0,1,35,67.17ZM29.84,8.33a2.92,2.92,0,0,0,.06,1.16,23.08,23.08,0,0,1,.63,4c0,2-1.11,3.24-2.38,4.47-.12.12-.28.2-.43.09s-.11-.36,0-.5a12.79,12.79,0,0,0,1.56-2,3.7,3.7,0,0,0,.58-2.84A27,27,0,0,1,29.21,8a10.21,10.21,0,0,1-2.39-.35c-1.51-.49-3-1-4.53-1.43-1.18-.34-1.39-.15-1.39,1,0,.2,0,.4,0,.6a2.92,2.92,0,0,0,.75,2.53.79.79,0,0,1-.12,1.26,2,2,0,0,0-.7,2.44,5.31,5.31,0,0,1,.06,1.2c0,.38-.05.77.31,1.1a.85.85,0,0,1,.09,1.11c-.55.6-.37,1.36-.57,2s0,.73.67.75a10.83,10.83,0,0,0,3.24-.68,71.61,71.61,0,0,0,7.62-3.05c.35-.15.46-.29.4-.69a8.17,8.17,0,0,1,.74-4.54,7.75,7.75,0,0,0,.35-1.13,1.46,1.46,0,0,0-.84-1.76A9.89,9.89,0,0,1,30.68,7c-.45-.42-.46.14-.67.44.6,0,.85.66,1.24.74,1,.22,1.24,1,1.68,1.66.11.16.3.34.07.51s-.48.05-.57-.2a2,2,0,0,0-2-1.37C30.2,8.74,30.05,8.57,29.84,8.33ZM11.52,7.92c.21,1.68-.39,3.15-.6,4.68a4,4,0,0,0,.61,3.06,13.41,13.41,0,0,0,1.57,1.95.27.27,0,0,1-.34.41c-1.21-1.11-2.38-2.25-2.46-4a12.82,12.82,0,0,1,.38-3.54,3.52,3.52,0,0,0,.24-2.13c-.2.49-.59.47-.93.49-.71,0-1.07.57-1.5,1-.1.1-.08.31-.17.44a.36.36,0,0,1-.52.11c-.19-.12-.07-.27,0-.41.54-1.36,1.85-1.84,2.94-2.59-.13-.3-.21-.77-.69-.3A5.45,5.45,0,0,1,8.66,8c-1.84,1-2,1.37-1.21,3.37.07.18.16.36.22.55a7.39,7.39,0,0,1,.53,2.67c0,.59-.21,1.31.06,1.72s1,.53,1.58.76a45.94,45.94,0,0,0,8.37,3,4,4,0,0,0,1.92,0c-.28-.9,0-1.86-.63-2.65a.83.83,0,0,1,0-1c.46-.43.35-.94.39-1.44A5.8,5.8,0,0,1,20,13.69a1.71,1.71,0,0,0-.58-1.92c-.73-.63-.71-.88-.06-1.7a2.08,2.08,0,0,0,.51-1.41c0-.64,0-1.28,0-1.92s-.19-.71-.7-.65a3.8,3.8,0,0,0-.93.17c-1,.35-2,.63-2.93,1A11,11,0,0,1,11.52,7.92ZM6.7,43.34a1.5,1.5,0,0,0,.21.12,33.69,33.69,0,0,0,12,1.49c.36,0,.48-.2.47-.54a26.25,26.25,0,0,0-.14-4.06c-.16-.87-.13-.87-1-.89H18A31.48,31.48,0,0,1,6.57,37.63l-2.91-1c-.16,1.45.3,2.78.22,4.14,0,.42.41.56,1,.39a58.81,58.81,0,0,1,7.41-1.68,2.41,2.41,0,0,1,.71,0,.22.22,0,0,1,.22.24c0,.11-.06.27-.13.3a1.39,1.39,0,0,1-.56.16A37.28,37.28,0,0,0,5.87,41.5a2.64,2.64,0,0,0-1.54.7c.39.23.77.43,1.13.65a.46.46,0,0,0,.54,0A26.54,26.54,0,0,1,12.59,41a28.6,28.6,0,0,1,4.61-.56,3.35,3.35,0,0,1,.71,0,.3.3,0,0,1,.27.33A.42.42,0,0,1,18,41a2,2,0,0,1-.59.09,20.83,20.83,0,0,0-4.85.52A24,24,0,0,0,6.7,43.34ZM37,36.6c-1.12.42-2.21.85-3.34,1.22a31.65,31.65,0,0,1-9.93,1.64H22.08c-.35,0-.46.15-.52.49a26.57,26.57,0,0,0-.15,4.18c0,.79,0,.79.8.81a37.32,37.32,0,0,0,8-.52,15.87,15.87,0,0,0,3.83-1c-.1-.13-.14-.22-.21-.24a30.74,30.74,0,0,0-9.84-2c-.32,0-.64,0-1-.06s-.41-.14-.38-.37.25-.3.46-.31h.6a24.68,24.68,0,0,1,4,.49,26.23,26.23,0,0,1,6.74,1.85,1.12,1.12,0,0,0,1.29-.07c.23-.17.55-.22.74-.56a8.11,8.11,0,0,0-1.94-.7,35.68,35.68,0,0,0-6.4-1.25c-.24,0-.51-.08-.51-.38s.28-.33.52-.33a2.42,2.42,0,0,1,.47,0A60.61,60.61,0,0,1,36,41.14c.64.2.91,0,.93-.7a17.48,17.48,0,0,1,.18-2.39A2.28,2.28,0,0,0,37,36.6ZM22.65,67.83c1.14-.4,1.27-.48,1.32-1a24.17,24.17,0,0,0-.27-7.73,6.06,6.06,0,0,0-2.49-4.16c0,.53,0,.53.49.93a2.63,2.63,0,0,1,.72,2.92,2.35,2.35,0,0,1-2.8,1.05,2,2,0,0,1-1.4-1.62,2.5,2.5,0,0,1,1-2.42c.29-.22.61-.42.37-.86a5.07,5.07,0,0,0-2.17,3,19.42,19.42,0,0,0-.75,6.48c.05.56.11,1.12.14,1.67.05,1.27,0,1.27,1.42,1.74v-3.5a7.82,7.82,0,0,1,.53-2.8,1.78,1.78,0,0,1,1.65-1.36c.88,0,1.32.66,1.67,1.36a2.29,2.29,0,0,1,.18.56,13,13,0,0,1,.34,2.48A21.91,21.91,0,0,0,22.65,67.83Zm7.61,5.69a4.42,4.42,0,0,1-1.2-3.27,18.47,18.47,0,0,1,.57-2.91,25.34,25.34,0,0,1,2.14-4.64,6.11,6.11,0,0,0,.84-2.08c-.46,0-.81-.22-1.16.2a28.71,28.71,0,0,0-3.76,5.29A7.32,7.32,0,0,1,25,69.35c-.52.32-.51.86-.69,1.32a.27.27,0,0,0,.27.41c1.24,0,1.87.88,2.55,1.73a11.28,11.28,0,0,0,1.68,2ZM8.17,60.72a8.42,8.42,0,0,0,.9,2.06,19.61,19.61,0,0,1,2.11,4.64c.34,1.41.85,2.82.37,4.31a7.08,7.08,0,0,1-.93,1.68L12,74.8a9.9,9.9,0,0,0,1.65-2A3.63,3.63,0,0,1,16.56,71c-.15-.7-.19-1.33-.82-1.72a6.64,6.64,0,0,1-2.57-3A7.3,7.3,0,0,0,12,64.11c-.9-.92-1.5-2.06-2.38-3C9.13,60.64,8.79,60.44,8.17,60.72ZM20.4,22.16a20.87,20.87,0,0,0,5.46-.91c2.24-.68,4.36-1.7,6.54-2.54a4.74,4.74,0,0,0,.94-.51c.36-.26.32-.57.1-.94s-.43-.36-.78-.2c-1.16.52-2.33,1-3.5,1.51A29.07,29.07,0,0,1,21.24,21c-.58.06-.45.66-.8.69s-.32-.64-.92-.7a22.44,22.44,0,0,1-6.16-1.68Q10.72,18.17,8.1,17c-.29-.12-.49-.19-.69.15s-.36.62,0,1a2.59,2.59,0,0,0,.93.52c1.57.66,3.14,1.33,4.73,1.94A22.54,22.54,0,0,0,20.4,22.16Zm-16,27.45c.17,0,.51-.19.48-.23-.4-.47.3-1-.06-1.44-.14-.17-.11-.54.19-.56s.43.32.41.59-.23.32-.09.54.26.62.78.43A32,32,0,0,1,17.88,47.3c.27,0,.78-.12.77.3s-.5.26-.77.25a41.58,41.58,0,0,0-8.18.76,13.12,13.12,0,0,0-4.6,1.55,3.79,3.79,0,0,0,1.26.24c1.44-.29,2.92-.29,4.36-.59a27.51,27.51,0,0,1,7.17-1.06c.38,0,.83.15,1.16-.11s0-.7.22-1c.08-.13.19-.27,0-.45H16.07a54.16,54.16,0,0,1-5.82-.49,16,16,0,0,1-6.47-1.9C4.24,46.46,4,48.06,4.43,49.61Zm31.29.51a21.87,21.87,0,0,0-7.79-2,30,30,0,0,0-5-.28c-.26,0-.76.2-.76-.26s.5-.3.78-.29a50.06,50.06,0,0,1,5.6.24,35.66,35.66,0,0,1,5.8,1.25c1,.33,1,.35,1-.82a1,1,0,0,1,.09-.33c.06-.14.13-.3.32-.28s.31.27.24.34c-.42.48.15,1-.06,1.44s.25.35.45.45c.38-1.55.24-3.15.62-4.89a6.36,6.36,0,0,1-2.52,1.22,32.87,32.87,0,0,1-4.07.79,49.4,49.4,0,0,1-8.33.44c-.23,0-.48-.08-.66.18a4.27,4.27,0,0,1,.18.54c.18.88.17.87,1.09.89a21.13,21.13,0,0,1,2.87.11c2.26.4,4.47,1.08,6.76,1.29A6.76,6.76,0,0,0,35.72,50.12ZM34,57.56a11.62,11.62,0,0,0,1.41-4.84H33.33c-2.8,0-5.49-.78-8.23-1.17a9.77,9.77,0,0,0-3.61-.22c.87.32,1.16,1.08,1.93,1.08A6.3,6.3,0,0,1,25.6,53a36.71,36.71,0,0,1,7.24,3.71c.29-.65.55-1.26.85-1.86a.34.34,0,0,1,.49-.19c.16.09.15.26.09.42a11.49,11.49,0,0,1-.67,1.52C33.29,57,33.5,57.26,34,57.56ZM8,56.62A32.7,32.7,0,0,1,12.8,54a13.63,13.63,0,0,1,4.12-1.5,4,4,0,0,0,2.22-1.22,20.55,20.55,0,0,0-5,.56,50,50,0,0,1-6.46.92,8.5,8.5,0,0,0-2.31,0c.31,1.69.44,3.38,1.44,4.8.49-.29.66-.53.37-1a10.37,10.37,0,0,1-.7-1.64.33.33,0,0,1,.13-.29.4.4,0,0,1,.32,0c.19.1.21.32.3.49A6.24,6.24,0,0,0,8,56.62ZM29.61,5.81a4.7,4.7,0,0,0-2.8-2.26c-1.56-.42-3.09-.94-4.65-1.37a6.72,6.72,0,0,0-3.42,0c-1.76.44-3.49,1-5.22,1.56a4,4,0,0,0-2.26,2.08,7.26,7.26,0,0,0,2.23-.33A15.67,15.67,0,0,0,17,4.29c1.09-.51,2.33-.37,3.38-1,.49.53,1.19.28,1.78.43,1.16.3,2.25.78,3.37,1.16A15,15,0,0,0,29.61,5.81Zm7.5,27.51a16.78,16.78,0,0,0-.2-4.4c-.09-.69-.4-.86-1.09-.68a14,14,0,0,0-4,1.83A36.07,36.07,0,0,1,26.78,33a1.14,1.14,0,0,0-.7.51,26.92,26.92,0,0,1,5.48-.53A25,25,0,0,1,37.11,33.32Zm-22.35,0a52.84,52.84,0,0,1-6.71-3.83,12.11,12.11,0,0,0-3-1.23C4.21,28,4,28.2,3.87,29.15c0,.4-.12.78-.17,1.17a10.65,10.65,0,0,0,0,2.93A38.65,38.65,0,0,1,14.76,33.35ZM19,54.6c-1.43-.62-6.17,1.25-8.93,3.54a15.52,15.52,0,0,0,3.73-1.06c.44-.19.88-.39,1.32-.56a.7.7,0,0,1,.78.15.63.63,0,0,1,.12.77,3,3,0,0,1-1,1.31,13.18,13.18,0,0,1-3.14,1.39c-.61.2-1.34,0-1.9.53a5.62,5.62,0,0,1,1,1.12c.31.36.45.86.92,1.08.1-.26.2-.51.29-.76s.17-.39.41-.31.19.23.18.39a7.73,7.73,0,0,0-.06,1,1.59,1.59,0,0,0,.16.95c.29-1.78,1-2.56,2.7-2.84a.71.71,0,0,0,.63-.6,5.36,5.36,0,0,0,.1-.7C16.65,57.9,17.09,55.88,19,54.6Zm9,9.64c0-.58,0-.9.08-1.22s-.31-1.07.12-1.17.43.68.71,1c.78-.63,1.1-1.61,1.86-2.23a1.17,1.17,0,0,0-.83-.32,11,11,0,0,1-4.09-1.52,3,3,0,0,1-1.05-1.27.71.71,0,0,1,.07-.88.74.74,0,0,1,.88-.11c.22.1.44.21.66.3a16.18,16.18,0,0,0,4.2,1.25.8.8,0,0,0-.43-.42A33.36,33.36,0,0,0,24.92,55a5,5,0,0,0-3.15-.55c.28.64,1,.82,1.31,1.38a10.34,10.34,0,0,1,1.42,4.36c.11.88.18,1,1.06,1.09a2.41,2.41,0,0,1,1,.42A3.58,3.58,0,0,1,28,64.24ZM21.47,28.71c-.15.38,0,.63.07.9a.45.45,0,0,0,.59.42,25.32,25.32,0,0,0,4-.77c1.75-.64,3.44-1.45,5.25-1.93a8.63,8.63,0,0,1,5.25,0c.08-1,0-1.08-.88-1.3a9.57,9.57,0,0,0-6.06.61A26,26,0,0,1,21.47,28.71ZM4.15,27.35a7.45,7.45,0,0,1,2-.43,12.34,12.34,0,0,1,4.09.66c1.52.47,3,1.16,4.45,1.69a24.38,24.38,0,0,0,4,.75c.41.08.65-.28.71-.89s-.33-.42-.63-.47c-.83-.12-1.65-.25-2.47-.4a33.65,33.65,0,0,1-5.86-1.89A9,9,0,0,0,5.05,26C4.25,26.22,4.17,26.33,4.15,27.35Zm.31,23.47c.21,1.08.39,1.25,1.31,1.31a18.06,18.06,0,0,0,4.76-.29c2.68-.53,5.37-1,8.08-1.36.36,0,.61-.06.59-.53s-.19-.62-.64-.65a16.72,16.72,0,0,0-3.81.32c-2.18.36-4.3,1-6.53,1.2A13.92,13.92,0,0,1,4.46,50.82Zm32-.11a9.89,9.89,0,0,1-1.18.29,21.37,21.37,0,0,1-4.16-.34c-1.68-.22-3.32-.74-5-1a16.3,16.3,0,0,0-3.69-.33c-.38,0-.8-.09-.85.55s.32.56.73.63c2.12.33,4.24.59,6.34,1a22.28,22.28,0,0,0,6.15.61C35.91,52.08,36,52,36.47,50.71ZM3.52,42.54a2.08,2.08,0,0,0,1,1.85,7.77,7.77,0,0,0,2.4,1,31.71,31.71,0,0,0,5,.82,40.79,40.79,0,0,0,6.9.21c.24,0,.51,0,.51-.35s-.33-.36-.59-.37c-1.55-.09-3.1-.16-4.66-.24a34.21,34.21,0,0,1-4.82-.64A16.49,16.49,0,0,1,3.52,42.54Zm33.74,0c-.87.45-1.61.9-2.42,1.24a25.36,25.36,0,0,1-8.11,1.64c-1.63.12-3.26.17-4.89.25-.21,0-.4.06-.41.32a.34.34,0,0,0,.35.39,18,18,0,0,0,2.74.14c2.34-.2,4.69-.23,7-.65a16,16,0,0,0,3.78-1C36.27,44.49,37.3,44,37.26,42.58Zm-15.79-4.8c.05,1.23.06,1.27,1.11,1.08a9.26,9.26,0,0,1,1.66-.11,20,20,0,0,0,3.1-.1,40.36,40.36,0,0,0,5.21-1.15,36.44,36.44,0,0,0,3.79-1.37c.7-.31,1.27-.69,1-1.64a12.1,12.1,0,0,1-3.68,1.88,29.68,29.68,0,0,1-9.11,1.41Zm-18-3.28c0,1.08.16,1.32,1.24,1.75a50.12,50.12,0,0,0,6.1,1.91c2.65.69,5.37.44,8,.75.32,0,.54-.09.5-.48,0-.19,0-.39,0-.63A46.2,46.2,0,0,1,11,37.32,17.6,17.6,0,0,1,3.44,34.5Zm20.3,35.73c-1.1,0-1.12,0-1.39,1a2,2,0,0,1-2.76,1.35,1.77,1.77,0,0,1-1.17-1.38c-.2-1-.38-1.07-1.33-.86.52,1.89.72,2.34,1.43,3.09a2.49,2.49,0,0,0,3.78,0A6.58,6.58,0,0,0,23.74,70.23ZM33.46,58a.48.48,0,0,0-.12-.17,32.93,32.93,0,0,0-8.81-4.61,1.92,1.92,0,0,0-.82-.11.35.35,0,0,0-.39.36.31.31,0,0,0,.28.32,2.26,2.26,0,0,1,.33.13,28,28,0,0,1,7.59,3.85A1.64,1.64,0,0,0,33.46,58ZM7.29,58a1.54,1.54,0,0,0,2-.18,18.12,18.12,0,0,1,2.63-1.64A27.89,27.89,0,0,1,17,53.87c.22-.06.51-.08.43-.44s-.34-.27-.57-.28a3.83,3.83,0,0,0-1.58.48A29.89,29.89,0,0,0,7.29,58ZM11,6.4c.09.23.09.27.12.3.61.91,1.47.62,2.25.4,1.49-.41,3-.91,4.43-1.37a5.85,5.85,0,0,1,1.85-.41c.37,0,.43-.3.41-.6s-.25-.34-.51-.34a5.8,5.8,0,0,0-2,.39A17.61,17.61,0,0,1,11,6.4Zm18.71,0A15.67,15.67,0,0,1,26.66,6c-1.17-.36-2.31-.78-3.45-1.19a5.57,5.57,0,0,0-2-.39c-.23,0-.51-.07-.54.28s0,.63.48.67A22.59,22.59,0,0,1,25.73,6.6a8.24,8.24,0,0,0,3,.67A1,1,0,0,0,29.74,6.42Zm-4.2,50.89a2,2,0,0,0,1,1.14A13.2,13.2,0,0,0,32.46,60c.89.08.89,0,1.22-1.14A17.75,17.75,0,0,1,25.54,57.31ZM7.09,58.87C7.47,60,7.53,60.09,8.5,60c.47,0,.94-.16,1.41-.2a10.44,10.44,0,0,0,4.48-1.46,2,2,0,0,0,1-1.24A16.73,16.73,0,0,1,7.09,58.87Zm13.28.25c1.1,0,1.64-.41,1.65-1.24A1.83,1.83,0,0,0,20.37,56a1.84,1.84,0,0,0-1.6,1.79C18.75,58.65,19.32,59.12,20.37,59.12ZM19.94,34h0V36.7c0,.3.05.55.45.54s.41-.29.41-.58l0-5.37c0-.32-.09-.5-.48-.5s-.44.24-.44.54Zm.92,8.34V40c0-.3,0-.55-.43-.55s-.49.16-.49.49c0,1.48,0,3,0,4.42,0,.3,0,.54.43.55s.49-.28.49-.62ZM20.44,47c-.74,1-.36,2.12-.49,3.18a.42.42,0,0,0,.4.49c.34,0,.47-.2.51-.52s-.26-.81-.13-1C21.29,48.29,20.52,47.69,20.44,47ZM16.06,66.36c0-.94,0-1.69,0-2.43,0-.2,0-.42-.27-.44a.51.51,0,0,0-.57.33,1.19,1.19,0,0,0-.06.59A3.65,3.65,0,0,0,16.06,66.36Zm8.68-.07a2.11,2.11,0,0,0,.69-1.08,2.34,2.34,0,0,0,.22-1.16.54.54,0,0,0-.63-.56c-.35,0-.27.34-.27.56C24.74,64.75,24.74,65.46,24.74,66.29ZM20.41,24.87c-.37,1-.12,2-.39,3-.07.24.22.27.42.27s.42-.11.35-.35C20.5,26.85,20.75,25.83,20.41,24.87ZM19.37,52l-.94.69c-.19.14-.45.27-.36.55s.38.36.69.37c.73,0,.84-.12.7-.92C19.43,52.5,19.41,52.3,19.37,52ZM20.46,9.68c-.38.69-1.06,1-.65,1.6a.71.71,0,0,0,1.13.05C21.49,10.68,20.69,10.42,20.46,9.68Zm1,42.32c0,.28-.06.48-.09.68-.14.81.12,1.06.92.91a.55.55,0,0,0,.46-.33c.09-.23-.08-.37-.24-.49ZM23,22.67H21.56c-.29,0-.44.12-.42.43s-.05.48.16.71A2.43,2.43,0,0,0,23,22.67Zm-3.49,1.17c.15-1.16.15-1.16-.82-1.18h-1A2.75,2.75,0,0,0,19.54,23.84Zm.87,6.22c.57,0,.42-.41.45-.7s-.19-.46-.52-.45c-.52,0-.37.4-.39.69S20.12,30.09,20.41,30.06Zm.45,8.3c0-.27,0-.55-.4-.57s-.52.2-.52.56.08.6.52.58S20.85,38.64,20.86,38.36Zm8.66,37c1-.19,1.25-.39,1.34-1.28A2.91,2.91,0,0,0,29.52,75.36Zm-18.17.06a3.22,3.22,0,0,0-1.48-1.36C10.12,75,10.22,75.12,11.35,75.42Zm9.28-4a1.24,1.24,0,0,1,.05-.42c.17-.33-.05-.32-.24-.31s-.5-.1-.32.34a2,2,0,0,1,0,.81c0,.26.17.23.31.22s.34,0,.26-.25A2,2,0,0,1,20.63,71.41Zm.21-25.48c0-.3-.09-.45-.39-.46s-.51.1-.5.46.08.43.39.44S20.87,46.28,20.84,45.93Zm-.33,8c-.44.57-.44.57,0,1.26A1.77,1.77,0,0,0,20.51,53.9Zm-.13-.68c.36-.45.21-.86.24-1.23a.21.21,0,0,0-.2-.24.19.19,0,0,0-.23.2A2.06,2.06,0,0,0,20.38,53.22ZM20.43,70a.84.84,0,0,0-.09-1C20.23,69.34,20.14,69.61,20.43,70Zm-.22-46.37c0,.16,0,.35.15.39s.21-.16.23-.3,0-.35-.15-.38S20.24,23.47,20.21,23.59ZM20,16.82a.24.24,0,0,0,.21.25c.19.05.39.05.48-.17s-.08-.19-.19-.21S20.17,16.63,20,16.82Zm2.6,52.1a.45.45,0,0,0,0,.11.64.64,0,0,0,.08.54s.15,0,.19,0,0-.34-.08-.49S22.7,69,22.64,68.92Zm-4.5,0A1.43,1.43,0,0,0,18,69c-.08.16-.26.3-.1.5a.22.22,0,0,0,.19.07c.15-.15.1-.34.09-.53A1,1,0,0,0,18.14,68.87Zm9.1-4.61-.51.3c.13.08.25.22.39.24s.21-.17.19-.31S27.27,64.24,27.24,64.26Zm-13.15.29s-.05-.07-.08-.08l-.22-.07c-.22-.07-.44.19-.28.33S13.91,64.66,14.09,64.55Zm9.56,4.77a.68.68,0,0,0-.06-.82A1,1,0,0,0,23.65,69.32Zm-6.51-.8c0,.25-.18.52,0,.78A.76.76,0,0,0,17.14,68.52Zm-2.3-6.2c0-.11-.05-.22-.2-.11a1.14,1.14,0,0,0-.16.15c.08.08.17.21.25.21S14.84,62.42,14.84,62.32Zm11.59.07L26,62.15c0,.07-.07.15-.06.21s0,.25.14.2A1.3,1.3,0,0,0,26.43,62.39ZM22,69.27,22,69.08a.56.56,0,0,0-.06.2.8.8,0,0,0,.05.21Zm-3.12,0-.07-.21a.56.56,0,0,0-.08.2c0,.08-.05.2.1.21A1.82,1.82,0,0,0,18.92,69.27Zm-3.37-7.33-.06-.08a.67.67,0,0,0-.07.18s0,.06.05.09S15.52,62,15.55,61.94Zm9.78-.09s-.08.06-.07.08a.59.59,0,0,0,0,.19s.07,0,.07-.07A1.46,1.46,0,0,0,25.33,61.85Zm-11.07,2s0-.05,0-.06a.2.2,0,0,0-.11,0c-.07.05,0,.09.07.1S14.23,63.83,14.26,63.81Zm12.37-.06-.1,0s0,.07.06.07l.14-.08ZM15.47,33.52l0,0h.06Zm9.86,0,0,0h.07ZM19.6,61.41l-.05,0v.06Zm1.63,0,0-.06h-.06ZM16,67.9l-.07-.05v.08Zm8.88,0-.07,0v.07Zm-9.12.47-.06,0v.07Zm9.26,0,.06,0v-.06Z"/><path d="M24.28,7.78a1.57,1.57,0,0,1,.26.19,1.23,1.23,0,0,1,.19.91,12.89,12.89,0,0,0,.83,4.88,2.19,2.19,0,0,1,.12.33c0,.16,0,.33-.2.36a.41.41,0,0,1-.31-.11,1.16,1.16,0,0,1-.22-.41,15.55,15.55,0,0,1-1-5.57C24,8.14,23.91,7.86,24.28,7.78Z"/><path d="M26.64,15.92c-.72-.23-.72-.23-.62-1.19.6.24.64.72.6,1.22Z"/><path d="M26.62,16c.17-.06.33-.22.53-.09s.47.3.41.63a.24.24,0,0,1-.16.13.5.5,0,0,1-.57-.29,2.57,2.57,0,0,1-.19-.41Z"/><path d="M16.8,9.11a17.77,17.77,0,0,1-.92,4.74,1,1,0,0,1-.27.51.44.44,0,0,1-.32.09.32.32,0,0,1-.16-.27,2.75,2.75,0,0,1,.16-.56A13,13,0,0,0,16.07,9a1.24,1.24,0,0,1,.22-1,.6.6,0,0,1,.3-.14c.15,0,.2.14.2.24C16.81,8.4,16.8,8.75,16.8,9.11Z"/><path d="M14.18,16a1.18,1.18,0,0,1,.49-1.23c.33.92.33.92-.51,1.19Z"/><path d="M14.16,15.92a.71.71,0,0,1-.06.22c-.19.27-.34.65-.79.42a.18.18,0,0,1-.05-.29c.22-.35.47-.62.92-.31Z"/><path d="M4.77,39.44c0,.26,0,.51-.31.5s-.4-.32-.39-.6,0-.55.27-.57C4.84,38.73,4.72,39.15,4.77,39.44Z"/><path d="M4.78,40.66a.28.28,0,0,1-.38.2c-.19-.06-.35-.18-.24-.41s.17-.31.33-.23A.43.43,0,0,1,4.78,40.66Z"/><path d="M36,39.45c0-.36,0-.71.38-.69s.31.39.31.65-.08.58-.46.52S36,39.58,36,39.45Z"/><path d="M36.37,40.15c.1.12.25.22.29.35s-.13.35-.32.37-.32,0-.31-.24S36.21,40.3,36.37,40.15Z"/><path d="M5.81,23.86c-.16,0-.28-.12-.25-.22a7,7,0,0,1,.79-2.06.31.31,0,0,1,.42-.08c.08.05.17.24.14.28a7.52,7.52,0,0,0-.74,1.87A.33.33,0,0,1,5.81,23.86Z"/><path d="M6,24.34a.29.29,0,0,1-.36.21c-.17,0-.32-.12-.27-.3s.29-.23.48-.18A.21.21,0,0,1,6,24.34Z"/><path d="M34.19,21.45c.3,0,.41.27.49.47.22.51.38,1,.56,1.55a.28.28,0,0,1-.17.38.33.33,0,0,1-.41-.16c-.3-.64-.4-1.35-.76-2C33.81,21.57,34,21.48,34.19,21.45Z"/><path d="M35.05,24.55a.24.24,0,0,1-.21-.3c0-.19.19-.23.36-.2s.32.08.27.3S35.27,24.57,35.05,24.55Z"/><path d="M9.61,34.83a1.45,1.45,0,0,1,1.2-.43c2,.12,4,.25,6.06.53a3.34,3.34,0,0,1,.8.24c.17.08.36.22.22.45a.32.32,0,0,1-.4.16,18.15,18.15,0,0,0-2.94-.45,32.47,32.47,0,0,0-3.82-.19C10.36,35.13,9.93,35.26,9.61,34.83Z"/><path d="M8.42,35.14c-.3,0-.52,0-.59-.22s.22-.35.4-.45a.7.7,0,0,1,.57,0,.39.39,0,0,1,.28.34.35.35,0,0,1-.3.31Z"/><path d="M31.21,34.85c-.45.44-.92.29-1.33.28a32.91,32.91,0,0,0-6.42.58c-.11,0-.23.09-.33.07a.53.53,0,0,1-.25-.22.2.2,0,0,1,.12-.29,4.17,4.17,0,0,1,1.11-.38c1.82-.19,3.65-.35,5.47-.49A1.88,1.88,0,0,1,31.21,34.85Z"/><path d="M31.71,34.75c.05-.07.1-.2.19-.25a.82.82,0,0,1,1,.14c.1.06.19.15.11.28-.22.34-.55.21-.85.2A.43.43,0,0,1,31.71,34.75Z"/><path d="M5.07,46.42a.39.39,0,0,1,.22.49c0,.19-.17.28-.33.2s-.17-.23-.16-.4A.29.29,0,0,1,5.07,46.42Z"/><path d="M35.76,46.42c.27.1.26.3.23.49a.25.25,0,0,1-.34.21c-.14-.06-.17-.24-.15-.4S35.61,46.44,35.76,46.42Z"/><path d="M34.77,53.83c0,.18-.12.26-.28.29s-.33,0-.36-.19.11-.29.28-.32A.27.27,0,0,1,34.77,53.83Z"/><path d="M6.67,53.91c0,.2-.19.24-.34.22S6,54,6,53.84s.17-.26.34-.23A.3.3,0,0,1,6.67,53.91Z"/><path d="M36.5,30.29c0,.22,0,.55-.3.51s-.38-.38-.4-.63.15-.52.38-.51C36.57,29.67,36.47,30,36.5,30.29Z"/><path d="M36.72,31.69c0,.24-.11.41-.31.41s-.32-.19-.33-.4.12-.39.33-.39S36.72,31.48,36.72,31.69Z"/><path d="M36.24,28.93a.34.34,0,0,1-.3.38c-.13,0-.19-.11-.2-.22s0-.4.28-.41S36.22,28.76,36.24,28.93Z"/><path d="M4.31,30.23c0-.23,0-.54.26-.56a.43.43,0,0,1,.42.56c0,.23-.09.61-.45.57S4.33,30.44,4.31,30.23Z"/><path d="M4.73,31.71c-.08.22-.14.43-.39.38s-.29-.23-.26-.44.11-.38.36-.33S4.71,31.55,4.73,31.71Z"/><path d="M4.87,29.31a.33.33,0,0,1-.3-.29c0-.16,0-.31.19-.34s.28.11.3.27S5.07,29.26,4.87,29.31Z"/><path d="M21.38,63.43v.26c-.2,0-.37.39-.6.06-.07-.11-.11-.2,0-.32C21,63.14,21.16,63.46,21.38,63.43Z"/><path d="M19.42,63.69v-.26c.23,0,.48-.3.67.06.07.13,0,.2-.09.29C19.76,64.07,19.62,63.66,19.42,63.69Z"/><path d="M20.15,58c-.06.3-.56.68-.79.58a.37.37,0,0,1-.17-.29A.67.67,0,0,1,20,57.7.22.22,0,0,1,20.15,58Z"/><path d="M21.61,58.23c0,.15-.06.35-.26.32a.84.84,0,0,1-.69-.58.21.21,0,0,1,.16-.27A.69.69,0,0,1,21.61,58.23Z"/></g></g></svg>