<svg xmlns="http://www.w3.org/2000/svg" viewBox="0 0 85.07 62.83"><title>Themisto</title><g id="Layer_2" data-name="Layer 2"><g id="Themisto"><path d="M6.52,56.32c-.07.71-.08.74-.63.48s-.89.07-1.21.4c-.14.14,0,.54-.37.5s-.35-.3-.46-.51,0-.31-.15-.47a2.76,2.76,0,0,1,0,.5.38.38,0,0,1-.21.25.35.35,0,0,1-.29-.13,3.36,3.36,0,0,1-.27-.79c-.46-2.7-1.33-5.31-1.84-8C.84,47.27.68,46,.51,44.68a6.53,6.53,0,0,1-.24-2.36C.69,40.6,0,38.94,0,37.25a9.45,9.45,0,0,1,.2-3.09C-.2,31.34,1.1,29,2.3,26.61a37.49,37.49,0,0,1,5.13-7.67A26.07,26.07,0,0,1,11.35,15a9.5,9.5,0,0,0,2-2.06,3.06,3.06,0,0,1,1.9-1.35A2.16,2.16,0,0,0,17,10.13a2.68,2.68,0,0,1,1.45-1.36,24.11,24.11,0,0,0,4-2.59,11.74,11.74,0,0,1,3.78-1.7c.22-.08.48,0,.65-.25A6.28,6.28,0,0,1,30,2.35c1.58-.58,3.15-1.36,4.93-1.16C36.58.52,38.37.92,40.07.6a1.78,1.78,0,0,0,.57-.15A4.3,4.3,0,0,1,43.53.11a4,4,0,0,0,2.09,0c.65-.23,1.33.13,2,.22a29.62,29.62,0,0,1,4.59.72,3.33,3.33,0,0,0,1.14.06,9.32,9.32,0,0,1,4.27.92,8.07,8.07,0,0,1,2.07,1.19,1,1,0,0,0,.64.25,5.21,5.21,0,0,1,2.56.91,12.08,12.08,0,0,1,2.48,1.63c.2.21.39.17.64.11a1.55,1.55,0,0,1,1.53.48,1.39,1.39,0,0,0,1.16.45c4-.08,6.13,2.25,7.48,5.58a13.14,13.14,0,0,1,.66,3.61c.09.86.42,1.19,1.24,1a8.31,8.31,0,0,1,2.59-.27,3.89,3.89,0,0,1,2.89,1.86A14.27,14.27,0,0,1,85,21.8c.13.37.3.91-.45.93,0-.2,0-.43-.25-.47,0-.21.08-.45-.24-.5,0-.2.07-.43-.24-.48,0-.21,0-.4-.22-.49,0-.13-.07-.27-.26-.22a1.89,1.89,0,0,0-1.42-1.46c0-.13-.07-.19-.2-.18s-.06.07-.09.11l.29.07c.27.69,1,.94,1.44,1.43,0,.14.06.29.27.23a.34.34,0,0,0,.22.49c0,.19,0,.38.24.47,0,.19,0,.42.24.5,0,.19,0,.41.24.48-.08.53.35,1,.24,1.51,0,.15,0,.33-.22.37a.36.36,0,0,1-.38-.22c-.14-.24-.23-.51-.36-.75a19.94,19.94,0,0,0-1.13-2c-.48-.66-1-1.33-2-.88a9.68,9.68,0,0,1-1,.19,2.36,2.36,0,0,1-1.95-.26,1.43,1.43,0,0,0-.86-.29c-.53,0-.81,0-1,.67a6.17,6.17,0,0,1-1.41,2.14,17.86,17.86,0,0,1,3.17,3.68,13.77,13.77,0,0,1,2.86,5.79c0,.25.14.56-.17.77-.43-.1-.43-.53-.55-.83a17.55,17.55,0,0,0-1.14-2.35,1.89,1.89,0,0,0-.78-.85.25.25,0,0,0-.26-.24l-.07-.08.1.05c0,.13.05.28.25.24a2.79,2.79,0,0,0,.39,1.47,5.85,5.85,0,0,1,0,4c-.42,0-.41-.27-.4-.49a9,9,0,0,0-.3-2,5,5,0,0,0-1.36-2.7c-1.27-1.31-2.25-2.89-3.75-4.06-.85,1.5-2.49,1.83-3.9,2.5a3.21,3.21,0,0,1-1.66,0c-.79-.09-1.57-.3-2.36-.37a2.39,2.39,0,0,1-2.39-2.17c-.45.08-.63.46-1,.6s-.29.32-.26.57a5.6,5.6,0,0,1-1.38,4.29c-.15.19-.31.36-.48.55.36.24.59,0,.81-.22.57-.56,1.11-1.15,1.71-1.68a2.9,2.9,0,0,1,3.5-.53,6.27,6.27,0,0,1,1.93,1.09c1,1,.84,2.18.77,3.37,0,.1-.08.25-.23.22a.45.45,0,0,1-.27-.17,1.72,1.72,0,0,1-.21-.43c-.4-1.41-.39-1.25-1.84-1.26-.79,0-1.69-.14-1.75,1.07a.76.76,0,0,1,0,.11c-.23.34-.82-.27-.89.27s-.41.46-.75.46c-.06,0,0-.28-.19-.08l.21.06c0,.22.12.52-.12.66s-.43-.09-.59-.26-.08-.3-.33-.23c-1.43.38-2.69-.39-4-.67-.86-.19-1.4-1-2-1.62a2.55,2.55,0,0,1-.4-2.06,5.83,5.83,0,0,0,.14-1.68c-.59.83-1.12,1.57-1.64,2.32-.05.06-.13.18-.11.2.53.65.12,1.68.92,2.21.2.13.48.24.52.48a1.09,1.09,0,0,0,1.34,1c.68.7,1.55.5,2.37.54a5.41,5.41,0,0,1,2.56.4,4,4,0,0,0,1.65.1,3.34,3.34,0,0,1,3.28,3.13c0,.23.06.49-.2.65s-.39-.21-.53-.4a2.57,2.57,0,0,0-2.83-1,6.29,6.29,0,0,0-2.71.78c-.27.2-.54,0-.81,0s-.52-.31-.65.16c0,.11-.27.16-.29.08-.18-.57-1.12-.06-1.18-.87,0-.31-.14,0-.17.09s-.19.3-.36.25a.4.4,0,0,1-.26-.49c.2-.47-.1-.64-.42-.82A7,7,0,0,0,53,36a1.21,1.21,0,0,1-.73-.36c-.61-1-1.64-1.78-2.13-2.9a7.5,7.5,0,0,0-1.08-2.08,9,9,0,0,1-1-1.87c-.59.77-.58.77-.32,1.64a.88.88,0,0,1,.06.47,1.25,1.25,0,0,0,.59,1.6c.48.3.46,1.15,1.24,1.13.15,0,.35.13.32.31-.12.63.38.91.69,1.3a4.23,4.23,0,0,1,.92,1.92,4,4,0,0,0,.63,1.24,1.39,1.39,0,0,0,.15.19c.3.31.67-.31,1,.09s-.4.57.06.8a.36.36,0,0,1,.22.48c-.29.74.41,1.35.26,2.07a.13.13,0,0,0,0,.11c.52.27.66.61.19,1.05.53.53.12.78-.29,1.08a1.26,1.26,0,0,0-.36.6c-.8,2.55-2.83,3.58-5.16,4.28a6.46,6.46,0,0,1-1.89.21,1.16,1.16,0,0,1-.79-.24.47.47,0,0,1-.14-.3c0-.14.13-.18.23-.2a2.57,2.57,0,0,1,.48,0,4.55,4.55,0,0,0,3.78-2.16c.26-.35.46-.75.75-1.08.68-.76.65-.73.31-1.63a21.82,21.82,0,0,1-1.55-3.85c-.09-.5-.6-.65-1.3-.46-.2,0-.33,0-.35-.17-.09-.63.06-1.43-1-1.27,0,0-.14-.1-.14-.15,0-.87-.73-1.18-1.17-1.71a37.09,37.09,0,0,1-2.16-3.28A2.09,2.09,0,0,1,43,31.47c0-.22.08-.49-.31-.67a3.83,3.83,0,0,1-.93,1.37c.19.37.51.71.52,1.07,0,.73.09,1.35,1,1.46.13.68,1,.85,1.09,1.57a.69.69,0,0,0,.16.32c1,1.39,1.34,3.07,2,4.63,0,.12.18.26.14.32-.29.55,1.27.07.48.88-.29.3.42.74-.1,1,0,0,0,.07,0,.11a2.66,2.66,0,0,1-1,2.65c-.37.37-.71.77-1.09,1.12a3.32,3.32,0,0,1-3,.8A2.16,2.16,0,0,1,40.43,47a7.25,7.25,0,0,1-.8-1.85c-.23-.89-.46-1.77-.67-2.65a3.91,3.91,0,0,1,0-.84.41.41,0,0,1,.36-.41c.1,0,.27.16.33.29a4.36,4.36,0,0,1,.28.79,8.22,8.22,0,0,0,1.75,3.08.85.85,0,0,0,1.32.27,4.52,4.52,0,0,0,1.55-1.11,15.08,15.08,0,0,0-2.31-2.86,1,1,0,0,0-.62-.31,1.06,1.06,0,0,1-.81-.65c-.22-.52-.42-1-1.22-.77l.26-.53c.1-.21.53-.18.46-.47a2.73,2.73,0,0,0-.54-1.17c-.17-.19-.37,0-.56,0s-.32-.12-.25-.3c.4-.94-.28-1.51-.8-2a8.86,8.86,0,0,1-1.49-2,9.8,9.8,0,0,1-1.5,2.38.84.84,0,0,0-.2,1,3.08,3.08,0,0,1,.15,1.77,8.11,8.11,0,0,0,.16,2c.1.7.34,1.17,1,1.32,0,.2,0,.35-.1.37-.63.08-.74.39-.38.87.12.16.3.25.1.47a1.33,1.33,0,0,0-.36,1.5c.12.37-.31.88-.56,1.21-1.28,1.74-1.35,3.87-2.07,5.78a2.84,2.84,0,0,0-.16,1.18c0,.33-.19.84.28.92s1,.37,1.38-.27a.46.46,0,0,1,.35-.27c.23,1.22,1.19-.24,1.6.43.1.16.38,0,.56-.07s.31-.2.43-.17c1.45.37,2.82-.2,4.21-.4A13.59,13.59,0,0,0,47,51.43a1.82,1.82,0,0,1,.31-.16.34.34,0,0,1,.42.14.33.33,0,0,1-.05.33,4.89,4.89,0,0,1-1.18,1,30.33,30.33,0,0,1-9.46,3.79,22.28,22.28,0,0,1-4.76.29,2.28,2.28,0,0,1-2.05-2.07c0-.88,0-1.76,0-2.64A2.73,2.73,0,0,0,30,50.74c-.28-.52.7-.47.68-1.08A10.29,10.29,0,0,1,31,47.78a.86.86,0,0,0-.25-.76,2.53,2.53,0,0,1-.47-1.2,4,4,0,0,1,.28-2.49,6.72,6.72,0,0,0,.41-2c.07-1.34,0-2.68,0-4a.76.76,0,0,0-.19-.54,2.29,2.29,0,0,1-.32-1.43A1.66,1.66,0,0,0,30,36.82c.11.92.31,1.92-.51,2.72-.35.34.06.75.11,1.12s.22.67-.15,1.05c-.16.16-.62.59-.06,1,.21.16-.05.33-.23.41-1.33.56-1.41.69-1.11,2.12a.77.77,0,0,1,0,.58c-.84,1.2-.67,2.62-.88,4s-.27,2.76-.43,4.14a.5.5,0,0,0,.27.56,15.83,15.83,0,0,0,7.31,3.28,40.55,40.55,0,0,0,5.91.7,7,7,0,0,0,4.41-1.52c.14-.11.27-.2.42-.1s.14.27.11.43a.73.73,0,0,1-.28.49c-1.63,1.33-3.3,2.54-5.59,2-1.63.43-3.25,0-4.85-.16a18.52,18.52,0,0,1-7.17-1.55c-.19-.1-.39-.28-.65-.17s-.54.06-.63-.29-.29-.34-.55-.34a.39.39,0,0,1-.41-.34,5.85,5.85,0,0,0-1.08-2c-.37-.48-.72-1-.1-1.57.15-.13.21-.43.05-.53-.54-.33-.33-.6-.11-1a10.45,10.45,0,0,0,.52-3.39c0-.19-.22-.19-.34-.27s-.27-.36-.07-.49c1-.63.87-1.63.72-2.54a4.08,4.08,0,0,1,0-1.74,26.54,26.54,0,0,0,.5-2.94A6,6,0,0,0,25,38.26c-.16-.65.38-1.28.23-2a1,1,0,0,0-.68,1.24,10.25,10.25,0,0,1-.42,4.3c0,.22-.07.57-.34.59-.84.08-.84.78-.9,1.31-.11.92-.84,1.64-.75,2.6-.79.31-.62,1.49-1.58,1.68-.39.07-.56.43-.62.9a5,5,0,0,1-.72,2.35c-.2.28,0,.81-.52,1-.18,0-.07.25,0,.38.36.41.13.55-.28.52-.2,0-.37.07-.33.21.2.93-.38,1.62-.75,2.36-.25.5-.11.71.27,1,2.45,2.18,5.43,3.24,8.48,4.17a21.4,21.4,0,0,0,5.1,1.08,20.21,20.21,0,0,0,5.65-.15c.27-.07.53-.16.8-.22a.4.4,0,0,1,.43.15c.11.23-.08.37-.27.44a8.26,8.26,0,0,1-2.77.62c-1.56,0-3.12.08-4.68,0-1.27-.06-2.52-.28-3.78-.42a32.94,32.94,0,0,1-4.33-.76,20.67,20.67,0,0,1-3.81-1.31,8.11,8.11,0,0,1-1.49-1c-.29-.23-.6-.65-1.1-.17-.19.18-.57,0-.36-.42.07-.14.16-.27.26-.45l-.76,0c-.16,0-.33,0-.35-.25s0-.4.29-.41.33-.14.25-.38a5,5,0,0,1,.23-2.92c.12-.47.54-.91.21-1.45a.65.65,0,0,1,0-.11c.71-.27.35-1.1.8-1.51.17-.15.24-.43.13-.51-.66-.48-.16-.56.2-.75.11-.05.14-.26.21-.4-1-.43-.07-.75,0-1.14a1.2,1.2,0,0,0,0-.82c-.69-1.25-.2-2.31.45-3.36.2-.31.31-.54,0-.9s0-.54.37-.38.74.24.56-.41a.27.27,0,0,1,.22-.36c.36-.07.83-.1.83-.52,0-.62.5-1.24,0-1.84-.17-.23-.12-.41,0-.48.48-.19.5-.7.78-1a.69.69,0,0,0,.06-.89,2.45,2.45,0,0,1-.57-2.82,1.42,1.42,0,0,0-.52,1.2,1.34,1.34,0,0,1-.34.85c-.36.26-.23.68-.47.94s.14,1.06-.38,1.13-.35.71-.8.76c-.42-.22,0-1-.71-1-.18,0-.14-.26,0-.39a5.45,5.45,0,0,0,.68-2.6,7.4,7.4,0,0,0,.48-2.59,1.29,1.29,0,0,0-.27-.78,2.33,2.33,0,0,1-.78-2.27c.13-.5-.19-.64-.47-.83a12.08,12.08,0,0,1-2.91-2.27c-.2-.25-.49-.43-.53-.78-.08-.66-.68-.66-1.08-.71s-.65.48-.76.9,0,.55.42.69a8.39,8.39,0,0,1,4.27,3.31,6.56,6.56,0,0,1,1,5c0,.23-.17.45-.09.69a2.87,2.87,0,0,1-.7,2.76A1.11,1.11,0,0,0,15.6,40a1.65,1.65,0,0,1,.1,1.57A13.11,13.11,0,0,0,15.51,44c-.08.76,0,.83-.77,1.45-.17.15-.23.41-.57.53-.05-.08-.17-.18-.17-.28,0-1.11-.71-2.17-.17-3.31a1,1,0,0,0,0-.66,2,2,0,0,1,.26-1.67,1.73,1.73,0,0,0,.06-1.36,25.18,25.18,0,0,0-.91-2.7,3.83,3.83,0,0,1-.23-.8c-.17-1.15-.16-1.17-1.24-1.38a17,17,0,0,0-2.89-.61,1.71,1.71,0,0,1-1.6-1.52c-.75,1.44.57,2.41.56,3.63,2.67-.54,4.19,1.24,4.94,3.07.27.65.76,1.37.12,2.11a.4.4,0,0,0,0,.34C13.32,42,12.77,43,12.28,44c-.22.43-.35.77,0,1.2a1.08,1.08,0,0,1,0,1.32c-.53.38,0,1.07-.54,1.34.19.42.23.78-.39.81-.12,0-.13.07-.07.17.37.65-.26.64-.55.89s-.32.4-.58.29,0-.42-.09-.59c-.14-.44-.56-.82,0-1.29s-.4-.93.24-1.23A4,4,0,0,1,11,44.26c.18-.29,0-.51-.11-.77a5.88,5.88,0,0,1-.72-2.62c0-.47-.19-.63-.64-.62a4.9,4.9,0,0,1-3-1c-.59-.41-1.41-.49-1.74-1.37-.27.65-.07,1.3-.42,1.85-.14.22.1.43.2.64C6.08,43.64,7.25,47,7.05,50.68c0,.28,0,.56,0,.84a3.18,3.18,0,0,0,.72,2.56A2.87,2.87,0,0,1,8,54.6c.1.19,0,.31-.13.41s-.23,0-.29-.1A15.3,15.3,0,0,0,6.3,53.42c.24.66.51,1.31.69,2,.11.4.22.92-.49.94,0-.28,0-.56-.22-.76-.06-.25,0-.55-.24-.72l0-.22a1.66,1.66,0,0,0,0-.22c0-.06-.1,0-.12,0a.38.38,0,0,0,0,.21.77.77,0,0,0,.16.15c.07.25-.12.58.24.72C6.37,55.81,6.2,56.13,6.52,56.32ZM72.73,24.59c.12,0,.25.05.15-.15l-.12.18-.08.06s0,0,0,.06ZM40.33,59.15A1.64,1.64,0,0,0,41.4,59c-.43-.05-.77-.18-1,.14l0,.1Zm-36-7.37,0-.81c-.16.45-.16.64.07.78,0,.51-.11,1.06.4,1.47A1.3,1.3,0,0,0,4.34,51.78ZM5.8,46l.13.37s.06,0,.07-.08S6,46,5.78,46a3.35,3.35,0,0,0-.72-2.13A4.86,4.86,0,0,0,5.8,46Zm34.54-.93c0-.12,0-.26-.09-.35s-.06.06,0,.07l.16.26a3.63,3.63,0,0,0,1.09,2.12c.08-.25.25-.58.19-.64C41.14,46.09,41,45.32,40.34,45.06ZM35.55,22l0-.07,0,0,1.35,1.54C37,21.87,37.17,21.93,35.55,22Zm41.3,7.38a.22.22,0,0,0,.05.08.08.08,0,0,0,0,0l-.12-.1a7.72,7.72,0,0,0-1.37-2.31c-.1-.14-.16-.26-.34-.1s-.19.27-.07.41C75.65,28.08,76,29,76.85,29.41ZM4.39,48.83l.06.85c.15-.47.06-.65-.09-.82a27,27,0,0,0-1.15-5.09c-.48.5-.07.85,0,1.18A12.55,12.55,0,0,0,4.39,48.83ZM21.66,38.07l-.28-.16s0,0-.06.06l.36.07c.21.54.77.5,1.17.66s.72.35,1,0,.13-.74,0-1.1a1.39,1.39,0,0,0-.15-.19A6.09,6.09,0,0,1,21.66,38.07Zm28.28,9.57c1.32-.23,1.92-1.25,2.6-2.26-.7-.23-1,.15-1.41.52A16.79,16.79,0,0,0,50,47.66c0,.05-.25,0-.07.16Zm14.2-10.31c0,.06,0,.24.14.11l-.17-.08c-.09-.77-.66-1-1.29-1.17a4.93,4.93,0,0,0-2.26,0c0,.39-.1.75.14,1.14A6.19,6.19,0,0,1,64.14,37.33Zm-60,6.75A1,1,0,0,0,4,43.23c-.1.35-.17.63.15.83a10,10,0,0,0,.51,2.54,35.33,35.33,0,0,0,.91,3.92c.13.35.22.63.65.61A4.08,4.08,0,0,0,6,49.22,16.08,16.08,0,0,0,4.11,44.08ZM2,42.35c.06.28-.1.57.15.94A1,1,0,0,0,2,42.37c.18-.45.42-.61.7-.08.13.23,0,.63.45.67.16-1-.31-1.82-.24-2.74,0-.28-.16-.44-.45-.44s-.55,0-.83,0-.59.13-.57.55a8.37,8.37,0,0,1-.19,2.12,1.11,1.11,0,0,0,.4,1.28C1.25,42.49,1.25,42.49,2,42.35ZM41.74,16.13a6.13,6.13,0,0,0,.1,1c.24.92.7,1.09,1.36.73a3.2,3.2,0,0,1,2-.27,21.41,21.41,0,0,1,2.9.66c.61.16.75,0,.7-.6a17.8,17.8,0,0,1,.09-4.06,1.42,1.42,0,0,0,0-.58A4.44,4.44,0,0,1,50,8.87a20.21,20.21,0,0,0,2.4-4.25,4,4,0,0,0,.44-1.23c.11-1.21.21-1.21-1-1.56C49.93,1.31,48,1.37,46.14.91c-.4-.1-.71,0-.7.54a4.36,4.36,0,0,1-1,2.64,13.48,13.48,0,0,0-2.17,7.68,17.22,17.22,0,0,1-.2,2.37A8,8,0,0,0,41.74,16.13ZM67.1,27.23a3.44,3.44,0,0,0,2.48-.57,6.45,6.45,0,0,1,.74-.38,2,2,0,0,0,1.23-1.36,3.2,3.2,0,0,1,1.6-2A3.48,3.48,0,0,0,75,20.06a6.53,6.53,0,0,1,.54-2.75,3.82,3.82,0,0,0,.25-2.11,9.91,9.91,0,0,0-.48-2.09c-1.19-2.91-2.93-5.25-6.69-5.06a1.54,1.54,0,0,0-1.28.65c-.32.43-.84.5-1,.23s0-.59.28-.8A.34.34,0,0,0,66.7,8c.2-.25.45-.54.08-.81a.57.57,0,0,0-.85.12,4.66,4.66,0,0,0-1.09,2.21,33.79,33.79,0,0,0-.13,5.13,8.64,8.64,0,0,1-.38,3.42,15.38,15.38,0,0,0-.91,5.5A4.24,4.24,0,0,1,63.24,25a1.3,1.3,0,0,0,1.23,1.92A10.06,10.06,0,0,0,67.1,27.23ZM35.93,1.56a2.67,2.67,0,0,0,0,.43,12.9,12.9,0,0,1-1,9.27,4.23,4.23,0,0,0-.33,2.45c.08.79.22,1.57.25,2.37,0,.46.08,1,.85.64.31-.15.6.16.87.31A31,31,0,0,0,40,18.82a1.4,1.4,0,0,0,1.75-.28,3.8,3.8,0,0,1-.65-3.47,19.14,19.14,0,0,0,.45-3.78c.13-2.72.56-5.38,2.29-7.63a5,5,0,0,0,.81-1.84c.1-.38,0-.7-.47-.79a4.22,4.22,0,0,0-3,.07,3.09,3.09,0,0,1-1.39.28A28.56,28.56,0,0,1,35.93,1.56Zm-.69,16.19c-.9-.07-1-.78-1.11-1.39C34,15.58,34,14.78,33.87,14a6.36,6.36,0,0,1,.67-3.7,11.28,11.28,0,0,0,.77-7.46c-.16-.84-.52-1.1-1.33-.91A20.41,20.41,0,0,0,28.1,4.13a.66.66,0,0,0-.41.77c.41,1.76,0,3.6.47,5.36a7.93,7.93,0,0,1,.15,3.32,17.72,17.72,0,0,0-.16,2.62,3.9,3.9,0,0,0,.71,2,.52.52,0,0,0,.48.28c1.55.06,3.1.17,4.66.14C34.56,18.61,35,18.51,35.24,17.75ZM65.14,6.9A16.34,16.34,0,0,0,61.6,4.71c-.86-.39-1-.3-1.29.55a16.83,16.83,0,0,1-3.85,6.51A1.48,1.48,0,0,0,56,12.94a24.89,24.89,0,0,0,.54,5.45c.23,1,.65,2.15,1.93,2.34a6.68,6.68,0,0,1,3.91,1.95,4.74,4.74,0,0,0,.27-1.44,9.47,9.47,0,0,1,.63-3,10.21,10.21,0,0,0,.57-3.51c0-1.32,0-2.63,0-4A5.09,5.09,0,0,1,65.14,6.9ZM56,19.71a24.88,24.88,0,0,1-.84-6.59,2.79,2.79,0,0,1,.91-2.23c1.7-1.55,2.47-3.68,3.4-5.7.07-.14,0-.32.11-.46s0-.43-.17-.6a9.53,9.53,0,0,0-4.63-2c-.89-.13-.92-.08-1.1.8a11.91,11.91,0,0,1-.85,2.59,24.62,24.62,0,0,1-2.64,4.38,2.75,2.75,0,0,0-.7,2.1,9.72,9.72,0,0,1,0,2.95,14.16,14.16,0,0,0,0,2.16c.06,1,.19,1.1,1.15,1.05a6.91,6.91,0,0,1,3.82.71Zm-25.5,8.78h0v4.56a2.2,2.2,0,0,0,.24,1.27,3.39,3.39,0,0,1,.5,1.45,1.27,1.27,0,0,0,2.11.69,9.22,9.22,0,0,0,1.89-2.15,5.87,5.87,0,0,0,.94-2.92,24.18,24.18,0,0,1,.45-6.18.64.64,0,0,0-.08-.57c-.69-.91-1.38-1.83-2.08-2.74-.13-.18-.37-.11-.56-.14-1.13-.16-1.95.57-2.86,1a1,1,0,0,0-.59,1C30.56,25.37,30.54,26.93,30.54,28.49ZM21.91,9.57c0,.51.07,1,.13,1.55A47,47,0,0,1,22.66,17a10.17,10.17,0,0,0,.23,1.9,1.72,1.72,0,0,0,1.35,1.35,6.59,6.59,0,0,0,3.36-.64c.69-.35.79-.67.38-1.34a4.72,4.72,0,0,1-.62-2.86,13.12,13.12,0,0,1,.21-2.5,3.88,3.88,0,0,0,0-1.79,13.62,13.62,0,0,1-.39-3.55A8.78,8.78,0,0,0,27,5.7c-.09-.49-.33-.57-.75-.42a24.76,24.76,0,0,0-3,1.23,2.55,2.55,0,0,0-1.37,2.22C21.89,9,21.91,9.29,21.91,9.57ZM24.7,23.36a4.27,4.27,0,0,0,.54-.18,10.7,10.7,0,0,1,2.57-.48.4.4,0,0,1,.48.27c.06.29-.17.42-.41.46-.51.1-1,.18-1.53.26-.82.13-.92.26-.84,1.09,0,.44.23.84.24,1.29a31.74,31.74,0,0,1-.41,5.59,3.56,3.56,0,0,0,.2,2.66A2.34,2.34,0,0,1,26,35.63a1.22,1.22,0,0,0,1.41,1.08,2.93,2.93,0,0,0,2.4-2.86c0-3.11,0-6.22,0-9.34,0-.58.12-1.19-.53-1.58-.12-.08-.17-.36-.18-.55a6.49,6.49,0,0,1,.09-3.05A4.57,4.57,0,0,1,25.86,21c-1.42.23-1.43.18-1.32,1.64C24.55,22.89,24.49,23.14,24.7,23.36ZM21.15,8.16c-1,.55-1.77,1-2.57,1.43a2.52,2.52,0,0,0-1.25,1.78,13.22,13.22,0,0,0,.22,5.77,11.36,11.36,0,0,1,.31,1.76,4.84,4.84,0,0,0,.89,2.55,1,1,0,0,0,1,.52,6.74,6.74,0,0,0,2.72-.79.53.53,0,0,0,.2-.9A3.81,3.81,0,0,1,22,18.41a22.84,22.84,0,0,1-.15-2.86A45.14,45.14,0,0,1,21.15,8.16ZM16.33,12.1A3.35,3.35,0,0,0,14,13.29a18,18,0,0,1-3.59,3.49c-.79.57-.89.89-.57,1.84a28.27,28.27,0,0,1,1.3,4.44,2.69,2.69,0,0,0,.4.86c.45.73.86.86,1.59.46a2.71,2.71,0,0,0,1.51-2c.08-.47.15-.94.23-1.42a3.1,3.1,0,0,1,1-2c.7-.59,1.26-1.18.71-2.16-.07-.13,0-.32,0-.48A21.67,21.67,0,0,1,16.33,12.1ZM8.92,18.62a2.44,2.44,0,0,0-.36.24A36.61,36.61,0,0,0,4.33,24.6a.85.85,0,0,0,.12,1.18,7,7,0,0,1,1.87,3.66,2,2,0,0,0,.21.55c.38.83.71,1,1.6.84a2.12,2.12,0,0,0,1-.55A3.24,3.24,0,0,0,10,27a1.62,1.62,0,0,1,.19-1.47,1.55,1.55,0,0,0,.19-2.17c-.08-.13-.05-.31-.09-.47A19.75,19.75,0,0,0,8.92,18.62ZM37.71,22a12.05,12.05,0,0,1,0,1.48c-.18,1.33-.41,2.66-.59,4a29.4,29.4,0,0,0-.07,4.3c0,.59.23.68.86.48a6.35,6.35,0,0,1,2.66-.52,1.22,1.22,0,0,0,1.18-.86c.28-.62.78-1.22.31-2-.12-.21,0-.55,0-.83,0-1,0-1.91,0-2.86,0-1.14-.11-2.27-.17-3.46a3.86,3.86,0,0,1-1.6-.33c-.23-.09-.42-.24-.66,0A2.59,2.59,0,0,1,37.71,22ZM25,27.19a9.87,9.87,0,0,0-.25-2.57c-.09-.4-.31-.61-.65-.33a3.38,3.38,0,0,1-1,.42c-.92.42-1.72.9-1.77,2.14,0,.79-.14,1.59-.15,2.38a13,13,0,0,1-.46,4.24,9,9,0,0,0-.3,1.88A1.54,1.54,0,0,0,22.62,37a4.44,4.44,0,0,0,1.67-1.12,1.26,1.26,0,0,0,.43-1.38,5.47,5.47,0,0,1-.14-3.05A37.43,37.43,0,0,0,25,27.19ZM3.6,26a2.71,2.71,0,0,0-.74,1.05A23.8,23.8,0,0,0,1,32.34a1.88,1.88,0,0,0,1,2.52,29.17,29.17,0,0,1,2.73,1.93,1.13,1.13,0,0,0,1.9-.15,1.76,1.76,0,0,0,.3-1.8c-.14-.41-.37-.79-.52-1.2s-.47-.84-.28-1.25a2,2,0,0,0-.32-2.11,2.58,2.58,0,0,1-.26-.91A6.76,6.76,0,0,0,3.6,26Zm39.3.2a7.94,7.94,0,0,0-.09.8,5.37,5.37,0,0,0,.35,2.8c.11.2.13.44.43.52A3.46,3.46,0,0,0,47,28.81,17.47,17.47,0,0,0,48.28,25a3.66,3.66,0,0,0-.77-2.69.88.88,0,0,0-.6-.31,13.11,13.11,0,0,0-3.64-.23c-.68,0-.83.11-.68.75C42.88,23.71,42.7,24.91,42.9,26.24Zm5.85.66a4.56,4.56,0,0,0,.66,2.83A1.65,1.65,0,0,0,52.1,30a12.24,12.24,0,0,0,1.78-2.66,3.21,3.21,0,0,0,.39-1.49,4.58,4.58,0,0,0-.12-1.65c-.22-.49-.8-.2-1.15-.5a3.59,3.59,0,0,0-2-.47c-.94-.12-1.35.28-1.69,1.22A6.39,6.39,0,0,0,48.75,26.9Zm7.86-2.41A15.72,15.72,0,0,1,56,26.11a12.28,12.28,0,0,0-.92,3.81,2.76,2.76,0,0,0,.15,1.17c.11.39.26.54.68.39a5.07,5.07,0,0,1,2.21-.39.82.82,0,0,0,.72-.37,5.25,5.25,0,0,0,1.22-4.12.85.85,0,0,0-.48-.74ZM19.2,26.84a5.19,5.19,0,0,0-2-3.86,2,2,0,0,0-1.48-.24c-.41,0-.36.47-.53.72a5.49,5.49,0,0,1-.85,1.13c-1.19,1-1.19,1.08-.06,2.13a7.62,7.62,0,0,0,.84.66c.58.41,1.19.79,1.75,1.23.88.69,1.23.66,1.86-.28A3.19,3.19,0,0,0,19.2,26.84ZM49.3,19c0,.79,0,1.59,0,2.38s.55,1.19,1.49,1.17a4.68,4.68,0,0,1,2.19.3,2,2,0,0,0,1.54.17,1.76,1.76,0,0,0,1.2-1,4.79,4.79,0,0,1,1-1.54A2.41,2.41,0,0,1,54.91,20a5.33,5.33,0,0,0-3.78-1.13C50.54,18.93,50,19,49.3,19ZM15.87,34.74c0-.44,0-.68,0-.92.05-2.92-2.16-4.94-4.09-6-.5-.26-.81-.12-.85.41a8.18,8.18,0,0,1-.63,2c-.51,1.6-.09,2.53,1.4,2.76a4.94,4.94,0,0,0,.82.16A4.38,4.38,0,0,1,15.87,34.74Zm15.88,4.93a18.33,18.33,0,0,1-.67,5.09,3.49,3.49,0,0,0,0,1.07c0,.4.27.78.62.78A15.51,15.51,0,0,0,34,46.35c.11,0,.23-.22.27-.36a9.58,9.58,0,0,0,.13-5.15c-.06-.24-.06-.56-.46-.58C33.24,40.23,32.62,39.81,31.75,39.67ZM50.9,37.39A2.67,2.67,0,0,0,50.33,36c-.64-.85-1.3-1.7-2-2.49a3.78,3.78,0,0,0-1.08-1c-.45-.17-.83.47-1.27.71-.14.07-.27.17-.4.25-.75.48-.77.54-.35,1.28a5.25,5.25,0,0,0,.33.49c.92,1.26,2.25,2.12,3.27,3.28a1,1,0,0,0,1.31.16A1.31,1.31,0,0,0,50.9,37.39Zm-24.84-.16a1.33,1.33,0,0,0-.23,1.23,5.37,5.37,0,0,1,0,2.36A23.87,23.87,0,0,1,25.29,44c-.13.43.12.66.5.48a4.94,4.94,0,0,0,3-3.35A1.24,1.24,0,0,0,28,39.55c-.32-.09-.84,0-.68-.53s.6-.24.94-.19a1.45,1.45,0,0,1,.22.09c.52.18.77-.05.8-.55a5.14,5.14,0,0,0,0-1.61C27.39,37.68,27.39,37.68,26.06,37.23ZM44.8,38.41c-.16-.22-.55-.25-.6-.54a5.19,5.19,0,0,0-1.82-2.67,1.44,1.44,0,0,0-1.74-.33l-.75.33c-.86.41-.9.45-.34,1.17a7.09,7.09,0,0,1,1.57,3.52,1.07,1.07,0,0,0,.11.33c.22.54.51.64.84.22A11.69,11.69,0,0,1,44.8,38.41Zm3.66-17.19c0-.52.07-1,.11-1.54a.52.52,0,0,0-.44-.61A20.55,20.55,0,0,0,46,18.43a3.72,3.72,0,0,0-2.77.22,6.93,6.93,0,0,1-2.65,1.27c-.13,0-.29.3-.31.47s.2.29.38.37a9.22,9.22,0,0,0,3,.26A1.27,1.27,0,0,0,45,20.25C46,21.52,47.17,21.34,48.46,21.22Zm-31,25.54c.56-.11,1,.14,1.38.14s.87.72,1.4.29a4.19,4.19,0,0,0,.88-1.27,10.65,10.65,0,0,0,.8-1.71c.59-1.82.61-1.82-1.08-2.57-.17-.08-.32-.26-.57-.07A4.56,4.56,0,0,1,19,43.49,4.49,4.49,0,0,0,17.47,46.76Zm9.6-2.06a4.41,4.41,0,0,1-1.42.59c-.33,0-.34.25-.36.5-.24,2.41-.49,4.82-.72,7.23a11.76,11.76,0,0,0,0,1.19.54.54,0,0,0,.32.58.65.65,0,0,0,.75-.22,2.24,2.24,0,0,0,.59-1.26c.32-2.6.28-5.24.92-7.8A1.15,1.15,0,0,0,27.07,44.7Zm30-23.65-.47.91a3.34,3.34,0,0,0-.17.44c-.3.8-.21,1.06.52,1.41.25.12.53.17.78.3a9.45,9.45,0,0,1,2.44,1.33c.28.27.46.24.64.09.56-.48,1.08-1,1.7-1.59-1-.57-1.39-1.55-2.42-2A24.1,24.1,0,0,1,57.08,21.05ZM12.34,39.49c-.61-1.59-1.24-2.92-2.93-3.36A1.64,1.64,0,0,0,7.34,37C6.74,38.4,7,39,8.55,39.36A19.63,19.63,0,0,0,12.34,39.49ZM39.07,58.91a14.62,14.62,0,0,1-4.56-.45,13.88,13.88,0,0,1-5.88-2.13c-.63-.42-1.25-.85-1.89-1.25a1.25,1.25,0,0,0-1.39.53c-.22.41.18.55.41.74a11.31,11.31,0,0,0,5.91,2.32c2.08.29,4.18.46,6.27.68A1.06,1.06,0,0,0,39.07,58.91ZM15.68,21.84a3.23,3.23,0,0,1,3,1.36,5.08,5.08,0,0,1,1.15,4.56,1.61,1.61,0,0,0,.11.92,4.27,4.27,0,0,1-.36,3.46A1.32,1.32,0,0,0,19.81,34,13.71,13.71,0,0,0,20.46,29a10.67,10.67,0,0,1,.14-2,1.89,1.89,0,0,0-.38-1.79,2.42,2.42,0,0,1-.5-1.68c0-.54-.17-.73-.71-.87a2.21,2.21,0,0,1-1.35-1.43A8.13,8.13,0,0,1,17,18.91,3.38,3.38,0,0,0,15.68,21.84ZM46.36,44a11.41,11.41,0,0,0-.84-3.53c-.49-1.35-.65-1.36-1.88-.52-.19.13-.41.23-.59.38-.63.54-.66.78-.09,1.35a8.91,8.91,0,0,1,2.33,3.11.55.55,0,0,0,.53.37c.4,0,.34-.29.41-.45A3,3,0,0,0,46.36,44ZM36.19,17.72c-.25.48-.37,1-.8,1.23-.66.39-.53,1-.53,1.57,0,.33.13.47.46.56a9.9,9.9,0,0,0,2.49.14,1.79,1.79,0,0,0,1.81-1.37c.07-.24,0-.39-.21-.46A34.13,34.13,0,0,1,36.19,17.72Zm15.17,20.8c-.22.2-.38.43-.59.51-.59.21-.56.68-.55,1.17a2,2,0,0,0,.23.79c.46,1,.93,2,1.42,3,.13.27.21.7.56.68s.64-.43.78-.81a2.36,2.36,0,0,0,.09-.7A6,6,0,0,0,51.36,38.52Zm-35.72,18c1.1-.24,1.2-1.08,1.4-1.76a12.42,12.42,0,0,1,1.31-3.4,7.47,7.47,0,0,0,1-2.65c.14-.72.13-.79-.58-1a1.37,1.37,0,0,0-.93-.12C17.91,50.66,16.12,53.36,15.64,56.5ZM54.19,34.77c-.34.78-.34.78.21,1.12l2.44,1.47a3.24,3.24,0,0,0,2.06.44A1.34,1.34,0,0,0,60,36.57c0-.6-.14-.75-.92-1a2.79,2.79,0,0,0-1.76,0,1.26,1.26,0,0,1-.67,0A10.66,10.66,0,0,1,54.19,34.77ZM41.93,54.25a.69.69,0,0,0-.25-.06,33.86,33.86,0,0,1-7.1.7q-.9,0-1.8,0c-.62,0-1.23.38-1.27.7s.45.65,1.21.67a1.92,1.92,0,0,0,.24,0,18.34,18.34,0,0,0,4.73-.57A12.12,12.12,0,0,0,41.93,54.25Zm-12-31.84a1.43,1.43,0,0,0,.83-.3A6.17,6.17,0,0,1,33.69,21c.58,0,.33-.61.38-1s-.06-.62-.51-.61c-1.22,0-2.44,0-3.68,0C29.54,20.53,29.54,20.53,29.91,22.41ZM25.82,61.5a18.33,18.33,0,0,0-2.19-.82,16,16,0,0,1-6-3.24,5.15,5.15,0,0,0-.77-.55c-.36-.18-.6.14-.8.36s0,.46.19.6a21.31,21.31,0,0,0,1.68,1.33A16.66,16.66,0,0,0,24,61.31,3.09,3.09,0,0,0,25.82,61.5ZM.79,35.09c0,1,0,2,0,2.93s.18.95,1,1a7.09,7.09,0,0,1,1.66.08c.24.07.36-.07.41-.29a2,2,0,0,0-1-2.41Zm63.52-5.32a1.7,1.7,0,0,0-2.14.34c-.49.4-.88.92-1.37,1.32a2,2,0,0,0-.73,2.06,4.54,4.54,0,0,0,2.43-1C63.57,32,63.74,30.75,64.31,29.77Zm-40.53-8.5a4.9,4.9,0,0,1-2.4,1.21c-.93.29-1.12.56-.85,1.44.12.38.14.87.6,1.13a5.38,5.38,0,0,1,2.28-1.22c.33,0,.38-.34.37-.65C23.76,22.54,23.78,21.9,23.78,21.27ZM37.32,33.38a9.54,9.54,0,0,0,.49.85c.54.82.62.82,1.55.48a5.33,5.33,0,0,1,1.57-.55.72.72,0,0,0,.74-.5c.07-.38-.25-.64-.5-.9s-.51-.18-.78-.2A6.9,6.9,0,0,0,37.32,33.38ZM20.45,40.13c-.09.36.09.53.46.64a12.82,12.82,0,0,1,1.19.55c1.3.54,1.44.46,1.63-1,.05-.41,0-.76-.49-.79A5.72,5.72,0,0,1,21.56,39c-.62-.23-.73-.18-1,.38A1.93,1.93,0,0,0,20.45,40.13ZM31.54,47.6c0,1.67-.61,3.06-.55,4.55,1.31.13,1.07.19,1.44-.88.11-.3.18-.61.27-.91C33.19,48.71,33.19,48.71,31.54,47.6Zm15.4-17.18a7.13,7.13,0,0,1-2.73.71c-.51,0-.6.33-.54.69a3.56,3.56,0,0,0,.33,1,.57.57,0,0,0,1,.25c.48-.34,1-.64,1.47-1A1.23,1.23,0,0,0,46.94,30.42Zm-32.17,8c1.61-1.39,1-3.35-.91-4.07-.17.16-.13.36-.12.55C13.8,36.08,14.72,37,14.77,38.38Zm17.05-.88c-.16,1.13-.32,1.07.79,1.56a4.73,4.73,0,0,0,.67.2c.81.23,1,.14,1-.65a5.13,5.13,0,0,0,0-1c0-.39-.21-.61-.62-.33A2.11,2.11,0,0,1,31.82,37.5ZM81.67,18.1A4.39,4.39,0,0,0,78,18c-.24.07-.36.51-.28.81s.37.26.61.16a5.06,5.06,0,0,1,.93-.17A6.52,6.52,0,0,0,81.67,18.1ZM19.19,29.29c-.53.23-.85.66-1.37.64s-.54.42-.44.74a3.14,3.14,0,0,0,1.28,1.54A3.84,3.84,0,0,0,19.19,29.29Zm33,1.8a3.55,3.55,0,0,1-1.39.24.32.32,0,0,0-.33.4,4.45,4.45,0,0,0,.62,1.53.42.42,0,0,0,.42.17,1.25,1.25,0,0,0,1-1.37A8.18,8.18,0,0,0,52.2,31.09ZM43,47.64a4.13,4.13,0,0,0,2-1.33c.17-.24,0-.36-.14-.51s-.19-.27-.37-.18c-.7.37-1.4.73-2.08,1.13-.22.13-.21.42-.09.66S42.62,47.64,43,47.64ZM11.73,43.27a2.9,2.9,0,0,0,.32-2.51c-.13-.49-.37-.53-.75-.5s-.43.45-.38.71A4.63,4.63,0,0,0,11.73,43.27ZM1.29,44.43a27.43,27.43,0,0,0,1,6.58c.11-.49.35-.9.27-1.24C2.21,48,1.74,46.21,1.29,44.43Zm63.1-13.18c.85.19,1.71-.11,2.5.31-.36-.73-.65-1.45-1.59-1.39C64.62,30.21,64.51,30.71,64.39,31.25ZM53.17,35.36a3.23,3.23,0,0,0,.4-1.43c0-.36-.21-.65-.59-.58-.89.18-1.1.86-.51,1.55C52.64,35.1,52.8,35.35,53.17,35.36ZM81.55,19.93a3.19,3.19,0,0,0-2.75-.34c-.21.08-.49,0-.48.38s.29.31.52.33A10.87,10.87,0,0,0,81.55,19.93ZM31,54.87c1-.52,1-.65,1-1.48s-.83-.2-1-.7C30.64,53.47,31,54.11,31,54.87ZM55,26.13l.13,0c.18-.39.38-.77.52-1.17a2.22,2.22,0,0,0,.2-.92c0-.2-.09-.63-.49-.52a.44.44,0,0,0-.39.57A13.47,13.47,0,0,1,55,26.13Zm22.77,2.11c-.58-.79-1.16-1.59-1.76-2.36-.1-.14-.25-.37-.48-.15s0,.28,0,.42A5.44,5.44,0,0,0,77.76,28.24ZM3.47,39.91A5.24,5.24,0,0,0,5,43.15,8.8,8.8,0,0,0,3.47,39.91ZM74.81,26.23c0-.3-1-1.14-1.3-1.09s-.41.2-.28.4a2.21,2.21,0,0,0,1,1A.41.41,0,0,0,74.81,26.23Zm-18.65,6c.69.65,1.25.72,1.67.28.1-.11.22-.24.16-.41a.36.36,0,0,0-.37-.23A3.64,3.64,0,0,0,56.16,32.23Zm-46.88-.8-.22-.14c-.16.41-.87.07-.79.64s.52.64,1,.59c.07,0,.13-.07.2-.1ZM2.49,46.89c.31-.93.26-1.36-.37-2.73C1.9,45.07,2.48,45.88,2.49,46.89ZM76.28,18.23a5.16,5.16,0,0,0-.33,1c0,.33.28.45.55.53s.42.07.53-.13,0-.44-.18-.63S76.53,18.58,76.28,18.23Zm-1.22,7.05a1.78,1.78,0,0,0-1.2-1.52c-.06,0-.14.06-.2.11s-.07.29.06.39C74.15,24.6,74.59,24.93,75.06,25.28Zm-16.9,8a6.5,6.5,0,0,0,.73.06.39.39,0,0,0,.41-.45c0-.19,0-.42-.2-.49a.4.4,0,0,0-.53.3A2.75,2.75,0,0,1,58.16,33.24ZM3.24,52.2c.11.57-.27,1.26.35,1.74C3.32,53.39,3.53,52.76,3.24,52.2Zm30-5c-.19.08-.53,0-.48.33a.53.53,0,0,0,.33.29c.28,0,.43-.16.47-.4S33.39,47.25,33.26,47.22ZM48.94,23a1.09,1.09,0,0,0-.45-1A1.6,1.6,0,0,0,48.94,23Zm27.72-5.2.28.23S77,18,77,18a.2.2,0,0,0-.18-.24S76.73,17.79,76.66,17.83ZM6.14,38.23a1.15,1.15,0,0,0,.17-.14c.07-.07,0-.15,0-.18a.12.12,0,0,0-.17.1A.63.63,0,0,0,6.14,38.23ZM5,56l0,.18a.22.22,0,0,0,0-.08A.44.44,0,0,0,5,56Zm-1.21-1.5-.07.06a1.05,1.05,0,0,0,0,.19s.07-.05.07-.07A1.21,1.21,0,0,0,3.77,54.45Zm22.69,7.31.1,0a.24.24,0,0,0-.08-.06h-.1ZM4.79,50.23l-.07-.08a1.06,1.06,0,0,0-.06.19s0,0,.06.08A1.46,1.46,0,0,0,4.79,50.23Zm.16.91s.06,0,.07-.06A.12.12,0,0,0,5,51c0-.07-.08,0-.09.07S4.94,51.11,5,51.14Zm.24.54,0-.06H5.18Zm-.27,2.1,0,0v-.06Zm37.49.2,0,.06h.08ZM4.72,55.29l0-.08H4.69Z"/><path d="M72.06,20a7.06,7.06,0,0,1-3.3,5.65,3.12,3.12,0,0,1-3.47-.22,1.09,1.09,0,0,1-.47-.92,3.88,3.88,0,0,1,0-.84,3.75,3.75,0,0,0-.3-2.88,1.82,1.82,0,0,1,.31-2.11,4.13,4.13,0,0,1,.56-.62A4.54,4.54,0,0,0,67,15.21a3.76,3.76,0,0,1,.54-1.43,1,1,0,0,1,1.69-.3A8.14,8.14,0,0,1,72.06,20ZM68.2,14.53l.06,0-.05,0,0,.05ZM68.44,21c-.21.05-.27.15-.08.31a.31.31,0,0,0,.06-.33l.06,0Zm.25,1.68,0,0,.06,0,.24.18.07-.05C69,22.68,68.79,22.79,68.69,22.72ZM66.52,20c.14,0,.2-.09.19-.21s-.07-.07-.11-.1l-.07.33,0,0ZM71,19.31c-.07.07-.11.09-.13.12s-.29.3-.18.52a.24.24,0,0,0,.17.13c.33,0,.15-.28.19-.43S71,19.49,71,19.31Zm-1.28-1.89c0-.17-.1-.19-.21-.19a.44.44,0,0,0-.22.07c.06.09.1.22.19.28S69.67,17.52,69.72,17.42ZM68.27,20,68,19.78c-.08-.05.86-3.58.83-3.49A31.85,31.85,0,0,0,68.05,20,.59.59,0,0,0,68.27,20ZM70,18.85c0-.09-.13-.17-.24-.12a.26.26,0,0,0-.06.19.16.16,0,0,0,.24.11C70,19,70,18.94,70,18.85Zm-2.59-.55c0,.06-.07.15,0,.19a.2.2,0,0,0,.18.07c.11,0,.12-.06,0-.13Zm2.81-2a1.39,1.39,0,0,0-.11-.21c-.08-.08-.16-.06-.17.06a.3.3,0,0,0,.08.21S70.13,16.34,70.2,16.32ZM67.67,22c0-.11-.07-.13-.15-.05a.3.3,0,0,0-.08.08c0,.07,0,.12.12.12S67.68,22.11,67.67,22Zm1.54-6.8c.12,0,.15-.07.07-.15a.93.93,0,0,0-.2-.09l-.07.18ZM67.3,21s0-.06,0-.07-.08,0-.1,0-.08.09,0,.11S67.27,21,67.3,21Zm2.21-.75s0-.06-.05-.06a.11.11,0,0,0-.1,0c-.07,0,0,.08.06.08A.32.32,0,0,0,69.51,20.2Zm-1.36,4.65c0-.08,0-.14-.08-.15s-.09,0-.09,0l.09.18Zm2.67-6.94-.1-.15s-.07,0-.07.08a1.39,1.39,0,0,0,.06.19Zm-2.42-.38-.08-.17-.06.07c0,.08,0,.14.07.16S68.37,17.55,68.4,17.53Zm-2.47,6s-.07.05-.07.07,0,.12,0,.18.07-.05.07-.07A1.21,1.21,0,0,0,65.93,23.52Zm4.06-.7c0,.07-.06.13,0,.19s.08.11.13,0,0-.07,0-.09A.52.52,0,0,0,70,22.82Zm.51-1a1.52,1.52,0,0,0-.2-.06s0,0-.08.05.08.1.12.1S70.45,21.89,70.5,21.85ZM66,21.29l-.08-.18s-.08,0-.08.07a1.25,1.25,0,0,0,0,.19Zm2.81-5,0,.06h.07Zm-3.37,3.48s.06,0,.06-.06,0-.05,0-.07-.06,0-.06.06S65.42,19.75,65.44,19.77ZM70.2,20.9l.06,0v-.06Zm-3.13,2.16.07.05V23Zm1.32.26-.07,0v.06Zm1.16.47,0,0v.05ZM67.19,25l-.06-.07s-.06,0-.06.06,0,.05.05.08Z"/></g></g></svg>