<svg xmlns="http://www.w3.org/2000/svg" viewBox="0 0 146.95 92"><title>Thysanoessa</title><g id="Layer_2" data-name="Layer 2"><g id="Thysanoessa"><path d="M82.39,48.75c-.49.26-.8-.19-1.17-.33-.21-.08-.13-.33,0-.52s.5-.27.3-.66A1.49,1.49,0,0,1,82,45.38a.83.83,0,0,0,.36-.71c.15,0,.22-.09.27-.22s.41,0,.37-.26a.22.22,0,0,0-.16-.12c-.26,0-.24.21-.19.4-.2,0-.25.06-.26.23-.47.1-.69.94-1.07.71s-.39-.93-.4-1.46c1-1.06,1.1-1.2,1.06-1.87A5.9,5.9,0,0,0,81,44c-.39,0-.63-.12-.51-.56a5.84,5.84,0,0,1,.24-.66l.09,0,0-.05-.09.13c-.49-.06-.63-.32-.38-.73s.6-.53.6-1c.15-.06.3-.11.1-.29l-.07.32c-.29.14-.83-.07-.76.57,0,.13-.14.18-.26.2s-.21-.11-.22-.22c0-.36,0-.71-.06-1.11-.32.41.19,1-.5,1.32a2.12,2.12,0,0,1-1.47,0c-.28-.09-.62-.33-1-.12a.32.32,0,0,1-.31-.07c-.56-.74-1.45-1-2.13-1.63-.48-.42-.19-1-.38-1.45a.67.67,0,0,0-.12.19c-.06.21.07.55-.26.57s-.26-.32-.34-.52-.13-.38-.21-.55-.19-.39-.43-.16-.45.18-.25.42c.79.94.72,2.38,2,3.06a9.16,9.16,0,0,1,2.83,2.72,3.07,3.07,0,0,1,.65,1.75,10.36,10.36,0,0,1-.16,3.33,1.61,1.61,0,0,0,.2,1.48c.19.26.36.63.2.9a5.75,5.75,0,0,0-.59,1.06c-.11.3-.42-.23-.54,0s.11.37.11.56c0,.55-.74.11-.78.51s.28.58,0,.88c-.05,0-.17.08-.21.05-.4-.29-.44-.15-.38.26s.12.91-.57.5c0,0-.21.08-.26.17a.49.49,0,0,0,0,.34c.21.92-.73,1-1.11,1.48-.06.08-.28,0-.43.13-.37.21,0,1-.56.88s-.64.28-.93.45-.3.31-.51.12,0-.41.13-.58.44-.35.55-.67c-.16,0-.31,0-.45-.06-.39-.07-.47-.18-.14-.5.68-.67.86-.81,1.24-.71s.26.26.22.47l-.08.06.05-.08c.2-.19.49-.28.58-.57-.05-.13-.17-.1-.27-.11-.3-.05-.59-.19-.51-.51s.41-.21.66-.1a.92.92,0,0,0,.33.06c.06,0,.13-.09.18-.14s.09-.21,0-.28l-.9-.39c.13-.35.19-.91.4-1,.47-.15,1.06-.36,1.51.15a.36.36,0,0,1-.25.27l-.6.05c.26.16.46.25.58-.07a.36.36,0,0,1,.26-.26,1.35,1.35,0,0,0,.44-.86c-.49,0-.92.29-1.38.18-.17,0-.27-.12-.26-.32s.78-.12.28-.66c-.22-.23.44-.53.22-1-.07-.14.17-.21.32-.26s.69-.09.81-.5c.68,0,.68,0,1-.41-.25.32-.69.15-.94.44a3.87,3.87,0,0,1-.48,0c-.36,0-.55-.18-.18-.5.09-.07.19-.13.16-.27.53.16,1-.24,1.47-.27.32,0,.26-.29.08-.52l-1.52.81c-.23,0-.54.13-.66-.12s.17-.46.41-.58.41,0,.47-.27a8.69,8.69,0,0,0,1-.46l.33-.09s-.08-.11-.12-.11a.18.18,0,0,0-.18.23c-.19,0-.45-.09-.49.24-.19,0-.43-.07-.52.22-.3,0-.63.12-1-.18.55-.72,1.59-.77,2.18-1.43-.27-.43-.46,0-.61,0a6.07,6.07,0,0,0-.92.53c-.27.15-.56.21-.68-.16s.12-.42.38-.47c.56-.11.94-.56,1.45-.79a.56.56,0,0,0,.28-.78l-1.67,1.2c-.28.2-.57,0-.46-.2.29-.49-.2-.74-.22-1.12A.35.35,0,0,0,74,45.6a.6.6,0,0,0,.71-.71c.2,0,.24-.08.26-.23l.12,0s0-.05,0-.08l-.11.14a.3.3,0,0,0-.27.22l-.71.71-.25.27c-.57-.08-.57-.08-.25-.74a.33.33,0,0,0,.26-.25l.07-.08,0,.11a.31.31,0,0,0-.26.25c-.35,0-.73,0-.74-.5l.06,0,0,0c-.32,0-.66-.06-.39-.42a2.21,2.21,0,0,0,.34-1.82c-.47.41-.38,1.13-1,1.54l-.69-1.48c.3,0,.22-.3.26-.49L72,41a.94.94,0,0,0-.66,1c-.32,0-.21.3-.26.48-.73.09-.78,0-.59-.46a3.56,3.56,0,0,1,.68-1.36c-.22-.09-.41-.27-.7-.25-.23.55.06,1.23-.49,1.77-.18.18.12.87.48,1.24.67.69,1.29,1.41,1.93,2.13.16.17.47.37.37.57-.39.78.37,1.42.19,2.17s-.27,1.49-.48,2.2a15.71,15.71,0,0,1-6.85,9,8.3,8.3,0,0,1-2.6.69c-.07,0-.2-.12-.26-.21a.25.25,0,0,1,.15-.38c.93,0,1.23-1.14,2.15-1.07a1,1,0,0,1,1-.81l-.17-.31c-.11-.18,0-.37.11-.4,1-.17,1.4-1.37,2.42-1.57l.09,0,0,0-.1.12a3.69,3.69,0,0,1-.47,0c-.24,0-.38-.31-.19-.39.71-.32.75-1.18,1.36-1.55.27,0,.55.05.74-.22,0-.06.26,0,.07-.17l0,.19c-.28,0-.57-.09-.75.22-.36-.23-.54-.46,0-.76.25-.15.59-.16.76-.45.18,0,.39,0,.47-.25l.31-.08s-.07-.1-.11-.1a.17.17,0,0,0-.17.21c-.19,0-.44-.08-.48.24-.86-.13-.86-.13-.41-.72a5.93,5.93,0,0,0,.25-1.34A3.61,3.61,0,0,1,70.09,49c.31-.49.13-.78-.23-.9-.64-.19-.4-.44-.13-.72s.66-.69,1-1c.09-.1,0-.2-.11-.28s-.14-.06-.2,0l-.59.75c-.12.15-.28.35-.48.21s-.17-.43,0-.63.37-.42.55-.63.22-.23.07-.4-.26,0-.37.06l-.94.87c-.26-.16-.17-.4-.15-.63l.25-.25a.41.41,0,0,0,.19-.51c.1,0,.25.06.15-.14l-.12.17a.37.37,0,0,0-.2.51c-.19,0-.27.06-.24.25-.34-.14-.63-.31-.52-.76a.84.84,0,0,0,.46-.73l.11,0s0,0,0-.07l-.12.13A.74.74,0,0,0,68,45c-.81-.06-.81-.06-.52-.75a1.07,1.07,0,0,0,.59-.68.7.7,0,0,0-.56.71c-.73,0-.73,0-.48-.74.2-.15.44-.29.37-.61a.24.24,0,0,0-.19-.06c-.28.18-.2.44-.15.7-.68-.08-.68-.08-.87-.9-.12.59-.33.94-.87.88.12-.62-.44-1.08-.3-1.7-.22.25-.2.68-.69.26a21.51,21.51,0,0,0-2.09-1.44,14.73,14.73,0,0,0,3.1,2.86A9.57,9.57,0,0,0,67.48,46a3.23,3.23,0,0,1,1.13,3.83,9.91,9.91,0,0,1-3.67,5.53,18.62,18.62,0,0,1-5.73,3.09c-.19.05-.39.16-.52,0s-.12-.43.12-.49c.43-.1,0-.52.3-.67a1,1,0,0,1,.8.05.25.25,0,0,0,.31-.1c.73-1.1.73-1.1,1.7-1.45l.34-.11c-.13-.17-.43-.09-.46-.33S62,55,62.19,55c.46,0,.84-.24,1.29-.29-.12-.24-.54-.25-.47-.57s.26-.27.48-.29a19.12,19.12,0,0,1,2.13-.18c.39,0,.45-.23.62-.5-.79,0-1.45.78-2.26.34,0-.35.24-.36.47-.45s.92-.11.56-.76c.72-.41.48-1.21.75-1.77a10,10,0,0,0,.52-1.78c.19,0,.24-.08.27-.22a.3.3,0,0,0,.25-.23l.1-.07s0,0,0-.07l-.07.16c-.18,0-.25.07-.25.23a.27.27,0,0,0-.27.22c-.52.58-.9-.08-1.29-.2s0-.49.07-.71c.24-.44.33-1,.79-1.28.19-.12,0-.19,0-.26s-.27-.25-.39-.12A4.76,4.76,0,0,0,65,47c-.13.25-.25.59-.58.36s-.72-.26-.59-.77c.06-.23.09-.46.13-.69.14,0,.2-.08.17-.21S64,45.6,64,45.61a.19.19,0,0,0-.12.26,1.78,1.78,0,0,0-.3.17c-.65.55-.72.67-.2,1.29a2.32,2.32,0,0,1,0,3.15,6.24,6.24,0,0,1-2,2.19,22.42,22.42,0,0,1-6,2.32c-.23,0-.53.1-.61-.2s.18-.47.48-.51a6.61,6.61,0,0,0,2.44-.83c.54-.31,1.3-.26,1.88-.62a3,3,0,0,0,1.22-1.09c.23-.42.6-.75.86-1.15.39-.59,1.07-1.08.76-2-.25-.71-.46-1.43-1.25-1.75a2,2,0,0,1-.39-.28l-.08,0h.11a25.82,25.82,0,0,1-.49,3.37c0,.07,0,.16,0,.23-.07.23-.17.47-.47.36a.3.3,0,0,1-.15-.48c.21-.33,0-.7.13-1,0-.09.07-.09.06,0s.09,0,0,0c-.29.47-.57.94-.87,1.4-.1.16-.26.34-.47.17s-.14-.35,0-.54a.33.33,0,0,1,.06-.1c.26-.36.66-.73,0-1.1.4-.63-.36-1.16-.14-1.77l0,0,0,.05c-.35-.08-.54-.24-.31-.62.11-.19.21-.39.31-.58l0,0,0,.06c-.43,0-.61-.2-.44-.58a10.67,10.67,0,0,1,.57-.91c.32-.59.27-.93-.33-1.09s-.74-.53-1.06-.88c-.55-.6-1-1.34-1.87-1.59,0-.18-.12-.22-.25-.24,0-.41.11-.66.53-.49.25.1.42.35.65.52.77.58,1.31,1.4,2.13,2a5.84,5.84,0,0,0-.91-1.32c-.77-.84-1.54-1.7-2.87-1.38l-.26-.25c.09-.74.11-.77.6-.45s.68,0,.87-.37c-.36-.23-.75-.08-1.08-.3a1.12,1.12,0,0,1-.6-1,.32.32,0,0,1,.29-.33c.1,0,.3,0,.31.09.14.88.88.75,1.47.9,1,.25,1.06.22,1.68-.7l-.85,0c-.24,0-.52,0-.5-.34s.25-.33.5-.26.63.06.65-.31c0-.6.42-.57.84-.57s.7.12.81,0c.52-.66,1.21-.39,1.84-.47.29,0,.62-.12.52-.47s.09-.46.38-.55c1-.31,1-.32,1.73-1.28-2.22.65-4.37,1.44-6.54,2.19a20.37,20.37,0,0,1-6.72,1.36,15.47,15.47,0,0,1-6.84-1.32c-.26-.13-.58-.31-.76,0A5,5,0,0,1,41,37.17c-.44.26-.39.76,0,1.59.27.54.54.21.85.06.48-.22.79,0,.68.51a10.57,10.57,0,0,1-.37,1.25c-.07.19-.15.37-.22.55s.09.46.31.55a.37.37,0,0,0,.52-.32,4.16,4.16,0,0,1,.52-1.57c.11-.21.3-.46.56-.34s.16.41,0,.61a2.43,2.43,0,0,0-.33,1.37c0,.37-.1.79.42.79s.25-.42.29-.66.08-.55.15-.82.07-.65.35-.87c.12-.09.22-.27.4-.15s.27.25.15.39c-.54.62-.12,1.4-.38,2.06-.17.42.22.36.38.4s.36-.13.34-.36a5,5,0,0,1-.12-.94c0-.42-.07-1,.56-1.15a2.13,2.13,0,0,1,.11,1.23,1.27,1.27,0,0,0,.85,1.4c.51.26.71.17.8-.39s-.16-1,.26-1.59c.27.51.51.87,1.08.8.38,0,.62.32.85.6s.22.52.68.49a7.18,7.18,0,0,0-.67-2,10.43,10.43,0,0,1-.77-1.33s.07,0,.1,0,0,0,0,0l-.11.09c-.48,0-1,0-1.28.47-.2.31-.68.23-.86.59a.25.25,0,0,1-.4.07.42.42,0,0,1-.09-.45.77.77,0,0,1,.47-.51,9.2,9.2,0,0,1,1.86-1c-.08-.47-.46-.7-.62-1.06a.36.36,0,0,1,0-.45c.15-.14.3,0,.41.06a2.67,2.67,0,0,1,.8,1.3A12.58,12.58,0,0,0,50,39.66a1,1,0,0,0,.91.67c.42,0,.79,0,.95-.53a2.4,2.4,0,0,1-.42-.23A1.28,1.28,0,0,1,51,38.43c0-.49.47-.45.79-.55s.19-.49.53-.32c.36.49-.07.9-.12,1.35l-.08.06s0,0,0,.06l.07-.14c1.36-.31,1.51-.49,2.19.73l.26.26c.14.24.2.54.47.7,0,.13.05.27.23.25A5,5,0,0,0,56.06,43,6.64,6.64,0,0,1,57,45.81a1.1,1.1,0,0,0,.13.56,3.86,3.86,0,0,1,.61,2.6,2.51,2.51,0,0,0,.07.94c.27.76.25.77-.47,1.4-.09.07-.11.21-.17.31-.24.37-.23,1.13-1.06.55-.21-.15-.62.29-.79.6a2.59,2.59,0,0,1-.9.93.31.31,0,0,1-.43,0c-.22-.19-.07-.34.06-.49s.19-.26.28-.38l0-.05,0,.06c-.64.2-1.29.38-1.92.6a4.38,4.38,0,0,1-1.65.09.29.29,0,0,1-.29-.31.32.32,0,0,1,.26-.35c.39,0,.79-.06,1.2-.08-.17-.36-.49-.76.26-.73s1.43.16,1.83-.66c.05-.1.31-.07.44-.14s.69,0,.71-.67c0-.33.84-.44,1.3-.65.17-.07.41,0,.48-.24l.06,0,0,0c-.68.13-.78-.3-.74-.91a6.7,6.7,0,0,1-1.35.77c-.18.07-.36.21-.51,0s0-.36.14-.51a2.37,2.37,0,0,0,.29-.34c.19,0,.41,0,.48-.24.15,0,.25-.09.24-.26.16,0,.22-.09.25-.23l.09,0,0,0-.09.12c-.13,0-.23.09-.25.23a.27.27,0,0,0-.24.26c-.19,0-.44-.09-.49.23-.19-.21-.81-.27-.25-.74.09-.08.15-.13,0-.21-.44-.19-.26-.42,0-.59a5.86,5.86,0,0,0,1.22-1.11c.13-.14.3-.28.21-.51.12,0,.21,0,.15-.13l-.13.15c-.32.3-.63.61-1,.88a.43.43,0,0,1-.64,0c-.14-.21.08-.32.24-.45s.5-.3.37-.66c.2,0,.25-.08.27-.23l.25-.24.24-.24a.35.35,0,0,0,.11,0s0,0,0-.07l-.12.13-.23.24-.25.24-.27.23c-.2.09-.37.4-.61.17s0-.43.17-.6a2.85,2.85,0,0,0,.9-1.19c-.5,0-.62.46-.88.68-.5.41-.68.37-.91-.28,0-.11,0-.24-.12-.31a14.4,14.4,0,0,1-1.4-1.62.92.92,0,0,0-.87-.37c-.19.46.11.81.28,1.2a11.55,11.55,0,0,1,1.07,4.47c0,.24.08.6-.12.67-.43.17-.61.65-1.05.76-.18.05-.35-.16-.28-.27.44-.66-.1-1.33.08-2s-.53-1.07-.61-1.69c0-.18-.28-.37-.13-.54.64-.7,0-.88-.43-1.21s-.51-.61-.81-.87-.75-.28-.95.27c-.35,1-.63,1.14-1.55.7-.36-.17-.66-.44-1.08-.12a.63.63,0,0,1-.58,0c-.62-.49-1.58,0-2.09-.78-.16-.23-.44-.12-.67-.15-.92-.13-1.24-.6-1-1.5.09-.34.24-.67.4-1.1-1.29.19-1.37-1-2-1.64a17,17,0,0,0-2.2,2.15c.51.52,1,1,1.49,1.52a15.51,15.51,0,0,1,1.65,1.89c.3.39.67.83.63,1.26-.08.92.48,1.43.93,2.08a8.07,8.07,0,0,1,1.57,4.3,15.62,15.62,0,0,1,0,3.68,6.48,6.48,0,0,1-.88,2.31c-.08.12-.17.29-.37.23s-.3-.23-.22-.36c.28-.42-.4-.51-.26-.89s.33-.64.23-1c.15,0,.21,0,.21-.18s-.06-.09-.1-.13l-.08.34c-.19.1-.37.35-.6.18s-.07-.39,0-.6a2.54,2.54,0,0,0,.1-.55c.24-.07.21-.29.25-.46s.1-.18.14-.27,0,0,0-.06l-.08.35c-.3,0-.28.24-.24.46-.23,0-.41.35-.62.18s-.14-.48,0-.73a1.63,1.63,0,0,0,.09-.45c.05,0,.25,0,.12-.14l-.09.17c-.18,0-.3.26-.52.09s-.14-.31,0-.49a1,1,0,0,0,.05-.34.28.28,0,0,0,.26-.25.55.55,0,0,0,.23-.46c.28-.08.17-.32.23-.5.07,0,.25,0,.13-.14l-.1.17a.73.73,0,0,0-.23.5c-.28.05-.17.3-.23.46a.25.25,0,0,0-.26.24c-.61-.22-.62-.26-.25-1l.23-.49L41,51.1l0-.05-.09.14c-.25.08-.14.33-.23.49a1.42,1.42,0,0,1-.36,0c-.3-.14-.22-.4-.14-.61s-.08-.29-.26-.37c-.34-.15-.12-.36-.06-.58.15-.51,0-1.11.44-1.55a.33.33,0,0,0,0-.32c-.53-.41-.43-1.19-1.16-1.59A7.12,7.12,0,0,1,36.81,44c-.47-.73-1-1.46-1.45-2.17A2.45,2.45,0,0,0,33,40.62c-.16,0-.32,0-.48,0a3.69,3.69,0,0,1-3.3-1.2,1.39,1.39,0,0,0-.44,2A4.85,4.85,0,0,0,30.17,43a8.45,8.45,0,0,1,3,4.15.58.58,0,0,0,.24.36C35.22,48.93,35.63,51,36.08,53c.09.42.13.86.2,1.29.27,1.63-.47,3-1.17,4.39a.36.36,0,0,1-.51.14c-.26-.14-.11-.33,0-.5s.12-.2.18-.3c-1-.35-.12-.88-.12-1.32.23-.1.19-.32.21-.5s.26,0,.12-.16l-.09.19a.4.4,0,0,0-.21.49c-.25-.07-.46.39-.71.09s0-.5.16-.71a.89.89,0,0,0,.28-.6c.23-.1.17-.32.21-.5s.26,0,.11-.15l-.08.18a.4.4,0,0,0-.21.5c-.74-.2-.74-.2-.44-.82a2,2,0,0,0,.14-.43l.11,0,0-.06-.11.13c-.2.08-.39.36-.62.19s0-.41.07-.61a1,1,0,0,0,0-.34c.15,0,.21-.13.27-.25.23-.08.16-.31.23-.48a.36.36,0,0,0,0-.09l.06-.06-.07.18c-.18.11-.2.3-.24.48l-.26.24c-.12,0-.28,0-.33-.05-.19-.25-.07-.63-.52-.81-.29-.12.25-.51.12-.82l.05,0,0,0c-.15,0-.43,0-.41-.13.08-.5-.31-.89-.28-1.31s-.57-.85-.23-1.38c.14-.21-.07-.22-.21-.28a8.89,8.89,0,0,1-3.51-3.29c-.31-.41-.54-.88-.84-1.3a1.65,1.65,0,0,0-2.22-.67,5,5,0,0,1-3,.3.9.9,0,0,0-1.2.56,18.13,18.13,0,0,1,3.08,1.78,3.2,3.2,0,0,1,1.74,2.15c.05.33.34.52.58.73a9.9,9.9,0,0,1,3.4,6.73,6.3,6.3,0,0,1-1.47,4.64.34.34,0,0,1-.43.09c-.18-.08-.18-.23-.1-.39l.57-1c.27-.08.18-.33.23-.51a.23.23,0,0,0,.19-.23s-.07,0-.11-.06l-.05.32a.49.49,0,0,0-.23.51c-.71,0-.71,0-.53-.7a1.85,1.85,0,0,0,0-.33c.11,0,.22.07.16-.12l-.13.15c-.19.1-.36.36-.6.16s0-.34,0-.51.37-.51.31-.85c.29,0,.22-.3.25-.49a1.57,1.57,0,0,0,.19-.26A.18.18,0,0,0,28,55.9a1.55,1.55,0,0,0,0,.21c0,.12,0,.23,0,.34-.32,0-.21.3-.25.49-.22.06-.39.34-.63.16s-.09-.34,0-.53a3.09,3.09,0,0,0,.38-1.33c.37-.16.14-.51.23-.76.34-.2.27-.47.1-.86l-.07.89a1,1,0,0,0-.23.76c-.17,0-.18.21-.26.34s-.27.43-.54.26-.15-.39,0-.6a.59.59,0,0,0,.06-.55c.14.05.23.05.16-.13l-.13.16c-.25,0-.47,0-.48-.3l0-.68c.15,0,.21,0,.21-.16s0-.07-.06-.1l-.12.29c-.2,0-.38,0-.48-.22a2.16,2.16,0,0,1-.2-2.08c.17-.65-.09-.85-.53-1.1a1.54,1.54,0,0,0-.75-.33,3.85,3.85,0,0,1-2.64-1.46,10.06,10.06,0,0,0-3.36-2.42,2.74,2.74,0,0,0-.45.84,2.54,2.54,0,0,1-1,1.3c-.29.18-.65.36-.64.8a9.13,9.13,0,0,0,.1,2c0,.09.17.16.26.22a4.83,4.83,0,0,0,2.16,1,2.66,2.66,0,0,1,2.56,1.76c1.32,1.14,1.56,2.81,2.1,4.32A9.63,9.63,0,0,1,23,65.59l-.09.22a.29.29,0,0,1-.37.2c-.19-.06-.21-.22-.2-.38,0-.44.36-.8.32-1.26a1.67,1.67,0,0,0,.18-.28c0-.1,0-.22-.11-.26s0,.15,0,.22,0,.23,0,.35c-.36.06-.23.78-.68.6s.06-.67-.07-1a.48.48,0,0,1,0-.12l.17-.24s0-.08,0-.08-.05.23-.1.35c-.3,0-.5-.1-.53-.48s.31-.65.21-1c-.23,0-.44.56-.58.12a9.94,9.94,0,0,0-.78-1.88,1.78,1.78,0,0,1,0-1.28c.17-.5.14-1,.34-1.51a.76.76,0,0,0-.57-1.11c-.65-.09-.95-.56-1.33-.93a9.15,9.15,0,0,0-1.9-1.44c-.25-.14-.55-.22-.64.21-.31,1.6-1.53,2.09-2.9,2.41-.06,0-.11.1-.27.24.53.14,1,.29,1.46.38a4.69,4.69,0,0,1,3.1,2.23,12,12,0,0,1,1.94,6.88,16.83,16.83,0,0,1-.47,3.3c-.06.29-.15.55-.53.42s-.8-.21-.62-.69a7.43,7.43,0,0,0,.18-1.54,1.43,1.43,0,0,0,0-1.39v1.42a.55.55,0,0,0-.24.37c-.14.38-.32.44-.52,0a6.87,6.87,0,0,1-1-3.36l0,0a.46.46,0,0,1-.46-.45,2.8,2.8,0,0,1,.09-.7c.43-2.16-.21-3.11-2.48-3.65l0,0,.06,0c0,1,.59,1.81.52,2.79,0,.11.09.25,0,.35-.39,1.06.17,1.93.52,2.87a29,29,0,0,1,1,4.63c.27,1.36.5,2.72.77,4.08a1.35,1.35,0,0,0,.47.82,3.56,3.56,0,0,1,1,1.15.93.93,0,0,0,.54.43,28.92,28.92,0,0,0,2.73,1.11,38.85,38.85,0,0,1,6.38,2.61,32.41,32.41,0,0,0,7,2.38c2.07.54,4.1,1.2,6.15,1.8a46.47,46.47,0,0,1,5.41,2.08c.43.19.85.43,1.26.66a.31.31,0,0,1,.14.41.32.32,0,0,1-.42.13c-.4-.15-.72-.51-1.21-.45-.07-.28-.3-.22-.49-.21,0-.06,0-.24-.14-.13l.17.1c.08.22.26.26.47.24.13.35.45.51.73.71s.31.38.14.6-.33,0-.5-.07c-.54-.29-.93-.84-1.57-1a.8.8,0,0,0-.72-.48c-.1-.26-.31-.21-.51-.2,0-.19-.09-.24-.24-.27l0-.06.06,0a.33.33,0,0,0,.24.27.47.47,0,0,0,.51.2c.12.33.3.58.71.48.12.46.56.64.81,1s.26.44.05.64-.35,0-.5-.14c-.55-.38-.86-1.06-1.59-1.19a.29.29,0,0,0-.24-.26s0,0-.06-.08h-.06l.15.07c0,.18.05.27.24.25,0,.53.49.77.77,1.14s.63.44.23.74-.56-.13-.75-.38a3.46,3.46,0,0,0-1-1,.36.36,0,0,0-.26-.25c0-.14-.12-.2-.24-.24s-.12-.2-.25-.23a.27.27,0,0,0-.24-.24c0-.14-.11-.2-.24-.24l0-.06.06,0c0,.12.1.22.24.24s.1.22.24.24.1.22.25.23.09.23.24.24.09.25.25.25c0,.36.25.56.43.81s.4.37.13.59-.52.06-.67-.23a1.25,1.25,0,0,0-.16-.17.22.22,0,0,0,0-.08s0,0,0,0l.12.09c0,.34.22.9-.57.62-.17-.06-.71-.06-.79.07-.26.44-.5.11-.77.11s-.06.18,0,.25.24.34.06.52a.45.45,0,0,1-.55.07,22,22,0,0,0-4.32-1.13l.59.36c.2.13.64.07.5.5s-.41.32-.7.34a11,11,0,0,1-3.87-.58,30.36,30.36,0,0,1-5.31-2.09c-2.72-1.4-5.59-2.48-8.38-3.75-2.2-1-4.5-1.82-6.34-3.5-1.58-.39-2-1.82-2.58-3C9,78,8.65,76.81,8.22,75.7a9.3,9.3,0,0,0-1.88-3,8.28,8.28,0,0,1-1.76-3C3.8,67.52,3,65.32,2.11,63.15a9.3,9.3,0,0,0-1.43-2.6A2.85,2.85,0,0,1,0,58.69a25.57,25.57,0,0,1,.8-7.34,9.35,9.35,0,0,0,.05-3.8,4.7,4.7,0,0,1,.6-3.44A3,3,0,0,0,2,42,1.3,1.3,0,0,1,2.14,41a21.9,21.9,0,0,1,2.37-3.57,1,1,0,0,0,.35-.85,1.38,1.38,0,0,1,.49-1.17,29.14,29.14,0,0,0,3.24-3.52,6.12,6.12,0,0,1,3-1.88A7.52,7.52,0,0,0,13.7,29a3.49,3.49,0,0,1,1.44-.81,6.18,6.18,0,0,0,3.42-1.67,4.94,4.94,0,0,1,3-1.07,7.19,7.19,0,0,0,2.54-.59A9.42,9.42,0,0,1,28.62,24a2.2,2.2,0,0,0,1.92-.41c.13-.13.46-.11.69-.09a5.06,5.06,0,0,0,2.24-.29,8.72,8.72,0,0,1,5.06,0,4.4,4.4,0,0,0,1.3.1c.74-.06,1.44-.27,2.13.32.26.22.85,0,1.17-.31a7.57,7.57,0,0,1,4.23-2c1.48-.3,2.93-.73,4.37-1.17a17.05,17.05,0,0,1,5.32-.53,4.22,4.22,0,0,0,1.06-.06c1.7-.4,3.43-.59,5.16-.84a43.7,43.7,0,0,1,7.41-.18,9.9,9.9,0,0,1,3.93.87,6,6,0,0,0,2.66.56c1.6-.06,3.2,0,4.79-.17a8.31,8.31,0,0,1,1.91.16c.16,0,.31.07.34.26a.44.44,0,0,1-.18.52c-.21.11-.44.18-.65.28a27.78,27.78,0,0,0-2.64,1.11c-.92.53-.93.53-.49,1.61.54-.34.87-.92,1.5-1.13a2.44,2.44,0,0,1,3.27,2.77c0,.2-.05.4-.07.6L85,26l0-.11c.39.06.44-.17.48-.48a21.67,21.67,0,0,1,.47-3,7.19,7.19,0,0,1,.27-.78.66.66,0,0,1,.23-.21c.5.49.59-.08.81-.3.43-.44.48.08.66.26-.31,0-.14.33-.25.48s-.27,0-.1.17l.08-.2.24-.47c.33-.06.46-.66.84-.41s-.26.57-.1.91a.46.46,0,0,0-.37.48.44.44,0,0,0,.34-.5,1.14,1.14,0,0,0,.22-.07c.27-.19.54-.66.87-.31s-.28.54-.35.86l0,.09,0-.12.6,0c.63,0,.63,0,.46.77.86.09,1.57-.43,2.38-.59a4.23,4.23,0,0,1,.8-.18c1.13,0,1.39.24,1.22,1.34a9,9,0,0,0,1.95-.8,6.75,6.75,0,0,1,2.48-.8c.43,0,.59-.39.31-.76a6.67,6.67,0,0,0-1.09-1.1,4.52,4.52,0,0,1-1-1.18,1.65,1.65,0,0,1-.16-.44.34.34,0,0,1,.21-.38.28.28,0,0,1,.4.12c.26,1,1.17,1.48,1.8,2.18a1.59,1.59,0,0,1,.53,1.36c-.09.95.33,1.31,1.26,1.22a2.52,2.52,0,0,0,.79-.22c4.16-1.79,8.45-3.22,12.62-4.95a83.77,83.77,0,0,0,13.4-7,101.59,101.59,0,0,0,9.2-6.43A31.15,31.15,0,0,0,141.66.53c.22-.26.48-.74.84-.43s-.14.63-.34.84A42.86,42.86,0,0,1,135.28,7a113.59,113.59,0,0,1-12.82,8.07c-2.38,1.25-4.81,2.41-7.22,3.61a3,3,0,0,0-1.63.77c-.19,0-.43,0-.49.25l-.33,0s0,.11.08.12a.23.23,0,0,0,.23-.19c.19,0,.44.06.48-.25a3,3,0,0,0,1.74-.65A34,34,0,0,0,120.09,17c2-.87,3.89-1.81,5.88-2.61a103.28,103.28,0,0,0,17.87-9.7c.86-.56,1.66-1.23,2.5-1.84.16-.12.35-.24.53-.05s0,.38-.12.51a24.68,24.68,0,0,1-3.46,2.55A147.32,147.32,0,0,1,118,18.78c-4.51,1.84-9.11,3.44-13.76,4.92-1,.31-2,.57-3,.82-.31.08-.54.16-.55.51s.38.52.67.54c.59.07,1.19,0,1.79.05a54.81,54.81,0,0,0,5.86.25c5-.27,10.07,0,15.1-.21a36.81,36.81,0,0,0,8.3-.88,1.39,1.39,0,0,1,.35,0c4.66,0,8.87-1.56,12.93-3.69.37-.19.88-.8,1.19-.2.22.43-.52.59-.88.77a31.32,31.32,0,0,1-7.47,3c-2.06.44-4.13.78-6.2,1.09l-6.13.89a1.49,1.49,0,0,1-.36.05c-1.72-.11-3.41.35-5.14.26-2.11-.1-4.23.33-6.34.17-3.28-.24-6.56-.14-9.84-.17a.76.76,0,0,0-.51.13c1.25.51,2.5,1,3.74,1.54,4.09,1.74,8.28,3.23,12.45,4.76,3.16,1.16,6.21,2.62,9.49,3.47,4.06,1.06,8.11,2.17,12.17,3.26a2.53,2.53,0,0,1,1.27.58,1.65,1.65,0,0,1-1.49.09A194.56,194.56,0,0,1,117,33.1c-5-2.05-10.17-3.81-15.22-5.8a3.74,3.74,0,0,0-1.41-.12,4,4,0,0,0-2.9.76l2.67,1.31c.28.14.58.26.86.42s.69.34.51.69-.58,0-.81-.12a27.67,27.67,0,0,0-4.91-2.12c-.38-.1-.52-.47-.82-.64-.28.18-.47.45-.78.51a.47.47,0,0,0,.41.31,13.05,13.05,0,0,1,5.75,2.45c.31.22.88.48.63.85s-.65-.09-1-.29a1.09,1.09,0,0,0-.64-.3.86.86,0,0,0-.7-.49.51.51,0,0,0-.49-.23c-.09-.24-.3-.21-.49-.23,0-.28-.31-.18-.47-.25L97,29.63s-.08,0-.08.05.24.05.35.1.27.23.47.25c.07.26.3.2.49.23,0,.3.28.23.48.23a.63.63,0,0,0,.71.49,1.33,1.33,0,0,0,.09.21c.16.2.55.42.32.65a1,1,0,0,1-1.15.3c-.4-.22-.71-.63-1.22-.63,0-.16-.1-.23-.24-.27s0-.26-.16-.08l.19.05a.3.3,0,0,0,.24.27,2.78,2.78,0,0,1,.21.27c.06.09.15.21.13.3a.27.27,0,0,1-.38.15c-.32-.13-.62-.31-.93-.46l0-.06.06,0c0,.24,0,.52-.36.45a1.69,1.69,0,0,1-.53-.28c-.49-.31-1-1.1-1.47-.85-.65.33-1.1-.12-1.66-.06-1.31.13-2.63,0-4,.06-.35,0-.72-.09-1,.21.92-.09,1.79.22,2.69.21a1.58,1.58,0,0,1,1.15.24c.8.72,1.78.62,2.75.77a55.37,55.37,0,0,1,7,1.38,48.63,48.63,0,0,1,11.23,4.52,78.52,78.52,0,0,1,10.39,6.78c.8.66,1.57,1.37,2.31,2.1.2.2.73.45.33.83s-.54-.15-.74-.34a43.28,43.28,0,0,0-5.11-4.15,97.38,97.38,0,0,0-8.35-5.09,35.94,35.94,0,0,0-11.12-3.63c-1.25-.23-2.49-.47-3.74-.69a8.6,8.6,0,0,0-1,0A56.65,56.65,0,0,1,101.89,38a49,49,0,0,1,6.21,4.65c1.29,1.12,2.69,2.12,4,3.22a49.26,49.26,0,0,1,6.09,6.08,20.32,20.32,0,0,1,2.47,3.23c.16.29.7.7.15,1s-.49-.38-.68-.65a46.57,46.57,0,0,0-6.84-7.67A98.08,98.08,0,0,0,98,36.83a39.72,39.72,0,0,0-4.45-2.29,11.34,11.34,0,0,0-1.91-.66c-.79-.17-.83-.2-1,.59-.11.52-.58.3-.84.52s-.36-.17-.52-.33,0-.71-.39-.95c-.36.18,0,.63-.36.83-.08,0-.22-.07-.26-.15s-.1-.37-.17-.56a.42.42,0,0,0-.48-.26c-.17,0-.14.24-.16.39-.08.65-.09.65-.72.41,0-.18,0-.37-.16-.51,0,.17-.21.41.18.49-.07.22.09.55-.18.65s-.54-.16-.59-.43c-.16-.86-.8-.94-1.45-.89-1.53.11-3-.25-4.52-.29A5.44,5.44,0,0,1,78,32.66a.66.66,0,0,0-.82.07,3.18,3.18,0,0,1-2.34.69,2,2,0,0,0-2.12,1.1,8,8,0,0,0,2.46-.45c.33-.2.69-.42,1,.09.2.33.4,0,.59-.09.41-.16.81-.43,1.12.14a.23.23,0,0,0,.2.1c1.2-.27,2.18.54,3.3.66.23,0,.52.15.7.05a.91.91,0,0,1,1.39.38.28.28,0,0,0,.21.1c1.64,0,2.43,1.36,3.48,2.25a6.61,6.61,0,0,1,1.84,3.53,3.78,3.78,0,0,1-.68,3.59c-.15.17-.17.44-.3.64a4,4,0,0,1-.81,1.17c-.13.11-.26.19-.42.07s-.12-.28,0-.42.33-.45.46-.7a1.78,1.78,0,0,0,.36-1.22c.08,0,.22.07.15-.12l-.12.15a1.9,1.9,0,0,0-.24.25c-.1.13-.24.24-.38.16a.35.35,0,0,1-.11-.42c.17-.51.64-.88.72-1.44.48,0,.5-.31.37-.76l-.34.79c-.18,0-.31.26-.53.08s-.15-.3,0-.5c.2-.42.38-.85.56-1.28.12,0,.2-.09.18-.22s-.07-.05-.11-.07l0,.32c-.35,0-.53.69-.86.38s.12-.68.31-1,.3-.27.18-.52-.29.05-.38.21-.26.46-.53.38-.09-.49-.21-.72c.1,0,.15,0,.15-.07s-.06,0-.07,0,0,.06-.06.1c-.24-.09-.43-.21-.37-.51s.14-.67.23-1.07c-.36,0-.23.35-.35.49s-.38.17-.45-.08a5.62,5.62,0,0,1,0-.71c-.06-.4-.13-.66-.52-.15-.2.26-.41,0-.44-.25-.06-.53-.12-.25-.26,0a.21.21,0,0,1-.37,0c-.09-.22-.1-.47-.18-.69s-.06-.28-.32-.15c-.46.22-.51.18-.62-.24s-.32-.64-.64-.1a.3.3,0,0,1-.5.06c-.37-.41-.4-.22-.49.19,0,.23-.31.15-.48,0-.35-.29-.58-.82-1.19-.54v-.08l0,0c-.15.81-.17.82-.71.38-.29-.25-.52-.62-1-.58-.17.2.08.25.13.35s.27.32.06.5a.3.3,0,0,1-.43-.06c-.29-.34-.51-.5-1-.15-.34.24-.64-.56-1.14-.43,0-.44-.25-.46-.59-.41a.57.57,0,0,0,.61.38c-.12.74-.21.83-.61.47s-.91-.4-1.15-1c-.17-.42-.51.09-.81.14a3.72,3.72,0,0,0,3,1.59,22.35,22.35,0,0,1,5.37,1,3.76,3.76,0,0,1,2.09,1.89c.7,1.27,1.56,2.52,1.46,4.09,0,.08,0,.2,0,.23.93.63.35,1.66.64,2.46.1.26.25.82-.45.61-.29-.09-.18.17-.18.26,0,.48,0,1,0,1.44,0,.26.08.56-.27.74-.43-.21-.17-.65-.34-1a10.36,10.36,0,0,1-1,2.09c-.12.15-.21.41-.43.32s-.23-.39-.11-.6a1.25,1.25,0,0,0,.19-.55l.08,0s0,0,0,0l-.1.12c-.36.14-.43.54-.68.78a2.16,2.16,0,0,1-.83.63.42.42,0,0,1-.52-.15c-.1-.15,0-.26.18-.36a2.74,2.74,0,0,0,.87-.92.35.35,0,0,0,.25-.26l.06,0,0,.06c-.14,0-.25.09-.25.26-.46-.15-1.1.67-1.34,0-.15-.42.7-.45,1.06-.73s.8-.5,1-1c.39.06.66,0,.63-.52A1.24,1.24,0,0,0,82.39,48.75ZM71.12,49l.08,0,0,0-.11.1c0,.08,0,.09-.07,0Zm-.25-.72a.3.3,0,0,0,.25-.23.26.26,0,0,0,.23-.25.35.35,0,0,0,.11,0s0,0,0-.08l-.1.14c-.14,0-.23.09-.24.24s-.23.08-.24.23l-.08.07Zm11.52-.48.25-.24.22,0c.12,0,.22-.06.21-.21a.31.31,0,0,0,0-.1,2.26,2.26,0,0,0-.26.16.63.63,0,0,0-.1.2l-.25.22,0,.05Zm-12-.25c.15,0,.21-.11.25-.24a.3.3,0,0,0,.24-.23L71,47,71,47l-.09.12-.25.23-.24.24s-.07,0-.09.06,0,0,0,.05Zm-15.1,0,.24-.24.23-.24.24-.24.25-.24.06,0,0,.06-.24.25-.24.24-.24.24-.25.22-.06.05Zm27.11-.72.06,0,0,0-.05.05ZM66.8,46.35c0,.13.06.28.26.23,0,.61.47.76.85,1a2,2,0,0,0-.88-1,.23.23,0,0,0-.26-.23.2.2,0,0,0,0-.11s0,0-.07,0Zm7.91-.25a.33.33,0,0,0,.24-.24.29.29,0,0,0,.24-.24.23.23,0,0,0,.23-.24c.17,0,.22-.1.25-.24l.07,0,0,.06a.26.26,0,0,0-.25.24.27.27,0,0,0-.23.24c-.12,0-.22.1-.24.23s-.23.1-.25.24l-.07.07ZM62,45.17c0,.12.1.22.25.23a.62.62,0,0,0,.47.62c.36-.38.71-.75,1.08-1.11.13-.14,0-.22,0-.29s-.17-.14-.29,0c-.36.36-.62.86-1.24.82,0-.17,0-.3-.26-.22.06-.21-.07-.25-.23-.26-.06-.25.57-.42,0-.8a1.64,1.64,0,0,1-.59-1.67.53.53,0,0,0-.22-.67c-1-.77-2-1.52-3-2.31a1.14,1.14,0,0,0-1.53-.14s0,.09,0,.11c1.21,1.17,2.67,2.13,3.33,3.78a.43.43,0,0,0,.27.22c.8.24,1.17,1,1.82,1.45Zm-3.12,0,.06,0,0,0c0,.08,0,.09-.06,0Zm23-1.2a.26.26,0,0,0,.24-.23.62.62,0,0,0,.22-.48l.11,0s0,0,0-.07l-.12.14c-.18.11-.17.3-.22.47a.26.26,0,0,0-.25.22l-.05,0Zm-27.36-.48.05,0,0,0-.05.05Zm32.41-5a.73.73,0,0,0,.05.09s0,0,0,0l-.13-.1-.24-.24,0-.07.06,0Zm-21.38-.94,0,0-.07,0c0-.18-.08-.23-.22-.25s-.23-.32-.35-.46-.2-.27-.09-.42a.35.35,0,0,1,.44,0,2.11,2.11,0,0,1,.92.74c.45.7,1.13.74,2,.84-1-.91-2.11-1.27-2.86-2.16a.71.71,0,0,0-.45-.14,2.48,2.48,0,0,1-1.55-.48c-.18-.15-.47-.16-.52,0-.17.54-.91.49-1,1a23.24,23.24,0,0,0,3.05,2.72,1.18,1.18,0,0,0-.81-1.52,1.72,1.72,0,0,1-.44-.19.38.38,0,0,1-.17-.51c.13-.21.33-.16.53-.08.47.2.83.62,1.39.63A.27.27,0,0,0,65.58,37.48ZM40.64,90l0,.09.05,0-.13-.09,0-.07Zm-1.93-1.2,0,.07-.07,0c0-.14-.12-.19-.24-.23a.23.23,0,0,0-.24-.23,1.75,1.75,0,0,0-.05-.33.16.16,0,0,0-.27-.06.33.33,0,0,0,.08.16,2.69,2.69,0,0,0,.27.2.29.29,0,0,0,.24.23C38.52,88.7,38.57,88.8,38.71,88.82Zm.72-.23,0,0-.06,0-.05-.06Zm.48-.48.05,0-.06,0,0-.05ZM66.54,34.39a.24.24,0,0,0-.24-.26c-.14-.56-.59-.9-.88-1.35a1.29,1.29,0,0,0-.9.77l1.8.55a.29.29,0,0,0,.25.26l.5.23c0,.64.43.94.9,1.11a3.55,3.55,0,0,0,2.24.27A3.93,3.93,0,0,0,67,34.61C66.91,34.44,66.71,34.44,66.54,34.39ZM62.47,43.7c.13,0,.2-.09.19-.22s-.08,0-.12-.08l0,.33c0,.06-.25,0-.11.14Zm5.77,12.76a2,2,0,0,0-.35.06s0,.11.09.12a.21.21,0,0,0,.24-.2l0,0Zm1.92-19.71c.06,0,.16-.09.16-.14s-.06-.14-.11-.07a.57.57,0,0,0,0,.23S70.05,36.88,70.16,36.75Zm-11,10.79a.21.21,0,0,0,.18-.23s-.07-.05-.11-.07l0,.33-.11,0s0,0,0,.07ZM28.16,52.59c.06,0,0,.26.15.1l-.18-.07c0-.18.06-.43-.22-.5-.24-1.09-1.14-1.69-1.8-2.46a.28.28,0,0,0-.42,0c-.17.14-.14.3,0,.38,1,.46,1.47,1.4,2.22,2.08A.58.58,0,0,0,28.16,52.59ZM18.31,63.14l.06.07-.08,0c0-.19.07-.41-.19-.51a3.57,3.57,0,0,0-.48-1.42c-.12-.26-.28-.49-.61-.45a.46.46,0,0,0-.29.16c-.14.3,0,.52.24.71l1.11,1C18.07,62.88,18.1,63.06,18.31,63.14ZM70.65,39.4c-.08,0-.09,0,0,0s-.06-.08,0,0a1.75,1.75,0,0,0,.06.33c0,.13.16.13.27.05a.53.53,0,0,0-.1-.16A2.41,2.41,0,0,0,70.65,39.4ZM56.48,50.7a.72.72,0,0,0-.67.45,1,1,0,0,0,.67-.46c0-.08.06-.09.05,0S56.62,50.62,56.48,50.7Zm15.6-14.45,0,.07,0,0c-.24-.17-.37-.52-.75-.45a1.64,1.64,0,0,0-1.18-1,2.07,2.07,0,0,0-.27-.37c-.08-.06-.26-.11-.3-.07-.19.2.09.23.16.32a.38.38,0,0,0,.43.09,1.73,1.73,0,0,0,1.19,1A.69.69,0,0,0,72.08,36.25ZM63,48.06,62.91,48,63,48c0,.32.15.54.4.83A.69.69,0,0,0,63,48.06ZM85,37l.27.17.07-.06c-.09-.14-.24,0-.36-.08-.15-.55-.66-.49-1-.66A1.8,1.8,0,0,0,85,37ZM65.83,48c.29-.21.73-.33.6-.84,0,0-.07-.08-.09-.07a.91.91,0,0,0-.49.94c-.14,0-.23,0-.12.16Zm3.37-7.91c-.19-.32-.5-.19-.77-.2-.12-.45-.55-.26-.78-.4-.59,1.62.61,2.13,1.71,2.7a2.73,2.73,0,0,0-1.11-1.75c-.42-.25-.37-.36.21-.58.21.23.49.2.76.21a1.46,1.46,0,0,0,.61,1.07C70,40.55,69.89,40.13,69.2,40.12Zm2.62,10.05a3.16,3.16,0,0,0,.39-2.11,7.8,7.8,0,0,0-.36,2.14c-.22.15-.33.31-.06.56Zm-9.59-3.34.07.06-.09,0c-.25-.89-1-1.35-1.54-2-.08.36-.16.66.17.9S61.77,46.46,62.23,46.83Zm10.08-6.71s0,.23.15.06l-.18,0c0-.89-.78-1.31-1.17-2a.35.35,0,0,0-.53,0c-.2.24.06.34.18.46C71.27,39.14,71.79,39.63,72.31,40.12Zm-2.63-.74a.42.42,0,0,1,0,.1l.06,0-.13-.09c0-.38-.49-.5-.55-.89,0-.08-.16-.15-.25-.23-.44.65-1.14-.13-1.66.32A12.56,12.56,0,0,0,69.68,39.38ZM73.76,42c0-.06-.06-.15-.12-.18s-.19-.18-.26,0,.09.17.19.19a1.62,1.62,0,0,0,.22,0,6.16,6.16,0,0,0,3,2.68C75.61,43.68,75,42.58,73.76,42Zm-8.17,3.11.06.1.06,0-.14-.09A5.87,5.87,0,0,0,63,42.53c-.05-.05,0-.27-.17-.09l.19.06A6.07,6.07,0,0,0,65.59,45.15Zm-1.43-5.76c0,.1,0,.28.15.08,0,0-.08-.11-.16-.06a12.57,12.57,0,0,0-3.46-3A8.21,8.21,0,0,0,64.16,39.39Zm7.21-6.73c0,.4,0,.84.52.91s.84.2,1.09-.43a5.14,5.14,0,0,1-1.64-.45,3.86,3.86,0,0,0-2.56-.42l.56,1a1,1,0,0,0,.12.2c.48.53.86.5,1.12-.14C70.74,32.9,70.84,32.56,71.37,32.66ZM32.22,90.05a2.64,2.64,0,0,0,.29.15.31.31,0,0,0,.2,0c0-.2-.12-.08-.19-.1a1.77,1.77,0,0,0-.33,0A6.32,6.32,0,0,0,28,88.46C29.37,89.26,30.59,90.16,32.22,90.05Zm29.54-48.5a.47.47,0,0,0,.05.1l.06,0-.14-.1a2,2,0,0,0-.14-.43c-.81-1.22-2.15-1.84-3.21-2.78-.14-.13-.21,0-.29.08s-.22.28,0,.39C59.34,39.66,60.36,40.86,61.76,41.55Zm-6.73,1,0,.05-.06,0c0-1.19-1-1.92-1.39-3-.11-.3-.49-.2-.74-.13s-.21.39-.21.61.21.43.37.59ZM75.21,38.2,75,38.08c-.1-.06-.16,0-.11.05s-.06,0,.1,0l.21,0a7.08,7.08,0,0,0,5.07,1C79.26,38.56,77.61,38.26,75.21,38.2Zm-64.33,25c-.23-.29-.5-.25-.89-.08l.91,0c.57.36,1.13.73,1.71,1.07s.86,0,.77-.46A9,9,0,0,0,13.09,62a10.77,10.77,0,0,1-.84-4.42c0-.38-.11-.56-.52-.64a5.14,5.14,0,0,1-2.53-1.5,10.49,10.49,0,0,1-2.11-3.31,2.75,2.75,0,0,0-2.85-1.87,2.34,2.34,0,0,1-1.83-.73c-.17-.15-.31-.38-.6-.37a19.5,19.5,0,0,1-.18,2.14A24.83,24.83,0,0,0,.8,58.37c.08,1.49.6,2.08,2.11,2.13.78,0,1.57,0,2.41,0A4.4,4.4,0,0,0,5.21,59a2.3,2.3,0,0,1,0-1.3.37.37,0,0,1,.35-.27.29.29,0,0,1,.31.29c0,.36,0,.72,0,1.08.06,1.14.08,2.3,1.42,2.8a2.13,2.13,0,0,1,.65.52,3.19,3.19,0,0,0,1.24.7c.15.06.26.11.39,0,.36-.48.36-.48.72-.41.8.16,1,.05,1.05-.8a3,3,0,0,0,.05-.94c0-.17.11-.29.29-.29a.25.25,0,0,1,.25.21,2.74,2.74,0,0,1,.07.69A1.88,1.88,0,0,0,12.56,63c.13.12.29.31.07.51a.35.35,0,0,1-.53,0A1.4,1.4,0,0,0,10.88,63.17ZM34.16,39.38c.34,0,.43.3.6.51a1,1,0,0,0,1.28.37c.47-.19.83-.47.74-1.07a1.42,1.42,0,0,1,.08-.71c.11-.26.22-.71.65-.49s0,.48-.06.72-.13.2,0,.34a18.69,18.69,0,0,1,4-3.16,1.53,1.53,0,0,0,.42-.42c.43-.56.41-.67-.15-1.11A6.28,6.28,0,0,1,39.21,30c-.05-.46-.23-.57-.59-.71a2.8,2.8,0,0,0-1.06-.14c-1.44,0-2.88,0-4.32,0a3.88,3.88,0,0,0-1.38.26,3.31,3.31,0,0,1-1.21,3.4,5.19,5.19,0,0,0-1.57,3.36c-.24,2.44,1.37,4.48,4.81,3.53ZM6.52,62.24c0-.09,0-.15,0-.17s0,.06,0,.07a.31.31,0,0,0,.09.07,34.44,34.44,0,0,0,1.21,4c.06.18.06.44-.16.52s-.34-.14-.41-.32A15.87,15.87,0,0,1,6,62.65a1.29,1.29,0,0,0-1.11-1.26,10.43,10.43,0,0,0-2.79-.08c1,2.37,1.94,4.69,2.77,7A10.06,10.06,0,0,0,7,72.2a10.5,10.5,0,0,1,2.31,4c.19.57.41,1.12.65,1.67a12.54,12.54,0,0,0,1.41,2.75c.45.59.54.58,1.16.2a22.88,22.88,0,0,0,1.88-1.67A1.18,1.18,0,0,0,14.92,78c-.05-.44.07-.79.64-.75.25,0,.35-.16.34-.38a9.39,9.39,0,0,0-.09-1.19c-.45-2.3-.94-4.59-1.36-6.89-.36-2-1-3.73-3.17-4.46A10.88,10.88,0,0,0,10,63.87a4.76,4.76,0,0,1-2.82-1.41C7,62.28,6.8,62.11,6.52,62.24ZM20,42.26l0,0a2.79,2.79,0,0,0-.6-1.41,4.45,4.45,0,0,1-.52-3.1c.19-1,.53-2,.75-3a2.93,2.93,0,0,0,0-1.66c-.14-.41-.34-.58-.78-.24-1,.78-2.07,1.48-3.08,2.27s-1.9,1.57-2.85,2.36c-.12.1-.23.22-.4.08s-.17-.33,0-.49.21-.24.33-.35a42.23,42.23,0,0,1,5.56-4.32c.64-.42.72-.58.36-1.2s-.9-1.42-1.26-2.17a.75.75,0,0,0-.87-.44,4.48,4.48,0,0,0-2.51,1,6.16,6.16,0,0,1-2.21,1.15,6,6,0,0,0-3.25,2.3,18.29,18.29,0,0,1-2.31,2.59c-.9.83-.87.88-.13,1.84S8,39.16,8.77,40.05a4.25,4.25,0,0,1,1.38,2.58,7.11,7.11,0,0,0,1.4,3.6,4.05,4.05,0,0,0,4,1.78,1.66,1.66,0,0,0,1.46-1.82c-.21.32-.41.65-.63,1a.27.27,0,0,1-.4.09.34.34,0,0,1-.09-.43,11.46,11.46,0,0,1,.92-1.35c.09-.11.3-.35.51-.21.49.31.71-.11,1-.32a13,13,0,0,1,1.12-.69c1.27-.65,1.27-.64.67-1.87C20.14,42.33,20,42.3,20,42.26Zm50.9-10.8a.22.22,0,0,0,.25.19c.09,0,.12-.09.06-.11s-.22,0-.34-.05c-.29-.39-.29-.77.19-1A3.39,3.39,0,0,1,72.23,30c.12.38.22.72.35,1.05,0,.05,0,.3.17.13.71-.56.7.26,1,.53.06.05,0,.24,0,.33a.23.23,0,0,1-.4,0c-.35-.45-1.16.08-1.36-.65l-.28.41a12.72,12.72,0,0,0,1.93.68c2.3.42,3.73-.1,4.16-2.34a3.42,3.42,0,0,1,1-2A4.26,4.26,0,0,1,80,21.74c.51-.35,1.05-.65,1.62-1-1.36,0-2.63,0-3.91,0a6.63,6.63,0,0,1-3.15-.51,9.39,9.39,0,0,0-3.8-.92,41.4,41.4,0,0,0-10.36.59,14.58,14.58,0,0,1-4.12.56,13.27,13.27,0,0,0-5.06.64,25.08,25.08,0,0,1-4.38,1.1,6,6,0,0,0-2.61,1.13c-.59.42-.6.56-.12,1.1a3,3,0,0,1,.54.78,1.27,1.27,0,0,1-1.11,1.95c-.43.06-.88,0-1.32,0a1.86,1.86,0,0,0-1.91,1.35c-.35,1.43-.46,2.9,1.1,4.15l0,0a4.22,4.22,0,0,0,2.21,1.89,14,14,0,0,0,4.78,1.31,15.57,15.57,0,0,0,6-.43c2-.52,4-1.23,6-1.92C63.75,32.33,67.17,31.15,70.88,31.46ZM21,42.36a1.28,1.28,0,0,0,.79.64,4.52,4.52,0,0,0,2.93-.1c1.31-.44,2.51-1.08,2.85-2.62a2,2,0,0,1,.66-1.11.9.9,0,0,0,.3-1.06A5.51,5.51,0,0,1,30,32.32a3.4,3.4,0,0,0,1.06-1.83c.12-.77-.17-1.1-.92-.87-.95.29-1.93.4-2.9.6s-2,.37-3,.55a.4.4,0,0,1-.49-.25c-.09-.32.23-.45.41-.44,1.1,0,2.09-.47,3.17-.54a22.82,22.82,0,0,0,3.36-.71.39.39,0,0,0,.35-.51c-.23-1-.48-2-.71-3a.62.62,0,0,0-.68-.53,10.85,10.85,0,0,0-4.69.59,9.9,9.9,0,0,1-3.56.87,5.26,5.26,0,0,0-2.9,1.3.77.77,0,0,0-.23,1.21c.44.67.77,1.4,1.22,2.05a5.86,5.86,0,0,1,.62,5.57,5.07,5.07,0,0,0,.85,5.36c.29-.13.57-.27.87-.37s.5-.1.58.22a.37.37,0,0,1-.32.43A3.12,3.12,0,0,0,21,42.36ZM5.2,37.87a17.08,17.08,0,0,0-2.35,3.51.7.7,0,0,0-.07.45,3.79,3.79,0,0,1-.7,2.79c-1.23,2.24-.29,4.59,2.59,4.83a3.14,3.14,0,0,1,2.86,1.77c.41.82.85,1.63,1.32,2.41A6,6,0,0,0,11.35,56c1.35.66,4.12,0,4.25-2.2a8.21,8.21,0,0,0,0-1.92,12.81,12.81,0,0,1-.2-2.14c0-.63.07-.88-.85-.93A3.78,3.78,0,0,1,12.09,48,7.65,7.65,0,0,1,9.4,43a2.55,2.55,0,0,0-.3-1A3,3,0,0,0,8,43.55a15.07,15.07,0,0,0-1.25,2.78.36.36,0,0,1-.47.27c-.26-.09-.22-.3-.13-.49a20.28,20.28,0,0,1,2.55-5ZM41.09,86.73A5,5,0,0,0,39.57,86a46.6,46.6,0,0,0-4.91-1.41,36.75,36.75,0,0,1-8.07-2.8,24.58,24.58,0,0,0-6.46-2.38.94.94,0,0,0-1.11.29c.61.45.57,1.33,1.28,1.78a25,25,0,0,0,3.75,2.09,50.61,50.61,0,0,0,6,2.07,35.23,35.23,0,0,0,9.62,1.54A1.86,1.86,0,0,0,41.09,86.73ZM31.87,28.66c.64-.16,1.28,0,1.9-.13a9.28,9.28,0,0,1,4.82.23.64.64,0,0,0,.92-.46,2.45,2.45,0,0,1,1.82-1.72.68.68,0,0,0,.48-.85,7.23,7.23,0,0,0-.15-.81c-.25-.88-.33-.91-1.24-.88a10.6,10.6,0,0,1-2.25-.15,7.26,7.26,0,0,0-3.2-.26,15.76,15.76,0,0,1-4.17.7A30.74,30.74,0,0,1,31.87,28.66Zm4,59.92a8.47,8.47,0,0,0-2.47-1.35,42.1,42.1,0,0,1-4.16-1c-3.51-1-7-2.14-9.91-4.51-.52-.42-.92-.23-1.41.12a12.36,12.36,0,0,0,1.75,1.65c1.58,1,3.21,1.92,4.74,3a7.59,7.59,0,0,0,3.5,1.12,31.45,31.45,0,0,1,4.93.79A11.16,11.16,0,0,0,35.86,88.58ZM81.7,30.9a44.53,44.53,0,0,1,4.86-.37c2.18-.11,4.38-.07,6.56-.27a2.9,2.9,0,0,0,2.17-1A2.07,2.07,0,0,0,94,28.85c-1.24,0-2.48,0-3.72,0a43.58,43.58,0,0,0-5.81.54c-.44.05-1,.08-1.18.78,0,.22-.32.31-.56.38S82.05,30.78,81.7,30.9Zm7.41-5.74c0,.6.41,1,.69,1.54a.34.34,0,0,0,.42.14c1.18-.41,2.26.09,3.37.33.68.15,1-.06.8-.76a5.51,5.51,0,0,1-.27-1.5c0-.44,0-.88,0-1.32S94,23,93.56,23a2.76,2.76,0,0,0-.82.12,11.11,11.11,0,0,1-2.72.76C89.35,24,89.11,24.41,89.11,25.16Zm.22-2A4.71,4.71,0,0,0,87,23.6a1.39,1.39,0,0,0-.64.51.44.44,0,0,0-.07.45c.12.24.25,0,.37,0s.34,0,.44.13,0,.29-.11.42c-1,1.57-2.58,2-4.24,2.33a1,1,0,0,1-.7-.13c-.66-.34-1.36-.6-2-.88-.39-.17-.82-.36-1.09-.08s0,.73.24,1l.17.18c.53.69.53.69-.09,1.47a2.33,2.33,0,0,0,1.25-.32,4.4,4.4,0,0,1,.87-.35A14.19,14.19,0,0,0,87,26.59a1.06,1.06,0,0,1,.21-.11c.31-.06.59-.16.77.29s.67.37,1.11.27c0-.75-.75-1.16-.72-1.9S89,23.87,89.33,23.15Zm5.29,1.27A13.52,13.52,0,0,1,95,26c.09.83.63,1.09,1.35,1.14a3,3,0,0,0,1.07,0c.57-.18,1.41-.27,1.43-1a9.35,9.35,0,0,1,.83-3.2C97.68,22.61,96.37,24.12,94.62,24.42ZM12.83,81.72c3,2.14,6.43,3.24,9.68,4.62a27.92,27.92,0,0,0-2.82-1.91,7.5,7.5,0,0,1-2.24-2c-.39-.51-.75-1-1.13-1.54a1.46,1.46,0,0,0-2.41-.24Zm6-36A20.53,20.53,0,0,1,23,48.9a2,2,0,0,0,1.29.56c.79,0,1.2-.45,1-1.2a2.08,2.08,0,0,0-.84-1.12A29.08,29.08,0,0,0,20.82,45a1.1,1.1,0,0,0-1.2,0A1.84,1.84,0,0,0,18.87,45.68Zm8-2.87a5.9,5.9,0,0,1,1.77,2.09,10.64,10.64,0,0,0,2.45,2.77c.31.24.68.76,1.11.45s.23-.89.17-1.34a2,2,0,0,0-.39-.73,12.09,12.09,0,0,0-1.89-2.15A7.76,7.76,0,0,1,28,41.32C27.78,42,27.24,42.29,26.91,42.81Zm8.83-1.56c1,1.16,1.69,2.61,2.68,3.86a3.45,3.45,0,0,0,1.23,1.11c.31.14.64.22.89,0a.84.84,0,0,0,.26-.87,5.64,5.64,0,0,0-.5-1.09,25,25,0,0,0-2.23-2.48C37.39,40.94,36.72,40.44,35.74,41.25Zm45.45-9.62c-.54-.45-.52-.8-.09-1.16a2.6,2.6,0,0,1,1-.45c.64-.19.66-.29.35-.86s-.68-.34-1-.16a10.36,10.36,0,0,1-2.33.8c-.19.05-.43,0-.46.28a7.51,7.51,0,0,1-.43,1.47c-.09.25.1.45.28.59a1.16,1.16,0,0,0,1.23.19C80.15,32.14,80.61,31.9,81.19,31.63Zm-.47,1c.64.43,1.28.16,1.84.35.25.08.54.28.73,0s0-.46-.19-.63-.28-.31,0-.49a.38.38,0,0,1,.53,0c.14.13.33.3.35.47.1.9.72.87,1.37.84h1.2c.2,0,.38,0,.42-.3a1.4,1.4,0,0,0-.88-1.5,9.77,9.77,0,0,0-3.53.23C82.14,32.21,81.38,32.21,80.72,32.63ZM16.38,52.17c.14.62-.24,1.18.47,1.49a6.75,6.75,0,0,1,2.34,1.8c.23.26.46.61.89.44a1.13,1.13,0,0,0,.57-.87,1.29,1.29,0,0,0-.34-1.31,2.34,2.34,0,0,0-1.55-.79A6.23,6.23,0,0,1,16.38,52.17Zm2.32,28.4c-.19-.4-.6-.58-.69-1s.49-.61.65-1c-.43,0-.79,0-1.14,0s-.49-.14-.32-.46c.3-.57-.06-.83-.45-1.14-.19.87-.17,1-.51,1-.5.1-.51.36-.56.75a.69.69,0,0,0,.46.87,1.87,1.87,0,0,1,.91.93c.25.58.61.47,1,.28ZM16.81,59.92a4,4,0,0,0-2.87-1.76c-.26,0-.57-.12-.79.11a1.1,1.1,0,0,0,.43,1.49,9.48,9.48,0,0,1,2.63,1.45C16,60.44,16.41,60.2,16.81,59.92ZM87.5,32.11a.62.62,0,0,0,.51.79,7.55,7.55,0,0,0,2.59.23.83.83,0,0,0,.8-.68A6.42,6.42,0,0,0,87.5,32.11ZM32.41,89.17c1.88.9,4,1,6.06,1.55-1.55-1.21-2-1.39-3.68-1.38A10.56,10.56,0,0,1,32.41,89.17ZM68.9,34a2.62,2.62,0,0,0-.84-1.36c-.12-.13-.17-.43-.41-.3-.41.2-.9,0-1.25.29-.18.15,0,.36.08.52A2,2,0,0,0,68.9,34Zm15,10.33c0-1.85-1.42-4.33-3-4.93A16,16,0,0,1,83.86,44.32ZM42.42,24.75A2.81,2.81,0,0,1,42.58,26c0,.31.17.4.45.41a.92.92,0,0,0,.85-.31.7.7,0,0,0-.12-.87,9.38,9.38,0,0,0-.82-.85.41.41,0,0,0-.33,0C42.44,24.41,42.39,24.56,42.42,24.75Zm.34,24.69a7.1,7.1,0,0,0-1.38-2.51c-.19-.25-.35-.24-.6-.09-.45.27-.37.58-.07.86C41.35,48.27,42,48.81,42.76,49.44ZM22.61,58.27a13.13,13.13,0,0,0-1.24-3.08c-.92.91-.3,1.58.37,2.23C22,57.68,22.15,58.08,22.61,58.27ZM66.23,35.7c.59.39,1.16.8,1.77,1.16s1.06,1,2.06,1c-.43-.46-.66-.89-1-1.06C68.16,36.37,67.18,36.12,66.23,35.7Zm14.4-.23a12.94,12.94,0,0,0-5.93-.21C76.64,35.22,78.55,35.75,80.63,35.47ZM72,46.39a13.6,13.6,0,0,0-3.43-3.62,18,18,0,0,0,1.5,1.68C70.75,45,71.08,46,72,46.39ZM88.69,28.24c-.35-.87-1.27-.39-1.72-.89,0,0-.44.12-.39.33s.11.66.52.66A5.84,5.84,0,0,0,88.69,28.24ZM51.49,41a2.05,2.05,0,0,1,1.43,1.12,4.78,4.78,0,0,0,.69.81c.12.14.27.34.44.06s.25-.33.05-.52a.87.87,0,0,0-.16-.17,7.33,7.33,0,0,1-1.58-1.41C52.11,40.64,51.87,40.8,51.49,41Zm15.45-.79c.3-1.11-.83-1.12-1.15-1.76-.25.3-.12.73-.64.79Zm19.2-11.74c0-.27-.19-.47-.35-.44a6.06,6.06,0,0,0-2.58.91ZM34.75,50.77a5.61,5.61,0,0,0-1-2.06,1.33,1.33,0,0,0-.45-.37c-.06,0-.22,0-.3.1s0,.19.06.33C33.55,49.49,34.27,50,34.75,50.77ZM66,35a1.25,1.25,0,0,0-1.19-.63,4.06,4.06,0,0,0-1.24.16A3.53,3.53,0,0,0,66,35ZM80.16,24.58a2.94,2.94,0,0,1-1.12.21.37.37,0,0,0-.41.34c0,.27.19.32.4.32a2.74,2.74,0,0,1,1.06.16s.13-.05.19-.08ZM76.93,45.4v3.14A3.44,3.44,0,0,0,76.93,45.4ZM65.26,40.13a6.07,6.07,0,0,0,2,1.84C67.08,41,66.29,40.61,65.26,40.13Zm18.55-15c0-.22,0-.51-.3-.53a.51.51,0,0,0-.59.56.48.48,0,0,0,.48.55C83.78,25.68,83.81,25.38,83.81,25.09ZM70.63,34.26l.42.32c.25.19.51.36.75.55s.2.09.29,0,.16-.14.08-.29C71.84,34.18,71.6,34.07,70.63,34.26ZM59.48,37.61c.42.22.72.4,1,.54.07,0,.22,0,.3-.12s.07-.25,0-.39C60.43,37,60,37.41,59.48,37.61ZM93.39,28c-.28-.45-.71-.29-1-.49a.21.21,0,0,0-.35.14c0,.2,0,.4.27.43A2,2,0,0,0,93.39,28ZM33,90.89c.58,0,1.09.57,1.74.22A2.26,2.26,0,0,0,33,90.89ZM99.74,24.25c0,.6-.3.87-.21,1.25C100.2,25.3,100.2,25.3,99.74,24.25ZM56.87,47.6l-.19.39c-.19.33.1.48.25.68,0,0,.1,0,.11,0,.19-.2.1-.43.06-.65A2.08,2.08,0,0,0,56.87,47.6ZM90,27.4c-.18.4-.62.43-.55.75s.36.22.5.13C90.26,28.1,90,27.82,90,27.4Zm1.35.43c-.07-.23-.17-.48-.53-.39-.2,0-.21.19-.17.35a.41.41,0,0,0,.51.33C91.28,28.1,91.47,28.09,91.34,27.83ZM72.45,37.66a1.56,1.56,0,0,0-1.65-.26A6.9,6.9,0,0,1,72.45,37.66Zm-13-.78a2.64,2.64,0,0,0-1.27,0C58.73,37.28,59.07,36.91,59.44,36.88ZM79.7,23.94l-.31-.71C79,23.94,79,23.94,79.7,23.94ZM60.14,38.77c.18.26.32.43.55.48a.4.4,0,0,0,.06-.21C60.7,38.72,60.44,38.78,60.14,38.77Zm13.8,4.75c0-.19-.11-.33-.26-.34s-.13.21-.13.32-.09.33.13.32A.3.3,0,0,0,73.94,43.52Zm10,2a1.55,1.55,0,0,0,0,1.12A1.59,1.59,0,0,0,83.94,45.54ZM100.79,26.3a1.58,1.58,0,0,0-1.16,0A1.86,1.86,0,0,0,100.79,26.3ZM75.4,52.75c-.12-.2-.31-.14-.48-.11s-.29,0-.16.11.33.13.5.18C75.28,52.94,75.33,52.83,75.4,52.75ZM23.25,62a.63.63,0,0,0,.05-.22c0-.1.08-.25-.1-.31A.59.59,0,0,0,23.25,62Zm63.5-22.39c.11,0,.15-.07.09-.17s-.14-.24-.22-.24-.12.15-.1.25A.17.17,0,0,0,86.75,39.58Zm8.4-6.28c-.07,0-.13-.09-.2-.09s-.38,0-.33.08S95,33.38,95.15,33.3ZM22.36,62.78l-.09-.18c0,.06-.08.13-.07.19a.48.48,0,0,0,.08.18Zm.59.08a2.18,2.18,0,0,0,0,.34c0,.12.09.13.13,0a.49.49,0,0,0,0-.21S23,62.93,23,62.86ZM96.19,33.59l.23-.06a1.8,1.8,0,0,0-.21-.08,1,1,0,0,0-.23.06ZM76.77,40.93c0-.07.07-.14.06-.2s0-.22-.11-.18,0,.14,0,.21A.7.7,0,0,0,76.77,40.93Zm-12.15-.24-.08-.21c0,.06-.09.13-.09.2s0,.21.1.21S64.59,40.76,64.62,40.69ZM70.71,52.8a.75.75,0,0,0-.2.1c-.08.07-.05.13.06.13a.36.36,0,0,0,.21-.05C70.84,52.91,70.8,52.84,70.71,52.8ZM100,24l.35,0s.09,0,.08-.06-.15-.11-.24-.09S100.09,23.9,100,24ZM62.69,39.44c-.09,0-.16,0-.17.09a2.23,2.23,0,0,0,0,.23c.06,0,.13-.09.18-.14S62.79,39.48,62.69,39.44Zm4.49,18-.33,0s-.09.06-.09.06a.21.21,0,0,0,.26.11S67.1,57.55,67.18,57.48Zm.52-9c0-.11-.07-.13-.14,0a1,1,0,0,0-.1.18c.06,0,.15.07.17,0A.47.47,0,0,0,67.7,48.47ZM21.15,59l-.07-.22A1.67,1.67,0,0,0,21,59a.17.17,0,0,0,0,.11C21.09,59.13,21.13,59.1,21.15,59ZM83.29,44.75c-.07.08-.14.12-.14.17a1.59,1.59,0,0,0,.06.3s.11-.09.11-.13A2.24,2.24,0,0,0,83.29,44.75Zm-56.71,8s0,.08,0,.1.09.06.09-.06S26.6,52.73,26.58,52.72ZM54.27,52l.11,0-.11,0ZM64.73,46c.08,0,.09-.05,0-.15s-.06,0-.06,0S64.73,45.92,64.73,46ZM65,54.41s-.06-.07-.08-.07a1.59,1.59,0,0,0-.2.07s.06.08.08.07A.8.8,0,0,0,65,54.41Zm18.74-7s0-.08,0-.11-.08-.09-.11,0a.61.61,0,0,0,0,.11Zm14-13.59.11,0s-.06-.06-.09-.06a.35.35,0,0,0-.11,0ZM82.2,20.57s0,0,0,0h-.1s0,.05,0,.05ZM27.05,53.73v.19s.06-.05.06-.08a.17.17,0,0,0,0-.1S27.07,53.73,27.05,53.73ZM93.21,33h-.1s0,.06,0,.06l.1,0ZM63.77,40.73s0,.08,0,.1.09.05.09-.07Zm13.76-.14,0-.1s-.07,0-.06.06a.51.51,0,0,0,.07.15Zm-55,21.22s0-.07,0-.09-.07,0-.07.06Zm-.73-.26s-.07.05-.07.07,0,.13.05.19.07-.05.07-.07A.59.59,0,0,0,21.8,61.55Zm6.73-8.35,0,.18s.05-.06.05-.08S28.54,53.23,28.53,53.2ZM22.92,86.55l.08,0v-.08Zm13.34,1.22-.07,0v.06ZM87.31,22.53l0-.06h-.06Zm9.14,6.87,0,.05h.06Zm.17,1.48.08,0v-.08Zm-7,3.13.07.05V34Zm.3.41,0,.08H90ZM83.5,36.11l0,.06.08,0Zm-17,2,0,0v.06Zm-6.75.55,0-.07h-.08Zm14.88.16,0,.06h.05Zm-13.52.73.08.05v-.08Zm2.29.48-.08,0V40ZM80.3,40l.07,0V40ZM61.88,42.34l-.05.07h.08Zm21.18,3.91-.08,0v.08Zm-42.6,4.06.07,0v-.07Zm.77.31.05-.07H41.2Zm26.41-.08,0,.05h0Zm-34.13.26.06,0v-.07Zm8.44.05,0-.06h-.07Zm28.79.24.05-.07h-.08Zm-37.38.2-.06,0v.07Zm42.44.2,0,.06h.06Zm-.55.26.09,0v-.08Zm2.28,0,0-.07s-.06,0-.06.06,0,.05,0,.07ZM74.65,52l-.07,0V52Zm-8.25.28,0,0h-.06Zm-.43.15,0,.05H66Zm-24.25.25,0,.06h.06Zm28.61,1.24-.07,0V54Zm-6.5,1.43,0,0v.05ZM28.22,57.52l.07,0v-.07Zm-5.93,2.09-.05.07h.07Zm-4.88,3.66.08,0v-.08Z"/><path d="M49.44,53.06c.25,0,.37,0,.49,0s.31.06.29.27a.26.26,0,0,1-.22.23c-.3.07-.6.17-.9.23a.37.37,0,0,1-.44-.29c0-.23.16-.33.34-.38A1.89,1.89,0,0,1,49.44,53.06Z"/><path d="M73.1,23.55c-.46-.28-.39-1-1.14-1.09-.38,1.66-1.65,2.76-2.81,3.93a7.83,7.83,0,0,1-5.87,2.49,16.79,16.79,0,0,0-4.31.79,10.42,10.42,0,0,1-1.62.35,2.48,2.48,0,0,1-2.44-1.23c-.59-1.09-1.28-.93-2.18-.65a40.6,40.6,0,0,1-5.61,1,17.56,17.56,0,0,1-4.16.23c-.16,0-.35,0-.37-.22s.2-.31.4-.3c2.37.1,4.66-.51,7-.75a23.06,23.06,0,0,0,4.38-1,.9.9,0,0,0,.69-.73A5.53,5.53,0,0,1,57,23.36c1-.87,2.07-1.75,3.12-2.6.22-.17.56-.53.82-.16s-.2.5-.43.68c-1.12.91-2.25,1.79-3.33,2.73a4.5,4.5,0,0,0-1.37,2.08,5.12,5.12,0,0,1-.3.77c-.19.4-.7.78-.29,1.28s.89,1.13,1.72,1.17a7.42,7.42,0,0,0,2.58-.41,17.06,17.06,0,0,1,4.57-.75,6.2,6.2,0,0,0,3.42-1.23,15.43,15.43,0,0,0,3.11-3.14c.85-1.1.7-1.45-.68-1.91-.49-.16-1-.3-1.47-.48-.22-.08-.49-.22-.39-.5s.35-.21.59-.13c.9.3,1.81.57,2.71.87a5.56,5.56,0,0,0,.91.25C73.18,22,73.4,22.46,73.1,23.55Z"/><path d="M74.59,26.06a5.4,5.4,0,0,0,.59-2,4.64,4.64,0,0,1,.7-1.61c-.15-.37-.5-.42-.77-.51a1.59,1.59,0,0,1-.77-.54.44.44,0,0,1,0-.64c.2-.17.34,0,.47.18a2.81,2.81,0,0,0,1.6.7,4.52,4.52,0,0,1,1.65.65.31.31,0,0,1,.13.41.37.37,0,0,1-.42.14l-.11,0c-.32-.14-.68-.51-1-.32A2.23,2.23,0,0,0,76,23.53a5,5,0,0,0-.36,1.37,2.78,2.78,0,0,1-.5,1.45c-.18.24-.37.58-.74.48S74,26.5,74,26.19a2.49,2.49,0,0,0-1.2-1.82c-.16-.11-.3-.29-.14-.5a.36.36,0,0,1,.54,0A3.26,3.26,0,0,1,74.59,26.06Z"/><path d="M41.37,32.69a9.09,9.09,0,0,1-.25-1,.35.35,0,0,1,.35-.4.31.31,0,0,1,.33.28c.05.41.17.54.68.66s1.13.88,2,.58c0,0,.08,0,.09.06.38,1,1.7.67,2.13,1.59.11.26.44.1.66.18s.39.29.26.55-.32.13-.49,0c-.58-.46-1.49-.16-2-.84-.39.66-.68-.12-1-.1s-.63-.47-1-.68c-.57-.34-1.2-.54-1.74-.9Z"/><path d="M49.29,22.12a.25.25,0,0,1,.2.2.24.24,0,0,1-.14.29,9.61,9.61,0,0,0-1.08.49c-.7.44-1.48.83-1.44,1.86a.26.26,0,0,1-.44.19,2,2,0,0,1-.73-1.44c0-.16,0-.34.21-.38A23.22,23.22,0,0,0,49,22.13.88.88,0,0,1,49.29,22.12Z"/><path d="M75,31.34c0,.08-.08.27-.16.45s-.08.65-.45.58-.22-.44-.16-.68a1.06,1.06,0,0,0-.68-1.33c-.62-.31-.61-.39-.1-.87a3.16,3.16,0,0,1,.45-.37c.18-.1.39-.15.54,0a.28.28,0,0,1-.06.42c-.26.21-.37.36,0,.56S75,30.76,75,31.34Z"/><path d="M75.05,28.59c-.3,0-.35-.17-.33-.32a2.7,2.7,0,0,1,1.7-1.33.22.22,0,0,1,.18.34C76.2,27.89,75.46,28.09,75.05,28.59Z"/><path d="M44.93,24.34c0-.12,0-.24,0-.35a.28.28,0,0,1,.16-.16.2.2,0,0,1,.28.14,3.81,3.81,0,0,0,.67,1.51.28.28,0,0,1-.06.42c-.16.1-.3,0-.42-.1A1.78,1.78,0,0,1,44.93,24.34Z"/><path d="M50.16,22.41c-.14-.1-.27-.14-.31-.23s0-.21.07-.31a.2.2,0,0,1,.08-.08,1.47,1.47,0,0,1,1.07-.26.34.34,0,0,1,.11.3C51,22.28,50.47,22.16,50.16,22.41Z"/><path d="M41.75,28.92a.33.33,0,0,1,.31.31c0,.28-.16.33-.37.34a7.58,7.58,0,0,1-.83,0,.22.22,0,0,1-.18-.26c0-.07.08-.17.13-.18C41.08,29,41.36,29,41.75,28.92Z"/><path d="M77.57,24c0,.06,0,.17-.09.18a1.4,1.4,0,0,1-.45.1.56.56,0,0,1-.62-.43.23.23,0,0,1,.07-.2c.21-.2.45-.08.66,0S77.53,23.77,77.57,24Z"/><path d="M8.27,37.45c-.11.45.28.62.52.86s.46.31.66.5.54.35.25.67-.52,0-.7-.17a9.05,9.05,0,0,1-1-.9c-1.2-1.21-1.19-1.21-.46-2.86.14-.32,0-.93.67-.7l0,0c.09.32.73.47.3,1,.35.37-.14,1,.36,1.31a.35.35,0,0,1,0,.52c-.24.21-.41-.09-.62-.14A.29.29,0,0,0,8,37.24c0-.05,0-.25-.15-.1l.18.08C8,37.37,8.06,37.51,8.27,37.45Z"/><path d="M14.06,47.33a3.68,3.68,0,0,1-2-1.11c-.13-.16-.29-.31-.08-.51s.29-.05.42,0,.33.23.48.35c.74.55,1.46.78,2.18,0a.32.32,0,0,1,.51,0c.21.2.09.37-.08.49C15,46.85,14.75,47.48,14.06,47.33Z"/><path d="M20,42.26c-.09.49-.16,1-.27,1.47,0,.08-.16.15-.26.18s-.14-.06-.18-.12c-.29-.37-.05-.76,0-1.12s.38-.45.73-.37Z"/><path d="M11.13,39.17c-.07-.13-.24-.35-.2-.4a6.6,6.6,0,0,1,.86-.81.31.31,0,0,1,.43,0,.27.27,0,0,1,0,.41,2.39,2.39,0,0,1-1.07.73Z"/><path d="M8.25,34.85c0-.63.55-.81.92-1.14.12-.11.29,0,.39.16a.23.23,0,0,1-.09.38c-.43.17-.62.84-1.24.58Z"/><path d="M10.38,39.87c.09.2.29.43,0,.6s-.45,0-.62-.18a.22.22,0,0,1,0-.31c.19-.21.43-.14.66-.08Z"/><path d="M10.41,39.9c0-.73,0-.73.72-.73l0,0c.05.54-.3.67-.73.72Z"/><path d="M21,27.88c0,.22.36.38.13.64a1.7,1.7,0,0,0-.53,1.62c0,.17,0,.32-.17.36s-.29,0-.31-.06c-.28-.59-.86-.93-1.15-1.52a1.93,1.93,0,0,1-.16-.91c0-.5.46-.33.7-.48a14.67,14.67,0,0,1,2.49-1c.3-.11.49,0,.55.24s-.1.35-.36.34c-.6,0-.71.69-1.21.83a.32.32,0,0,0,0-.09s0,0,0,0Zm-1.2.94.07.08-.1-.06c0-.26,0-.53-.35-.63C19.31,28.54,19.49,28.7,19.76,28.82Zm.59-.51,0-.07h-.07Z"/><path d="M20.15,39.06c0-.54.35-1.15.34-1.84a.23.23,0,0,1,.24-.21.23.23,0,0,1,.24.22,3.54,3.54,0,0,1-.11,1.41c-.23.83-.21.84.54,1.3.17.11.33.23.5.33s.61.18.4.57-.42.09-.64,0A1.65,1.65,0,0,1,20.15,39.06Z"/><path d="M25,42.12c0,.22-.15.49-.35.33-.55-.43-1.29-.31-1.84-.7a.39.39,0,0,1-.18-.51c.09-.16.24-.15.41-.09a4.33,4.33,0,0,0,1.57.47C24.91,41.61,25,41.86,25,42.12Z"/><path d="M22.69,31.24c-.22,0-.33-.16-.28-.31a.62.62,0,0,1,.75-.41c.17,0,.34.15.27.3A.76.76,0,0,1,22.69,31.24Z"/><path d="M22.13,31.31a.58.58,0,0,1-.72.4c-.11,0-.23-.11-.18-.25A.6.6,0,0,1,22,31,.22.22,0,0,1,22.13,31.31Z"/><path d="M11.73,78.83c.61.08,1.08-.92,1.77-.13,0,.41-.51.43-.68.75q-.54,1-1.23.18a5.49,5.49,0,0,1-1.09-1.52,8.85,8.85,0,0,0-.78-1.85.22.22,0,0,1,.06-.32.26.26,0,0,1,.32,0,1.68,1.68,0,0,1,.6.85A4.87,4.87,0,0,0,11.73,78.83Z"/><path d="M9,69.13a4.61,4.61,0,0,1,1.14,2.38,9.68,9.68,0,0,1,.26,1.26.34.34,0,0,1-.2.39c-.24.1-.34-.11-.44-.27a.44.44,0,0,1-.07-.22,9.4,9.4,0,0,0-.82-2.8c-.1-.24-.17-.44,0-.64Z"/><path d="M10.84,73.74a.45.45,0,0,1,.45.3c.23.53.43,1.08.68,1.6a.29.29,0,0,1-.14.39c-.15.12-.29,0-.39-.1A5,5,0,0,1,10.65,74C10.61,73.88,10.72,73.8,10.84,73.74Z"/><path d="M12.29,65.57c.09,0,.25,0,.29.12a4.17,4.17,0,0,1,.73,1.44.4.4,0,0,1-.15.3.21.21,0,0,1-.3-.06c-.27-.5-.53-1-.78-1.52C12,65.73,12.17,65.65,12.29,65.57Z"/><path d="M8.9,69.23c-.57-.21-.64-.76-.84-1.22-.08-.19,0-.29.2-.37a.26.26,0,0,1,.38.16c.09.45.52.82.35,1.33Z"/><path d="M15.19,76.2c0,.19,0,.33-.2.38s-.39-.07-.37-.18c.05-.39-.25-.72-.13-1.1a.38.38,0,0,1,.34-.27c.16,0,.34.18.29.3A.94.94,0,0,0,15.19,76.2Z"/><path d="M13.78,68.45c0,.2,0,.39-.17.43s-.35-.11-.36-.33-.36-.47-.05-.74a.27.27,0,0,1,.32,0C13.83,67.93,13.75,68.23,13.78,68.45Z"/><path d="M14,78c0,.2-.12.26-.29.28s-.33,0-.38-.16a.24.24,0,0,1,.21-.33C13.71,77.76,13.9,77.77,14,78Z"/><path d="M15,74.41a.21.21,0,0,1-.18.27.2.2,0,0,1-.25-.18c0-.14.08-.21.2-.25S14.9,74.33,15,74.41Z"/><path d="M3,44.43c.48.52-.26,1,.16,1.52S3.32,47,3.8,47.4s-.31.43,0,.62.51.21.74.35a.31.31,0,0,1,.1.42c-.07.15-.21.19-.4.15a2.31,2.31,0,0,1-2-2.13c0-.32,0-.65,0-1A1.16,1.16,0,0,1,3,44.43Z"/><path d="M10.62,54.32c.51-.37.91-.68,1.33-1a.39.39,0,0,1,.54.09c.1.13,0,.28-.1.4a5.25,5.25,0,0,0-.63.71c-.51.71-.71.78-1.38.29A3.76,3.76,0,0,1,9.54,54a6.35,6.35,0,0,0-.94-1.36.25.25,0,0,1,0-.41c.16-.14.29-.08.42,0a3.85,3.85,0,0,1,.71.8C10,53.46,10.28,53.84,10.62,54.32Z"/><path d="M12.57,56a1.12,1.12,0,0,1,0-1.43c.26-.47.37-1.07.94-1.31a1,1,0,0,1,1.28.24c.2.22.2.5-.13.5-1.12,0-1.57.71-1.83,1.66C12.79,55.77,12.69,55.84,12.57,56Z"/><path d="M5.89,46.87A2,2,0,0,1,6.14,49a.24.24,0,0,1-.3.1.37.37,0,0,1-.24-.47A13.43,13.43,0,0,0,5.89,46.87Z"/><path d="M14.73,49.5c.2,0,.24.17.24.32s-.06.39-.32.35-.19-.2-.18-.36S14.54,49.51,14.73,49.5Z"/><path d="M15,50.52c.15,0,.17.16.18.3s0,.3-.22.32-.26-.12-.26-.28S14.77,50.57,15,50.52Z"/><path d="M40.41,34.12a.35.35,0,0,1,.38.24c.14.44.4.87.19,1.35,0,.07-.23.12-.32.09-.63-.17-.31-.88-.68-1.24C39.87,34.46,40.16,34.17,40.41,34.12Z"/><path d="M30.51,35.19c-.37.27-.32.85-.66,1.22a.37.37,0,0,1-.31.08.21.21,0,0,1-.17-.26,3.09,3.09,0,0,1,.5-1.28.41.41,0,0,1,.43-.09C30.41,34.9,30.52,35,30.51,35.19Z"/><path d="M31.07,39.18c-.22,0-.53,0-.49-.32a.45.45,0,0,1,.51-.39c.28,0,.63.09.63.41S31.32,39.14,31.07,39.18Z"/><path d="M32.3,38.5c.29.13.57.29.57.66a.26.26,0,0,1-.35.22A.55.55,0,0,1,32,38.7.26.26,0,0,1,32.3,38.5Z"/><path d="M34.17,39.41l-.25.24H33.7c-.29,0-.58-.11-.41-.47A.4.4,0,0,1,34,39C34.06,39.1,34.1,39.27,34.17,39.41Z"/><path d="M39.74,33.87c-.35,0-.38-.3-.5-.52a.26.26,0,0,1,.1-.39c.33-.09.49.16.57.42A.35.35,0,0,1,39.74,33.87Z"/><path d="M30,37a.4.4,0,0,1-.36.39c-.16,0-.28-.09-.3-.27s.1-.39.32-.39A.32.32,0,0,1,30,37Z"/><path d="M2.26,59.08a6.11,6.11,0,0,1,1.85.24.35.35,0,0,1,.24.22c0,.2-.14.26-.3.27A6.36,6.36,0,0,1,3,59.8c-1.39-.21-1.72-.61-1.72-2,0-.43,0-.87,0-1.31a.25.25,0,0,1,.21-.25c.19,0,.31.07.29.25-.05.51.29.87.43,1.31a.84.84,0,0,0,.47.59C3.25,58.67,2.73,58.78,2.26,59.08Z"/><path d="M5.4,50.73c.38,0,.44.15.43.26,0,1.47,0,2.94-.06,4.41a2.07,2.07,0,0,0,.05,1c.11.28,0,.6-.37.59s-.29-.24-.29-.51c0-1.06-.08-2.12,0-3.17C5.14,52.44,5.3,51.58,5.4,50.73Z"/><path d="M42.58,36.65a1.48,1.48,0,0,1,.75-.37c.21,0,.36,0,.43.26.3,1.08.68,1.46,1.67,1.65.23.05.53,0,.47.36s-.28.41-.63.3c-.86-.26-1.82-.43-2.05-1.49C43.13,36.94,42.63,37.12,42.58,36.65Z"/><path d="M34.61,24.49c0,.26.16.53-.14.75A3.88,3.88,0,0,0,32.8,28a.36.36,0,0,1-.23.25c-.17,0-.28-.12-.32-.28a1.38,1.38,0,0,1,0-.35,4.31,4.31,0,0,0-.52-2.49c1.06-.18,1.89-.83,2.93-.63Z"/><path d="M34.63,24.52a.39.39,0,0,1,.4-.35.33.33,0,0,1,.31.4c-.07.26-.28.2-.45.12a2.83,2.83,0,0,1-.28-.2Z"/></g></g></svg>