<svg xmlns="http://www.w3.org/2000/svg" viewBox="0 0 76.85 183.55"><title>Tomopteris</title><g id="Layer_2" data-name="Layer 2"><g id="Tomopteris"><path d="M39.47,130.7c-.27,1.69.71,2.63,1.72,3.54.26.23.44.4.21.79s-.35.52-.76.14-.43-.68-.91-.7-.67.11-.54.53a2.68,2.68,0,0,0,.76,1.57c.21.16.45.46.14.7s-.49-.1-.67-.31a1.13,1.13,0,0,0-.23-.15c-.06,1.26-.17,2.49.92,3.4.13.11.27.23.14.38a.33.33,0,0,1-.53,0c-.33-.47-.58-.22-.56.12,0,.83-.3,1.8.73,2.34a.33.33,0,0,1,.13.51c-.16.22-.35.09-.53,0a1.06,1.06,0,0,0-.27,0c0,.9-.28,1.84.64,2.51a.34.34,0,0,1,.07.44c-.19.34-.49,0-.72.09-.12.78-.15,1.52.68,2a.41.41,0,0,1,.19.61c-.2.27-.41.06-.59-.09a1.42,1.42,0,0,0-.25-.13c-.19.65-.22,1.22.48,1.61.19.1.46.3.25.56s-.43.13-.64,0a2,2,0,0,0-.38-.18,14.08,14.08,0,0,1,0,1.6.93.93,0,0,0,.58,1.05c.24.11.45.23.32.52s-.39.1-.6.08a1,1,0,0,0-.31,0c0,.42,0,.86,0,1.3a1.07,1.07,0,0,0,.45,1c.47.34.41.48-.21.59-.21,0-.26.12-.29.26-.11.54-.28,1.07.26,1.54.14.13.4.28.38.55s-.74,0-.74.45a2.71,2.71,0,0,0,.29,1.62c.28.39.22.52,0,.94a1.71,1.71,0,0,0,.16,1.91c.18.21.2.34-.05.57a1.29,1.29,0,0,0-.16,1.85c.29.36.71.59-.1.89-.39.15-.28.72,0,1.06s.59.66,0,1.13c-.29.21-.17.91.1,1.35s.45.59,0,1c-.34.27-.25.82.06,1.2a.63.63,0,0,1,0,.93.89.89,0,0,0,.22,1.35c.18.13.37.4,0,.53-.74.24-.44.78-.27,1.16s.4.78-.07,1.23c-.23.22-.08.69,0,1.05a23.51,23.51,0,0,1,0,3.46c0,.19-.06.45-.33.4s-.24-.29-.24-.48a25,25,0,0,1-.06-3.35c.07-.48.25-1-.27-1.42-.32-.26.08-.57.18-.84.29-.77.23-.94-.55-1.42.53-.56,1.05-1.13.31-1.9-.18-.19-.06-.46.13-.65s.43-.88.2-1.09c-.54-.48-.31-.81-.09-1.31s.45-1-.24-1.44c-.23-.14-.09-.41,0-.63.44-.74.43-.76-.22-1.46-.19-.2-.09-.34,0-.51.75-1,.76-1.06,0-2.16a.31.31,0,0,1,0-.42,1.73,1.73,0,0,0,0-2.24c-.09-.11-.11-.23,0-.32.61-.6.42-1.41.62-2.11-.22-.33-.66.09-.84-.34.17-.22.35-.47.53-.72a1.68,1.68,0,0,0,.06-1.54s0-.09-.07-.09c-.24,0-.55.33-.62-.18s.32-.41.51-.59a.78.78,0,0,0,.2-.66v-1.38c-.26-.21-.43,0-.61,0-.33,0-.45-.38-.28-.45,1.39-.64.72-1.83.87-2.8-.28-.08-.39.13-.56.2a.38.38,0,0,1-.52-.12.35.35,0,0,1,.18-.41,1.26,1.26,0,0,0,.66-1.57c0-.15-.07-.15-.18-.1s-.42.51-.69.2,0-.55.23-.68c.65-.34.69-.9.67-1.52,0-.36,0-.43-.45-.36s-.44-.27-.26-.55a10.57,10.57,0,0,1,.67-.83c0-.05,0-.15,0-.23v-1.48a1.44,1.44,0,0,0-.39.07c-.22.13-.38.09-.49-.13a.29.29,0,0,1,.14-.41c1-.47.72-1.41.77-2.2,0-.56-.21-.67-.64-.24-.13.13-.38.08-.56-.2a3.43,3.43,0,0,0,1.1-3.61c-.32,0-.45.85-.88.34-.29-.34.16-.65.41-.86s.29-.81.49-1.19c.11-.21.14-.53-.13-.63a1,1,0,0,0-.69.05,3,3,0,0,0-.58.59c-.2.21-.45.48-.66.11s-.51-.65,0-.92.76-.81,1.15-1.2a2.41,2.41,0,0,0,.62-2.35c-.4.14-.43.54-.61.83a1.36,1.36,0,0,1-2,.38.43.43,0,0,1-.08-.55,2.72,2.72,0,0,1,.86-1.11,4.27,4.27,0,0,0,1.72-4.07.72.72,0,0,0-.29-.59c-.65.12-1,.71-1.53,1.12-.24.2-.42.48-.67.68-.52.41-.67.38-1.13-.25-.2-.27-.78-.18-.67-.7s.48-.62.74-.91A8.43,8.43,0,0,1,35.71,124a2.08,2.08,0,0,0,1-2.35c-.11-.76-.56-1-1.25-.66a3.24,3.24,0,0,0-1,.77,3.88,3.88,0,0,1-2,1.2c-.51.13-.81,0-.71-.56.06-.32,0-.37-.31-.39-.58,0-.48-.45-.27-.77a2.74,2.74,0,0,1,1.61-1.18c1.25-.29,2.11-1.24,3.14-1.88a.87.87,0,0,0,.37-.6c.08-.47-.11-.75-.57-.62a3,3,0,0,0-2.08,1.22,3.24,3.24,0,0,1-2,1.39c-.44.13-.92.17-.86-.55,0-.33-.19-.34-.44-.41-.58-.15-.66-.34-.31-.78a3,3,0,0,1,2-1.42.7.7,0,0,0,.54-.2,16.23,16.23,0,0,1,2.52-2,4.53,4.53,0,0,0,.81-.88.76.76,0,0,0,0-.89.63.63,0,0,0-.73-.29c-1,.15-2,.65-3,.79-.14,0-.23.3-.37.44a3.27,3.27,0,0,1-2.13,1c-.42,0-.76-.1-.55-.61s-.1-.32-.31-.39c-.67-.18-.79-.47-.35-1a3.22,3.22,0,0,1,2.49-1.46.71.71,0,0,0,.46-.1,8.07,8.07,0,0,1,2.41-1,5.27,5.27,0,0,0,1.48-.74.79.79,0,0,0,.35-.93.72.72,0,0,0-.9-.39c-.31.06-.63.1-.94.17a9.46,9.46,0,0,1-2.4.64c-.36,0-.43.33-.58.54-.62.82-1.59.83-2.45,1.08a.33.33,0,0,1-.23-.05c-.5-.24.18-1.24-.85-1.24-.35,0-.12-.84.57-1.45a3.29,3.29,0,0,1,1.82-.81,1.37,1.37,0,0,0,.77-.26,7.81,7.81,0,0,1,3.49-1.45,2,2,0,0,0,1.46-1.1c.16-.34,0-.57-.36-.52a1.77,1.77,0,0,0-.68.23,6.73,6.73,0,0,1-3.18.86,3,3,0,0,0-1.54.56,4.47,4.47,0,0,1-2.34.8c-.36,0-.78-.07-.51-.64.16-.33.13-.67-.24-.8-.57-.23-.32-.5-.12-.81a2.09,2.09,0,0,1,1.58-1,4.92,4.92,0,0,0,2.58-1.06,9.6,9.6,0,0,1,3.33-1.56,2.84,2.84,0,0,0,1.56-1c.14-.18.35-.35.2-.63a.62.62,0,0,0-.74-.25,2.58,2.58,0,0,0-1,.46c-.59.41-1.2.79-1.8,1.17a1.21,1.21,0,0,1-.54.25,7.44,7.44,0,0,0-3.26,1.47,3.82,3.82,0,0,1-1.33.5c-.56.08-1.23.58-1.2-.56a.24.24,0,0,0-.14-.16c-.26-.09-.56-.15-.57-.51a1.33,1.33,0,0,1,.37-.87c.82-1,1.74-1.9,3.18-1.79.41,0,.54-.14.7-.47a4.41,4.41,0,0,1,2.69-2.2c.49-.16,1-.33,1.45-.52a3.19,3.19,0,0,0,1.29-1,.87.87,0,0,0,.06-1,.77.77,0,0,0-.82-.53,7.59,7.59,0,0,0-2.79.56,6.73,6.73,0,0,1-2.63.67c-.41,0-.53.28-.73.52a4.51,4.51,0,0,1-3.13,1.79c-.66.06-.94-.12-1-.8,0-.46-.27-.48-.6-.57-.72-.2-.78-.4-.3-.94a4.06,4.06,0,0,1,2.37-1.5,4.26,4.26,0,0,0,1.92-.88,16.1,16.1,0,0,1,5.51-2.46A7.66,7.66,0,0,0,34.1,88a1.23,1.23,0,0,0,.68-1.17c0-.55-.49-.79-.94-1a1.67,1.67,0,0,0-1.06,0,15.37,15.37,0,0,1-5.31.6,2.23,2.23,0,0,0-1.65.53,4.31,4.31,0,0,1-2.14,1c-1.12.15-1.23,0-.94-1.11-.34-.24-1,0-1.08-.54a1.52,1.52,0,0,1,.79-1.25,6.36,6.36,0,0,1,3.14-1,3.48,3.48,0,0,0,1.35-.41,7.63,7.63,0,0,1,4-1.07,9.38,9.38,0,0,0,2.81-.49c.19,0,.36-.15.55-.22A1,1,0,0,0,35,81c0-.44-.4-.68-.76-.83a2.74,2.74,0,0,0-2.21,0,9.85,9.85,0,0,1-4.56.56,1.23,1.23,0,0,0-1.3.53,4.72,4.72,0,0,1-2.5,1.56c-1.06.34-1.43-.06-1.22-1.21,0,0-.08-.12-.13-.14-1.23-.36-1.26-.52-.46-1.44a3.62,3.62,0,0,1,3-1.27,1.19,1.19,0,0,0,1-.25,9.05,9.05,0,0,1,4.55-1.91,18.56,18.56,0,0,0,2.85-.81c.24-.09.6-.16.59-.52a.81.81,0,0,0-.68-.74,6.43,6.43,0,0,0-1.89-.22,17,17,0,0,1-6.4-.27,1.19,1.19,0,0,0-.69.11c-.75.25-1.52.43-2.28.68a2.32,2.32,0,0,1-.94.12c-.65,0-1-.39-.68-.9s.19-1-.36-1.33C21,71.25,22.52,71.16,24,71.4a3.28,3.28,0,0,0,1.62-.08,28.62,28.62,0,0,1,6.28-1.23,3.89,3.89,0,0,0,1.49-.4.61.61,0,0,0,.13-1.11,1.5,1.5,0,0,0-.76-.32c-.92,0-1.8-.31-2.73-.27a14.69,14.69,0,0,1-4.92-.78.83.83,0,0,0-.92.21A5.17,5.17,0,0,1,21,68.73c-.62,0-.7-.1-.56-.72.07-.28.22-.41-.23-.54s-.54-.46-.19-.9a3.69,3.69,0,0,1,2.14-1.44,5.1,5.1,0,0,0,1.52-.61,7.62,7.62,0,0,1,3-.85c1.43-.1,2.86-.15,4.29-.26a12.11,12.11,0,0,0,2.25-.25c.36-.09.76-.14.86-.51a1.14,1.14,0,0,0-.46-1.17,3.37,3.37,0,0,0-1-.47,14,14,0,0,0-4.54-.89,5.85,5.85,0,0,1-3.84-1.66,1.86,1.86,0,0,0-1.49-.56,8.08,8.08,0,0,1-2.92-.46c-.36-.12-.7-.3-.71-.71s.3-.44.55-.56.43-.19.2-.59-.09-.78.52-.82a5.49,5.49,0,0,1,3.35.64,2,2,0,0,0,1.6.21,7.43,7.43,0,0,1,3,0,23.15,23.15,0,0,0,4.4.38c.29,0,.66.14.86-.21a1.28,1.28,0,0,0-.37-1.3,2.54,2.54,0,0,0-1.29-.59c-2.57-.4-4.7-1.84-7-2.89a3.31,3.31,0,0,1-1.14-.86c-.32-.38-.62-.33-1-.08a6.56,6.56,0,0,1-3.27.93c-.45,0-.54-.23-.51-.6A1.29,1.29,0,0,0,18.52,49c1.23-1.55,2.91-1.65,4.65-1.37a4.69,4.69,0,0,0,1.17.15,12.26,12.26,0,0,1,7,1.63,10.4,10.4,0,0,0,1.66.65c.51.17.63,0,.62-.5a1.25,1.25,0,0,0-1-1.34l-1.71-.47a20.43,20.43,0,0,1-7-3.5,4.17,4.17,0,0,1-.47-.36,1.25,1.25,0,0,0-1.84-.11,3.51,3.51,0,0,1-2.11.72c-.38,0-.63-.11-.57-.56,0-.11.05-.29,0-.35-.76-.7-.1-1.09.34-1.49A4.83,4.83,0,0,1,21.63,41c2.38-.54,4.36.5,6.33,1.5a20.51,20.51,0,0,0,4.16,1.38,1.91,1.91,0,0,0,.48,0c.48,0,1-.06,1.21-.53s-.28-1.24-1-1.43A8.4,8.4,0,0,0,31,41.61a4,4,0,0,1-2-.67,9,9,0,0,0-2.4-1,9.48,9.48,0,0,1-3.3-1.61,1,1,0,0,0-1.47,0,3.61,3.61,0,0,1-2.06.87c-.3,0-.55,0-.57-.42s.21-.78-.35-1c-.16,0-.08-.27,0-.4A4.4,4.4,0,0,1,22,35.55l.12,0a11.58,11.58,0,0,1,7.43.71c1,.39,2,.69,3,1a2.51,2.51,0,0,0,.57.18c.31,0,.68.11.87-.22a.86.86,0,0,0-.18-1.09,2.49,2.49,0,0,0-1.16-.83,6.77,6.77,0,0,1-.66-.25c-2.12-.62-3.9-2-5.88-2.85a1.86,1.86,0,0,1-.69-.46,2.83,2.83,0,0,0-2.78-.95,3.13,3.13,0,0,1-2.21-.74c-.63-.48-.6-.62.16-1l.22-.14c0-.41-.5-.48-.55-.9.05-.05.1-.18.19-.21a5,5,0,0,1,2.83,0,9.28,9.28,0,0,0,2.57.37,7.37,7.37,0,0,1,3.28,1,22.73,22.73,0,0,1,2.06,1.22,7.77,7.77,0,0,0,2.87,1.09c.22,0,.52.09.67-.13a.69.69,0,0,0-.1-.78A5.3,5.3,0,0,0,32.24,29a16.33,16.33,0,0,1-2.39-1.32,6.66,6.66,0,0,1-2.26-2.43,1.56,1.56,0,0,0-1.24-.92,4.48,4.48,0,0,1-2.09-1.09c-.37-.29-.48-.68,0-.95.32-.17.31-.3.21-.63-.2-.62-.06-.72.61-.77a3.69,3.69,0,0,1,2.59,1,8.69,8.69,0,0,0,1.71,1,17,17,0,0,1,2.3,1.49l1.5,1a1.65,1.65,0,0,0,.65.28c1.25.19,1.64-.25,1.3-1.48a2.2,2.2,0,0,0-1.91-1.86c-1.52-.19-2.93-.84-4.48-1a3.67,3.67,0,0,1-2.35-1.06c-.3-.32-.52-.7.16-.86.42-.11.18-.32.09-.52-.3-.66-.2-.85.49-.9a4.26,4.26,0,0,1,2.19.48,2.49,2.49,0,0,0,1.43.27,7.71,7.71,0,0,1,4.33.61,1.35,1.35,0,0,0-.73-1.75,10,10,0,0,0-4.21-1.51A2.52,2.52,0,0,1,28.31,15c-.13-.2-.32-.47,0-.62.62-.3.27-.5,0-.8s-.2-.7.26-.77a4,4,0,0,1,2.79.29,2.72,2.72,0,0,0,1.34.38,6.93,6.93,0,0,1,2.82,1.13c.67-1.3.56-1.79-.48-2.56a9.2,9.2,0,0,0-3-1.36,3.62,3.62,0,0,0-2.82.69,18.62,18.62,0,0,0-5.41,5.31c-1.08,1.48-2.24,2.91-3.29,4.41-1.56,2.21-3,4.5-4.57,6.71-6.07,8.55-10.47,18-14.65,27.53Q.9,56.15.51,57a.26.26,0,0,1-.28.17A.28.28,0,0,1,0,56.77a11.5,11.5,0,0,1,.4-1.12c2.37-5.77,5.1-11.37,8-16.89A161,161,0,0,1,19.77,20.12c1.53-2.15,3.17-4.21,4.88-6.21a2.88,2.88,0,0,0,.81-1.8,4.08,4.08,0,0,1,1.06-2.22A14.23,14.23,0,0,1,29.63,7.1a10.77,10.77,0,0,0,2.48-2.23,3.39,3.39,0,0,1,2-1.24,6,6,0,0,0,1.28-.43,3.43,3.43,0,0,0-2.18-.39,8.68,8.68,0,0,0-4.52,2.52c-.73.78-1.79,1.22-2.25,2.27,0,.07-.21.12-.31.09s-.22-.21-.21-.37a1.19,1.19,0,0,1,.24-.66A15.75,15.75,0,0,1,33.35.58,7.81,7.81,0,0,1,35.3.06a3.34,3.34,0,0,1,2.63.53.62.62,0,0,0,.86.08c1.35-1,2.8-.66,4.22-.24a12,12,0,0,1,4.34,2.46,15.55,15.55,0,0,1,3.26,3.65,2.19,2.19,0,0,1,.25.4c.09.26.21.59-.11.75s-.41-.16-.56-.34A14.91,14.91,0,0,0,45,3.22a4.4,4.4,0,0,0-3.76,0c.6.18,1,.32,1.44.42a3.12,3.12,0,0,1,1.83,1,16,16,0,0,0,3.51,3.05,10,10,0,0,1,2.47,2.43,3.77,3.77,0,0,1,.9,2.28,2.06,2.06,0,0,0,.67,1.37,97.57,97.57,0,0,1,7.34,9.73A174,174,0,0,1,70.08,41.9c2.18,4.33,4.25,8.71,6.13,13.18.21.51.43,1,.61,1.55a.34.34,0,0,1-.19.49c-.2.06-.28-.11-.35-.25-.22-.47-.45-.93-.65-1.4A200.18,200.18,0,0,0,65.8,35.34C64.09,32.28,62,29.45,60,26.56c-1.62-2.36-3.11-4.81-4.87-7.08-1.48-1.92-2.89-3.92-4.49-5.74a12.15,12.15,0,0,0-4.07-2.88,2.66,2.66,0,0,0-2.09-.06A10.28,10.28,0,0,0,41.93,12c-1.16.82-1.28,1.26-.61,2.64a6.25,6.25,0,0,1,3.41-1.17.72.72,0,0,0,.44-.16,3.85,3.85,0,0,1,2.75-.54c.33,0,.67.07.79.41s-.22.47-.4.67l-.17.21c.11.24.49.23.54.51s-.18.5-.35.71a3.74,3.74,0,0,1-2.7,1.09,8.84,8.84,0,0,0-3.45,1.5,1.26,1.26,0,0,0-.54,1.54,8.45,8.45,0,0,1,4.86-.52c.37.06.58-.17.86-.3a5,5,0,0,1,2.3-.53c.7,0,.81.24.52.88-.09.19-.34.33,0,.55.55.31.57.54.12.92a5.19,5.19,0,0,1-2.62,1A40.09,40.09,0,0,0,43,22.54a2.56,2.56,0,0,0-1.44,2.62c.06.31.21.53.54.54a2.31,2.31,0,0,0,1.5-.26c.85-.59,1.76-1.1,2.59-1.72a5,5,0,0,1,1.87-1c.37-.09.56-.43.85-.64a4.25,4.25,0,0,1,2.78-1.18.86.86,0,0,1,.57.12c.28.25.15.53,0,.77-.25.44.18.42.35.56a.48.48,0,0,1,.1.73,2.75,2.75,0,0,1-.65.52,2.68,2.68,0,0,1-1,.58,3,3,0,0,0-2.22,1.66,7.78,7.78,0,0,1-3.92,3c-.7.29-1.32.72-2,1a2.34,2.34,0,0,0-.62.56.69.69,0,0,0-.17.87c.18.26.52.17.78.12a7.76,7.76,0,0,0,2.85-1.14,15,15,0,0,1,3.06-1.62,4.16,4.16,0,0,1,1.25-.37c1.78-.05,3.49-.69,5.29-.67.43,0,.89-.07,1.23.34,0,.42-.47.51-.56.86s.31.19.47.29c.46.28.5.5.11.81a3.11,3.11,0,0,1-2,.88c-.4,0-.8.06-1.2,0a1.72,1.72,0,0,0-1.57.62,3.36,3.36,0,0,1-1.06.77c-2,1-3.89,2.32-6.1,2.93a3.11,3.11,0,0,0-1.52.91c-.33.37-.51.76-.25,1.18s.73.3,1.1.18c1.17-.37,2.34-.75,3.48-1.22a18.17,18.17,0,0,1,3.92-.92,12.17,12.17,0,0,1,4,.34A4.54,4.54,0,0,1,58,37.42c.16.19.17.42-.05.49-.64.21.2,1.67-1.1,1.27a4.44,4.44,0,0,1-1.21-.46,7.05,7.05,0,0,1-.7-.46.88.88,0,0,0-1.28,0A10.07,10.07,0,0,1,50.11,40a7,7,0,0,0-2.18.92,7.37,7.37,0,0,1-3.4.93A1.6,1.6,0,0,0,43,43c-.1.36-.08.68.41.83a2.33,2.33,0,0,0,1.3.1,14.63,14.63,0,0,0,4.15-1.4A13.33,13.33,0,0,1,52,41.21a5.7,5.7,0,0,1,5.79,1.07c.36.34.88.7.18,1.22,0,0,0,.07,0,.11-.1.28.19.7-.24.83a1.77,1.77,0,0,1-1.18,0,5.13,5.13,0,0,1-1.39-.68c-.64-.54-1.08-.29-1.64.12A21.91,21.91,0,0,1,48.15,47c-1.19.44-2.41.77-3.64,1.1a1.46,1.46,0,0,0-1.28,1.6c0,.37.22.52.55.41.59-.21,1.18-.45,1.76-.71a14.83,14.83,0,0,1,4-1.48,2.89,2.89,0,0,1,.47-.11c1.79.13,3.56-.27,5.35-.28a3.84,3.84,0,0,1,3,1.56c-.57.29-.83.66-.55,1.29.16.34-.08.58-.5.57a6,6,0,0,1-3.17-.89A.81.81,0,0,0,53,50.2a4.8,4.8,0,0,1-1.48,1c-1.21.59-2.44,1.15-3.63,1.78a13.76,13.76,0,0,1-2.83.86,4.25,4.25,0,0,0-1.21.48,1.13,1.13,0,0,0-.58.85c-.07.64,0,.76.68.79a22.12,22.12,0,0,0,4.52-.36,7.61,7.61,0,0,1,3.08,0,2,2,0,0,0,1.6-.23,5.49,5.49,0,0,1,3.35-.63c.61,0,.79.29.49.84s0,.43.23.58c.74.5.73.87-.08,1.22a7.22,7.22,0,0,1-2.79.5,2.36,2.36,0,0,0-1.82.64,5.57,5.57,0,0,1-3.75,1.58,13.7,13.7,0,0,0-4.54.91,4.19,4.19,0,0,0-.86.39,1.15,1.15,0,0,0-.53,1.24c.1.35.51.42.87.5a29.22,29.22,0,0,0,4.75.42,9.89,9.89,0,0,1,5.35,1.33,1.54,1.54,0,0,0,.69.15,4.22,4.22,0,0,1,2.36,1.53.9.9,0,0,1,.2.54c0,.48-.69.22-.73.57s.33.57.08.89-.35.14-.55.14A5.11,5.11,0,0,1,52.6,67.4a.83.83,0,0,0-.92-.18,15.07,15.07,0,0,1-4.8.77c-1,0-1.9.24-2.85.27a1.3,1.3,0,0,0-.66.26c-.55.35-.52.92.08,1.17a4.4,4.4,0,0,0,1.36.39,30.11,30.11,0,0,1,6.52,1.28,2.73,2.73,0,0,0,1.39.06,4.1,4.1,0,0,1,4.2,1.22c-.34.41-.82.75-.33,1.43.31.43,0,.79-.59.88a5,5,0,0,1-1.53-.25,2.63,2.63,0,0,1-.67-.22,4.4,4.4,0,0,0-3-.22,14.15,14.15,0,0,1-4.77.08c-.78-.07-1.49.16-2.25.15-.26,0-.42.2-.58.38s-.28.55.11.76a6.63,6.63,0,0,0,1.21.48,43.79,43.79,0,0,1,4.36,1.17c.11,0,.24,0,.35.08.79.32,1.37,1,2.1,1.31s1.57.06,2.33.36a4.48,4.48,0,0,1,1.7,1.47c.25.29.17.61-.22.77s-.51.18-.78.27a2,2,0,0,1,.11.32c.09.85-.15,1.09-1,1a1.35,1.35,0,0,1-.35-.06,5.44,5.44,0,0,1-2.58-1.67,1,1,0,0,0-1-.43l-2,0a4.11,4.11,0,0,1-2.19-.43,3.75,3.75,0,0,0-2.1-.31,1.34,1.34,0,0,0-.68.19c-.34.21-.77.41-.74.85s.38.67.78.84a9.09,9.09,0,0,0,3.48.7A5.77,5.77,0,0,1,49,83.2a10.93,10.93,0,0,0,3.6,1.08,3.89,3.89,0,0,1,2,.94c.32.29.67.67.59,1.1s-.65.33-1,.45,0,.3,0,.44c.12.69-.07.92-.71.82a4.56,4.56,0,0,1-2.39-1,2.26,2.26,0,0,0-1.75-.59,15.46,15.46,0,0,1-5.2-.57,1.83,1.83,0,0,0-1.49.12,1.06,1.06,0,0,0-.08,1.86,4.13,4.13,0,0,0,1.27.65,17,17,0,0,1,6.43,3,2.59,2.59,0,0,0,1.22.42,4.11,4.11,0,0,1,2.4,1.45c.55.62.52.8-.29,1-.35.1-.52.18-.55.6-.05.66-.35.84-1,.76a4.09,4.09,0,0,1-2.79-1.46,1.92,1.92,0,0,0-1.67-.89,6,6,0,0,1-2-.63,6.68,6.68,0,0,0-2.79-.54A.93.93,0,0,0,42,93.67a2.85,2.85,0,0,0,1.36,1.13c.48.18,1,.34,1.46.51a4.34,4.34,0,0,1,2.66,2.23.64.64,0,0,0,.72.42,3.84,3.84,0,0,1,3.35,2.15c.23.36.33.76-.22,1-.15,0-.34.07-.34.26,0,1-.57.64-1.11.53a5.32,5.32,0,0,1-2.71-1.4c-.15-.15-.27-.31-.49-.3-1.48.08-2.52-.86-3.65-1.58A3.49,3.49,0,0,0,42,98a.63.63,0,0,0-.76.18c-.23.31,0,.52.18.73a2.46,2.46,0,0,0,1.25.9,11.81,11.81,0,0,1,4.42,2.25,3.14,3.14,0,0,0,1.59.41,2.4,2.4,0,0,1,1.78,1.06c.18.28.42.52-.1.71a.53.53,0,0,0-.3.79c.28.61-.11.71-.56.68a3.56,3.56,0,0,1-1.91-.59,4.35,4.35,0,0,0-2.43-.84,6.45,6.45,0,0,1-2.72-.8c-.31-.16-.73-.45-1-.07s.18.72.45,1a2.08,2.08,0,0,0,1,.47,8.38,8.38,0,0,1,3.59,1.49c.27.24.6.17.91.24A3.4,3.4,0,0,1,49.51,108c.38.55.29.81-.35,1-.29.09-.34.13-.27.46.12.62-.06.72-.69.62a3.12,3.12,0,0,1-2.35-1.24c-.09-.13-.16-.28-.34-.28a13.8,13.8,0,0,1-2.75-.74,3.77,3.77,0,0,0-.94-.11c-.59,0-.79.48-.52,1a1.26,1.26,0,0,0,.6.54,5.55,5.55,0,0,0,1.53.65c1.16.26,2.15,1,3.34,1.16.79.12,1.21.86,1.74,1.4a.48.48,0,0,1,.13.32c0,.41-.27.54-.64.52-.56,0-.23.33-.22.54,0,.52-.35.46-.65.44A3,3,0,0,1,45,113.24c-.12-.15-.17-.34-.41-.36a16.76,16.76,0,0,1-2.52-.69c-.35-.09-.8-.21-1.05.28a.89.89,0,0,0,.22,1.09,5.44,5.44,0,0,0,1.15,1,7.43,7.43,0,0,1,1.53,1.14,2.09,2.09,0,0,0,1.3.74A3,3,0,0,1,47,118c.21.3.17.66-.32.65s-.55.17-.54.57-.29.5-.65.41a3.3,3.3,0,0,1-2.23-1.44,3,3,0,0,0-2.09-1.2c-.43-.11-.56.16-.53.55a1.17,1.17,0,0,0,.67.94c1,.58,1.87,1.49,3.08,1.74a2.31,2.31,0,0,1,1.31,1c.34.43.29.63-.26.82-.23.08-.25.12-.28.36-.07.73-.12.76-.78.58a3.7,3.7,0,0,1-1.91-1.15,2.94,2.94,0,0,0-1-.78c-.74-.38-1.16-.12-1.28.72a2,2,0,0,0,1.08,2.31,9.86,9.86,0,0,1,2.39,2c.47.49.45.51-.13,1-.05,0-.12.09-.17.15-.53.64-.68.68-1.23.21s-.85-.84-1.28-1.25c-.25-.23-.54-.58-.88-.43s-.23.64-.26,1a4.08,4.08,0,0,0,1.7,3.61,3,3,0,0,1,.88,1.1.46.46,0,0,1-.06.55,1.45,1.45,0,0,1-1.95-.23A2.86,2.86,0,0,0,39.47,130.7Zm-8-128.27c.15-.09.45.09.46-.25a5,5,0,0,0,.95-.05,4.43,4.43,0,0,1,3.62.7c1,.75,2.15-.42,3.15.3.22.16.47-.17.71-.32a6.5,6.5,0,0,1,1.75-.68c1-.28,1.89.15,2.83.05,0,.34.3.16.45.26l0,.06-.07,0a.67.67,0,0,0-.46-.24A7.78,7.78,0,0,0,41.55.83,2.14,2.14,0,0,0,38.89,2,.51.51,0,0,1,38,2C37.52.63,36.42.7,35.42.83A7,7,0,0,0,32,2.21l-.48.23,0,.05ZM53.32,67c-.06,0-.1-.26-.17,0,0,0,.12.06.19,0,0,.38.29.24.49.24.32.78,1.09.64,1.83,1-.47-.94-1.27-.73-1.86-1Zm-29.8,0c.11.09.2,0,.28,0s0-.09,0-.09-.19.05-.22.16l-.51.23c-.59.24-1.4,0-1.85,1,.72-.36,1.51-.22,1.83-1C23.23,67.22,23.48,67.33,23.52,67Zm8.67,54.27h.24c.15,0,.32,0,.39-.19a.2.2,0,0,0-.07-.19c-.16-.09-.28,0-.4.12s-.17.16-.13.29l-.1,0Zm12.46,0,.07,0h-.1c.06-.2-.1-.28-.21-.37s-.32-.16-.39,0,.11.26.27.28Zm-11.26.5c-.32,0-.67-.09-.79.39a1.16,1.16,0,0,0,.79-.41l0,0Zm10.07,0,0-.06,0,0c.24.21.46.5.89.37A.93.93,0,0,0,43.46,121.75Zm13.44-78c0,.08,0,.26.15.06,0,0-.07-.1-.15-.06-.24-.36-.61-.38-1.15-.47A1.74,1.74,0,0,0,56.9,43.73Zm-37,0a1.75,1.75,0,0,0,1.16-.47c-.54.09-.92.11-1.15.47-.15,0-.21,0-.11.16Zm26.91,65c-.1,0-.17-.26-.29,0h.31c.19.66.72.6,1.27.51Zm-16.85,0c-.39.23-.95.15-1.21.63.46-.12,1,0,1.19-.65.1,0,.26.13.3-.1ZM50.4,23.54c.58.12,1-.2,1.51-.64a1.47,1.47,0,0,0-1.49.66.85.85,0,0,0-.22.09c-.05,0,0,.1.12.08S50.43,23.63,50.4,23.54Zm-23.95,0c0,.09,0,.17.08.19s.16,0,.11-.08a.53.53,0,0,0-.22-.08A1.22,1.22,0,0,0,25,23C25.48,23.34,25.88,23.66,26.45,23.54Zm21.33-2.86A3,3,0,0,0,49.72,20a3,3,0,0,0-1.92.7l-.34.05s0,.11.08.12A.21.21,0,0,0,47.78,20.68Zm-18.71,0c0,.14.11.19.23.19s.06-.08.08-.12l-.33-.05a3.12,3.12,0,0,0-2-.71A3.39,3.39,0,0,0,29.07,20.68Zm22.79,66c-.07-.12-.13-.31-.3-.09l.33.06a1.91,1.91,0,0,0,1.56.64C53.07,86.57,52.43,86.73,51.86,86.7ZM25,86.7c-.56.06-1.25-.18-1.57.71.59-.22,1.18-.21,1.55-.74.08-.07.32.11.25-.14C25.2,86.47,25,86.59,25,86.7Zm4.1,17.77H28c-.44,0-.38.32-.44.58.5-.23,1.12-.12,1.47-.62l.31-.09s-.08-.09-.13-.09S29,104.33,29.08,104.47Zm18.69,0c0-.14,0-.2-.16-.21s-.09.06-.13.09l.31.09c.41.49,1,.46,1.61.7-.17-.37-.19-.68-.56-.67S48.12,104.47,47.77,104.47ZM55,37.52c0-.09.07-.22-.13-.15l.16.13c.57.37,1,1,1.89.87C56.39,37.58,55.64,37.62,55,37.52Zm-33.05,0c-.69.1-1.43.08-2,.93a3.53,3.53,0,0,0,1.93-1c0-.06.25,0,.07-.16ZM49.69,93.67c0-.06,0-.26-.15-.11l.18.08c1,1.3,1.54,1.54,2.81,1.13C51.46,94.37,50.61,94,49.69,93.67Zm-22.54,0a3,3,0,0,0-1.4.59c-.4.2-1.14-.11-1.17.7,1.23.09,1.55-.07,2.55-1.32.05,0,.25,0,.1-.15Zm-1.44-13c-.87.41-2,.32-2.58,1.3a2.68,2.68,0,0,0,2.55-1.33c.13,0,.25,0,.15-.14Zm25.43,0s0-.28-.18-.07l.21,0a3.14,3.14,0,0,0,2.59,1.47A.88.88,0,0,0,53,81.3C52.41,81.08,51.77,80.89,51.14,80.69Zm-1-69.31c.06.22.13.42.39.47.07-.13,0-.21-.08-.3a2.69,2.69,0,0,0-.2-.27A8.29,8.29,0,0,0,47.06,8a13.2,13.2,0,0,1-2.79-2.42c-1.15-1.37-2.76-1.37-4.53-1.68a2.09,2.09,0,0,1,.44,1.2c.3-.25.85,0,1-.61,0-.17.54-.19.61.22a1,1,0,0,0,.66.9,18.16,18.16,0,0,1,3,1.87A37.11,37.11,0,0,1,50.13,11.38Zm-23.42,0c.34-.32.7-.64,1-1a31,31,0,0,1,6.4-4.74c.43-.24.85-.39.9-1,0-.42.55-.41.58-.27.15.59.73.39,1,.69l.21-1.2a9.85,9.85,0,0,0-3.45.82,1.29,1.29,0,0,0-.44.4,22.65,22.65,0,0,1-4,3.4,6,6,0,0,0-2.38,2.77.62.62,0,0,0-.31.57A.57.57,0,0,0,26.71,11.37ZM39.39,7.48c0,.06,0,.29.15.09s-.08-.12-.17-.07c0-.35-.66-.51-.36-.88a.38.38,0,0,0,0-.56c-.17-.31-.5-.57-.17-1S38.39,4.4,38.7,4s0-.5-.3-.5-.33.11-.31.45a3.34,3.34,0,0,1-.29,2.15,2.13,2.13,0,0,0-.18.29c.69.48-.1.77-.14,1.14l-.17,0,.07.11.08-.18c.55,0,.6.29.4.68-.11.23-.4.37,0,.6.15.08.1.32-.06.4-.36.17-.45.3,0,.5.18.09.38.31.31.46-.4.93.12,1.8.12,2.7,0,5.4,0,10.8,0,16.2q0,24.53,0,49.06c0,5.91,0,11.83,0,17.75,0,.34,0,.67.05,1.09.33-.32.21-.61.21-.87,0-6.55.07-13.11.07-19.67q0-19.32,0-38.63c0-4.47,0-9,0-13.43s-.3-8.94.2-13.4c.06-.49-.39-1.07.4-1.37.19-.07,0-.26-.12-.35-.54-.32.08-.48.07-.65S38.72,8,39,7.6C39.05,7.43,39.24,7.51,39.39,7.48ZM54.15,36.21a2.91,2.91,0,0,0-1.62-.39,15.39,15.39,0,0,0-3,.39,49,49,0,0,0-4.84,1.61,4.68,4.68,0,0,1-1.65.18,1.05,1.05,0,0,1-1-1.42,2.35,2.35,0,0,1,.83-1.27,5.94,5.94,0,0,1,1.92-1A10.41,10.41,0,0,0,48,32.88a5.15,5.15,0,0,1,1.46-.74A5.16,5.16,0,0,0,52.18,30c.52-.78.36-1-.54-1.12a6.21,6.21,0,0,0-3.55.83c-1,.51-1.93,1.1-2.89,1.65a5.26,5.26,0,0,1-3,.65.7.7,0,0,1-.74-.75,1.88,1.88,0,0,1,1-1.88,20.27,20.27,0,0,1,2.23-1.13,8.9,8.9,0,0,0,3.51-2.62A3.09,3.09,0,0,0,49,24.25c.12-.65-.28-1-.9-.87a2.73,2.73,0,0,0-.75.36c-.59.4-1.16.83-1.75,1.23a9.27,9.27,0,0,1-2.49,1.4c-1.23.36-2-.22-2-1.47v-.36a2.73,2.73,0,0,1,2-2.68,6.43,6.43,0,0,1,2.07-.47,2,2,0,0,0,1.21-.46,1.15,1.15,0,0,0,.29-1.11c0-.4-.42-.28-.66-.35a6,6,0,0,0-3.61.38c-.37.11-.67.46-1.1.33-.48-1.73-.19-2.49,1.34-3.32.59-.33,1.2-.61,1.81-.92a2.91,2.91,0,0,0,.63-.33c.42-.34.3-.79.13-1.2s-.45-.37-.8-.31a5.87,5.87,0,0,0-2.89,1.33,2.13,2.13,0,0,1-.56.44c-.22.09-.59,0-.43-.3.27-.53-.09-.92-.17-1.35-.25-1.39-.11-2,1-2.75C43,10.36,44.8,9.42,47,10a22.39,22.39,0,0,0-4.25-2.88c-.7-.39-.71-.36-1.3.28,0,0-.15,0-.22,0C41,7,40.3,6.87,40.64,6.2c.07-.13.17-.31-.07-.35a.32.32,0,0,0-.41.32c0,.2,0,.4,0,.6a14.7,14.7,0,0,1-.64,4.7,7.91,7.91,0,0,0-.32,2.23c0,4.36,0,8.72,0,13.08q0,42.71,0,85.41v13c1.38-.73,1.92.81,3,1a.55.55,0,0,0-.2-.89c-.5-.31-1-.66-1.46-1a2.38,2.38,0,0,1-.94-2.93c.32-1.24,1.29-1.27,2.13-1a5.77,5.77,0,0,1,.85.45.54.54,0,0,0,.7,0,2,2,0,0,0-.93-1c-.44-.27-.89-.52-1.33-.8a2.3,2.3,0,0,1-1-1.42,1.06,1.06,0,0,1,1.37-1.34A7.41,7.41,0,0,1,43,117a2,2,0,0,0,1.43.5,7.54,7.54,0,0,0-2.54-2.43,3.45,3.45,0,0,1-1.42-1.41,1.6,1.6,0,0,1,.1-1.8,1.23,1.23,0,0,1,1.6-.31,24.37,24.37,0,0,0,2.4.68,1,1,0,0,0,1.17-.26,2.27,2.27,0,0,0-1.1-.89c-.58-.25-1.19-.42-1.79-.64a4.59,4.59,0,0,1-2-1.22,1.43,1.43,0,0,1-.24-1.47,1.12,1.12,0,0,1,1.15-.7,3.21,3.21,0,0,1,1.06.13c.79.27,1.59.48,2.39.72a1.13,1.13,0,0,0,1.36-.37A4.42,4.42,0,0,0,44.32,106c-.64-.2-1.29-.38-1.94-.55a2.56,2.56,0,0,1-1.3-.8,1.73,1.73,0,0,1-.18-1.58c.27-.42.71-.28,1.09-.31a2,2,0,0,1,1.13.36,3.54,3.54,0,0,0,1.57.53,3.38,3.38,0,0,0,2.48-.2,3.38,3.38,0,0,0-1.59-1.62,14.85,14.85,0,0,0-3.27-1.42,2.49,2.49,0,0,1-1.7-1.69c-.27-.93.37-1.53,1.33-1.34a4.08,4.08,0,0,1,1.59.78,7,7,0,0,0,2.73,1.4c.3.06.67.22.9-.05a1,1,0,0,0,0-1,3.62,3.62,0,0,0-2.07-2.32c-.51-.22-1-.38-1.57-.58a4.32,4.32,0,0,1-1.81-1.11,2,2,0,0,1-.25-2.22,1.46,1.46,0,0,1,1.84-.72,15.25,15.25,0,0,1,2.87.78,7.32,7.32,0,0,0,2.53.6c.44,0,1,.09,1.15-.4s-.35-.72-.69-1a17.53,17.53,0,0,0-5.42-2.38,7.59,7.59,0,0,1-1.51-.66,2,2,0,0,1-.71-2.14,1.6,1.6,0,0,1,1.54-1.1,4.16,4.16,0,0,1,1.32,0,22.76,22.76,0,0,0,3.16.57,6.7,6.7,0,0,0,3.51-.22,6.43,6.43,0,0,0-1.76-1.56,11.06,11.06,0,0,0-4.27-1c-1.29-.18-2.62-.27-3.57-1.36-.49-.57-.58-.88-.11-1.44a3,3,0,0,1,2.91-1,9.71,9.71,0,0,1,1.93.58c1.65.65,3.24.27,4.94-.1a5.16,5.16,0,0,0-2.74-2C47,77.3,45.47,77.13,44,76.64a4.78,4.78,0,0,1-1.48-.74.59.59,0,0,1-.21-.73,2.05,2.05,0,0,1,2.08-1.46c2,0,3.92,0,5.88,0a2.88,2.88,0,0,0,2.42-1,5.73,5.73,0,0,0-1.89-.79,32.61,32.61,0,0,0-6.41-1.26A3.51,3.51,0,0,1,43,70.19a1.08,1.08,0,0,1-.27-1.87,2.6,2.6,0,0,1,2.15-.84A27.4,27.4,0,0,0,50,67a8.07,8.07,0,0,0,3-1c.49-.3.45-.58-.09-.83a7.78,7.78,0,0,0-2.14-.7,27.78,27.78,0,0,0-4.65-.25,9.51,9.51,0,0,1-3-.51,1.19,1.19,0,0,1-.77-1.86,2.28,2.28,0,0,1,1.37-1.25,14.33,14.33,0,0,1,4.75-1,6.17,6.17,0,0,0,4.47-2.23c.3-.32.19-.64-.18-.75a5.66,5.66,0,0,0-1.5-.35,34.31,34.31,0,0,0-6.07.43,4.12,4.12,0,0,1-1.31,0c-1.45-.27-1.62-.82-1-2.22a1.64,1.64,0,0,1,.77-.72,6.23,6.23,0,0,1,2-.69c1.73-.27,3.13-1.34,4.71-2a11.24,11.24,0,0,0,2.9-1.87c.18-.15.43-.3.35-.57s-.37-.29-.6-.3a15.08,15.08,0,0,0-3.91.36,24.8,24.8,0,0,0-4,1.63,3.52,3.52,0,0,1-1.12.37c-1.19.08-1.61-.46-1.31-1.6a2.45,2.45,0,0,1,2.18-1.76,20.25,20.25,0,0,0,8.37-4.1,4.16,4.16,0,0,0,1.33-1.54c-.18-.05-.28-.09-.39-.11a5.92,5.92,0,0,0-2.89.59c-1.84.7-3.52,1.84-5.51,2.16a5.2,5.2,0,0,1-2.82-.09.75.75,0,0,1-.54-1,2.24,2.24,0,0,1,2-2,6.66,6.66,0,0,0,2.54-.55,28,28,0,0,1,4.38-1.85c.58-.24,1.11-.61,1.68-.9A1.94,1.94,0,0,0,54.15,36.21ZM29.64,103.43a1.79,1.79,0,0,0,.46.23,5.76,5.76,0,0,0,3.49-.5,2.94,2.94,0,0,1,1.83-.41.65.65,0,0,1,.62.61,1.82,1.82,0,0,1-1.43,2c-.78.26-1.59.48-2.38.72a3.73,3.73,0,0,0-2,1.45,1.17,1.17,0,0,0,1.33.36c.8-.23,1.61-.44,2.4-.72a2.77,2.77,0,0,1,1.17-.13,1.14,1.14,0,0,1,1.14,1.37c0,.79-.63,1.17-1.21,1.51a9,9,0,0,1-2,.76,3.46,3.46,0,0,0-2,1.3,1.24,1.24,0,0,0,1.27.21c.9-.17,1.74-.53,2.62-.77a1.22,1.22,0,0,1,1.55.91,1.8,1.8,0,0,1-.3,1.6,5.38,5.38,0,0,1-1.34,1.17,6.94,6.94,0,0,0-2.5,2.47,3.6,3.6,0,0,0,1.52-.63,7.12,7.12,0,0,1,1.76-.73c.64-.18.92,0,1.18.64a1.55,1.55,0,0,1-.6,1.89,18.89,18.89,0,0,1-1.59,1,1.87,1.87,0,0,0-1,1.11c.69.13,1.05-.33,1.51-.52.85-.34,1.71-.2,2,.46.52,1.24.62,2.46-.71,3.4l-1.57,1.09c-.39.26-.32.54-.14.85,1.07-.3,1.6-1.73,3-1v-1.54q0-54.9,0-109.78a8.7,8.7,0,0,0-.3-2.35,15.5,15.5,0,0,1-.66-4.82A2.42,2.42,0,0,0,36.61,6c0-.06-.19-.12-.3-.13s-.26,0-.17.2c.41.74-.18,1-.58,1.42-.09,0-.2,0-.22-.1-.29-.66-.7-.55-1.21-.27-1.26.7-2.45,1.49-3.64,2.29a1.58,1.58,0,0,0-.63.67c2.45-.61,4.35.41,6.13,1.76A1.88,1.88,0,0,1,36.67,14c-.14.54-.49,1.06-.25,1.69.09.24-.23.3-.41.23a2.32,2.32,0,0,1-.56-.43,5.51,5.51,0,0,0-2.88-1.33c-.62-.1-.76,0-.93.6a.82.82,0,0,0,.5,1.07c.75.37,1.52.7,2.25,1.1A2.59,2.59,0,0,1,35.94,19c.06,1.13-.24,1.33-1.27.92a4.2,4.2,0,0,0-.77-.29,5.79,5.79,0,0,0-3.17-.16c-.4.14-.5.29-.47.66.06.72.46,1.14,1.36,1.23a12.67,12.67,0,0,1,2.2.47c1.86.53,2.16,2.34,2,3.87a.52.52,0,0,1-.36.44,2.57,2.57,0,0,1-1.84.16A14.46,14.46,0,0,1,31.33,25c-.6-.4-1.16-.84-1.76-1.24s-1.25-.56-1.51-.21c-.43.56-.08,1.05.2,1.53a3.45,3.45,0,0,0,.41.59,9,9,0,0,0,3.64,2.64,22.1,22.1,0,0,1,2.11,1.09,1.86,1.86,0,0,1,1,1.68c0,.61-.22.85-.84.91a6.06,6.06,0,0,1-4-1.29,17.76,17.76,0,0,0-2.3-1.26,5.82,5.82,0,0,0-3.36-.55c-.49.06-.61.28-.39.73a5.07,5.07,0,0,0,3,2.55,3.61,3.61,0,0,1,1,.43,12.78,12.78,0,0,0,4.05,2,5.71,5.71,0,0,1,1.36.72,2.11,2.11,0,0,1,.85,1.27A1,1,0,0,1,33.79,38a3.59,3.59,0,0,1-1.65-.16c-1.07-.42-2.17-.75-3.24-1.15a15.32,15.32,0,0,0-4.54-.85,2.42,2.42,0,0,0-1.69.42,2,2,0,0,0,.79,1.42c.55.33,1.08.7,1.65,1,1.61.75,3.39,1.12,4.92,2.08a2.79,2.79,0,0,0,1.38.33c.53,0,1,.23,1.52.28a1.71,1.71,0,0,1,1.23.88c.86,1.35.43,2.19-1.18,2.27a10,10,0,0,1-5-1.25,26.54,26.54,0,0,0-3.62-1.5,4.77,4.77,0,0,0-2-.07,3.92,3.92,0,0,0,1.17,1.41,20.51,20.51,0,0,0,6.71,3.77q1.26.34,2.52.72a1.87,1.87,0,0,1,1.16.77,1.92,1.92,0,0,1,.28,2c-.36.47-1.06.54-2,.15s-1.68-.73-2.5-1.12a12.55,12.55,0,0,0-5.7-1c-.23,0-.51,0-.62.27s.13.44.31.58a21.9,21.9,0,0,0,8,3.89,5.64,5.64,0,0,1,2,.82,2,2,0,0,1,.74,2c-.26.68-.94.66-1.51.76a3,3,0,0,1-1.07,0,34.24,34.24,0,0,0-6.07-.43,6.37,6.37,0,0,0-1.39.3c-.55.12-.62.45-.24.85a6.26,6.26,0,0,0,4.72,2.2,12.78,12.78,0,0,1,4.62,1,2.16,2.16,0,0,1,1.11,1c.53,1,.28,1.71-.79,2a12.5,12.5,0,0,1-2.57.47c-1.5.09-3,0-4.53.22a12.6,12.6,0,0,0-2.73.79c-.46.18-.47.49,0,.77a6.16,6.16,0,0,0,2,.83,25,25,0,0,0,6,.73,2.74,2.74,0,0,1,2.44,1A1,1,0,0,1,34.2,70a2.57,2.57,0,0,1-1.63.66,30.79,30.79,0,0,0-4.69.77,13.06,13.06,0,0,0-3.81,1.31,3.23,3.23,0,0,0,2.43,1c1.92,0,3.84,0,5.76,0a2.42,2.42,0,0,1,1.75.63,1,1,0,0,1-.19,1.89,4.58,4.58,0,0,1-1.1.43c-1.5.37-3,.78-4.47,1.19a4.1,4.1,0,0,0-2.49,1.91,10.8,10.8,0,0,0,4.08.43,1,1,0,0,0,.45-.14,10.33,10.33,0,0,1,2.14-.71,2.88,2.88,0,0,1,3.2,1.26.8.8,0,0,1-.13,1.06,3.67,3.67,0,0,1-2.14,1.2c-1.13.21-2.28.37-3.42.48a5.68,5.68,0,0,0-4.14,2.28,3.21,3.21,0,0,0,1.54.32,18.84,18.84,0,0,0,4.73-.57,6.65,6.65,0,0,1,1.66-.13A1.66,1.66,0,0,1,35.3,86.3a2,2,0,0,1-.68,2.15,6.3,6.3,0,0,1-1.39.65c-1,.35-2,.64-2.93,1a12.53,12.53,0,0,0-3,1.68c-.23.16-.45.37-.34.7a.67.67,0,0,0,.66.43,4.8,4.8,0,0,0,1.07,0,9.8,9.8,0,0,0,1.94-.55,17,17,0,0,1,2.87-.79,1.5,1.5,0,0,1,1.86.69,2,2,0,0,1-.29,2.31,3.91,3.91,0,0,1-1.72,1,16,16,0,0,0-1.67.64,3.52,3.52,0,0,0-2,2.36c-.27.91,0,1.2.91,1a7.44,7.44,0,0,0,2.73-1.39,4,4,0,0,1,1.58-.79c1-.21,1.65.41,1.35,1.41a2.55,2.55,0,0,1-1.54,1.57c-.51.22-1.07.3-1.57.54C31.81,101.51,30.39,102,29.64,103.43ZM52,79.31c-.13.41-.25.83.13,1a4.35,4.35,0,0,0,2.56.48C54.09,79.59,53,79.55,52,79.31ZM22.4,86.19c.58,0,1,0,1.44,0,1.07-.09,1.21-.23,1.46-1.32A3.16,3.16,0,0,0,22.4,86.19ZM51.65,84.8c-.21.89.23,1.18.89,1.3a5.88,5.88,0,0,0,1.88,0A3.4,3.4,0,0,0,51.65,84.8Zm-29.49-4a4.81,4.81,0,0,0,2.45-.4.45.45,0,0,0,.34-.44c0-.25.11-.7-.31-.6C23.72,79.56,22.69,79.66,22.16,80.78Zm1.32,13A3.45,3.45,0,0,0,26,93.4c.21-.1.45-.22.32-.53s-.32-.47-.64-.39A3.57,3.57,0,0,0,23.48,93.77Zm29.86,0a3.39,3.39,0,0,0-2.15-1.28.52.52,0,0,0-.65.36c-.17.39.15.47.38.59A3.34,3.34,0,0,0,53.34,93.77Zm-5.49,5.06a3.47,3.47,0,0,0,3,1.5C50.08,99.34,49.37,98.4,47.85,98.83ZM29,98.82c-1.53-.41-2.24.51-3,1.52A3.49,3.49,0,0,0,29,98.82ZM19.66,48.91a5.28,5.28,0,0,0,2.59-.14c.22-.09.32-.2.28-.43s-.2-.24-.36-.25A3.41,3.41,0,0,0,19.66,48.91Zm37.79,0a4.89,4.89,0,0,0-2.39-.85c-.28,0-.7-.15-.73.34s.43.46.68.5A7.9,7.9,0,0,0,57.45,48.93ZM22.66,65.56c-.78.38-1.53.58-1.89,1.37a6.52,6.52,0,0,0,2.43-.5C23,66.13,22.85,65.87,22.66,65.56Zm31,.88a5.8,5.8,0,0,0,2.39.48,1,1,0,0,0-.46-.61,3.3,3.3,0,0,0-.59-.38C54.23,65.53,54.23,65.54,53.65,66.44Zm2.5-11.09a5,5,0,0,0-2.89.8C54.55,56.79,55.31,55.89,56.15,55.35Zm-32.61.71a6.1,6.1,0,0,0-3-.76C21.94,56.42,22.63,56.6,23.54,56.06Zm14.81,85.76a11,11,0,0,0,0,3.54A5.62,5.62,0,0,0,38.35,141.82ZM29.1,13.34a4,4,0,0,0,1.72,1.31c.48-.91.47-.89-.32-1.19A2.32,2.32,0,0,0,29.1,13.34ZM46,14.68a4.14,4.14,0,0,0,1.71-1.34,2.27,2.27,0,0,0-1.35.11C45.57,13.75,45.56,13.73,46,14.68ZM56,72.74a2.65,2.65,0,0,0-2.21-.68c-.18,0-.44-.06-.47.22a.39.39,0,0,0,.42.46C54.44,72.75,55.11,72.74,56,72.74Zm-35.17,0c.77,0,1.34,0,1.92,0a1.86,1.86,0,0,0,.57-.11c.08,0,.14-.18.17-.29s-.1-.28-.27-.28A2.74,2.74,0,0,0,20.85,72.75Zm.47-44.52a5.14,5.14,0,0,0,1.77.94c.25.1.54.31.65-.14a.45.45,0,0,0-.39-.61C22.69,28.34,22.07,28,21.32,28.23Zm34.19,0a4,4,0,0,0-2.06.2c-.36.06-.41.37-.32.65s.36.2.58.1A5.4,5.4,0,0,0,55.51,28.24Zm-4-6.69a3.73,3.73,0,0,0-1.83.76c-.18.13-.58.31-.31.63s.5.06.74-.08A5.12,5.12,0,0,0,51.52,21.55Zm-26.37-.12A5.75,5.75,0,0,0,27.06,23a.38.38,0,0,0,.44-.1c.12-.16,0-.3-.1-.41A4.76,4.76,0,0,0,25.15,21.43ZM23.67,73.5c-2.31.22-2.31.22-2.66.65A4.49,4.49,0,0,0,23.67,73.5ZM56,74.15c-.85-1.07-1.92-.4-2.79-.68A4.59,4.59,0,0,0,56,74.15ZM19.76,42.68a2.76,2.76,0,0,0,1.79-.28.43.43,0,0,0,.24-.59c-.11-.27-.3-.11-.49-.06A2.41,2.41,0,0,0,19.76,42.68Zm37.37,0a2.7,2.7,0,0,0-1.57-.91c-.18,0-.39-.22-.5,0a.42.42,0,0,0,.22.6A2.87,2.87,0,0,0,57.13,42.67ZM27.48,18.87a4.88,4.88,0,0,0,1.45,1c.17.11.38.2.52,0a.41.41,0,0,0-.15-.6A2.19,2.19,0,0,0,27.48,18.87Zm21.93,0a2.35,2.35,0,0,0-1.91.39.38.38,0,0,0-.14.52c.1.22.33.19.51.08A7,7,0,0,0,49.41,18.87ZM27.1,103.78c.7.32,1.23,0,1.78-.16.14,0,.09-.2.11-.31a.2.2,0,0,0-.19-.24A2,2,0,0,0,27.1,103.78Zm22.67,0a2.49,2.49,0,0,0-1.54-.7.26.26,0,0,0-.36.19c0,.2,0,.42.24.45C48.61,103.74,49.08,104.09,49.77,103.75ZM20.94,29.62a3.41,3.41,0,0,0,2.87.53A5.4,5.4,0,0,0,20.94,29.62Zm26.27,78.59c.48,0,1,.59,1.49,0a1.8,1.8,0,0,0-1.09-.83c-.27-.08-.44,0-.32.36C47.34,107.86,47.24,108,47.21,108.21Zm8.66-78.59a5.2,5.2,0,0,0-3,.61A4.18,4.18,0,0,0,55.87,29.62Zm-27.7,78.6c.34.43.7.21,1.06.07l.42-.13c-.13-.22,0-.48-.06-.66s-.39-.16-.6,0A1.6,1.6,0,0,0,28.17,108.22Zm10.22,29a4.36,4.36,0,0,0,.11,2.68A4.88,4.88,0,0,0,38.39,137.2ZM20.06,56.77c.89.56,1.8.23,2.61.52A2.87,2.87,0,0,0,20.06,56.77Zm-.26-6.59a4.2,4.2,0,0,0,2.31-.62C21.33,49.77,20.43,49.52,19.8,50.18Zm37.26,0c-.67-.66-1.57-.46-2.37-.63A4.67,4.67,0,0,0,57.06,50.19Zm-.34,6.56a3.09,3.09,0,0,0-2.55.5C55,57,56,57.4,56.72,56.75Zm-30,44.44A3.32,3.32,0,0,0,29,100.07C28.25,100.47,27.47,100.75,26.76,101.19Zm21.12-1.12a2.81,2.81,0,0,0,2.42,1.05A23,23,0,0,1,47.88,100.07Zm6.89-63.66a3.31,3.31,0,0,0,2.14.77C56.18,36.71,55.69,36.12,54.77,36.41Zm-32.64,0c-1-.32-1.48.28-2.24.81A4.85,4.85,0,0,0,22.13,36.43ZM45.92,15.61a2.89,2.89,0,0,0,2-.84A3.08,3.08,0,0,0,45.92,15.61Zm-16.87-.73a2.65,2.65,0,0,0,1.89.69A2.68,2.68,0,0,0,29.05,14.88ZM39.22,128.8c-.06,1.14-.06,1.14,1.17,1.45A4.49,4.49,0,0,1,39.22,128.8Zm-1.62-.05a7.23,7.23,0,0,1-1,1.52C37.36,130.06,37.93,129.75,37.6,128.75Zm-7.25-16.23-.18-.83c-.3.32-.75.4-.91.85A2.21,2.21,0,0,0,30.35,112.52Zm17.27,0a2.9,2.9,0,0,0-1-.77l-.15.85A3.37,3.37,0,0,0,47.62,112.5ZM38.4,134.84c-.14.36-.36.75.09,1.12A.91.91,0,0,0,38.4,134.84Zm-7.5-17c.3.08.62.18.75-.24,0-.09,0-.3-.08-.3-.32,0-.48.19-.63.42A.34.34,0,0,0,30.9,117.8Zm15.14,0c-.18-.22-.24-.33-.32-.4s-.3-.35-.47-.13-.08.45.2.53A2.8,2.8,0,0,0,46,117.84Zm-14.58.84c.34.26.55,0,.77-.09s.13-.18.05-.28-.17-.11-.2-.08S31.63,118.34,31.46,118.68Zm13.61.12c.18,0,.26-.06.25-.19,0-.3-.38-.2-.53-.38,0,0-.26.1-.26.14C44.55,118.73,44.86,118.73,45.07,118.8Zm.89-5.61c.06.07.08.11.11.12.19.08.35.33.6.17,0,0,.06-.06,0-.08-.12-.25-.34-.27-.57-.27A.84.84,0,0,0,46,113.19Zm-15.15,0a.25.25,0,0,0-.11,0c-.23,0-.45,0-.57.26,0,0,0,.07,0,.08.26.17.41-.08.6-.16S30.88,113.21,30.81,113.17Zm8.38,20.28a.18.18,0,0,0,.15.23c.06,0,.13,0,.2-.06l-.21-.24S39.22,133.36,39.19,133.45Zm-1.81.06c-.09.11-.06.16,0,.18a.18.18,0,0,0,.23-.16c0-.06,0-.13-.07-.19Zm1.12,2.77s0-.07,0-.08-.08,0-.09,0-.07.11,0,.14S38.47,136.29,38.5,136.28Zm-.06,9.62v-.05l-.08,0Z"/><path d="M37.14,2.45c-.06-.16.07-.2.17-.23s.3,0,.34.17-.07.21-.18.25S37.2,2.6,37.14,2.45Z"/><path d="M39.48,2.66c-.17,0-.3-.1-.29-.28a.2.2,0,0,1,.24-.17c.13,0,.33,0,.27.24A.25.25,0,0,1,39.48,2.66Z"/></g></g></svg>