<svg xmlns="http://www.w3.org/2000/svg" viewBox="0 0 49.08 98.57"><title>Triconia</title><g id="Layer_2" data-name="Layer 2"><g id="Triconia"><path d="M18.65,53.48a3.85,3.85,0,0,0-.71,1.58c-.55,1.83-.92,3.76-2.47,5.13l-.34.33c-.13.13-.25.14-.39,0a.27.27,0,0,1,0-.4,3.47,3.47,0,0,0,.29-.38l0,0,0,.07c-.23,0-.51,0-.64-.17s.08-.36.22-.5a2,2,0,0,0,.65-.8.24.24,0,0,0,.23-.24c.13,0,.22-.09.23-.24l.1,0,0,0-.1.12a.27.27,0,0,0-.24.24c-.13,0-.27,0-.23.24-.66-.47-.67-.48-.21-.85.24-.19.52-.32.66-.61l.06-.05,0,.07c-.15,0-.31.09-.45.15a.33.33,0,0,1-.41-.14c-.13-.17,0-.3.1-.4s.42-.32.64-.48c-.21-.17-.91-.18-.31-.57a3.67,3.67,0,0,0,1.39-2.37c.4-1.27.26-2.65,1.06-3.84.41-.61-.06-1.39-.31-2.05a15,15,0,0,1-1.07-3.39,7.49,7.49,0,0,0-.72-2.25,6.51,6.51,0,0,1-.5-2,19.9,19.9,0,0,1-.28-5.82,14.26,14.26,0,0,0-.22-3.31A27.48,27.48,0,0,1,17,16.58a29.23,29.23,0,0,1,1.75-3.66c.06-.1.16-.26.13-.31-.53-.86.42-.54.64-.79-.69-.74-.69-.75-1.44-.33a23,23,0,0,0-3.32,2.11c-.15.12-.33.22-.49.34s-.34.19-.5,0,0-.35.16-.48A10.39,10.39,0,0,1,16,11.92l1.84-1.12a4.24,4.24,0,0,0-2.32-.45c-.12,0-.22.09-.34.12s-.54.15-.6-.14.22-.51.51-.52a7.05,7.05,0,0,1,2.38.11c.44.13.86.45,1.45.28,0,0,0-.06,0-.16-.83-1.26-1.17-1.41-2.64-1.1-.12,0-.22.1-.34.12s-.41,0-.47-.23.14-.38.32-.44c.41-.13.88,0,1.29-.2A4.93,4.93,0,0,1,17.63,8c-.07-.38-.34-.33-.57-.34a2.94,2.94,0,0,1-1.18-.12,1.12,1.12,0,0,0-1.3.31,12.58,12.58,0,0,0-2.34,2.55c-.11.16-.17.41-.43.31s-.21-.4-.11-.61a8,8,0,0,1,1.44-1.74c.26-.29.57-.55.87-.83a.76.76,0,0,0-.82.07c-.34.15-.79.8-.89-.28,0-.48-1.69-.36-2.21.16-.11.11-.19.25-.3.37s-.24.74-.63.53-.07-.58,0-.87C8.1,7.06,7.48,7.7,7,8.5,6,10,5.19,11.51,4.39,13.07c-.2.38-.31,1.16-.82.88s.08-.84.28-1.24A36.21,36.21,0,0,1,6.52,8.07a.61.61,0,0,0,.1-.45H6.7l-.06,0L4,10.06c-.06.06-.1.13-.17.16a.33.33,0,0,1-.44,0c-.14-.15-.06-.3,0-.42A21.83,21.83,0,0,1,6.1,7.29a4.28,4.28,0,0,0-1.46.5c-.2.08-.41.12-.53-.08s.09-.44.29-.54a10.45,10.45,0,0,1,1-.42C3.65,6.13,1.84,6.24,0,5.53a1.81,1.81,0,0,1,1.57-.24c1.25.21,2.51.38,3.74.67a3,3,0,0,0,2.4-.39C7,5.21,6.26,4.85,5.54,4.47c-.17-.09-.37-.25-.29-.47s.38-.2.6-.09c.82.4,1.63.83,2.47,1.2.33.14.92.4.56-.45,0-.07.06-.24.13-.29.23-.15.35,0,.49.18.89.84,1,.86,2,.34-.13-.38-.54-.47-.74-.77a.36.36,0,0,1,0-.44c.14-.17.29-.09.41,0s.53.48.78.74a1,1,0,0,0,.93.34,17.47,17.47,0,0,1-2.29-2.14,10.91,10.91,0,0,1-.73-1A.22.22,0,0,1,10,1.38c.1-.08.21-.14.32,0l.62.56c.68.68,1.32,1.39,2,2a2.66,2.66,0,0,0,2,.82c.16,0,.39,0,.44-.12.28-.95.58-.58.88,0,.21.4.59.35.93.4.74.11.83,0,.69-.74s-.32-1.64-.44-2.46a6.85,6.85,0,0,1,0-1.2c0-.29.12-.62.44-.6s.3.41.29.67a12.68,12.68,0,0,0,.49,3.77A1.89,1.89,0,0,0,19,5.1c.07.1.23.3.35.07.35-.68.54-.5.56.11a1,1,0,0,0,.57,1,6.54,6.54,0,0,1,1,.85c.45-.83.23-1.76.55-2.58a6.14,6.14,0,0,1,.46-1.09c.1-.17.18-.39.44-.28s.21.31.13.5a11.52,11.52,0,0,0-.57,1.81,9.86,9.86,0,0,0-.16,2.23c.15,0,.17-.09.22-.16s.24-.59.59-.39.11.41,0,.63a1.19,1.19,0,0,0,.15,1.31.92.92,0,0,0,1,.48,7.85,7.85,0,0,1,.84,0,1.21,1.21,0,0,0,1.24-1.62c-.08-.28-.44-.64,0-.82s.47.32.69.68A7.24,7.24,0,0,0,26.47,4c-.11-.3-.39-.68,0-.85s.51.31.61.56a5.92,5.92,0,0,1,.51,1.94,3.51,3.51,0,0,0,.3,1.39c.42-.32.8-.68,1.24-1s.27-.7.36-1.06.33-.41.46-.08c.32.79.5.07.55-.08a10.31,10.31,0,0,0,.64-3c0-.48,0-1,0-1.44,0-.2,0-.43.29-.43a.43.43,0,0,1,.4.38,3.62,3.62,0,0,1,0,1.43,21.53,21.53,0,0,1-.53,2.68c-.18.56.28.63.44.59.46-.12,1,0,1.34-.57.17-.35.55-1,.76,0,.06.25.31.19.5.21a2.64,2.64,0,0,0,2-.83c.71-.64,1.36-1.35,2-2,.2-.2.4-.38.61-.56s.23,0,.32,0a.21.21,0,0,1,0,.31,11.49,11.49,0,0,1-.8,1,17.62,17.62,0,0,1-2.32,2.14c1-.13,1.3-.81,1.82-1.18.13-.09.28-.18.42,0a.35.35,0,0,1,0,.44,1.52,1.52,0,0,1-.34.33,1,1,0,0,0-.39.44c1,.52,1.15.5,2-.34.14-.14.27-.33.49-.18s.16.23.09.41c-.27.66.28.46.49.37.73-.32,1.41-.74,2.15-1,.3-.12.74-.65,1-.1.18.39-.39.51-.68.67-.56.31-1.13.57-1.7.86.9.84,2,.47,3,.35s2.17-.43,3.26-.63a1.69,1.69,0,0,1,1.22.1,1,1,0,0,1-1,.59c-1.19.06-2.33.5-3.52.54a.65.65,0,0,0-.5.32c.3.12.6.22.88.36s.46.25.29.54-.33.16-.53.07a11.66,11.66,0,0,0-1.4-.5,29.83,29.83,0,0,1,2.45,2.31c.15.16.42.35.19.6s-.41.06-.6-.13c-.87-.82-1.76-1.62-2.64-2.43l-.05,0h.08a26.61,26.61,0,0,0,1.71,3.09c.46.92,1,1.8,1.39,2.76.08.18.17.41,0,.54s-.42-.1-.52-.29c-.71-1.29-1.4-2.59-2.1-3.88a14.56,14.56,0,0,0-.87-1.42c-.71-1-.72-1-2.1-1-.07.31.29.66,0,1a.28.28,0,0,1-.39-.14A2.05,2.05,0,0,0,38.17,7,.93.93,0,0,0,37,7.66c-.15.32-.34.26-.56.14s-.51-.4-.86-.37a1.28,1.28,0,0,0-.26.07L37,9.23c.11.12.23.23.33.35.22.32.64.77.29,1s-.6-.35-.78-.6a15,15,0,0,0-1.62-1.76c-.57-.59-1.16-1.07-2.09-.64-.41.19-1-.08-1.5.24a2.11,2.11,0,0,0,1.19.46,5.69,5.69,0,0,1,.71.07c.18,0,.37.17.33.42a.31.31,0,0,1-.45.25,4.05,4.05,0,0,0-1.29-.21c-.66,0-1.18.1-1.42.79a2.21,2.21,0,0,1-.34.5.84.84,0,0,0,.89-.05,6,6,0,0,1,2.59-.31,1.05,1.05,0,0,1,.69.15c.12.1.26.21.21.39a.28.28,0,0,1-.38.19,4.13,4.13,0,0,0-2.46,0,2,2,0,0,0-.46.22c.72.44,1.36.8,2,1.2a10.46,10.46,0,0,1,2,1.46c.13.13.35.25.18.48s-.42.1-.6,0a28.82,28.82,0,0,0-3.7-2.39c-.76-.41-.77-.41-1.45.31.16.29,1.17-.08.64.8-.06.11.2.4.31.61a41.46,41.46,0,0,1,2.61,6.14,28.7,28.7,0,0,1,1.22,11.32,26.83,26.83,0,0,0-.14,4,15.31,15.31,0,0,1-1.25,7.69,2.77,2.77,0,0,0-.16.69,17.36,17.36,0,0,1-1.23,4.09,2.49,2.49,0,0,0,0,2.8,1.39,1.39,0,0,1,.28.78,13.72,13.72,0,0,0,.43,2.3A3.32,3.32,0,0,0,34,55.42c.6.38-.09.4-.28.55.07.2.28.23.42.35s.46.24.29.54-.4.14-.62,0a1.55,1.55,0,0,0-.23-.06l0-.06.07,0c.12.31.42.42.65.61.46.38.45.39-.21.85,0-.19-.1-.21-.24-.23a.26.26,0,0,0-.23-.25.22.22,0,0,0-.05-.08s0,0,0,0l.13.09c0,.15.1.21.23.24a.23.23,0,0,0,.23.24,1.88,1.88,0,0,0,.65.8c.14.13.33.3.23.49s-.41.18-.64.16l0,0,.07,0c.11.16.22.32.34.47s0,.22,0,.31a.23.23,0,0,1-.39,0,8.29,8.29,0,0,1-1.94-2.77,35.1,35.1,0,0,0-1.41-4.12c0-.06-.11-.1-.16-.15l-.07-.07h0l.13.05A4.58,4.58,0,0,0,31,56a.79.79,0,0,1,.11.45,3.66,3.66,0,0,0,1,2.78c.52.61-.33.39-.57.54a.22.22,0,0,0,0-.3.09.09,0,0,0-.09,0c-.06.14.05.19.15.24l.06.1c.12.25.57.4.34.76s-.54-.13-.85,0a5,5,0,0,1,.45.93c.08.34-.23.33-.47.33a.2.2,0,0,0-.05-.09s0,0,0,0l.13.09c-.07.42.34.74.24,1.15,0,.1-.1.24-.18.26a.32.32,0,0,1-.3-.11c-.25-.71-.79-1.31-.76-2.11a2.72,2.72,0,0,0-.55-1.88,11.84,11.84,0,0,1-1-2A2.08,2.08,0,0,0,26.39,56c-.06,0-.13.09-.17.15s0,.24.1.29a3.65,3.65,0,0,1,1.08.92,5.47,5.47,0,0,1,.78,5.19c-.44,1.44-1,2.83-1.38,4.3a7.08,7.08,0,0,0-.19,1.65,11.36,11.36,0,0,1-.21,3.44c-.15.44.22.81.21,1.27,0,1.87,0,3.75,0,5.62A2.3,2.3,0,0,0,27.3,81a.79.79,0,0,1,.2.3c.08.15.09.32-.07.41a.39.39,0,0,1-.33,0,3.12,3.12,0,0,1-.4-.31c-.33.76.2,1.12.67,1.43a4.41,4.41,0,0,1,1.46,1.39c.13.23.22.45-.06.61s-.38-.07-.47-.24c-.23-.42-.41-.88-1-.85l0-.09.06.06c.1.65.61,1.11.77,1.74.05.19.16.36-.06.51s-.32,0-.41-.12-.32-.43-.24.08c0,.21.07.41-.22.44s-.31-.16-.37-.36-.23-.57-.37-.91c-.1,2,0,3.9.12,5.82,0,.39.4,1.13-.36,1.13-.54,0-.32-.71-.32-1.11,0-1.64,0-3.28,0-4.92V84.85a24,24,0,0,0-.45,4c0,2.8,0,5.6,0,8.4,0,.28,0,.56,0,.84s0,.44-.28.43-.25-.26-.26-.45a7.85,7.85,0,0,1,0-.84c0-4,0-8,0-12A7.2,7.2,0,0,1,25,83.62a1.93,1.93,0,0,0,.05-1,9.56,9.56,0,0,1-.2-2.61.82.82,0,0,0-.12-.57c-.39,0-.3.28-.31.49a11.42,11.42,0,0,1-.2,2.73c-.17.58.16,1.17.17,1.77,0,2.12.09,4.24.1,6.36s0,4.31-.05,6.47c0,.32,0,.64,0,1,0,.16-.09.32-.29.29s-.24-.18-.24-.34c0-.48,0-1,0-1.44,0-2.8,0-5.6,0-8.4a16.94,16.94,0,0,0-.42-3.45V91c0,.24,0,.48,0,.72a.34.34,0,0,1-.37.37.36.36,0,0,1-.34-.41c0-.88.05-1.76.13-2.64.11-1.3,0-2.6.05-4.07-.18.49-.3.82-.41,1.15a.31.31,0,0,1-.35.24.24.24,0,0,1-.24-.32c.19-.84-.14-.24-.31-.12s-.19.14-.31,0a.28.28,0,0,1-.11-.4c.29-.61.55-1.23.82-1.84l0-.06,0,.08c-.6,0-.79.42-1,.84-.09.17-.24.37-.47.25s-.2-.38-.07-.61a4.48,4.48,0,0,1,1.45-1.39c.47-.3,1-.63.73-1.36-.22-.06-.29.18-.45.24a.49.49,0,0,1-.33,0,.29.29,0,0,1-.07-.42,1,1,0,0,1,.28-.38c.74-.51.67-1.25.66-2,0-1.92-.13-3.84,0-5.75s-.17-3.62-.07-5.43A7.21,7.21,0,0,0,22,65.25a27.84,27.84,0,0,1-1.13-3.75,4.62,4.62,0,0,1,1.88-4.92.94.94,0,0,0,.19-.14c.07-.08.21-.15.12-.29s-.18-.23-.29-.16a1.79,1.79,0,0,1-1,.15.74.74,0,0,0-.69.39c-.72,1-1,2.31-1.83,3.33a1.31,1.31,0,0,0-.08.82,4.84,4.84,0,0,1-.72,2.37c-.06.16-.17.28-.35.23s-.18-.22-.2-.38c0-.38.34-.65.25-1l.1,0s0,0,0-.06l-.11.12c-.29,0-.59,0-.44-.44a8.89,8.89,0,0,1,.42-.81c-.1,0-.17-.09-.21-.07-.22.1-.46.23-.64,0s.07-.4.19-.58l.21-.28c.1,0,.21-.1.15-.24s-.08-.05-.09,0a.22.22,0,0,0,0,.3c-.91-.18-.94-.2-.35-.83a2.68,2.68,0,0,0,.77-2,1.74,1.74,0,0,1,.11-.93,4.45,4.45,0,0,0,.35-2.52h.11a.16.16,0,0,0,.05-.08Zm9.15,1-.24-.09.26.07a.46.46,0,0,0,.42.45c.43,0,.66.32,1,.53l.05,0-.07,0c-.16-1-.16-1-1.16-.95A.93.93,0,0,1,27.8,54.43Zm-6.28,0c-.2,0-.44.07-.59,0-.47-.25-.64,0-.75.38a2.88,2.88,0,0,0-.07.59l-.06,0,0-.06c.32-.19.55-.51,1-.52a.47.47,0,0,0,.43-.44.26.26,0,0,1,.09-.05h.1c.08,0,.08,0,0,0A.42.42,0,0,0,21.52,54.44Zm7,1.21,0,0,.06,0,1.22,2.31A3,3,0,0,0,28.5,55.65Zm-7.68,0a3.2,3.2,0,0,0-1.33,2.45l1.31-2.47.06,0ZM33.59,33a1.06,1.06,0,0,0,.14-.35c.09-1.43.14-2.87.25-4.3a19.6,19.6,0,0,0-.32-4.4,29.42,29.42,0,0,0-2.57-8.27,10.11,10.11,0,0,0-3.33-4.38,6,6,0,0,0-6.25,0,8.26,8.26,0,0,0-2.88,3.54c-.27.71-.62,1.38-.94,2.06a28.06,28.06,0,0,0-2.34,9.91,56.79,56.79,0,0,0,.27,6s.11.1.17.16A20.57,20.57,0,0,1,33.59,33ZM16.9,42c.54-.25,1.07-.51,1.61-.73a16.86,16.86,0,0,1,6.57-1,14.52,14.52,0,0,1,6.8,1.48c.47.25.73.21.91-.29a3.65,3.65,0,0,0,.23-.54,21.14,21.14,0,0,0,.72-6.38c0-.42-.23-.58-.59-.77a19.59,19.59,0,0,0-10.86-1.81c-.32.05-.62.16-.93.2a14.86,14.86,0,0,0-5.1,1.55,1.13,1.13,0,0,0-.71,1.07,21.34,21.34,0,0,0,.37,4.52A4.73,4.73,0,0,0,16.9,42Zm3.78,4-.12-.3c-.1-.24-.34-.51,0-.72s.49.12.66.32a2.7,2.7,0,0,0,2.18,1c.88,0,1.76,0,2.64,0a2.65,2.65,0,0,0,2-.92c.2-.22.32-.66.73-.38s0,.56-.07.84c0,.1-.05.15.09.19a6.61,6.61,0,0,1,1.75.64c.41.19.65.11.83-.33a21.69,21.69,0,0,0,.92-3.07c.09-.35-.12-.49-.38-.64a11.42,11.42,0,0,0-2.64-1.07,20.39,20.39,0,0,0-8.52-.17,10.75,10.75,0,0,0-3.23,1.19c-.28.15-.57.3-.47.72A22.09,22.09,0,0,0,18,46.32c.18.44.44.47.85.28A7,7,0,0,1,20.68,46Zm.9,14.55a5,5,0,0,0,.35,2.37c.43,1.27.86,2.54,1.24,3.83s.45,1.46,1.83,1.41a1,1,0,0,0,1-.8,48.48,48.48,0,0,1,1.46-4.76,5.51,5.51,0,0,0-.41-4.46,2.82,2.82,0,0,0-4.62-.3A3.29,3.29,0,0,0,21.58,60.5ZM18.5,47.93a6.37,6.37,0,0,0,.83,2.34,1,1,0,0,0,1.32.44,6.68,6.68,0,0,1,1.12-.37,13,13,0,0,1,6.82.33c.76.27,1,.19,1.41-.43a6.37,6.37,0,0,0,.83-2.34.31.31,0,0,0-.2-.38c-1.18-.49-2.3-1.29-3.68-.66a1.15,1.15,0,0,1-.57.14c-1.57-.1-3.19.34-4.71-.39a.53.53,0,0,0-.34-.07,11.93,11.93,0,0,0-2.56.94C18.58,47.59,18.45,47.7,18.5,47.93ZM20,51.7a3,3,0,0,0,.59,1.62c.33.47.52.45.92,0,.65-.76.65-.76,1.56-.37A4.08,4.08,0,0,0,26,53c.34-.1.62-.35,1-.34s.6.48.84.77.56.23.78-.07a2.68,2.68,0,0,0,.63-1.69A12.4,12.4,0,0,0,20,51.7Zm11.16-46A9.34,9.34,0,0,0,28.42,7.5a1.49,1.49,0,0,0-.35,2.21,6.91,6.91,0,0,1,.54,1.17C30,10,30.56,8.44,31.34,7.08A1.39,1.39,0,0,0,31.19,5.69ZM20.71,10.88c.29-.67.51-1.3.83-1.89a.6.6,0,0,0-.07-.82A8.22,8.22,0,0,0,18.72,6c-.63-.32-.81-.21-.89.51a1.08,1.08,0,0,0,.16.68C18.8,8.44,19.32,10,20.71,10.88ZM26,68.59a3.92,3.92,0,0,1-2.66,0,8.82,8.82,0,0,0,0,2.23,1.24,1.24,0,0,0,1.3,1.27A1.29,1.29,0,0,0,26,70.89,6.63,6.63,0,0,0,26,68.59ZM38,5.85c-1.7-.58-3.4-.31-5.09-.32a1.94,1.94,0,0,0-.45.14c-.53.12-.36.52-.36.86s.25.41.56.4c1.35-.06,2.68-.31,4-.32A1.52,1.52,0,0,0,38,5.85Zm-26.84,0a2.12,2.12,0,0,0,1.43.77c1.32,0,2.61.24,3.92.29.23,0,.53.1.6-.21s.18-.67-.08-.9a1.24,1.24,0,0,0-.88-.3C14.57,5.56,12.93,5.27,11.2,5.86ZM23.56,72.65a4.07,4.07,0,0,0-.08,2c0,.21.09.41.34.39.62,0,1.36.25,1.84-.12s.22-1,.26-1.58a.83.83,0,0,0-.2-.66A12,12,0,0,1,23.56,72.65Zm3.36-19.16a5.26,5.26,0,0,1-4.44,0s-.07.07-.07.09.08.21.09.32c.17,1,.31,1.16,1.26,1.18q1,0,1.92,0c.75,0,1-.23,1.11-.94C26.83,54,26.86,53.81,26.92,53.49ZM26,76.7c-.41.11-1-.09-1,.55a2.91,2.91,0,0,0,.23,1.62.4.4,0,0,0,.37.24c.2,0,.25-.14.28-.31A4.52,4.52,0,0,0,26,76.7Zm-2.65,0a4.4,4.4,0,0,0,.16,2.22.27.27,0,0,0,.46.14,2.22,2.22,0,0,0,.37-1.9C24.23,76.61,23.71,76.82,23.34,76.69Zm7.78-26.64a2.12,2.12,0,0,0-.4,1.67c0,.17.11.34.27.35a.56.56,0,0,0,.38-.22C31.84,51.23,31.57,50.68,31.12,50.05Zm-12.91,0a1.52,1.52,0,0,0-.42,1.57.52.52,0,0,0,.53.39c.21,0,.27-.25.29-.46A2,2,0,0,0,18.21,50.07Zm5.15,25.56c1.12.86,1.68.85,2.5,0ZM9.07,6.17c.27.61.73.5,1.14.46s.33-.26.28-.52-.17-.34-.4-.23S9.39,5.86,9.07,6.17Zm31.18-.1c-.41-.08-.72-.12-1-.2s-.35,0-.4.26,0,.44.2.48C39.47,6.67,40,6.81,40.25,6.07ZM23.49,80a2.21,2.21,0,0,0,.07,2.14A2.93,2.93,0,0,0,23.49,80Zm2.38,0c-.39,1-.37,1.43.08,2A3.25,3.25,0,0,0,25.87,80Zm5.81-27.47a.38.38,0,0,0-.28.46c0,.26,0,.57.29.7.07,0,.18,0,.22,0,.29-.24.11-.49,0-.72S31.91,52.55,31.68,52.48Zm-14.09,0-.26.65c-.08.22-.2.49.13.56s.41-.17.42-.42S18,52.67,17.59,52.44ZM7.44,6.57a.68.68,0,0,0,1,.15.33.33,0,0,0,0-.32c-.33-.37-.63-.08-.93.09ZM29.82,54.8c.22-.69.22-.69-.18-1.46C29.29,53.91,29.83,54.34,29.82,54.8ZM41.89,6.57c-.38-.21-.68-.58-1.06-.14a.2.2,0,0,0,0,.21C41.14,7,41.48,7,41.89,6.57ZM19.52,53.39c0,.46-.51.94,0,1.4C19.41,54.31,20.13,53.88,19.52,53.39ZM27.44,10c-.11-.32,0-.77-.51-.8-.07,0-.2.16-.22.26C26.65,10,27.12,9.94,27.44,10Zm-5.58,0a.8.8,0,0,0,.73-.29c.2-.22-.08-.33-.16-.48s-.12-.09-.23,0A1.07,1.07,0,0,0,21.86,10ZM32.21,55.66a3.13,3.13,0,0,0,0-1.43C31.58,54.84,32.32,55.22,32.21,55.66ZM17,55.59c0-.42.71-.8.06-1.36C17.05,54.77,17,55.18,17,55.59Zm6.88.36a2.07,2.07,0,0,0,1.49,0Zm6.17-.22c.08.3.15.6.22.89C30.37,56.29,30.51,56,30.06,55.73ZM19,56.74a2.41,2.41,0,0,0,.18-1.3A1.62,1.62,0,0,0,19,56.74Zm8.26-1.18c.15,0,.23-.07.23-.19a.17.17,0,0,0-.22-.17.24.24,0,0,0-.14.14C27.06,55.47,27.15,55.53,27.24,55.56Zm-5-.22c-.05-.11-.14-.18-.25-.14a.17.17,0,0,0-.09.26.21.21,0,0,0,.18.1A.16.16,0,0,0,22.21,55.34Z"/><path d="M23.47,60.44c.15.25.31.53-.17.55a1,1,0,0,1-.81-.43.68.68,0,0,1-.21-.64c.1-.31.36-.21.59-.2s.48,0,.71,0,.48.13.43.43-.29.33-.55.29c-.07,0-.08,0,0-.06Z"/><path d="M25.86,60.45c-.26,0-.51,0-.56-.29s.18-.41.43-.44a1.07,1.07,0,0,1,.47,0c.28.08.67-.22.83.21s-.1.53-.29.73a.78.78,0,0,1-.95.27c-.28-.14,0-.32.06-.48s0-.08.07,0Z"/></g></g></svg>